<svg xmlns="http://www.w3.org/2000/svg" xmlns:xlink="http://www.w3.org/1999/xlink" width="385.9" height="397.541" viewBox="0 0 385.9 397.541">
  <defs>
    <linearGradient id="linear-gradient" x1="0.5" x2="0.5" y2="1" gradientUnits="objectBoundingBox">
      <stop offset="0" stop-color="#2e9daa"/>
      <stop offset="1" stop-color="#2a75a9"/>
    </linearGradient>
    <linearGradient id="linear-gradient-3" x1="0.5" x2="0.5" y2="1" gradientUnits="objectBoundingBox">
      <stop offset="0" stop-color="#3b4454"/>
      <stop offset="1" stop-color="#20242d"/>
    </linearGradient>
  </defs>
  <g id="Grupo_87573" data-name="Grupo 87573" transform="translate(-633.799 -117.873)">
    <ellipse id="Elipse_4776" data-name="Elipse 4776" cx="13.43" cy="6.672" rx="13.43" ry="6.672" transform="translate(790.207 428.416) rotate(-1.016)" fill="#a8c4e5" opacity="0.4" style="mix-blend-mode: multiply;isolation: isolate"/>
    <g id="Grupo_87527" data-name="Grupo 87527" transform="translate(792.978 407.238)">
      <path id="Trazado_101079" data-name="Trazado 101079" d="M964.6,757.046l-3.222.594c-2.419-.286-3.652-.688-4.361.143l-.2.235c-.709.83-.231,1.739,1.064,2.02l5.914,2.193a3,3,0,0,0,3.2-1.4s.328-.625-.781-2.458C965.578,757.333,965.634,757.27,964.6,757.046Z" transform="translate(-956.485 -731.112)" fill="#2c1f9c"/>
      <path id="Trazado_101080" data-name="Trazado 101080" d="M987.782,712.686s-14.553-10.905-20.44-7.583c-5.755,3.247-2.636,25.878-2.636,25.878,1.452,1.2,3.568,1.662,4.456.148l2.47-16.968,19.146,5.99,2.494-11.632Z" transform="translate(-960.223 -704.473)" fill="#ffc2b0"/>
    </g>
    <path id="Trazado_101081" data-name="Trazado 101081" d="M822.913,272.814l-.16-23.543-.2-29.174h0l-.337-49.507h0l-.359-52.717h0l-30.72,17.809-13.944,8.084v-.034l-1.857,1.077v.033L746.1,161.793l-13.568,7.866v-.023l-1.857,1.077v.022l-42.807,24.817v-.011l-1.857,1.077v.011l-29.077,16.856-13.731,7.96-1.857,1.131.014,2.092h0l.334,48.966h0l.362,53.259h0l.348,51.112,46.522-26.97h0l44.664-25.893h0l44.665-25.893h0l44.664-25.893,0-.542Zm-179.7-49.221,29.077-16.856,13.731-7.961.333,48.966-28.863,16.733-13.945,8.084Zm.348,51.113,21.4-12.409,21.4-12.408.333,48.965L643.9,323.67Zm.681,100.077-.333-48.965,9.3-5.393L686.718,301l.333,48.965ZM687.88,197.7l42.807-24.817.333,48.966-42.807,24.816Zm.348,51.112,42.807-24.817.333,48.965L702.5,289.693l-13.944,8.084Zm.681,100.077-.333-48.965,28.863-16.733,13.944-8.084.333,48.965Zm43.636-177.082,29.239-16.951,13.568-7.866.333,48.965-28.863,16.733-13.945,8.084Zm.348,51.112,28.863-16.732L775.7,198.1l.333,48.966-29.238,16.951-13.568,7.866ZM733.573,323l-.333-48.965,29.239-16.951,13.569-7.866.333,48.965Zm43.636-177.082,28.863-16.733,13.945-8.084.333,48.965-42.807,24.817Zm.348,51.111,42.807-24.816.333,48.966L777.889,245.99Zm.681,100.078-.333-48.965,42.807-24.817.334,48.965Z" transform="translate(-3.823 0)" fill="#e6f4ff"/>
    <path id="Trazado_101082" data-name="Trazado 101082" d="M1020.806,117.873V292.639L1215.8,400.009V225.242Z" transform="translate(-196.099 0)" fill="#e6f4ff"/>
    <path id="Trazado_101083" data-name="Trazado 101083" d="M1058.6,277.338v120.5l-50.5,29.081-.039-120.722Z" transform="translate(-189.638 -80.802)" fill="#a52827"/>
    <path id="Trazado_101084" data-name="Trazado 101084" d="M956.136,306.466l.039,120.5-50.582-29.081V277.43Z" transform="translate(-137.721 -80.849)" fill="#ca4f4e"/>
    <path id="Trazado_101086" data-name="Trazado 101086" d="M956.136,276.64l50.542-29.081-50.213-28.991-50.872,28.991Z" transform="translate(-137.721 -51.023)" fill="#ca4f4e"/>
    <path id="Trazado_101087" data-name="Trazado 101087" d="M826.383,452.486l50.182-29.172-50.056-28.9L776.139,423.5Z" transform="translate(-72.125 -140.126)" fill="#1774b4"/>
    <path id="Trazado_101088" data-name="Trazado 101088" d="M877.994,556.016l49.92-29.081V453l-49.92,29.172Z" transform="translate(-123.736 -169.812)" fill="#1c6191"/>
    <path id="Trazado_101089" data-name="Trazado 101089" d="M826.716,556.156,776.8,527.074v-73.8l49.92,29.036Z" transform="translate(-72.458 -169.951)" fill="#2a75a9"/>
    <path id="Trazado_101090" data-name="Trazado 101090" d="M1326.013,596.657" transform="translate(-350.75 -242.604)" fill="none" stroke="#bad4f5" stroke-miterlimit="10" stroke-width="1.784"/>
    <g id="Grupo_87528" data-name="Grupo 87528" transform="translate(799.849 338.513)">
      <path id="Trazado_101091" data-name="Trazado 101091" d="M1173.4,746.525c38.88-22.447,38.682-58.956-.442-81.544l-18.366,10.6c-38.28-12.863-88.015-9.916-120.623,8.911-38.88,22.447-38.682,58.956.442,81.544s102.359,22.7,141.239.256l-70.841-40.9,16-9.236Z" transform="translate(-987.909 -615.737)" fill="#a8c4e5" opacity="0.4" style="mix-blend-mode: multiply;isolation: isolate"/>
      <path id="Trazado_101092" data-name="Trazado 101092" d="M1146.666,783.246c-38.88,22.447-102.114,22.333-141.239-.255s-39.322-59.1-.442-81.544,102.115-22.333,141.239.255l-70.4,40.644Z" transform="translate(-973.222 -625.721)" fill="#3899b5"/>
      <path id="Trazado_101093" data-name="Trazado 101093" d="M1257.094,819.018l0,32.285c-16.679,9.63-37.437,15.595-60.4,16.486l-2.066.1-.644-32.261C1191.245,821.557,1246.634,818.763,1257.094,819.018Z" transform="translate(-1083.649 -693.78)" fill="#bad0e6"/>
      <path id="Trazado_101094" data-name="Trazado 101094" d="M1319.322,701.728s39.893-16.944,28.828-70.895c-7.161-34.918-31.02,34.285-31.02,34.285Z" transform="translate(-1146.098 -593.446)" fill="#b26565"/>
      <path id="Trazado_101095" data-name="Trazado 101095" d="M989.4,767.472c-26.609-19.282-26.375-83.94,7.91-94.85l25.9,35.918s-19.81,68.8-20.6,68.354A85.163,85.163,0,0,1,989.4,767.472Z" transform="translate(-970.414 -619.608)" fill="url(#linear-gradient)"/>
      <path id="Trazado_101096" data-name="Trazado 101096" d="M1176.045,664.823c-39.124-22.588-102.359-22.7-141.239-.255l70.841,40.9Z" transform="translate(-1003.042 -607.034)" fill="#60c1dd"/>
      <path id="Trazado_101097" data-name="Trazado 101097" d="M1075.7,722.757l.126-.073-70.841-40.9c-9.654,5.574-24.125,17.431-29.031,26.1v12.65C1008.213,722.044,1052.74,721.728,1075.7,722.757Z" transform="translate(-973.221 -624.251)" fill="#2c1f9c"/>
      <path id="Trazado_101098" data-name="Trazado 101098" d="M1146.666,717.793c-38.88,22.448-102.114,22.333-141.239-.255s-39.322-59.1-.442-81.544,102.115-22.333,141.239.255l-70.4,40.644Z" transform="translate(-973.222 -592.556)" fill="#60c1dd"/>
      <path id="Trazado_101099" data-name="Trazado 101099" d="M1005.427,734.755c-39.124-22.588-39.322-59.1-.442-81.544l70.841,40.9Z" transform="translate(-973.221 -609.773)" fill="url(#linear-gradient)"/>
      <path id="Trazado_101100" data-name="Trazado 101100" d="M1176.045,636.249c-39.124-22.588-102.359-22.7-141.239-.255l70.841,40.9Z" transform="translate(-1003.042 -592.556)" fill="#abcfff"/>
      <path id="Trazado_101101" data-name="Trazado 101101" d="M1248.364,565.153c39.124,22.588,39.322,59.1.442,81.544l-70.84-40.9Z" transform="translate(-1075.582 -565.153)" fill="#ca4f4e"/>
      <path id="Trazado_101102" data-name="Trazado 101102" d="M1075.961,694.183l.126-.073-70.841-40.9c-17.558,10.137-27.144,23.142-28.777,36.437C1008.728,691.161,1053,693.155,1075.961,694.183Z" transform="translate(-973.482 -609.773)" fill="url(#linear-gradient-3)"/>
      <path id="Trazado_101103" data-name="Trazado 101103" d="M1178.158,736.2l.126-.073,70.841,40.9c-17.558,10.137-40.083,15.671-63.11,16.614C1183.392,775.012,1179.94,749.451,1178.158,736.2Z" transform="translate(-1075.68 -651.785)" fill="#fff"/>
      <path id="Trazado_101104" data-name="Trazado 101104" d="M1177.965,647.547v24.92l70.84,42.718V687.438Z" transform="translate(-1075.582 -606.903)" fill="#910b0a"/>
      <path id="Trazado_101105" data-name="Trazado 101105" d="M1035.7,850.8V818.517a104.58,104.58,0,0,0,17.386,8.045Z" transform="translate(-1003.496 -693.534)" fill="#3899b5"/>
    </g>
    <path id="Trazado_101106" data-name="Trazado 101106" d="M689.348,604.2l50.37-29.081-50.056-28.9L638.8,575.236Z" transform="translate(-2.533 -217.044)" fill="#f0f8ff"/>
    <path id="Trazado_101107" data-name="Trazado 101107" d="M690.231,674.641,638.8,643.808V605.046l51.433,28.96Z" transform="translate(-2.533 -246.854)" fill="#dbefff"/>
    <g id="Grupo_87531" data-name="Grupo 87531" transform="translate(686.742 358.07)">
      <g id="Grupo_87530" data-name="Grupo 87530">
        <g id="Grupo_87529" data-name="Grupo 87529">
          <path id="Trazado_101108" data-name="Trazado 101108" d="M741.124,674.393V633.881L791.568,604.8l-.073,40.281Z" transform="translate(-741.124 -604.8)" fill="#bad4f5"/>
        </g>
      </g>
    </g>
    <g id="Grupo_87540" data-name="Grupo 87540" transform="translate(730.861 250.719)">
      <ellipse id="Elipse_4777" data-name="Elipse 4777" cx="23.91" cy="13.527" rx="23.91" ry="13.527" transform="translate(8.511 22.406)" fill="#a8c4e5" opacity="0.4" style="mix-blend-mode: multiply;isolation: isolate"/>
      <g id="Grupo_87533" data-name="Grupo 87533" transform="translate(0 14.536)">
        <g id="Grupo_87532" data-name="Grupo 87532">
          <path id="Trazado_101109" data-name="Trazado 101109" d="M880.65,432.587a19.317,19.317,0,0,1-.785,5.93c-.931,3.234-3.85,6.3-8.662,8.554-10.558,4.947-26.2,4.116-34.942-1.855-4.074-2.784-5.926-6.192-5.676-9.54-.042-.312.281-4.467.281-4.467a10.406,10.406,0,0,1,1.9-3.383,17.864,17.864,0,0,1,7.255-5.666c10.558-4.947,26.2-4.116,34.942,1.856C878.646,426.531,880.508,429.557,880.65,432.587Z" transform="translate(-830.563 -417.805)" fill="#bda547"/>
          <ellipse id="Elipse_4778" data-name="Elipse 4778" cx="24.817" cy="14.04" rx="24.817" ry="14.04" transform="translate(0.258 0.765)" fill="#fff"/>
          <ellipse id="Elipse_4779" data-name="Elipse 4779" cx="24.817" cy="14.04" rx="24.817" ry="14.04" transform="translate(0.258)" fill="#f1ff6e"/>
        </g>
      </g>
      <g id="Grupo_87535" data-name="Grupo 87535" transform="translate(0 7.896)">
        <g id="Grupo_87534" data-name="Grupo 87534">
          <path id="Trazado_101110" data-name="Trazado 101110" d="M880.65,419.125a19.315,19.315,0,0,1-.785,5.93c-.931,3.234-3.85,6.3-8.662,8.555-10.558,4.946-26.2,4.116-34.942-1.856-4.074-2.783-5.926-6.192-5.676-9.539-.042-.313.281-4.467.281-4.467a10.4,10.4,0,0,1,1.9-3.382,17.864,17.864,0,0,1,7.255-5.666c10.558-4.946,26.2-4.116,34.942,1.856C878.646,413.07,880.508,416.1,880.65,419.125Z" transform="translate(-830.563 -404.343)" fill="#bda547"/>
          <ellipse id="Elipse_4780" data-name="Elipse 4780" cx="24.817" cy="14.04" rx="24.817" ry="14.04" transform="translate(0.258 0.765)" fill="#fff"/>
          <ellipse id="Elipse_4781" data-name="Elipse 4781" cx="24.817" cy="14.04" rx="24.817" ry="14.04" transform="translate(0.258)" fill="#f1ff6e"/>
        </g>
      </g>
      <g id="Grupo_87539" data-name="Grupo 87539" transform="translate(0)">
        <g id="Grupo_87538" data-name="Grupo 87538">
          <path id="Trazado_101111" data-name="Trazado 101111" d="M880.65,403.119a19.315,19.315,0,0,1-.785,5.93c-.931,3.234-3.85,6.3-8.662,8.554-10.558,4.947-26.2,4.116-34.942-1.855-4.074-2.783-5.926-6.192-5.676-9.54-.042-.312.281-4.467.281-4.467a10.407,10.407,0,0,1,1.9-3.383,17.867,17.867,0,0,1,7.255-5.666c10.558-4.947,26.2-4.116,34.942,1.856C878.646,397.064,880.508,400.089,880.65,403.119Z" transform="translate(-830.563 -388.337)" fill="#bda547"/>
          <ellipse id="Elipse_4782" data-name="Elipse 4782" cx="24.817" cy="14.04" rx="24.817" ry="14.04" transform="translate(0.258 0.765)" fill="#fff"/>
          <ellipse id="Elipse_4783" data-name="Elipse 4783" cx="24.817" cy="14.04" rx="24.817" ry="14.04" transform="translate(0.258)" fill="#f1ff6e"/>
          <ellipse id="Elipse_4784" data-name="Elipse 4784" cx="17.349" cy="9.815" rx="17.349" ry="9.815" transform="translate(7.708 3.856)" fill="#c9b84c"/>
          <g id="Grupo_87537" data-name="Grupo 87537" transform="translate(3.24 1.583)">
            <g id="Grupo_87536" data-name="Grupo 87536">
              <path id="Trazado_101112" data-name="Trazado 101112" d="M859.034,415.36c-6.279,0-12.514-1.522-16.823-4.467-3.515-2.4-5.311-5.453-5.057-8.592.286-3.537,3.189-6.849,7.964-9.086,9.26-4.339,23.036-3.6,30.708,1.638h0c3.515,2.4,5.311,5.453,5.057,8.592-.286,3.537-3.189,6.849-7.964,9.086A33.314,33.314,0,0,1,859.034,415.36Zm-.021-24.461a32.815,32.815,0,0,0-13.675,2.787c-4.6,2.156-7.4,5.311-7.666,8.657-.238,2.944,1.478,5.828,4.832,8.12,7.536,5.149,21.082,5.866,30.194,1.6,4.6-2.156,7.4-5.311,7.666-8.657.238-2.944-1.478-5.828-4.832-8.12C871.3,392.393,865.181,390.9,859.013,390.9Z" transform="translate(-837.13 -390.386)" fill="#c9b84c"/>
            </g>
          </g>
        </g>
        <path id="Trazado_101113" data-name="Trazado 101113" d="M852.475,398.454c7.381-3.458,18.317-2.877,24.427,1.3,2.435,1.664,3.735,3.648,3.951,5.651.259-2.4-1.029-4.857-3.951-6.854-6.11-4.174-17.046-4.755-24.427-1.3-4.439,2.079-6.58,5.146-6.253,8.168C846.5,402.8,848.625,400.258,852.475,398.454Z" transform="translate(-838.481 -391.139)" fill="#ab9622"/>
        <path id="Trazado_101114" data-name="Trazado 101114" d="M880.79,402.94l-3.971,1.07-4.7-.718-2.706.718-1.987.325-.028,2.285a2.135,2.135,0,0,0,0,.309v0h0c.065,1.1.886,2.274,1.2,3.215l-1.669.332-2.788-.706.758.959,3.819-.016a.93.93,0,0,1-.594.942,2.835,2.835,0,0,1-2.412.1l-.813-1.03-.749,0a3.882,3.882,0,0,1-1.026-2.117l-1.48.088-2.138-1.951v2.078a3.766,3.766,0,0,0,.789,2.05l-1.076.347v2.078l2.057,1.37,2.374-1.176a9.026,9.026,0,0,0,7.692.034c1.188-.588,1.623-1.287,1.671-2.013h0v-.009a2.211,2.211,0,0,0,0-.268v-1.8l-.566.065c-.619-1.238-1.39-2.332-.357-2.843a2.842,2.842,0,0,1,3.031.322,2.29,2.29,0,0,1,1.17,2.1l3.487.1a3.624,3.624,0,0,0,0-.811v-1.267l-.546-1.321,1.564-.774Z" transform="translate(-845.08 -395.165)" fill="#ab9622"/>
        <path id="Trazado_101115" data-name="Trazado 101115" d="M861.5,409.5a5.013,5.013,0,0,1-2-3.345l3.618-.215a3.776,3.776,0,0,0,1.707,2.675,3.073,3.073,0,0,0,3.293.365c2.352-1.164-3.292-4.87.818-6.9a8.744,8.744,0,0,1,7.447.056l2.352-1.164,2.057,1.37-2.306,1.141a3.294,3.294,0,0,1,1.288,3.031l-3.487-.1a2.289,2.289,0,0,0-1.17-2.1,2.841,2.841,0,0,0-3.031-.322c-2.169,1.073,3.612,4.712-.749,6.87a9.026,9.026,0,0,1-7.692-.034L861.269,412l-2.057-1.37Z" transform="translate(-845.08 -394.165)" fill="#fff"/>
        <path id="Trazado_101116" data-name="Trazado 101116" d="M861.5,408.694a5.01,5.01,0,0,1-2-3.344l3.618-.215a3.778,3.778,0,0,0,1.707,2.675,3.074,3.074,0,0,0,3.293.364c2.352-1.164-3.292-4.87.818-6.9a8.742,8.742,0,0,1,7.447.057l2.352-1.164,2.057,1.37-2.306,1.142a3.294,3.294,0,0,1,1.288,3.031l-3.487-.1a2.289,2.289,0,0,0-1.17-2.1,2.842,2.842,0,0,0-3.031-.322c-2.169,1.073,3.612,4.712-.749,6.87a9.026,9.026,0,0,1-7.692-.034l-2.374,1.175-2.057-1.37Z" transform="translate(-845.08 -393.758)" fill="#f1ff6e"/>
      </g>
    </g>
    <g id="Grupo_87542" data-name="Grupo 87542" transform="translate(633.799 379.221)">
      <ellipse id="Elipse_4785" data-name="Elipse 4785" cx="13.43" cy="6.672" rx="13.43" ry="6.672" transform="translate(0 93.068) rotate(-1.016)" fill="#a8c4e5" opacity="0.4" style="mix-blend-mode: multiply;isolation: isolate"/>
      <path id="Trazado_101117" data-name="Trazado 101117" d="M640.9,837.9l3.146-.395c2.105-.954,3.089-1.671,4.026-1.13l.266.153c.938.542.819,1.5-.263,2.121l-4.625,3.674A3.052,3.052,0,0,1,640.04,842s-.518-.467-.148-2.432C640.1,838.445,640.03,838.4,640.9,837.9Z" transform="translate(-636.819 -743.2)" fill="#2c1f9c"/>
      <path id="Trazado_101118" data-name="Trazado 101118" d="M645.249,785.061c-.252,2.174-4.236,2.174-4.236.517l2.208-50.2,13.29-3.747Z" transform="translate(-637.454 -690.22)" fill="#ffc2b0"/>
      <path id="Trazado_101119" data-name="Trazado 101119" d="M666.841,849.385l3.116.587c2.3-.264,3.452-.645,4.179.157l.206.227c.727.8.322,1.674-.9,1.938l-5.527,2.083a3.053,3.053,0,0,1-3.141-1.358s-.35-.6.6-2.36C665.922,849.657,665.864,849.6,666.841,849.385Z" transform="translate(-649.462 -749.884)" fill="#2c1f9c"/>
      <path id="Trazado_101120" data-name="Trazado 101120" d="M664.164,799.436c-.694,1.757-3.737,1.372-3.686-.07,1.422-17.393-1.851-33.82-6.069-49.8l12.763-1.38C667.671,766.886,667.5,782.915,664.164,799.436Z" transform="translate(-644.242 -698.604)" fill="#ffc2b0"/>
      <path id="Trazado_101121" data-name="Trazado 101121" d="M658.952,739.007l4.439,24.361s-11.03,10.93-23.647,0l1.419-22.876Z" transform="translate(-636.811 -693.955)" fill="#636363"/>
      <ellipse id="Elipse_4786" data-name="Elipse 4786" cx="4.077" cy="7.192" rx="4.077" ry="7.192" transform="matrix(0.992, -0.128, 0.128, 0.992, 9.165, 2.086)" fill="#fbddd3"/>
      <path id="Trazado_101122" data-name="Trazado 101122" d="M667.908,660.012c-.949,3.307-4.495,4.5-6.579,2.345s-3.005-6.591-2.056-9.9,3.408-4.239,5.492-2.08S668.857,656.7,667.908,660.012Z" transform="translate(-646.517 -648.457)" fill="#ffc2b0"/>
      <path id="Trazado_101123" data-name="Trazado 101123" d="M658.743,678.908l-.355-.079a2.238,2.238,0,0,1-1.692-2.663l1.506-6.752a2.238,2.238,0,0,1,2.663-1.691l.354.079a2.238,2.238,0,0,1,1.692,2.663l-.494,6.7C662.152,678.363,659.941,679.176,658.743,678.908Z" transform="translate(-645.375 -657.807)" fill="#ffc2b0"/>
      <path id="Trazado_101124" data-name="Trazado 101124" d="M653.234,659.708s-.411,2.293,3.592,2.514c3.2.177,2.251-5.615,5.426-6.133,3.493-.57,4.126-4.885,2.75-6.541s-5.223-2.522-8.01-1.293S648.355,650.381,653.234,659.708Z" transform="translate(-642.695 -647.677)" fill="#12263f"/>
      <path id="Trazado_101125" data-name="Trazado 101125" d="M670.418,666.383a1.515,1.515,0,1,1-1.038-1.874A1.515,1.515,0,0,1,670.418,666.383Z" transform="translate(-650.848 -656.176)" fill="#ffc2b0"/>
      <path id="Trazado_101126" data-name="Trazado 101126" d="M642.5,709.541c1.131-6.2-.085-11.1.013-17.685,0-11.846-.568-14.736,5.694-12.934l1.765.469a12.175,12.175,0,0,1,2.449.946c8.256,4.254,10.46,5.566,10.1,10.5.037,8.128-3.746,9.785-1.735,16.9C659.086,713.356,644.392,713.562,642.5,709.541Z" transform="translate(-638.21 -663.259)" fill="#60c1dd"/>
      <path id="Trazado_101127" data-name="Trazado 101127" d="M668.635,677.21l-.359-.83a2.275,2.275,0,0,0,1.856.484A2.918,2.918,0,0,1,668.635,677.21Z" transform="translate(-651.269 -662.221)" fill="#f09a82"/>
      <ellipse id="Elipse_4787" data-name="Elipse 4787" cx="2.885" cy="3.351" rx="2.885" ry="3.351" transform="translate(7.96 2.179)" fill="#fff"/>
      <path id="Trazado_101128" data-name="Trazado 101128" d="M644.691,654.93a1.7,1.7,0,0,0-3.123-1.015,6.583,6.583,0,0,0-.774,2.058c-1.165,5.153-9.845,4.407-5.588,13.475,0,0-3.874,5.949,3.326,8.456,3.685,1.282,3.6-8.206,3.6-8.206s1.471-4.364,2.89-7.786a6.368,6.368,0,0,0,.021-5.02A3.963,3.963,0,0,1,644.691,654.93Z" transform="translate(-633.921 -650.446)" fill="#12263f"/>
      <path id="Trazado_101129" data-name="Trazado 101129" d="M656.3,678.7a.991.991,0,0,0-1.2,1.133A2.721,2.721,0,0,0,657.113,682a9.782,9.782,0,0,0,5.129.061.281.281,0,0,0,.079-.514A25.2,25.2,0,0,0,656.3,678.7Z" transform="translate(-644.585 -663.38)" fill="#2c1f9c"/>
      <g id="Grupo_87541" data-name="Grupo 87541" transform="translate(26.579 6.323)">
        <path id="Trazado_101130" data-name="Trazado 101130" d="M697.089,682.137l-9.408-5.451,5.537-16.191,9.408,5.451Z" transform="translate(-687.681 -660.495)" fill="#fff"/>
        <path id="Trazado_101131" data-name="Trazado 101131" d="M694.794,682.816l-1.965-1.227,1.142-3.518,1.966,1.227Z" transform="translate(-690.289 -669.401)" fill="#3b2ad1"/>
        <path id="Trazado_101132" data-name="Trazado 101132" d="M699.677,687.116l-1.965-1.227.747-2.3,1.965,1.227Z" transform="translate(-692.763 -672.197)" fill="#abcfff"/>
        <path id="Trazado_101133" data-name="Trazado 101133" d="M704.71,687.883l-1.965-1.227,1.5-4.612,1.966,1.227Z" transform="translate(-695.313 -671.414)" fill="#ff80db"/>
        <path id="Trazado_101134" data-name="Trazado 101134" d="M704.648,672.5l-.991-.635-.009-.008-4.847-3.108a.312.312,0,0,0-.451.128.389.389,0,0,0,.125.5l.991.635.009.008,4.847,3.108a.312.312,0,0,0,.451-.128A.389.389,0,0,0,704.648,672.5Z" transform="translate(-693.065 -664.654)" fill="#bad4f5"/>
        <path id="Trazado_101135" data-name="Trazado 101135" d="M702.494,675.227a.252.252,0,0,0-.1-.29l-4.556-2.923a.312.312,0,0,0-.451.128.389.389,0,0,0,.126.5l.991.636.009.007,3.436,2.2a.405.405,0,0,0,.545-.259Z" transform="translate(-692.578 -666.306)" fill="#bad4f5"/>
        <path id="Trazado_101136" data-name="Trazado 101136" d="M698.514,676.648a.211.211,0,0,0-.09-.226l-1.585-1.017a.313.313,0,0,0-.451.128.389.389,0,0,0,.126.5l.991.635.009.007.587.376a.276.276,0,0,0,.374-.192Z" transform="translate(-692.071 -668.025)" fill="#bad4f5"/>
      </g>
      <path id="Trazado_101137" data-name="Trazado 101137" d="M667.974,693.588s8.1,19.687,16.932,10.2,5.732-16.172,5.732-16.172l-1.185-.322s-3.594,11.91-7.419,10.732-9.021-8.531-10.861-8.878S667.974,693.588,667.974,693.588Z" transform="translate(-651.116 -667.753)" fill="#60c1dd"/>
      <path id="Rectángulo_32836" data-name="Rectángulo 32836" d="M2.1,0h0a2.1,2.1,0,0,1,2.1,2.1V3.62a2.1,2.1,0,0,1-2.1,2.1h0A2.1,2.1,0,0,1,0,3.62V2.1A2.1,2.1,0,0,1,2.1,0Z" transform="translate(40.014 23.94) rotate(-167.426)" fill="#ffc2b0"/>
    </g>
    <g id="Grupo_87543" data-name="Grupo 87543" transform="translate(837.478 219.773)">
      <path id="Trazado_101138" data-name="Trazado 101138" d="M1051.025,553.258l31.766,17.735a2.245,2.245,0,0,1,1.071,3.052,2.468,2.468,0,0,1-3.307.608l-33.858-18.9Z" transform="translate(-1046.697 -440.386)" fill="#12263f" opacity="0.4" style="mix-blend-mode: multiply;isolation: isolate"/>
      <path id="Trazado_101139" data-name="Trazado 101139" d="M1097.039,526.508l4.637-2.677,31.375,17.868a2.246,2.246,0,0,1,1.072,3.052,2.468,2.468,0,0,1-3.308.608Z" transform="translate(-1072.206 -425.475)" fill="#12263f" opacity="0.4" style="mix-blend-mode: multiply;isolation: isolate"/>
      <path id="Trazado_101140" data-name="Trazado 101140" d="M1053.947,342.013l30.923,115.63c.3,1.129,1.141,1.716,1.864,1.3l.2-.117a2.586,2.586,0,0,0,.765-2.8l-4.836-18.085,22.629-12.9,4.836,18.085c.3,1.13,1.141,1.717,1.864,1.3l.2-.117a2.588,2.588,0,0,0,.765-2.8l-5.146-19.242h0l-.4-1.5h0l-4.917-18.388h0l-.205-.769L1097,381.08l-.02-.074h0l-5.023-18.783-.295-1.1h0l-4.918-18.388h0l-.4-1.5h0l-4.107-15.358c-.3-1.13-1.141-1.717-1.864-1.3l-.2.116a2.588,2.588,0,0,0-.765,2.8l3.8,14.2-22.629,12.9-3.8-14.2c-.3-1.13-1.141-1.717-1.864-1.3l-.2.117A2.587,2.587,0,0,0,1053.947,342.013Zm30.279,3.493,4.3,16.073-22.629,12.9-4.3-16.073Zm-17.312,32.786,22.629-12.9,4.3,16.073-22.629,12.9Zm5.317,19.884,22.629-12.9,4.3,16.073-22.629,12.9Zm9.616,35.957-4.3-16.073,22.629-12.9,4.3,16.073Z" transform="translate(-1050.315 -324.445)" fill="#12263f"/>
    </g>
    <path id="Trazado_101142" data-name="Trazado 101142" d="M973.4,297.138c.874,0,18.359,6.3,18.343-8.178s-22.323,2.053-22.323,2.053Z" transform="translate(-170.06 -83.679)" fill="#727997"/>
    <path id="Trazado_101143" data-name="Trazado 101143" d="M935.815,368.644l5.736-5.829a7.266,7.266,0,0,1,3.719-.532,1.145,1.145,0,0,1,.994,1.044l.1,1.16c.2,1.667.057,1.911-.964,2.519l-6.065,3.608a3.9,3.9,0,0,1-3.49.191l-.255-.142C934.693,370.161,934.793,369.252,935.815,368.644Z" transform="translate(-152.61 -123.823)" fill="#3b4454"/>
    <path id="Trazado_101144" data-name="Trazado 101144" d="M952.7,358.137c0,1.717-4.176,1.717-4.176,0v-5.58H952.7Z" transform="translate(-159.472 -118.916)" fill="#c6d2f2"/>
    <path id="Trazado_101145" data-name="Trazado 101145" d="M958.3,380.025l4.968-6.5a7.263,7.263,0,0,1,3.624-.99,1.145,1.145,0,0,1,1.116.913l.244,1.139c.41,1.629.294,1.89-.644,2.619l-5.57,4.333a3.9,3.9,0,0,1-3.44.623l-.27-.109C957.371,381.668,957.359,380.754,958.3,380.025Z" transform="translate(-164.073 -129.041)" fill="#3b4454"/>
    <path id="Trazado_101146" data-name="Trazado 101146" d="M972.789,368.238c.213,1.7-3.93,2.222-4.143.518l-.693-5.537,4.144-.518Z" transform="translate(-169.318 -124.057)" fill="#c6d2f2"/>
    <path id="Trazado_101147" data-name="Trazado 101147" d="M961.185,284.86s-12.927,6.616-13.466,10.058c-.474,3.023-1,20.923-.692,25.129a1.682,1.682,0,0,0,.944,1.4c1.281.609,3.594,1.277,4.366-1.332,1.09-3.679.714-16.254,3.32-19.852s15.54-8.676,15.54-8.676Z" transform="translate(-158.669 -84.614)" fill="#727997"/>
    <path id="Trazado_101148" data-name="Trazado 101148" d="M978.064,297.027s-14.462,7.21-14.887,10.489c-.371,2.862,1.415,19.163,1.874,23.262a1.707,1.707,0,0,0,1.075,1.4c1.317.52,3.583,1,4.257-1.449.968-3.523.168-15.413,2.659-18.914,1.351-1.9,4.825-4.045,10.755-6.844,2.711-1.28,4.655-6.609,1.359-7.031Z" transform="translate(-166.873 -90.779)" fill="#727997"/>
    <path id="Trazado_101149" data-name="Trazado 101149" d="M964.018,244.147l-2.758,10.575c-.237,1.257-.664,3.09-.974,5.242a12.605,12.605,0,0,0,2.527,9.491,57.449,57.449,0,0,1,1.954-7.614,84.291,84.291,0,0,0,3.108-9.487C967.867,252.079,964.018,244.147,964.018,244.147Z" transform="translate(-165.372 -63.984)" fill="#ffc2b0"/>
    <path id="Trazado_101150" data-name="Trazado 101150" d="M969.608,229.59l-6.488,11.145a8.341,8.341,0,0,0,5.232,6.3l2.062-13.771Z" transform="translate(-166.869 -56.608)" fill="#bad4f5"/>
    <path id="Trazado_101151" data-name="Trazado 101151" d="M966.111,249.45s1.042,3.08,6.862,5.071" transform="translate(-168.385 -66.671)" fill="none" stroke="#fff" stroke-linecap="round" stroke-linejoin="round" stroke-width="3"/>
    <path id="Trazado_101152" data-name="Trazado 101152" d="M972.194,253.966c1-5.484.781-8.831-.124-16.4,0-10.482,3.192-14.38,9.8-11.971l2.728.725c7.97,4.293,12.018,4.078,10.592,12.512l-1.4,18.489C993.79,266.838,971.687,265.155,972.194,253.966Z" transform="translate(-171.404 -54.234)" fill="#bad4f5"/>
    <path id="Trazado_101153" data-name="Trazado 101153" d="M988.055,216a5.642,5.642,0,0,0,1.57,1.072c.526.11,6.193-4.468,4.142-9.6-1.3-3.251-7.442-.7-7.442-.7Z" transform="translate(-178.628 -44.561)" fill="#2c1f9c"/>
    <path id="Trazado_101154" data-name="Trazado 101154" d="M989.88,225.323l-.317.054a1.979,1.979,0,0,1-2.276-1.616l-1.025-6.034a1.979,1.979,0,0,1,1.615-2.277l.317-.054a1.98,1.98,0,0,1,2.277,1.616l1.837,5.654C992.49,223.736,990.951,225.141,989.88,225.323Z" transform="translate(-178.582 -49.402)" fill="#ffc2b0"/>
    <path id="Trazado_101155" data-name="Trazado 101155" d="M987.689,225.892a5.4,5.4,0,0,0,4.283-2.428s-1.631,3.791-4,4.116Z" transform="translate(-179.319 -53.504)" fill="#f09a82"/>
    <path id="Trazado_101156" data-name="Trazado 101156" d="M984.331,212.885c-.6,2.882-2.641,3.832-4.556,2.121s-2.98-5.435-2.379-8.317,2.641-3.832,4.556-2.121S984.932,210,984.331,212.885Z" transform="translate(-174.018 -43.497)" fill="#ffc2b0"/>
    <path id="Trazado_101157" data-name="Trazado 101157" d="M989.292,210.926c-.6,2.882-3.551,4.127-5.467,2.416s-2.98-5.435-2.379-8.317,2.641-3.832,4.556-2.121S989.893,208.043,989.292,210.926Z" transform="translate(-176.07 -42.654)" fill="#ffc2b0"/>
    <path id="Trazado_101158" data-name="Trazado 101158" d="M985.266,203.775s.294,5.453,4.736,5.937c0,0,4.315-3.569-.066-8.127-3.861-4.018-8.239.274-8.239.274Z" transform="translate(-176.283 -41.547)" fill="#12263f"/>
    <path id="Trazado_101159" data-name="Trazado 101159" d="M977.235,208.157a5.178,5.178,0,0,1,4.068-2.447l-1.869-1.8S977.095,203.893,977.235,208.157Z" transform="translate(-174.018 -43.593)" fill="#21ded5"/>
    <path id="Trazado_101160" data-name="Trazado 101160" d="M983.942,205.983c-1.209-1.158-3.362-.7-6.255,1.026-2.827.659-3.777-2.543-3.777-2.543-.748-1.666.272-2.648,1.938-3.4l4.338-1.948a4.909,4.909,0,0,1,6.044,2.239l.167.267C987.146,203.293,985.608,205.235,983.942,205.983Z" transform="translate(-172.211 -40.987)" fill="#12263f"/>
    <circle id="Elipse_4788" data-name="Elipse 4788" cx="1.296" cy="1.296" r="1.296" transform="translate(811.474 167.358)" fill="#ffc2b0"/>
    <path id="Trazado_101161" data-name="Trazado 101161" d="M986.915,228.176s-2.19,3.058.9,4.373c4.894,2.082,6.414-3.458,5.652-3.779l-1.546-.8a2.086,2.086,0,0,1-.49,2.834c-1.151.969-3.219,1.177-4.108-.339Z" transform="translate(-178.545 -55.788)" fill="#fff"/>
    <path id="Trazado_101162" data-name="Trazado 101162" d="M1004.58,250.568v17.951l3.314-1.945Z" transform="translate(-187.878 -67.238)" fill="#98c1f5"/>
    <g id="Grupo_87544" data-name="Grupo 87544" transform="translate(790.218 195.779)">
      <path id="Trazado_101163" data-name="Trazado 101163" d="M977.706,293.931l-1.531-.54-.18-.181-.115-.2-11.537-6a.589.589,0,0,0-.511.02l-4.4,2.583-.008-.072-.831.332.037.343h.006a.192.192,0,0,0,.092.089l12,6.243a.068.068,0,0,1,.032.046c.251.92.669,1.742,1.454,1.264l4.878-2.874a1.17,1.17,0,0,0,.614-1.05Z" transform="translate(-954.792 -281.456)" fill="#a8c4e5"/>
      <path id="Trazado_101164" data-name="Trazado 101164" d="M969.873,296.986,956.049,289.8c-.16-.083-.157-.23.007-.326l5.875-3.445a.68.68,0,0,1,.589-.024l13.825,7.189c.16.083.157.23-.007.326l-5.875,3.445A.681.681,0,0,1,969.873,296.986Z" transform="translate(-953.445 -280.943)" fill="#e1eaf4"/>
      <path id="Trazado_101165" data-name="Trazado 101165" d="M981.514,296.195l-3.346-1.74c-.039-.02-.038-.056,0-.079l1.422-.834a.164.164,0,0,1,.142-.006l3.346,1.74c.039.02.038.056,0,.079l-1.422.834A.164.164,0,0,1,981.514,296.195Z" transform="translate(-964.699 -284.782)" fill="#a8c4e5"/>
      <path id="Trazado_101166" data-name="Trazado 101166" d="M966.18,283.756a1.567,1.567,0,0,0-.7-.867l-13.714-7.025a.351.351,0,0,0-.291-.044h0a.158.158,0,0,0-.062.049l-.382.43.386-.033,2.058,7.6a1.566,1.566,0,0,0,.695.867l12.967,6.643.441.424.061.1c.253.051.8-.351.8-.351Z" transform="translate(-950.964 -275.804)" fill="#fff"/>
      <path id="Trazado_101167" data-name="Trazado 101167" d="M967.4,292.685s-14.32-7.565-14.409-7.893l-2.08-7.681c-.089-.328.079-.471.374-.32L965,283.818a1.57,1.57,0,0,1,.695.867l2.08,7.681C967.866,292.694,967.7,292.837,967.4,292.685Z" transform="translate(-950.892 -276.274)" fill="#5f6ccf"/>
      <path id="Trazado_101168" data-name="Trazado 101168" d="M966.612,292.512c.111.408-.267.5-.844.2a2.613,2.613,0,0,1-1.244-1.273c-.11-.408.267-.5.844-.2A2.614,2.614,0,0,1,966.612,292.512Z" transform="translate(-957.79 -283.536)" fill="#fff"/>
    </g>
    <path id="Trazado_101169" data-name="Trazado 101169" d="M994.029,250.568l1.817,16.088c.071.861-13.158,5.1-13.158,5.1l1.114,4.662,13.53-3.463c3.576-1.5,3.483-4.235,3.443-6.481l-.251-13.941Z" transform="translate(-176.785 -67.238)" fill="#ffc2b0"/>
    <path id="Trazado_101170" data-name="Trazado 101170" d="M1004.717,244.8l1.141,11.917c.337.986,9.238-1.048,8.888-2.522-.062-.26-.98-14.539-4.974-17.8C1006.527,233.746,1003.927,239.3,1004.717,244.8Z" transform="translate(-187.875 -59.711)" fill="#bad4f5"/>
    <path id="Trazado_101171" data-name="Trazado 101171" d="M1007.125,269.426s3.688.956,8.258-2.4" transform="translate(-189.167 -75.576)" fill="none" stroke="#fff" stroke-linecap="round" stroke-linejoin="round" stroke-width="3"/>
    <g id="Grupo_87545" data-name="Grupo 87545" transform="translate(885.235 217.517)">
      <path id="Trazado_101172" data-name="Trazado 101172" d="M1143.509,323.341s5.075-6.5,14.432-1.71c7.155,3.659,3.394,3.449,11.976,5.992,5.061,1.5,12.919-7.416,25.4-1.918,22.6,9.954,30.484-10.678,40.307.518v52.743l-92.118-47.7Z" transform="translate(-1143.509 -319.872)" fill="#abcfff"/>
    </g>
    <g id="Grupo_87550" data-name="Grupo 87550" transform="translate(884.924 176.208)">
      <g id="Grupo_87546" data-name="Grupo 87546" transform="translate(0)">
        <path id="Trazado_101173" data-name="Trazado 101173" d="M1143.19,289.444a.311.311,0,0,1-.311-.311V236.441a.311.311,0,0,1,.623,0v52.692A.312.312,0,0,1,1143.19,289.444Z" transform="translate(-1142.879 -236.13)" fill="#5f6ccf"/>
      </g>
      <g id="Grupo_87547" data-name="Grupo 87547" transform="translate(22.944 11.274)">
        <path id="Trazado_101174" data-name="Trazado 101174" d="M1189.7,312.3a.311.311,0,0,1-.311-.311V259.3a.311.311,0,1,1,.622,0v52.692A.311.311,0,0,1,1189.7,312.3Z" transform="translate(-1189.391 -258.985)" fill="#5f6ccf"/>
      </g>
      <g id="Grupo_87548" data-name="Grupo 87548" transform="translate(45.888 23.21)">
        <path id="Trazado_101175" data-name="Trazado 101175" d="M1236.214,336.495a.311.311,0,0,1-.311-.311V283.492a.311.311,0,0,1,.623,0v52.692A.311.311,0,0,1,1236.214,336.495Z" transform="translate(-1235.903 -283.181)" fill="#5f6ccf"/>
      </g>
      <g id="Grupo_87549" data-name="Grupo 87549" transform="translate(68.833 35.132)">
        <path id="Trazado_101176" data-name="Trazado 101176" d="M1282.727,360.663a.311.311,0,0,1-.311-.311V307.66a.311.311,0,0,1,.623,0v52.691A.311.311,0,0,1,1282.727,360.663Z" transform="translate(-1282.416 -307.349)" fill="#5f6ccf"/>
      </g>
    </g>
    <g id="Grupo_87551" data-name="Grupo 87551" transform="translate(977.043 223.352)">
      <path id="Trazado_101177" data-name="Trazado 101177" d="M1329.932,385.013a.311.311,0,0,1-.311-.311V332.01a.311.311,0,1,1,.622,0V384.7A.311.311,0,0,1,1329.932,385.013Z" transform="translate(-1329.621 -331.699)" fill="#5f6ccf"/>
    </g>
    <g id="Grupo_87552" data-name="Grupo 87552" transform="translate(881.189 170.918)">
      <path id="Trazado_101178" data-name="Trazado 101178" d="M1325.284,319.751,1322.259,318a1.463,1.463,0,0,1-.609-1.163h0c0-.446.274-.653.609-.46l3.026,1.747a1.462,1.462,0,0,1,.608,1.163h0C1325.893,319.738,1325.619,319.945,1325.284,319.751Z" transform="translate(-1229.728 -271.468)" fill="#abcfff"/>
      <path id="Trazado_101179" data-name="Trazado 101179" d="M1278.08,297.2l-3.026-1.747a1.464,1.464,0,0,1-.609-1.163h0c0-.446.274-.654.609-.46l3.026,1.747a1.465,1.465,0,0,1,.609,1.163h0C1278.688,297.189,1278.414,297.4,1278.08,297.2Z" transform="translate(-1205.809 -260.042)" fill="#abcfff"/>
      <path id="Trazado_101180" data-name="Trazado 101180" d="M1231.913,274.9l-3.026-1.747a1.464,1.464,0,0,1-.609-1.163h0c0-.446.274-.654.609-.46l3.026,1.747a1.464,1.464,0,0,1,.608,1.163h0C1232.522,274.884,1232.248,275.092,1231.913,274.9Z" transform="translate(-1182.417 -248.74)" fill="#abcfff"/>
      <path id="Trazado_101181" data-name="Trazado 101181" d="M1185.081,252.031l-3.025-1.747a1.462,1.462,0,0,1-.609-1.163h0c0-.446.274-.653.609-.46l3.025,1.747a1.461,1.461,0,0,1,.609,1.163h0C1185.69,252.018,1185.416,252.225,1185.081,252.031Z" transform="translate(-1158.686 -237.154)" fill="#abcfff"/>
      <path id="Trazado_101182" data-name="Trazado 101182" d="M1138.942,228.848l-3.026-1.747a1.462,1.462,0,0,1-.609-1.163h0c0-.446.274-.653.609-.46l3.026,1.747a1.462,1.462,0,0,1,.608,1.163h0C1139.55,228.835,1139.276,229.042,1138.942,228.848Z" transform="translate(-1135.307 -225.407)" fill="#abcfff"/>
    </g>
    <g id="Grupo_87553" data-name="Grupo 87553" transform="translate(876.14 226.075)">
      <path id="Trazado_101183" data-name="Trazado 101183" d="M1322.436,442.8l-3.025-1.747c-.01-.005-.019-.007-.028-.012l-2.246-1.3c-.335-.193-.609.014-.609.46a1.463,1.463,0,0,0,.609,1.163l3.025,1.747c.01.005.019.007.028.012l2.246,1.3c.335.193.609-.014.609-.46A1.461,1.461,0,0,0,1322.436,442.8Z" transform="translate(-1222.083 -389.13)" fill="#abcfff"/>
      <path id="Trazado_101184" data-name="Trazado 101184" d="M1223.8,388.867l-3.026-1.747c-.009-.006-.018-.007-.028-.012l-2.247-1.3c-.334-.193-.608.014-.608.46a1.464,1.464,0,0,0,.608,1.163l3.026,1.747c.01.005.019.007.028.012l2.246,1.3c.335.193.609-.014.609-.46A1.462,1.462,0,0,0,1223.8,388.867Z" transform="translate(-1172.105 -361.804)" fill="#abcfff"/>
      <path id="Trazado_101185" data-name="Trazado 101185" d="M1274.762,415.987l-3.026-1.747c-.01-.005-.018-.007-.028-.012l-2.247-1.3c-.334-.193-.609.014-.609.46a1.465,1.465,0,0,0,.609,1.163l3.026,1.747c.009.005.019.007.028.012l2.247,1.3c.335.193.609-.014.609-.46A1.464,1.464,0,0,0,1274.762,415.987Z" transform="translate(-1197.927 -375.546)" fill="#abcfff"/>
      <path id="Trazado_101186" data-name="Trazado 101186" d="M1178.852,364.672l-3.025-1.747c-.01-.005-.019-.007-.028-.012l-2.247-1.3c-.334-.193-.608.014-.608.46a1.464,1.464,0,0,0,.608,1.163l3.026,1.747c.01.005.019.007.028.012l2.246,1.3c.335.193.609-.014.609-.46A1.461,1.461,0,0,0,1178.852,364.672Z" transform="translate(-1149.328 -349.544)" fill="#abcfff"/>
      <path id="Trazado_101187" data-name="Trazado 101187" d="M1130.981,340.348l-3.026-1.747c-.01-.005-.018-.007-.028-.012l-2.246-1.3c-.335-.193-.609.014-.609.46a1.462,1.462,0,0,0,.609,1.163l3.025,1.747c.01.005.019.007.028.012l2.247,1.3c.335.193.609-.014.609-.46A1.463,1.463,0,0,0,1130.981,340.348Z" transform="translate(-1125.072 -337.219)" fill="#abcfff"/>
    </g>
    <g id="Grupo_87555" data-name="Grupo 87555" transform="translate(916.087 282.996)">
      <ellipse id="Elipse_4789" data-name="Elipse 4789" cx="8.306" cy="16.72" rx="8.306" ry="16.72" transform="matrix(0.022, -1, 1, 0.022, 26.416, 109.148)" fill="#fff"/>
      <path id="Trazado_101188" data-name="Trazado 101188" d="M1239.726,491.8l4.225,8.738a3.54,3.54,0,0,0,5.288,1.307l11.878-8.765-7.914-.423-4.053,3.511a1.41,1.41,0,0,1-2.062-.234l-3.963-5.421Z" transform="translate(-1223.115 -471.818)" fill="#ffc2b0"/>
      <path id="Trazado_101189" data-name="Trazado 101189" d="M1305.49,656.459l3.884-6.345a6.61,6.61,0,0,1,3.186-1.235,1.041,1.041,0,0,1,1.095.721l.328,1.007c.523,1.436.443,1.682-.337,2.43l-4.632,4.444a3.543,3.543,0,0,1-3.053.886l-.255-.074C1304.807,658.033,1304.71,657.206,1305.49,656.459Z" transform="translate(-1256.171 -552.057)" fill="#12263f"/>
      <g id="Grupo_87554" data-name="Grupo 87554" transform="translate(0 5.305)">
        <ellipse id="Elipse_4790" data-name="Elipse 4790" cx="1.352" cy="2.625" rx="1.352" ry="2.625" transform="translate(6.411 4.365) rotate(-16.476)" fill="#8585ff"/>
        <path id="Rectángulo_32837" data-name="Rectángulo 32837" d="M2.1,0h0A2.095,2.095,0,0,1,4.19,2.095v9.3A2.095,2.095,0,0,1,2.1,13.484h0a2.1,2.1,0,0,1-2.1-2.1V2.1A2.1,2.1,0,0,1,2.1,0Z" transform="translate(18.803 17.952) rotate(-164.504)" fill="url(#linear-gradient)"/>
        <path id="Rectángulo_32838" data-name="Rectángulo 32838" d="M2.47,0h0A2.469,2.469,0,0,1,4.939,2.469V5.826A2.47,2.47,0,0,1,2.47,8.3h0A2.469,2.469,0,0,1,0,5.827V2.47A2.47,2.47,0,0,1,2.47,0Z" transform="translate(17.482 15.924) rotate(-167.093)" fill="#ffc2b0"/>
        <rect id="Rectángulo_32839" data-name="Rectángulo 32839" width="2.47" height="2.562" rx="1.235" transform="translate(21.344 13.238) rotate(-167.105)" fill="#ffc2b0"/>
        <path id="Trazado_101190" data-name="Trazado 101190" d="M1246.357,468.753c.1-.044,3.013-.757,3.124-.764a1.243,1.243,0,0,1,1.27.282,3.969,3.969,0,0,1,1.362,3.323c-.1.713-.472,1.116-.961,1.144-.1.044-3.014.757-3.124.764a1.243,1.243,0,0,1-1.27-.282,3.968,3.968,0,0,1-1.362-3.323C1245.492,469.185,1245.867,468.781,1246.357,468.753Z" transform="translate(-1225.975 -465.668)" fill="#ca4f4e"/>
        <path id="Trazado_101191" data-name="Trazado 101191" d="M1237.846,468.18c.144-.065,4.457-1.12,4.621-1.129a1.837,1.837,0,0,1,1.878.417,5.869,5.869,0,0,1,2.015,4.915c-.143,1.054-.7,1.652-1.422,1.693-.144.065-4.457,1.12-4.621,1.129a1.838,1.838,0,0,1-1.878-.417,5.871,5.871,0,0,1-2.015-4.915C1236.567,468.819,1237.121,468.222,1237.846,468.18Z" transform="translate(-1221.424 -465.173)" fill="#ca4f4e"/>
        <path id="Trazado_101192" data-name="Trazado 101192" d="M1227.958,467.646l-11.085-1.716,4.411,16.1,10.37-7.856C1231.941,470.981,1230.517,467.549,1227.958,467.646Z" transform="translate(-1211.535 -464.664)" fill="#dbefff"/>
        <path id="Trazado_101193" data-name="Trazado 101193" d="M1220.481,476.553l2.554,8.658s10.479-7.384,10.483-7.621a8.456,8.456,0,0,0-.685-3.513Z" transform="translate(-1213.363 -468.792)" fill="#bad4f5"/>
        <path id="Trazado_101194" data-name="Trazado 101194" d="M1212.348,468.271a13.293,13.293,0,0,0,3.014,11.644c2.689,2.735,5.7,1.956,6.723-1.74a13.291,13.291,0,0,0-3.015-11.644C1216.382,463.8,1213.372,464.575,1212.348,468.271Z" transform="translate(-1209.068 -464.141)" fill="#ca4f4e"/>
        <ellipse id="Elipse_4791" data-name="Elipse 4791" cx="4.91" cy="8.505" rx="4.91" ry="8.505" transform="matrix(0.968, -0.251, 0.251, 0.968, 0, 2.461)" fill="#ca4f4e"/>
        <ellipse id="Elipse_4792" data-name="Elipse 4792" cx="4.553" cy="7.886" rx="4.553" ry="7.886" transform="translate(1.022 2.725) rotate(-14.515)" fill="#fff"/>
        <path id="Trazado_101195" data-name="Trazado 101195" d="M1220.266,472.054a11.141,11.141,0,0,0-2.438-4.117c-2.494-2.536-5.285-1.814-6.234,1.614a10.139,10.139,0,0,0-.135,4.619C1213.6,470.551,1217.176,470.605,1220.266,472.054Z" transform="translate(-1208.698 -464.913)" fill="#dbefff"/>
        <path id="Trazado_101196" data-name="Trazado 101196" d="M1222.521,475.746a2.094,2.094,0,0,0-1.61-.705l.017,0-.08.036c-.023,0-.074.025-.1.03l-1.936.23c-.075.009-.174-.137-.246-.132l.4-.028.019.272c.008.115-1.064.648-1.257,1.347a5.264,5.264,0,0,0,1.226,4.8c.854.809,1.468.71,1.468.71s.249-.026.3-.041l3.364-.735S1223.715,476.881,1222.521,475.746Z" transform="translate(-1211.891 -469.278)" fill="#d0e7f4"/>
        <path id="Trazado_101197" data-name="Trazado 101197" d="M1222.416,472.7c-.021,0-3.2,1.037-3.2,1.037-.069.011-.121.258-.189.262l.1-.007.09-.256c-.142.073-.984.469-1.178,1.167a5.319,5.319,0,0,0,1.207,4.68c.512.52.566.757,1.513.627v0s3.526-.947,3.65-1A12.424,12.424,0,0,0,1222.416,472.7Z" transform="translate(-1212.057 -468.094)" fill="#60c1dd"/>
        <path id="Trazado_101198" data-name="Trazado 101198" d="M1233.93,469.215l-6.75-1.015,1.56,2.024,5.778.01Z" transform="translate(-1216.757 -465.814)" fill="#fff"/>
        <path id="Trazado_101199" data-name="Trazado 101199" d="M1247.686,468.587l-3.877,1.03-.751-.757,3.932-.981Z" transform="translate(-1224.803 -465.652)" fill="#fff" opacity="0.43"/>
      </g>
      <path id="Trazado_101200" data-name="Trazado 101200" d="M1317.849,645.6c.165,1.553-3.612,1.955-3.778.4l-.538-5.047,3.778-.4Z" transform="translate(-1260.513 -547.844)" fill="#86abd9"/>
      <path id="Trazado_101201" data-name="Trazado 101201" d="M1259.318,645.266l6.01-4.384a6.6,6.6,0,0,1,3.416.073,1.042,1.042,0,0,1,.737,1.084l-.081,1.056c-.064,1.527-.231,1.724-1.238,2.119l-5.976,2.342a3.542,3.542,0,0,1-3.16-.345l-.207-.165C1258.086,646.46,1258.311,645.66,1259.318,645.266Z" transform="translate(-1232.571 -547.91)" fill="#12263f"/>
      <path id="Trazado_101202" data-name="Trazado 101202" d="M1276.365,636.242c-.061,1.56-3.857,1.411-3.8-.15l.2-5.072,3.8.149Z" transform="translate(-1239.756 -543.012)" fill="#86abd9"/>
      <path id="Trazado_101203" data-name="Trazado 101203" d="M1274.844,586.708c-1.587,1.01-4.045.889-4.75-.386a244.969,244.969,0,0,1,.542-47.066l12.119-3.038C1278.873,555.219,1274.788,572.007,1274.844,586.708Z" transform="translate(-1238.055 -494.974)" fill="#bad4f5"/>
      <path id="Trazado_101204" data-name="Trazado 101204" d="M1301.986,590.964c-.95,1.879-3.65,2.178-4.625,1l-15.239-51.411,13.633-1.454Z" transform="translate(-1244.597 -496.433)" fill="#bad4f5"/>
      <path id="Trazado_101205" data-name="Trazado 101205" d="M1287.442,560.52l-.87,4.774-2.218-10.287a15.9,15.9,0,0,0,1.87.436Z" transform="translate(-1245.728 -504.495)" fill="#86abd9"/>
      <path id="Trazado_101206" data-name="Trazado 101206" d="M1306.07,509.581c2.91,4.152,5.7,8.406,6.229,14.647.308.791.6,11.2.6,11.2l3.549.585s.038-14.291-.133-15.069l-3.353-15.227Z" transform="translate(-1256.731 -479.519)" fill="#ffc2b0"/>
      <rect id="Rectángulo_32840" data-name="Rectángulo 32840" width="3.75" height="5.102" rx="1.875" transform="translate(55.871 54.97) rotate(-6.166)" fill="#ffc2b0"/>
      <path id="Trazado_101207" data-name="Trazado 101207" d="M1268.438,481.445l-7.557,7.669a8.2,8.2,0,0,0,3.007,7.465l8.776-6.674-2.713-5.6Z" transform="translate(-1233.82 -467.22)" fill="#2e9daa"/>
      <path id="Trazado_101208" data-name="Trazado 101208" d="M1269,509.1a145.912,145.912,0,0,0,.244-18.976c.609-10.286,4.72-13.863,11.061-11.115l2.635.87c7.572,4.676,11.557,4.7,9.668,12.894l-2.443,18.063C1289.612,520.174,1267.852,520.049,1269,509.1Z" transform="translate(-1237.926 -465.533)" fill="#2e9daa"/>
      <path id="Trazado_101209" data-name="Trazado 101209" d="M1306.07,513.551l2.544,14.2.323,1.387.9-6.719Z" transform="translate(-1256.732 -483.489)" fill="url(#linear-gradient)"/>
      <path id="Trazado_101210" data-name="Trazado 101210" d="M1287.608,469.393a5.566,5.566,0,0,0,1.165,1.462c.463.255,7.11-2.409,6.667-7.825-.281-3.43-6.789-2.812-6.789-2.812Z" transform="translate(-1247.377 -456.442)" fill="#727997"/>
      <path id="Trazado_101211" data-name="Trazado 101211" d="M1289.885,478.977l-.314.035a1.946,1.946,0,0,1-2.14-1.718l-.656-5.982a1.946,1.946,0,0,1,1.718-2.14l.314-.035a1.946,1.946,0,0,1,2.14,1.718l1.475,5.656C1292.538,477.571,1290.946,478.86,1289.885,478.977Z" transform="translate(-1246.949 -460.978)" fill="#ffc2b0"/>
      <path id="Trazado_101212" data-name="Trazado 101212" d="M1304.363,499.166l3.253,11.31c.5.892,8.738-2.681,8.134-4.042-.107-.24-3.571-13.873-8.02-16.3C1304.116,488.155,1302.607,494,1304.363,499.166Z" transform="translate(-1255.495 -471.422)" fill="#2e9daa"/>
      <path id="Trazado_101213" data-name="Trazado 101213" d="M1287.5,477.913a5.314,5.314,0,0,0,4.344-2.134s-1.821,3.625-4.161,3.807Z" transform="translate(-1247.324 -464.349)" fill="#f09a82"/>
      <path id="Trazado_101214" data-name="Trazado 101214" d="M1284.511,465.264c-1.4,2.535-3.589,2.838-4.894.676s-1.23-5.968.168-8.5,3.589-2.837,4.894-.676S1285.908,462.729,1284.511,465.264Z" transform="translate(-1242.855 -453.982)" fill="#ffc2b0"/>
      <path id="Trazado_101215" data-name="Trazado 101215" d="M1288.447,464.857c-1.4,2.535-6.27,3.571-7.574,1.41s.51-6.688,1.908-9.223,3.589-2.837,4.894-.676S1289.845,462.322,1288.447,464.857Z" transform="translate(-1243.736 -453.783)" fill="#ffc2b0"/>
      <path id="Trazado_101216" data-name="Trazado 101216" d="M1289.281,457.352s-1.3,5.209,2.734,6.947c0,0,5.086-2.107,2.287-7.655-2.467-4.891-7.82-2.123-7.82-2.123Z" transform="translate(-1246.806 -453.182)" fill="#727997"/>
      <path id="Trazado_101217" data-name="Trazado 101217" d="M1278.733,462.164a5.091,5.091,0,0,1,3.742-2.788l-2-1.584S1278.183,458.007,1278.733,462.164Z" transform="translate(-1242.837 -455.235)" fill="#2c1f9c"/>
      <path id="Trazado_101218" data-name="Trazado 101218" d="M1286.511,460.174c-.756-1.359-2.722-1.6-5.649-.965a2.486,2.486,0,0,1-1.344-.041c-2.021-.7-1.995-3.319-1.995-3.319-.221-1.781,1.021-2.409,2.8-2.631l4.64-.577a4.825,4.825,0,0,1,5.032,3.85l.08.3C1290.3,458.572,1288.293,459.953,1286.511,460.174Z" transform="translate(-1242.254 -452.609)" fill="#727997"/>
      <path id="Trazado_101219" data-name="Trazado 101219" d="M1296.24,473a1.274,1.274,0,1,1-.5-1.732A1.275,1.275,0,0,1,1296.24,473Z" transform="translate(-1250.539 -461.982)" fill="#ffc2b0"/>
    </g>
    <g id="Grupo_87557" data-name="Grupo 87557" transform="translate(677.834 407.25)">
      <path id="Trazado_101220" data-name="Trazado 101220" d="M843.558,769.983l-46.29-26.725a2.21,2.21,0,0,0-1.989.082L790.673,746c-.032.016-.066.03-.1.047l-46.55,26.875c-.588.34-.653.854-.143,1.148l46.29,26.726a2.211,2.211,0,0,0,1.989-.083l4.607-2.659c.032-.016.066-.029.1-.047l46.549-26.875C844,770.791,844.068,770.277,843.558,769.983Z" transform="translate(-733.44 -724.037)" fill="#e6f4ff"/>
      <g id="Grupo_87556" data-name="Grupo 87556" transform="translate(0)">
        <rect id="Rectángulo_32841" data-name="Rectángulo 32841" width="7.533" height="4.642" transform="translate(0 38.819)" fill="#1f3b82"/>
        <rect id="Rectángulo_32842" data-name="Rectángulo 32842" width="7.533" height="4.642" transform="translate(88.127 38.376)" fill="#363656"/>
        <path id="Trazado_101221" data-name="Trazado 101221" d="M867.577,729.4l0-.011-39.558-22.838a1.727,1.727,0,0,0-2.511.977l-3.265,10.335,6.845,3.3,0,.011,39.805,27.477,4.932-14.083a1.727,1.727,0,0,0-.783-2.015Z" transform="translate(-773.322 -705.423)" fill="#2c1f9c"/>
        <path id="Trazado_101222" data-name="Trazado 101222" d="M769.7,791,723.41,764.28c-.51-.294-.446-.808.143-1.148l46.55-26.876a2.21,2.21,0,0,1,1.989-.082L818.382,762.9c.51.294.445.808-.143,1.148l-46.55,26.875A2.21,2.21,0,0,1,769.7,791Z" transform="translate(-723.066 -720.447)" fill="#3b4454"/>
        <path id="Trazado_101223" data-name="Trazado 101223" d="M821.237,730.735l-5.467-3.156,0-.011-39.558-22.839a1.727,1.727,0,0,0-2.511.977l-3.192,10.1a2.027,2.027,0,0,0-.411.172l-46.55,26.876c-.589.34-.653.854-.143,1.148l46.29,26.725a2.21,2.21,0,0,0,1.989-.082l46.55-26.876a.933.933,0,0,0,.459-.507l.006,0,3.316-10.521A1.727,1.727,0,0,0,821.237,730.735Z" transform="translate(-723.066 -704.497)" fill="#12263f"/>
        <path id="Trazado_101224" data-name="Trazado 101224" d="M812.007,742.337l-5.838-3.371c-.422-.244-.369-.669.118-.951l4.869-2.811a1.832,1.832,0,0,1,1.647-.068l5.838,3.37c.422.244.369.669-.118.951l-4.869,2.811A1.83,1.83,0,0,1,812.007,742.337Z" transform="translate(-765.03 -719.939)" fill="#fff"/>
        <path id="Trazado_101225" data-name="Trazado 101225" d="M836.094,756.243l-5.838-3.37c-.422-.244-.37-.67.118-.951l4.869-2.811a1.831,1.831,0,0,1,1.648-.069l5.838,3.37c.422.244.369.67-.118.951l-4.869,2.811A1.83,1.83,0,0,1,836.094,756.243Z" transform="translate(-777.236 -726.985)" fill="#fff"/>
        <path id="Trazado_101226" data-name="Trazado 101226" d="M860.18,770.149l-5.838-3.37c-.422-.244-.369-.67.118-.951l4.869-2.811a1.831,1.831,0,0,1,1.647-.069l5.838,3.371c.422.244.37.669-.118.951l-4.869,2.811A1.832,1.832,0,0,1,860.18,770.149Z" transform="translate(-789.44 -734.031)" fill="#fff"/>
        <path id="Trazado_101227" data-name="Trazado 101227" d="M884.267,784.055l-5.838-3.37c-.422-.244-.37-.669.118-.951l4.869-2.811a1.83,1.83,0,0,1,1.647-.069l5.838,3.371c.422.244.37.669-.118.951l-4.869,2.812A1.832,1.832,0,0,1,884.267,784.055Z" transform="translate(-801.645 -741.078)" fill="#fff"/>
        <path id="Trazado_101228" data-name="Trazado 101228" d="M789.491,755.336l-5.838-3.37c-.422-.244-.369-.67.118-.951l4.869-2.811a1.831,1.831,0,0,1,1.647-.069l5.838,3.371c.422.244.37.669-.118.951l-4.869,2.811A1.832,1.832,0,0,1,789.491,755.336Z" transform="translate(-753.622 -726.525)" fill="#fff"/>
        <path id="Trazado_101229" data-name="Trazado 101229" d="M813.578,769.242l-5.838-3.37c-.422-.244-.369-.669.118-.951l4.869-2.811a1.83,1.83,0,0,1,1.647-.068l5.838,3.371c.422.244.37.669-.118.951l-4.869,2.811A1.831,1.831,0,0,1,813.578,769.242Z" transform="translate(-765.827 -733.572)" fill="#fff"/>
        <path id="Trazado_101230" data-name="Trazado 101230" d="M837.665,783.148l-5.838-3.37c-.422-.244-.369-.669.118-.951l4.869-2.811a1.828,1.828,0,0,1,1.647-.068l5.838,3.37c.422.244.369.669-.118.951l-4.869,2.811A1.832,1.832,0,0,1,837.665,783.148Z" transform="translate(-778.032 -740.618)" fill="#fff"/>
        <path id="Trazado_101231" data-name="Trazado 101231" d="M861.751,797.055l-5.838-3.37c-.422-.244-.369-.669.118-.951l4.869-2.811a1.832,1.832,0,0,1,1.648-.068l5.837,3.37c.422.244.37.669-.118.951l-4.869,2.811A1.833,1.833,0,0,1,861.751,797.055Z" transform="translate(-790.237 -747.665)" fill="#fff"/>
        <path id="Trazado_101232" data-name="Trazado 101232" d="M766.976,768.335l-5.838-3.37c-.422-.244-.37-.669.118-.951l4.869-2.811a1.829,1.829,0,0,1,1.647-.068l5.838,3.37c.422.244.369.669-.118.951l-4.869,2.811A1.831,1.831,0,0,1,766.976,768.335Z" transform="translate(-742.213 -733.112)" fill="#fff"/>
        <path id="Trazado_101233" data-name="Trazado 101233" d="M791.062,782.242l-5.837-3.37c-.422-.244-.369-.669.118-.951l4.869-2.811a1.833,1.833,0,0,1,1.648-.068l5.837,3.37c.422.244.369.669-.118.951l-4.869,2.811A1.832,1.832,0,0,1,791.062,782.242Z" transform="translate(-754.418 -740.159)" fill="#fff"/>
        <path id="Trazado_101234" data-name="Trazado 101234" d="M815.149,796.148l-5.838-3.37c-.422-.244-.369-.669.118-.951l4.869-2.811a1.832,1.832,0,0,1,1.647-.068l5.838,3.37c.422.244.37.67-.118.951l-4.869,2.811A1.829,1.829,0,0,1,815.149,796.148Z" transform="translate(-766.623 -747.205)" fill="#fff"/>
        <path id="Trazado_101235" data-name="Trazado 101235" d="M839.236,810.054l-5.838-3.37c-.422-.244-.369-.67.118-.951l4.869-2.811a1.831,1.831,0,0,1,1.647-.069l5.838,3.37c.422.244.369.67-.118.951l-4.869,2.811A1.83,1.83,0,0,1,839.236,810.054Z" transform="translate(-778.828 -754.251)" fill="#ff5c97"/>
        <path id="Trazado_101236" data-name="Trazado 101236" d="M744.46,781.335l-5.838-3.37c-.422-.244-.369-.669.118-.951l4.869-2.811a1.83,1.83,0,0,1,1.647-.069l5.838,3.37c.422.244.37.67-.118.951l-4.869,2.811A1.829,1.829,0,0,1,744.46,781.335Z" transform="translate(-730.804 -739.699)" fill="#fff"/>
        <path id="Trazado_101237" data-name="Trazado 101237" d="M768.547,795.241l-5.838-3.37c-.422-.244-.37-.67.118-.951l4.869-2.811a1.83,1.83,0,0,1,1.647-.069l5.838,3.37c.422.244.369.67-.118.951l-4.869,2.811A1.83,1.83,0,0,1,768.547,795.241Z" transform="translate(-743.009 -746.746)" fill="#fff"/>
        <path id="Trazado_101238" data-name="Trazado 101238" d="M792.634,809.147l-5.838-3.37c-.422-.244-.37-.67.118-.951l4.869-2.811a1.831,1.831,0,0,1,1.648-.069l5.838,3.371c.422.244.369.669-.118.951l-4.869,2.811A1.83,1.83,0,0,1,792.634,809.147Z" transform="translate(-755.214 -753.792)" fill="#fff"/>
        <path id="Trazado_101239" data-name="Trazado 101239" d="M816.6,818.654l-5.151-2.974c-.612-.353-.535-.97.172-1.378l11.376-6.568a2.653,2.653,0,0,1,2.387-.1l5.151,2.974c.612.353.535.97-.172,1.378l-11.376,6.568A2.653,2.653,0,0,1,816.6,818.654Z" transform="translate(-767.64 -756.637)" fill="#ff5c97"/>
        <path id="Trazado_101240" data-name="Trazado 101240" d="M869.094,734.469l-3.472-2,0-.007-27.362-15.8-.007.021-10.226-5.9a.74.74,0,0,0-1.076.418l-2.01,6.377a.74.74,0,0,0,.336.864l3.89,2.246,0,.007,27.362,15.8.007-.02,9.577,5.529a1.342,1.342,0,0,0,1.951-.758l1.64-5.2A1.341,1.341,0,0,0,869.094,734.469Z" transform="translate(-774.67 -707.628)" fill="#fff"/>
      </g>
    </g>
    <path id="Trazado_101241" data-name="Trazado 101241" d="M726.095,568.405l-1.419-29.81-7.658-4.564,7.658,4.564-6.613,11.681.585,14.009,7.447,4.121-26.883,15.088-6.943-4.169,28.2-17.641Z" transform="translate(-29.627 -210.871)" fill="#a8c4e5" opacity="0.4" style="mix-blend-mode: multiply;isolation: isolate"/>
    <path id="Trazado_101242" data-name="Trazado 101242" d="M773.731,522.186v1.952l17.828,10.173.051-2.028Z" transform="translate(-70.904 -204.869)" fill="#2e9daa"/>
    <path id="Trazado_101243" data-name="Trazado 101243" d="M726.095,568.245l-7.447-4.121-.585-14.009,6.613-11.681-7.658-4.564-24.749,45.373,6.943,4.169,25.464-44.978,1.419,29.81" transform="translate(-29.627 -210.789)" fill="#60c1dd"/>
    <path id="Trazado_101244" data-name="Trazado 101244" d="M750.1,538.6l-7.658-4.564L750.1,538.6l-6.613,11.681.585,14.009,7.447,4.121,19.621-11.645-7.947-4.588-12.118,7.587Z" transform="translate(-55.049 -210.871)" fill="#a8c4e5" opacity="0.4" style="mix-blend-mode: multiply;isolation: isolate"/>
    <path id="Trazado_101245" data-name="Trazado 101245" d="M773.731,512.593l17.024-9.34.844,19.755Z" transform="translate(-70.904 -195.275)" fill="#60c1dd"/>
    <g id="Grupo_87558" data-name="Grupo 87558" transform="translate(644.423 206.238)">
      <path id="Trazado_101246" data-name="Trazado 101246" d="M661.26,395.311l52.715-30.435c3.258-1.881,5.923-6.974,5.923-11.319V302.19c0-4.344-2.665-6.359-5.923-4.478L661.26,328.147c-3.258,1.881-5.924,6.974-5.924,11.318v51.367C655.336,395.177,658,397.192,661.26,395.311Z" transform="translate(-655.336 -297.007)" fill="#f0f8ff"/>
      <ellipse id="Elipse_4793" data-name="Elipse 4793" cx="30.024" cy="17.334" rx="30.024" ry="17.334" transform="matrix(0.505, -0.863, 0.863, 0.505, 3.515, 66.676)" fill="#2a75a9"/>
      <path id="Trazado_101247" data-name="Trazado 101247" d="M685.237,419.019c-3.056-2.466-4.894-6.836-4.894-12.76a37.113,37.113,0,0,1,2-11.511l9.929-4.093,11.409,5.048v.61Z" transform="translate(-668.007 -344.459)" fill="#abcfff"/>
      <path id="Trazado_101248" data-name="Trazado 101248" d="M699.419,374.8l-27.5,5.1c1.844-10.87,7.948-22.376,15.982-30.5Z" transform="translate(-663.741 -323.554)" fill="#ca4f4e"/>
    </g>
    <g id="Grupo_87560" data-name="Grupo 87560" transform="translate(730.026 469.735)">
      <path id="Trazado_101249" data-name="Trazado 101249" d="M905.525,853.435c-.418-.16-.838-.31-1.257-.459,3.106-5.576-4.471-11.465-7.15-13.314a2.964,2.964,0,0,0-1.966-.509,55.53,55.53,0,0,0-18.367,5.168,85.069,85.069,0,0,0-16.1,6.334c-.254.135-.5.272-.748.409q-1.443.32-2.882.688a64.072,64.072,0,0,0-15.319,6.013,32.15,32.15,0,0,0-4.627,2.769,2.974,2.974,0,0,0-.317,4.534,29.91,29.91,0,0,0,7.8,5.483,19.688,19.688,0,0,0,1.289,7.564,5.045,5.045,0,0,0,4.684,2.771,3,3,0,0,0,2.363-.8,1.4,1.4,0,0,0,.474-1.53,18.255,18.255,0,0,1-1.442-6.066c2.839.191,7.183.221,10.521-.912,16.837-5.713,6.226-16.57,6.226-16.57l.4-.153,1.231-.472.4-.152s10.937,11.716,28.127,3.23c.19-.094.374-.188.554-.283,2.121.588,3.428,1,3.479,1.02,2.39.752,4.316.341,5.137-.483a1.757,1.757,0,0,0,.182-.215C908.856,856.594,908.166,854.486,905.525,853.435Zm-4.569-2.077q.127-.5.217-1A3.908,3.908,0,0,1,900.957,851.357Z" transform="translate(-832.426 -835.206)" fill="#a8c4e5" opacity="0.52" style="mix-blend-mode: multiply;isolation: isolate"/>
      <g id="Grupo_87559" data-name="Grupo 87559">
        <path id="Trazado_101250" data-name="Trazado 101250" d="M847.922,874.542c-.828-6.219-.615-12.719,2.3-16.716a38.594,38.594,0,0,1,13.3-11.06,92.214,92.214,0,0,1,22.264-7.924l.707.847a137.318,137.318,0,0,0-25.6,15.249c-12.132,9.294-7.016,20.542-6.427,22,.641,1.59-1.132,2.808-2.243,2.793C850.412,879.709,848.411,878.215,847.922,874.542Z" transform="translate(-838.31 -835.056)" fill="#12263f"/>
        <path id="Trazado_101251" data-name="Trazado 101251" d="M852.094,854.352a85.531,85.531,0,0,1,22.395-2.733c9.294.125,18.231,1.133,26.9,4.444,2.685,1.07,3.388,3.213,2.73,4.137a1.747,1.747,0,0,1-.185.218c-.835.839-2.794,1.257-5.224.492-.2-.065-20.368-6.483-32.83-4.95-20.187,2.484-33.527,7.374-33.659,7.424l.261-.355C832.566,862.978,839.434,857.6,852.094,854.352Z" transform="translate(-830.569 -841.526)" fill="#12263f"/>
        <path id="Trazado_101252" data-name="Trazado 101252" d="M836.624,869.169a9.777,9.777,0,0,0,8.39,8.145c7.5,1.1,17.722.674,20.241-3.961s2.139-11.5-1.519-13.423S841.594,861.379,836.624,869.169Z" transform="translate(-832.799 -845.473)" fill="#12263f" opacity="0.65"/>
        <path id="Trazado_101253" data-name="Trazado 101253" d="M902.621,843.954a9.777,9.777,0,0,0,8.391,8.145c7.5,1.1,17.721.674,20.241-3.961s2.138-11.5-1.52-13.422S907.592,836.164,902.621,843.954Z" transform="translate(-866.24 -832.697)" fill="#12263f" opacity="0.65"/>
        <path id="Trazado_101254" data-name="Trazado 101254" d="M830.109,852.923a3.024,3.024,0,0,0-.322,4.612c4.059,3.939,13.48,10.916,26.128,6.623,17.123-5.811,6.332-16.852,6.332-16.852l.4-.155,1.252-.48.4-.154s11.124,11.915,28.606,3.285c13.336-6.584,1.713-15.7-1.77-18.105a3.012,3.012,0,0,0-2-.517c-4.117.389-19.031,2.474-29.436,12.776l-.1.04C842.786,845.382,833.985,850.093,830.109,852.923Zm39.163-7.119h0a3.035,3.035,0,0,1,.042-4.914c7.128-5.12,15.589-6.422,18.638-6.735a3.022,3.022,0,0,1,2.146.61c2.793,2.137,9.989,8.655.237,12.858A22.1,22.1,0,0,1,869.272,845.8Zm-33.613,12.485a3.03,3.03,0,0,1,.1-5.086c3.3-2.069,9.382-4.806,19.451-5.874a3.042,3.042,0,0,1,2.349.758l1.725,1.548s8.25,7.291-4.49,11.615C846.448,864.08,839.478,860.854,835.658,858.289Z" transform="translate(-828.869 -831.165)" fill="#12263f"/>
        <path id="Trazado_101255" data-name="Trazado 101255" d="M851.024,880.462h0a.915.915,0,0,1-.771-1.035l.792-5.42a.915.915,0,0,1,1.035-.771h0a.916.916,0,0,1,.772,1.035l-.792,5.42A.915.915,0,0,1,851.024,880.462Z" transform="translate(-839.699 -852.478)" fill="#12263f"/>
        <path id="Trazado_101256" data-name="Trazado 101256" d="M858.036,879.38h0a.625.625,0,0,1-.526-.707l.876-5.993a.625.625,0,0,1,.707-.526h0a.625.625,0,0,1,.526.707l-.876,5.993A.625.625,0,0,1,858.036,879.38Z" transform="translate(-843.378 -851.931)" fill="#12263f"/>
        <path id="Trazado_101257" data-name="Trazado 101257" d="M919.7,854.028h0a.916.916,0,0,1-.772-1.035l.792-5.42a.915.915,0,0,1,1.035-.771h0a.915.915,0,0,1,.771,1.035l-.792,5.419A.916.916,0,0,1,919.7,854.028Z" transform="translate(-874.496 -839.084)" fill="#12263f"/>
        <path id="Trazado_101258" data-name="Trazado 101258" d="M926.709,852.945h0a.625.625,0,0,1-.526-.706l.876-5.993a.626.626,0,0,1,.707-.527h0a.625.625,0,0,1,.527.707l-.876,5.993A.625.625,0,0,1,926.709,852.945Z" transform="translate(-878.175 -838.536)" fill="#12263f"/>
      </g>
    </g>
    <path id="Trazado_101259" data-name="Trazado 101259" d="M778.851,529.106l2.085-1.953-8.216-4.967-13.385,24.54L760,562.4" transform="translate(-63.61 -204.869)" fill="#60c1dd"/>
    <path id="Trazado_101260" data-name="Trazado 101260" d="M831.9,285.735l3.245-1.874a2.1,2.1,0,0,0,.876-1.673v-3.4c0-.645-.392-.941-.875-.662L831.9,280a2.1,2.1,0,0,0-.876,1.673v3.4C831.025,285.718,831.417,286.014,831.9,285.735Z" transform="translate(-99.936 -81.15)" fill="#4c73db"/>
    <g id="Grupo_87561" data-name="Grupo 87561" transform="translate(717.932 147.539)">
      <path id="Trazado_101261" data-name="Trazado 101261" d="M845.666,178.011v72.2l-35.775,20.67v-72.2Z" transform="translate(-807.159 -178.011)" fill="#dbefff"/>
      <path id="Trazado_101262" data-name="Trazado 101262" d="M837.167,228.435l16.093-9.291v-2.857l-16.093,9.291Z" transform="translate(-820.98 -197.406)" fill="#97cbff"/>
      <path id="Trazado_101263" data-name="Trazado 101263" d="M837.167,254.7l16.093-9.291v-2.857l-16.093,9.291Z" transform="translate(-820.98 -210.712)" fill="#97cbff"/>
      <path id="Trazado_101264" data-name="Trazado 101264" d="M837.167,280.955l16.093-9.291v-2.857L837.167,278.1Z" transform="translate(-820.98 -224.018)" fill="#97cbff"/>
      <path id="Trazado_101265" data-name="Trazado 101265" d="M823.39,240.95l3.245-1.874a2.1,2.1,0,0,0,.876-1.672v-3.4c0-.645-.392-.941-.875-.662l-3.245,1.874a2.1,2.1,0,0,0-.876,1.673v3.4C822.515,240.933,822.907,241.23,823.39,240.95Z" transform="translate(-813.556 -205.996)" fill="#4c73db"/>
      <path id="Trazado_101266" data-name="Trazado 101266" d="M823.39,269.072l3.245-1.874a2.1,2.1,0,0,0,.876-1.672v-3.4c0-.645-.392-.941-.875-.662l-3.245,1.874a2.1,2.1,0,0,0-.876,1.673v3.4C822.515,269.055,822.907,269.352,823.39,269.072Z" transform="translate(-813.556 -220.245)" fill="#4c73db"/>
      <path id="Trazado_101267" data-name="Trazado 101267" d="M823.39,295.061l3.245-1.873a2.1,2.1,0,0,0,.876-1.673v-3.4c0-.644-.392-.941-.875-.662l-3.245,1.874a2.1,2.1,0,0,0-.876,1.672v3.4C822.515,295.043,822.907,295.34,823.39,295.061Z" transform="translate(-813.556 -233.414)" fill="#4c73db"/>
      <path id="Trazado_101268" data-name="Trazado 101268" d="M809.022,325.869,827.847,315c2.567-1.482,4.668-5.5,4.668-8.918v-1c0-3.423-2.1-5.011-4.668-3.529l-18.825,10.869c-2.568,1.482-4.668,5.5-4.668,8.918v1C804.354,325.763,806.455,327.351,809.022,325.869Z" transform="translate(-804.354 -240.328)" fill="#3b4454"/>
      <path id="Trazado_101269" data-name="Trazado 101269" d="M816.73,325.437,833.068,316a1.457,1.457,0,0,0,.606-1.158h0c0-.444-.273-.65-.606-.458l-16.337,9.432a1.457,1.457,0,0,0-.606,1.158h0C816.124,325.423,816.4,325.63,816.73,325.437Z" transform="translate(-810.318 -247.078)" fill="#fff"/>
    </g>
    <g id="Grupo_87562" data-name="Grupo 87562" transform="translate(668.273 481.406)">
      <path id="Trazado_101270" data-name="Trazado 101270" d="M748.336,869.545c-7.807-4.682-20.587-4.894-28.546-.474s-8.081,11.8-.274,16.481,20.448,4.9,28.554.567C756.98,881.359,756.144,874.226,748.336,869.545Z" transform="translate(-708.78 -860.432)" fill="#4a70d6" opacity="0.27"/>
      <path id="Trazado_101271" data-name="Trazado 101271" d="M737.067,867.643c-7.415-4.447-19.552-4.648-27.11-.45s-7.675,11.206-.26,15.652,19.419,4.652,27.117.539C745.276,878.863,744.481,872.09,737.067,867.643Z" transform="translate(-703.951 -859.561)" fill="#2e9daa"/>
      <path id="Trazado_101272" data-name="Trazado 101272" d="M736.541,858.3c-7.415-4.447-19.552-4.648-27.11-.45s-7.675,11.206-.261,15.652,19.42,4.652,27.118.539C744.75,869.518,743.955,862.744,736.541,858.3Z" transform="translate(-703.684 -854.826)" fill="#60c1dd"/>
      <path id="Trazado_101273" data-name="Trazado 101273" d="M730.862,868.05l-2.2,7.554,17.815-4.032" transform="translate(-716.341 -861.527)" fill="none" stroke="#fff" stroke-linecap="round" stroke-linejoin="round" stroke-width="8.025"/>
    </g>
    <g id="Grupo_87566" data-name="Grupo 87566" transform="translate(763.154 307.57)">
      <path id="Trazado_101274" data-name="Trazado 101274" d="M944.331,556.476,910.64,577.527l-14.614-54.051,33.691-21.051Z" transform="translate(-896.026 -502.426)" fill="#e6f4ff"/>
      <path id="Trazado_101275" data-name="Trazado 101275" d="M927.286,602.972l3.867-2.491a.937.937,0,0,1,.1-.077l5.373-3.462a.812.812,0,0,1,.12-.063l3.379-2.176c.48-.31.98.021,1.11.734a1.946,1.946,0,0,1-.638,1.861l-5.373,3.462a.824.824,0,0,1-.12.063l-1.872,1.206a.994.994,0,0,1-.1.077l-5.374,3.462c-.48.31-.98-.021-1.11-.734A1.946,1.946,0,0,1,927.286,602.972Z" transform="translate(-911.527 -549.124)" fill="#bfdfff"/>
      <path id="Trazado_101276" data-name="Trazado 101276" d="M932.071,621.5l5.374-3.462a1.946,1.946,0,0,0,.638-1.861h0c-.13-.714-.63-1.044-1.11-.734l-5.374,3.462a1.946,1.946,0,0,0-.638,1.861h0C931.091,621.482,931.59,621.812,932.071,621.5Z" transform="translate(-913.712 -559.635)" fill="#bfdfff"/>
      <g id="Grupo_87563" data-name="Grupo 87563" transform="translate(7.948 21.586)">
        <path id="Trazado_101277" data-name="Trazado 101277" d="M919.117,547.354c-4.96,2.8-7.954,9.754-6.688,15.529s6.312,8.185,11.271,5.383,7.953-9.755,6.688-15.529S924.076,544.552,919.117,547.354Zm.755,3.444c3.325-1.879,6.709-.262,7.558,3.61a10.135,10.135,0,0,1-4.485,10.413c-3.325,1.879-6.709.263-7.558-3.609A10.137,10.137,0,0,1,919.871,550.8Z" transform="translate(-912.138 -546.185)" fill="#29479c"/>
        <path id="Trazado_101278" data-name="Trazado 101278" d="M919.12,547.355c3.035-1.715,6.1-1.474,8.314.292l-2.031,3.311a4.846,4.846,0,0,0-5.528-.158,10.126,10.126,0,0,0-4.675,8.36l-3.054.8C912.21,554.929,914.978,549.695,919.12,547.355Z" transform="translate(-912.142 -546.187)" fill="#5986ff"/>
        <path id="Trazado_101279" data-name="Trazado 101279" d="M943.059,562.095l-2.742-.957a9.829,9.829,0,0,0,.521-5.572,5.748,5.748,0,0,0-2.237-3.6l1.787-3.492a8.542,8.542,0,0,1,3.409,5.424A14.63,14.63,0,0,1,943.059,562.095Z" transform="translate(-925.547 -547.344)" fill="#add5f7"/>
      </g>
      <g id="Grupo_87564" data-name="Grupo 87564" transform="translate(27.705 15.438)">
        <path id="Trazado_101280" data-name="Trazado 101280" d="M953.119,538.759l4.377-2.8a1.6,1.6,0,0,0,.519-1.529h0c-.106-.591-.512-.869-.9-.619l-4.376,2.8a1.6,1.6,0,0,0-.52,1.53h0C952.321,538.731,952.727,539.01,953.119,538.759Z" transform="translate(-952.19 -533.721)" fill="#add5f7"/>
        <path id="Trazado_101281" data-name="Trazado 101281" d="M956.465,551.391l4.377-2.8a1.6,1.6,0,0,0,.52-1.53h0c-.106-.591-.512-.869-.9-.619l-4.377,2.8a1.6,1.6,0,0,0-.519,1.529h0C955.667,551.362,956.073,551.641,956.465,551.391Z" transform="translate(-953.885 -540.121)" fill="#add5f7"/>
        <path id="Trazado_101282" data-name="Trazado 101282" d="M959.7,563.927l4.376-2.8a1.6,1.6,0,0,0,.52-1.529h0c-.106-.591-.513-.87-.9-.619l-4.377,2.8a1.6,1.6,0,0,0-.519,1.529h0C958.9,563.9,959.305,564.177,959.7,563.927Z" transform="translate(-955.522 -546.473)" fill="#add5f7"/>
      </g>
      <g id="Grupo_87565" data-name="Grupo 87565" transform="translate(32.472 40.142)">
        <path id="Trazado_101283" data-name="Trazado 101283" d="M962.085,593.166a8.142,8.142,0,0,1,3.437-8.666,4.371,4.371,0,0,1,3.672-.49h0l.012.005a3.79,3.79,0,0,1,.44.184l2.667,1.209-1.28-.082a5.4,5.4,0,0,1,.982,2,8.142,8.142,0,0,1-3.437,8.665,5.028,5.028,0,0,1-1.686.634l-.186.658-1.857-.821c-.1-.037-.2-.079-.3-.124l-.033-.013v0A4.68,4.68,0,0,1,962.085,593.166Z" transform="translate(-961.854 -583.802)" fill="#a31e1d"/>
        <path id="Trazado_101284" data-name="Trazado 101284" d="M967.017,595.364c.844,3.174,3.751,4.441,6.493,2.829a8.142,8.142,0,0,0,3.437-8.666c-.844-3.174-3.751-4.441-6.493-2.829A8.142,8.142,0,0,0,967.017,595.364Z" transform="translate(-964.353 -584.915)" fill="#ca4f4e"/>
        <path id="Trazado_101285" data-name="Trazado 101285" d="M977.42,592.235l-1.712,6.305-3.488-2.481" transform="translate(-967.107 -588.075)" fill="none" stroke="#fff" stroke-miterlimit="10" stroke-width="1.77"/>
      </g>
    </g>
    <g id="Grupo_87572" data-name="Grupo 87572" transform="translate(792.596 363.244)">
      <g id="Grupo_87568" data-name="Grupo 87568" transform="translate(7.049 14.732)">
        <g id="Grupo_87567" data-name="Grupo 87567">
          <path id="Trazado_101286" data-name="Trazado 101286" d="M994.958,648.054c-1.838,3.667-4.826,10.961-8.74,12.352-5.414,1.923-11.068-4.588-15.406-7.858-1.943-1.464-.037-4.789,1.931-3.3,3.511,2.647,7.956,4.97,12.4,3.309a12.6,12.6,0,0,0,6.506-6.431c1.1-2.2,4.406-.266,3.3,1.932Z" transform="translate(-970.001 -645.152)" fill="#bad4f5"/>
        </g>
      </g>
      <path id="Trazado_101287" data-name="Trazado 101287" d="M968.382,653.645l-1.646-1a1.826,1.826,0,0,1-.609-2.5h0a1.825,1.825,0,0,1,2.5-.609l1.646,1a1.826,1.826,0,0,1,.609,2.5h0A1.826,1.826,0,0,1,968.382,653.645Z" transform="translate(-960.855 -632.506)" fill="#ffc2b0"/>
      <path id="Trazado_101288" data-name="Trazado 101288" d="M988.416,633.072a3.892,3.892,0,0,0,1.723-3.3l.015-.011-.08-.653a6.453,6.453,0,0,0-3.4,2.367S986.551,634.323,988.416,633.072Zm-1.387-1.468a5.017,5.017,0,0,1,2.651-1.842l.032.508a2.894,2.894,0,0,1-1.282,2.451C987.042,633.651,987.029,631.6,987.029,631.6Z" transform="translate(-971.4 -622.292)" fill="#1f3b82"/>
      <path id="Trazado_101289" data-name="Trazado 101289" d="M967.936,705.021c.552-5.187,2.664-8.8,8.779-9.249a2.646,2.646,0,0,1,1.132.174l21.332,6.348s4.662,11.573-6.776,15.078c-5.789,1.774-17.029-4.1-22.14-7.435A5.211,5.211,0,0,1,967.936,705.021Z" transform="translate(-961.891 -656.066)" fill="#60c1dd"/>
      <path id="Trazado_101290" data-name="Trazado 101290" d="M991.905,627.745c1.552,2.922,5.126,3.342,6.657.895s1.513-6.8-.039-9.722-4.051-3.308-5.582-.861S990.353,624.822,991.905,627.745Z" transform="translate(-973.665 -615.875)" fill="#ffc2b0"/>
      <path id="Trazado_101291" data-name="Trazado 101291" d="M1005.887,643.74l.318-.145a2.152,2.152,0,0,0,1.061-2.842L1004.5,634.7a2.151,2.151,0,0,0-2.842-1.061l-.318.145a2.151,2.151,0,0,0-1.061,2.842l1.8,6.205C1002.572,643.906,1004.814,644.23,1005.887,643.74Z" transform="translate(-978.198 -624.489)" fill="#ffc2b0"/>
      <path id="Trazado_101292" data-name="Trazado 101292" d="M999.824,625.442s.844,2.076-2.878,3.082c-2.977.8-3.237-4.834-6.327-4.688-3.4.16-4.855-3.773-3.89-5.605s4.411-3.413,7.277-2.813S1002.555,615.7,999.824,625.442Z" transform="translate(-971.28 -615.288)" fill="#12263f"/>
      <path id="Trazado_101293" data-name="Trazado 101293" d="M1007.829,676.519c-.491-5-2.449-5.149-1.956-11.683.132-1.743.177-3.494.158-5.243-.1-9.538-.88-16.016-6.267-14.466l-1.7.451a11.717,11.717,0,0,0-2.355.91c-7.939,4.09-11.907,4.251-10.424,13.025.319,8.691,4.272,6.819,2.615,15.454C987.9,685.312,1007.84,682.98,1007.829,676.519Z" transform="translate(-970.542 -630.292)" fill="#bad4f5"/>
      <path id="Trazado_101294" data-name="Trazado 101294" d="M988.054,677.8l4.327-9.437c.335,5.4-.108,10.245-2.592,13.618Z" transform="translate(-972.099 -642.183)" fill="#8fb6eb"/>
      <path id="Trazado_101295" data-name="Trazado 101295" d="M1000.232,643.395l.172-.852a2.188,2.188,0,0,1-1.65.825A2.8,2.8,0,0,0,1000.232,643.395Z" transform="translate(-977.521 -629.098)" fill="#f09a82"/>
      <path id="Trazado_101296" data-name="Trazado 101296" d="M1000.53,628.554a9.4,9.4,0,0,1,2.316,4.755c.365,3.258,2.458,5.253,5.215,3.479,1.369-.88,2.555-1.873,2.466-2.857-.762-8.376-3.52-13.115-3.52-13.115Z" transform="translate(-978.421 -618.089)" fill="#12263f"/>
      <path id="Trazado_101297" data-name="Trazado 101297" d="M978.761,661.294s-.972,20.12-11.6,13.613c-6.641-4.065-5.965-15.774-5.965-15.774l2.929-.459s3.2,12.627,6.56,10.749,2.517-10.961,4.178-11.657S978.761,661.294,978.761,661.294Z" transform="translate(-958.479 -636.773)" fill="#bad4f5"/>
      <path id="Trazado_101298" data-name="Trazado 101298" d="M961.733,658.1h0a1.734,1.734,0,0,0,1.073-2.2l-1.327-3.862a1.733,1.733,0,0,0-2.2-1.073h0a1.734,1.734,0,0,0-1.073,2.2l1.327,3.862A1.734,1.734,0,0,0,961.733,658.1Z" transform="translate(-956.93 -633.319)" fill="#ffc2b0"/>
      <g id="Grupo_87569" data-name="Grupo 87569" transform="translate(0 12.031)">
        <path id="Trazado_101299" data-name="Trazado 101299" d="M960.563,652.245l4.147-3.093a.737.737,0,0,0,.166-.9l-4.065-8.246a.487.487,0,0,0-.729-.245l-4.125,3.009a.738.738,0,0,0-.166.9l4.046,8.207c.1.208.207.234.417.285Z" transform="translate(-955.711 -639.677)" fill="#97cbff"/>
        <path id="Trazado_101300" data-name="Trazado 101300" d="M960.1,643.906s4.947,4.665,4.791,4.349l-4.068-8.531-.389-.039a.431.431,0,0,0-.336.079l-4.125,3.009a.627.627,0,0,0-.232.386Z" transform="translate(-955.727 -639.677)" fill="#97cbff"/>
        <path id="Trazado_101301" data-name="Trazado 101301" d="M961.406,652.233l4.112-3.006a.734.734,0,0,0,.153-.9l-4.064-8.246a.481.481,0,0,0-.722-.245l-4.109,3.006a.731.731,0,0,0-.15.894l4.064,8.247A.476.476,0,0,0,961.406,652.233Z" transform="translate(-956.131 -639.716)" fill="#1f3b82"/>
        <path id="Trazado_101302" data-name="Trazado 101302" d="M956.906,649.075l.232.471c.016.032,0,.051-.042.042l.006-.005a.14.14,0,0,1-.084-.079l-.232-.471c-.016-.033-.013-.049.026-.039l0,0A.154.154,0,0,1,956.906,649.075Z" transform="translate(-956.251 -644.396)" fill="#45446c"/>
        <path id="Trazado_101303" data-name="Trazado 101303" d="M957.73,650.747l.232.471c.016.033,0,.052-.042.042l.006,0a.141.141,0,0,1-.084-.079l-.232-.471c-.016-.033-.014-.049.026-.04l0,0A.157.157,0,0,1,957.73,650.747Z" transform="translate(-956.668 -645.243)" fill="#45446c"/>
        <path id="Trazado_101304" data-name="Trazado 101304" d="M961.462,651.79l4.049-2.953-3.562-7.275-4.025,2.936,3.6,7.083C961.553,651.642,961.407,651.831,961.462,651.79Z" transform="translate(-956.833 -640.632)" fill="#dbedff"/>
        <path id="Trazado_101305" data-name="Trazado 101305" d="M960.065,643.848l1.272-.928a.134.134,0,0,0,.03-.162h0a.089.089,0,0,0-.132-.044l-1.272.928a.134.134,0,0,0-.03.163h0A.089.089,0,0,0,960.065,643.848Z" transform="translate(-957.843 -641.207)" fill="#fff"/>
      </g>
      <path id="Trazado_101306" data-name="Trazado 101306" d="M986.493,633.426l4.749-.739a.311.311,0,0,0,.259-.355h0a.312.312,0,0,0-.355-.26l-4.749.74a.311.311,0,0,0-.26.355h0A.312.312,0,0,0,986.493,633.426Z" transform="translate(-971.127 -623.791)" fill="#1f3b82"/>
      <circle id="Elipse_4794" data-name="Elipse 4794" cx="1.457" cy="1.457" r="1.457" transform="translate(19.15 10.517) rotate(-72.849)" fill="#ffc2b0"/>
      <g id="Grupo_87571" data-name="Grupo 87571" transform="translate(2.384 14.885)">
        <g id="Grupo_87570" data-name="Grupo 87570">
          <path id="Trazado_101307" data-name="Trazado 101307" d="M960.826,648.759a1.805,1.805,0,0,0,2.672.525,2.27,2.27,0,0,0,.655-2.922,1.805,1.805,0,0,0-2.672-.525A2.27,2.27,0,0,0,960.826,648.759Zm.548-.4a1.521,1.521,0,0,1,.439-1.959,1.21,1.21,0,0,1,1.792.352,1.522,1.522,0,0,1-.44,1.959A1.21,1.21,0,0,1,961.374,648.364Z" transform="translate(-960.544 -645.461)" fill="#2c4482"/>
          <path id="Trazado_101308" data-name="Trazado 101308" d="M960.827,650.176a2.208,2.208,0,0,1-.118-1.918l.582.25a1.479,1.479,0,0,0,.084,1.273,1.194,1.194,0,0,0,1.46.528l.191.646A1.78,1.78,0,0,1,960.827,650.176Z" transform="translate(-960.545 -646.878)" fill="#ff5c97"/>
          <path id="Trazado_101309" data-name="Trazado 101309" d="M962.959,645.477l-.1.688a1.273,1.273,0,0,0-.921.241,1.521,1.521,0,0,0-.545.743l-.606-.182a2.261,2.261,0,0,1,.819-1.129A1.9,1.9,0,0,1,962.959,645.477Z" transform="translate(-960.666 -645.462)" fill="#fff"/>
        </g>
        <path id="Trazado_101310" data-name="Trazado 101310" d="M965.885,655.108l1.772-1.277a.314.314,0,0,0,.063-.407h0a.25.25,0,0,0-.361-.1l-1.772,1.276a.315.315,0,0,0-.063.407h0A.251.251,0,0,0,965.885,655.108Z" transform="translate(-963.044 -649.423)" fill="#fff"/>
        <path id="Trazado_101311" data-name="Trazado 101311" d="M966.984,656.87l1.772-1.277a.314.314,0,0,0,.063-.407h0a.25.25,0,0,0-.361-.1l-1.772,1.277a.314.314,0,0,0-.063.407h0A.25.25,0,0,0,966.984,656.87Z" transform="translate(-963.601 -650.316)" fill="#fff"/>
      </g>
      <path id="Trazado_101312" data-name="Trazado 101312" d="M961.081,657.652l-.495-1.031c.4-.011.861,1.615.852,1.286l-.015-4.6a.673.673,0,0,0-.74-.579h0a.672.672,0,0,0-.707.618l.063,2.27C960.049,655.949,960.683,657.663,961.081,657.652Z" transform="translate(-957.872 -634.261)" fill="#ffc2b0"/>
    </g>
    <path id="Trazado_101313" data-name="Trazado 101313" d="M910.64,599.15l-7.7-5.678L896.026,545.1Z" transform="translate(-132.873 -216.479)" fill="#a8c4e5" opacity="0.73" style="mix-blend-mode: multiply;isolation: isolate"/>
  </g>
</svg>
