<svg xmlns="http://www.w3.org/2000/svg" width="296.581" height="276.581" viewBox="0 0 296.581 276.581">
  <g id="Grupo_88441" data-name="Grupo 88441" transform="translate(-303.419 -1312)">
    <rect id="Rectángulo_33953" data-name="Rectángulo 33953" width="195.572" height="195.572" rx="28" transform="translate(303.419 1450.29) rotate(-45)" fill="#3b4454"/>
    <g id="Grupo_87685" data-name="Grupo 87685" transform="translate(-113.281 951.896)">
      <g id="Grupo_87645" data-name="Grupo 87645" transform="translate(471.328 409.231)">
        <path id="Trazado_101415" data-name="Trazado 101415" d="M2191.959,1390.8a22.731,22.731,0,0,0,4.523-.646c1.973-.568,3.464-2.578,5.033-2.462,3.289.244,9.543-.777,8.923.381s-4.395.861-4.84,1.548,5.377,2.442,7.062,2.753,7.974,1.017,7.758,1.853-8.6,4.744-13.553,3.7-13.848-2.827-13.848-2.827Z" transform="translate(-2010.051 -1263.217)" fill="#ffb27d"/>
        <path id="Trazado_101416" data-name="Trazado 101416" d="M1249.857,411.371c-7.281-3.778-13.117-1.4-13.117-1.4-22.282-2.617-28.782,23.37-28.48,32.311s2.516,16.072-8.015,25.333c-12.551,11.037-9.631,25.623-3.123,30.79a33.6,33.6,0,0,0,10.42,5.2,81.118,81.118,0,0,0,14.257,3.068c2.348.307,4.416.5,6,.617h0c.258.019.5.036.731.051h0c1.6.108,2.551.131,2.551.131.182-9.6,4.42-14.508,9.722-16.726a.007.007,0,0,0,.006,0,19.223,19.223,0,0,1,3.824-1.137h0a28.383,28.383,0,0,1,10.521.139c4.467.871,7.625,2.526,7.162,3.418a25.625,25.625,0,0,0,6.873.8,11.846,11.846,0,0,0,7-2.277C1292.518,479.1,1263.854,418.632,1249.857,411.371Z" transform="translate(-1136.737 -409.231)" fill="#163560"/>
        <path id="Trazado_101417" data-name="Trazado 101417" d="M1662.859,894.251s16.807,2.4,22.627,10.264c7.353,9.937,14.585,37.953,19.848,42.967s27.261,12.5,27.261,12.5.813,4.825-1.711,6.3c-4.273,2.5-25.848,1.41-38.365-5.314C1680.508,954.512,1672,940.4,1672,940.4Z" transform="translate(-1548.176 -832.627)" fill="#8c9df4"/>
        <path id="Trazado_101418" data-name="Trazado 101418" d="M784.539,1148.549s-3.512-6.568-6.783-6.987-9.2-2.67-8.819-1.41,4.134,1.722,4.432,2.484-5.757,1.318-7.47,1.286-5.714-.517-5.669.345,6.835,5.03,11.894,5,11.084,2.473,11.084,2.473Z" transform="translate(-760.23 -1046.955)" fill="#ffb27d"/>
        <path id="Trazado_101419" data-name="Trazado 101419" d="M990.218,941.556a61.306,61.306,0,0,1-7.081,8.857c-5.388,5.623-13.483,11.951-22.976,12.485a23.35,23.35,0,0,1-12.685-3.254l-.014,0c-10.922-6.08-18.427-18.469-18.427-18.469-1.511-5.652,1.251-8.944,1.251-8.944s23.3,6.955,25.651,6.23c9.448-2.921,16.052-27.647,21.639-35.548,4.686-6.626,21.037-8.654,21.037-8.654Z" transform="translate(-907.193 -832.63)" fill="#8c9df4"/>
        <path id="Trazado_101420" data-name="Trazado 101420" d="M1112.943,1249.722c-5.387,5.624-13.482,11.951-22.976,12.485a23.35,23.35,0,0,1-12.685-3.254c.44.1,11.677,2.53,16.939-5.164,5.368-7.85,11.552-20.527,18.02-15.53C1115.031,1240.418,1114.475,1245.1,1112.943,1249.722Z" transform="translate(-1036.999 -1131.939)" fill="#6f84dd"/>
        <path id="Trazado_101421" data-name="Trazado 101421" d="M1377.923,974.2a110.258,110.258,0,0,1-2.074,11.416c-1.49,6.35-4.063,8.847-5.183,9.667a3.564,3.564,0,0,1-.548.345l-19.9,4.877-7,1.713-22.064-6.59s-10.05-28.051-6.013-43.842a236.777,236.777,0,0,1,6.913-23.307s14.348-5.841,45.255-.662C1367.312,927.812,1382.036,941.563,1377.923,974.2Z" transform="translate(-1243.804 -860.055)" fill="#8c9df4"/>
        <path id="Trazado_101422" data-name="Trazado 101422" d="M1339.283,1546.37c-8.748,0-17.669-.008-26.618-.013l-15.161-.01c2.26-11.147,7.194-27.474,9.4-34.553.678-2.182,1.1-3.486,1.1-3.486h29.566s0,.114,0,.334v.1c.006.767.025,2.526.082,5.118C1337.793,1520.323,1338.194,1531.965,1339.283,1546.37Z" transform="translate(-1229.241 -1368.666)" fill="#2b478b"/>
        <path id="Trazado_101423" data-name="Trazado 101423" d="M1469.476,1539.417c-10.614,0-21.85-.006-33.38-.01-8.748,0-17.669-.008-26.619-.013-2.689-6.2.338-23.161,2.025-31.275.095-.456.184-.884.27-1.281.028-.131.057-.26.083-.385.376-1.736.626-2.775.626-2.775l4.363-.377,1.569-.137,3.659-.317,11.663-1.01h.006l.636-.055,16.728-1.45s.926,1.241,2.361,3.338c4.655,6.8,14.673,22.588,15.861,34.143Q1469.4,1538.557,1469.476,1539.417Z" transform="translate(-1326.054 -1361.703)" fill="#2b478b"/>
        <path id="Trazado_101424" data-name="Trazado 101424" d="M1636.514,1247.835a24.12,24.12,0,0,0,5.886,7.237c-.778,10.8-5.317,14.9-6.437,15.722l-.55.161-17.316,1.676s7.68-2.689,9.2-7.6-.937-11.177,1.075-18.831C1630.141,1239.458,1631.818,1239.335,1636.514,1247.835Z" transform="translate(-1509.101 -1135.57)" fill="#6f84dd"/>
        <path id="Trazado_101425" data-name="Trazado 101425" d="M1362.094,1466.99s4.387,3.47,13.1,3.646c10.409.209,36.2-2.654,36.2-2.654a21.328,21.328,0,0,1,1.1,6.583s-31.5,7.946-49.753,1.16C1362.742,1475.725,1360.388,1471.3,1362.094,1466.99Z" transform="translate(-1285.083 -1332.597)" fill="#233862"/>
        <g id="Grupo_87643" data-name="Grupo 87643" transform="translate(82.864 136.258)">
          <path id="Trazado_101426" data-name="Trazado 101426" d="M1421.916,1486.866a5.879,5.879,0,0,0-.226-1.476v0c-.032-.116-.068-.228-.11-.34a5.424,5.424,0,0,0-.873-1.592,4.514,4.514,0,0,0-3.537-1.793,4.393,4.393,0,0,0-2.974,1.19c-.082.072-.159.148-.235.228a5.429,5.429,0,0,0-1.2,1.968,5.914,5.914,0,0,0-.34,1.991,5.82,5.82,0,0,0,.917,3.169,4.973,4.973,0,0,0,1.668,1.613,4.264,4.264,0,0,0,2.165.592,4.419,4.419,0,0,0,3.122-1.326,5.68,5.68,0,0,0,1.628-4.048C1421.92,1486.982,1421.92,1486.923,1421.916,1486.866Zm-1.569.173a3.6,3.6,0,0,1-2.909,3.786h-.008a1.994,1.994,0,0,1-.26.015,2.665,2.665,0,0,1-.911-.159h0a2.923,2.923,0,0,1-.9-.526,4.051,4.051,0,0,1-1.363-3.116,4.329,4.329,0,0,1,.473-1.991,3.474,3.474,0,0,1,1.309-1.425,2.739,2.739,0,0,1,1.032-.362,2.481,2.481,0,0,1,.36-.025,2.652,2.652,0,0,1,.822.131s0,0,0,0h0a3.237,3.237,0,0,1,1.74,1.437v0c.047.078.093.157.135.241a4.334,4.334,0,0,1,.472,1.954Z" transform="translate(-1412.42 -1481.663)" fill="#6f84dd"/>
        </g>
        <g id="Grupo_87644" data-name="Grupo 87644" transform="translate(79.537 11.446)">
          <path id="Trazado_101427" data-name="Trazado 101427" d="M1503.527,773.265c-1.175-2.207-4.541-13.432-4.516-19.259l-1,.167-16.8,2.818s.382,4.479.393,8.7c0,.035,0,.07,0,.105a51.335,51.335,0,0,0,.687,10.009c.332,2.049-.368,16.752,6.665,15.7C1491.468,791.122,1504.3,774.723,1503.527,773.265Z" transform="translate(-1469.146 -721.646)" fill="#ffb27d"/>
          <path id="Trazado_101428" data-name="Trazado 101428" d="M1481.214,758.136s.382,4.479.393,8.7c9.4-.224,14.369-7.489,16.4-11.516Z" transform="translate(-1469.146 -722.792)" fill="#e8945b"/>
          <path id="Trazado_101429" data-name="Trazado 101429" d="M1405.613,561.009s22.24.367,22.256-13.487,2.9-23.137-11.3-23.957-16.964,4.463-18.094,9.086S1399.828,560.556,1405.613,561.009Z" transform="translate(-1396.685 -520.41)" fill="#ffb27d"/>
          <path id="Trazado_101430" data-name="Trazado 101430" d="M1462.985,502.131s6.089,16.253,15.435,18.656,13.4-.1,13.4-.1a26.465,26.465,0,0,1-8.656-15.635S1467.578,494.4,1462.985,502.131Z" transform="translate(-1453.233 -499.315)" fill="#163560"/>
          <path id="Trazado_101431" data-name="Trazado 101431" d="M1397.494,513.653s-4.516,1.688-6.374,4.981a22.393,22.393,0,0,0-3.006,12.718s-4.588-11.047.568-17.3C1394.148,507.43,1397.494,513.653,1397.494,513.653Z" transform="translate(-1386.233 -509.518)" fill="#163560"/>
        </g>
        <path id="Trazado_101432" data-name="Trazado 101432" d="M1526.992,897.991s14.488-15.908,15.072-22.316c0,0,3.011.057,8.532,2.924a.905.905,0,0,1,.424,1.146c-1.082,2.558-4.8,10.875-8.361,13.313a26.772,26.772,0,0,1-5.474-1.453,46.753,46.753,0,0,0,2.727,4.075S1533.238,899.419,1526.992,897.991Z" transform="translate(-1429.571 -816.411)" fill="#6f84dd"/>
        <path id="Trazado_101433" data-name="Trazado 101433" d="M1436.421,873.436a72.2,72.2,0,0,0,5.394,22.582s-6.857-1.348-10.359-6.207c0,0,1.107-2.592,2.04-3.189,0,0-2.058-.831-3.357.365,0,0-1.377-9.023-.325-10.6C1430.25,875.729,1435.352,873.151,1436.421,873.436Z" transform="translate(-1344.394 -814.438)" fill="#6f84dd"/>
        <path id="Trazado_101434" data-name="Trazado 101434" d="M1520.571,1043.808a1.094,1.094,0,1,0-1.1,1.088A1.094,1.094,0,0,0,1520.571,1043.808Z" transform="translate(-1422.056 -962.223)" fill="#233862"/>
        <path id="Trazado_101435" data-name="Trazado 101435" d="M1474.019,1165.612a1.094,1.094,0,1,0-1.1,1.088A1.094,1.094,0,0,0,1474.019,1165.612Z" transform="translate(-1381.419 -1068.551)" fill="#233862"/>
        <path id="Trazado_101436" data-name="Trazado 101436" d="M1464.664,1308.694a1.094,1.094,0,1,0-1.1,1.088A1.094,1.094,0,0,0,1464.664,1308.694Z" transform="translate(-1373.252 -1193.453)" fill="#233862"/>
      </g>
      <g id="Grupo_87647" data-name="Grupo 87647" transform="translate(644.007 491.438)">
        <rect id="Rectángulo_33982" data-name="Rectángulo 33982" width="6.979" height="8.379" rx="3.49" transform="translate(0 21.44)" fill="#ed7d2b"/>
        <rect id="Rectángulo_33983" data-name="Rectángulo 33983" width="6.979" height="6.191" rx="3.096" transform="translate(0 21.44)" fill="#f99746"/>
        <path id="Trazado_101437" data-name="Trazado 101437" d="M2194.22,1131.667a18.208,18.208,0,0,1-1.451,7.138,18.449,18.449,0,0,1-16.933,11.246h-5.256a18.422,18.422,0,0,1-15.82-9.049,18.281,18.281,0,0,1-1.113-16.473,18.448,18.448,0,0,1,16.933-11.246h5.256a18.428,18.428,0,0,1,16.081,9.5A18.222,18.222,0,0,1,2194.22,1131.667Z" transform="translate(-2148.02 -1106.037)" fill="#ed7d2b"/>
        <path id="Trazado_101438" data-name="Trazado 101438" d="M2350.642,1323.874l-1.715,11.135a1.36,1.36,0,0,0,1.315,1.707h4.506a2.579,2.579,0,0,0,2.293-1.4l7-13.971Z" transform="translate(-2319.714 -1287.665)" fill="#ed7d2b"/>
        <path id="Trazado_101439" data-name="Trazado 101439" d="M2186.3,1332.883l1.376,10.943a1.36,1.36,0,0,1-1.315,1.707h-4.507a2.579,2.579,0,0,1-2.293-1.4l-7.187-12.687Z" transform="translate(-2165.633 -1296.483)" fill="#ed7d2b"/>
        <g id="Grupo_87646" data-name="Grupo 87646" transform="translate(43.6 20.633)">
          <path id="Trazado_101440" data-name="Trazado 101440" d="M2469.454,1228.639a1.211,1.211,0,0,1-.31-.04c-.8-.21-1.256-1.164-1.193-2.49a6.636,6.636,0,0,1,1.492-3.764,6.792,6.792,0,0,1,1.351-1.265,3.859,3.859,0,0,0-.994-1.1,2.559,2.559,0,0,0-2.326-.487c-2.228.6-4.116,3.789-4.269,4.147a.377.377,0,0,1-.712-.248,10.931,10.931,0,0,1,1.388-2.09,7.149,7.149,0,0,1,3.254-2.495,3.312,3.312,0,0,1,3.116.57,4.628,4.628,0,0,1,1.18,1.3,7.855,7.855,0,0,1,2.563-.875.377.377,0,1,1,.122.744,7.092,7.092,0,0,0-2.343.8,5.692,5.692,0,0,1,.4,1.7,7.449,7.449,0,0,1-.695,3.779C2470.921,1227.986,2470.181,1228.639,2469.454,1228.639Zm1.674-6.87a6.022,6.022,0,0,0-1.1,1.051,5.871,5.871,0,0,0-1.325,3.325c-.043.906.217,1.616.633,1.725s1.023-.454,1.468-1.373a6.773,6.773,0,0,0,.623-3.385A5.044,5.044,0,0,0,2471.128,1221.769Zm-7.919,1.867,0,.007Z" transform="translate(-2462.474 -1218.645)" fill="#ed7d2b"/>
        </g>
        <path id="Trazado_101441" data-name="Trazado 101441" d="M2191.917,1122.786a15.041,15.041,0,0,1-.465,6.756c-3.71,10.67-12.431,12.6-21.345,13.408-6.338.577-15.347-1.948-15.347-1.948a18.281,18.281,0,0,1-1.113-16.473,18.448,18.448,0,0,1,16.933-11.246h5.256A18.428,18.428,0,0,1,2191.917,1122.786Z" transform="translate(-2148.02 -1106.037)" fill="#f99746"/>
        <path id="Trazado_101442" data-name="Trazado 101442" d="M2221.079,1068.1h-7.231c-.729,0-1.32-.443-1.32-.989v-9.872a.793.793,0,0,1,.145-.455,1.581,1.581,0,0,1,1.974-.333c2.746,1.556,7.243,4.938,7.749,10.593C2222.448,1067.619,2221.843,1068.1,2221.079,1068.1Z" transform="translate(-2200.685 -1056.252)" fill="#f99746"/>
        <path id="Trazado_101443" data-name="Trazado 101443" d="M2214.142,1071.783h-.294c-.729,0-1.32-.443-1.32-.989v-9.872a.794.794,0,0,1,.145-.455,1,1,0,0,1,.089.087,12.377,12.377,0,0,1,3.2,10A1.709,1.709,0,0,1,2214.142,1071.783Z" transform="translate(-2200.685 -1059.932)" fill="#ed7d2b"/>
        <path id="Trazado_101444" data-name="Trazado 101444" d="M2195.238,1194.074a1.077,1.077,0,1,1,1.078,1.077A1.077,1.077,0,0,1,2195.238,1194.074Z" transform="translate(-2185.592 -1175.623)" fill="#2b478b"/>
      </g>
      <g id="Grupo_87648" data-name="Grupo 87648" transform="translate(622.984 556.782)">
        <path id="Trazado_101445" data-name="Trazado 101445" d="M2013.118,1575.245s2.462,3.466,4.718,3.514,5.69-1.606,5.69-1.606,2.072-4.618.667-6.425a3.018,3.018,0,0,0-2.883.474,4.425,4.425,0,0,0-.763.731,2.421,2.421,0,0,1-1.185.8c-1.61.49-3.522-.663-4.237.45a7.546,7.546,0,0,1-1.245,1.474A5.657,5.657,0,0,1,2013.118,1575.245Z" transform="translate(-2005.589 -1570.553)" fill="#aec3ff" opacity="0.5"/>
        <path id="Trazado_101446" data-name="Trazado 101446" d="M1993.479,1656.618s-8.7-21.082-24.361-21.483c0,0-14.456,1.606-15.259,21.483Z" transform="translate(-1953.859 -1626.93)" fill="#aec3ff" opacity="0.5"/>
        <path id="Trazado_101447" data-name="Trazado 101447" d="M2051.223,1621.456s-6.277,1.4-8.214.576a1.939,1.939,0,0,1,2.351-2.257,5.547,5.547,0,0,0,3.681-.97C2050.022,1618.305,2051.484,1620.358,2051.223,1621.456Z" transform="translate(-2031.674 -1612.607)" fill="#8c9df4"/>
        <path id="Trazado_101448" data-name="Trazado 101448" d="M2062.524,1579.9c.4.3,1.635-4.244,1.635-4.244a4.428,4.428,0,0,0-.763.731,2.419,2.419,0,0,1-1.184.8C2062.207,1577.321,2062.135,1579.605,2062.524,1579.9Z" transform="translate(-2048.437 -1575.006)" fill="#aec3ff" opacity="0.5"/>
        <path id="Trazado_101449" data-name="Trazado 101449" d="M2019.123,1592.742a25.854,25.854,0,0,0,3.385,1.791c.4,0-2.14-3.265-2.14-3.265A7.566,7.566,0,0,1,2019.123,1592.742Z" transform="translate(-2010.831 -1588.636)" fill="#aec3ff" opacity="0.5"/>
        <path id="Trazado_101450" data-name="Trazado 101450" d="M2034.74,1693.482c.161-.137-6.157-9.3-7.9-9.37s-5.65,2.008-8.48,2.275-5.574-.535-6.11,1.138-2.008,7.6-1.1,8.554S2031.266,1696.45,2034.74,1693.482Z" transform="translate(-2003.619 -1669.683)" fill="#aec3ff" opacity="0.5"/>
      </g>
      <g id="Grupo_87649" data-name="Grupo 87649" transform="translate(487.555 524.386)">
        <path id="Trazado_101451" data-name="Trazado 101451" d="M1030.865,1319.451s-2.032,2.861-3.895,2.9a13.612,13.612,0,0,1-4.7-1.326s-1.71-3.812-.55-5.3a2.491,2.491,0,0,1,2.38.391,3.651,3.651,0,0,1,.63.6,2,2,0,0,0,.978.663c1.329.4,2.907-.547,3.5.371a6.236,6.236,0,0,0,1.028,1.217A4.7,4.7,0,0,0,1030.865,1319.451Z" transform="translate(-1004.373 -1315.578)" fill="#ffeddc"/>
        <path id="Trazado_101452" data-name="Trazado 101452" d="M887.948,1386.626s7.182-17.4,20.11-17.734c0,0,11.933,1.326,12.6,17.734Z" transform="translate(-887.948 -1362.118)" fill="#ffeddc"/>
        <path id="Trazado_101453" data-name="Trazado 101453" d="M1018.179,1357.6s5.182,1.152,6.781.475a1.6,1.6,0,0,0-1.941-1.863,4.578,4.578,0,0,1-3.039-.8C1019.171,1355,1017.964,1356.693,1018.179,1357.6Z" transform="translate(-1001.611 -1350.294)" fill="#db6a1d"/>
        <path id="Trazado_101454" data-name="Trazado 101454" d="M1044.576,1323.294c-.331.249-1.349-3.5-1.349-3.5a3.651,3.651,0,0,1,.63.6,2,2,0,0,0,.978.663C1044.838,1321.166,1044.9,1323.052,1044.576,1323.294Z" transform="translate(-1023.498 -1319.255)" fill="#e5c1a1"/>
        <path id="Trazado_101455" data-name="Trazado 101455" d="M1072.051,1333.9a21.349,21.349,0,0,1-2.794,1.479c-.332,0,1.767-2.7,1.767-2.7A6.228,6.228,0,0,0,1072.051,1333.9Z" transform="translate(-1046.189 -1330.506)" fill="#e5c1a1"/>
        <path id="Trazado_101456" data-name="Trazado 101456" d="M943.155,1417.057c-.133-.113,5.083-7.679,6.519-7.734s4.664,1.657,7,1.878,4.6-.442,5.044.939,1.657,6.278.912,7.062S946.023,1419.507,943.155,1417.057Z" transform="translate(-936.138 -1397.41)" fill="#f9ddbf"/>
      </g>
      <g id="Grupo_87676" data-name="Grupo 87676" transform="translate(456.636 548.004)">
        <g id="Grupo_87672" data-name="Grupo 87672" transform="translate(24.637 0.84)">
          <g id="Grupo_87651" data-name="Grupo 87651" transform="translate(3.932 34.046)">
            <path id="Trazado_101457" data-name="Trazado 101457" d="M908,1776.792v1.939a.662.662,0,0,1-.153.417.954.954,0,0,1-.58.318,1.043,1.043,0,0,1-.157.011H870.334a.861.861,0,0,1-.881-.635c0-.024-.007-.048-.008-.074s0-.025,0-.038v-1.939c0-.013,0-.025,0-.038s0-.049.008-.074a.861.861,0,0,1,.881-.635h36.779a1.013,1.013,0,0,1,.157.011.968.968,0,0,1,.163.039.887.887,0,0,1,.417.279A.662.662,0,0,1,908,1776.792Z" transform="translate(-869.443 -1776.045)" fill="#ffb93e"/>
            <path id="Trazado_101458" data-name="Trazado 101458" d="M889.943,1779.478h-19.7a.789.789,0,0,1-.764-.553.623.623,0,0,1-.022-.082c0-.024-.007-.048-.008-.074s0-.025,0-.038v-1.939c0-.013,0-.025,0-.038s0-.049.008-.074a.613.613,0,0,1,.022-.082.789.789,0,0,1,.764-.553h17.285A6.018,6.018,0,0,0,889.943,1779.478Z" transform="translate(-869.443 -1776.045)" fill="#ffa412"/>
            <g id="Grupo_87650" data-name="Grupo 87650" transform="translate(13.514)">
              <rect id="Rectángulo_33984" data-name="Rectángulo 33984" width="0.418" height="3.433" transform="translate(20.152 0)" fill="#ffa412"/>
              <rect id="Rectángulo_33985" data-name="Rectángulo 33985" width="0.418" height="3.433" transform="translate(18.737 0)" fill="#ffa412"/>
              <rect id="Rectángulo_33986" data-name="Rectángulo 33986" width="0.418" height="3.433" transform="translate(17.04 0)" fill="#ffa412"/>
              <rect id="Rectángulo_33987" data-name="Rectángulo 33987" width="0.418" height="3.433" transform="translate(14.44 0)" fill="#ffa412"/>
              <rect id="Rectángulo_33988" data-name="Rectángulo 33988" width="0.418" height="3.433" transform="translate(11.689 0)" fill="#ffa412"/>
              <rect id="Rectángulo_33989" data-name="Rectángulo 33989" width="0.418" height="3.433" transform="translate(7.473 0)" fill="#ffa412"/>
              <rect id="Rectángulo_33990" data-name="Rectángulo 33990" width="0.418" height="3.433" transform="translate(3.525 0)" fill="#ffa412"/>
              <rect id="Rectángulo_33991" data-name="Rectángulo 33991" width="0.418" height="3.433" transform="translate(0 0)" fill="#ffa412"/>
              <rect id="Rectángulo_33992" data-name="Rectángulo 33992" width="0.418" height="3.433" transform="translate(21.499 0)" fill="#ffa412"/>
              <rect id="Rectángulo_33993" data-name="Rectángulo 33993" width="0.418" height="3.433" transform="translate(22.389 0)" fill="#ffa412"/>
              <rect id="Rectángulo_33994" data-name="Rectángulo 33994" width="0.418" height="3.433" transform="translate(23.248 0)" fill="#ffa412"/>
              <path id="Trazado_101459" data-name="Trazado 101459" d="M1164.288,1776.055v3.41a1.053,1.053,0,0,1-.157.012h-.261v-3.434h.261A1.022,1.022,0,0,1,1164.288,1776.055Z" transform="translate(-1139.975 -1776.043)" fill="#ffa412"/>
              <path id="Trazado_101460" data-name="Trazado 101460" d="M1168.86,1776.72v2.774a.887.887,0,0,1-.418.279v-3.333A.886.886,0,0,1,1168.86,1776.72Z" transform="translate(-1143.967 -1776.39)" fill="#ffa412"/>
            </g>
          </g>
          <g id="Grupo_87653" data-name="Grupo 87653" transform="translate(0 30.613)">
            <path id="Trazado_101461" data-name="Trazado 101461" d="M877.057,1749.764v1.938a.666.666,0,0,1-.152.418.843.843,0,0,1-.084.089.922.922,0,0,1-.334.191.907.907,0,0,1-.163.038,1,1,0,0,1-.156.013h-36.78a.862.862,0,0,1-.88-.637c0-.024-.007-.048-.008-.072s0-.025,0-.039v-1.938c0-.013,0-.027,0-.039s0-.048.008-.073a.862.862,0,0,1,.88-.636h36.78a.675.675,0,0,1,.07,0l.025,0h0a.163.163,0,0,1,.033,0l.023,0a.928.928,0,0,1,.163.038c.031.01.061.022.09.034h0l.057.027.032.019a.307.307,0,0,1,.03.018.686.686,0,0,1,.108.08c.011.009.021.019.031.029l.018.017.009.01.008.008a.358.358,0,0,1,.033.038A.664.664,0,0,1,877.057,1749.764Z" transform="translate(-838.499 -1749.016)" fill="#ffb93e"/>
            <path id="Trazado_101462" data-name="Trazado 101462" d="M859,1752.45h-19.7a.788.788,0,0,1-.763-.555.633.633,0,0,1-.021-.082c0-.024-.007-.048-.008-.072s0-.025,0-.039v-1.938c0-.013,0-.027,0-.039s0-.048.008-.073a.629.629,0,0,1,.021-.082.788.788,0,0,1,.763-.555h17.285c.007.029.015.056.024.085A6.007,6.007,0,0,0,859,1752.45Z" transform="translate(-838.499 -1749.016)" fill="#ffa412"/>
            <g id="Grupo_87652" data-name="Grupo 87652" transform="translate(13.513 0)">
              <rect id="Rectángulo_33995" data-name="Rectángulo 33995" width="0.418" height="3.434" transform="translate(20.152 0)" fill="#ffa412"/>
              <rect id="Rectángulo_33996" data-name="Rectángulo 33996" width="0.418" height="3.434" transform="translate(18.737 0)" fill="#ffa412"/>
              <rect id="Rectángulo_33997" data-name="Rectángulo 33997" width="0.418" height="3.434" transform="translate(17.04 0)" fill="#ffa412"/>
              <rect id="Rectángulo_33998" data-name="Rectángulo 33998" width="0.418" height="3.434" transform="translate(14.44 0)" fill="#ffa412"/>
              <rect id="Rectángulo_33999" data-name="Rectángulo 33999" width="0.418" height="3.434" transform="translate(11.689 0)" fill="#ffa412"/>
              <rect id="Rectángulo_34000" data-name="Rectángulo 34000" width="0.418" height="3.434" transform="translate(7.473 0)" fill="#ffa412"/>
              <rect id="Rectángulo_34001" data-name="Rectángulo 34001" width="0.418" height="3.434" transform="translate(3.525 0)" fill="#ffa412"/>
              <rect id="Rectángulo_34002" data-name="Rectángulo 34002" width="0.418" height="3.434" transform="translate(0 0)" fill="#ffa412"/>
              <rect id="Rectángulo_34003" data-name="Rectángulo 34003" width="0.418" height="3.434" transform="translate(21.499 0)" fill="#ffa412"/>
              <rect id="Rectángulo_34004" data-name="Rectángulo 34004" width="0.418" height="3.434" transform="translate(22.389 0)" fill="#ffa412"/>
              <rect id="Rectángulo_34005" data-name="Rectángulo 34005" width="0.418" height="3.434" transform="translate(23.248 0)" fill="#ffa412"/>
              <path id="Trazado_101463" data-name="Trazado 101463" d="M1133.338,1749.03v3.41a1.038,1.038,0,0,1-.157.012h-.261v-3.434h.261A1.071,1.071,0,0,1,1133.338,1749.03Z" transform="translate(-1109.026 -1749.018)" fill="#ffa412"/>
              <path id="Trazado_101464" data-name="Trazado 101464" d="M1137.91,1749.693v2.774a.885.885,0,0,1-.418.28v-3.333A.888.888,0,0,1,1137.91,1749.693Z" transform="translate(-1113.016 -1749.364)" fill="#ffa412"/>
            </g>
          </g>
          <g id="Grupo_87655" data-name="Grupo 87655" transform="translate(1.9 27.264)">
            <path id="Trazado_101465" data-name="Trazado 101465" d="M892.014,1723.411v1.939a.661.661,0,0,1-.153.417.881.881,0,0,1-.417.279,1.058,1.058,0,0,1-.163.039,1.154,1.154,0,0,1-.156.011h-36.78a1.025,1.025,0,0,1-.41-.085.776.776,0,0,1-.469-.542c0-.016,0-.032-.007-.048a.316.316,0,0,1,0-.033c0-.013,0-.025,0-.038v-1.939c0-.013,0-.025,0-.038a.5.5,0,0,1,.008-.072.86.86,0,0,1,.88-.636h36.78a1,1,0,0,1,.156.011.943.943,0,0,1,.163.038.891.891,0,0,1,.417.281A.66.66,0,0,1,892.014,1723.411Z" transform="translate(-853.456 -1722.664)" fill="#ffb93e"/>
            <path id="Trazado_101466" data-name="Trazado 101466" d="M873.954,1726.1h-19.7a.824.824,0,0,1-.365-.085.753.753,0,0,1-.418-.542c0-.016,0-.032-.007-.048a.316.316,0,0,1,0-.033c0-.013,0-.025,0-.038v-1.939c0-.013,0-.025,0-.038a.5.5,0,0,1,.008-.072.64.64,0,0,1,.021-.08.787.787,0,0,1,.764-.557h17.285a6.027,6.027,0,0,0,2.3,3.348C873.873,1726.041,873.913,1726.07,873.954,1726.1Z" transform="translate(-853.456 -1722.664)" fill="#ffa412"/>
            <g id="Grupo_87654" data-name="Grupo 87654" transform="translate(13.513)">
              <rect id="Rectángulo_34006" data-name="Rectángulo 34006" width="0.418" height="3.434" transform="translate(20.152 0)" fill="#ffa412"/>
              <rect id="Rectángulo_34007" data-name="Rectángulo 34007" width="0.418" height="3.434" transform="translate(18.737 0)" fill="#ffa412"/>
              <rect id="Rectángulo_34008" data-name="Rectángulo 34008" width="0.418" height="3.434" transform="translate(17.04 0)" fill="#ffa412"/>
              <rect id="Rectángulo_34009" data-name="Rectángulo 34009" width="0.418" height="3.434" transform="translate(14.44 0)" fill="#ffa412"/>
              <rect id="Rectángulo_34010" data-name="Rectángulo 34010" width="0.418" height="3.434" transform="translate(11.689 0)" fill="#ffa412"/>
              <rect id="Rectángulo_34011" data-name="Rectángulo 34011" width="0.418" height="3.434" transform="translate(7.473 0)" fill="#ffa412"/>
              <rect id="Rectángulo_34012" data-name="Rectángulo 34012" width="0.418" height="3.434" transform="translate(3.525 0)" fill="#ffa412"/>
              <rect id="Rectángulo_34013" data-name="Rectángulo 34013" width="0.418" height="3.434" transform="translate(0 0)" fill="#ffa412"/>
              <rect id="Rectángulo_34014" data-name="Rectángulo 34014" width="0.418" height="3.434" transform="translate(21.499 0)" fill="#ffa412"/>
              <rect id="Rectángulo_34015" data-name="Rectángulo 34015" width="0.418" height="3.434" transform="translate(22.389 0)" fill="#ffa412"/>
              <rect id="Rectángulo_34016" data-name="Rectángulo 34016" width="0.418" height="3.434" transform="translate(23.248 0)" fill="#ffa412"/>
              <path id="Trazado_101467" data-name="Trazado 101467" d="M1148.3,1722.672v3.409a1.022,1.022,0,0,1-.157.012h-.261v-3.434h.261A.992.992,0,0,1,1148.3,1722.672Z" transform="translate(-1123.982 -1722.66)" fill="#ffa412"/>
              <path id="Trazado_101468" data-name="Trazado 101468" d="M1152.867,1723.337v2.773a.885.885,0,0,1-.418.28v-3.333A.886.886,0,0,1,1152.867,1723.337Z" transform="translate(-1127.974 -1723.007)" fill="#ffa412"/>
            </g>
          </g>
          <g id="Grupo_87657" data-name="Grupo 87657" transform="translate(2.782 23.83)">
            <path id="Trazado_101469" data-name="Trazado 101469" d="M898.951,1696.383v1.938a.66.66,0,0,1-.153.417c-.013.016-.026.031-.04.046a.862.862,0,0,1-.254.185,1.1,1.1,0,0,1-.123.05.981.981,0,0,1-.163.038l-.077.009c-.026,0-.054,0-.08,0H861.281a.862.862,0,0,1-.881-.636c0-.024-.007-.048-.008-.072v-2.016a.82.82,0,0,1,.784-.7,1,1,0,0,1,.106-.006H898.06c.026,0,.054,0,.08,0s.052,0,.077.009a.958.958,0,0,1,.163.038.888.888,0,0,1,.417.279A.662.662,0,0,1,898.951,1696.383Z" transform="translate(-860.392 -1695.635)" fill="#ffb93e"/>
            <path id="Trazado_101470" data-name="Trazado 101470" d="M880.89,1699.069h-19.7a.79.79,0,0,1-.764-.554.617.617,0,0,1-.021-.082c0-.024-.007-.048-.008-.072v-2.016a.773.773,0,0,1,.7-.7.8.8,0,0,1,.094-.006h17.285s0,0,0,.006A6.022,6.022,0,0,0,880.89,1699.069Z" transform="translate(-860.392 -1695.635)" fill="#ffa412"/>
            <g id="Grupo_87656" data-name="Grupo 87656" transform="translate(13.513 0)">
              <rect id="Rectángulo_34017" data-name="Rectángulo 34017" width="0.418" height="3.433" transform="translate(20.152 0)" fill="#ffa412"/>
              <rect id="Rectángulo_34018" data-name="Rectángulo 34018" width="0.418" height="3.433" transform="translate(18.737 0)" fill="#ffa412"/>
              <rect id="Rectángulo_34019" data-name="Rectángulo 34019" width="0.418" height="3.433" transform="translate(17.04 0)" fill="#ffa412"/>
              <rect id="Rectángulo_34020" data-name="Rectángulo 34020" width="0.418" height="3.433" transform="translate(14.44 0)" fill="#ffa412"/>
              <rect id="Rectángulo_34021" data-name="Rectángulo 34021" width="0.418" height="3.433" transform="translate(11.689 0)" fill="#ffa412"/>
              <rect id="Rectángulo_34022" data-name="Rectángulo 34022" width="0.418" height="3.433" transform="translate(7.473 0)" fill="#ffa412"/>
              <rect id="Rectángulo_34023" data-name="Rectángulo 34023" width="0.418" height="3.433" transform="translate(3.525 0)" fill="#ffa412"/>
              <rect id="Rectángulo_34024" data-name="Rectángulo 34024" width="0.418" height="3.433" transform="translate(0 0)" fill="#ffa412"/>
              <rect id="Rectángulo_34025" data-name="Rectángulo 34025" width="0.418" height="3.433" transform="translate(21.499 0)" fill="#ffa412"/>
              <rect id="Rectángulo_34026" data-name="Rectángulo 34026" width="0.418" height="3.433" transform="translate(22.389 0)" fill="#ffa412"/>
              <rect id="Rectángulo_34027" data-name="Rectángulo 34027" width="0.418" height="3.433" transform="translate(23.248 0)" fill="#ffa412"/>
              <path id="Trazado_101471" data-name="Trazado 101471" d="M1155.228,1695.648v3.41a1.019,1.019,0,0,1-.157.012h-.261v-3.434h.261A1.035,1.035,0,0,1,1155.228,1695.648Z" transform="translate(-1130.916 -1695.636)" fill="#ffa412"/>
              <path id="Trazado_101472" data-name="Trazado 101472" d="M1159.8,1696.312v2.773a.885.885,0,0,1-.418.28v-3.333A.887.887,0,0,1,1159.8,1696.312Z" transform="translate(-1134.907 -1695.982)" fill="#ffa412"/>
            </g>
          </g>
          <g id="Grupo_87659" data-name="Grupo 87659" transform="translate(0.077 20.402)">
            <path id="Trazado_101473" data-name="Trazado 101473" d="M877.663,1669.4v1.938a.658.658,0,0,1-.152.417.879.879,0,0,1-.418.28.947.947,0,0,1-.162.038.415.415,0,0,1-.052.007h-.007l-.028,0-.024,0H840a.841.841,0,0,1-.889-.709c0-.013,0-.025,0-.039V1669.4c0-.013,0-.026,0-.039a.285.285,0,0,1,0-.031.805.805,0,0,1,.668-.654l.026-.006a1.058,1.058,0,0,1,.193-.018h36.779c.028,0,.053,0,.079,0l.033,0h0l.041.006a1,1,0,0,1,.162.038.879.879,0,0,1,.418.281A.657.657,0,0,1,877.663,1669.4Z" transform="translate(-839.105 -1668.651)" fill="#ffb93e"/>
            <path id="Trazado_101474" data-name="Trazado 101474" d="M859.6,1672.085H839.9a.778.778,0,0,1-.794-.709c0-.013,0-.025,0-.039V1669.4c0-.013,0-.026,0-.039a.285.285,0,0,1,0-.031.766.766,0,0,1,.617-.658.161.161,0,0,1,.033-.007.817.817,0,0,1,.141-.013h17.284c0,.009,0,.016.007.025a6.018,6.018,0,0,0,2.4,3.4Z" transform="translate(-839.105 -1668.651)" fill="#ffa412"/>
            <g id="Grupo_87658" data-name="Grupo 87658" transform="translate(13.513 0)">
              <rect id="Rectángulo_34028" data-name="Rectángulo 34028" width="0.418" height="3.434" transform="translate(20.152 0)" fill="#ffa412"/>
              <rect id="Rectángulo_34029" data-name="Rectángulo 34029" width="0.418" height="3.434" transform="translate(18.737 0)" fill="#ffa412"/>
              <rect id="Rectángulo_34030" data-name="Rectángulo 34030" width="0.418" height="3.434" transform="translate(17.04 0)" fill="#ffa412"/>
              <rect id="Rectángulo_34031" data-name="Rectángulo 34031" width="0.418" height="3.434" transform="translate(14.44 0)" fill="#ffa412"/>
              <rect id="Rectángulo_34032" data-name="Rectángulo 34032" width="0.418" height="3.434" transform="translate(11.689 0)" fill="#ffa412"/>
              <rect id="Rectángulo_34033" data-name="Rectángulo 34033" width="0.418" height="3.434" transform="translate(7.473 0)" fill="#ffa412"/>
              <rect id="Rectángulo_34034" data-name="Rectángulo 34034" width="0.418" height="3.434" transform="translate(3.525 0)" fill="#ffa412"/>
              <rect id="Rectángulo_34035" data-name="Rectángulo 34035" width="0.418" height="3.434" transform="translate(0 0)" fill="#ffa412"/>
              <rect id="Rectángulo_34036" data-name="Rectángulo 34036" width="0.418" height="3.434" transform="translate(21.499 0)" fill="#ffa412"/>
              <rect id="Rectángulo_34037" data-name="Rectángulo 34037" width="0.418" height="3.434" transform="translate(22.389 0)" fill="#ffa412"/>
              <rect id="Rectángulo_34038" data-name="Rectángulo 34038" width="0.418" height="3.434" transform="translate(23.248 0)" fill="#ffa412"/>
              <path id="Trazado_101475" data-name="Trazado 101475" d="M1133.946,1668.665v3.41a1.022,1.022,0,0,1-.157.012h-.261v-3.434h.261A1.007,1.007,0,0,1,1133.946,1668.665Z" transform="translate(-1109.633 -1668.653)" fill="#ffa412"/>
              <path id="Trazado_101476" data-name="Trazado 101476" d="M1138.519,1669.331v2.773a.887.887,0,0,1-.417.28v-3.333A.885.885,0,0,1,1138.519,1669.331Z" transform="translate(-1113.625 -1669)" fill="#ffa412"/>
            </g>
          </g>
          <g id="Grupo_87661" data-name="Grupo 87661" transform="translate(0 16.993)">
            <path id="Trazado_101477" data-name="Trazado 101477" d="M877.057,1642.569v1.938a.663.663,0,0,1-.152.417,1.008,1.008,0,0,1-.084.089.918.918,0,0,1-.334.191.935.935,0,0,1-.126.032h0l-.033.006a.982.982,0,0,1-.156.013h-36.78a.98.98,0,0,1-.115-.007l-.044-.006a.827.827,0,0,1-.723-.632.6.6,0,0,1-.007-.064c0-.014,0-.026,0-.039v-1.938c0-.014,0-.026,0-.039s0-.048.008-.072a.862.862,0,0,1,.88-.637h36.78l.07,0h.03l.033,0a.074.074,0,0,1,.023,0,.928.928,0,0,1,.163.038c.031.01.061.022.09.034h0a.893.893,0,0,1,.294.207c.011.013.023.025.033.038A.666.666,0,0,1,877.057,1642.569Z" transform="translate(-838.499 -1641.821)" fill="#ffb93e"/>
            <path id="Trazado_101478" data-name="Trazado 101478" d="M859,1645.255h-19.75l-.051,0a.777.777,0,0,1-.689-.639.6.6,0,0,1-.007-.064c0-.014,0-.026,0-.039v-1.938c0-.014,0-.026,0-.039s0-.048.008-.072a.626.626,0,0,1,.021-.082.788.788,0,0,1,.763-.555h17.285c.007.029.015.056.024.085a6.007,6.007,0,0,0,2.36,3.324C858.973,1645.239,858.986,1645.246,859,1645.255Z" transform="translate(-838.499 -1641.821)" fill="#ffa412"/>
            <g id="Grupo_87660" data-name="Grupo 87660" transform="translate(13.513 0)">
              <rect id="Rectángulo_34039" data-name="Rectángulo 34039" width="0.418" height="3.434" transform="translate(20.152 0)" fill="#ffa412"/>
              <rect id="Rectángulo_34040" data-name="Rectángulo 34040" width="0.418" height="3.434" transform="translate(18.737 0)" fill="#ffa412"/>
              <rect id="Rectángulo_34041" data-name="Rectángulo 34041" width="0.418" height="3.434" transform="translate(17.04 0)" fill="#ffa412"/>
              <rect id="Rectángulo_34042" data-name="Rectángulo 34042" width="0.418" height="3.434" transform="translate(14.44 0)" fill="#ffa412"/>
              <rect id="Rectángulo_34043" data-name="Rectángulo 34043" width="0.418" height="3.434" transform="translate(11.689 0)" fill="#ffa412"/>
              <rect id="Rectángulo_34044" data-name="Rectángulo 34044" width="0.418" height="3.434" transform="translate(7.473 0)" fill="#ffa412"/>
              <rect id="Rectángulo_34045" data-name="Rectángulo 34045" width="0.418" height="3.434" transform="translate(3.525 0)" fill="#ffa412"/>
              <rect id="Rectángulo_34046" data-name="Rectángulo 34046" width="0.418" height="3.434" transform="translate(0 0)" fill="#ffa412"/>
              <rect id="Rectángulo_34047" data-name="Rectángulo 34047" width="0.418" height="3.434" transform="translate(21.499 0)" fill="#ffa412"/>
              <rect id="Rectángulo_34048" data-name="Rectángulo 34048" width="0.418" height="3.434" transform="translate(22.389 0)" fill="#ffa412"/>
              <rect id="Rectángulo_34049" data-name="Rectángulo 34049" width="0.418" height="3.434" transform="translate(23.248 0)" fill="#ffa412"/>
              <path id="Trazado_101479" data-name="Trazado 101479" d="M1133.338,1641.834v3.41a1.007,1.007,0,0,1-.157.012h-.261v-3.434h.261A1.023,1.023,0,0,1,1133.338,1641.834Z" transform="translate(-1109.026 -1641.822)" fill="#ffa412"/>
              <path id="Trazado_101480" data-name="Trazado 101480" d="M1137.91,1642.5v2.773a.887.887,0,0,1-.418.28v-3.333A.885.885,0,0,1,1137.91,1642.5Z" transform="translate(-1113.016 -1642.169)" fill="#ffa412"/>
            </g>
          </g>
          <g id="Grupo_87663" data-name="Grupo 87663" transform="translate(1.9 13.644)">
            <path id="Trazado_101481" data-name="Trazado 101481" d="M892.014,1616.209v1.938a.662.662,0,0,1-.153.418.883.883,0,0,1-.417.279.954.954,0,0,1-.163.038,1,1,0,0,1-.156.012h-36.78a1.021,1.021,0,0,1-.41-.085.776.776,0,0,1-.469-.542c0-.016,0-.032-.007-.048s0-.022,0-.033,0-.025,0-.039v-1.938c0-.013,0-.026,0-.039a.517.517,0,0,1,.008-.072.861.861,0,0,1,.88-.637h36.78a1.015,1.015,0,0,1,.156.013.943.943,0,0,1,.163.038.874.874,0,0,1,.417.28A.659.659,0,0,1,892.014,1616.209Z" transform="translate(-853.456 -1615.461)" fill="#ffb93e"/>
            <path id="Trazado_101482" data-name="Trazado 101482" d="M873.954,1618.9h-19.7a.821.821,0,0,1-.365-.085.753.753,0,0,1-.418-.542c0-.016,0-.032-.007-.048s0-.022,0-.033,0-.025,0-.039v-1.938c0-.013,0-.026,0-.039a.517.517,0,0,1,.008-.072.631.631,0,0,1,.021-.08.788.788,0,0,1,.764-.557h17.285a6.026,6.026,0,0,0,2.3,3.349C873.873,1618.839,873.913,1618.867,873.954,1618.9Z" transform="translate(-853.456 -1615.461)" fill="#ffa412"/>
            <g id="Grupo_87662" data-name="Grupo 87662" transform="translate(13.513 0)">
              <rect id="Rectángulo_34050" data-name="Rectángulo 34050" width="0.418" height="3.434" transform="translate(20.152 0)" fill="#ffa412"/>
              <rect id="Rectángulo_34051" data-name="Rectángulo 34051" width="0.418" height="3.434" transform="translate(18.737 0)" fill="#ffa412"/>
              <rect id="Rectángulo_34052" data-name="Rectángulo 34052" width="0.418" height="3.434" transform="translate(17.04 0)" fill="#ffa412"/>
              <rect id="Rectángulo_34053" data-name="Rectángulo 34053" width="0.418" height="3.434" transform="translate(14.44 0)" fill="#ffa412"/>
              <rect id="Rectángulo_34054" data-name="Rectángulo 34054" width="0.418" height="3.434" transform="translate(11.689 0)" fill="#ffa412"/>
              <rect id="Rectángulo_34055" data-name="Rectángulo 34055" width="0.418" height="3.434" transform="translate(7.473 0)" fill="#ffa412"/>
              <rect id="Rectángulo_34056" data-name="Rectángulo 34056" width="0.418" height="3.434" transform="translate(3.525 0)" fill="#ffa412"/>
              <rect id="Rectángulo_34057" data-name="Rectángulo 34057" width="0.418" height="3.434" transform="translate(0 0)" fill="#ffa412"/>
              <rect id="Rectángulo_34058" data-name="Rectángulo 34058" width="0.418" height="3.434" transform="translate(21.499 0)" fill="#ffa412"/>
              <rect id="Rectángulo_34059" data-name="Rectángulo 34059" width="0.418" height="3.434" transform="translate(22.389 0)" fill="#ffa412"/>
              <rect id="Rectángulo_34060" data-name="Rectángulo 34060" width="0.418" height="3.434" transform="translate(23.248 0)" fill="#ffa412"/>
              <path id="Trazado_101483" data-name="Trazado 101483" d="M1148.3,1615.477v3.409a1.037,1.037,0,0,1-.157.012h-.261v-3.434h.261A1.007,1.007,0,0,1,1148.3,1615.477Z" transform="translate(-1123.982 -1615.465)" fill="#ffa412"/>
              <path id="Trazado_101484" data-name="Trazado 101484" d="M1152.867,1616.141v2.773a.887.887,0,0,1-.418.28v-3.333A.885.885,0,0,1,1152.867,1616.141Z" transform="translate(-1127.974 -1615.811)" fill="#ffa412"/>
            </g>
          </g>
          <g id="Grupo_87665" data-name="Grupo 87665" transform="translate(4.906 10.211)">
            <path id="Trazado_101485" data-name="Trazado 101485" d="M915.67,1589.188v1.94a.664.664,0,0,1-.152.416h0c-.013.016-.026.031-.04.046a.851.851,0,0,1-.2.154.94.94,0,0,1-.117.056,0,0,0,0,0,0,0c-.02.008-.04.016-.062.023a.914.914,0,0,1-.163.038,1.012,1.012,0,0,1-.156.012H878a.861.861,0,0,1-.88-.635.512.512,0,0,1-.008-.073c0-.013,0-.025,0-.038v-1.94c0-.012,0-.025,0-.038a.819.819,0,0,1,.784-.7.8.8,0,0,1,.1-.006h36.78a1.191,1.191,0,0,1,.156.011,1.034,1.034,0,0,1,.163.039.9.9,0,0,1,.377.233c.014.015.028.03.04.046h0A.664.664,0,0,1,915.67,1589.188Z" transform="translate(-877.112 -1588.441)" fill="#ffb93e"/>
            <path id="Trazado_101486" data-name="Trazado 101486" d="M897.61,1591.874h-19.7a.787.787,0,0,1-.764-.556.628.628,0,0,1-.021-.08.512.512,0,0,1-.008-.073c0-.013,0-.025,0-.038v-1.94c0-.012,0-.025,0-.038a.771.771,0,0,1,.7-.7.649.649,0,0,1,.094-.006H895.19a.044.044,0,0,1,0,.006A6.016,6.016,0,0,0,897.61,1591.874Z" transform="translate(-877.112 -1588.441)" fill="#ffa412"/>
            <g id="Grupo_87664" data-name="Grupo 87664" transform="translate(13.513)">
              <rect id="Rectángulo_34061" data-name="Rectángulo 34061" width="0.418" height="3.433" transform="translate(20.152 0)" fill="#ffa412"/>
              <rect id="Rectángulo_34062" data-name="Rectángulo 34062" width="0.418" height="3.433" transform="translate(18.737 0)" fill="#ffa412"/>
              <rect id="Rectángulo_34063" data-name="Rectángulo 34063" width="0.418" height="3.433" transform="translate(17.04 0)" fill="#ffa412"/>
              <rect id="Rectángulo_34064" data-name="Rectángulo 34064" width="0.418" height="3.433" transform="translate(14.44 0)" fill="#ffa412"/>
              <rect id="Rectángulo_34065" data-name="Rectángulo 34065" width="0.418" height="3.433" transform="translate(11.689 0)" fill="#ffa412"/>
              <rect id="Rectángulo_34066" data-name="Rectángulo 34066" width="0.418" height="3.433" transform="translate(7.473 0)" fill="#ffa412"/>
              <rect id="Rectángulo_34067" data-name="Rectángulo 34067" width="0.418" height="3.433" transform="translate(3.525 0)" fill="#ffa412"/>
              <rect id="Rectángulo_34068" data-name="Rectángulo 34068" width="0.418" height="3.433" transform="translate(0 0)" fill="#ffa412"/>
              <rect id="Rectángulo_34069" data-name="Rectángulo 34069" width="0.418" height="3.433" transform="translate(21.499 0)" fill="#ffa412"/>
              <rect id="Rectángulo_34070" data-name="Rectángulo 34070" width="0.418" height="3.433" transform="translate(22.389 0)" fill="#ffa412"/>
              <rect id="Rectángulo_34071" data-name="Rectángulo 34071" width="0.418" height="3.433" transform="translate(23.248 0)" fill="#ffa412"/>
              <path id="Trazado_101487" data-name="Trazado 101487" d="M1171.952,1588.452v3.41a1.039,1.039,0,0,1-.157.012h-.261v-3.434h.261A1.039,1.039,0,0,1,1171.952,1588.452Z" transform="translate(-1147.639 -1588.44)" fill="#ffa412"/>
              <path id="Trazado_101488" data-name="Trazado 101488" d="M1176.524,1589.117v2.773a.885.885,0,0,1-.418.28v-3.333A.886.886,0,0,1,1176.524,1589.117Z" transform="translate(-1151.63 -1588.787)" fill="#ffa412"/>
            </g>
          </g>
          <g id="Grupo_87667" data-name="Grupo 87667" transform="translate(0.077 6.782)">
            <path id="Trazado_101489" data-name="Trazado 101489" d="M877.663,1562.205v1.938a.658.658,0,0,1-.152.417.877.877,0,0,1-.418.28.925.925,0,0,1-.162.038l-.052.007h-.007a.331.331,0,0,1-.034,0H840a.935.935,0,0,1-.757-.356.657.657,0,0,1-.132-.353c0-.014,0-.026,0-.039v-1.938c0-.014,0-.026,0-.039a.789.789,0,0,1,.631-.675,1,1,0,0,1,.259-.033h36.826l.023,0a.729.729,0,0,1,.087.009.97.97,0,0,1,.162.038.521.521,0,0,1,.076.029h0a.863.863,0,0,1,.257.162l0,0,.01.009a.719.719,0,0,1,.07.075A.66.66,0,0,1,877.663,1562.205Z" transform="translate(-839.105 -1561.457)" fill="#ffb93e"/>
            <path id="Trazado_101490" data-name="Trazado 101490" d="M859.6,1564.891H839.9a.808.808,0,0,1-.664-.339.7.7,0,0,1-.13-.37c0-.014,0-.026,0-.039v-1.938c0-.014,0-.026,0-.039a.766.766,0,0,1,.633-.693.807.807,0,0,1,.161-.016h17.284c.007.026.015.053.023.079a6,6,0,0,0,2.389,3.349Z" transform="translate(-839.105 -1561.457)" fill="#ffa412"/>
            <g id="Grupo_87666" data-name="Grupo 87666" transform="translate(13.513 0)">
              <rect id="Rectángulo_34072" data-name="Rectángulo 34072" width="0.418" height="3.434" transform="translate(20.152 0)" fill="#ffa412"/>
              <rect id="Rectángulo_34073" data-name="Rectángulo 34073" width="0.418" height="3.434" transform="translate(18.737 0)" fill="#ffa412"/>
              <rect id="Rectángulo_34074" data-name="Rectángulo 34074" width="0.418" height="3.434" transform="translate(17.04 0)" fill="#ffa412"/>
              <rect id="Rectángulo_34075" data-name="Rectángulo 34075" width="0.418" height="3.434" transform="translate(14.44 0)" fill="#ffa412"/>
              <rect id="Rectángulo_34076" data-name="Rectángulo 34076" width="0.418" height="3.434" transform="translate(11.689 0)" fill="#ffa412"/>
              <rect id="Rectángulo_34077" data-name="Rectángulo 34077" width="0.418" height="3.434" transform="translate(7.473 0)" fill="#ffa412"/>
              <rect id="Rectángulo_34078" data-name="Rectángulo 34078" width="0.418" height="3.434" transform="translate(3.525 0)" fill="#ffa412"/>
              <rect id="Rectángulo_34079" data-name="Rectángulo 34079" width="0.418" height="3.434" transform="translate(0 0)" fill="#ffa412"/>
              <rect id="Rectángulo_34080" data-name="Rectángulo 34080" width="0.418" height="3.434" transform="translate(21.499 0)" fill="#ffa412"/>
              <rect id="Rectángulo_34081" data-name="Rectángulo 34081" width="0.418" height="3.434" transform="translate(22.389 0)" fill="#ffa412"/>
              <rect id="Rectángulo_34082" data-name="Rectángulo 34082" width="0.418" height="3.434" transform="translate(23.248 0)" fill="#ffa412"/>
              <path id="Trazado_101491" data-name="Trazado 101491" d="M1133.946,1561.47v3.41a1.022,1.022,0,0,1-.157.012h-.261v-3.434h.261A1.022,1.022,0,0,1,1133.946,1561.47Z" transform="translate(-1109.633 -1561.458)" fill="#ffa412"/>
              <path id="Trazado_101492" data-name="Trazado 101492" d="M1138.519,1562.135v2.773a.887.887,0,0,1-.417.28v-3.333A.885.885,0,0,1,1138.519,1562.135Z" transform="translate(-1113.625 -1561.805)" fill="#ffa412"/>
            </g>
          </g>
          <g id="Grupo_87669" data-name="Grupo 87669" transform="translate(2.781 3.428)">
            <path id="Trazado_101493" data-name="Trazado 101493" d="M898.947,1535.806v1.939a.659.659,0,0,1-.152.417.885.885,0,0,1-.418.28.943.943,0,0,1-.163.038,1.023,1.023,0,0,1-.157.012H861.278a1.018,1.018,0,0,1-.4-.079.765.765,0,0,1-.489-.6c0-.01,0-.02,0-.031s0-.026,0-.038v-1.939c0-.013,0-.026,0-.038a.82.82,0,0,1,.784-.7.932.932,0,0,1,.105-.005h36.779a1.055,1.055,0,0,1,.157.012.978.978,0,0,1,.163.038.887.887,0,0,1,.418.28A.661.661,0,0,1,898.947,1535.806Z" transform="translate(-860.388 -1535.059)" fill="#ffb93e"/>
            <path id="Trazado_101494" data-name="Trazado 101494" d="M880.886,1538.493h-19.7a.825.825,0,0,1-.355-.079.752.752,0,0,1-.436-.6c0-.01,0-.02,0-.031s0-.026,0-.038v-1.939c0-.013,0-.026,0-.038a.771.771,0,0,1,.7-.7.742.742,0,0,1,.094-.005h17.284l0,.005a6.023,6.023,0,0,0,2.305,3.349C880.81,1538.44,880.848,1538.467,880.886,1538.493Z" transform="translate(-860.388 -1535.059)" fill="#ffa412"/>
            <g id="Grupo_87668" data-name="Grupo 87668" transform="translate(13.513)">
              <rect id="Rectángulo_34083" data-name="Rectángulo 34083" width="0.418" height="3.433" transform="translate(20.152 0)" fill="#ffa412"/>
              <rect id="Rectángulo_34084" data-name="Rectángulo 34084" width="0.418" height="3.433" transform="translate(18.737 0)" fill="#ffa412"/>
              <rect id="Rectángulo_34085" data-name="Rectángulo 34085" width="0.418" height="3.433" transform="translate(17.04 0)" fill="#ffa412"/>
              <rect id="Rectángulo_34086" data-name="Rectángulo 34086" width="0.418" height="3.433" transform="translate(14.44 0)" fill="#ffa412"/>
              <rect id="Rectángulo_34087" data-name="Rectángulo 34087" width="0.418" height="3.433" transform="translate(11.689 0)" fill="#ffa412"/>
              <rect id="Rectángulo_34088" data-name="Rectángulo 34088" width="0.418" height="3.433" transform="translate(7.473 0)" fill="#ffa412"/>
              <rect id="Rectángulo_34089" data-name="Rectángulo 34089" width="0.418" height="3.433" transform="translate(3.525 0)" fill="#ffa412"/>
              <rect id="Rectángulo_34090" data-name="Rectángulo 34090" width="0.418" height="3.433" transform="translate(0 0)" fill="#ffa412"/>
              <rect id="Rectángulo_34091" data-name="Rectángulo 34091" width="0.418" height="3.433" transform="translate(21.499 0)" fill="#ffa412"/>
              <rect id="Rectángulo_34092" data-name="Rectángulo 34092" width="0.418" height="3.433" transform="translate(22.389 0)" fill="#ffa412"/>
              <rect id="Rectángulo_34093" data-name="Rectángulo 34093" width="0.418" height="3.433" transform="translate(23.248 0)" fill="#ffa412"/>
              <path id="Trazado_101495" data-name="Trazado 101495" d="M1155.228,1535.07v3.41a1.035,1.035,0,0,1-.157.012h-.261v-3.434h.261A1.035,1.035,0,0,1,1155.228,1535.07Z" transform="translate(-1130.916 -1535.058)" fill="#ffa412"/>
              <path id="Trazado_101496" data-name="Trazado 101496" d="M1159.8,1535.734v2.773a.885.885,0,0,1-.418.28v-3.333A.886.886,0,0,1,1159.8,1535.734Z" transform="translate(-1134.907 -1535.404)" fill="#ffa412"/>
            </g>
          </g>
          <g id="Grupo_87671" data-name="Grupo 87671" transform="translate(3.932)">
            <path id="Trazado_101497" data-name="Trazado 101497" d="M908.006,1508.823v1.939a.66.66,0,0,1-.152.417.887.887,0,0,1-.418.28.963.963,0,0,1-.163.038l-.052.007-.029,0-.029,0H870.337a.84.84,0,0,1-.889-.709c0-.013,0-.026,0-.038v-1.939c0-.013,0-.026,0-.038a.84.84,0,0,1,.889-.709h36.779a1.037,1.037,0,0,1,.157.012.975.975,0,0,1,.163.038.884.884,0,0,1,.418.28A.66.66,0,0,1,908.006,1508.823Z" transform="translate(-869.447 -1508.076)" fill="#ffb93e"/>
            <path id="Trazado_101498" data-name="Trazado 101498" d="M889.946,1511.51h-19.7a.778.778,0,0,1-.793-.709c0-.013,0-.026,0-.038v-1.939c0-.013,0-.026,0-.038a.778.778,0,0,1,.793-.709h17.284a6.019,6.019,0,0,0,2.412,3.428Z" transform="translate(-869.447 -1508.076)" fill="#ffa412"/>
            <g id="Grupo_87670" data-name="Grupo 87670" transform="translate(13.513)">
              <rect id="Rectángulo_34094" data-name="Rectángulo 34094" width="0.418" height="3.433" transform="translate(20.152 0)" fill="#ffa412"/>
              <rect id="Rectángulo_34095" data-name="Rectángulo 34095" width="0.418" height="3.433" transform="translate(18.737 0)" fill="#ffa412"/>
              <rect id="Rectángulo_34096" data-name="Rectángulo 34096" width="0.418" height="3.433" transform="translate(17.041 0)" fill="#ffa412"/>
              <rect id="Rectángulo_34097" data-name="Rectángulo 34097" width="0.418" height="3.433" transform="translate(14.44 0)" fill="#ffa412"/>
              <rect id="Rectángulo_34098" data-name="Rectángulo 34098" width="0.418" height="3.433" transform="translate(11.689 0)" fill="#ffa412"/>
              <rect id="Rectángulo_34099" data-name="Rectángulo 34099" width="0.418" height="3.433" transform="translate(7.473 0)" fill="#ffa412"/>
              <rect id="Rectángulo_34100" data-name="Rectángulo 34100" width="0.418" height="3.433" transform="translate(3.525 0)" fill="#ffa412"/>
              <rect id="Rectángulo_34101" data-name="Rectángulo 34101" width="0.418" height="3.434" transform="translate(0 0)" fill="#ffa412"/>
              <rect id="Rectángulo_34102" data-name="Rectángulo 34102" width="0.418" height="3.433" transform="translate(21.499 0)" fill="#ffa412"/>
              <rect id="Rectángulo_34103" data-name="Rectángulo 34103" width="0.418" height="3.433" transform="translate(22.389 0)" fill="#ffa412"/>
              <rect id="Rectángulo_34104" data-name="Rectángulo 34104" width="0.418" height="3.433" transform="translate(23.248 0)" fill="#ffa412"/>
              <path id="Trazado_101499" data-name="Trazado 101499" d="M1164.289,1508.088v3.41a1.052,1.052,0,0,1-.157.012h-.261v-3.433h.261A1.021,1.021,0,0,1,1164.289,1508.088Z" transform="translate(-1139.976 -1508.076)" fill="#ffa412"/>
              <path id="Trazado_101500" data-name="Trazado 101500" d="M1168.861,1508.753v2.773a.885.885,0,0,1-.418.28v-3.333A.885.885,0,0,1,1168.861,1508.753Z" transform="translate(-1143.967 -1508.423)" fill="#ffa412"/>
            </g>
          </g>
        </g>
        <g id="Grupo_87675" data-name="Grupo 87675" transform="translate(0 0)">
          <path id="Trazado_101501" data-name="Trazado 101501" d="M855.487,1545.341c0,.009,0,.017,0,.025a16.461,16.461,0,0,1-.552,3.4.047.047,0,0,0,0,.006c-.043.161-.09.322-.139.481a16.821,16.821,0,0,1-1.212,2.947,17.068,17.068,0,0,1-2.311,3.348c-.024.029-.049.058-.074.085a17.724,17.724,0,0,1-4.041,3.349q-.489.3-1,.568c-.232.122-.465.237-.7.348-.224.13-.461.241-.684.378a9.557,9.557,0,0,1-2.337.962v-1.51c0-.013,0-.025,0-.038s0-.049.008-.074a.634.634,0,0,1,.022-.082.789.789,0,0,1,.764-.553h-3.933a.788.788,0,0,1-.763-.555.633.633,0,0,1-.021-.082c0-.024-.007-.048-.008-.073s0-.025,0-.039V1556.3c0-.013,0-.026,0-.039s0-.048.008-.073a.631.631,0,0,1,.021-.082.788.788,0,0,1,.763-.555h1.535a.753.753,0,0,1-.418-.542c0-.016,0-.032-.007-.048a.313.313,0,0,1,0-.033c0-.013,0-.025,0-.038v-1.939c0-.013,0-.025,0-.038a.525.525,0,0,1,.008-.073.638.638,0,0,1,.021-.08.787.787,0,0,1,.764-.557h.881a.79.79,0,0,1-.764-.554.636.636,0,0,1-.021-.082.723.723,0,0,1-.008-.072v-2.016a.773.773,0,0,1,.7-.7h-2.609a.778.778,0,0,1-.794-.709c0-.013,0-.026,0-.039v-1.938c0-.013,0-.026,0-.039a.294.294,0,0,1,0-.031.766.766,0,0,1,.617-.658.777.777,0,0,1-.689-.639.609.609,0,0,1-.007-.064c0-.014,0-.026,0-.039v-1.938c0-.014,0-.026,0-.039s0-.048.008-.072a.619.619,0,0,1,.021-.082.788.788,0,0,1,.763-.555h1.535a.754.754,0,0,1-.418-.542c0-.016,0-.032-.007-.048s0-.022,0-.033,0-.025,0-.039v-1.938c0-.013,0-.026,0-.039a.542.542,0,0,1,.008-.073.642.642,0,0,1,.021-.08.788.788,0,0,1,.764-.557H844.2a.787.787,0,0,1-.764-.556.622.622,0,0,1-.021-.08.5.5,0,0,1-.008-.073c0-.013,0-.025,0-.038V1535.9c0-.012,0-.025,0-.038a.771.771,0,0,1,.7-.7h-4.734a.808.808,0,0,1-.664-.339l0-.017.5-3.045,0-.017.71-4.344a18.958,18.958,0,0,1,2.437.491l.14.038.009,0q.7.2,1.378.442l.013,0a18.211,18.211,0,0,1,5.71,3.349c.03.025.06.052.089.079a17.219,17.219,0,0,1,2.394,2.579q.215.283.417.576c.045.064.09.129.132.194a.006.006,0,0,1,0,.006q.326.481.618.987a16.9,16.9,0,0,1,1.164,2.44,16.305,16.305,0,0,1,.892,3.349c.006.029.009.056.014.085A16.394,16.394,0,0,1,855.487,1545.341Z" transform="translate(-813.862 -1524.099)" fill="#e2810e" opacity="0.5"/>
          <circle id="Elipse_4811" data-name="Elipse 4811" cx="18.091" cy="18.091" r="18.091" transform="translate(0.007 2.872) rotate(-4.553)" fill="#e2810e"/>
          <path id="Trazado_101502" data-name="Trazado 101502" d="M672.1,1551.832q-.334.2-.68.394c-.078.043-.156.085-.234.126-.178.1-.357.186-.536.276a18.091,18.091,0,0,1-16.7-32.088q.348-.192.7-.366t.689-.325a18.063,18.063,0,0,1,5.43-1.46,18.094,18.094,0,0,1,11.327,33.443Z" transform="translate(-644.594 -1516.151)" fill="#ffb93e"/>
          <g id="Grupo_87673" data-name="Grupo 87673" transform="translate(1.98 4.212)">
            <path id="Trazado_101503" data-name="Trazado 101503" d="M676.422,1567.04a16.275,16.275,0,0,1-4.528-.646,16.11,16.11,0,1,1,4.528.646Zm-.05-31.987a15.771,15.771,0,1,0,13.839,8.156A15.676,15.676,0,0,0,676.372,1535.053Z" transform="translate(-660.182 -1534.615)" fill="#ffa412"/>
          </g>
          <g id="Grupo_87674" data-name="Grupo 87674" transform="translate(10.601 8.523)">
            <path id="Trazado_101504" data-name="Trazado 101504" d="M743.6,1582.016c-.036-.089-.073-.175-.112-.26a4.743,4.743,0,0,0-1.1-1.568,4.9,4.9,0,0,0-1.727-1.016,8.253,8.253,0,0,0-2.195-.412q-1.211-.075-2.636-.034a12.656,12.656,0,0,1-1.505-.03,3.772,3.772,0,0,1-1.059-.232,1.855,1.855,0,0,1-.707-.479,2.516,2.516,0,0,1-.449-.741,2.744,2.744,0,0,1-.2-.869,1.865,1.865,0,0,1,.128-.818,2,2,0,0,1,.5-.715,2.946,2.946,0,0,1,.923-.562,2.328,2.328,0,0,1,1.976.019,3.353,3.353,0,0,1,1.494,1.87l3.686-1.5a6.887,6.887,0,0,0-1.207-2,5.168,5.168,0,0,0-3.613-1.782,6.826,6.826,0,0,0-2.224.227l-1.044-2.57-2.04.828,1.029,2.535a7.649,7.649,0,0,0-1.873,1.333,5.722,5.722,0,0,0-1.18,1.646,4.586,4.586,0,0,0-.434,1.86,5.446,5.446,0,0,0,1.6,3.819,4.822,4.822,0,0,0,1.725,1.01,8.162,8.162,0,0,0,2.2.4,25.961,25.961,0,0,0,2.643,0,9.792,9.792,0,0,1,1.438.01,3.74,3.74,0,0,1,1.053.234,1.993,1.993,0,0,1,.738.5,2.716,2.716,0,0,1,.5.819,2.271,2.271,0,0,1,.176.874,1.863,1.863,0,0,1-.2.832,2.351,2.351,0,0,1-.585.735,3.542,3.542,0,0,1-.99.581,4.252,4.252,0,0,1-1.082.281,2.468,2.468,0,0,1-1.091-.109,2.537,2.537,0,0,1-1-.644,3.915,3.915,0,0,1-.806-1.308l-3.685,1.5a6.366,6.366,0,0,0,1.449,2.253,5.229,5.229,0,0,0,1.909,1.191,5.837,5.837,0,0,0,2.169.313,9.206,9.206,0,0,0,2.235-.369l.952,2.346,2.027-.823-.957-2.357a8.228,8.228,0,0,0,1.892-1.321,5.579,5.579,0,0,0,1.142-1.491c.022-.043.044-.086.065-.13a4.533,4.533,0,0,0,.444-1.85A4.978,4.978,0,0,0,743.6,1582.016Z" transform="translate(-728.033 -1568.545)" fill="#ffa412"/>
          </g>
        </g>
      </g>
      <g id="Grupo_87684" data-name="Grupo 87684" transform="translate(446.849 452.704)">
        <rect id="Rectángulo_34105" data-name="Rectángulo 34105" width="63.242" height="0.914" transform="translate(2.033 51.479)" fill="#ccd8ff"/>
        <rect id="Rectángulo_34106" data-name="Rectángulo 34106" width="64.539" height="0.914" transform="translate(1.385 52.393)" fill="#a9baff"/>
        <rect id="Rectángulo_34107" data-name="Rectángulo 34107" width="66.319" height="0.914" transform="translate(0.495 53.307)" fill="#8c9df4"/>
        <g id="Grupo_87683" data-name="Grupo 87683">
          <rect id="Rectángulo_34108" data-name="Rectángulo 34108" width="59.146" height="34.942" transform="translate(3.508 16.537)" fill="#8c9df4"/>
          <path id="Trazado_101505" data-name="Trazado 101505" d="M634.234,768.6H567.565l33.941-17.2Z" transform="translate(-567.565 -751.396)" fill="#ccd8ff"/>
          <path id="Trazado_101506" data-name="Trazado 101506" d="M647.213,787.2l46.43-.1L671.011,775.33Z" transform="translate(-637.094 -772.289)" fill="#6f84dd"/>
          <rect id="Rectángulo_34109" data-name="Rectángulo 34109" width="63.514" height="1.473" transform="translate(1.74 17.204)" fill="#8c9df4"/>
          <g id="Grupo_87677" data-name="Grupo 87677" transform="translate(6.456 16.537)">
            <rect id="Rectángulo_34110" data-name="Rectángulo 34110" width="6.256" height="2.258" fill="#ccd8ff"/>
            <rect id="Rectángulo_34111" data-name="Rectángulo 34111" width="3.449" height="32.685" transform="translate(1.404 2.258)" fill="#ccd8ff"/>
          </g>
          <g id="Grupo_87678" data-name="Grupo 87678" transform="translate(19.974 16.537)">
            <rect id="Rectángulo_34112" data-name="Rectángulo 34112" width="6.256" height="2.258" fill="#ccd8ff"/>
            <rect id="Rectángulo_34113" data-name="Rectángulo 34113" width="3.449" height="32.685" transform="translate(1.404 2.258)" fill="#ccd8ff"/>
          </g>
          <g id="Grupo_87679" data-name="Grupo 87679" transform="translate(41.225 16.537)">
            <rect id="Rectángulo_34114" data-name="Rectángulo 34114" width="6.256" height="2.258" fill="#ccd8ff"/>
            <rect id="Rectángulo_34115" data-name="Rectángulo 34115" width="3.449" height="32.685" transform="translate(1.404 2.258)" fill="#ccd8ff"/>
          </g>
          <g id="Grupo_87680" data-name="Grupo 87680" transform="translate(53.954 16.537)">
            <rect id="Rectángulo_34116" data-name="Rectángulo 34116" width="6.256" height="2.258" fill="#ccd8ff"/>
            <rect id="Rectángulo_34117" data-name="Rectángulo 34117" width="3.449" height="32.685" transform="translate(1.404 2.258)" fill="#ccd8ff"/>
          </g>
          <g id="Grupo_87681" data-name="Grupo 87681" transform="translate(31.857 5.595)">
            <path id="Trazado_101507" data-name="Trazado 101507" d="M821.115,800.344a.8.8,0,0,0-.04-.279.583.583,0,0,0-.142-.22,1.1,1.1,0,0,0-.258-.184,2.908,2.908,0,0,0-.388-.167,7.592,7.592,0,0,1-.715-.3,2.415,2.415,0,0,1-.549-.359,1.419,1.419,0,0,1-.351-.471,1.6,1.6,0,0,1,0-1.216,1.344,1.344,0,0,1,.33-.453,1.679,1.679,0,0,1,.508-.31,2.244,2.244,0,0,1,.659-.146l.012-.8.647.009-.012.815a2.009,2.009,0,0,1,.628.193,1.519,1.519,0,0,1,.773.9,2.025,2.025,0,0,1,.1.679l-1.168-.017a.984.984,0,0,0-.19-.677.683.683,0,0,0-.532-.231.865.865,0,0,0-.314.046.587.587,0,0,0-.218.136.549.549,0,0,0-.128.207.807.807,0,0,0-.044.259.736.736,0,0,0,.037.252.548.548,0,0,0,.136.211,1.1,1.1,0,0,0,.26.184,3.7,3.7,0,0,0,.4.181q.39.152.709.311a2.433,2.433,0,0,1,.547.363,1.369,1.369,0,0,1,.469,1.1,1.462,1.462,0,0,1-.124.591,1.331,1.331,0,0,1-.332.45,1.623,1.623,0,0,1-.512.3,2.418,2.418,0,0,1-.663.141l-.011.747-.643-.009.011-.743a2.713,2.713,0,0,1-.646-.156,1.715,1.715,0,0,1-.551-.333,1.539,1.539,0,0,1-.38-.541,1.874,1.874,0,0,1-.134-.776l1.168.017a1.153,1.153,0,0,0,.068.446.747.747,0,0,0,.2.288.726.726,0,0,0,.283.154,1.235,1.235,0,0,0,.325.048,1.035,1.035,0,0,0,.334-.044.693.693,0,0,0,.242-.132.553.553,0,0,0,.148-.2A.67.67,0,0,0,821.115,800.344Z" transform="translate(-818.298 -795.434)" fill="#ccd8ff"/>
          </g>
          <g id="Grupo_87682" data-name="Grupo 87682" transform="translate(14.317 24.866)">
            <path id="Rectángulo_34118" data-name="Rectángulo 34118" d="M4.42,0h0A4.164,4.164,0,0,1,8.584,4.164V13.4a0,0,0,0,1,0,0H0a0,0,0,0,1,0,0V4.42A4.42,4.42,0,0,1,4.42,0Z" transform="translate(14.456 13.209)" fill="#6f84dd"/>
            <path id="Rectángulo_34119" data-name="Rectángulo 34119" d="M2.086,0h0A1.966,1.966,0,0,1,4.052,1.966V6.328a0,0,0,0,1,0,0H0a0,0,0,0,1,0,0V2.086A2.086,2.086,0,0,1,2.086,0Z" transform="translate(11.867)" fill="#6f84dd"/>
            <path id="Rectángulo_34120" data-name="Rectángulo 34120" d="M2.086,0h0A1.966,1.966,0,0,1,4.052,1.966V6.328a0,0,0,0,1,0,0H0a0,0,0,0,1,0,0V2.086A2.086,2.086,0,0,1,2.086,0Z" fill="#6f84dd"/>
            <path id="Rectángulo_34121" data-name="Rectángulo 34121" d="M2.086,0h0A1.966,1.966,0,0,1,4.052,1.966V6.328a0,0,0,0,1,0,0H0a0,0,0,0,1,0,0V2.086A2.086,2.086,0,0,1,2.086,0Z" transform="translate(0 13.584)" fill="#6f84dd"/>
            <path id="Rectángulo_34122" data-name="Rectángulo 34122" d="M2.086,0h0A1.966,1.966,0,0,1,4.052,1.966V6.328a0,0,0,0,1,0,0H0a0,0,0,0,1,0,0V2.086A2.086,2.086,0,0,1,2.086,0Z" transform="translate(34.374)" fill="#6f84dd"/>
            <path id="Rectángulo_34123" data-name="Rectángulo 34123" d="M2.086,0h0A1.966,1.966,0,0,1,4.052,1.966V6.328a0,0,0,0,1,0,0H0a0,0,0,0,1,0,0V2.086A2.086,2.086,0,0,1,2.086,0Z" transform="translate(34.374 13.584)" fill="#6f84dd"/>
            <path id="Rectángulo_34124" data-name="Rectángulo 34124" d="M2.086,0h0A1.966,1.966,0,0,1,4.052,1.966V6.328a0,0,0,0,1,0,0H0a0,0,0,0,1,0,0V2.086A2.086,2.086,0,0,1,2.086,0Z" transform="translate(22.112)" fill="#6f84dd"/>
          </g>
        </g>
      </g>
      <rect id="Rectángulo_34125" data-name="Rectángulo 34125" width="284.002" height="1.228" rx="0.614" transform="translate(429.279 586.33)" fill="#233862"/>
    </g>
  </g>
</svg>
