<svg xmlns="http://www.w3.org/2000/svg" xmlns:xlink="http://www.w3.org/1999/xlink" width="758.862" height="513" viewBox="0 0 758.862 513">
  <defs>
    <filter id="Rectángulo_34305" x="61.138" y="235.069" width="132.862" height="132.861" filterUnits="userSpaceOnUse">
      <feOffset dy="3" input="SourceAlpha"/>
      <feGaussianBlur stdDeviation="3" result="blur"/>
      <feFlood flood-opacity="0.161"/>
      <feComposite operator="in" in2="blur"/>
      <feComposite in="SourceGraphic"/>
    </filter>
    <filter id="Rectángulo_34306" x="343.569" y="27.925" width="132.862" height="132.861" filterUnits="userSpaceOnUse">
      <feOffset dy="3" input="SourceAlpha"/>
      <feGaussianBlur stdDeviation="3" result="blur-2"/>
      <feFlood flood-opacity="0.161"/>
      <feComposite operator="in" in2="blur-2"/>
      <feComposite in="SourceGraphic"/>
    </filter>
    <filter id="Rectángulo_34307" x="626" y="246.925" width="132.862" height="132.861" filterUnits="userSpaceOnUse">
      <feOffset dy="3" input="SourceAlpha"/>
      <feGaussianBlur stdDeviation="3" result="blur-3"/>
      <feFlood flood-opacity="0.161"/>
      <feComposite operator="in" in2="blur-3"/>
      <feComposite in="SourceGraphic"/>
    </filter>
    <filter id="Rectángulo_34304" x="91.762" y="50.503" width="248.827" height="248.827" filterUnits="userSpaceOnUse">
      <feOffset dy="3" input="SourceAlpha"/>
      <feGaussianBlur stdDeviation="3" result="blur-4"/>
      <feFlood flood-opacity="0.161"/>
      <feComposite operator="in" in2="blur-4"/>
      <feComposite in="SourceGraphic"/>
    </filter>
    <filter id="Rectángulo_32996" x="290.589" y="142.786" width="248.827" height="248.827" filterUnits="userSpaceOnUse">
      <feOffset dy="3" input="SourceAlpha"/>
      <feGaussianBlur stdDeviation="3" result="blur-5"/>
      <feFlood flood-opacity="0.161"/>
      <feComposite operator="in" in2="blur-5"/>
      <feComposite in="SourceGraphic"/>
    </filter>
    <filter id="Rectángulo_34303" x="479.41" y="59.473" width="248.827" height="248.827" filterUnits="userSpaceOnUse">
      <feOffset dy="3" input="SourceAlpha"/>
      <feGaussianBlur stdDeviation="3" result="blur-6"/>
      <feFlood flood-opacity="0.161"/>
      <feComposite operator="in" in2="blur-6"/>
      <feComposite in="SourceGraphic"/>
    </filter>
    <filter id="Rectángulo_34301" x="136.286" y="264.173" width="248.827" height="248.827" filterUnits="userSpaceOnUse">
      <feOffset dy="3" input="SourceAlpha"/>
      <feGaussianBlur stdDeviation="3" result="blur-7"/>
      <feFlood flood-opacity="0.161"/>
      <feComposite operator="in" in2="blur-7"/>
      <feComposite in="SourceGraphic"/>
    </filter>
    <filter id="Rectángulo_34302" x="435.786" y="264.173" width="248.827" height="248.827" filterUnits="userSpaceOnUse">
      <feOffset dy="3" input="SourceAlpha"/>
      <feGaussianBlur stdDeviation="3" result="blur-8"/>
      <feFlood flood-opacity="0.161"/>
      <feComposite operator="in" in2="blur-8"/>
      <feComposite in="SourceGraphic"/>
    </filter>
  </defs>
  <g id="Grupo_88462" data-name="Grupo 88462" transform="translate(-390 -7599)">
    <g id="Grupo_88418" data-name="Grupo 88418">
      <g transform="matrix(1, 0, 0, 1, 390, 7599)" filter="url(#Rectángulo_34305)">
        <rect id="Rectángulo_34305-2" data-name="Rectángulo 34305" width="81.22" height="81.22" rx="14" transform="translate(70.14 298.5) rotate(-45)" fill="#3b4454"/>
      </g>
      <path id="Trazado_103361" data-name="Trazado 103361" d="M5.219,12.18,7.8,3.625h2.609L6.445,15H4L.055,3.625h2.6ZM15.867,15a2.507,2.507,0,0,1-.227-.758,2.732,2.732,0,0,1-2.133.914,3,3,0,0,1-2.059-.719,2.312,2.312,0,0,1-.816-1.812,2.389,2.389,0,0,1,1-2.062,4.915,4.915,0,0,1,2.879-.727h1.039V9.352a1.393,1.393,0,0,0-.3-.937,1.183,1.183,0,0,0-.949-.352,1.345,1.345,0,0,0-.895.273.929.929,0,0,0-.324.75H10.82a2.268,2.268,0,0,1,.453-1.359,3,3,0,0,1,1.281-.98,4.669,4.669,0,0,1,1.859-.355,3.689,3.689,0,0,1,2.48.785,2.747,2.747,0,0,1,.918,2.207v3.664a4.041,4.041,0,0,0,.336,1.82V15ZM14,13.43a1.945,1.945,0,0,0,.922-.223,1.462,1.462,0,0,0,.625-.6V11.156H14.7q-1.7,0-1.8,1.172l-.008.133a.9.9,0,0,0,.3.7A1.153,1.153,0,0,0,14,13.43Zm9.063-.094a1.481,1.481,0,0,0,1.016-.344,1.2,1.2,0,0,0,.406-.914H26.6a2.9,2.9,0,0,1-.469,1.574,3.093,3.093,0,0,1-1.262,1.109,3.949,3.949,0,0,1-1.77.395A3.67,3.67,0,0,1,20.242,14,4.56,4.56,0,0,1,19.2,10.82v-.148a4.508,4.508,0,0,1,1.039-3.117,3.627,3.627,0,0,1,2.852-1.164,3.555,3.555,0,0,1,2.543.9A3.2,3.2,0,0,1,26.6,9.7H24.484a1.551,1.551,0,0,0-.406-1.072,1.51,1.51,0,0,0-2.223.163,3.333,3.333,0,0,0-.4,1.866v.235a3.375,3.375,0,0,0,.4,1.878A1.377,1.377,0,0,0,23.063,13.336ZM32.789,15a2.507,2.507,0,0,1-.227-.758,2.732,2.732,0,0,1-2.133.914,3,3,0,0,1-2.059-.719,2.312,2.312,0,0,1-.816-1.812,2.389,2.389,0,0,1,1-2.062,4.915,4.915,0,0,1,2.879-.727h1.039V9.352a1.393,1.393,0,0,0-.3-.937,1.183,1.183,0,0,0-.949-.352,1.345,1.345,0,0,0-.895.273.929.929,0,0,0-.324.75H27.742A2.268,2.268,0,0,1,28.2,7.727a3,3,0,0,1,1.281-.98,4.669,4.669,0,0,1,1.859-.355,3.689,3.689,0,0,1,2.48.785,2.747,2.747,0,0,1,.918,2.207v3.664a4.041,4.041,0,0,0,.336,1.82V15Zm-1.867-1.57a1.945,1.945,0,0,0,.922-.223,1.462,1.462,0,0,0,.625-.6V11.156h-.844q-1.7,0-1.8,1.172l-.008.133a.9.9,0,0,0,.3.7A1.153,1.153,0,0,0,30.922,13.43Zm9.063-.094A1.481,1.481,0,0,0,41,12.992a1.2,1.2,0,0,0,.406-.914h2.117a2.9,2.9,0,0,1-.469,1.574,3.093,3.093,0,0,1-1.262,1.109,3.949,3.949,0,0,1-1.77.395A3.67,3.67,0,0,1,37.164,14a4.56,4.56,0,0,1-1.047-3.184v-.148a4.508,4.508,0,0,1,1.039-3.117,3.627,3.627,0,0,1,2.852-1.164,3.555,3.555,0,0,1,2.543.9,3.2,3.2,0,0,1,.973,2.4H41.406A1.551,1.551,0,0,0,41,8.623a1.51,1.51,0,0,0-2.223.163,3.333,3.333,0,0,0-.4,1.866v.235a3.375,3.375,0,0,0,.4,1.878A1.377,1.377,0,0,0,39.984,13.336ZM47.2,15H44.93V6.547H47.2ZM44.8,4.359a1.112,1.112,0,0,1,.34-.836,1.465,1.465,0,0,1,1.848,0,1.105,1.105,0,0,1,.344.836,1.108,1.108,0,0,1-.348.844,1.448,1.448,0,0,1-1.836,0A1.108,1.108,0,0,1,44.8,4.359ZM48.7,10.7a5.013,5.013,0,0,1,.484-2.242A3.546,3.546,0,0,1,50.582,6.93,4.069,4.069,0,0,1,52.7,6.391a3.849,3.849,0,0,1,2.793,1.047A4.2,4.2,0,0,1,56.7,10.281l.016.578a4.418,4.418,0,0,1-1.086,3.121,4.209,4.209,0,0,1-5.832,0A4.5,4.5,0,0,1,48.7,10.8Zm2.258.16a3.16,3.16,0,0,0,.453,1.843,1.628,1.628,0,0,0,2.578.008,3.457,3.457,0,0,0,.461-2.015,3.128,3.128,0,0,0-.461-1.831,1.5,1.5,0,0,0-1.3-.649,1.474,1.474,0,0,0-1.281.646A3.516,3.516,0,0,0,50.961,10.856ZM60.18,6.547l.07.977a2.951,2.951,0,0,1,2.43-1.133,2.453,2.453,0,0,1,2,.789,3.682,3.682,0,0,1,.672,2.359V15H63.094V9.581a1.47,1.47,0,0,0-.312-1.045,1.4,1.4,0,0,0-1.039-.325,1.553,1.553,0,0,0-1.43.814V15H58.055V6.547Zm10.773,8.609a4.15,4.15,0,0,1-3.027-1.141,4.054,4.054,0,0,1-1.168-3.039v-.219A5.106,5.106,0,0,1,67.25,8.48a3.612,3.612,0,0,1,1.395-1.547A3.914,3.914,0,0,1,70.7,6.391a3.508,3.508,0,0,1,2.73,1.094,4.444,4.444,0,0,1,1,3.1v.922H69.047a2.1,2.1,0,0,0,.66,1.328,2,2,0,0,0,1.395.5,2.437,2.437,0,0,0,2.039-.945l1.109,1.242a3.389,3.389,0,0,1-1.375,1.121A4.511,4.511,0,0,1,70.953,15.156ZM70.7,8.211a1.411,1.411,0,0,0-1.09.455,2.357,2.357,0,0,0-.535,1.3h3.141V9.788A1.681,1.681,0,0,0,71.8,8.623,1.456,1.456,0,0,0,70.7,8.211Zm9.594,4.453a.727.727,0,0,0-.41-.652,4.659,4.659,0,0,0-1.316-.426q-3.016-.633-3.016-2.562a2.323,2.323,0,0,1,.934-1.879,3.766,3.766,0,0,1,2.441-.754,4.053,4.053,0,0,1,2.574.758,2.388,2.388,0,0,1,.965,1.969H80.2a1.092,1.092,0,0,0-.312-.8A1.322,1.322,0,0,0,78.914,8a1.351,1.351,0,0,0-.883.258.814.814,0,0,0-.312.656.7.7,0,0,0,.355.605,3.657,3.657,0,0,0,1.2.4A9.8,9.8,0,0,1,80.7,10.3a2.336,2.336,0,0,1,1.789,2.273,2.2,2.2,0,0,1-.992,1.871,4.28,4.28,0,0,1-2.562.715,4.47,4.47,0,0,1-1.887-.379,3.166,3.166,0,0,1-1.293-1.039,2.414,2.414,0,0,1-.469-1.426h2.141a1.179,1.179,0,0,0,.445.922,1.766,1.766,0,0,0,1.109.32,1.635,1.635,0,0,0,.98-.246A.766.766,0,0,0,80.289,12.664Z" transform="translate(475 7886)" fill="#fff"/>
    </g>
    <g id="Grupo_88420" data-name="Grupo 88420">
      <g transform="matrix(1, 0, 0, 1, 390, 7599)" filter="url(#Rectángulo_34306)">
        <rect id="Rectángulo_34306-2" data-name="Rectángulo 34306" width="81.22" height="81.22" rx="14" transform="translate(352.57 91.36) rotate(-45)" fill="#3b4454"/>
      </g>
      <path id="Trazado_103364" data-name="Trazado 103364" d="M10.359,9.57a6.867,6.867,0,0,1-.594,2.945,4.472,4.472,0,0,1-1.7,1.953,4.7,4.7,0,0,1-2.535.688,4.732,4.732,0,0,1-2.523-.68,4.515,4.515,0,0,1-1.719-1.941,6.67,6.67,0,0,1-.617-2.9V9.07a6.831,6.831,0,0,1,.605-2.957A4.508,4.508,0,0,1,2.988,4.152a4.706,4.706,0,0,1,2.527-.684,4.706,4.706,0,0,1,2.527.684A4.508,4.508,0,0,1,9.754,6.113a6.811,6.811,0,0,1,.605,2.949ZM7.984,9.055a4.787,4.787,0,0,0-.641-2.719,2.088,2.088,0,0,0-1.828-.93,2.088,2.088,0,0,0-1.82.918,4.732,4.732,0,0,0-.648,2.691V9.57a4.847,4.847,0,0,0,.641,2.7,2.082,2.082,0,0,0,1.844.961,2.064,2.064,0,0,0,1.813-.926,4.819,4.819,0,0,0,.641-2.7Zm7.445,4.281a1.481,1.481,0,0,0,1.016-.344,1.2,1.2,0,0,0,.406-.914h2.117a2.9,2.9,0,0,1-.469,1.574,3.093,3.093,0,0,1-1.262,1.109,3.949,3.949,0,0,1-1.77.395A3.67,3.67,0,0,1,12.609,14a4.56,4.56,0,0,1-1.047-3.184v-.148A4.508,4.508,0,0,1,12.6,7.555a3.627,3.627,0,0,1,2.852-1.164,3.555,3.555,0,0,1,2.543.9,3.2,3.2,0,0,1,.973,2.4H16.852a1.551,1.551,0,0,0-.406-1.072,1.51,1.51,0,0,0-2.223.163,3.333,3.333,0,0,0-.4,1.866v.235a3.375,3.375,0,0,0,.4,1.878A1.377,1.377,0,0,0,15.43,13.336ZM22.641,15H20.375V6.547h2.266Zm-2.4-10.641a1.112,1.112,0,0,1,.34-.836,1.465,1.465,0,0,1,1.848,0,1.105,1.105,0,0,1,.344.836,1.108,1.108,0,0,1-.348.844,1.448,1.448,0,0,1-1.836,0A1.108,1.108,0,0,1,20.242,4.359ZM24.148,10.7a5.013,5.013,0,0,1,.484-2.242A3.546,3.546,0,0,1,26.027,6.93a4.069,4.069,0,0,1,2.113-.539,3.849,3.849,0,0,1,2.793,1.047,4.2,4.2,0,0,1,1.207,2.844l.016.578A4.418,4.418,0,0,1,31.07,13.98a3.775,3.775,0,0,1-2.914,1.176,3.793,3.793,0,0,1-2.918-1.172,4.5,4.5,0,0,1-1.09-3.187Zm2.258.16a3.16,3.16,0,0,0,.453,1.843,1.628,1.628,0,0,0,2.578.008,3.457,3.457,0,0,0,.461-2.015,3.128,3.128,0,0,0-.461-1.831,1.5,1.5,0,0,0-1.3-.649,1.474,1.474,0,0,0-1.281.646A3.516,3.516,0,0,0,26.406,10.856Z" transform="translate(783.718 7680.472)" fill="#fff"/>
    </g>
    <g id="Grupo_88424" data-name="Grupo 88424">
      <g transform="matrix(1, 0, 0, 1, 390, 7599)" filter="url(#Rectángulo_34307)">
        <rect id="Rectángulo_34307-2" data-name="Rectángulo 34307" width="81.22" height="81.22" rx="14" transform="translate(635 310.36) rotate(-45)" fill="#3b4454"/>
      </g>
      <path id="Trazado_103366" data-name="Trazado 103366" d="M9.578,5.523H6.094V15H3.75V5.523H.313v-1.9H9.578Zm4.383,9.633a4.15,4.15,0,0,1-3.027-1.141,4.054,4.054,0,0,1-1.168-3.039v-.219a5.106,5.106,0,0,1,.492-2.277,3.612,3.612,0,0,1,1.395-1.547,3.914,3.914,0,0,1,2.059-.543,3.508,3.508,0,0,1,2.73,1.094,4.444,4.444,0,0,1,1,3.1v.922H12.055a2.1,2.1,0,0,0,.66,1.328,2,2,0,0,0,1.395.5,2.437,2.437,0,0,0,2.039-.945l1.109,1.242a3.389,3.389,0,0,1-1.375,1.121A4.511,4.511,0,0,1,13.961,15.156ZM13.7,8.211a1.411,1.411,0,0,0-1.09.455,2.357,2.357,0,0,0-.535,1.3h3.141V9.788a1.681,1.681,0,0,0-.406-1.165A1.456,1.456,0,0,0,13.7,8.211Zm8.531,5.125a1.481,1.481,0,0,0,1.016-.344,1.2,1.2,0,0,0,.406-.914h2.117a2.9,2.9,0,0,1-.469,1.574,3.093,3.093,0,0,1-1.262,1.109,3.949,3.949,0,0,1-1.77.395A3.67,3.67,0,0,1,19.414,14a4.56,4.56,0,0,1-1.047-3.184v-.148a4.508,4.508,0,0,1,1.039-3.117,3.627,3.627,0,0,1,2.852-1.164,3.555,3.555,0,0,1,2.543.9,3.2,3.2,0,0,1,.973,2.4H23.656a1.551,1.551,0,0,0-.406-1.072,1.51,1.51,0,0,0-2.223.163,3.333,3.333,0,0,0-.4,1.866v.235a3.375,3.375,0,0,0,.4,1.878A1.377,1.377,0,0,0,22.234,13.336Zm6.906-6.789.07.977a2.951,2.951,0,0,1,2.43-1.133,2.453,2.453,0,0,1,2,.789,3.682,3.682,0,0,1,.672,2.359V15H32.055V9.581a1.47,1.47,0,0,0-.312-1.045A1.4,1.4,0,0,0,30.7,8.211a1.553,1.553,0,0,0-1.43.814V15H27.016V6.547ZM35.672,10.7a5.013,5.013,0,0,1,.484-2.242A3.546,3.546,0,0,1,37.551,6.93a4.069,4.069,0,0,1,2.113-.539,3.849,3.849,0,0,1,2.793,1.047,4.2,4.2,0,0,1,1.207,2.844l.016.578a4.418,4.418,0,0,1-1.086,3.121,4.209,4.209,0,0,1-5.832,0,4.5,4.5,0,0,1-1.09-3.187Zm2.258.16a3.16,3.16,0,0,0,.453,1.843,1.628,1.628,0,0,0,2.578.008,3.457,3.457,0,0,0,.461-2.015,3.128,3.128,0,0,0-.461-1.831,1.5,1.5,0,0,0-1.3-.649,1.474,1.474,0,0,0-1.281.646A3.516,3.516,0,0,0,37.93,10.856ZM47.453,15H45.188V3h2.266Zm1.508-4.3a5.013,5.013,0,0,1,.484-2.242A3.546,3.546,0,0,1,50.84,6.93a4.069,4.069,0,0,1,2.113-.539,3.849,3.849,0,0,1,2.793,1.047,4.2,4.2,0,0,1,1.207,2.844l.016.578a4.418,4.418,0,0,1-1.086,3.121,4.209,4.209,0,0,1-5.832,0,4.5,4.5,0,0,1-1.09-3.187Zm2.258.16a3.16,3.16,0,0,0,.453,1.843,1.628,1.628,0,0,0,2.578.008,3.457,3.457,0,0,0,.461-2.015A3.128,3.128,0,0,0,54.25,8.86a1.5,1.5,0,0,0-1.3-.649,1.474,1.474,0,0,0-1.281.646A3.516,3.516,0,0,0,51.219,10.856Zm6.813-.145a4.954,4.954,0,0,1,.926-3.133,3,3,0,0,1,2.5-1.187,2.631,2.631,0,0,1,2.164.953l.094-.8h2.047v8.172a3.613,3.613,0,0,1-.5,1.93,3.236,3.236,0,0,1-1.418,1.25,4.985,4.985,0,0,1-2.141.43,4.635,4.635,0,0,1-1.812-.371A3.217,3.217,0,0,1,58.547,17l1-1.375a2.645,2.645,0,0,0,2.047.945,1.936,1.936,0,0,0,1.4-.48,1.8,1.8,0,0,0,.5-1.363v-.453a2.612,2.612,0,0,1-2.055.883,2.992,2.992,0,0,1-2.465-1.191,4.953,4.953,0,0,1-.941-3.16Zm2.258.161a3.1,3.1,0,0,0,.461,1.809,1.465,1.465,0,0,0,1.266.655,1.567,1.567,0,0,0,1.477-.777V8.988a1.563,1.563,0,0,0-1.461-.777,1.474,1.474,0,0,0-1.277.667A3.5,3.5,0,0,0,60.289,10.872ZM69.93,15H67.672V6.547H69.93ZM69.266,3.117h2.461L69.563,5.539H67.727ZM76.773,15a2.507,2.507,0,0,1-.227-.758,2.732,2.732,0,0,1-2.133.914,3,3,0,0,1-2.059-.719,2.312,2.312,0,0,1-.816-1.812,2.389,2.389,0,0,1,1-2.062,4.915,4.915,0,0,1,2.879-.727h1.039V9.352a1.393,1.393,0,0,0-.3-.937,1.183,1.183,0,0,0-.949-.352,1.345,1.345,0,0,0-.895.273.929.929,0,0,0-.324.75H71.727a2.268,2.268,0,0,1,.453-1.359,3,3,0,0,1,1.281-.98,4.669,4.669,0,0,1,1.859-.355,3.689,3.689,0,0,1,2.48.785,2.747,2.747,0,0,1,.918,2.207v3.664a4.041,4.041,0,0,0,.336,1.82V15Zm-1.867-1.57a1.945,1.945,0,0,0,.922-.223,1.462,1.462,0,0,0,.625-.6V11.156h-.844q-1.7,0-1.8,1.172l-.008.133a.9.9,0,0,0,.3.7A1.153,1.153,0,0,0,74.906,13.43Z" transform="translate(1040.572 7899.472)" fill="#fff"/>
    </g>
    <g id="Grupo_88419" data-name="Grupo 88419">
      <g transform="matrix(1, 0, 0, 1, 390, 7599)" filter="url(#Rectángulo_34304)">
        <rect id="Rectángulo_34304-2" data-name="Rectángulo 34304" width="163.22" height="163.22" rx="22" transform="translate(100.76 171.92) rotate(-45)" fill="#2e9daa"/>
      </g>
      <path id="Trazado_103360" data-name="Trazado 103360" d="M7.438-2.344H3.328L2.547,0H.055L4.289-11.375H6.461L10.719,0H8.227Zm-3.477-1.9H6.8L5.375-8.5ZM16.383-6.336A6.134,6.134,0,0,0,15.57-6.4a1.654,1.654,0,0,0-1.68.867V0H11.633V-8.453h2.133l.063,1.008a2.092,2.092,0,0,1,1.883-1.164,2.366,2.366,0,0,1,.7.1Zm5.836,0a6.134,6.134,0,0,0-.812-.062,1.654,1.654,0,0,0-1.68.867V0H17.469V-8.453H19.6l.063,1.008a2.092,2.092,0,0,1,1.883-1.164,2.366,2.366,0,0,1,.7.1ZM25.688,0H23.422V-8.453h2.266Zm-2.4-10.641a1.112,1.112,0,0,1,.34-.836,1.277,1.277,0,0,1,.926-.328,1.28,1.28,0,0,1,.922.328,1.105,1.105,0,0,1,.344.836,1.108,1.108,0,0,1-.348.844,1.283,1.283,0,0,1-.918.328,1.283,1.283,0,0,1-.918-.328A1.108,1.108,0,0,1,23.289-10.641ZM31.438.156A4.15,4.15,0,0,1,28.41-.984a4.054,4.054,0,0,1-1.168-3.039v-.219a5.106,5.106,0,0,1,.492-2.277,3.612,3.612,0,0,1,1.395-1.547,3.914,3.914,0,0,1,2.059-.543,3.508,3.508,0,0,1,2.73,1.094,4.444,4.444,0,0,1,1,3.1v.922H29.531a2.1,2.1,0,0,0,.66,1.328,2,2,0,0,0,1.395.5,2.437,2.437,0,0,0,2.039-.945l1.109,1.242A3.389,3.389,0,0,1,33.359-.246,4.511,4.511,0,0,1,31.438.156ZM31.18-6.789a1.411,1.411,0,0,0-1.09.455,2.357,2.357,0,0,0-.535,1.3H32.7v-.181a1.681,1.681,0,0,0-.406-1.165A1.456,1.456,0,0,0,31.18-6.789Zm7.094-1.664.07.977a2.951,2.951,0,0,1,2.43-1.133,2.453,2.453,0,0,1,2,.789,3.682,3.682,0,0,1,.672,2.359V0H41.188V-5.419a1.47,1.47,0,0,0-.312-1.045,1.4,1.4,0,0,0-1.039-.325,1.553,1.553,0,0,0-1.43.814V0H36.148V-8.453ZM44.8-4.289a5.094,5.094,0,0,1,.887-3.148,2.877,2.877,0,0,1,2.426-1.172,2.589,2.589,0,0,1,2.039.922V-12h2.266V0H50.383l-.109-.9A2.657,2.657,0,0,1,48.1.156,2.869,2.869,0,0,1,45.707-1.02,5.258,5.258,0,0,1,44.8-4.289Zm2.258.161A3.355,3.355,0,0,0,47.477-2.3a1.348,1.348,0,0,0,1.2.636,1.51,1.51,0,0,0,1.477-.887V-5.9A1.489,1.489,0,0,0,48.7-6.789Q47.062-6.789,47.063-4.128ZM53.82-4.3A5.013,5.013,0,0,1,54.3-6.547,3.546,3.546,0,0,1,55.7-8.07a4.069,4.069,0,0,1,2.113-.539,3.849,3.849,0,0,1,2.793,1.047,4.2,4.2,0,0,1,1.207,2.844l.016.578A4.418,4.418,0,0,1,60.742-1.02,3.775,3.775,0,0,1,57.828.156,3.793,3.793,0,0,1,54.91-1.016,4.5,4.5,0,0,1,53.82-4.2Zm2.258.16A3.16,3.16,0,0,0,56.531-2.3a1.5,1.5,0,0,0,1.3.638,1.5,1.5,0,0,0,1.281-.63,3.457,3.457,0,0,0,.461-2.015,3.128,3.128,0,0,0-.461-1.831,1.5,1.5,0,0,0-1.3-.649,1.474,1.474,0,0,0-1.281.646A3.516,3.516,0,0,0,56.078-4.144Z" transform="translate(575 7815)" fill="#fff"/>
      <path id="Trazado_101772" data-name="Trazado 101772" d="M182.463,192.031l-34.3-31.2a5.1,5.1,0,0,0-6.857,0l-34.3,31.2a5.071,5.071,0,0,0-.323,7.161h0a5.158,5.158,0,0,0,3.76,1.653,5.05,5.05,0,0,0,3.438-1.329l30.844-28.092,30.863,28.092a5.082,5.082,0,0,0,6.875-7.485Zm-64.9,8.755v31.757a2.712,2.712,0,0,0,1.445,2.318,4.271,4.271,0,0,0,2.164.55h47.121a4.278,4.278,0,0,0,2.166-.55,2.753,2.753,0,0,0,1.444-2.318V200.786l-27.179-24.709Zm15.974-2.506h22.317v15.554H133.538Zm-21.12-34.7,20.891.645L113.728,183.1Z" transform="translate(461.267 7550.33)" fill="#fff"/>
    </g>
    <g id="Grupo_88422" data-name="Grupo 88422">
      <g transform="matrix(1, 0, 0, 1, 390, 7599)" filter="url(#Rectángulo_32996)">
        <rect id="Rectángulo_32996-2" data-name="Rectángulo 32996" width="163.22" height="163.22" rx="22" transform="translate(299.59 264.2) rotate(-45)" fill="#60c1dd"/>
      </g>
      <path id="Trazado_103363" data-name="Trazado 103363" d="M-38.57-3.789A4.025,4.025,0,0,1-39.926-.9,4.76,4.76,0,0,1-43.148.156,4.28,4.28,0,0,1-46.59-1.316a6.038,6.038,0,0,1-1.254-4.043v-.7a6.819,6.819,0,0,1,.578-2.891,4.332,4.332,0,0,1,1.652-1.918,4.629,4.629,0,0,1,2.5-.668,4.637,4.637,0,0,1,3.172,1.055,4.326,4.326,0,0,1,1.391,2.961H-40.9a2.376,2.376,0,0,0-.613-1.6,2.271,2.271,0,0,0-1.605-.5,1.991,1.991,0,0,0-1.754.84,4.707,4.707,0,0,0-.6,2.605V-5.3a5.038,5.038,0,0,0,.559,2.7,1.954,1.954,0,0,0,1.762.852,2.314,2.314,0,0,0,1.621-.5,2.241,2.241,0,0,0,.613-1.535Zm6.453,2.93A2.831,2.831,0,0,1-34.43.156,2.67,2.67,0,0,1-36.5-.625a3.335,3.335,0,0,1-.73-2.289V-8.453h2.258v5.467q0,1.322,1.2,1.322a1.63,1.63,0,0,0,1.578-.8V-8.453h2.266V0h-2.125ZM-28.578-4.3a5.013,5.013,0,0,1,.484-2.242A3.546,3.546,0,0,1-26.7-8.07a4.069,4.069,0,0,1,2.113-.539,3.849,3.849,0,0,1,2.793,1.047,4.2,4.2,0,0,1,1.207,2.844l.016.578A4.418,4.418,0,0,1-21.656-1.02,3.775,3.775,0,0,1-24.57.156a3.793,3.793,0,0,1-2.918-1.172A4.5,4.5,0,0,1-28.578-4.2Zm2.258.16A3.16,3.16,0,0,0-25.867-2.3a1.5,1.5,0,0,0,1.3.638,1.5,1.5,0,0,0,1.281-.63,3.457,3.457,0,0,0,.461-2.015,3.128,3.128,0,0,0-.461-1.831,1.5,1.5,0,0,0-1.3-.649,1.474,1.474,0,0,0-1.281.646A3.516,3.516,0,0,0-26.32-4.144Zm9.844-6.387v2.078h1.445V-6.8h-1.445v4.219a1.007,1.007,0,0,0,.18.672.9.9,0,0,0,.688.2,3.6,3.6,0,0,0,.664-.055V-.047a4.648,4.648,0,0,1-1.367.2,2.156,2.156,0,0,1-2.422-2.4V-6.8h-1.234V-8.453h1.234v-2.078ZM-8.875,0A2.507,2.507,0,0,1-9.1-.758a2.732,2.732,0,0,1-2.133.914,3,3,0,0,1-2.059-.719,2.312,2.312,0,0,1-.816-1.812,2.389,2.389,0,0,1,1-2.062,4.915,4.915,0,0,1,2.879-.727H-9.2v-.484a1.393,1.393,0,0,0-.3-.937,1.183,1.183,0,0,0-.949-.352,1.345,1.345,0,0,0-.895.273.929.929,0,0,0-.324.75h-2.258a2.268,2.268,0,0,1,.453-1.359,3,3,0,0,1,1.281-.98,4.669,4.669,0,0,1,1.859-.355,3.689,3.689,0,0,1,2.48.785A2.747,2.747,0,0,1-6.93-5.617v3.664a4.041,4.041,0,0,0,.336,1.82V0Zm-1.867-1.57a1.945,1.945,0,0,0,.922-.223,1.462,1.462,0,0,0,.625-.6V-3.844h-.844q-1.7,0-1.8,1.172l-.008.133a.9.9,0,0,0,.3.7A1.153,1.153,0,0,0-10.742-1.57ZM1.492-10.531v2.078H2.938V-6.8H1.492v4.219a1.007,1.007,0,0,0,.18.672.9.9,0,0,0,.688.2,3.6,3.6,0,0,0,.664-.055V-.047a4.648,4.648,0,0,1-1.367.2,2.156,2.156,0,0,1-2.422-2.4V-6.8H-2V-8.453H-.766v-2.078ZM9.094,0a2.507,2.507,0,0,1-.227-.758A2.732,2.732,0,0,1,6.734.156,3,3,0,0,1,4.676-.562a2.312,2.312,0,0,1-.816-1.812,2.389,2.389,0,0,1,1-2.062,4.915,4.915,0,0,1,2.879-.727H8.773v-.484a1.393,1.393,0,0,0-.3-.937,1.183,1.183,0,0,0-.949-.352,1.345,1.345,0,0,0-.895.273.929.929,0,0,0-.324.75H4.047A2.268,2.268,0,0,1,4.5-7.273a3,3,0,0,1,1.281-.98,4.669,4.669,0,0,1,1.859-.355,3.689,3.689,0,0,1,2.48.785,2.747,2.747,0,0,1,.918,2.207v3.664a4.041,4.041,0,0,0,.336,1.82V0ZM7.227-1.57a1.945,1.945,0,0,0,.922-.223,1.462,1.462,0,0,0,.625-.6V-3.844H7.93q-1.7,0-1.8,1.172l-.008.133a.9.9,0,0,0,.3.7A1.153,1.153,0,0,0,7.227-1.57Zm10.3-4.766a6.134,6.134,0,0,0-.812-.062,1.654,1.654,0,0,0-1.68.867V0H12.773V-8.453h2.133l.063,1.008a2.092,2.092,0,0,1,1.883-1.164,2.366,2.366,0,0,1,.7.1ZM21-8.453V.461a3.024,3.024,0,0,1-.742,2.176,2.821,2.821,0,0,1-2.141.777A4.591,4.591,0,0,1,17,3.281V1.492a4.238,4.238,0,0,0,.711.07q1.023,0,1.023-1.086v-8.93Zm-2.445-2.187a1.112,1.112,0,0,1,.34-.836,1.277,1.277,0,0,1,.926-.328,1.277,1.277,0,0,1,.926.328,1.112,1.112,0,0,1,.34.836,1.108,1.108,0,0,1-.348.844,1.283,1.283,0,0,1-.918.328A1.283,1.283,0,0,1,18.9-9.8,1.108,1.108,0,0,1,18.555-10.641Zm8.1,10.8A4.15,4.15,0,0,1,23.629-.984a4.054,4.054,0,0,1-1.168-3.039v-.219a5.106,5.106,0,0,1,.492-2.277,3.612,3.612,0,0,1,1.395-1.547,3.914,3.914,0,0,1,2.059-.543,3.508,3.508,0,0,1,2.73,1.094,4.444,4.444,0,0,1,1,3.1v.922H24.75a2.1,2.1,0,0,0,.66,1.328,2,2,0,0,0,1.395.5,2.437,2.437,0,0,0,2.039-.945l1.109,1.242A3.389,3.389,0,0,1,28.578-.246,4.511,4.511,0,0,1,26.656.156ZM26.4-6.789a1.411,1.411,0,0,0-1.09.455,2.357,2.357,0,0,0-.535,1.3h3.141v-.181a1.681,1.681,0,0,0-.406-1.165A1.456,1.456,0,0,0,26.4-6.789Zm7.719-3.742v2.078h1.445V-6.8H34.117v4.219a1.007,1.007,0,0,0,.18.672.9.9,0,0,0,.688.2,3.6,3.6,0,0,0,.664-.055V-.047a4.648,4.648,0,0,1-1.367.2,2.156,2.156,0,0,1-2.422-2.4V-6.8H30.625V-8.453h1.234v-2.078ZM41.719,0a2.507,2.507,0,0,1-.227-.758,2.732,2.732,0,0,1-2.133.914A3,3,0,0,1,37.3-.562a2.312,2.312,0,0,1-.816-1.812,2.389,2.389,0,0,1,1-2.062,4.915,4.915,0,0,1,2.879-.727H41.4v-.484a1.393,1.393,0,0,0-.3-.937,1.183,1.183,0,0,0-.949-.352,1.345,1.345,0,0,0-.895.273.929.929,0,0,0-.324.75H36.672a2.268,2.268,0,0,1,.453-1.359,3,3,0,0,1,1.281-.98,4.669,4.669,0,0,1,1.859-.355,3.689,3.689,0,0,1,2.48.785,2.747,2.747,0,0,1,.918,2.207v3.664A4.041,4.041,0,0,0,44-.133V0ZM39.852-1.57a1.945,1.945,0,0,0,.922-.223,1.462,1.462,0,0,0,.625-.6V-3.844h-.844q-1.7,0-1.8,1.172l-.008.133a.9.9,0,0,0,.3.7A1.153,1.153,0,0,0,39.852-1.57ZM-35.387,19.711a5.094,5.094,0,0,1,.887-3.148,2.877,2.877,0,0,1,2.426-1.172,2.589,2.589,0,0,1,2.039.922V12h2.266V24h-2.039l-.109-.9a2.657,2.657,0,0,1-2.172,1.055,2.869,2.869,0,0,1-2.395-1.176A5.258,5.258,0,0,1-35.387,19.711Zm2.258.161a3.355,3.355,0,0,0,.414,1.829,1.348,1.348,0,0,0,1.2.636,1.51,1.51,0,0,0,1.477-.887V18.1a1.489,1.489,0,0,0-1.461-.887Q-33.129,17.211-33.129,19.872Zm11,4.285a4.15,4.15,0,0,1-3.027-1.141,4.054,4.054,0,0,1-1.168-3.039v-.219a5.106,5.106,0,0,1,.492-2.277,3.612,3.612,0,0,1,1.395-1.547,3.914,3.914,0,0,1,2.059-.543,3.508,3.508,0,0,1,2.73,1.094,4.444,4.444,0,0,1,1,3.1v.922h-5.383a2.1,2.1,0,0,0,.66,1.328,2,2,0,0,0,1.395.5,2.437,2.437,0,0,0,2.039-.945l1.109,1.242a3.389,3.389,0,0,1-1.375,1.121A4.511,4.511,0,0,1-22.129,24.156Zm-.258-6.945a1.411,1.411,0,0,0-1.09.455,2.357,2.357,0,0,0-.535,1.3h3.141v-.181a1.681,1.681,0,0,0-.406-1.165A1.456,1.456,0,0,0-22.387,17.211Zm12.516,5.125a1.481,1.481,0,0,0,1.016-.344,1.2,1.2,0,0,0,.406-.914h2.117A2.9,2.9,0,0,1-6.8,22.652a3.093,3.093,0,0,1-1.262,1.109,3.949,3.949,0,0,1-1.77.395A3.67,3.67,0,0,1-12.691,23a4.56,4.56,0,0,1-1.047-3.184v-.148A4.508,4.508,0,0,1-12.7,16.555a3.627,3.627,0,0,1,2.852-1.164,3.555,3.555,0,0,1,2.543.9,3.2,3.2,0,0,1,.973,2.4H-8.449a1.551,1.551,0,0,0-.406-1.072,1.354,1.354,0,0,0-1.031-.412,1.36,1.36,0,0,0-1.191.575,3.333,3.333,0,0,0-.4,1.866v.235a3.375,3.375,0,0,0,.4,1.878A1.377,1.377,0,0,0-9.871,22.336Zm9.578-4.672a6.134,6.134,0,0,0-.812-.062,1.654,1.654,0,0,0-1.68.867V24H-5.043V15.547H-2.91l.063,1.008A2.092,2.092,0,0,1-.965,15.391a2.366,2.366,0,0,1,.7.1Zm4.828,6.492a4.15,4.15,0,0,1-3.027-1.141A4.054,4.054,0,0,1,.34,19.977v-.219A5.106,5.106,0,0,1,.832,17.48a3.612,3.612,0,0,1,1.395-1.547,3.914,3.914,0,0,1,2.059-.543,3.508,3.508,0,0,1,2.73,1.094,4.444,4.444,0,0,1,1,3.1v.922H2.629a2.1,2.1,0,0,0,.66,1.328,2,2,0,0,0,1.395.5,2.437,2.437,0,0,0,2.039-.945l1.109,1.242a3.389,3.389,0,0,1-1.375,1.121A4.511,4.511,0,0,1,4.535,24.156Zm-.258-6.945a1.411,1.411,0,0,0-1.09.455,2.357,2.357,0,0,0-.535,1.3H5.793v-.181a1.681,1.681,0,0,0-.406-1.165A1.456,1.456,0,0,0,4.277,17.211ZM4.48,12H6.941L4.777,14.422H2.941Zm4.461,7.711a5.094,5.094,0,0,1,.887-3.148,2.877,2.877,0,0,1,2.426-1.172,2.589,2.589,0,0,1,2.039.922V12h2.266V24H14.52l-.109-.9a2.657,2.657,0,0,1-2.172,1.055A2.869,2.869,0,0,1,9.844,22.98,5.258,5.258,0,0,1,8.941,19.711Zm2.258.161a3.355,3.355,0,0,0,.414,1.829,1.348,1.348,0,0,0,1.2.636,1.51,1.51,0,0,0,1.477-.887V18.1a1.489,1.489,0,0,0-1.461-.887Q11.2,17.211,11.2,19.872ZM20.691,24H18.426V15.547h2.266Zm-2.4-10.641a1.112,1.112,0,0,1,.34-.836,1.465,1.465,0,0,1,1.848,0,1.193,1.193,0,0,1,0,1.68,1.448,1.448,0,0,1-1.836,0A1.108,1.108,0,0,1,18.293,13.359Zm6.961.109v2.078H26.7V17.2H25.254v4.219a1.007,1.007,0,0,0,.18.672.9.9,0,0,0,.688.2,3.6,3.6,0,0,0,.664-.055v1.711a4.648,4.648,0,0,1-1.367.2A2.156,2.156,0,0,1,23,21.758V17.2H21.762V15.547H23V13.469ZM27.371,19.7a5.013,5.013,0,0,1,.484-2.242A3.546,3.546,0,0,1,29.25,15.93a4.069,4.069,0,0,1,2.113-.539,3.849,3.849,0,0,1,2.793,1.047,4.2,4.2,0,0,1,1.207,2.844l.016.578a4.418,4.418,0,0,1-1.086,3.121,3.775,3.775,0,0,1-2.914,1.176,3.793,3.793,0,0,1-2.918-1.172,4.5,4.5,0,0,1-1.09-3.187Zm2.258.16a3.16,3.16,0,0,0,.453,1.843,1.628,1.628,0,0,0,2.578.008,3.457,3.457,0,0,0,.461-2.015,3.128,3.128,0,0,0-.461-1.831,1.5,1.5,0,0,0-1.3-.649,1.474,1.474,0,0,0-1.281.646A3.516,3.516,0,0,0,29.629,19.856Z" transform="translate(808 7892)" fill="#12263f"/>
      <g id="Grupo_87776" data-name="Grupo 87776" transform="translate(517.757 7763.298)">
        <path id="Trazado_101773" data-name="Trazado 101773" d="M320.141,45.2h-65.79a8.936,8.936,0,0,0-8.925,8.926V89.434a8.937,8.937,0,0,0,8.925,8.926h65.79a8.937,8.937,0,0,0,8.925-8.926V54.128A8.936,8.936,0,0,0,320.141,45.2Zm-65.79,2.522h65.79a6.389,6.389,0,0,1,6.329,5.673H248.021A6.389,6.389,0,0,1,254.351,47.724Zm65.79,48.114h-65.79a6.41,6.41,0,0,1-6.4-6.4V62.014h78.6v27.42A6.41,6.41,0,0,1,320.141,95.838Z" fill="#12263f"/>
        <g id="Grupo_87775" data-name="Grupo 87775" transform="translate(269.644 72.775)">
          <path id="Trazado_101774" data-name="Trazado 101774" d="M272.361,77.1a6.541,6.541,0,0,1-2.692.484,4.764,4.764,0,0,1-5.036-5.157,5.072,5.072,0,0,1,5.321-5.354,5.462,5.462,0,0,1,2.421.454l-.318,1.074A4.768,4.768,0,0,0,270,68.174c-2.389,0-3.978,1.527-3.978,4.2,0,2.5,1.436,4.1,3.916,4.1a5.263,5.263,0,0,0,2.147-.424Z" transform="translate(-264.633 -67.069)" fill="#12263f"/>
          <path id="Trazado_101775" data-name="Trazado 101775" d="M273.929,74.188l-1.059,3.207h-1.362L274.97,67.2h1.589l3.479,10.193h-1.406l-1.091-3.207Zm3.341-1.029-1-2.933c-.229-.666-.38-1.271-.53-1.861h-.031c-.15.607-.318,1.226-.513,1.846l-1,2.948Z" transform="translate(-262.839 -67.035)" fill="#12263f"/>
          <path id="Trazado_101776" data-name="Trazado 101776" d="M279.463,67.353a13.713,13.713,0,0,1,2.527-.212,4.166,4.166,0,0,1,2.948.832,2.537,2.537,0,0,1,.8,1.936,2.678,2.678,0,0,1-1.92,2.6v.045a2.541,2.541,0,0,1,1.5,2.057,16.28,16.28,0,0,0,.786,2.8h-1.359a13.294,13.294,0,0,1-.682-2.435c-.3-1.407-.847-1.937-2.041-1.981h-1.238V77.41h-1.318ZM280.781,72h1.344c1.406,0,2.3-.772,2.3-1.936,0-1.315-.952-1.89-2.344-1.905a5.4,5.4,0,0,0-1.3.121Z" transform="translate(-260.764 -67.05)" fill="#12263f"/>
          <path id="Trazado_101777" data-name="Trazado 101777" d="M285.92,67.353a18.81,18.81,0,0,1,2.8-.212,5.834,5.834,0,0,1,4.127,1.27,4.693,4.693,0,0,1,1.439,3.66,5.393,5.393,0,0,1-1.468,3.962,6.277,6.277,0,0,1-4.508,1.466,21.214,21.214,0,0,1-2.388-.12Zm1.315,9.013a8.313,8.313,0,0,0,1.332.076c2.813,0,4.34-1.572,4.34-4.325.015-2.4-1.347-3.932-4.128-3.932a7.46,7.46,0,0,0-1.543.136Z" transform="translate(-259.079 -67.05)" fill="#12263f"/>
        </g>
      </g>
    </g>
    <g id="Grupo_88425" data-name="Grupo 88425">
      <g transform="matrix(1, 0, 0, 1, 390, 7599)" filter="url(#Rectángulo_34303)">
        <rect id="Rectángulo_34303-2" data-name="Rectángulo 34303" width="163.22" height="163.22" rx="22" transform="translate(488.41 180.89) rotate(-45)" fill="#e8e8e8"/>
      </g>
      <path id="Trazado_103365" data-name="Trazado 103365" d="M3.359-4.008V0H1.016V-11.375H5.453a5.134,5.134,0,0,1,2.254.469A3.454,3.454,0,0,1,9.2-9.574a3.714,3.714,0,0,1,.523,1.965A3.266,3.266,0,0,1,8.582-4.973a4.767,4.767,0,0,1-3.168.965Zm0-1.9H5.453a2.059,2.059,0,0,0,1.418-.437,1.591,1.591,0,0,0,.488-1.25,1.876,1.876,0,0,0-.492-1.352,1.839,1.839,0,0,0-1.359-.531H3.359ZM14.977.156A4.15,4.15,0,0,1,11.949-.984a4.054,4.054,0,0,1-1.168-3.039v-.219a5.106,5.106,0,0,1,.492-2.277,3.612,3.612,0,0,1,1.395-1.547,3.914,3.914,0,0,1,2.059-.543,3.508,3.508,0,0,1,2.73,1.094,4.444,4.444,0,0,1,1,3.1v.922H13.07a2.1,2.1,0,0,0,.66,1.328,2,2,0,0,0,1.395.5,2.437,2.437,0,0,0,2.039-.945l1.109,1.242A3.389,3.389,0,0,1,16.9-.246,4.511,4.511,0,0,1,14.977.156Zm-.258-6.945a1.411,1.411,0,0,0-1.09.455,2.357,2.357,0,0,0-.535,1.3h3.141v-.181a1.681,1.681,0,0,0-.406-1.165A1.456,1.456,0,0,0,14.719-6.789Zm7.094-1.664.07.977a2.951,2.951,0,0,1,2.43-1.133,2.453,2.453,0,0,1,2,.789,3.682,3.682,0,0,1,.672,2.359V0H24.727V-5.419a1.47,1.47,0,0,0-.312-1.045,1.4,1.4,0,0,0-1.039-.325,1.553,1.553,0,0,0-1.43.814V0H19.688V-8.453ZM33.273-2.336a.727.727,0,0,0-.41-.652,4.659,4.659,0,0,0-1.316-.426q-3.016-.633-3.016-2.562a2.323,2.323,0,0,1,.934-1.879,3.766,3.766,0,0,1,2.441-.754,4.053,4.053,0,0,1,2.574.758,2.388,2.388,0,0,1,.965,1.969H33.188a1.092,1.092,0,0,0-.312-.8A1.322,1.322,0,0,0,31.9-7a1.351,1.351,0,0,0-.883.258.814.814,0,0,0-.312.656.7.7,0,0,0,.355.605,3.657,3.657,0,0,0,1.2.4A9.8,9.8,0,0,1,33.68-4.7,2.336,2.336,0,0,1,35.469-2.43a2.2,2.2,0,0,1-.992,1.871,4.28,4.28,0,0,1-2.562.715,4.47,4.47,0,0,1-1.887-.379,3.166,3.166,0,0,1-1.293-1.039,2.414,2.414,0,0,1-.469-1.426h2.141a1.179,1.179,0,0,0,.445.922,1.766,1.766,0,0,0,1.109.32,1.635,1.635,0,0,0,.98-.246A.766.766,0,0,0,33.273-2.336ZM39.3,0H37.039V-8.453H39.3Zm-2.4-10.641a1.112,1.112,0,0,1,.34-.836,1.277,1.277,0,0,1,.926-.328,1.28,1.28,0,0,1,.922.328,1.105,1.105,0,0,1,.344.836,1.108,1.108,0,0,1-.348.844,1.283,1.283,0,0,1-.918.328,1.283,1.283,0,0,1-.918-.328A1.108,1.108,0,0,1,36.906-10.641ZM40.813-4.3A5.013,5.013,0,0,1,41.3-6.547,3.546,3.546,0,0,1,42.691-8.07,4.069,4.069,0,0,1,44.8-8.609,3.849,3.849,0,0,1,47.6-7.562,4.2,4.2,0,0,1,48.8-4.719l.016.578A4.418,4.418,0,0,1,47.734-1.02,3.775,3.775,0,0,1,44.82.156,3.793,3.793,0,0,1,41.9-1.016,4.5,4.5,0,0,1,40.813-4.2Zm2.258.16A3.16,3.16,0,0,0,43.523-2.3a1.5,1.5,0,0,0,1.3.638,1.5,1.5,0,0,0,1.281-.63,3.457,3.457,0,0,0,.461-2.015A3.128,3.128,0,0,0,46.1-6.14a1.5,1.5,0,0,0-1.3-.649,1.474,1.474,0,0,0-1.281.646A3.516,3.516,0,0,0,43.07-4.144ZM45.25-12h2.461L45.547-9.578H43.711Zm7.039,3.547.07.977a2.951,2.951,0,0,1,2.43-1.133,2.453,2.453,0,0,1,2,.789,3.682,3.682,0,0,1,.672,2.359V0H55.2V-5.419a1.47,1.47,0,0,0-.312-1.045,1.4,1.4,0,0,0-1.039-.325,1.553,1.553,0,0,0-1.43.814V0H50.164V-8.453ZM4.383,22.336A1.481,1.481,0,0,0,5.4,21.992a1.2,1.2,0,0,0,.406-.914H7.922a2.9,2.9,0,0,1-.469,1.574,3.093,3.093,0,0,1-1.262,1.109,3.949,3.949,0,0,1-1.77.395A3.67,3.67,0,0,1,1.563,23,4.56,4.56,0,0,1,.516,19.82v-.148a4.508,4.508,0,0,1,1.039-3.117,3.627,3.627,0,0,1,2.852-1.164,3.555,3.555,0,0,1,2.543.9,3.2,3.2,0,0,1,.973,2.4H5.8A1.551,1.551,0,0,0,5.4,17.623a1.354,1.354,0,0,0-1.031-.412,1.36,1.36,0,0,0-1.191.575,3.333,3.333,0,0,0-.4,1.866v.235a3.375,3.375,0,0,0,.4,1.878A1.377,1.377,0,0,0,4.383,22.336ZM8.859,19.7a5.013,5.013,0,0,1,.484-2.242,3.546,3.546,0,0,1,1.395-1.523,4.069,4.069,0,0,1,2.113-.539,3.849,3.849,0,0,1,2.793,1.047,4.2,4.2,0,0,1,1.207,2.844l.016.578a4.418,4.418,0,0,1-1.086,3.121,3.775,3.775,0,0,1-2.914,1.176,3.793,3.793,0,0,1-2.918-1.172A4.5,4.5,0,0,1,8.859,19.8Zm2.258.16A3.16,3.16,0,0,0,11.57,21.7a1.5,1.5,0,0,0,1.3.638,1.5,1.5,0,0,0,1.281-.63,3.457,3.457,0,0,0,.461-2.015,3.128,3.128,0,0,0-.461-1.831,1.5,1.5,0,0,0-1.3-.649,1.474,1.474,0,0,0-1.281.646A3.516,3.516,0,0,0,11.117,19.856ZM20.641,24H18.375V12h2.266Zm5.75.156a4.15,4.15,0,0,1-3.027-1.141A4.054,4.054,0,0,1,22.2,19.977v-.219a5.106,5.106,0,0,1,.492-2.277,3.612,3.612,0,0,1,1.395-1.547,3.914,3.914,0,0,1,2.059-.543,3.508,3.508,0,0,1,2.73,1.094,4.444,4.444,0,0,1,1,3.1v.922H24.484a2.1,2.1,0,0,0,.66,1.328,2,2,0,0,0,1.395.5,2.437,2.437,0,0,0,2.039-.945l1.109,1.242a3.389,3.389,0,0,1-1.375,1.121A4.511,4.511,0,0,1,26.391,24.156Zm-.258-6.945a1.411,1.411,0,0,0-1.09.455,2.357,2.357,0,0,0-.535,1.3h3.141v-.181a1.681,1.681,0,0,0-.406-1.165A1.456,1.456,0,0,0,26.133,17.211Zm4.688,2.5a4.954,4.954,0,0,1,.926-3.133,3,3,0,0,1,2.5-1.187,2.631,2.631,0,0,1,2.164.953l.094-.8h2.047v8.172a3.613,3.613,0,0,1-.5,1.93,3.236,3.236,0,0,1-1.418,1.25,4.985,4.985,0,0,1-2.141.43,4.635,4.635,0,0,1-1.812-.371A3.217,3.217,0,0,1,31.336,26l1-1.375a2.645,2.645,0,0,0,2.047.945,1.936,1.936,0,0,0,1.4-.48,1.8,1.8,0,0,0,.5-1.363v-.453a2.612,2.612,0,0,1-2.055.883,2.992,2.992,0,0,1-2.465-1.191,4.953,4.953,0,0,1-.941-3.16Zm2.258.161a3.1,3.1,0,0,0,.461,1.809,1.465,1.465,0,0,0,1.266.655,1.567,1.567,0,0,0,1.477-.777V17.988a1.563,1.563,0,0,0-1.461-.777,1.474,1.474,0,0,0-1.277.667A3.5,3.5,0,0,0,33.078,19.872ZM42.664,24H40.4V15.547h2.266Zm-2.4-10.641a1.112,1.112,0,0,1,.34-.836,1.465,1.465,0,0,1,1.848,0,1.193,1.193,0,0,1,0,1.68,1.448,1.448,0,0,1-1.836,0A1.108,1.108,0,0,1,40.266,13.359ZM44.172,19.7a5.013,5.013,0,0,1,.484-2.242,3.546,3.546,0,0,1,1.395-1.523,4.069,4.069,0,0,1,2.113-.539,3.849,3.849,0,0,1,2.793,1.047,4.2,4.2,0,0,1,1.207,2.844l.016.578a4.418,4.418,0,0,1-1.086,3.121,4.209,4.209,0,0,1-5.832,0,4.5,4.5,0,0,1-1.09-3.187Zm2.258.16a3.16,3.16,0,0,0,.453,1.843,1.628,1.628,0,0,0,2.578.008,3.457,3.457,0,0,0,.461-2.015,3.128,3.128,0,0,0-.461-1.831,1.5,1.5,0,0,0-1.3-.649,1.474,1.474,0,0,0-1.281.646A3.516,3.516,0,0,0,46.43,19.856Zm11.719,1.808a.727.727,0,0,0-.41-.652,4.659,4.659,0,0,0-1.316-.426q-3.016-.633-3.016-2.562a2.323,2.323,0,0,1,.934-1.879,3.766,3.766,0,0,1,2.441-.754,4.053,4.053,0,0,1,2.574.758,2.388,2.388,0,0,1,.965,1.969H58.063a1.092,1.092,0,0,0-.312-.8A1.322,1.322,0,0,0,56.773,17a1.351,1.351,0,0,0-.883.258.814.814,0,0,0-.312.656.7.7,0,0,0,.355.605,3.657,3.657,0,0,0,1.2.4,9.8,9.8,0,0,1,1.422.379,2.336,2.336,0,0,1,1.789,2.273,2.2,2.2,0,0,1-.992,1.871,4.28,4.28,0,0,1-2.562.715,4.47,4.47,0,0,1-1.887-.379,3.166,3.166,0,0,1-1.293-1.039,2.414,2.414,0,0,1-.469-1.426h2.141a1.179,1.179,0,0,0,.445.922,1.766,1.766,0,0,0,1.109.32,1.635,1.635,0,0,0,.98-.246A.766.766,0,0,0,58.148,21.664Z" transform="translate(963 7813)" fill="#12263f"/>
      <g id="Grupo_87778" data-name="Grupo 87778" transform="translate(497.531 7126.5)">
        <g id="Grupo_87777" data-name="Grupo 87777" transform="translate(447.091 603.926)">
          <path id="Trazado_101778" data-name="Trazado 101778" d="M537.787,612.846l-26.52,1.439-.066-.845a6.5,6.5,0,0,0-6.006-6.006l-2-.155a1.963,1.963,0,0,1-1.126-.468L500.54,605.5a6.5,6.5,0,0,0-8.493,0l-1.531,1.308a1.945,1.945,0,0,1-1.12.466l-2,.155a6.5,6.5,0,0,0-6.008,6.006l-.066.846-26.642-1.444c-4.323,0-7.585,5.067-7.585,11.786,0,6.7,3.258,11.757,7.711,11.757h0l24.8-1.43-6.27,13.451a3.735,3.735,0,0,0,4.073,5.264l4.24-.792,2.072,3.751a3.741,3.741,0,0,0,3.283,1.946h.093a3.784,3.784,0,0,0,3.318-2.166l5.877-12.647,5.894,12.688a3.766,3.766,0,0,0,3.3,2.125h.1a3.739,3.739,0,0,0,3.283-1.944l2.072-3.753,4.2.782a3.732,3.732,0,0,0,4.12-5.239l-6.276-13.469,24.934,1.436c4.323,0,7.583-5.057,7.583-11.761C545.494,617.844,542.145,612.657,537.787,612.846Zm-83.111,18.971c-1.063,0-3.013-2.728-3.013-7.189,0-4.477,1.95-7.215,2.889-7.218L479,618.736a6.474,6.474,0,0,0,.456,7.852l1.306,1.527a1.962,1.962,0,0,1,.466,1.126l.08,1.039Zm32.275,21.207-1.6-2.891a3.8,3.8,0,0,0-3.3-1.911,3.844,3.844,0,0,0-.664.056l-3.231.6,5.967-12.8a6.521,6.521,0,0,0,3.266,1.169l2.006.157a1.993,1.993,0,0,1,1.124.466l1.525,1.3a6.674,6.674,0,0,0,1.01.711ZM499.1,634.4l-1.529,1.308a1.953,1.953,0,0,1-2.552,0l-1.527-1.306a6.5,6.5,0,0,0-3.737-1.548l-2.006-.157a1.953,1.953,0,0,1-1.8-1.8l-.155-2a6.5,6.5,0,0,0-1.549-3.741l-1.308-1.529a1.95,1.95,0,0,1,0-2.552l1.306-1.527a6.577,6.577,0,0,0,1.549-3.741l.155-2a1.953,1.953,0,0,1,1.8-1.8l2-.155a6.483,6.483,0,0,0,3.739-1.551l1.529-1.306a1.95,1.95,0,0,1,2.552,0l1.525,1.306a6.5,6.5,0,0,0,3.743,1.551l2,.155a1.972,1.972,0,0,1,1.8,1.8l.155,2a6.567,6.567,0,0,0,1.55,3.741l1.306,1.529a1.953,1.953,0,0,1,0,2.552l-1.3,1.523a6.487,6.487,0,0,0-1.552,3.745l-.155,2a1.95,1.95,0,0,1-1.8,1.8l-2,.157A6.5,6.5,0,0,0,499.1,634.4Zm15.331,14.483-3.256-.607a3.805,3.805,0,0,0-3.957,1.888l-1.581,2.862-6.1-13.138a6.605,6.605,0,0,0,1.007-.709l1.525-1.3a1.962,1.962,0,0,1,1.129-.468l2-.157a6.542,6.542,0,0,0,3.267-1.168Zm23.615-17.06-26.767-1.544.081-1.037a1.959,1.959,0,0,1,.468-1.126l1.306-1.525a6.48,6.48,0,0,0,.455-7.854l24.365-1.322c1.071.066,2.973,2.792,2.973,7.215C540.923,629.089,538.972,631.817,538.043,631.821Z" transform="translate(-447.091 -603.926)" fill="#12263f"/>
          <path id="Trazado_101779" data-name="Trazado 101779" d="M805.866,713.74a2.286,2.286,0,0,0-3.233,0l-5.493,5.5-1.919-1.917a2.285,2.285,0,0,0-3.229,3.233l3.534,3.531a2.284,2.284,0,0,0,3.231,0l7.11-7.11A2.286,2.286,0,0,0,805.866,713.74Z" transform="translate(-749.971 -699.96)" fill="#12263f"/>
        </g>
      </g>
    </g>
    <g id="Grupo_88421" data-name="Grupo 88421">
      <g transform="matrix(1, 0, 0, 1, 390, 7599)" filter="url(#Rectángulo_34301)">
        <rect id="Rectángulo_34301-2" data-name="Rectángulo 34301" width="163.22" height="163.22" rx="22" transform="translate(145.29 385.59) rotate(-45)" fill="#e8e8e8"/>
      </g>
      <path id="Trazado_103362" data-name="Trazado 103362" d="M-28.4-2.984A1.2,1.2,0,0,0-28.871-4a6.148,6.148,0,0,0-1.687-.75,11.962,11.962,0,0,1-1.93-.777,3.153,3.153,0,0,1-1.937-2.82A2.747,2.747,0,0,1-33.906-10a3.389,3.389,0,0,1,1.492-1.129,5.616,5.616,0,0,1,2.184-.406,5.112,5.112,0,0,1,2.172.441,3.458,3.458,0,0,1,1.48,1.246,3.261,3.261,0,0,1,.527,1.828h-2.344a1.534,1.534,0,0,0-.492-1.215,2.023,2.023,0,0,0-1.383-.434,2.162,2.162,0,0,0-1.336.363,1.146,1.146,0,0,0-.477.957,1.1,1.1,0,0,0,.559.93,6.311,6.311,0,0,0,1.645.7,7.106,7.106,0,0,1,2.914,1.492A2.972,2.972,0,0,1-26.051-3,2.737,2.737,0,0,1-27.168-.684a4.891,4.891,0,0,1-3.008.84,5.808,5.808,0,0,1-2.391-.48,3.783,3.783,0,0,1-1.645-1.316,3.371,3.371,0,0,1-.566-1.937h2.352q0,1.883,2.25,1.883a2.189,2.189,0,0,0,1.3-.34A1.106,1.106,0,0,0-28.4-2.984Zm7.68,3.141A4.15,4.15,0,0,1-23.75-.984a4.054,4.054,0,0,1-1.168-3.039v-.219a5.106,5.106,0,0,1,.492-2.277,3.612,3.612,0,0,1,1.395-1.547,3.914,3.914,0,0,1,2.059-.543,3.508,3.508,0,0,1,2.73,1.094,4.444,4.444,0,0,1,1,3.1v.922h-5.383a2.1,2.1,0,0,0,.66,1.328,2,2,0,0,0,1.395.5,2.437,2.437,0,0,0,2.039-.945l1.109,1.242A3.389,3.389,0,0,1-18.8-.246,4.511,4.511,0,0,1-20.723.156Zm-.258-6.945a1.411,1.411,0,0,0-1.09.455,2.357,2.357,0,0,0-.535,1.3h3.141v-.181a1.681,1.681,0,0,0-.406-1.165A1.456,1.456,0,0,0-20.98-6.789Zm9.766.453a6.134,6.134,0,0,0-.812-.062,1.654,1.654,0,0,0-1.68.867V0h-2.258V-8.453h2.133l.063,1.008a2.092,2.092,0,0,1,1.883-1.164,2.366,2.366,0,0,1,.7.1Zm4.391,3.578,1.57-5.7h2.359L-5.746,0H-7.9l-2.852-8.453h2.359ZM.48,0H-1.785V-8.453H.48Zm-2.4-10.641a1.112,1.112,0,0,1,.34-.836A1.277,1.277,0,0,1-.652-11.8a1.28,1.28,0,0,1,.922.328,1.105,1.105,0,0,1,.344.836A1.108,1.108,0,0,1,.266-9.8a1.283,1.283,0,0,1-.918.328A1.283,1.283,0,0,1-1.57-9.8,1.108,1.108,0,0,1-1.918-10.641ZM5.855-1.664a1.481,1.481,0,0,0,1.016-.344,1.2,1.2,0,0,0,.406-.914H9.395a2.9,2.9,0,0,1-.469,1.574A3.093,3.093,0,0,1,7.664-.238a3.949,3.949,0,0,1-1.77.395A3.67,3.67,0,0,1,3.035-1,4.56,4.56,0,0,1,1.988-4.18v-.148A4.508,4.508,0,0,1,3.027-7.445,3.627,3.627,0,0,1,5.879-8.609a3.555,3.555,0,0,1,2.543.9,3.2,3.2,0,0,1,.973,2.4H7.277a1.551,1.551,0,0,0-.406-1.072A1.354,1.354,0,0,0,5.84-6.789a1.36,1.36,0,0,0-1.191.575,3.333,3.333,0,0,0-.4,1.866v.235a3.375,3.375,0,0,0,.4,1.878A1.377,1.377,0,0,0,5.855-1.664ZM13.066,0H10.8V-8.453h2.266Zm-2.4-10.641a1.112,1.112,0,0,1,.34-.836,1.277,1.277,0,0,1,.926-.328,1.28,1.28,0,0,1,.922.328,1.105,1.105,0,0,1,.344.836,1.108,1.108,0,0,1-.348.844,1.283,1.283,0,0,1-.918.328,1.283,1.283,0,0,1-.918-.328A1.108,1.108,0,0,1,10.668-10.641ZM14.574-4.3a5.013,5.013,0,0,1,.484-2.242A3.546,3.546,0,0,1,16.453-8.07a4.069,4.069,0,0,1,2.113-.539,3.849,3.849,0,0,1,2.793,1.047,4.2,4.2,0,0,1,1.207,2.844l.016.578A4.418,4.418,0,0,1,21.5-1.02,3.775,3.775,0,0,1,18.582.156a3.793,3.793,0,0,1-2.918-1.172A4.5,4.5,0,0,1,14.574-4.2Zm2.258.16A3.16,3.16,0,0,0,17.285-2.3a1.5,1.5,0,0,0,1.3.638,1.5,1.5,0,0,0,1.281-.63,3.457,3.457,0,0,0,.461-2.015,3.128,3.128,0,0,0-.461-1.831,1.5,1.5,0,0,0-1.3-.649,1.474,1.474,0,0,0-1.281.646A3.516,3.516,0,0,0,16.832-4.144ZM28.551-2.336a.727.727,0,0,0-.41-.652,4.659,4.659,0,0,0-1.316-.426q-3.016-.633-3.016-2.562a2.323,2.323,0,0,1,.934-1.879,3.766,3.766,0,0,1,2.441-.754,4.053,4.053,0,0,1,2.574.758,2.388,2.388,0,0,1,.965,1.969H28.465a1.092,1.092,0,0,0-.312-.8A1.322,1.322,0,0,0,27.176-7a1.351,1.351,0,0,0-.883.258.814.814,0,0,0-.312.656.7.7,0,0,0,.355.605,3.657,3.657,0,0,0,1.2.4,9.8,9.8,0,0,1,1.422.379A2.336,2.336,0,0,1,30.746-2.43a2.2,2.2,0,0,1-.992,1.871,4.28,4.28,0,0,1-2.562.715A4.47,4.47,0,0,1,25.3-.223a3.166,3.166,0,0,1-1.293-1.039,2.414,2.414,0,0,1-.469-1.426h2.141a1.179,1.179,0,0,0,.445.922,1.766,1.766,0,0,0,1.109.32,1.635,1.635,0,0,0,.98-.246A.766.766,0,0,0,28.551-2.336ZM-22.059,19.852a5.07,5.07,0,0,1-.887,3.129,2.843,2.843,0,0,1-2.395,1.176,2.633,2.633,0,0,1-2.07-.891V27.25h-2.258v-11.7h2.094l.078.828a2.654,2.654,0,0,1,2.141-.984,2.862,2.862,0,0,1,2.43,1.156,5.207,5.207,0,0,1,.867,3.188Zm-2.258-.172a3.345,3.345,0,0,0-.418-1.826,1.36,1.36,0,0,0-1.215-.643,1.478,1.478,0,0,0-1.461.815V21.5a1.5,1.5,0,0,0,1.477.839Q-24.316,22.336-24.316,19.679Zm8.719,3.461a2.831,2.831,0,0,1-2.312,1.016,2.67,2.67,0,0,1-2.074-.781,3.335,3.335,0,0,1-.73-2.289V15.547h2.258v5.467q0,1.322,1.2,1.322a1.63,1.63,0,0,0,1.578-.8V15.547h2.266V24h-2.125ZM-16.605,12h2.461l-2.164,2.422h-1.836ZM-4.09,19.852a5.119,5.119,0,0,1-.867,3.168,2.872,2.872,0,0,1-2.422,1.137,2.639,2.639,0,0,1-2.2-1.055l-.1.9h-2.031V12h2.258v4.3a2.571,2.571,0,0,1,2.055-.914,2.9,2.9,0,0,1,2.426,1.137,5.126,5.126,0,0,1,.879,3.2Zm-2.258-.172A3.381,3.381,0,0,0-6.754,17.8a1.372,1.372,0,0,0-1.211-.592,1.489,1.489,0,0,0-1.484.885v3.346a1.509,1.509,0,0,0,1.5.893,1.4,1.4,0,0,0,1.438-1.081A5.6,5.6,0,0,0-6.348,19.679ZM-.316,24H-2.582V12H-.316Zm4.242,0H1.66V15.547H3.926Zm-2.4-10.641a1.112,1.112,0,0,1,.34-.836,1.277,1.277,0,0,1,.926-.328,1.28,1.28,0,0,1,.922.328,1.193,1.193,0,0,1,0,1.68,1.283,1.283,0,0,1-.918.328,1.283,1.283,0,0,1-.918-.328A1.108,1.108,0,0,1,1.527,13.359ZM9.3,22.336a1.481,1.481,0,0,0,1.016-.344,1.2,1.2,0,0,0,.406-.914H12.84a2.9,2.9,0,0,1-.469,1.574,3.093,3.093,0,0,1-1.262,1.109,3.949,3.949,0,0,1-1.77.395A3.67,3.67,0,0,1,6.48,23,4.56,4.56,0,0,1,5.434,19.82v-.148a4.508,4.508,0,0,1,1.039-3.117,3.627,3.627,0,0,1,2.852-1.164,3.555,3.555,0,0,1,2.543.9,3.2,3.2,0,0,1,.973,2.4H10.723a1.551,1.551,0,0,0-.406-1.072,1.354,1.354,0,0,0-1.031-.412,1.36,1.36,0,0,0-1.191.575,3.333,3.333,0,0,0-.4,1.866v.235a3.375,3.375,0,0,0,.4,1.878A1.377,1.377,0,0,0,9.3,22.336ZM13.777,19.7a5.013,5.013,0,0,1,.484-2.242,3.546,3.546,0,0,1,1.395-1.523,4.069,4.069,0,0,1,2.113-.539,3.849,3.849,0,0,1,2.793,1.047,4.2,4.2,0,0,1,1.207,2.844l.016.578A4.418,4.418,0,0,1,20.7,22.98a3.775,3.775,0,0,1-2.914,1.176,3.793,3.793,0,0,1-2.918-1.172,4.5,4.5,0,0,1-1.09-3.187Zm2.258.16a3.16,3.16,0,0,0,.453,1.843,1.628,1.628,0,0,0,2.578.008,3.457,3.457,0,0,0,.461-2.015,3.128,3.128,0,0,0-.461-1.831,1.5,1.5,0,0,0-1.3-.649,1.474,1.474,0,0,0-1.281.646A3.516,3.516,0,0,0,16.035,19.856Zm11.719,1.808a.727.727,0,0,0-.41-.652,4.659,4.659,0,0,0-1.316-.426q-3.016-.633-3.016-2.562a2.323,2.323,0,0,1,.934-1.879,3.766,3.766,0,0,1,2.441-.754,4.053,4.053,0,0,1,2.574.758,2.388,2.388,0,0,1,.965,1.969H27.668a1.092,1.092,0,0,0-.312-.8A1.322,1.322,0,0,0,26.379,17a1.351,1.351,0,0,0-.883.258.814.814,0,0,0-.312.656.7.7,0,0,0,.355.605,3.657,3.657,0,0,0,1.2.4,9.8,9.8,0,0,1,1.422.379,2.336,2.336,0,0,1,1.789,2.273,2.2,2.2,0,0,1-.992,1.871,4.28,4.28,0,0,1-2.562.715,4.47,4.47,0,0,1-1.887-.379,3.166,3.166,0,0,1-1.293-1.039,2.414,2.414,0,0,1-.469-1.426h2.141a1.179,1.179,0,0,0,.445.922,1.766,1.766,0,0,0,1.109.32,1.635,1.635,0,0,0,.98-.246A.766.766,0,0,0,27.754,21.664Z" transform="translate(651 8012)" fill="#12263f"/>
      <g id="Grupo_87779" data-name="Grupo 87779" transform="translate(270.705 7890.158)">
        <path id="Trazado_101780" data-name="Trazado 101780" d="M423.438,41.354l-7.565,7.566-.535.534L390.822,73.972l-.827,8.587,8.588-.824L423.1,57.218l.535-.535,7.566-7.566a2.852,2.852,0,0,0,0-4.035l-3.73-3.728A2.852,2.852,0,0,0,423.438,41.354Zm-2.493,15.329L397.723,79.907l-5.615.539.541-5.612,23.224-23.225Z" transform="translate(6.006)" fill="#12263f"/>
        <path id="Trazado_101781" data-name="Trazado 101781" d="M411.269,76.68V88.4a2.61,2.61,0,0,1-2.8,2.361H350.945a2.611,2.611,0,0,1-2.8-2.361V64.112H356.2a5.447,5.447,0,0,0,5.653-5.215V49.411h46.617a2.61,2.61,0,0,1,2.8,2.359v5.177l2.854-2.853V51.77a5.445,5.445,0,0,0-5.651-5.212H359L345.3,61.258V88.4a5.444,5.444,0,0,0,5.65,5.212h57.526a5.445,5.445,0,0,0,5.651-5.212V73.827ZM359,49.411V58.9a2.611,2.611,0,0,1-2.8,2.361h-8.054Z" transform="translate(0 0.812)" fill="#12263f"/>
        <path id="Trazado_101782" data-name="Trazado 101782" d="M378.16,81.1c-.83.312-.239-1.547-.216-1.763a.282.282,0,0,0-.133-.3c-.85-.537-2.37,1.14-2.958,1.595-.807.625-1.443,1.45-2.193,2.138-1.53,1.408-1.7-.42-2.148-1.68,2.865-3.243,5.617-7.556,6.02-11.661.071-.5-.525-.512-.665-.087A32.55,32.55,0,0,1,370.9,79.1q-.415.546-.843,1.062c-1.969-3.022-6.737-.708-8.162,2.029-.573,1.1,1.378,2.033,2.03,2.357,1.8.9,3.7-.489,4.93-1.692.309-.305.623-.631.938-.966.019.05.042.1.06.146.434,1.212.459,3.815,2.375,2.283a11.5,11.5,0,0,0,2.035-2.2,9.114,9.114,0,0,1,2.076-1.883c1.342-.974.779.556.643,1.418a.3.3,0,0,0,.475.315,2.958,2.958,0,0,0,.788-.714C378.3,81.182,378.249,81.07,378.16,81.1Zm-11.079,1.969c-3.518,2.741-5.066-1.057-3.07-2.269,2.031-1.233,4.11-1.528,5.31.185A18.508,18.508,0,0,1,367.081,83.072Z" transform="translate(2.216 3.832)" fill="#12263f"/>
        <path id="Trazado_101783" data-name="Trazado 101783" d="M376.8,79.491c-.093.371-.524,1.536.288,1.386.056-.01.1-.121.032-.144-.413-.128-.023-.918.053-1.2S376.864,79.235,376.8,79.491Z" transform="translate(4.207 5.213)" fill="#12263f"/>
        <path id="Trazado_101784" data-name="Trazado 101784" d="M391.878,76.854a10.531,10.531,0,0,0-1.437.307A17.334,17.334,0,0,0,385.8,79.2a8.909,8.909,0,0,0-1.361,1.3c1.517-2.227,3.174-4.5,3.929-7.021.073-.239-.153-.586-.429-.508-2.395.676-4.772,2.96-6.637,4.537-1.035.878-2.485,2.543-2.16,4.007a.144.144,0,0,0,.121.112l.244.017a.1.1,0,0,0,.074-.158c-1.345-1.571,6.219-6.322,7.3-7.114.991-.723-.036.42-.211.753-.548,1.047-1.2,2.043-1.844,3.038-.812,1.268-1.7,2.483-2.458,3.788a.472.472,0,0,0,.572.682A7.249,7.249,0,0,0,384.4,81.5a19.59,19.59,0,0,1,5.338-2.978,12.757,12.757,0,0,1,2.142-.562Z" transform="translate(4.542 4.359)" fill="#12263f"/>
        <rect id="Rectángulo_34308" data-name="Rectángulo 34308" width="34.001" height="4.992" transform="translate(367.892 53.729)" fill="#12263f"/>
        <rect id="Rectángulo_34309" data-name="Rectángulo 34309" width="25.085" height="2.46" transform="translate(367.892 62.014)" fill="#12263f"/>
        <rect id="Rectángulo_34310" data-name="Rectángulo 34310" width="25.085" height="2.46" transform="translate(367.892 67.347)" fill="#12263f"/>
      </g>
    </g>
    <g id="Grupo_88423" data-name="Grupo 88423">
      <g transform="matrix(1, 0, 0, 1, 390, 7599)" filter="url(#Rectángulo_34302)">
        <rect id="Rectángulo_34302-2" data-name="Rectángulo 34302" width="163.22" height="163.22" rx="22" transform="translate(444.79 385.59) rotate(-45)" fill="#636363"/>
      </g>
      <path id="Trazado_103367" data-name="Trazado 103367" d="M5.227-4.164H3.359V0H1.016V-11.375H5.242a4.778,4.778,0,0,1,3.109.9A3.1,3.1,0,0,1,9.445-7.937,3.5,3.5,0,0,1,8.941-6,3.437,3.437,0,0,1,7.414-4.758L9.875-.109V0H7.359Zm-1.867-1.9H5.25a1.936,1.936,0,0,0,1.367-.449A1.606,1.606,0,0,0,7.1-7.75a1.719,1.719,0,0,0-.457-1.266,1.9,1.9,0,0,0-1.4-.461H3.359ZM10.727-4.3a5.013,5.013,0,0,1,.484-2.242A3.546,3.546,0,0,1,12.605-8.07a4.069,4.069,0,0,1,2.113-.539,3.849,3.849,0,0,1,2.793,1.047,4.2,4.2,0,0,1,1.207,2.844l.016.578A4.418,4.418,0,0,1,17.648-1.02,3.775,3.775,0,0,1,14.734.156a3.793,3.793,0,0,1-2.918-1.172A4.5,4.5,0,0,1,10.727-4.2Zm2.258.16A3.16,3.16,0,0,0,13.438-2.3a1.5,1.5,0,0,0,1.3.638,1.5,1.5,0,0,0,1.281-.63,3.457,3.457,0,0,0,.461-2.015,3.128,3.128,0,0,0-.461-1.831,1.5,1.5,0,0,0-1.3-.649,1.474,1.474,0,0,0-1.281.646A3.516,3.516,0,0,0,12.984-4.144Zm14.75,0a5.07,5.07,0,0,1-.887,3.129A2.843,2.843,0,0,1,24.453.156a2.633,2.633,0,0,1-2.07-.891V3.25H20.125v-11.7h2.094l.078.828a2.654,2.654,0,0,1,2.141-.984,2.862,2.862,0,0,1,2.43,1.156,5.207,5.207,0,0,1,.867,3.188Zm-2.258-.172a3.345,3.345,0,0,0-.418-1.826,1.36,1.36,0,0,0-1.215-.643,1.478,1.478,0,0,0-1.461.815V-2.5a1.5,1.5,0,0,0,1.477.839Q25.477-1.664,25.477-4.321ZM34.031,0A2.507,2.507,0,0,1,33.8-.758a2.732,2.732,0,0,1-2.133.914,3,3,0,0,1-2.059-.719A2.312,2.312,0,0,1,28.8-2.375a2.389,2.389,0,0,1,1-2.062,4.915,4.915,0,0,1,2.879-.727h1.039v-.484a1.393,1.393,0,0,0-.3-.937,1.183,1.183,0,0,0-.949-.352,1.345,1.345,0,0,0-.895.273.929.929,0,0,0-.324.75H28.984a2.268,2.268,0,0,1,.453-1.359,3,3,0,0,1,1.281-.98,4.669,4.669,0,0,1,1.859-.355,3.689,3.689,0,0,1,2.48.785,2.747,2.747,0,0,1,.918,2.207v3.664a4.041,4.041,0,0,0,.336,1.82V0ZM32.164-1.57a1.945,1.945,0,0,0,.922-.223,1.462,1.462,0,0,0,.625-.6V-3.844h-.844q-1.7,0-1.8,1.172l-.008.133a.9.9,0,0,0,.3.7A1.153,1.153,0,0,0,32.164-1.57Z" transform="translate(932 8036)" fill="#fff"/>
      <g id="Grupo_87781" data-name="Grupo 87781" transform="translate(611.177 7757.47)">
        <g id="Grupo_87780" data-name="Grupo 87780" transform="translate(312.828 168.75)">
          <path id="Trazado_101785" data-name="Trazado 101785" d="M325.55,206.925h25.556a1.44,1.44,0,0,0,1.029-.423,19.574,19.574,0,0,0,5.819-13.626,14.852,14.852,0,0,0-.975-5.1v-9.661a1.866,1.866,0,0,0-1.865-1.865h-1.865a1.866,1.866,0,0,0-1.865,1.865v4.875c-5.8,1-10.918,4.771-13.056,9.885-2.137-5.114-7.251-8.883-13.056-9.885v-4.875a1.866,1.866,0,0,0-1.865-1.865h-1.865a1.866,1.866,0,0,0-1.865,1.865v9.661a14.871,14.871,0,0,0-.975,5.1A19.574,19.574,0,0,0,324.52,206.5,1.44,1.44,0,0,0,325.55,206.925Zm28.467,5.467a1.8,1.8,0,0,0-1.442-.705H324.08a1.8,1.8,0,0,0-1.442.705c-5.493,7.261-9.452,17.994-9.81,30.065a.917.917,0,0,0,.914.936h49.173a.916.916,0,0,0,.912-.936C363.469,230.386,359.51,219.653,354.017,212.392Z" transform="translate(-312.828 -162.261)" fill="#fff"/>
          <path id="Trazado_101786" data-name="Trazado 101786" d="M339.178,183.658a17.771,17.771,0,0,0-6.487-1.958l.015-2.083a5.625,5.625,0,0,0,3.568-6.565,5.6,5.6,0,0,0-11.043,1.294,1.865,1.865,0,1,0,3.73,0,1.866,1.866,0,0,1,.7-1.46,1.91,1.91,0,0,1,1.624-.351,1.848,1.848,0,0,1,1.348,1.347,1.872,1.872,0,0,1-1.184,2.221,3.644,3.644,0,0,0-2.492,3.434v2.091a18.052,18.052,0,0,0-6.4,1.664,1.865,1.865,0,0,0,1.615,3.363,15.216,15.216,0,0,1,13.222.284,1.866,1.866,0,0,0,1.783-3.279Z" transform="translate(-305.326 -168.75)" fill="#fff"/>
        </g>
      </g>
    </g>
    <g id="Grupo_87343" data-name="Grupo 87343" transform="translate(20 5055)">
      <path id="Trazado_103359" data-name="Trazado 103359" d="M6.3,7.728H2.292V11H6.944v1H1.073V2.758H6.881v1H2.292V6.731H6.3Zm3.193-2.6v7.662q0,1.98-1.8,1.98a2.191,2.191,0,0,1-.717-.114v-.934a2.27,2.27,0,0,0,.533.051.8.8,0,0,0,.6-.213,1.052,1.052,0,0,0,.206-.74V5.132ZM8.195,3.31a.7.7,0,0,1,.175-.479.642.642,0,0,1,.511-.2.666.666,0,0,1,.521.2.694.694,0,0,1,.178.482.671.671,0,0,1-.178.476.678.678,0,0,1-.521.19.657.657,0,0,1-.514-.19A.685.685,0,0,1,8.195,3.31Zm6.037,8.817a3,3,0,0,1-2.272-.917,3.4,3.4,0,0,1-.876-2.453V8.541a4.121,4.121,0,0,1,.39-1.825,3.045,3.045,0,0,1,1.092-1.257A2.745,2.745,0,0,1,14.085,5a2.572,2.572,0,0,1,2.082.882,3.82,3.82,0,0,1,.743,2.526V8.9H12.257a2.441,2.441,0,0,0,.594,1.641,1.866,1.866,0,0,0,1.444.625,2.045,2.045,0,0,0,1.054-.254,2.648,2.648,0,0,0,.755-.673l.717.559A2.884,2.884,0,0,1,14.231,12.127ZM14.085,5.97a1.566,1.566,0,0,0-1.193.517,2.515,2.515,0,0,0-.6,1.45h3.44V7.849a2.237,2.237,0,0,0-.482-1.387A1.475,1.475,0,0,0,14.085,5.97Zm5.288-.838.032.762A2.536,2.536,0,0,1,21.442,5a1.964,1.964,0,0,1,1.961,1.1,2.6,2.6,0,0,1,.892-.8,2.634,2.634,0,0,1,1.3-.3q2.26,0,2.3,2.393V12H26.717V7.468a1.577,1.577,0,0,0-.336-1.1A1.482,1.482,0,0,0,25.251,6a1.557,1.557,0,0,0-1.085.39,1.584,1.584,0,0,0-.5,1.051V12H22.483V7.5A1.31,1.31,0,0,0,21.017,6a1.571,1.571,0,0,0-1.581.984V12H18.262V5.132Zm16.091,3.51a4.113,4.113,0,0,1-.717,2.526,2.3,2.3,0,0,1-1.942.958,2.519,2.519,0,0,1-1.968-.793v3.307H29.663V5.132h1.073l.057.762A2.419,2.419,0,0,1,32.786,5a2.342,2.342,0,0,1,1.958.933,4.157,4.157,0,0,1,.72,2.6ZM34.29,8.509a3.035,3.035,0,0,0-.5-1.834A1.6,1.6,0,0,0,32.437,6a1.726,1.726,0,0,0-1.6.946v3.282a1.73,1.73,0,0,0,1.612.939,1.587,1.587,0,0,0,1.343-.67A3.312,3.312,0,0,0,34.29,8.509ZM38.232,12H37.058V2.25h1.174ZM39.8,8.5a4.057,4.057,0,0,1,.4-1.815,2.96,2.96,0,0,1,1.1-1.244A3.007,3.007,0,0,1,42.917,5a2.9,2.9,0,0,1,2.269.971,3.736,3.736,0,0,1,.866,2.583v.083a4.092,4.092,0,0,1-.384,1.8,2.916,2.916,0,0,1-1.1,1.241,3.041,3.041,0,0,1-1.641.444,2.889,2.889,0,0,1-2.263-.971A3.718,3.718,0,0,1,39.8,8.585Zm1.181.14a2.938,2.938,0,0,0,.53,1.834,1.8,1.8,0,0,0,2.841-.01A3.213,3.213,0,0,0,44.878,8.5a2.933,2.933,0,0,0-.536-1.831,1.705,1.705,0,0,0-1.425-.7,1.686,1.686,0,0,0-1.4.692A3.189,3.189,0,0,0,40.98,8.642Zm10.543,1.536a.865.865,0,0,0-.359-.74,3.452,3.452,0,0,0-1.25-.454A5.912,5.912,0,0,1,48.5,8.528a2.014,2.014,0,0,1-.774-.635,1.518,1.518,0,0,1-.251-.876,1.782,1.782,0,0,1,.714-1.428A2.789,2.789,0,0,1,50.013,5a2.87,2.87,0,0,1,1.895.6,1.915,1.915,0,0,1,.727,1.542H51.454a1.06,1.06,0,0,0-.409-.832,1.534,1.534,0,0,0-1.031-.349,1.605,1.605,0,0,0-1,.279.879.879,0,0,0-.362.73.712.712,0,0,0,.336.641,4.139,4.139,0,0,0,1.216.413,6.334,6.334,0,0,1,1.425.47,2.079,2.079,0,0,1,.809.657,1.615,1.615,0,0,1,.263.936,1.758,1.758,0,0,1-.736,1.476,3.089,3.089,0,0,1-1.911.555,3.459,3.459,0,0,1-1.46-.292,2.375,2.375,0,0,1-.993-.816,1.966,1.966,0,0,1-.359-1.133h1.174a1.216,1.216,0,0,0,.473.936,1.835,1.835,0,0,0,1.165.346,1.894,1.894,0,0,0,1.07-.27A.829.829,0,0,0,51.524,10.178Zm5.637-1.669a4.023,4.023,0,0,1,.749-2.542,2.548,2.548,0,0,1,3.872-.136V2.25h1.174V12H61.877l-.057-.736a2.391,2.391,0,0,1-1.961.863,2.346,2.346,0,0,1-1.946-.978A4.069,4.069,0,0,1,57.161,8.6Zm1.174.133a3.046,3.046,0,0,0,.482,1.828,1.56,1.56,0,0,0,1.333.66,1.713,1.713,0,0,0,1.631-1V6.973A1.726,1.726,0,0,0,60.163,6a1.567,1.567,0,0,0-1.346.667A3.354,3.354,0,0,0,58.335,8.642Zm9.293,3.485a3,3,0,0,1-2.272-.917,3.4,3.4,0,0,1-.876-2.453V8.541a4.121,4.121,0,0,1,.39-1.825,3.045,3.045,0,0,1,1.092-1.257A2.745,2.745,0,0,1,67.482,5a2.572,2.572,0,0,1,2.082.882,3.82,3.82,0,0,1,.743,2.526V8.9H65.654a2.441,2.441,0,0,0,.594,1.641,1.866,1.866,0,0,0,1.444.625,2.045,2.045,0,0,0,1.054-.254,2.648,2.648,0,0,0,.755-.673l.717.559A2.884,2.884,0,0,1,67.628,12.127ZM67.482,5.97a1.566,1.566,0,0,0-1.193.517,2.515,2.515,0,0,0-.6,1.45h3.44V7.849a2.237,2.237,0,0,0-.482-1.387A1.475,1.475,0,0,0,67.482,5.97ZM74.6,8.509a4.037,4.037,0,0,1,.743-2.555,2.56,2.56,0,0,1,3.929-.06l.057-.762h1.073v6.7a2.794,2.794,0,0,1-.79,2.1,2.916,2.916,0,0,1-2.123.768,3.532,3.532,0,0,1-1.454-.317,2.5,2.5,0,0,1-1.085-.87l.609-.7a2.3,2.3,0,0,0,1.847.933,1.8,1.8,0,0,0,1.336-.482,1.844,1.844,0,0,0,.479-1.358v-.59a2.414,2.414,0,0,1-1.923.813,2.346,2.346,0,0,1-1.952-.971A4.244,4.244,0,0,1,74.6,8.509Zm1.181.133a3.08,3.08,0,0,0,.476,1.825,1.547,1.547,0,0,0,1.333.663,1.72,1.72,0,0,0,1.631-1.009V6.985A1.74,1.74,0,0,0,77.606,6a1.561,1.561,0,0,0-1.339.667A3.354,3.354,0,0,0,75.785,8.642ZM86.417,12a2.467,2.467,0,0,1-.165-.724,2.62,2.62,0,0,1-1.955.851,2.424,2.424,0,0,1-1.666-.574A1.859,1.859,0,0,1,81.98,10.1,1.942,1.942,0,0,1,82.8,8.429a3.846,3.846,0,0,1,2.295-.594h1.143V7.3a1.319,1.319,0,0,0-.368-.981,1.48,1.48,0,0,0-1.085-.365,1.712,1.712,0,0,0-1.054.317.935.935,0,0,0-.425.768H82.12a1.621,1.621,0,0,1,.365-.993,2.491,2.491,0,0,1,.99-.759A3.331,3.331,0,0,1,84.849,5a2.715,2.715,0,0,1,1.86.594,2.141,2.141,0,0,1,.7,1.635v3.161a3.865,3.865,0,0,0,.241,1.5V12Zm-1.949-.9a2.064,2.064,0,0,0,1.047-.286,1.728,1.728,0,0,0,.717-.743V8.667h-.92q-2.158,0-2.158,1.263a1.069,1.069,0,0,0,.368.863A1.415,1.415,0,0,0,84.468,11.1Zm8.779-.927a.864.864,0,0,0-.359-.74,3.452,3.452,0,0,0-1.25-.454,5.912,5.912,0,0,1-1.416-.457,2.014,2.014,0,0,1-.774-.635,1.518,1.518,0,0,1-.251-.876,1.782,1.782,0,0,1,.714-1.428A2.789,2.789,0,0,1,91.736,5a2.87,2.87,0,0,1,1.895.6,1.915,1.915,0,0,1,.727,1.542H93.177a1.06,1.06,0,0,0-.409-.832,1.534,1.534,0,0,0-1.031-.349,1.606,1.606,0,0,0-1,.279.879.879,0,0,0-.362.73.712.712,0,0,0,.336.641,4.139,4.139,0,0,0,1.216.413,6.334,6.334,0,0,1,1.425.47,2.079,2.079,0,0,1,.809.657,1.615,1.615,0,0,1,.263.936,1.758,1.758,0,0,1-.736,1.476,3.089,3.089,0,0,1-1.911.555,3.459,3.459,0,0,1-1.46-.292,2.375,2.375,0,0,1-.993-.816,1.966,1.966,0,0,1-.359-1.133h1.174a1.216,1.216,0,0,0,.473.936,1.835,1.835,0,0,0,1.165.346,1.894,1.894,0,0,0,1.07-.27A.829.829,0,0,0,93.247,10.178Zm4.3-6.709V5.132h1.282V6.04H97.544V10.3a.953.953,0,0,0,.171.62.721.721,0,0,0,.584.207,2.843,2.843,0,0,0,.559-.076V12a3.424,3.424,0,0,1-.9.126,1.462,1.462,0,0,1-1.187-.476,2.045,2.045,0,0,1-.4-1.352V6.04H95.12V5.132h1.25V3.469ZM99.76,8.5a4.057,4.057,0,0,1,.4-1.815,2.96,2.96,0,0,1,1.1-1.244A3.007,3.007,0,0,1,102.876,5a2.9,2.9,0,0,1,2.269.971,3.736,3.736,0,0,1,.866,2.583v.083a4.092,4.092,0,0,1-.384,1.8,2.916,2.916,0,0,1-1.1,1.241,3.041,3.041,0,0,1-1.641.444,2.889,2.889,0,0,1-2.263-.971,3.718,3.718,0,0,1-.866-2.571Zm1.181.14a2.938,2.938,0,0,0,.53,1.834,1.8,1.8,0,0,0,2.841-.01,3.213,3.213,0,0,0,.527-1.965,2.933,2.933,0,0,0-.536-1.831,1.705,1.705,0,0,0-1.425-.7,1.686,1.686,0,0,0-1.4.692A3.189,3.189,0,0,0,100.94,8.642Zm10.543,1.536a.864.864,0,0,0-.359-.74,3.452,3.452,0,0,0-1.25-.454,5.912,5.912,0,0,1-1.416-.457,2.014,2.014,0,0,1-.774-.635,1.518,1.518,0,0,1-.251-.876,1.782,1.782,0,0,1,.714-1.428A2.789,2.789,0,0,1,109.973,5a2.87,2.87,0,0,1,1.895.6,1.915,1.915,0,0,1,.727,1.542h-1.181A1.06,1.06,0,0,0,111,6.319a1.534,1.534,0,0,0-1.031-.349,1.606,1.606,0,0,0-1,.279.879.879,0,0,0-.362.73.712.712,0,0,0,.336.641,4.139,4.139,0,0,0,1.216.413,6.334,6.334,0,0,1,1.425.47,2.079,2.079,0,0,1,.809.657,1.615,1.615,0,0,1,.263.936,1.758,1.758,0,0,1-.736,1.476,3.089,3.089,0,0,1-1.911.555,3.459,3.459,0,0,1-1.46-.292,2.375,2.375,0,0,1-.993-.816,1.966,1.966,0,0,1-.359-1.133h1.174a1.216,1.216,0,0,0,.473.936,1.835,1.835,0,0,0,1.165.346,1.894,1.894,0,0,0,1.07-.27A.829.829,0,0,0,111.484,10.178Z" transform="translate(390 2547)" fill="#12263f"/>
      <path id="Trazado_101400" data-name="Trazado 101400" d="M0,0H4V25H0Z" transform="translate(370 2544)" fill="#2e9daa"/>
    </g>
  </g>
</svg>
