<svg xmlns="http://www.w3.org/2000/svg" width="304.907" height="276.581" viewBox="0 0 304.907 276.581">
  <g id="Grupo_88443" data-name="Grupo 88443" transform="translate(-275.093 -1763.327)">
    <rect id="Rectángulo_34129" data-name="Rectángulo 34129" width="195.572" height="195.572" rx="28" transform="translate(303.419 1901.617) rotate(-45)" fill="#3b4454"/>
    <g id="Grupo_87749" data-name="Grupo 87749" transform="translate(50.127 1142.661)">
      <g id="Grupo_87718" data-name="Grupo 87718" transform="translate(420.556 830.796)">
        <path id="Trazado_101611" data-name="Trazado 101611" d="M1872.943,1748.316v9.715c0,1.571-17.521,2.844-39.134,2.844s-39.134-1.273-39.134-2.844v-9.715Z" transform="translate(-1794.675 -1745.369)" fill="#e59f39"/>
        <g id="Grupo_87717" data-name="Grupo 87717" transform="translate(0 2.947)">
          <path id="Trazado_101612" data-name="Trazado 101612" d="M2195.529,1760.765v-12.449h28.321v9.715C2223.85,1759.329,2211.883,1760.424,2195.529,1760.765Z" transform="translate(-2145.582 -1748.316)" fill="#eab054"/>
          <path id="Trazado_101613" data-name="Trazado 101613" d="M2020.88,1760.791c-3.04.055-6.221.084-9.5.084-4.88,0-9.55-.065-13.858-.183v-12.375h23.353Z" transform="translate(-1972.251 -1748.316)" fill="#eab054"/>
          <path id="Trazado_101614" data-name="Trazado 101614" d="M1818.383,1760.646c-13.943-.435-23.708-1.442-23.708-2.615v-9.715h23.708Z" transform="translate(-1794.675 -1748.316)" fill="#eab054"/>
        </g>
        <ellipse id="Elipse_4818" data-name="Elipse 4818" cx="39.134" cy="2.844" rx="39.134" ry="2.844" transform="translate(0)" fill="#e59f39"/>
        <path id="Trazado_101615" data-name="Trazado 101615" d="M1850.115,1733.637c0,1.089,14.428,1.972,32.226,1.972s32.226-.883,32.226-1.972-14.428-1.972-32.226-1.972S1850.115,1732.548,1850.115,1733.637Z" transform="translate(-1843.207 -1730.793)" fill="#f7cc7f"/>
      </g>
      <g id="Grupo_87720" data-name="Grupo 87720" transform="translate(427.251 820.516)">
        <path id="Trazado_101616" data-name="Trazado 101616" d="M1926.677,1665.811v9.715c0,1.571-17.521,2.844-39.134,2.844s-39.134-1.273-39.134-2.844v-9.715Z" transform="translate(-1848.409 -1662.864)" fill="#e59f39"/>
        <g id="Grupo_87719" data-name="Grupo 87719" transform="translate(0 2.947)">
          <path id="Trazado_101617" data-name="Trazado 101617" d="M2249.264,1678.26v-12.449h28.321v9.715C2277.584,1676.824,2265.618,1677.919,2249.264,1678.26Z" transform="translate(-2199.316 -1665.811)" fill="#eab054"/>
          <path id="Trazado_101618" data-name="Trazado 101618" d="M2074.615,1678.286c-3.04.055-6.22.084-9.5.084-4.879,0-9.55-.065-13.858-.183v-12.375h23.353Z" transform="translate(-2025.986 -1665.811)" fill="#eab054"/>
          <path id="Trazado_101619" data-name="Trazado 101619" d="M1872.117,1678.14c-13.943-.435-23.708-1.442-23.708-2.614v-9.715h23.708Z" transform="translate(-1848.409 -1665.811)" fill="#eab054"/>
        </g>
        <ellipse id="Elipse_4819" data-name="Elipse 4819" cx="39.134" cy="2.844" rx="39.134" ry="2.844" transform="translate(0)" fill="#e59f39"/>
        <ellipse id="Elipse_4820" data-name="Elipse 4820" cx="32.226" cy="1.972" rx="32.226" ry="1.972" transform="translate(6.908 0.872)" fill="#f7cc7f"/>
      </g>
      <g id="Grupo_87722" data-name="Grupo 87722" transform="translate(422.79 809.962)">
        <path id="Trazado_101620" data-name="Trazado 101620" d="M1890.875,1581.113v9.715c0,1.57-17.521,2.844-39.134,2.844s-39.134-1.273-39.134-2.844v-9.715Z" transform="translate(-1812.607 -1578.166)" fill="#e59f39"/>
        <g id="Grupo_87721" data-name="Grupo 87721" transform="translate(0 2.947)">
          <path id="Trazado_101621" data-name="Trazado 101621" d="M2213.463,1593.562v-12.449h28.321v9.715C2241.783,1592.126,2229.816,1593.221,2213.463,1593.562Z" transform="translate(-2163.515 -1581.113)" fill="#eab054"/>
          <path id="Trazado_101622" data-name="Trazado 101622" d="M2038.813,1593.588c-3.04.055-6.221.084-9.5.084-4.879,0-9.55-.065-13.858-.183v-12.375h23.354Z" transform="translate(-1990.184 -1581.113)" fill="#eab054"/>
          <path id="Trazado_101623" data-name="Trazado 101623" d="M1836.315,1593.443c-13.943-.435-23.708-1.442-23.708-2.614v-9.715h23.708Z" transform="translate(-1812.607 -1581.113)" fill="#eab054"/>
        </g>
        <ellipse id="Elipse_4821" data-name="Elipse 4821" cx="39.134" cy="2.844" rx="39.134" ry="2.844" transform="translate(0)" fill="#e59f39"/>
        <ellipse id="Elipse_4822" data-name="Elipse 4822" cx="32.226" cy="1.972" rx="32.226" ry="1.972" transform="translate(6.908 0.872)" fill="#f7cc7f"/>
      </g>
      <g id="Grupo_87724" data-name="Grupo 87724" transform="translate(427.251 799.553)">
        <path id="Trazado_101624" data-name="Trazado 101624" d="M1926.677,1497.576v9.715c0,1.571-17.521,2.844-39.134,2.844s-39.134-1.273-39.134-2.844v-9.715Z" transform="translate(-1848.409 -1494.629)" fill="#e59f39"/>
        <g id="Grupo_87723" data-name="Grupo 87723" transform="translate(0 2.947)">
          <path id="Trazado_101625" data-name="Trazado 101625" d="M2249.264,1510.025v-12.449h28.321v9.715C2277.584,1508.589,2265.618,1509.684,2249.264,1510.025Z" transform="translate(-2199.316 -1497.576)" fill="#eab054"/>
          <path id="Trazado_101626" data-name="Trazado 101626" d="M2074.615,1510.051c-3.04.055-6.22.084-9.5.084-4.879,0-9.55-.065-13.858-.183v-12.375h23.353Z" transform="translate(-2025.986 -1497.576)" fill="#eab054"/>
          <path id="Trazado_101627" data-name="Trazado 101627" d="M1872.117,1509.905c-13.943-.435-23.708-1.442-23.708-2.614v-9.715h23.708Z" transform="translate(-1848.409 -1497.576)" fill="#eab054"/>
        </g>
        <ellipse id="Elipse_4823" data-name="Elipse 4823" cx="39.134" cy="2.844" rx="39.134" ry="2.844" transform="translate(0 0)" fill="#e59f39"/>
        <ellipse id="Elipse_4824" data-name="Elipse 4824" cx="32.226" cy="1.972" rx="32.226" ry="1.972" transform="translate(6.908 0.872)" fill="#f7cc7f"/>
      </g>
      <g id="Grupo_87726" data-name="Grupo 87726" transform="translate(455.25 771.366)">
        <path id="Trazado_101628" data-name="Trazado 101628" d="M2141.59,1269.775l-2.351,8.207c-.38,1.327-15.49-1.837-33.748-7.067s-32.752-10.545-32.372-11.872l2.351-8.207Z" transform="translate(-2073.111 -1250.447)" fill="#e59f39"/>
        <g id="Grupo_87725" data-name="Grupo 87725" transform="translate(0 0.39)">
          <path id="Trazado_101629" data-name="Trazado 101629" d="M2406.5,1358.35l3.012-10.517,23.925,6.853-2.351,8.207C2430.771,1363.99,2420.4,1362.019,2406.5,1358.35Z" transform="translate(-2364.958 -1335.747)" fill="#eab054"/>
          <path id="Trazado_101630" data-name="Trazado 101630" d="M2259.076,1316.11c-2.581-.689-5.275-1.434-8.042-2.226-4.122-1.181-8.052-2.366-11.663-3.508l2.995-10.454,19.729,5.651Z" transform="translate(-2218.655 -1293.805)" fill="#eab054"/>
          <path id="Trazado_101631" data-name="Trazado 101631" d="M2092.514,1266.988c-11.674-3.741-19.679-6.955-19.4-7.945l2.351-8.207,20.028,5.737Z" transform="translate(-2073.111 -1250.836)" fill="#eab054"/>
        </g>
        <path id="Trazado_101632" data-name="Trazado 101632" d="M2092.185,1248.012c-.38,1.327,14.114,6.642,32.372,11.872s33.368,8.394,33.748,7.067-14.114-6.642-32.372-11.872S2092.565,1246.685,2092.185,1248.012Z" transform="translate(-2089.802 -1247.71)" fill="#e59f39"/>
        <path id="Trazado_101633" data-name="Trazado 101633" d="M2139.042,1262.3c-.264.92,11.712,5.157,26.747,9.464s27.438,7.052,27.7,6.132-11.712-5.157-26.747-9.464S2139.306,1261.384,2139.042,1262.3Z" transform="translate(-2130.823 -1260.33)" fill="#f7cc7f"/>
      </g>
      <g id="Grupo_87728" data-name="Grupo 87728" transform="translate(436.554 733.841)">
        <path id="Trazado_101634" data-name="Trazado 101634" d="M1989.108,949.5l2.5,8.162c.4,1.32-13.987,6.9-32.145,12.472s-33.206,9.013-33.611,7.694l-2.5-8.162Z" transform="translate(-1923.317 -949.136)" fill="#e59f39"/>
        <g id="Grupo_87727" data-name="Grupo 87727" transform="translate(0.035 0.368)">
          <path id="Trazado_101635" data-name="Trazado 101635" d="M2263.333,967.26l-3.208-10.459,23.793-7.3,2.5,8.162C2286.757,958.757,2276.985,962.76,2263.333,967.26Z" transform="translate(-2218.163 -949.504)" fill="#eab054"/>
          <path id="Trazado_101636" data-name="Trazado 101636" d="M2116.61,1021.27c-2.54.83-5.2,1.674-7.956,2.517-4.1,1.257-8.04,2.406-11.69,3.416l-3.188-10.4,19.62-6.017Z" transform="translate(-2072.541 -1003.154)" fill="#eab054"/>
          <path id="Trazado_101637" data-name="Trazado 101637" d="M1946.447,1072.68c-11.826,3.227-20.29,4.9-20.592,3.912l-2.5-8.162,19.918-6.109Z" transform="translate(-1923.352 -1048.265)" fill="#eab054"/>
        </g>
        <path id="Trazado_101638" data-name="Trazado 101638" d="M1923.081,967c.4,1.32,15.453-2.125,33.611-7.694s32.55-11.152,32.145-12.472-15.453,2.125-33.611,7.694S1922.676,965.677,1923.081,967Z" transform="translate(-1923.072 -946.549)" fill="#e59f39"/>
        <path id="Trazado_101639" data-name="Trazado 101639" d="M1969.682,978.537c.281.915,12.63-2.061,27.582-6.647s26.847-9.045,26.567-9.959-12.63,2.061-27.583,6.647S1969.4,977.623,1969.682,978.537Z" transform="translate(-1963.87 -959.87)" fill="#f7cc7f"/>
      </g>
      <g id="Grupo_87730" data-name="Grupo 87730" transform="translate(382.7 820.907)">
        <rect id="Rectángulo_34252" data-name="Rectángulo 34252" width="68.557" height="24.952" transform="translate(68.557 24.952) rotate(180)" fill="#50bfa5"/>
        <g id="Grupo_87729" data-name="Grupo 87729" transform="translate(0 0)">
          <rect id="Rectángulo_34253" data-name="Rectángulo 34253" width="68.557" height="3.21" transform="translate(68.557 6.846) rotate(180)" fill="#96d9c9"/>
          <rect id="Rectángulo_34254" data-name="Rectángulo 34254" width="68.557" height="3.21" transform="translate(68.557 13.116) rotate(180)" fill="#96d9c9"/>
          <rect id="Rectángulo_34255" data-name="Rectángulo 34255" width="68.557" height="3.21" transform="translate(68.557 19.386) rotate(180)" fill="#96d9c9"/>
          <rect id="Rectángulo_34256" data-name="Rectángulo 34256" width="68.557" height="3.21" transform="translate(68.557 24.952) rotate(180)" fill="#96d9c9"/>
          <rect id="Rectángulo_34257" data-name="Rectángulo 34257" width="14.258" height="24.952" transform="translate(39.78 24.952) rotate(180)" fill="#f7cc7f"/>
        </g>
        <rect id="Rectángulo_34258" data-name="Rectángulo 34258" width="10.353" height="24.952" transform="translate(78.079 24.952) rotate(180)" fill="#3c8f7c"/>
      </g>
      <g id="Grupo_87732" data-name="Grupo 87732" transform="translate(243.08 703.564)">
        <path id="Trazado_101640" data-name="Trazado 101640" d="M480.324,790.241c-28.553-22.737-52.543-52.146-70.708-86.676l-39.272,31.547c21,39.926,48.741,73.929,81.754,100.218Z" transform="translate(-370.344 -703.564)" fill="#3c8f7c"/>
        <path id="Trazado_101641" data-name="Trazado 101641" d="M453.185,769.735,428.79,789.644c1.936,3.61,1.234,8.481-1.651,10.951,18.463,32.646,41.6,61.01,68.546,84.027a6.249,6.249,0,0,1,9.339-1.527l17.8-28c-2.746-2.229-3.138-6.783-.936-10.086a273.928,273.928,0,0,1-60.194-73.788A5.324,5.324,0,0,1,453.185,769.735Z" transform="translate(-420.062 -761.49)" fill="#96d9c9"/>
        <g id="Grupo_87731" data-name="Grupo 87731" transform="translate(38.351 51.106)">
          <path id="Trazado_101642" data-name="Trazado 101642" d="M705.767,1145.486c6.1-7.867,6.038-19.474.287-26.418-5.766-6.925-15.618-7.252-22.433-.25s-7.455,19.406-.972,27.2S699.683,1153.341,705.767,1145.486Z" transform="translate(-678.134 -1113.718)" fill="#50bfa5"/>
          <path id="Trazado_101643" data-name="Trazado 101643" d="M753.481,1169.6l-2.3,2.551c1.833,3.359,1.445,6.83-.531,9.1-1.995,2.284-4.229,2.5-7.633.478-2.473-1.4-3.661-1.809-4.415-.993-.638.689-.849,1.94.5,3.649a9.316,9.316,0,0,0,2.117,1.982,2.29,2.29,0,0,1,.606,2.908h0a1.644,1.644,0,0,1-2.439.707,13.017,13.017,0,0,1-2.23-2.069l-1.989,2.194q-1.041-1.306-2.07-2.625l2.164-2.346c-1.75-3.381-1.4-6.741.629-8.873,2.243-2.356,4.836-1.632,7.809.233,2.061,1.286,3.256,1.489,4.11.539.9-1,.607-2.532-.527-3.978a10.109,10.109,0,0,0-2.572-2.31,2.193,2.193,0,0,1-.524-2.906l.064-.11a1.651,1.651,0,0,1,2.331-.717,13.7,13.7,0,0,1,2.821,2.51l2.158-2.354Q752.517,1168.389,753.481,1169.6Z" transform="translate(-726.252 -1160.157)" fill="#3c8f7c"/>
          <path id="Trazado_101644" data-name="Trazado 101644" d="M926.651,1406.832q-9.76-8.357-18.8-17.695l-3.094,4.024q9.155,9.46,19.059,17.943Z" transform="translate(-876.523 -1354.819)" fill="#50bfa5"/>
        </g>
      </g>
      <g id="Grupo_87734" data-name="Grupo 87734" transform="translate(224.966 745.708)">
        <path id="Trazado_101645" data-name="Trazado 101645" d="M347.238,1077.154a277.535,277.535,0,0,1-103.664-35.366l-18.609,43.6c37.726,21.758,78.392,35.632,119.859,40.891Z" transform="translate(-224.966 -1041.788)" fill="#3c8f7c"/>
        <path id="Trazado_101646" data-name="Trazado 101646" d="M283.763,1097.687l-11.406,27.331c3.444,1.95,5.216,6.147,3.924,9.471a318.548,318.548,0,0,0,100.495,34.285,6.274,6.274,0,0,1,7.347-5.626q.868-15.315,1.735-30.63a7.023,7.023,0,0,1-5.744-7.562,279.729,279.729,0,0,1-88.25-30.107A5.53,5.53,0,0,1,283.763,1097.687Z" transform="translate(-266.452 -1088.237)" fill="#96d9c9"/>
        <g id="Grupo_87733" data-name="Grupo 87733" transform="translate(49.457 31.218)">
          <path id="Trazado_101647" data-name="Trazado 101647" d="M654.713,1314.251a19.482,19.482,0,0,0-12.669-21.1,15.053,15.053,0,0,0-19.564,10.405c-2.48,8.761,3.029,18.925,12.46,22.049S653.282,1323.36,654.713,1314.251Z" transform="translate(-621.886 -1292.325)" fill="#50bfa5"/>
          <path id="Trazado_101648" data-name="Trazado 101648" d="M709.387,1320.43q-.372,1.555-.745,3.111c3.231,1.8,4.592,4.738,3.989,7.472-.612,2.755-2.445,3.979-6.382,3.987-2.826.06-4.058.295-4.312,1.3-.216.848.213,1.941,2.219,2.658a9.741,9.741,0,0,0,2.8.572,2.118,2.118,0,0,1,1.947,2.021h0a1.619,1.619,0,0,1-1.768,1.714,13.61,13.61,0,0,1-2.944-.588q-.325,1.341-.65,2.681-1.541-.544-3.078-1.1.365-1.442.729-2.885c-3.17-1.856-4.512-4.687-3.794-7.339.792-2.929,3.393-3.581,6.881-3.506,2.415.047,3.55-.357,3.826-1.515.289-1.222-.712-2.3-2.4-2.908a10.6,10.6,0,0,0-3.359-.618,2.022,2.022,0,0,1-1.875-2.058c0-.039,0-.078,0-.118a1.624,1.624,0,0,1,1.67-1.67,14.386,14.386,0,0,1,3.672.658q.36-1.444.72-2.888Q707.959,1319.925,709.387,1320.43Z" transform="translate(-687.827 -1316.032)" fill="#3c8f7c"/>
        </g>
      </g>
      <path id="Trazado_101649" data-name="Trazado 101649" d="M961.248,729.28a22.164,22.164,0,0,1-2.553-1.019,12.837,12.837,0,0,0-2.911-1.093c-1.61-.248-4.377-.083-5.905,1.569-1.9,2.058-5.286.372-4.6,11.15.771,12.2,7.578,10.861,7.743,10.654s6.071-7.8,6.071-7.8,2.065,4.5,2.065,4.336S971.7,732.786,961.248,729.28Z" transform="translate(-630.478 -20.582)" fill="#0e2e35"/>
      <g id="Grupo_87736" data-name="Grupo 87736" transform="translate(246.186 789.126)">
        <path id="Trazado_101650" data-name="Trazado 101650" d="M487.027,1390.24c-28.217,11.148-59.349,16.245-91.758,15.02l6.453,41.371c37.472,1.416,73.468-4.476,106.093-17.367Z" transform="translate(-395.269 -1390.24)" fill="#3c8f7c"/>
        <path id="Trazado_101651" data-name="Trazado 101651" d="M422.492,1445.21l4.234,25.829c3.4.1,6.622,2.626,7.206,5.729a259.29,259.29,0,0,0,88.953-14.561,5.194,5.194,0,0,1,2.771-7.362l-12.794-24.427c-2.744,1.055-6.187-.55-7.655-3.506a227.7,227.7,0,0,1-78.114,12.787A4.425,4.425,0,0,1,422.492,1445.21Z" transform="translate(-419.1 -1422.342)" fill="#96d9c9"/>
        <g id="Grupo_87735" data-name="Grupo 87735" transform="translate(41.806 18.763)">
          <path id="Trazado_101652" data-name="Trazado 101652" d="M759.764,1552.185c-3.142-7.653-11.529-12.422-18.915-11.156-7.38,1.284-11.7,8.247-9.478,16.06s10.893,13.415,19.2,11.976S762.9,1559.824,759.764,1552.185Z" transform="translate(-730.787 -1540.826)" fill="#50bfa5"/>
          <path id="Trazado_101653" data-name="Trazado 101653" d="M794.927,1560.059q.443,1.357.885,2.714a6.532,6.532,0,0,1,6.336,4.154c.819,2.384.045,4.081-2.82,5.7-2.031,1.2-2.821,1.888-2.545,2.77.232.745,1.046,1.416,2.837,1.15a7.747,7.747,0,0,0,2.305-.7,1.9,1.9,0,0,1,2.346.769h0a1.366,1.366,0,0,1-.5,2.051,10.824,10.824,0,0,1-2.415.749l.757,2.342q-1.372.209-2.749.4l-.793-2.532c-3.161-.14-5.439-1.783-6.133-4.131-.768-2.592.828-4.161,3.4-5.53,1.781-.952,2.423-1.729,2.092-2.738-.35-1.064-1.573-1.487-3.084-1.269a8.4,8.4,0,0,0-2.731.9,1.823,1.823,0,0,1-2.311-.827l-.053-.092a1.372,1.372,0,0,1,.45-1.976,11.4,11.4,0,0,1,2.978-.992q-.4-1.265-.8-2.53Q793.656,1560.252,794.927,1560.059Z" transform="translate(-782.203 -1557.662)" fill="#3c8f7c"/>
          <path id="Trazado_101654" data-name="Trazado 101654" d="M1010.933,1569.26q-10.067,3.568-20.539,6.208l1.617,3.9q10.61-2.675,20.827-6.295Z" transform="translate(-958.046 -1565.717)" fill="#50bfa5"/>
        </g>
      </g>
      <g id="Grupo_87738" data-name="Grupo 87738" transform="translate(291.39 831.542)">
        <path id="Trazado_101655" data-name="Trazado 101655" d="M758.053,1755.244v10.1c0,1.633,18.22,2.957,40.694,2.957s40.694-1.324,40.694-2.957v-10.1Z" transform="translate(-758.053 -1752.179)" fill="#e59f39"/>
        <g id="Grupo_87737" data-name="Grupo 87737" transform="translate(0 3.064)">
          <path id="Trazado_101656" data-name="Trazado 101656" d="M787.5,1768.189v-12.945h-29.45v10.1C758.053,1766.7,770.5,1767.834,787.5,1768.189Z" transform="translate(-758.053 -1755.244)" fill="#eab054"/>
          <path id="Trazado_101657" data-name="Trazado 101657" d="M1005.4,1768.216c3.161.057,6.469.088,9.874.088,5.074,0,9.931-.068,14.411-.191v-12.869H1005.4Z" transform="translate(-974.583 -1755.244)" fill="#eab054"/>
          <path id="Trazado_101658" data-name="Trazado 101658" d="M1213.385,1768.065c14.5-.452,24.653-1.5,24.653-2.719v-10.1h-24.653Z" transform="translate(-1156.65 -1755.244)" fill="#eab054"/>
        </g>
        <ellipse id="Elipse_4825" data-name="Elipse 4825" cx="40.694" cy="2.957" rx="40.694" ry="2.957" transform="translate(0 0)" fill="#e59f39"/>
        <path id="Trazado_101659" data-name="Trazado 101659" d="M882.726,1739.979c0,1.132-15,2.05-33.511,2.05s-33.511-.918-33.511-2.05,15-2.05,33.511-2.05S882.726,1738.847,882.726,1739.979Z" transform="translate(-808.521 -1737.022)" fill="#f7cc7f"/>
      </g>
      <g id="Grupo_87740" data-name="Grupo 87740" transform="translate(284.428 820.851)">
        <path id="Trazado_101660" data-name="Trazado 101660" d="M702.176,1669.449v10.1c0,1.633,18.219,2.957,40.694,2.957s40.694-1.324,40.694-2.957v-10.1Z" transform="translate(-702.176 -1666.385)" fill="#e59f39"/>
        <g id="Grupo_87739" data-name="Grupo 87739" transform="translate(0 3.064)">
          <path id="Trazado_101661" data-name="Trazado 101661" d="M731.626,1682.394v-12.945h-29.45v10.1C702.176,1680.9,714.62,1682.04,731.626,1682.394Z" transform="translate(-702.176 -1669.449)" fill="#eab054"/>
          <path id="Trazado_101662" data-name="Trazado 101662" d="M949.526,1682.421c3.161.057,6.469.088,9.874.088,5.074,0,9.931-.068,14.411-.191v-12.869H949.526Z" transform="translate(-918.706 -1669.449)" fill="#eab054"/>
          <path id="Trazado_101663" data-name="Trazado 101663" d="M1157.508,1682.27c14.5-.453,24.653-1.5,24.653-2.719v-10.1h-24.653Z" transform="translate(-1100.773 -1669.449)" fill="#eab054"/>
        </g>
        <ellipse id="Elipse_4826" data-name="Elipse 4826" cx="40.694" cy="2.957" rx="40.694" ry="2.957" transform="translate(0 0)" fill="#e59f39"/>
        <path id="Trazado_101664" data-name="Trazado 101664" d="M826.849,1654.184c0,1.132-15,2.05-33.511,2.05s-33.511-.918-33.511-2.05,15-2.05,33.511-2.05S826.849,1653.052,826.849,1654.184Z" transform="translate(-752.644 -1651.227)" fill="#f7cc7f"/>
      </g>
      <g id="Grupo_87742" data-name="Grupo 87742" transform="translate(289.066 809.877)">
        <path id="Trazado_101665" data-name="Trazado 101665" d="M739.405,1581.375v10.1c0,1.633,18.219,2.957,40.694,2.957s40.694-1.324,40.694-2.957v-10.1Z" transform="translate(-739.405 -1578.311)" fill="#e59f39"/>
        <g id="Grupo_87741" data-name="Grupo 87741" transform="translate(0 3.064)">
          <path id="Trazado_101666" data-name="Trazado 101666" d="M768.855,1594.32v-12.945h-29.45v10.1C739.405,1592.827,751.849,1593.965,768.855,1594.32Z" transform="translate(-739.405 -1581.375)" fill="#eab054"/>
          <path id="Trazado_101667" data-name="Trazado 101667" d="M986.755,1594.347c3.161.057,6.469.088,9.874.088,5.074,0,9.931-.068,14.411-.191v-12.869H986.755Z" transform="translate(-955.935 -1581.375)" fill="#eab054"/>
          <path id="Trazado_101668" data-name="Trazado 101668" d="M1194.737,1594.2c14.5-.452,24.653-1.5,24.653-2.719v-10.1h-24.653Z" transform="translate(-1138.002 -1581.375)" fill="#eab054"/>
        </g>
        <ellipse id="Elipse_4827" data-name="Elipse 4827" cx="40.694" cy="2.957" rx="40.694" ry="2.957" transform="translate(0)" fill="#e59f39"/>
        <path id="Trazado_101669" data-name="Trazado 101669" d="M864.078,1566.109c0,1.132-15,2.05-33.511,2.05s-33.511-.918-33.511-2.05,15-2.05,33.511-2.05S864.078,1564.977,864.078,1566.109Z" transform="translate(-789.873 -1563.152)" fill="#f7cc7f"/>
      </g>
      <g id="Grupo_87744" data-name="Grupo 87744" transform="translate(284.428 799.053)">
        <path id="Trazado_101670" data-name="Trazado 101670" d="M702.176,1494.507v10.1c0,1.633,18.219,2.957,40.694,2.957s40.694-1.324,40.694-2.957v-10.1Z" transform="translate(-702.176 -1491.443)" fill="#e59f39"/>
        <g id="Grupo_87743" data-name="Grupo 87743" transform="translate(0 3.064)">
          <path id="Trazado_101671" data-name="Trazado 101671" d="M731.626,1507.452v-12.945h-29.45v10.1C702.176,1505.959,714.62,1507.1,731.626,1507.452Z" transform="translate(-702.176 -1494.507)" fill="#eab054"/>
          <path id="Trazado_101672" data-name="Trazado 101672" d="M949.526,1507.479c3.161.057,6.469.088,9.874.088,5.074,0,9.931-.068,14.411-.191v-12.869H949.526Z" transform="translate(-918.706 -1494.507)" fill="#eab054"/>
          <path id="Trazado_101673" data-name="Trazado 101673" d="M1157.508,1507.328c14.5-.452,24.653-1.5,24.653-2.718v-10.1h-24.653Z" transform="translate(-1100.773 -1494.507)" fill="#eab054"/>
        </g>
        <ellipse id="Elipse_4828" data-name="Elipse 4828" cx="40.694" cy="2.957" rx="40.694" ry="2.957" transform="translate(0 0)" fill="#e59f39"/>
        <path id="Trazado_101674" data-name="Trazado 101674" d="M826.849,1479.241c0,1.132-15,2.05-33.511,2.05s-33.511-.918-33.511-2.05,15-2.05,33.511-2.05S826.849,1478.109,826.849,1479.241Z" transform="translate(-752.644 -1476.284)" fill="#f7cc7f"/>
      </g>
      <path id="Trazado_101675" data-name="Trazado 101675" d="M1295.066,1756.051s.967,5.133.968,5.144c.054.669.034,2.36.178,2.944.543,2.195,9.775-3.14,7.353-3.568a10.045,10.045,0,0,1-2.172-2.327,20.375,20.375,0,0,1-1.215-3.391Z" transform="translate(-936.763 -920.295)" fill="#f7a491"/>
      <path id="Trazado_101676" data-name="Trazado 101676" d="M1298.383,1792.971a36.1,36.1,0,0,1-3.6.711c-1.213.121-2.769-1.763-3.639-1.406-.958.392-1.479,6.37-1.479,6.37s15.228.693,18.827-.3C1309.921,1797.951,1303.121,1794.786,1298.383,1792.971Z" transform="translate(-932.038 -953.016)" fill="#f47458"/>
      <path id="Trazado_101677" data-name="Trazado 101677" d="M1465.474,1754.172s.967,5.133.968,5.144c.054.669.034,2.36.178,2.944.543,2.195,9.605-2.789,7.183-3.218a13.7,13.7,0,0,1-2-2.678,20.378,20.378,0,0,1-1.215-3.391Z" transform="translate(-1085.938 -918.65)" fill="#f7a491"/>
      <path id="Trazado_101678" data-name="Trazado 101678" d="M1466.912,1792.971a36.1,36.1,0,0,1-3.6.711c-1.213.121-2.769-1.763-3.639-1.406-.958.392-1.479,6.37-1.479,6.37s15.228.693,18.827-.3C1478.45,1797.951,1471.65,1794.786,1466.912,1792.971Z" transform="translate(-1079.568 -953.016)" fill="#f47458"/>
      <path id="Trazado_101679" data-name="Trazado 101679" d="M1038.289,1295.92l27.7-6.426s12.423-3.284,15.422.571,15.733,57.066,15.733,57.066-6.569.571-7,.286l-15.376-27.291a23.807,23.807,0,0,1-2.836-8.395l-1.09-7.815-11.281,3.285s-12.995,2.856-18.278-.429S1038.289,1295.92,1038.289,1295.92Z" transform="translate(-711.551 -511.78)" fill="#0e2e35"/>
      <path id="Trazado_101680" data-name="Trazado 101680" d="M1097.693,966.929c.438.018,1.637.418,3.39,3.72,2.239,4.217,5.512,16.957,5.512,16.957l-9.768,3.626-1.255-2.659L1093.5,968.1S1097.572,966.924,1097.693,966.929Z" transform="translate(-760.316 -230.549)" fill="#3ec5ed"/>
      <path id="Trazado_101681" data-name="Trazado 101681" d="M901.771,952.191a59.868,59.868,0,0,1,12.913,1.837s2.357,20.186-2.122,35.525c-1,3.434.829,14.234.829,14.234l-28.945-.381s3.429-26.109,2.137-30.327-1.323-18.915-1.323-18.915.2-.031,6.5-1.117A65.738,65.738,0,0,1,901.771,952.191Z" transform="translate(-577.307 -217.647)" fill="#51cff4"/>
      <path id="Trazado_101682" data-name="Trazado 101682" d="M856.745,985.819c2.706-1.012,4.03,23.29,4.4,33.293a118.319,118.319,0,0,0,15.226-.152c.978-.073,3.234-.9,4.207-1.024a9.766,9.766,0,0,1,2.391-.113,45.2,45.2,0,0,1,5.6,2.514c.53.554,1.963,1.95,1.721,2.554s-2.755-1.683-2.755-1.683l-1.228-.687c1.529,1.489,4.446,3.45,4.026,4.164-.41.7-3.041-1.294-4.916-2.65,1.608,1.448,3.607,4.039,3.146,4.443-.414.363-2.687-2.637-5.116-3.5-.9-.32-1.8.566-2.506.673a5.111,5.111,0,0,1-1.835.1l-2.44-.236a12.716,12.716,0,0,0-2.014.293c-1.05.223-2.774.457-4.112.783-7.7,1.876-10.272,2.747-12.631,2.745C850.763,1027.335,850.349,988.21,856.745,985.819Z" transform="translate(-549.107 -247.058)" fill="#f7a491"/>
      <path id="Trazado_101683" data-name="Trazado 101683" d="M845.861,992.681c-.507-10.246-.433-22.875,5.33-25.029,2.274-.85,6.283,4.262,5.562,25.237A43.456,43.456,0,0,1,845.861,992.681Z" transform="translate(-543.359 -231.105)" fill="#3ec5ed"/>
      <path id="Trazado_101684" data-name="Trazado 101684" d="M999.53,1118.859l-27.271,1.781a1.782,1.782,0,0,0-1.573,1.211l-7.059,21.028-15.034.982a.763.763,0,0,0-.711.811h0a.763.763,0,0,0,.811.711l42.789-2.8a2.994,2.994,0,0,0,2.61-1.942l7.225-19.387A1.782,1.782,0,0,0,999.53,1118.859Z" transform="translate(-632.837 -363.545)" fill="#f47458"/>
      <path id="Trazado_101685" data-name="Trazado 101685" d="M1232.414,1210.613a1.5,1.5,0,1,1-1.39-1.785A1.608,1.608,0,0,1,1232.414,1210.613Z" transform="translate(-879.309 -442.305)" fill="#fff"/>
      <path id="Trazado_101686" data-name="Trazado 101686" d="M882.823,1317.707l30.188-5.212s13.052-1.988,16.051,1.867,11.709,53.835,11.709,53.835-6.569.571-7,.286c-.332-.221-8.285-16.883-11.856-24.391a28.532,28.532,0,0,1-2.37-7.512l-1.148-6.8-3.8,1.308a46.366,46.366,0,0,1-20.8,2.225,19.566,19.566,0,0,1-7.369-2.047C881.154,1327.979,882.823,1317.707,882.823,1317.707Z" transform="translate(-575.667 -532.607)" fill="#184655"/>
      <path id="Trazado_101687" data-name="Trazado 101687" d="M983.514,874.4l.588,4.359s1.316,6.28-.377,7.491-7.2-7.67-7.2-7.67l.582-11.046Z" transform="translate(-657.911 -143.537)" fill="#f7a491"/>
      <path id="Trazado_101688" data-name="Trazado 101688" d="M979.684,871.112a12.531,12.531,0,0,0,7.1,6.982l-.5-3.7-6.409-6.866Z" transform="translate(-660.678 -143.537)" fill="#f47458"/>
      <path id="Trazado_101689" data-name="Trazado 101689" d="M977.88,770.541a5.826,5.826,0,0,1,6.717,5.879,44.066,44.066,0,0,1-.491,5.591c-.78,5.032-4.225,9.463-6.5,9.068s-8.009-4.737-7-11.9C971.225,774.76,974.114,771.147,977.88,770.541Z" transform="translate(-652.625 -58.567)" fill="#f7a491"/>
      <path id="Trazado_101690" data-name="Trazado 101690" d="M960.835,831.041a1.7,1.7,0,1,1-1.29-2.288A1.877,1.877,0,0,1,960.835,831.041Z" transform="translate(-641.277 -109.572)" fill="#f7a491"/>
      <path id="Trazado_101691" data-name="Trazado 101691" d="M967.651,766.015s2.754.682,3.776-1.083,4.677-5.575,9.323-4-4.088-3.84-4.46-3.84-4.832-.031-4.832-.031-3.438,2.819-3.562,3.128-1.115,3.686-1.115,3.686Z" transform="translate(-649.383 -46.835)" fill="#0e2e35"/>
      <rect id="Rectángulo_34259" data-name="Rectángulo 34259" width="300.65" height="2.155" transform="translate(229.223 845.504)" fill="#0e2e35"/>
      <g id="Grupo_87745" data-name="Grupo 87745" transform="translate(360.698 708.47)">
        <path id="Trazado_101692" data-name="Trazado 101692" d="M1354.678,749.992l.486,5.912,3.434-3.868,11.107-9.1-9.471,2.984s-4.663,2.265-4.877,2.564A12.247,12.247,0,0,0,1354.678,749.992Z" transform="translate(-1349.645 -742.94)" fill="#50bfa5"/>
        <path id="Trazado_101693" data-name="Trazado 101693" d="M1314.287,747.451l20.059-4.511-15.026,7.052Z" transform="translate(-1314.287 -742.94)" fill="#96d9c9"/>
        <path id="Trazado_101694" data-name="Trazado 101694" d="M1373.152,754.37l-6.183-3.085,13.5-8.345Z" transform="translate(-1360.405 -742.94)" fill="#96d9c9"/>
      </g>
      <g id="Grupo_87748" data-name="Grupo 87748" transform="translate(353.49 717.951)">
        <g id="Grupo_87746" data-name="Grupo 87746" transform="translate(9.748 0)">
          <path id="Trazado_101695" data-name="Trazado 101695" d="M1334.816,819.877a7.322,7.322,0,0,1,1.615-.424l-.046-.43a7.67,7.67,0,0,0-1.722.45Z" transform="translate(-1334.664 -819.023)" fill="#3c8f7c"/>
        </g>
        <g id="Grupo_87747" data-name="Grupo 87747" transform="translate(0 2.2)">
          <path id="Trazado_101696" data-name="Trazado 101696" d="M1256.435,870.275a17.578,17.578,0,0,0,2.175-2.378l.345.26a17.989,17.989,0,0,1-2.229,2.437Zm3.845-5.129c.212-.445.407-.909.58-1.378.2-.532.369-1.087.514-1.652l.418.108c-.149.578-.327,1.148-.527,1.693-.177.482-.377.958-.595,1.415Zm1.746-9.452.432-.01a27.918,27.918,0,0,1-.107,3.29l-.43-.041A27.458,27.458,0,0,0,1262.026,855.694Zm-.615-6.478.428-.061c.181,1.265.31,2.3.407,3.252l-.43.043C1261.72,851.5,1261.591,850.474,1261.411,849.215Zm-.484-3.254a15.9,15.9,0,0,1-.163-3.281l.431.027a15.476,15.476,0,0,0,.159,3.19l0,.025-.428.059Zm.543-6.528a7.848,7.848,0,0,1,1.876-2.757l.3.314a7.418,7.418,0,0,0-1.773,2.606Z" transform="translate(-1256.435 -836.676)" fill="#3c8f7c"/>
        </g>
      </g>
    </g>
  </g>
</svg>
