<svg xmlns="http://www.w3.org/2000/svg" width="553.031" height="482" viewBox="0 0 553.031 482">
  <g id="Grupo_88450" data-name="Grupo 88450" transform="translate(-236.969 -7038)">
    <rect id="Rectángulo_34300" data-name="Rectángulo 34300" width="340.825" height="340.825" rx="65.683" transform="translate(284.75 7279) rotate(-45)" fill="#3b4454"/>
    <g id="Grupo_87774" data-name="Grupo 87774" transform="translate(139.107 6628.643)">
      <g id="Grupo_87756" data-name="Grupo 87756" transform="translate(235.891 511.047)">
        <rect id="Rectángulo_34267" data-name="Rectángulo 34267" width="173.477" height="244.646" rx="49.308" fill="#60c1dd"/>
        <rect id="Rectángulo_34268" data-name="Rectángulo 34268" width="61.143" height="10.264" transform="translate(56.167 10.765)" fill="#d3dfff"/>
        <rect id="Rectángulo_34269" data-name="Rectángulo 34269" width="138.868" height="30.798" transform="translate(17.305 36.675)" fill="#dadada"/>
        <rect id="Rectángulo_34270" data-name="Rectángulo 34270" width="126.714" height="22.373" transform="translate(23.381 40.887)" fill="#fff"/>
        <g id="Grupo_87750" data-name="Grupo 87750" transform="translate(105.392 81.758)">
          <rect id="Rectángulo_34271" data-name="Rectángulo 34271" width="19.69" height="12.437" rx="6.218" fill="#1f3c88"/>
          <rect id="Rectángulo_34272" data-name="Rectángulo 34272" width="19.69" height="12.437" rx="6.218" transform="translate(31.09)" fill="#1f3c88"/>
        </g>
        <g id="Grupo_87751" data-name="Grupo 87751" transform="translate(18.256 109.223)">
          <rect id="Rectángulo_34273" data-name="Rectángulo 34273" width="23.834" height="16.237" rx="8.118" transform="translate(114.078)" fill="#1f3c88"/>
          <rect id="Rectángulo_34274" data-name="Rectángulo 34274" width="23.834" height="16.237" rx="8.118" transform="translate(76.052)" fill="#1f3c88"/>
          <rect id="Rectángulo_34275" data-name="Rectángulo 34275" width="23.834" height="16.237" rx="8.118" transform="translate(38.026)" fill="#1f3c88"/>
          <rect id="Rectángulo_34276" data-name="Rectángulo 34276" width="23.834" height="16.237" rx="8.118" fill="#1f3c88"/>
        </g>
        <g id="Grupo_87752" data-name="Grupo 87752" transform="translate(18.256 138.588)">
          <rect id="Rectángulo_34277" data-name="Rectángulo 34277" width="23.834" height="16.237" rx="8.118" transform="translate(114.078)" fill="#1f3c88"/>
          <rect id="Rectángulo_34278" data-name="Rectángulo 34278" width="23.834" height="16.237" rx="8.118" transform="translate(76.052)" fill="#d3dfff"/>
          <rect id="Rectángulo_34279" data-name="Rectángulo 34279" width="23.834" height="16.237" rx="8.118" transform="translate(38.026)" fill="#d3dfff"/>
          <rect id="Rectángulo_34280" data-name="Rectángulo 34280" width="23.834" height="16.237" rx="8.118" fill="#d3dfff"/>
        </g>
        <g id="Grupo_87753" data-name="Grupo 87753" transform="translate(18.256 167.952)">
          <rect id="Rectángulo_34281" data-name="Rectángulo 34281" width="23.834" height="16.237" rx="8.118" transform="translate(114.078)" fill="#1f3c88"/>
          <rect id="Rectángulo_34282" data-name="Rectángulo 34282" width="23.834" height="16.237" rx="8.118" transform="translate(76.052)" fill="#d3dfff"/>
          <rect id="Rectángulo_34283" data-name="Rectángulo 34283" width="23.834" height="16.237" rx="8.118" transform="translate(38.026)" fill="#d3dfff"/>
          <rect id="Rectángulo_34284" data-name="Rectángulo 34284" width="23.834" height="16.237" rx="8.118" fill="#d3dfff"/>
        </g>
        <g id="Grupo_87754" data-name="Grupo 87754" transform="translate(18.256 198.353)">
          <rect id="Rectángulo_34285" data-name="Rectángulo 34285" width="23.834" height="16.237" rx="8.118" transform="translate(114.078)" fill="#fbc343"/>
          <rect id="Rectángulo_34286" data-name="Rectángulo 34286" width="23.834" height="16.237" rx="8.118" transform="translate(76.052)" fill="#d3dfff"/>
          <rect id="Rectángulo_34287" data-name="Rectángulo 34287" width="23.834" height="16.237" rx="8.118" transform="translate(38.026)" fill="#d3dfff"/>
          <rect id="Rectángulo_34288" data-name="Rectángulo 34288" width="23.834" height="16.237" rx="8.118" fill="#d3dfff"/>
        </g>
        <g id="Grupo_87755" data-name="Grupo 87755" transform="translate(121.446 45.607)">
          <path id="Trazado_101697" data-name="Trazado 101697" d="M1423.5,755.4a7.07,7.07,0,0,0,1.368-.058,4.715,4.715,0,0,0,2.62-1.213,5.5,5.5,0,0,0,1.656-3.332h-.056a3.679,3.679,0,0,1-2.947,1.348,3.627,3.627,0,0,1-3.7-3.834,4.293,4.293,0,0,1,4.276-4.45c2.561,0,4.141,2.081,4.141,5.278a7.912,7.912,0,0,1-2.156,5.876,6.265,6.265,0,0,1-3.64,1.676,7.919,7.919,0,0,1-1.561.1Zm.616-7.2a2.409,2.409,0,0,0,2.408,2.658,2.8,2.8,0,0,0,2.466-1.31,1.109,1.109,0,0,0,.154-.617c0-2.138-.789-3.776-2.561-3.776C1425.135,745.156,1424.114,746.427,1424.114,748.2Z" transform="translate(-1422.439 -743.865)" fill="#3a6bea"/>
          <path id="Trazado_101698" data-name="Trazado 101698" d="M1473.973,755.4a7.07,7.07,0,0,0,1.368-.058,4.716,4.716,0,0,0,2.62-1.213,5.494,5.494,0,0,0,1.656-3.332h-.057a3.678,3.678,0,0,1-2.947,1.348,3.627,3.627,0,0,1-3.7-3.834,4.293,4.293,0,0,1,4.276-4.45c2.561,0,4.141,2.081,4.141,5.278a7.912,7.912,0,0,1-2.156,5.876,6.266,6.266,0,0,1-3.64,1.676,7.92,7.92,0,0,1-1.561.1Zm.616-7.2a2.409,2.409,0,0,0,2.407,2.658,2.8,2.8,0,0,0,2.466-1.31,1.111,1.111,0,0,0,.154-.617c0-2.138-.789-3.776-2.562-3.776C1475.61,745.156,1474.589,746.427,1474.589,748.2Z" transform="translate(-1463.026 -743.865)" fill="#3a6bea"/>
        </g>
      </g>
      <g id="Grupo_87761" data-name="Grupo 87761" transform="translate(318.467 603.515)">
        <g id="Grupo_87757" data-name="Grupo 87757" transform="translate(136.484 83.268)">
          <rect id="Rectángulo_34289" data-name="Rectángulo 34289" width="94.648" height="69.429" fill="#fbc343"/>
          <rect id="Rectángulo_34290" data-name="Rectángulo 34290" width="25.217" height="1.036" transform="translate(69.434 15.717)" fill="#e49b31"/>
          <rect id="Rectángulo_34291" data-name="Rectángulo 34291" width="43.871" height="1.036" transform="translate(50.78 53.719)" fill="#e49b31"/>
          <path id="Trazado_101699" data-name="Trazado 101699" d="M1967.932,1433.323a79.648,79.648,0,0,1-3.648,23.827,28.416,28.416,0,0,1-27.11,19.92h-16.426v-68.9h43.111A79.764,79.764,0,0,1,1967.932,1433.323Z" transform="translate(-1920.748 -1408.166)" fill="#e49b31"/>
        </g>
        <g id="Grupo_87758" data-name="Grupo 87758" transform="translate(0 119.065)">
          <path id="Rectángulo_34292" data-name="Rectángulo 34292" d="M8.4,0H79.029a8.405,8.405,0,0,1,8.405,8.405v0a8.4,8.4,0,0,1-8.4,8.4H8.4A8.4,8.4,0,0,1,0,8.405v0A8.4,8.4,0,0,1,8.4,0Z" transform="translate(9.669 16.821)" fill="#fbc343"/>
          <path id="Trazado_101700" data-name="Trazado 101700" d="M1311.452,1595.6v7.41a4.708,4.708,0,0,1-4.7,4.705h-78.025a4.7,4.7,0,0,1-4.7-4.705v-7.41a4.708,4.708,0,0,1,4.7-4.705h78.025A4.715,4.715,0,0,1,1311.452,1595.6Z" transform="translate(-1224.017 -1590.891)" fill="#fbc343"/>
          <path id="Trazado_101701" data-name="Trazado 101701" d="M1430.49,1612.417v7.4a4.7,4.7,0,0,1-4.705,4.705h-55.951c-3.865-4.767-6.228-10.913-7.648-16.811a82.816,82.816,0,0,1-2.156-16.821h56.086a4.715,4.715,0,0,1,4.7,4.705v7.41a4.708,4.708,0,0,1-4.7,4.705h9.669A4.7,4.7,0,0,1,1430.49,1612.417Z" transform="translate(-1333.386 -1590.891)" fill="#e49b31"/>
        </g>
        <g id="Grupo_87760" data-name="Grupo 87760" transform="translate(34.417)">
          <path id="Trazado_101702" data-name="Trazado 101702" d="M1660.756,985.811l-6.3,19.35-.466,1.43-2.923,8.986-.021.062-9.42-.207-36.147-.819-2.643-7.566-.445-1.264-7-19.972C1617.1,993.325,1634.983,976.9,1660.756,985.811Z" transform="translate(-1557.061 -983.082)" fill="#fbc343"/>
          <path id="Trazado_101703" data-name="Trazado 101703" d="M1684.532,1103.067l-2.923,8.985-9.441-.145-36.147-.819-2.643-7.566C1645.8,1103.305,1667.184,1103.015,1684.532,1103.067Z" transform="translate(-1587.605 -1079.558)" fill="#e49b31"/>
          <path id="Trazado_101704" data-name="Trazado 101704" d="M1537.021,1247.415a28.406,28.406,0,0,1-27.11,19.92h-81.87a26.322,26.322,0,0,1-25.369-19.329,82.588,82.588,0,0,1-2.943-19.961c-.01-.643-.021-1.285-.021-1.928q0-1.139.031-2.276c.668-24.153,12.47-46.648,31.412-61.646l19.585-15.507,44.821,1.036L1520.2,1171.3a54.325,54.325,0,0,1,9.03,11.13,79.762,79.762,0,0,1,7.8,64.984Z" transform="translate(-1399.708 -1114.638)" fill="#fbc343"/>
          <g id="Grupo_87759" data-name="Grupo 87759" transform="translate(48.902 56.607)">
            <path id="Trazado_101705" data-name="Trazado 101705" d="M1664.855,1346.493v-8.661c-6.113-.275-12.04-1.917-15.509-3.922l2.741-10.675a32.242,32.242,0,0,0,15.145,4.011c5.2,0,8.757-2.005,8.757-5.653,0-3.469-2.919-5.661-9.671-7.941-9.76-3.283-16.423-7.844-16.423-16.691,0-8.03,5.66-14.322,15.42-16.238v-8.669h8.936v8.03a32.928,32.928,0,0,1,13.229,3.009l-2.644,10.311a30.236,30.236,0,0,0-13.14-3.1c-5.927,0-7.844,2.555-7.844,5.111,0,3.009,3.194,4.925,10.948,7.844,10.852,3.833,15.234,8.847,15.234,17.063,0,8.119-5.749,15.05-16.237,16.877v9.3Z" transform="translate(-1649.346 -1272.054)" fill="#fff"/>
          </g>
          <rect id="Rectángulo_34293" data-name="Rectángulo 34293" width="72.939" height="11.565" rx="5.783" transform="translate(35.096 28.851)" fill="#2a75a9"/>
          <path id="Trazado_101706" data-name="Trazado 101706" d="M1537.105,1457.7a28.406,28.406,0,0,1-27.11,19.92h-81.87a26.322,26.322,0,0,1-25.369-19.329,82.582,82.582,0,0,1-2.943-19.961c13.545,12.914,29.5,29.8,66.812,30.315,46.328.644,66.294-21.07,69.879-60.443A79.657,79.657,0,0,1,1537.105,1457.7Z" transform="translate(-1399.792 -1324.926)" fill="#e49b31" opacity="0.4"/>
        </g>
      </g>
      <g id="Grupo_87767" data-name="Grupo 87767" transform="translate(144.659 588.576)">
        <g id="Grupo_87764" data-name="Grupo 87764" transform="translate(0 79.711)">
          <g id="Grupo_87762" data-name="Grupo 87762">
            <path id="Trazado_101707" data-name="Trazado 101707" d="M364.3,1676.623l-8.291-3.109-19.258,16.928h22.791Z" transform="translate(-336.751 -1603.035)" fill="#102048"/>
            <path id="Trazado_101708" data-name="Trazado 101708" d="M457.852,1689.386h18.308l-2.073,13.128-20.994.691Z" transform="translate(-430.303 -1615.798)" fill="#f9b384"/>
            <path id="Trazado_101709" data-name="Trazado 101709" d="M567.178,1313.73l-.674,4.591-.4,2.767-2.9,19.889-1.109,7.6-.984,6.778-2.581,17.66-1.793,12.25a18.753,18.753,0,0,1-18.561,16.043h-40.51l.052-.518,1.316-13.473.186-1.9,28.24-5.441,3.793-27.547a57.307,57.307,0,0,1-.6-21.132,51.137,51.137,0,0,1,1.637-7.545l12.6-3.617Z" transform="translate(-466.14 -1313.73)" fill="#1f3c88"/>
            <path id="Trazado_101710" data-name="Trazado 101710" d="M716.3,1616.357l-1.793,12.25a18.753,18.753,0,0,1-18.561,16.043h-2.073C712.439,1641.329,708.811,1617.622,716.3,1616.357Z" transform="translate(-623.92 -1557.075)" fill="#102048"/>
            <rect id="Rectángulo_34294" data-name="Rectángulo 34294" width="7.525" height="1.037" transform="translate(13.118 87.133) rotate(-58.13)" fill="#fff"/>
          </g>
          <path id="Trazado_101711" data-name="Trazado 101711" d="M768.1,1452.822,766,1467.2c-5.834-1.669-13.528-10.008-13.528-10.008Z" transform="translate(-671.039 -1425.575)" fill="#102048"/>
          <g id="Grupo_87763" data-name="Grupo 87763" transform="translate(66.143 0.906)">
            <path id="Trazado_101712" data-name="Trazado 101712" d="M938.6,1607.568s-9.845,5.052-27.463,1.814l14.638-9.716Z" transform="translate(-864.767 -1544.558)" fill="#102048"/>
            <path id="Trazado_101713" data-name="Trazado 101713" d="M957.653,1624.806l-15.742.352-.093-3.4-.249-9.317,13.99,1.036.663,3.6Z" transform="translate(-889.233 -1554.832)" fill="#f9b384"/>
            <path id="Trazado_101714" data-name="Trazado 101714" d="M956.222,1617.074l-14.4,4.685-.249-9.317,13.99,1.036Z" transform="translate(-889.233 -1554.832)" fill="#e28b6d"/>
            <path id="Trazado_101715" data-name="Trazado 101715" d="M976.9,1692.234l-17.358-13.991-.493-2.661-15.748.348.437,16.3Z" transform="translate(-890.625 -1605.603)" fill="#102048"/>
            <rect id="Rectángulo_34295" data-name="Rectángulo 34295" width="7.333" height="1.037" transform="translate(68.217 80.446) rotate(-31.983)" fill="#fff"/>
            <path id="Trazado_101716" data-name="Trazado 101716" d="M674.4,1327.469l56.329-8.946a13.8,13.8,0,0,1,7.771,1.019h0a13.805,13.805,0,0,1,8.191,12.19l1.546,49.63s-16.063-3.368-27.463,1.814l-1.036-33.942c-6.887,3.136-18.818,3.8-30.909,2.591Z" transform="translate(-674.402 -1318.353)" fill="#1f3c88"/>
            <path id="Trazado_101717" data-name="Trazado 101717" d="M862.057,1382.468H861.02c0-8.588.207-15.717.39-22.007.445-15.316.69-23.753-3.212-27.323-3.157-2.89-9.467-2.8-18.622-1.717-9.811,1.143-13.723-9.3-13.761-9.408l.974-.353c.146.4,3.67,9.814,12.665,8.731,9.69-1.144,15.978-1.189,19.443,1.982,4.252,3.891,4.017,11.987,3.548,28.118C862.264,1366.774,862.057,1373.895,862.057,1382.468Z" transform="translate(-796.155 -1321.013)" fill="#3a6bea"/>
            <path id="Trazado_101718" data-name="Trazado 101718" d="M909.732,1602.489l-.368-.969c.131-.049,13.271-4.94,27.772-1.314l-.251,1.006A50.527,50.527,0,0,0,909.732,1602.489Z" transform="translate(-863.337 -1543.918)" fill="#3a6bea"/>
          </g>
          <path id="Trazado_101719" data-name="Trazado 101719" d="M524.814,1691.074c-1.614-3.229.884-16.6.991-17.17l1.018.193c-.711,3.771-2.293,14.091-1.082,16.513Z" transform="translate(-487.538 -1603.349)" fill="#3a6bea"/>
          <path id="Trazado_101720" data-name="Trazado 101720" d="M696.975,1343.729a37.844,37.844,0,0,1-12.954,14.167,16.591,16.591,0,0,1-8.726,2.819,10.179,10.179,0,0,1-9.244-5.3,51.136,51.136,0,0,1,1.637-7.545l12.6-3.617,12.716-.4Z" transform="translate(-601.544 -1337.852)" fill="#102048"/>
        </g>
        <g id="Grupo_87765" data-name="Grupo 87765" transform="translate(78.661 9.341)">
          <path id="Trazado_101721" data-name="Trazado 101721" d="M772.272,1083.216v11.995h11.745v-10.375Z" transform="translate(-765.618 -1058.002)" fill="#ed7545"/>
          <path id="Trazado_101722" data-name="Trazado 101722" d="M784.017,1053.623H772.272v5.8l11.745,1.62Z" transform="translate(-765.618 -1034.207)" fill="#f9b384"/>
          <path id="Trazado_101723" data-name="Trazado 101723" d="M789.949,1059.873c.259,0,2.833,4.038,8.282,5.776l-.078-6.294Z" transform="translate(-779.832 -1038.815)" fill="#102048"/>
          <path id="Trazado_101724" data-name="Trazado 101724" d="M781.145,975.827s6.477,17.446-1.9,18.569-9.672-2.677-9.672-2.677l-2.591-9.241,5.786-7.773Z" transform="translate(-761.364 -970.747)" fill="#f9b384"/>
          <circle id="Elipse_4829" data-name="Elipse 4829" cx="1.814" cy="1.814" r="1.814" transform="translate(20.093 15.237) rotate(-88.939)" fill="#f9b384"/>
          <path id="Trazado_101725" data-name="Trazado 101725" d="M749.277,967.874s.432-9.328,8.809-8.291c0,0-5.638-7.241-13.066-4.433a10.641,10.641,0,0,0-6.665,9.044c-.477,5.19,2.554,11.107,6.786,12.144a80.9,80.9,0,0,1,3.705-7.255Z" transform="translate(-738.305 -954.503)" fill="#102048"/>
          <ellipse id="Elipse_4830" data-name="Elipse 4830" cx="2.548" cy="2.98" rx="2.548" ry="2.98" transform="translate(7.097 12.406) rotate(-25.174)" fill="#f9b384"/>
          <circle id="Elipse_4831" data-name="Elipse 4831" cx="2.375" cy="2.375" r="2.375" transform="matrix(0.014, -1, 1, 0.014, 14.53, 16.835)" fill="#eb5d60" opacity="0.4"/>
          <path id="Trazado_101726" data-name="Trazado 101726" d="M786.775,1020.859a.26.26,0,0,1-.259-.258,1.784,1.784,0,0,0-1.633-1.731.26.26,0,0,1-.221-.293.266.266,0,0,1,.292-.221,2.321,2.321,0,0,1,2.079,2.244.259.259,0,0,1-.258.259Z" transform="translate(-775.579 -1005.847)" fill="#102048"/>
        </g>
        <g id="Grupo_87766" data-name="Grupo 87766" transform="translate(52.663)">
          <path id="Trazado_101727" data-name="Trazado 101727" d="M995.787,995.867s9.059.691,13.99,6.478l-11.218,2.764Z" transform="translate(-919.35 -978.423)" fill="#ba5c36"/>
          <path id="Trazado_101728" data-name="Trazado 101728" d="M1011.124,919.3c.041.829-2.238,4.964-3.917,7.9-.984,1.689-1.751,2.974-1.751,2.974l-6.042,1.762-4.311-6.5-.207-.321s.062-.28.176-.777v-.01c.01-.01.01-.031.021-.062.725-3.078,3.3-13.566,4.777-13.919,1.306-.3.539,5.441.539,5.441s3.223-9.338,5.13-8.955c1.523.3-1.461,9.255-1.461,9.255s1.067-1.119,2.145-.767a1.91,1.91,0,0,1,1.3,1.461,1.5,1.5,0,0,1,1.534-.083c.767.466.694,1.917.694,1.917S1011.041,918,1011.124,919.3Z" transform="translate(-918.633 -906.819)" fill="#f9b384"/>
          <path id="Trazado_101729" data-name="Trazado 101729" d="M635.5,1122.949l-4.1,16.044-6.363,24.874a22.863,22.863,0,0,1-12.5,2.021c-4.2-.694-7.13-3.14-6.933-7.462C606.116,1146.766,635.5,1122.949,635.5,1122.949Z" transform="translate(-605.588 -1080.611)" fill="#ca4f4e"/>
          <path id="Trazado_101730" data-name="Trazado 101730" d="M663.205,1146.21l-3.316,11.487-6.363,24.874a22.863,22.863,0,0,1-12.5,2.021C650.251,1158.129,663.205,1146.21,663.205,1146.21Z" transform="translate(-634.086 -1099.315)" fill="#ba5c36"/>
          <path id="Trazado_101731" data-name="Trazado 101731" d="M712.889,1150.261c-8.55.58-35.494,22.863-41.971,8.488,0,0,.9-53.623,28.582-52.629a11.679,11.679,0,0,1,10.685,8.115,54.537,54.537,0,0,1,1.844,8.416,111.88,111.88,0,0,1,1.057,13.39C713.2,1140.188,713.148,1144.9,712.889,1150.261Z" transform="translate(-658.12 -1067.068)" fill="#ca4f4e"/>
          <path id="Trazado_101732" data-name="Trazado 101732" d="M850.277,1203.954c-4.28-2.767-8.747-11.11-8.747-11.11l7.689-2.28A111.88,111.88,0,0,1,850.277,1203.954Z" transform="translate(-795.311 -1134.981)" fill="#ba5c36"/>
          <path id="Trazado_101733" data-name="Trazado 101733" d="M1007.929,998.8c-.984,1.689-1.751,2.974-1.751,2.974l-6.042,1.762-4.311-6.5-.031-1.1v-.073h.021Z" transform="translate(-919.356 -978.423)" fill="#e28b6d"/>
          <path id="Trazado_101734" data-name="Trazado 101734" d="M816.834,1017.476s13.293.932,21.324,2.487l13.731-24.1a31.287,31.287,0,0,0,13.99,6.478l-12.018,28.317a16.267,16.267,0,0,1-14.035,9.067l-20.581.7Z" transform="translate(-775.453 -978.423)" fill="#ca4f4e"/>
          <path id="Trazado_101735" data-name="Trazado 101735" d="M801.12,1108.037a.376.376,0,0,1-.072-.006c-.253-.047-25.353-4.65-29.63-.869a.389.389,0,0,1-.515-.583c4.559-4.03,29.239.492,30.287.687a.389.389,0,0,1-.07.771Z" transform="translate(-738.414 -1066.108)" fill="#ba5c36"/>
        </g>
      </g>
      <g id="Grupo_87773" data-name="Grupo 87773" transform="translate(497.261 531.198)">
        <g id="Grupo_87768" data-name="Grupo 87768" transform="translate(10.803 86.304)">
          <path id="Trazado_101736" data-name="Trazado 101736" d="M2218.909,1639.97l1.727,22.11h-28.758l14.509-10.019-.259-13.819Z" transform="translate(-2191.878 -1523.89)" fill="#102048"/>
          <path id="Trazado_101737" data-name="Trazado 101737" d="M2493.153,1599l7.772,18.914-19.69,16.583,2.85-18.655-3.886-12.437Z" transform="translate(-2423.719 -1492.337)" fill="#102048"/>
          <path id="Trazado_101738" data-name="Trazado 101738" d="M2246.051,1054.487a21.524,21.524,0,0,0-.726,2.757c-.383,1.917-.715,4.363-.995,7.244-.912,9.411-1.3,23.392-1.4,38.243-.218,33.444,1.047,71.294,1.047,71.294l-5.264-.083-12.954-.2-4.581-.073a601.789,601.789,0,0,1-3.917-113.3c.031-.539.073-1.036.093-1.5.218-2.86.363-4.384.363-4.384Z" transform="translate(-2211.417 -1054.487)" fill="#1f3c88"/>
          <path id="Trazado_101739" data-name="Trazado 101739" d="M2355.9,1174.585l-2.632.653-13.8,3.451-8.436,2.114s-9.99-37.072-17.97-69.563c-3.834-15.671-7.213-30.273-8.767-39.135a56.984,56.984,0,0,1-.9-7.037l12.063.684,15.234.87s.373,2.187,1.1,6.115C2334.691,1088.4,2343.2,1131.761,2355.9,1174.585Z" transform="translate(-2281.549 -1062.996)" fill="#1f3c88"/>
          <path id="Trazado_101740" data-name="Trazado 101740" d="M2254.878,1064.229a130.8,130.8,0,0,1-17.327.259c-3.637-.187-7.047-.508-10.166-.891a129.525,129.525,0,0,1-16.9-3.223c-1.772-.477-2.736-.788-2.736-.788l2.829-.715,17.452-4.384h11.244a21.569,21.569,0,0,0-.725,2.757l15.234.87S2254.153,1060.3,2254.878,1064.229Z" transform="translate(-2204.638 -1054.487)" fill="#102048"/>
          <path id="Trazado_101741" data-name="Trazado 101741" d="M2300.817,1210.8c-.838-3.514-4.8-20.156-5.313-22.974l-8.009-3,.364-.971,8.626,3.235v.359c.06.768,3.227,14.246,5.34,23.113Z" transform="translate(-2268.764 -1158.513)" fill="#3a6bea"/>
          <path id="Trazado_101742" data-name="Trazado 101742" d="M2225.846,1390.835a18.207,18.207,0,0,1-6.3-.989l.384-.962a19.94,19.94,0,0,0,10.245.492l.2,1.017A23.728,23.728,0,0,1,2225.846,1390.835Z" transform="translate(-2214.129 -1323.378)" fill="#3a6bea"/>
          <path id="Trazado_101743" data-name="Trazado 101743" d="M2385.987,1385.381a27.038,27.038,0,0,1-4.6-.406l.193-1.019c.072.014,7.08,1.311,10.315-.951l.594.848C2390.77,1385.061,2388.214,1385.381,2385.987,1385.381Z" transform="translate(-2344.268 -1318.651)" fill="#3a6bea"/>
          <rect id="Rectángulo_34296" data-name="Rectángulo 34296" width="1.036" height="5.113" transform="translate(14.193 128.583) rotate(-52.544)" fill="#fff"/>
          <rect id="Rectángulo_34297" data-name="Rectángulo 34297" width="1.036" height="5.965" transform="translate(60.171 123.988) rotate(-67.896)" fill="#fff"/>
        </g>
        <g id="Grupo_87771" data-name="Grupo 87771" transform="translate(0 29.571)">
          <path id="Trazado_101744" data-name="Trazado 101744" d="M2199.611,765.282s-17.79,2.245-22.281,22.283l5.354,23.837-2.418,15.892s24.181,2.418,49.053-1.727l-7.556-40.506Z" transform="translate(-2169.377 -765.201)" fill="#ca4f4e"/>
          <path id="Trazado_101745" data-name="Trazado 101745" d="M2339.459,937.667s-5.354-3.93,1.641-21.16l4.663,16.971Z" transform="translate(-2298.171 -886.803)" fill="#6e3620"/>
          <path id="Rectángulo_34298" data-name="Rectángulo 34298" d="M1.382,0h0A1.382,1.382,0,0,1,2.764,1.382V23.663a0,0,0,0,1,0,0H0a0,0,0,0,1,0,0V1.382A1.382,1.382,0,0,1,1.382,0Z" transform="translate(40.044 15.693) rotate(62.102)" fill="#102048"/>
          <path id="Trazado_101746" data-name="Trazado 101746" d="M2278.738,888.707l-.529-.29-6.871-3.71-11.514-6.229a3.712,3.712,0,0,1,.778-3.379l-.57-.228a3.037,3.037,0,0,1-1.8-2.239l-.021-.124a5.231,5.231,0,0,1-.062-2.456l.27-.352a9.263,9.263,0,0,1,1.844-2.021l-1.471.083s-3.627.995-1.938-1.337c1.161-1.617,3.762-2.985,5.244-3.669a1.628,1.628,0,0,1,1.855.332c4.985,5.172,13.752,11.369,13.752,11.369l.093,1.264.85,11.639Z" transform="translate(-2232.959 -843.457)" fill="#f9b384"/>
          <g id="Grupo_87769" data-name="Grupo 87769" transform="translate(24.576 23.221)">
            <path id="Trazado_101747" data-name="Trazado 101747" d="M2269.8,885.636l-3.136-1.532a1.7,1.7,0,0,0-1.05-.15l-3.341.581-.089-.51,3.341-.581a2.231,2.231,0,0,1,1.368.194l3.137,1.532Z" transform="translate(-2262.184 -883.41)" fill="#e28b6d"/>
            <path id="Trazado_101748" data-name="Trazado 101748" d="M2271.709,901.369l-3.762-1.441a1.459,1.459,0,0,0-.523-.1h-2.142v-.518h2.142a1.982,1.982,0,0,1,.709.13l3.762,1.442Z" transform="translate(-2264.675 -896.199)" fill="#e28b6d"/>
            <path id="Trazado_101749" data-name="Trazado 101749" d="M2271.953,916.891l-3.416-1.29a1.815,1.815,0,0,0-.849-.106l-1.4.159-.06-.515,1.4-.159a2.354,2.354,0,0,1,1.092.136l3.416,1.29Z" transform="translate(-2265.437 -908.784)" fill="#e28b6d"/>
          </g>
          <path id="Trazado_101750" data-name="Trazado 101750" d="M2339.956,930.706l-.435,1.057-6.871-3.71,4.55-11.546,1.907,2.56Z" transform="translate(-2294.27 -886.803)" fill="#e28b6d"/>
          <path id="Trazado_101751" data-name="Trazado 101751" d="M2347.5,1016.371s10.278,9.759,18.654,9.5l-2.419-11.487Z" transform="translate(-2306.213 -965.507)" fill="#ba5c36"/>
          <path id="Trazado_101752" data-name="Trazado 101752" d="M2291.071,764.951a27.206,27.206,0,0,1,3.375-.059c20.744.71,36.635,18.56,35.623,39.293-.418,8.571-2.645,17.079-9.809,17.25l-18.135-5.7c1.71-6.415,2.987-13.067,1.641-21.16l8.42,4.016Z" transform="translate(-2260.837 -764.87)" fill="#ca4f4e"/>
          <path id="Trazado_101753" data-name="Trazado 101753" d="M2173.62,886.459l-25.348.622-.694-2.145-2.55-7.835-7.379-22.666,25.349-.622Z" transform="translate(-2137.469 -836.389)" fill="#d3dfff"/>
          <path id="Trazado_101754" data-name="Trazado 101754" d="M2180.695,958.832s-.042,7.006-2.829,10.551l-2.55-7.835Z" transform="translate(-2167.757 -920.836)" fill="#1f3c88" opacity="0.3"/>
          <g id="Grupo_87770" data-name="Grupo 87770" transform="translate(0 28.21)">
            <path id="Trazado_101755" data-name="Trazado 101755" d="M2137.373,918.117a24.1,24.1,0,0,1,3.853-7.1c.509-.683,1.617-2.363,2.68-2.108,2.159.518,0,4.318,0,4.318s2.073-3.109,2.85-1.555a3.666,3.666,0,0,1-.345,3.282s3.282-2.159,2.073,2.159c0,0,2.677-.345,1.037,2.591-1.171,2.1-1.93,4.432-3.4,6.358a5.531,5.531,0,0,1-6.562,1.922c-2.713-1.3-3.06-4.769-2.725-7.411A14.437,14.437,0,0,1,2137.373,918.117Z" transform="translate(-2136.73 -908.878)" fill="#f9b384"/>
            <path id="Trazado_101756" data-name="Trazado 101756" d="M2162.708,927.556a.264.264,0,0,1-.1-.022.259.259,0,0,1-.132-.342l2.461-5.571a.259.259,0,1,1,.473.21l-2.461,5.57A.259.259,0,0,1,2162.708,927.556Z" transform="translate(-2157.41 -919.001)" fill="#e28b6d"/>
            <path id="Trazado_101757" data-name="Trazado 101757" d="M2175.6,940.533a.26.26,0,0,1-.235-.369l2.332-4.987a.259.259,0,1,1,.469.219l-2.332,4.987A.26.26,0,0,1,2175.6,940.533Z" transform="translate(-2167.779 -929.905)" fill="#e28b6d"/>
            <path id="Trazado_101758" data-name="Trazado 101758" d="M2185.522,953.915a.26.26,0,0,1-.229-.38l2.008-3.822a.259.259,0,1,1,.458.241l-2.008,3.822A.26.26,0,0,1,2185.522,953.915Z" transform="translate(-2175.756 -941.603)" fill="#e28b6d"/>
          </g>
          <path id="Trazado_101759" data-name="Trazado 101759" d="M2185.745,852.6h-9.068l-1.554-3.109h9.068Z" transform="translate(-2167.602 -832.915)" fill="#102048"/>
          <path id="Trazado_101760" data-name="Trazado 101760" d="M2270.794,808.2a7.94,7.94,0,0,1-4.483-1.351.389.389,0,0,1,.474-.616c.148.112,3.665,2.729,8.372-.111a.388.388,0,1,1,.4.665A9.125,9.125,0,0,1,2270.794,808.2Z" transform="translate(-2240.805 -797.995)" fill="#ba5c36"/>
          <path id="Trazado_101761" data-name="Trazado 101761" d="M2345.907,936.074a.42.42,0,0,1-.11-.016.391.391,0,0,1-.263-.484c3.727-12.618,1.659-20.869,1.638-20.951l-.151-.581,16.049,2.69a.389.389,0,0,1-.128.767l-14.9-2.5c.4,2.111,1.46,9.868-1.766,20.793A.39.39,0,0,1,2345.907,936.074Z" transform="translate(-2304.618 -884.821)" fill="#ba5c36"/>
          <path id="Trazado_101762" data-name="Trazado 101762" d="M2383.528,852.333h-.023a.389.389,0,0,1-.365-.412,30.3,30.3,0,0,0-5.375-17.032.389.389,0,1,1,.644-.435,31.1,31.1,0,0,1,5.507,17.515A.389.389,0,0,1,2383.528,852.333Z" transform="translate(-2330.495 -820.685)" fill="#ba5c36"/>
        </g>
        <g id="Grupo_87772" data-name="Grupo 87772" transform="translate(16.82 0)">
          <path id="Trazado_101763" data-name="Trazado 101763" d="M2281.3,716.586v10a5.624,5.624,0,1,1-11.239,0v-10Z" transform="translate(-2260.766 -696.474)" fill="#f9b384"/>
          <path id="Trazado_101764" data-name="Trazado 101764" d="M2275.993,720.067s-.583,6.179-5.928,7.967v-8.779Z" transform="translate(-2260.766 -698.621)" fill="#102048"/>
          <path id="Trazado_101765" data-name="Trazado 101765" d="M2247.327,642.77s-1.744,14.029,3.725,15.694,10.461-3.17,10.461-3.17l-1.03-11.572-8.084-4.755Z" transform="translate(-2242.269 -634.058)" fill="#f9b384"/>
          <path id="Trazado_101766" data-name="Trazado 101766" d="M2258.766,649.893l-10.788.715a12.722,12.722,0,0,1-2.643-6,7.5,7.5,0,0,0,1.109,6.1l-2.922.2c-2.591-3.876-4.767-12.458-2.2-19.8l.3-1.731s-1.845-5.586-4.519-5.824c0,0-9.171,6.187-13.254-.715-3.047-5.141-.477-11.9,6.85-6.913,0,0,17.607-8.26,17.566,8.674a10.747,10.747,0,0,0,3.378,8.053,6.06,6.06,0,0,0,.612.529C2256.206,636.316,2260.465,642.555,2258.766,649.893Z" transform="translate(-2222.595 -613.916)" fill="#102048"/>
          <ellipse id="Elipse_4832" data-name="Elipse 4832" cx="3.075" cy="2.631" rx="3.075" ry="2.631" transform="translate(15.824 17.664) rotate(-72.145)" fill="#f9b384"/>
          <path id="Trazado_101767" data-name="Trazado 101767" d="M2318.221,688.341a.259.259,0,0,1-.259-.259,2.154,2.154,0,0,1,1.929-2.159h.013a.259.259,0,0,1,.013.518,1.623,1.623,0,0,0-1.437,1.641A.259.259,0,0,1,2318.221,688.341Z" transform="translate(-2299.28 -671.817)" fill="#102048"/>
          <path id="Trazado_101768" data-name="Trazado 101768" d="M2252.906,683.043a.648.648,0,1,1-.648-.648A.648.648,0,0,1,2252.906,683.043Z" transform="translate(-2245.927 -668.98)" fill="#102048"/>
          <path id="Trazado_101769" data-name="Trazado 101769" d="M2272.855,681.39a.648.648,0,1,1-.648-.648A.648.648,0,0,1,2272.855,681.39Z" transform="translate(-2261.968 -667.651)" fill="#102048"/>
          <path id="Trazado_101770" data-name="Trazado 101770" d="M2259.493,691.77a.257.257,0,0,1-.181-.074,1.6,1.6,0,0,1-.64-1.453,1.345,1.345,0,0,1,.749-.842l-.057-1.28a.259.259,0,0,1,.248-.271.265.265,0,0,1,.27.247l.073,1.651-.183.063c-.143.05-.528.244-.595.547-.073.326.23.705.5.966a.259.259,0,0,1-.181.444Z" transform="translate(-2251.585 -673.368)" fill="#102048"/>
          <path id="Trazado_101771" data-name="Trazado 101771" d="M2263.224,711.581a2.519,2.519,0,0,1-.37-.023.258.258,0,0,1-.214-.3.268.268,0,0,1,.295-.216,3.324,3.324,0,0,0,2.479-.814.259.259,0,0,1,.34.391A3.85,3.85,0,0,1,2263.224,711.581Z" transform="translate(-2254.793 -691.313)" fill="#102048"/>
          <circle id="Elipse_4833" data-name="Elipse 4833" cx="1.7" cy="1.7" r="1.7" transform="translate(11.762 15.002)" fill="#eb5d60" opacity="0.4"/>
        </g>
      </g>
      <rect id="Rectángulo_34299" data-name="Rectángulo 34299" width="553.031" height="1.036" transform="translate(97.863 755.176)" fill="#102048"/>
    </g>
  </g>
</svg>
