<svg xmlns="http://www.w3.org/2000/svg" width="304.131" height="276.581" viewBox="0 0 304.131 276.581">
  <g id="Grupo_88442" data-name="Grupo 88442" transform="translate(-1054.159 -1539)">
    <rect id="Rectángulo_34128" data-name="Rectángulo 34128" width="195.572" height="195.572" rx="28" transform="translate(1081.71 1677.29) rotate(-45)" fill="#3b4454"/>
    <g id="Grupo_87716" data-name="Grupo 87716" transform="translate(527.691 806.742)">
      <g id="Grupo_87692" data-name="Grupo 87692" transform="translate(526.468 797.258)">
        <g id="Grupo_87688" data-name="Grupo 87688" transform="translate(10.158 31.988)">
          <path id="Trazado_101508" data-name="Trazado 101508" d="M914.919,1217.315l1.746,1.418s4.776-1.712,5.853,3.962c0,0,.287,2.419-1.245,2.423a30.618,30.618,0,0,0-3.069-.2c-2.169.064-3.967-1.08-4.285-2.84l-1.038-1.491Z" transform="translate(-862.815 -1183.836)" fill="#ea8e50"/>
          <path id="Trazado_101509" data-name="Trazado 101509" d="M643.553,1039.025a3.569,3.569,0,0,0,1.281-2.529s-16.127-13.2-17.763-14.279a199,199,0,0,1-18.543-17.681c-2.754-3.184-6.165-1.949-10.068-.829l-3.214.922c-3.881,1.113-4.89,6.541-1.706,9.179,8.968,7.428,23.887,15.783,26.678,17.539,6.93,4.359,20.494,9.539,20.494,9.539A8.592,8.592,0,0,0,643.553,1039.025Z" transform="translate(-591.647 -1002.503)" fill="#1e3d70"/>
        </g>
        <path id="Trazado_101510" data-name="Trazado 101510" d="M1014.878,1757.333a12.159,12.159,0,0,0,9.911,1.383s4.835-1.1,5.9,1.31c0,0-7.416,3.767-9.292,4.8a22.475,22.475,0,0,0-3.934,2.949,1.945,1.945,0,0,1-2.816-.217c-.326-.4-.7-.879-1.109-1.433-1.143-1.549-3.808-6.554-3.808-6.554Z" transform="translate(-934.409 -1607.702)" fill="#204272"/>
        <g id="Grupo_87691" data-name="Grupo 87691" transform="translate(22.094 3.803)">
          <circle id="Elipse_4812" data-name="Elipse 4812" cx="27.364" cy="27.364" r="27.364" transform="translate(2.387 38.699) rotate(-45)" fill="#e2810e"/>
          <circle id="Elipse_4813" data-name="Elipse 4813" cx="27.364" cy="27.364" r="27.364" transform="translate(0 38.699) rotate(-45)" fill="#ffc76c"/>
          <g id="Grupo_87689" data-name="Grupo 87689" transform="translate(13.767 14.091)">
            <path id="Trazado_101511" data-name="Trazado 101511" d="M781.5,961.932a24.932,24.932,0,1,1,17.629-7.3A24.769,24.769,0,0,1,781.5,961.932Zm0-48.376A23.445,23.445,0,1,0,804.941,937,23.471,23.471,0,0,0,781.5,913.555Z" transform="translate(-756.565 -912.068)" fill="#ffa412"/>
          </g>
          <g id="Grupo_87690" data-name="Grupo 87690" transform="translate(27.78 20.61)">
            <path id="Trazado_101512" data-name="Trazado 101512" d="M860.825,979.547a4.112,4.112,0,0,0-.059-1.448,3.006,3.006,0,0,0-.612-1.2,5.676,5.676,0,0,0-1.224-1.08,14.989,14.989,0,0,0-1.9-1.062,39.328,39.328,0,0,1-3.5-1.925,12.409,12.409,0,0,1-2.619-2.132,7.3,7.3,0,0,1-1.547-2.6,8.239,8.239,0,0,1,.666-6.231,6.929,6.929,0,0,1,1.932-2.146,8.651,8.651,0,0,1,2.766-1.317,11.535,11.535,0,0,1,3.454-.4l.488-4.109,3.307.392-.494,4.167a10.344,10.344,0,0,1,3.113,1.324,7.82,7.82,0,0,1,3.484,5,10.409,10.409,0,0,1,.137,3.531l-5.974-.709a5.069,5.069,0,0,0-.614-3.568,3.521,3.521,0,0,0-2.6-1.468,4.472,4.472,0,0,0-1.633.069,3.031,3.031,0,0,0-1.19.579,2.831,2.831,0,0,0-.767.99,4.16,4.16,0,0,0-.364,1.3,3.81,3.81,0,0,0,.054,1.311,2.818,2.818,0,0,0,.587,1.151,5.691,5.691,0,0,0,1.234,1.081,19.249,19.249,0,0,0,1.972,1.14q1.916.987,3.466,1.969a12.558,12.558,0,0,1,2.606,2.149,7.048,7.048,0,0,1,1.814,5.912,7.534,7.534,0,0,1-.949,2.964,6.849,6.849,0,0,1-1.94,2.126,8.358,8.358,0,0,1-2.781,1.267,12.465,12.465,0,0,1-3.471.367l-.454,3.821-3.287-.39.451-3.8a13.969,13.969,0,0,1-3.229-1.142,8.851,8.851,0,0,1-2.645-2,7.922,7.922,0,0,1-1.66-2.972,9.646,9.646,0,0,1-.275-4.044l5.974.709a5.942,5.942,0,0,0,.112,2.321,3.843,3.843,0,0,0,.85,1.581,3.731,3.731,0,0,0,1.366.941,6.389,6.389,0,0,0,1.638.418,5.336,5.336,0,0,0,1.735-.047,3.557,3.557,0,0,0,1.312-.546,2.835,2.835,0,0,0,.868-.958A3.452,3.452,0,0,0,860.825,979.547Z" transform="translate(-846.474 -953.898)" fill="#ffa412"/>
          </g>
        </g>
        <path id="Trazado_101513" data-name="Trazado 101513" d="M730.694,1369.023s-2.383,5.5-7.884,4.485c0,0-11.226-9.271-18.926-18.9a42.768,42.768,0,0,1-5.881-9.191c-5.106-11.822-18.888-29.454-27.65-38.391l21.923-7.931s7.022,14.125,16.365,31.476C715.374,1343.073,723.311,1357.249,730.694,1369.023Z" transform="translate(-647.928 -1220.882)" fill="#2b478b"/>
        <path id="Trazado_101514" data-name="Trazado 101514" d="M708.641,1330.571l-4.756,24.036a42.768,42.768,0,0,1-5.881-9.191c-5.106-11.822-18.888-29.454-27.65-38.391l21.923-7.931S699.3,1313.22,708.641,1330.571Z" transform="translate(-647.928 -1220.882)" fill="#233862"/>
        <path id="Trazado_101515" data-name="Trazado 101515" d="M758.325,1764.777s-.239,4.385,5.077,4.97c0,0,3.29.085,3.3,2.875l-16.008-.006s-.142-1.14-.251-3.551c-.083-1.851,1.795-6.692,1.795-6.692Z" transform="translate(-715.532 -1611.956)" fill="#204272"/>
        <path id="Trazado_101516" data-name="Trazado 101516" d="M649.53,1293.826s9.766,10.731,15.966,30.065c3.373,10.519-6.183,36.967-8.045,46.156,0,0-6.41.544-10.793-1.15,0,0-.333-18.979,2.23-33.608,1.434-8.187-12.859-17.509-19.1-32.3-4.249-10.064.92-9.893,7.272-10.135Z" transform="translate(-612.373 -1215.613)" fill="#2b478b"/>
        <path id="Trazado_101517" data-name="Trazado 101517" d="M602.86,920.164c-5.434,3.068-16.558.239-16.558.239s4.518-5.164,2.465-13.482l4.266,2.167,4.583,2.328a37.99,37.99,0,0,1,.5,4.107c.052.679.1,1.438.132,2.268A14.251,14.251,0,0,1,602.86,920.164Z" transform="translate(-576.977 -889.829)" fill="#ffb07b"/>
        <path id="Trazado_101518" data-name="Trazado 101518" d="M600.611,1025.115c0,.955-1.1,1.412-1.334,1.459-2.192.4-8.311,2.781-13.824,3.327a44.2,44.2,0,0,1-13.686-.926c-.627-.126-2.1-.523-2.2-1.124-.131-.656-18.262-36.963-4.167-52.559.331-.366,3.114.293,5.658.9a10.446,10.446,0,0,0,6.43-.525l2.386,1.255c2.931,1.633,8.475,7.434,9.124,11.986.329,2.315,1.653,4.029,2.036,6.066q.213,1.13.435,2.206.433,2.11.893,4.018c.829,3.443,1.7,6.407,2.563,8.967.914,2.719,1.811,4.98,2.613,6.871,1.039,2.453,1.917,4.286,2.466,5.69A7.011,7.011,0,0,1,600.611,1025.115Z" transform="translate(-554.803 -947.456)" fill="#aec3ff"/>
        <path id="Trazado_101519" data-name="Trazado 101519" d="M629.834,1089.462a71.24,71.24,0,0,1-34.459-35.214s20.795,7.671,25.924,9.668q.433,2.11.893,4.018c.829,3.443,1.7,6.407,2.563,8.967.914,2.719,1.812,4.98,2.613,6.871C628.407,1086.225,629.285,1088.058,629.834,1089.462Z" transform="translate(-584.636 -1014.195)" fill="#91b0f2"/>
        <path id="Trazado_101520" data-name="Trazado 101520" d="M906.306,1234.585l2.212.811a4.73,4.73,0,0,1,7.187,1.962s1,2.225-.581,2.708-1,.028-3.224.767-4.405.207-5.244-1.378l-1.5-1.1Z" transform="translate(-846.133 -1166.307)" fill="#ffb07b"/>
        <path id="Trazado_101521" data-name="Trazado 101521" d="M628.03,1048.121c.818-2.134,1.191-3.1,1.191-3.1s-16.713-13.622-18.415-14.791c-1.16-.8-12.713-9.432-18.345-16.161A11.788,11.788,0,0,0,581,1010.1l-3.508.736a5.218,5.218,0,0,0-2.326,9.067c9.255,7.934,24.865,17.136,27.775,19.051,7.225,4.752,23.206,11.41,23.206,11.41A4.115,4.115,0,0,0,628.03,1048.121Z" transform="translate(-566.036 -976.714)" fill="#aec3ff"/>
        <path id="Trazado_101522" data-name="Trazado 101522" d="M614.355,927.257c-5.343.3-8.818-4.112-8.818-4.112a42.421,42.421,0,0,0,3.733-2.323l4.583,2.328A37.983,37.983,0,0,1,614.355,927.257Z" transform="translate(-593.214 -901.564)" fill="#ea8e50"/>
        <path id="Trazado_101523" data-name="Trazado 101523" d="M589.454,853.08s-8.1,5.81-11.637.712-6.97-7.781-1.951-11.706,7.386-2.685,8.981-1.271S591.469,851.437,589.454,853.08Z" transform="translate(-566.036 -832.873)" fill="#ffb07b"/>
        <path id="Trazado_101524" data-name="Trazado 101524" d="M546.135,800.6a13.037,13.037,0,0,0-.944-3.338s-.508,2.1-4.354,1.814-9.942.378-11.974,4.761c-.129.279-.245.566-.347.86a10.141,10.141,0,0,1-.456-2.428,7.483,7.483,0,0,0,0,4.247h0c-.011.069-.02.138-.03.207a8.566,8.566,0,0,0-1.562,2.949,2.672,2.672,0,0,1,1.438-1.278c-.017,3.411,1.366,6.745,3.794,7.737,3.55,1.451,3.521.344,7.092,2.712,0,0,.958-1.188.3-1.987s-3.121-1.959-1.742-3.12,1.887.145,2.4-.653-2.032-3.121,1.234-5.3S546.426,802.556,546.135,800.6Z" transform="translate(-526.468 -797.258)" fill="#233862"/>
      </g>
      <g id="Grupo_87694" data-name="Grupo 87694" transform="translate(629.638 837.758)">
        <g id="Grupo_87693" data-name="Grupo 87693" transform="translate(0 0)">
          <path id="Trazado_101525" data-name="Trazado 101525" d="M1206.382,1399.661v12.149a4.342,4.342,0,0,1-4.421,4.229h-9.1a4.342,4.342,0,0,1-4.421-4.229v-12.149a4.342,4.342,0,0,1,4.421-4.229h9.1A4.342,4.342,0,0,1,1206.382,1399.661Z" transform="translate(-1188.438 -1342.704)" fill="#ed7d2b"/>
          <path id="Trazado_101526" data-name="Trazado 101526" d="M1206.382,1399.661v6.768a4.342,4.342,0,0,1-4.421,4.229h-9.1a4.342,4.342,0,0,1-4.421-4.229v-6.768a4.342,4.342,0,0,1,4.421-4.229h9.1A4.342,4.342,0,0,1,1206.382,1399.661Z" transform="translate(-1188.438 -1342.704)" fill="#f99746"/>
          <path id="Trazado_101527" data-name="Trazado 101527" d="M1365.406,1216.661a43.1,43.1,0,0,1-3.73,17.555c-7.2,16.213-24.04,27.658-43.538,27.658h-13.513c-.81,0-1.615-.019-2.416-.058a48.3,48.3,0,0,1-26.42-9.394,46.422,46.422,0,0,1-11.839-12.8,43.237,43.237,0,0,1-2.861-40.514c7.2-16.211,24.038-27.656,43.536-27.656h13.513a47.756,47.756,0,0,1,41.348,23.372A43.317,43.317,0,0,1,1365.406,1216.661Z" transform="translate(-1246.617 -1153.63)" fill="#ed7d2b"/>
          <path id="Trazado_101528" data-name="Trazado 101528" d="M1674.14,1594.809l-4.409,27.383a3.38,3.38,0,0,0,3.381,4.2H1684.7a6.675,6.675,0,0,0,5.9-3.439l18.008-34.358Z" transform="translate(-1594.62 -1505.761)" fill="#ed7d2b"/>
          <path id="Trazado_101529" data-name="Trazado 101529" d="M1335.609,1643.487h-11.587a6.674,6.674,0,0,1-5.9-3.439l-11.138-18.808-7.339-12.393,35.806,3.53,1.294,9.844,1.159,8.823,1.083,8.246A3.381,3.381,0,0,1,1335.609,1643.487Z" transform="translate(-1282.317 -1522.856)" fill="#ed7d2b"/>
          <path id="Trazado_101530" data-name="Trazado 101530" d="M1358.291,1211.435c-9.54,26.244-18.569,40.275-55.138,41.5q-1.064.035-2.1.062a243.369,243.369,0,0,1-25.261-.572c-1.645-.129-3.145-.269-4.5-.408l-7.339-12.393a43.237,43.237,0,0,1-2.861-40.514c7.2-16.211,24.038-27.656,43.536-27.656h13.513a47.756,47.756,0,0,1,41.348,23.372A35.464,35.464,0,0,1,1358.291,1211.435Z" transform="translate(-1246.617 -1153.63)" fill="#f99746"/>
          <path id="Trazado_101531" data-name="Trazado 101531" d="M1405.8,1086.261h-18.591c-1.875,0-3.394-1.089-3.394-2.432V1059.55a1.9,1.9,0,0,1,.371-1.119,4.2,4.2,0,0,1,5.077-.819c7.059,3.827,18.623,12.145,19.924,26.052C1409.316,1085.069,1407.762,1086.261,1405.8,1086.261Z" transform="translate(-1353.362 -1057.114)" fill="#f99746"/>
          <path id="Trazado_101532" data-name="Trazado 101532" d="M1387.962,1093.395h-.756c-1.875,0-3.394-1.089-3.394-2.432v-24.279a1.9,1.9,0,0,1,.371-1.119,2.369,2.369,0,0,1,.229.214c4.038,4.3,9.859,12.748,8.219,24.582C1392.394,1092.083,1390.376,1093.395,1387.962,1093.395Z" transform="translate(-1353.362 -1064.248)" fill="#ed7d2b"/>
          <path id="Trazado_101533" data-name="Trazado 101533" d="M1347.571,1333.921a2.773,2.773,0,1,1,2.77,2.649A2.712,2.712,0,0,1,1347.571,1333.921Z" transform="translate(-1322.77 -1288.543)" fill="#2b478b"/>
        </g>
      </g>
      <path id="Trazado_101534" data-name="Trazado 101534" d="M1705.736,1797.386v2.832a.966.966,0,0,0,.223.609,1.294,1.294,0,0,0,.61.408,1.433,1.433,0,0,0,.238.056,1.5,1.5,0,0,0,.229.018h53.709a1.227,1.227,0,0,0,1.3-1.035c0-.019,0-.037,0-.056v-2.832c0-.019,0-.037,0-.056a1.227,1.227,0,0,0-1.3-1.035h-53.709a1.516,1.516,0,0,0-.229.017,1.364,1.364,0,0,0-.238.056,1.292,1.292,0,0,0-.61.408A.965.965,0,0,0,1705.736,1797.386Z" transform="translate(-995.475 -843.333)" fill="#ffc76c"/>
      <path id="Trazado_101535" data-name="Trazado 101535" d="M1874.957,1801.309h28.774a1.136,1.136,0,0,0,1.159-1.035c0-.019,0-.037,0-.056v-2.832c0-.019,0-.037,0-.056a1.136,1.136,0,0,0-1.159-1.035h-25.24A8.791,8.791,0,0,1,1874.957,1801.309Z" transform="translate(-1138.322 -843.333)" fill="#ffae39"/>
      <g id="Grupo_87695" data-name="Grupo 87695" transform="translate(710.484 952.962)">
        <rect id="Rectángulo_34131" data-name="Rectángulo 34131" width="0.61" height="5.014" transform="translate(6.923 5.014) rotate(180)" fill="#ffa412"/>
        <rect id="Rectángulo_34132" data-name="Rectángulo 34132" width="0.61" height="5.014" transform="translate(8.989 5.014) rotate(180)" fill="#ffa412"/>
        <rect id="Rectángulo_34133" data-name="Rectángulo 34133" width="0.61" height="5.014" transform="translate(11.467 5.014) rotate(180)" fill="#ffa412"/>
        <rect id="Rectángulo_34134" data-name="Rectángulo 34134" width="0.61" height="5.014" transform="translate(15.265 5.014) rotate(180)" fill="#ffa412"/>
        <rect id="Rectángulo_34135" data-name="Rectángulo 34135" width="0.61" height="5.014" transform="translate(19.282 5.014) rotate(180)" fill="#ffa412"/>
        <rect id="Rectángulo_34136" data-name="Rectángulo 34136" width="0.61" height="5.014" transform="translate(25.439 5.014) rotate(180)" fill="#ffa412"/>
        <rect id="Rectángulo_34137" data-name="Rectángulo 34137" width="0.61" height="5.014" transform="translate(31.204 5.014) rotate(180)" fill="#ffa412"/>
        <rect id="Rectángulo_34138" data-name="Rectángulo 34138" width="0.61" height="5.014" transform="translate(36.352 5.014) rotate(180)" fill="#ffa412"/>
        <rect id="Rectángulo_34139" data-name="Rectángulo 34139" width="0.61" height="5.014" transform="translate(4.956 5.014) rotate(180)" fill="#ffa412"/>
        <rect id="Rectángulo_34140" data-name="Rectángulo 34140" width="0.61" height="5.014" transform="translate(3.657 5.014) rotate(180)" fill="#ffa412"/>
        <rect id="Rectángulo_34141" data-name="Rectángulo 34141" width="0.61" height="5.014" transform="translate(2.402 5.014) rotate(180)" fill="#ffa412"/>
        <path id="Trazado_101536" data-name="Trazado 101536" d="M1712.6,1796.312v4.979a1.505,1.505,0,0,0,.229.018h.381v-5.014h-.381A1.521,1.521,0,0,0,1712.6,1796.312Z" transform="translate(-1711.756 -1796.295)" fill="#ffa412"/>
        <path id="Trazado_101537" data-name="Trazado 101537" d="M1707.165,1797.176v4.05a1.294,1.294,0,0,0,.61.408v-4.867A1.292,1.292,0,0,0,1707.165,1797.176Z" transform="translate(-1707.165 -1796.694)" fill="#ffa412"/>
      </g>
      <path id="Trazado_101538" data-name="Trazado 101538" d="M1742.581,1765.214v2.832a.963.963,0,0,0,.223.609,1.292,1.292,0,0,0,.61.408,1.408,1.408,0,0,0,.238.056,1.507,1.507,0,0,0,.229.018h53.709a1.227,1.227,0,0,0,1.3-1.035c0-.019,0-.037,0-.056v-2.832c0-.019,0-.037,0-.056a1.227,1.227,0,0,0-1.3-1.035h-53.709q-.052,0-.1,0l-.044,0-.048.005-.035,0a1.432,1.432,0,0,0-.238.056l-.034.011-.033.012-.066.027-.037.017-.033.016-.061.033-.067.041-.05.035,0,0-.033.025a1.061,1.061,0,0,0-.094.081l-.026.025-.025.026c-.016.019-.033.037-.048.056A.964.964,0,0,0,1742.581,1765.214Z" transform="translate(-1026.577 -816.175)" fill="#ffc76c"/>
      <path id="Trazado_101539" data-name="Trazado 101539" d="M1911.8,1769.137h28.774a1.136,1.136,0,0,0,1.159-1.035c0-.019,0-.037,0-.056v-2.832c0-.019,0-.037,0-.056a1.135,1.135,0,0,0-1.159-1.035h-25.24c-.012.041-.023.082-.035.124A8.772,8.772,0,0,1,1911.8,1769.137Z" transform="translate(-1169.425 -816.175)" fill="#ffae39"/>
      <g id="Grupo_87696" data-name="Grupo 87696" transform="translate(716.227 947.948)">
        <rect id="Rectángulo_34142" data-name="Rectángulo 34142" width="0.61" height="5.014" transform="translate(6.923 5.014) rotate(180)" fill="#ffa412"/>
        <rect id="Rectángulo_34143" data-name="Rectángulo 34143" width="0.61" height="5.014" transform="translate(8.99 5.014) rotate(180)" fill="#ffa412"/>
        <rect id="Rectángulo_34144" data-name="Rectángulo 34144" width="0.61" height="5.014" transform="translate(11.467 5.014) rotate(180)" fill="#ffa412"/>
        <rect id="Rectángulo_34145" data-name="Rectángulo 34145" width="0.61" height="5.014" transform="translate(15.265 5.014) rotate(180)" fill="#ffa412"/>
        <rect id="Rectángulo_34146" data-name="Rectángulo 34146" width="0.61" height="5.014" transform="translate(19.282 5.014) rotate(180)" fill="#ffa412"/>
        <rect id="Rectángulo_34147" data-name="Rectángulo 34147" width="0.61" height="5.014" transform="translate(25.439 5.014) rotate(180)" fill="#ffa412"/>
        <rect id="Rectángulo_34148" data-name="Rectángulo 34148" width="0.61" height="5.014" transform="translate(31.204 5.014) rotate(180)" fill="#ffa412"/>
        <rect id="Rectángulo_34149" data-name="Rectángulo 34149" width="0.61" height="5.014" transform="translate(36.352 5.014) rotate(180)" fill="#ffa412"/>
        <rect id="Rectángulo_34150" data-name="Rectángulo 34150" width="0.61" height="5.014" transform="translate(4.956 5.014) rotate(180)" fill="#ffa412"/>
        <rect id="Rectángulo_34151" data-name="Rectángulo 34151" width="0.61" height="5.014" transform="translate(3.657 5.014) rotate(180)" fill="#ffa412"/>
        <rect id="Rectángulo_34152" data-name="Rectángulo 34152" width="0.61" height="5.014" transform="translate(2.402 5.014) rotate(180)" fill="#ffa412"/>
        <path id="Trazado_101540" data-name="Trazado 101540" d="M1749.449,1764.14v4.979a1.524,1.524,0,0,0,.229.017h.381v-5.014h-.381A1.508,1.508,0,0,0,1749.449,1764.14Z" transform="translate(-1748.601 -1764.123)" fill="#ffa412"/>
        <path id="Trazado_101541" data-name="Trazado 101541" d="M1744.01,1765v4.05a1.3,1.3,0,0,0,.61.409v-4.867A1.293,1.293,0,0,0,1744.01,1765Z" transform="translate(-1744.01 -1764.521)" fill="#ffa412"/>
      </g>
      <path id="Trazado_101542" data-name="Trazado 101542" d="M1724.776,1733.836v2.832a.965.965,0,0,0,.223.609,1.293,1.293,0,0,0,.61.408,1.385,1.385,0,0,0,.238.056,1.519,1.519,0,0,0,.229.017h53.709a1.486,1.486,0,0,0,.6-.124,1.114,1.114,0,0,0,.694-.862.48.48,0,0,0,0-.049c0-.019,0-.037,0-.056v-2.832c0-.019,0-.037,0-.056a1.227,1.227,0,0,0-1.3-1.035h-53.709a1.5,1.5,0,0,0-.229.017,1.408,1.408,0,0,0-.238.056,1.293,1.293,0,0,0-.61.408A.965.965,0,0,0,1724.776,1733.836Z" transform="translate(-1011.547 -789.688)" fill="#ffc76c"/>
      <path id="Trazado_101543" data-name="Trazado 101543" d="M1894,1737.759h28.774a1.2,1.2,0,0,0,.535-.124,1.1,1.1,0,0,0,.62-.862.48.48,0,0,0,0-.049c0-.019,0-.037,0-.056v-2.832c0-.019,0-.037,0-.056a1.136,1.136,0,0,0-1.159-1.035h-25.24a8.8,8.8,0,0,1-3.357,4.89C1894.117,1737.677,1894.058,1737.718,1894,1737.759Z" transform="translate(-1154.395 -789.688)" fill="#ffae39"/>
      <g id="Grupo_87697" data-name="Grupo 87697" transform="translate(713.452 943.057)">
        <rect id="Rectángulo_34153" data-name="Rectángulo 34153" width="0.61" height="5.014" transform="translate(6.923 5.014) rotate(180)" fill="#ffa412"/>
        <rect id="Rectángulo_34154" data-name="Rectángulo 34154" width="0.61" height="5.014" transform="translate(8.989 5.014) rotate(180)" fill="#ffa412"/>
        <rect id="Rectángulo_34155" data-name="Rectángulo 34155" width="0.61" height="5.014" transform="translate(11.467 5.014) rotate(180)" fill="#ffa412"/>
        <rect id="Rectángulo_34156" data-name="Rectángulo 34156" width="0.61" height="5.014" transform="translate(15.265 5.014) rotate(180)" fill="#ffa412"/>
        <rect id="Rectángulo_34157" data-name="Rectángulo 34157" width="0.61" height="5.014" transform="translate(19.282 5.014) rotate(180)" fill="#ffa412"/>
        <rect id="Rectángulo_34158" data-name="Rectángulo 34158" width="0.61" height="5.014" transform="translate(25.439 5.014) rotate(180)" fill="#ffa412"/>
        <rect id="Rectángulo_34159" data-name="Rectángulo 34159" width="0.61" height="5.014" transform="translate(31.204 5.014) rotate(180)" fill="#ffa412"/>
        <rect id="Rectángulo_34160" data-name="Rectángulo 34160" width="0.61" height="5.014" transform="translate(36.352 5.014) rotate(180)" fill="#ffa412"/>
        <rect id="Rectángulo_34161" data-name="Rectángulo 34161" width="0.61" height="5.014" transform="translate(4.956 5.014) rotate(180)" fill="#ffa412"/>
        <rect id="Rectángulo_34162" data-name="Rectángulo 34162" width="0.61" height="5.014" transform="translate(3.657 5.014) rotate(180)" fill="#ffa412"/>
        <rect id="Rectángulo_34163" data-name="Rectángulo 34163" width="0.61" height="5.014" transform="translate(2.402 5.014) rotate(180)" fill="#ffa412"/>
        <path id="Trazado_101544" data-name="Trazado 101544" d="M1731.644,1732.762v4.979a1.5,1.5,0,0,0,.229.018h.381v-5.014h-.381A1.5,1.5,0,0,0,1731.644,1732.762Z" transform="translate(-1730.796 -1732.745)" fill="#ffa412"/>
        <path id="Trazado_101545" data-name="Trazado 101545" d="M1726.205,1733.625v4.05a1.293,1.293,0,0,0,.61.408v-4.867A1.293,1.293,0,0,0,1726.205,1733.625Z" transform="translate(-1726.205 -1733.143)" fill="#ffa412"/>
      </g>
      <path id="Trazado_101546" data-name="Trazado 101546" d="M1716.522,1701.665v2.832a.965.965,0,0,0,.223.609,1.293,1.293,0,0,0,.61.408,1.4,1.4,0,0,0,.238.056,1.5,1.5,0,0,0,.229.017h53.709a1.227,1.227,0,0,0,1.3-1.035c0-.019,0-.037,0-.056v-2.832c0-.019,0-.037,0-.056a1.2,1.2,0,0,0-1.144-1.027,1.478,1.478,0,0,0-.154-.008h-53.709a1.5,1.5,0,0,0-.229.018,1.41,1.41,0,0,0-.238.056,1.294,1.294,0,0,0-.61.409A.964.964,0,0,0,1716.522,1701.665Z" transform="translate(-1004.58 -762.531)" fill="#ffc76c"/>
      <path id="Trazado_101547" data-name="Trazado 101547" d="M1885.743,1705.588h28.774a1.136,1.136,0,0,0,1.159-1.035c0-.019,0-.037,0-.056v-2.832c0-.019,0-.037,0-.056a1.127,1.127,0,0,0-1.022-1.027,1.171,1.171,0,0,0-.137-.008h-25.24l0,.008A8.792,8.792,0,0,1,1885.743,1705.588Z" transform="translate(-1147.427 -762.531)" fill="#ffae39"/>
      <g id="Grupo_87698" data-name="Grupo 87698" transform="translate(712.165 938.043)">
        <rect id="Rectángulo_34164" data-name="Rectángulo 34164" width="0.61" height="5.014" transform="translate(6.923 5.014) rotate(180)" fill="#ffa412"/>
        <rect id="Rectángulo_34165" data-name="Rectángulo 34165" width="0.61" height="5.014" transform="translate(8.989 5.014) rotate(180)" fill="#ffa412"/>
        <rect id="Rectángulo_34166" data-name="Rectángulo 34166" width="0.61" height="5.014" transform="translate(11.467 5.014) rotate(180)" fill="#ffa412"/>
        <rect id="Rectángulo_34167" data-name="Rectángulo 34167" width="0.61" height="5.014" transform="translate(15.265 5.014) rotate(180)" fill="#ffa412"/>
        <rect id="Rectángulo_34168" data-name="Rectángulo 34168" width="0.61" height="5.014" transform="translate(19.282 5.014) rotate(180)" fill="#ffa412"/>
        <rect id="Rectángulo_34169" data-name="Rectángulo 34169" width="0.61" height="5.014" transform="translate(25.439 5.014) rotate(180)" fill="#ffa412"/>
        <rect id="Rectángulo_34170" data-name="Rectángulo 34170" width="0.61" height="5.014" transform="translate(31.204 5.014) rotate(180)" fill="#ffa412"/>
        <rect id="Rectángulo_34171" data-name="Rectángulo 34171" width="0.61" height="5.014" transform="translate(36.352 5.014) rotate(180)" fill="#ffa412"/>
        <rect id="Rectángulo_34172" data-name="Rectángulo 34172" width="0.61" height="5.014" transform="translate(4.956 5.014) rotate(180)" fill="#ffa412"/>
        <rect id="Rectángulo_34173" data-name="Rectángulo 34173" width="0.61" height="5.014" transform="translate(3.657 5.014) rotate(180)" fill="#ffa412"/>
        <rect id="Rectángulo_34174" data-name="Rectángulo 34174" width="0.61" height="5.014" transform="translate(2.402 5.014) rotate(180)" fill="#ffa412"/>
        <path id="Trazado_101548" data-name="Trazado 101548" d="M1723.389,1700.59v4.979a1.516,1.516,0,0,0,.229.017H1724v-5.014h-.382A1.5,1.5,0,0,0,1723.389,1700.59Z" transform="translate(-1722.542 -1700.572)" fill="#ffa412"/>
        <path id="Trazado_101549" data-name="Trazado 101549" d="M1717.95,1701.453v4.05a1.294,1.294,0,0,0,.61.408v-4.867A1.294,1.294,0,0,0,1717.95,1701.453Z" transform="translate(-1717.95 -1700.971)" fill="#ffa412"/>
      </g>
      <path id="Trazado_101550" data-name="Trazado 101550" d="M1741.857,1669.544v2.832a.965.965,0,0,0,.223.609,1.294,1.294,0,0,0,.61.408,1.388,1.388,0,0,0,.238.056l.075.01.042,0,.042,0,.069,0h53.709a1.227,1.227,0,0,0,1.3-1.035c0-.019,0-.037,0-.056v-2.832c0-.019,0-.037,0-.056s0-.031,0-.046a1.177,1.177,0,0,0-.974-.956l-.039-.008a1.534,1.534,0,0,0-.281-.026h-53.709c-.04,0-.078,0-.116,0l-.052,0h0l-.06.008a1.424,1.424,0,0,0-.238.056,1.3,1.3,0,0,0-.61.408A.964.964,0,0,0,1741.857,1669.544Z" transform="translate(-1025.966 -735.416)" fill="#ffc76c"/>
      <path id="Trazado_101551" data-name="Trazado 101551" d="M1911.079,1673.467h28.774a1.136,1.136,0,0,0,1.159-1.035c0-.019,0-.037,0-.056v-2.832c0-.019,0-.037,0-.056s0-.031,0-.046a1.121,1.121,0,0,0-.9-.962.486.486,0,0,0-.05-.01,1.211,1.211,0,0,0-.206-.017h-25.24c0,.012-.006.023-.01.036a8.785,8.785,0,0,1-3.512,4.97Z" transform="translate(-1168.814 -735.416)" fill="#ffae39"/>
      <g id="Grupo_87699" data-name="Grupo 87699" transform="translate(716.114 933.037)">
        <rect id="Rectángulo_34175" data-name="Rectángulo 34175" width="0.61" height="5.014" transform="translate(6.923 5.014) rotate(180)" fill="#ffa412"/>
        <rect id="Rectángulo_34176" data-name="Rectángulo 34176" width="0.61" height="5.014" transform="translate(8.989 5.014) rotate(180)" fill="#ffa412"/>
        <rect id="Rectángulo_34177" data-name="Rectángulo 34177" width="0.61" height="5.014" transform="translate(11.467 5.014) rotate(180)" fill="#ffa412"/>
        <rect id="Rectángulo_34178" data-name="Rectángulo 34178" width="0.61" height="5.014" transform="translate(15.265 5.014) rotate(180)" fill="#ffa412"/>
        <rect id="Rectángulo_34179" data-name="Rectángulo 34179" width="0.61" height="5.014" transform="translate(19.282 5.014) rotate(180)" fill="#ffa412"/>
        <rect id="Rectángulo_34180" data-name="Rectángulo 34180" width="0.61" height="5.014" transform="translate(25.439 5.014) rotate(180)" fill="#ffa412"/>
        <rect id="Rectángulo_34181" data-name="Rectángulo 34181" width="0.61" height="5.014" transform="translate(31.204 5.014) rotate(180)" fill="#ffa412"/>
        <rect id="Rectángulo_34182" data-name="Rectángulo 34182" width="0.61" height="5.014" transform="translate(36.352 5.014) rotate(180)" fill="#ffa412"/>
        <rect id="Rectángulo_34183" data-name="Rectángulo 34183" width="0.61" height="5.014" transform="translate(4.956 5.014) rotate(180)" fill="#ffa412"/>
        <rect id="Rectángulo_34184" data-name="Rectángulo 34184" width="0.61" height="5.014" transform="translate(3.657 5.014) rotate(180)" fill="#ffa412"/>
        <rect id="Rectángulo_34185" data-name="Rectángulo 34185" width="0.61" height="5.014" transform="translate(2.402 5.014) rotate(180)" fill="#ffa412"/>
        <path id="Trazado_101552" data-name="Trazado 101552" d="M1748.725,1668.469v4.979a1.521,1.521,0,0,0,.229.017h.382v-5.014h-.382A1.49,1.49,0,0,0,1748.725,1668.469Z" transform="translate(-1747.877 -1668.451)" fill="#ffa412"/>
        <path id="Trazado_101553" data-name="Trazado 101553" d="M1743.286,1669.332v4.05a1.291,1.291,0,0,0,.61.408v-4.867A1.293,1.293,0,0,0,1743.286,1669.332Z" transform="translate(-1743.286 -1668.85)" fill="#ffa412"/>
      </g>
      <path id="Trazado_101554" data-name="Trazado 101554" d="M1742.581,1637.6v2.832a.963.963,0,0,0,.223.609,1.292,1.292,0,0,0,.61.408,1.346,1.346,0,0,0,.185.047h0l.051.009a1.507,1.507,0,0,0,.229.018h53.709a1.385,1.385,0,0,0,.168-.01c.022,0,.043,0,.064-.008a1.181,1.181,0,0,0,1.066-1.017c0-.019,0-.037,0-.056V1637.6c0-.019,0-.037,0-.056a1.227,1.227,0,0,0-1.3-1.035h-53.709q-.052,0-.1,0l-.044,0-.048.005-.035,0a1.4,1.4,0,0,0-.238.056l-.034.012-.033.012-.066.027c-.024.011-.047.021-.07.034l-.061.032c-.023.013-.045.027-.067.042s-.034.022-.05.034l0,0-.033.025a1.08,1.08,0,0,0-.094.081l-.026.025-.025.026c-.016.018-.033.037-.048.056A.963.963,0,0,0,1742.581,1637.6Z" transform="translate(-1026.577 -708.451)" fill="#ffc76c"/>
      <path id="Trazado_101555" data-name="Trazado 101555" d="M1911.8,1641.524h28.774l.068,0c.025,0,.05,0,.074-.007a1.124,1.124,0,0,0,1.016-1.027c0-.019,0-.037,0-.056V1637.6c0-.019,0-.037,0-.056a1.136,1.136,0,0,0-1.159-1.035h-25.24c-.012.041-.023.082-.035.124a8.779,8.779,0,0,1-3.447,4.855Z" transform="translate(-1169.425 -708.451)" fill="#ffae39"/>
      <g id="Grupo_87700" data-name="Grupo 87700" transform="translate(716.227 928.059)">
        <rect id="Rectángulo_34186" data-name="Rectángulo 34186" width="0.61" height="5.014" transform="translate(6.923 5.014) rotate(180)" fill="#ffa412"/>
        <rect id="Rectángulo_34187" data-name="Rectángulo 34187" width="0.61" height="5.014" transform="translate(8.99 5.014) rotate(180)" fill="#ffa412"/>
        <rect id="Rectángulo_34188" data-name="Rectángulo 34188" width="0.61" height="5.014" transform="translate(11.467 5.014) rotate(180)" fill="#ffa412"/>
        <rect id="Rectángulo_34189" data-name="Rectángulo 34189" width="0.61" height="5.014" transform="translate(15.265 5.014) rotate(180)" fill="#ffa412"/>
        <rect id="Rectángulo_34190" data-name="Rectángulo 34190" width="0.61" height="5.014" transform="translate(19.282 5.014) rotate(180)" fill="#ffa412"/>
        <rect id="Rectángulo_34191" data-name="Rectángulo 34191" width="0.61" height="5.014" transform="translate(25.439 5.014) rotate(180)" fill="#ffa412"/>
        <rect id="Rectángulo_34192" data-name="Rectángulo 34192" width="0.61" height="5.014" transform="translate(31.204 5.014) rotate(180)" fill="#ffa412"/>
        <rect id="Rectángulo_34193" data-name="Rectángulo 34193" width="0.61" height="5.014" transform="translate(36.352 5.014) rotate(180)" fill="#ffa412"/>
        <rect id="Rectángulo_34194" data-name="Rectángulo 34194" width="0.61" height="5.014" transform="translate(4.956 5.014) rotate(180)" fill="#ffa412"/>
        <rect id="Rectángulo_34195" data-name="Rectángulo 34195" width="0.61" height="5.014" transform="translate(3.657 5.014) rotate(180)" fill="#ffa412"/>
        <rect id="Rectángulo_34196" data-name="Rectángulo 34196" width="0.61" height="5.014" transform="translate(2.402 5.014) rotate(180)" fill="#ffa412"/>
        <path id="Trazado_101556" data-name="Trazado 101556" d="M1749.449,1636.528v4.979a1.508,1.508,0,0,0,.229.018h.381v-5.014h-.381A1.508,1.508,0,0,0,1749.449,1636.528Z" transform="translate(-1748.601 -1636.51)" fill="#ffa412"/>
        <path id="Trazado_101557" data-name="Trazado 101557" d="M1744.01,1637.391v4.05a1.3,1.3,0,0,0,.61.408v-4.867A1.3,1.3,0,0,0,1744.01,1637.391Z" transform="translate(-1744.01 -1636.908)" fill="#ffa412"/>
      </g>
      <path id="Trazado_101558" data-name="Trazado 101558" d="M1724.776,1606.223v2.832a.966.966,0,0,0,.223.609,1.293,1.293,0,0,0,.61.408,1.408,1.408,0,0,0,.238.056,1.5,1.5,0,0,0,.229.018h53.709a1.488,1.488,0,0,0,.6-.124,1.113,1.113,0,0,0,.694-.863.472.472,0,0,0,0-.049c0-.019,0-.037,0-.056v-2.832c0-.019,0-.037,0-.056a1.227,1.227,0,0,0-1.3-1.035h-53.709a1.5,1.5,0,0,0-.229.018,1.384,1.384,0,0,0-.238.056,1.3,1.3,0,0,0-.61.409A.964.964,0,0,0,1724.776,1606.223Z" transform="translate(-1011.547 -681.964)" fill="#ffc76c"/>
      <path id="Trazado_101559" data-name="Trazado 101559" d="M1894,1610.146h28.774a1.2,1.2,0,0,0,.535-.124,1.1,1.1,0,0,0,.62-.863.472.472,0,0,0,0-.049c0-.019,0-.037,0-.056v-2.832c0-.019,0-.037,0-.056a1.136,1.136,0,0,0-1.159-1.035h-25.24a8.8,8.8,0,0,1-3.357,4.89Z" transform="translate(-1154.395 -681.964)" fill="#ffae39"/>
      <g id="Grupo_87701" data-name="Grupo 87701" transform="translate(713.452 923.168)">
        <rect id="Rectángulo_34197" data-name="Rectángulo 34197" width="0.61" height="5.014" transform="translate(6.923 5.014) rotate(180)" fill="#ffa412"/>
        <rect id="Rectángulo_34198" data-name="Rectángulo 34198" width="0.61" height="5.014" transform="translate(8.989 5.014) rotate(180)" fill="#ffa412"/>
        <rect id="Rectángulo_34199" data-name="Rectángulo 34199" width="0.61" height="5.014" transform="translate(11.467 5.014) rotate(180)" fill="#ffa412"/>
        <rect id="Rectángulo_34200" data-name="Rectángulo 34200" width="0.61" height="5.014" transform="translate(15.265 5.014) rotate(180)" fill="#ffa412"/>
        <rect id="Rectángulo_34201" data-name="Rectángulo 34201" width="0.61" height="5.014" transform="translate(19.282 5.014) rotate(180)" fill="#ffa412"/>
        <rect id="Rectángulo_34202" data-name="Rectángulo 34202" width="0.61" height="5.014" transform="translate(25.439 5.014) rotate(180)" fill="#ffa412"/>
        <rect id="Rectángulo_34203" data-name="Rectángulo 34203" width="0.61" height="5.014" transform="translate(31.204 5.014) rotate(180)" fill="#ffa412"/>
        <rect id="Rectángulo_34204" data-name="Rectángulo 34204" width="0.61" height="5.014" transform="translate(36.352 5.014) rotate(180)" fill="#ffa412"/>
        <rect id="Rectángulo_34205" data-name="Rectángulo 34205" width="0.61" height="5.014" transform="translate(4.956 5.014) rotate(180)" fill="#ffa412"/>
        <rect id="Rectángulo_34206" data-name="Rectángulo 34206" width="0.61" height="5.014" transform="translate(3.657 5.014) rotate(180)" fill="#ffa412"/>
        <rect id="Rectángulo_34207" data-name="Rectángulo 34207" width="0.61" height="5.014" transform="translate(2.402 5.014) rotate(180)" fill="#ffa412"/>
        <path id="Trazado_101560" data-name="Trazado 101560" d="M1731.644,1605.151v4.979a1.473,1.473,0,0,0,.229.018h.381v-5.014h-.381A1.488,1.488,0,0,0,1731.644,1605.151Z" transform="translate(-1730.796 -1605.133)" fill="#ffa412"/>
        <path id="Trazado_101561" data-name="Trazado 101561" d="M1726.205,1606.012v4.05a1.294,1.294,0,0,0,.61.409V1605.6A1.3,1.3,0,0,0,1726.205,1606.012Z" transform="translate(-1726.205 -1605.531)" fill="#ffa412"/>
      </g>
      <path id="Trazado_101562" data-name="Trazado 101562" d="M1696.615,1574.052v2.832a.964.964,0,0,0,.223.609,1.294,1.294,0,0,0,.61.409,1.407,1.407,0,0,0,.238.056,1.5,1.5,0,0,0,.229.018h53.709a1.227,1.227,0,0,0,1.3-1.035c0-.019,0-.037,0-.056v-2.832c0-.019,0-.037,0-.056a1.2,1.2,0,0,0-1.144-1.027,1.48,1.48,0,0,0-.154-.008h-53.709a1.521,1.521,0,0,0-.229.017,1.408,1.408,0,0,0-.238.056,1.293,1.293,0,0,0-.61.408A.965.965,0,0,0,1696.615,1574.052Z" transform="translate(-987.775 -654.807)" fill="#ffc76c"/>
      <path id="Trazado_101563" data-name="Trazado 101563" d="M1865.836,1577.975h28.774a1.136,1.136,0,0,0,1.159-1.035c0-.019,0-.037,0-.056v-2.832c0-.019,0-.037,0-.056a1.126,1.126,0,0,0-1.021-1.027,1.174,1.174,0,0,0-.137-.008h-25.24l0,.008A8.79,8.79,0,0,1,1865.836,1577.975Z" transform="translate(-1130.622 -654.807)" fill="#ffae39"/>
      <g id="Grupo_87702" data-name="Grupo 87702" transform="translate(709.062 918.154)">
        <rect id="Rectángulo_34208" data-name="Rectángulo 34208" width="0.61" height="5.014" transform="translate(6.923 5.014) rotate(180)" fill="#ffa412"/>
        <rect id="Rectángulo_34209" data-name="Rectángulo 34209" width="0.61" height="5.014" transform="translate(8.989 5.014) rotate(180)" fill="#ffa412"/>
        <rect id="Rectángulo_34210" data-name="Rectángulo 34210" width="0.61" height="5.014" transform="translate(11.467 5.014) rotate(180)" fill="#ffa412"/>
        <rect id="Rectángulo_34211" data-name="Rectángulo 34211" width="0.61" height="5.014" transform="translate(15.265 5.014) rotate(180)" fill="#ffa412"/>
        <rect id="Rectángulo_34212" data-name="Rectángulo 34212" width="0.61" height="5.014" transform="translate(19.282 5.014) rotate(180)" fill="#ffa412"/>
        <rect id="Rectángulo_34213" data-name="Rectángulo 34213" width="0.61" height="5.014" transform="translate(25.439 5.014) rotate(180)" fill="#ffa412"/>
        <rect id="Rectángulo_34214" data-name="Rectángulo 34214" width="0.61" height="5.014" transform="translate(31.204 5.014) rotate(180)" fill="#ffa412"/>
        <rect id="Rectángulo_34215" data-name="Rectángulo 34215" width="0.61" height="5.014" transform="translate(36.352 5.014) rotate(180)" fill="#ffa412"/>
        <rect id="Rectángulo_34216" data-name="Rectángulo 34216" width="0.61" height="5.014" transform="translate(4.956 5.014) rotate(180)" fill="#ffa412"/>
        <rect id="Rectángulo_34217" data-name="Rectángulo 34217" width="0.61" height="5.014" transform="translate(3.657 5.014) rotate(180)" fill="#ffa412"/>
        <rect id="Rectángulo_34218" data-name="Rectángulo 34218" width="0.61" height="5.014" transform="translate(2.402 5.014) rotate(180)" fill="#ffa412"/>
        <path id="Trazado_101564" data-name="Trazado 101564" d="M1703.48,1572.978v4.979a1.521,1.521,0,0,0,.229.017h.381v-5.014h-.381A1.505,1.505,0,0,0,1703.48,1572.978Z" transform="translate(-1702.632 -1572.96)" fill="#ffa412"/>
        <path id="Trazado_101565" data-name="Trazado 101565" d="M1698.042,1573.841v4.05a1.292,1.292,0,0,0,.61.408v-4.867A1.291,1.291,0,0,0,1698.042,1573.841Z" transform="translate(-1698.042 -1573.359)" fill="#ffa412"/>
      </g>
      <path id="Trazado_101566" data-name="Trazado 101566" d="M1741.857,1541.931v2.832a.964.964,0,0,0,.223.609,1.294,1.294,0,0,0,.61.408,1.4,1.4,0,0,0,.238.056l.075.01.06,0,.03,0h53.772a1.227,1.227,0,0,0,1.3-1.035c0-.019,0-.037,0-.056v-2.832c0-.019,0-.037,0-.056a1.227,1.227,0,0,0-1.3-1.035h-53.709l-.069,0a1.488,1.488,0,0,0-.16.016,1.423,1.423,0,0,0-.238.056c-.039.013-.077.027-.113.042s-.045.019-.067.03l-.007,0-.065.034-.011.006a.658.658,0,0,0-.058.036,1.091,1.091,0,0,0-.129.095l-.037.032-.006.006-.022.021,0,0c-.013.013-.026.026-.038.04s-.035.039-.052.059A.965.965,0,0,0,1741.857,1541.931Z" transform="translate(-1025.966 -627.692)" fill="#ffc76c"/>
      <path id="Trazado_101567" data-name="Trazado 101567" d="M1911.079,1545.854h28.774a1.136,1.136,0,0,0,1.159-1.035c0-.019,0-.037,0-.056v-2.832c0-.019,0-.037,0-.056a1.136,1.136,0,0,0-1.159-1.035h-25.24c-.01.038-.021.077-.033.116a8.771,8.771,0,0,1-3.489,4.891Z" transform="translate(-1168.814 -627.692)" fill="#ffae39"/>
      <g id="Grupo_87703" data-name="Grupo 87703" transform="translate(716.114 913.148)">
        <rect id="Rectángulo_34219" data-name="Rectángulo 34219" width="0.61" height="5.014" transform="translate(6.923 5.014) rotate(180)" fill="#ffa412"/>
        <rect id="Rectángulo_34220" data-name="Rectángulo 34220" width="0.61" height="5.014" transform="translate(8.989 5.014) rotate(180)" fill="#ffa412"/>
        <rect id="Rectángulo_34221" data-name="Rectángulo 34221" width="0.61" height="5.014" transform="translate(11.467 5.014) rotate(180)" fill="#ffa412"/>
        <rect id="Rectángulo_34222" data-name="Rectángulo 34222" width="0.61" height="5.014" transform="translate(15.265 5.014) rotate(180)" fill="#ffa412"/>
        <rect id="Rectángulo_34223" data-name="Rectángulo 34223" width="0.61" height="5.014" transform="translate(19.282 5.014) rotate(180)" fill="#ffa412"/>
        <rect id="Rectángulo_34224" data-name="Rectángulo 34224" width="0.61" height="5.014" transform="translate(25.439 5.014) rotate(180)" fill="#ffa412"/>
        <rect id="Rectángulo_34225" data-name="Rectángulo 34225" width="0.61" height="5.014" transform="translate(31.204 5.014) rotate(180)" fill="#ffa412"/>
        <rect id="Rectángulo_34226" data-name="Rectángulo 34226" width="0.61" height="5.014" transform="translate(36.352 5.014) rotate(180)" fill="#ffa412"/>
        <rect id="Rectángulo_34227" data-name="Rectángulo 34227" width="0.61" height="5.014" transform="translate(4.956 5.014) rotate(180)" fill="#ffa412"/>
        <rect id="Rectángulo_34228" data-name="Rectángulo 34228" width="0.61" height="5.014" transform="translate(3.657 5.014) rotate(180)" fill="#ffa412"/>
        <rect id="Rectángulo_34229" data-name="Rectángulo 34229" width="0.61" height="5.014" transform="translate(2.402 5.014) rotate(180)" fill="#ffa412"/>
        <path id="Trazado_101568" data-name="Trazado 101568" d="M1748.725,1540.857v4.979a1.49,1.49,0,0,0,.229.018h.382v-5.014h-.382A1.521,1.521,0,0,0,1748.725,1540.857Z" transform="translate(-1747.877 -1540.84)" fill="#ffa412"/>
        <path id="Trazado_101569" data-name="Trazado 101569" d="M1743.286,1541.72v4.05a1.294,1.294,0,0,0,.61.409v-4.867A1.293,1.293,0,0,0,1743.286,1541.72Z" transform="translate(-1743.286 -1541.238)" fill="#ffa412"/>
      </g>
      <path id="Trazado_101570" data-name="Trazado 101570" d="M1716.522,1510.5v2.832a.965.965,0,0,0,.223.609,1.293,1.293,0,0,0,.61.408,1.4,1.4,0,0,0,.238.056,1.533,1.533,0,0,0,.229.017h53.709a1.49,1.49,0,0,0,.581-.116,1.117,1.117,0,0,0,.714-.875c0-.015,0-.03,0-.045s0-.037,0-.056V1510.5c0-.019,0-.037,0-.056a1.2,1.2,0,0,0-1.144-1.028,1.478,1.478,0,0,0-.154-.008h-53.709a1.5,1.5,0,0,0-.229.017,1.41,1.41,0,0,0-.238.056,1.3,1.3,0,0,0-.61.408A.964.964,0,0,0,1716.522,1510.5Z" transform="translate(-1004.58 -601.161)" fill="#ffc76c"/>
      <path id="Trazado_101571" data-name="Trazado 101571" d="M1885.743,1514.425h28.774a1.206,1.206,0,0,0,.518-.116,1.1,1.1,0,0,0,.637-.875c0-.015,0-.03,0-.045s0-.037,0-.056V1510.5c0-.019,0-.037,0-.056a1.127,1.127,0,0,0-1.022-1.028,1.171,1.171,0,0,0-.137-.008h-25.24l0,.008a8.8,8.8,0,0,1-3.366,4.891C1885.854,1514.348,1885.8,1514.387,1885.743,1514.425Z" transform="translate(-1147.427 -601.161)" fill="#ffae39"/>
      <g id="Grupo_87704" data-name="Grupo 87704" transform="translate(712.165 908.25)">
        <rect id="Rectángulo_34230" data-name="Rectángulo 34230" width="0.61" height="5.014" transform="translate(6.923 5.014) rotate(180)" fill="#ffa412"/>
        <rect id="Rectángulo_34231" data-name="Rectángulo 34231" width="0.61" height="5.014" transform="translate(8.989 5.014) rotate(180)" fill="#ffa412"/>
        <rect id="Rectángulo_34232" data-name="Rectángulo 34232" width="0.61" height="5.014" transform="translate(11.467 5.014) rotate(180)" fill="#ffa412"/>
        <rect id="Rectángulo_34233" data-name="Rectángulo 34233" width="0.61" height="5.014" transform="translate(15.265 5.014) rotate(180)" fill="#ffa412"/>
        <rect id="Rectángulo_34234" data-name="Rectángulo 34234" width="0.61" height="5.014" transform="translate(19.282 5.014) rotate(180)" fill="#ffa412"/>
        <rect id="Rectángulo_34235" data-name="Rectángulo 34235" width="0.61" height="5.014" transform="translate(25.439 5.014) rotate(180)" fill="#ffa412"/>
        <rect id="Rectángulo_34236" data-name="Rectángulo 34236" width="0.61" height="5.014" transform="translate(31.204 5.014) rotate(180)" fill="#ffa412"/>
        <rect id="Rectángulo_34237" data-name="Rectángulo 34237" width="0.61" height="5.014" transform="translate(36.352 5.014) rotate(180)" fill="#ffa412"/>
        <rect id="Rectángulo_34238" data-name="Rectángulo 34238" width="0.61" height="5.014" transform="translate(4.956 5.014) rotate(180)" fill="#ffa412"/>
        <rect id="Rectángulo_34239" data-name="Rectángulo 34239" width="0.61" height="5.014" transform="translate(3.657 5.014) rotate(180)" fill="#ffa412"/>
        <rect id="Rectángulo_34240" data-name="Rectángulo 34240" width="0.61" height="5.014" transform="translate(2.402 5.014) rotate(180)" fill="#ffa412"/>
        <path id="Trazado_101572" data-name="Trazado 101572" d="M1723.389,1509.427v4.979a1.516,1.516,0,0,0,.229.017H1724v-5.014h-.382A1.516,1.516,0,0,0,1723.389,1509.427Z" transform="translate(-1722.542 -1509.41)" fill="#ffa412"/>
        <path id="Trazado_101573" data-name="Trazado 101573" d="M1717.95,1510.291v4.05a1.293,1.293,0,0,0,.61.408v-4.867A1.293,1.293,0,0,0,1717.95,1510.291Z" transform="translate(-1717.95 -1509.809)" fill="#ffa412"/>
      </g>
      <path id="Trazado_101574" data-name="Trazado 101574" d="M1705.736,1478.381v2.832a.965.965,0,0,0,.223.609,1.294,1.294,0,0,0,.61.408,1.4,1.4,0,0,0,.238.056l.075.01.042,0,.043,0,.069,0h53.709a1.227,1.227,0,0,0,1.3-1.035c0-.019,0-.037,0-.056v-2.832c0-.019,0-.037,0-.056a1.227,1.227,0,0,0-1.3-1.035h-53.709a1.516,1.516,0,0,0-.229.017,1.421,1.421,0,0,0-.238.056,1.3,1.3,0,0,0-.61.409A.965.965,0,0,0,1705.736,1478.381Z" transform="translate(-995.475 -574.047)" fill="#ffc76c"/>
      <path id="Trazado_101575" data-name="Trazado 101575" d="M1874.957,1482.3h28.774a1.136,1.136,0,0,0,1.159-1.035c0-.019,0-.037,0-.056v-2.832c0-.019,0-.037,0-.056a1.136,1.136,0,0,0-1.159-1.035h-25.24a8.789,8.789,0,0,1-3.522,5.006Z" transform="translate(-1138.322 -574.047)" fill="#ffae39"/>
      <g id="Grupo_87705" data-name="Grupo 87705" transform="translate(710.484 903.243)">
        <rect id="Rectángulo_34241" data-name="Rectángulo 34241" width="0.61" height="5.014" transform="translate(6.923 5.014) rotate(180)" fill="#ffa412"/>
        <rect id="Rectángulo_34242" data-name="Rectángulo 34242" width="0.61" height="5.014" transform="translate(8.989 5.014) rotate(180)" fill="#ffa412"/>
        <rect id="Rectángulo_34243" data-name="Rectángulo 34243" width="0.61" height="5.014" transform="translate(11.467 5.014) rotate(180)" fill="#ffa412"/>
        <rect id="Rectángulo_34244" data-name="Rectángulo 34244" width="0.61" height="5.014" transform="translate(15.265 5.014) rotate(180)" fill="#ffa412"/>
        <rect id="Rectángulo_34245" data-name="Rectángulo 34245" width="0.61" height="5.014" transform="translate(19.282 5.014) rotate(180)" fill="#ffa412"/>
        <rect id="Rectángulo_34246" data-name="Rectángulo 34246" width="0.61" height="5.014" transform="translate(25.439 5.014) rotate(180)" fill="#ffa412"/>
        <rect id="Rectángulo_34247" data-name="Rectángulo 34247" width="0.61" height="5.014" transform="translate(31.204 5.014) rotate(180)" fill="#ffa412"/>
        <rect id="Rectángulo_34248" data-name="Rectángulo 34248" width="0.611" height="5.014" transform="translate(35.741 0)" fill="#ffa412"/>
        <rect id="Rectángulo_34249" data-name="Rectángulo 34249" width="0.61" height="5.014" transform="translate(4.956 5.014) rotate(180)" fill="#ffa412"/>
        <rect id="Rectángulo_34250" data-name="Rectángulo 34250" width="0.61" height="5.014" transform="translate(3.657 5.014) rotate(180)" fill="#ffa412"/>
        <rect id="Rectángulo_34251" data-name="Rectángulo 34251" width="0.61" height="5.014" transform="translate(2.402 5.014) rotate(180)" fill="#ffa412"/>
        <path id="Trazado_101576" data-name="Trazado 101576" d="M1712.6,1477.306v4.979a1.52,1.52,0,0,0,.229.017h.382v-5.014h-.382A1.52,1.52,0,0,0,1712.6,1477.306Z" transform="translate(-1711.756 -1477.289)" fill="#ffa412"/>
        <path id="Trazado_101577" data-name="Trazado 101577" d="M1707.165,1478.17v4.05a1.292,1.292,0,0,0,.61.408v-4.867A1.293,1.293,0,0,0,1707.165,1478.17Z" transform="translate(-1707.165 -1477.688)" fill="#ffa412"/>
      </g>
      <g id="Grupo_87708" data-name="Grupo 87708" transform="translate(738.815 896.149)">
        <circle id="Elipse_4814" data-name="Elipse 4814" cx="25.526" cy="25.526" r="25.526" transform="translate(0 36.099) rotate(-45)" fill="#e2810e"/>
        <circle id="Elipse_4815" data-name="Elipse 4815" cx="25.526" cy="25.526" r="25.526" transform="translate(2.227 36.099) rotate(-45)" fill="#ffc76c"/>
        <g id="Grupo_87706" data-name="Grupo 87706" transform="translate(15.069 13.144)">
          <path id="Trazado_101578" data-name="Trazado 101578" d="M1992.44,1555.8a23.257,23.257,0,1,1,16.445,6.812A23.1,23.1,0,0,1,1992.44,1555.8Zm-5.424-16.445a21.869,21.869,0,1,0,21.869-21.869A21.894,21.894,0,0,0,1987.015,1539.359Z" transform="translate(-1985.628 -1516.103)" fill="#ffa412"/>
        </g>
        <g id="Grupo_87707" data-name="Grupo 87707" transform="translate(28.147 19.225)">
          <path id="Trazado_101579" data-name="Trazado 101579" d="M2082.931,1579.046a3.835,3.835,0,0,0-.055-1.35,2.806,2.806,0,0,0-.571-1.121,5.3,5.3,0,0,0-1.142-1.007,14.01,14.01,0,0,0-1.77-.991,36.677,36.677,0,0,1-3.268-1.8,11.571,11.571,0,0,1-2.443-1.988,6.816,6.816,0,0,1-1.443-2.424,7.685,7.685,0,0,1,.621-5.812,6.466,6.466,0,0,1,1.8-2,8.073,8.073,0,0,1,2.581-1.229,10.758,10.758,0,0,1,3.222-.371l.455-3.833,3.085.366-.461,3.887a9.651,9.651,0,0,1,2.9,1.235,7.292,7.292,0,0,1,3.25,4.663,9.7,9.7,0,0,1,.127,3.294l-5.573-.661a4.727,4.727,0,0,0-.573-3.329,3.284,3.284,0,0,0-2.428-1.369,4.177,4.177,0,0,0-1.523.065,2.827,2.827,0,0,0-1.11.54,2.634,2.634,0,0,0-.716.923,3.884,3.884,0,0,0-.34,1.213,3.559,3.559,0,0,0,.051,1.223,2.626,2.626,0,0,0,.547,1.073,5.308,5.308,0,0,0,1.152,1.008,17.926,17.926,0,0,0,1.839,1.063q1.787.921,3.234,1.837a11.707,11.707,0,0,1,2.431,2.005,6.575,6.575,0,0,1,1.692,5.514,7.025,7.025,0,0,1-.885,2.765,6.385,6.385,0,0,1-1.809,1.983,7.8,7.8,0,0,1-2.594,1.182,11.619,11.619,0,0,1-3.238.343l-.423,3.564-3.066-.364.421-3.547a13.027,13.027,0,0,1-3.012-1.066,8.256,8.256,0,0,1-2.468-1.864,7.388,7.388,0,0,1-1.548-2.772,9,9,0,0,1-.256-3.772l5.573.661a5.541,5.541,0,0,0,.1,2.165,3.583,3.583,0,0,0,.793,1.475,3.475,3.475,0,0,0,1.274.878,5.947,5.947,0,0,0,1.528.39,4.978,4.978,0,0,0,1.619-.044,3.319,3.319,0,0,0,1.224-.509,2.643,2.643,0,0,0,.81-.894A3.214,3.214,0,0,0,2082.931,1579.046Z" transform="translate(-2069.543 -1555.121)" fill="#ffa412"/>
        </g>
      </g>
      <g id="Grupo_87709" data-name="Grupo 87709" transform="translate(624.002 919.055)">
        <path id="Trazado_101580" data-name="Trazado 101580" d="M1339.767,1584.88s-3.221,4.535-6.175,4.6-7.446-2.1-7.446-2.1-2.712-6.043-.872-8.408a3.949,3.949,0,0,1,3.773.62,5.789,5.789,0,0,1,1,.956,3.168,3.168,0,0,0,1.55,1.051c2.107.641,4.609-.867,5.544.589a9.879,9.879,0,0,0,1.629,1.929A7.446,7.446,0,0,0,1339.767,1584.88Z" transform="translate(-1297.771 -1578.74)" fill="#ffeddc"/>
        <path id="Trazado_101581" data-name="Trazado 101581" d="M1152.271,1675.754s11.386-27.589,31.881-28.115c0,0,18.918,2.1,19.969,28.115Z" transform="translate(-1152.271 -1636.902)" fill="#ffeddc"/>
        <path id="Trazado_101582" data-name="Trazado 101582" d="M1320.584,1633.706s8.215,1.827,10.75.753c0,0,.383-3.435-3.077-2.953a7.259,7.259,0,0,1-4.817-1.27C1322.156,1629.583,1320.243,1632.269,1320.584,1633.706Z" transform="translate(-1294.318 -1622.125)" fill="#2b478b"/>
        <path id="Trazado_101583" data-name="Trazado 101583" d="M1355.087,1589.737c-.525.394-2.139-5.554-2.139-5.554a5.79,5.79,0,0,1,1,.956,3.168,3.168,0,0,0,1.55,1.051C1355.5,1586.364,1355.6,1589.354,1355.087,1589.737Z" transform="translate(-1321.672 -1583.335)" fill="#e5c1a1"/>
        <path id="Trazado_101584" data-name="Trazado 101584" d="M1391.027,1602.769a33.858,33.858,0,0,1-4.43,2.344c-.526,0,2.8-4.272,2.8-4.272A9.884,9.884,0,0,0,1391.027,1602.769Z" transform="translate(-1350.029 -1597.396)" fill="#e5c1a1"/>
        <path id="Trazado_101585" data-name="Trazado 101585" d="M1223.62,1712.153c-.211-.18,8.058-12.174,10.335-12.262s7.394,2.628,11.1,2.978,7.3-.7,8,1.489,2.628,9.952,1.445,11.195S1228.166,1716.037,1223.62,1712.153Z" transform="translate(-1212.496 -1681.007)" fill="#f9ddbf"/>
      </g>
      <g id="Grupo_87715" data-name="Grupo 87715" transform="translate(678.518 825.004)">
        <g id="Grupo_87714" data-name="Grupo 87714" transform="translate(0 0)">
          <g id="Grupo_87713" data-name="Grupo 87713">
            <path id="Trazado_101586" data-name="Trazado 101586" d="M1794.057,1614.509a1.4,1.4,0,0,1,.25,1.5.011.011,0,0,1,0,.007,9.309,9.309,0,0,1-2.942,3.228c-.177.143-.335.273-.472.394-.036.031-.072.063-.106.095l-.082.074c-1.293,1.192-.807,1.465-3.13,3.884-2.649,2.756-4.473,2.806-4.992,2.555-.439-.214.453-1.676,1.441-3.319.048-.079.095-.159.144-.24.131-.219.262-.44.393-.66,1.158-1.978.861-2.905.586-5.849-.223-2.391-3.721-13.361-3.721-13.361l5.077-.875s1.529,8.735,3.213,10.08c.9.717,1.909.726,2.775,1.258.061.037.121.075.18.114A6.664,6.664,0,0,1,1794.057,1614.509Z" transform="translate(-1737.884 -1504.274)" fill="#ffb27d"/>
            <path id="Trazado_101587" data-name="Trazado 101587" d="M1799.7,1675.915a1.4,1.4,0,0,1,.25,1.5.012.012,0,0,1,0,.007,10.779,10.779,0,0,1-2.947,3.217c-.175.146-.33.279-.467.4-.036.031-.072.063-.106.095l-.082.074c-1.293,1.192-.807,1.465-3.13,3.884-2.649,2.756-4.473,2.806-4.992,2.555-.439-.214.453-1.676,1.441-3.319a11.288,11.288,0,0,0,4.722-3.48c1.6-2.035,2.659-4.651,3.745-6.166q.092.055.18.114A6.663,6.663,0,0,1,1799.7,1675.915Z" transform="translate(-1743.524 -1565.68)" fill="#233862"/>
            <path id="Trazado_101588" data-name="Trazado 101588" d="M1517.3,1602.969c-.314,1.567-2.547,1.306-5.043.7s-1.9.115-5.455-.278-4.628-1.718-4.736-2.246c-.1-.469,1.658-.634,3.541-.851.237-.027.474-.056.712-.085,2.125-.267,3.682-1.638,5.612-2.764,1.829-1.067,4.558-5.414,4.558-5.414l4.871.386s-2.556,3.882-3.545,5.57a5.885,5.885,0,0,0-.478,3.319A6.257,6.257,0,0,1,1517.3,1602.969Z" transform="translate(-1502.062 -1495.905)" fill="#ffb27d"/>
            <path id="Trazado_101589" data-name="Trazado 101589" d="M1512.257,1648.421c-2.5-.61-1.9.115-5.455-.278s-4.628-1.718-4.736-2.246c-.1-.469,1.658-.634,3.541-.851l.018.036a10.013,10.013,0,0,0,5.087,1.581c2.41.058,4.962-.632,6.626-.6a6.258,6.258,0,0,1-.038,1.666C1516.986,1649.293,1514.752,1649.031,1512.257,1648.421Z" transform="translate(-1502.062 -1540.661)" fill="#233862"/>
            <path id="Trazado_101590" data-name="Trazado 101590" d="M1719.6,1420.1l4.553,12.253,5.945,16a9.632,9.632,0,0,0,3.158-.288,13.693,13.693,0,0,0,3.054-1.487s-1.651-17.178-4.73-27.039a17.563,17.563,0,0,0-2.65-5.731C1724.16,1408.162,1719.6,1420.1,1719.6,1420.1Z" transform="translate(-1685.698 -1344.179)" fill="#233862"/>
            <path id="Trazado_101591" data-name="Trazado 101591" d="M1603.464,1324.279c2.983-.962,11.491.273,20.039,1.946l1.789-2.952,18.462-1.442s6.092,13.509,2.757,22.117a3.122,3.122,0,0,1-3.125,2.1h-.269s-10.988-.006-14.556-.006c-9.181,0-19.43-6.311-20.756-6.576-2.17-.434-3.038,3.906-5.208,8.464s-20.4,20.182-20.4,20.182a16.043,16.043,0,0,1-3.959-.406,3.9,3.9,0,0,1-1.7-1.073S1596.736,1326.449,1603.464,1324.279Z" transform="translate(-1564.93 -1267.821)" fill="#2b478b"/>
            <path id="Trazado_101592" data-name="Trazado 101592" d="M1836.316,1005.067c5.823,4.735,19.85,12.94,19.927,12.905,0,0,4.493,2.692,7.559,1.371,5.11-2.2,9.034-9.909,1.966-18.437-3.525-4.253-6.448-5.654-5.762-11.308.744-6.126-2.023-13.829-9.074-14.152-.589-.027-4.16-.5-6.708.3C1837.73,977.781,1826.869,1001.93,1836.316,1005.067Z" transform="translate(-1781.097 -975.281)" fill="#233862"/>
            <path id="Trazado_101593" data-name="Trazado 101593" d="M1897.782,1153.765c-.38,1.049-10.361,1.985-16.04,1.608a7.786,7.786,0,0,1-3.665-.792c-2.026-1.76-1.824,2.11-2.1-16.406-.134-9.031,7.664-17.075,7.664-17.075s.622,3.858,8.356-.734c.275-.161,3.32,4.349,6.252,9.9C1901.476,1136.4,1898.17,1152.687,1897.782,1153.765Z" transform="translate(-1817.698 -1097.751)" fill="#aec3ff"/>
            <path id="Trazado_101594" data-name="Trazado 101594" d="M1748.818,1471.594l5.945,16a9.632,9.632,0,0,0,3.158-.288,13.69,13.69,0,0,0,3.054-1.487s-1.651-17.178-4.73-27.039Z" transform="translate(-1710.36 -1383.423)" fill="#2b478b"/>
            <path id="Trazado_101595" data-name="Trazado 101595" d="M1804.677,1125.086s-7.061,1.732-8.892,4.775c-2.23,3.706-13.352,20.416-13.352,20.416s10.964,3.878,12.833,2.01,6.5-17.338,6.5-17.338Z" transform="translate(-1738.736 -1101.738)" fill="#aec3ff"/>
            <path id="Trazado_101596" data-name="Trazado 101596" d="M1928.868,1085.909a19.184,19.184,0,0,1-4.958,3.422c-.826.3-2.2.631-2.2.631s-1.1-1.114-1.117-1.129c-.979-.914,0-1.177-.143-2.906-.008-.082-.014-.166-.024-.249a31.237,31.237,0,0,0-.792-4.188.015.015,0,0,1,0-.006l6.832-1.954-.22.377C1926.666,1083.453,1927.94,1085.806,1928.868,1085.909Z" transform="translate(-1854.553 -1063.282)" fill="#ffb27d"/>
            <path id="Trazado_101597" data-name="Trazado 101597" d="M1926.465,1079.53a7.634,7.634,0,0,1-6.156,5.225,32.652,32.652,0,0,0-.675-3.265.015.015,0,0,1,0-.006Z" transform="translate(-1854.553 -1063.282)" fill="#ed975d"/>
            <path id="Trazado_101598" data-name="Trazado 101598" d="M1890.884,1019.343s9.21-.612,8.74-6.342.4-9.667-5.5-9.518-6.862,2.429-7.17,4.379S1888.477,1019.355,1890.884,1019.343Z" transform="translate(-1826.941 -999.084)" fill="#ffb27d"/>
            <path id="Trazado_101599" data-name="Trazado 101599" d="M1901.718,996.15s2.288,6.714,7.721,7.495c3.963.569,5.537-.5,5.537-.5a15.554,15.554,0,0,1-3.411-5.336,2.8,2.8,0,0,0-2.193-1.8C1906.551,995.569,1902.909,993.7,1901.718,996.15Z" transform="translate(-1839.43 -991.854)" fill="#233862"/>
            <path id="Trazado_101600" data-name="Trazado 101600" d="M1887.639,1003.765a6.076,6.076,0,0,0-2.791,3.119,11.72,11.72,0,0,0-.693,5.853s-2.648-6.126-.731-8.887C1885.457,1000.921,1887.639,1003.765,1887.639,1003.765Z" transform="translate(-1823.399 -998.279)" fill="#233862"/>
            <path id="Trazado_101601" data-name="Trazado 101601" d="M1917.6,1120.577s.563,3.4,1.26,4.035a4.942,4.942,0,0,1-2.6-2.936S1916.878,1120.655,1917.6,1120.577Z" transform="translate(-1851.706 -1097.932)" fill="#91b0f2"/>
            <path id="Trazado_101602" data-name="Trazado 101602" d="M1858.01,1194.7s-5.143,6.169-4.51,8.4,4.194,2.234,4.194,2.234-.665-4.76,0-7.238S1858.777,1194.556,1858.01,1194.7Z" transform="translate(-1798.682 -1160.493)" fill="#91b0f2"/>
            <path id="Trazado_101603" data-name="Trazado 101603" d="M1948.591,1233.2s7.408-4.515,7.311-7.138,0-7.437.7-6.762,2.892,6.081,2.68,7.612-7.692,12.221-8.619,12.195C1944.059,1238.919,1948.591,1233.2,1948.591,1233.2Z" transform="translate(-1877.717 -1181.212)" fill="#91b0f2"/>
            <path id="Trazado_101604" data-name="Trazado 101604" d="M1938.688,1110.352s-4.046,5.088-5.719,5.629a11.505,11.505,0,0,0,8.11-3.968S1939.958,1110.368,1938.688,1110.352Z" transform="translate(-1865.811 -1089.301)" fill="#91b0f2"/>
            <g id="Grupo_87712" data-name="Grupo 87712" transform="translate(30.236 24.188)">
              <circle id="Elipse_4816" data-name="Elipse 4816" cx="18.775" cy="18.775" r="18.775" transform="translate(1.768 36.913) rotate(-78.401)" fill="#e2810e"/>
              <circle id="Elipse_4817" data-name="Elipse 4817" cx="18.775" cy="18.775" r="18.775" transform="matrix(0.21, -0.978, 0.978, 0.21, 0, 36.713)" fill="#ffc76c"/>
              <g id="Grupo_87710" data-name="Grupo 87710" transform="translate(5.191 5.413)">
                <path id="Trazado_101605" data-name="Trazado 101605" d="M1746.474,1199.415a17.106,17.106,0,1,1,12.1-5.01A16.992,16.992,0,0,1,1746.474,1199.415Zm0-33.191a16.085,16.085,0,1,0,16.085,16.085A16.1,16.1,0,0,0,1746.474,1166.224Z" transform="translate(-1729.368 -1165.204)" fill="#ffa412"/>
              </g>
              <g id="Grupo_87711" data-name="Grupo 87711" transform="translate(14.805 9.886)">
                <path id="Trazado_101606" data-name="Trazado 101606" d="M1800.9,1211.5a2.819,2.819,0,0,0-.04-.993,2.066,2.066,0,0,0-.42-.825,3.893,3.893,0,0,0-.84-.741,10.27,10.27,0,0,0-1.3-.729,26.907,26.907,0,0,1-2.4-1.321,8.514,8.514,0,0,1-1.8-1.463,5.009,5.009,0,0,1-1.061-1.782,5.652,5.652,0,0,1,.457-4.275,4.757,4.757,0,0,1,1.325-1.473,5.94,5.94,0,0,1,1.9-.9,7.918,7.918,0,0,1,2.37-.273l.334-2.82,2.269.269-.339,2.859a7.1,7.1,0,0,1,2.136.908,5.365,5.365,0,0,1,2.391,3.43,7.151,7.151,0,0,1,.094,2.423l-4.1-.486a3.478,3.478,0,0,0-.421-2.448,2.416,2.416,0,0,0-1.786-1.007,3.076,3.076,0,0,0-1.12.047,2.084,2.084,0,0,0-.817.4,1.942,1.942,0,0,0-.526.679,2.864,2.864,0,0,0-.25.892,2.614,2.614,0,0,0,.037.9,1.93,1.93,0,0,0,.4.79,3.913,3.913,0,0,0,.847.742,13.284,13.284,0,0,0,1.353.782q1.314.677,2.378,1.351a8.606,8.606,0,0,1,1.788,1.475,4.837,4.837,0,0,1,1.245,4.056,5.172,5.172,0,0,1-.651,2.033,4.7,4.7,0,0,1-1.331,1.459,5.738,5.738,0,0,1-1.908.869,8.546,8.546,0,0,1-2.381.252l-.311,2.622-2.255-.268.31-2.609a9.578,9.578,0,0,1-2.215-.784,6.073,6.073,0,0,1-1.815-1.371,5.428,5.428,0,0,1-1.139-2.039,6.617,6.617,0,0,1-.189-2.774l4.1.486a4.07,4.07,0,0,0,.077,1.592,2.635,2.635,0,0,0,.583,1.085,2.556,2.556,0,0,0,.938.646,4.371,4.371,0,0,0,1.124.287,3.652,3.652,0,0,0,1.19-.032,2.438,2.438,0,0,0,.9-.374,1.941,1.941,0,0,0,.6-.657A2.371,2.371,0,0,0,1800.9,1211.5Z" transform="translate(-1791.054 -1193.903)" fill="#ffa412"/>
              </g>
            </g>
            <path id="Trazado_101607" data-name="Trazado 101607" d="M1710.2,1278.012s-.21-3.084.956-2.963c1.43.149,2.95,3.542,2.252,4.2S1710.218,1278.773,1710.2,1278.012Z" transform="translate(-1677.752 -1228.326)" fill="#ffb27d"/>
            <path id="Trazado_101608" data-name="Trazado 101608" d="M1919.611,1332.192l-1.74-1.042a4.5,4.5,0,0,0-1.714-.34c-.635.091-2.145-.176-2.192.071s1.45,1.348,1.45,1.348c-.9,1.382-4.164,1.636-4.412,2.156-.3.631,1.173,1.223,1.973,1.566s2.845.656,4.026-.241c.863-.656,2.282-1.52,2.282-1.52Z" transform="translate(-1847.235 -1275.369)" fill="#ffb27d"/>
            <path id="Trazado_101609" data-name="Trazado 101609" d="M1961.348,1120.4s7.306.478,9.133,3.328,7.693,19.083,6.744,24.051-18.326,10.932-18.326,10.932a3.262,3.262,0,0,1-.768-2.448,5.094,5.094,0,0,1,.556-2.1s10.661-8.909,9.928-10.683C1965.9,1136.924,1961.348,1120.4,1961.348,1120.4Z" transform="translate(-1887.051 -1097.78)" fill="#aec3ff"/>
          </g>
        </g>
      </g>
      <path id="Trazado_101610" data-name="Trazado 101610" d="M840.571,1827.538l-298.642-.1c-.208,0-.378-.341-.378-.757v-.462c0-.417.171-.757.379-.757l298.642.1c.208,0,.378.341.378.757v.462C840.949,1827.2,840.779,1827.539,840.571,1827.538Z" transform="translate(-12.732 -867.952)" fill="#2e3552"/>
    </g>
  </g>
</svg>
