<svg xmlns="http://www.w3.org/2000/svg" width="378.574" height="375.576" viewBox="0 0 378.574 375.576">
  <g id="Grupo_88435" data-name="Grupo 88435" transform="translate(-329.425 -3247.093)">
    <rect id="Rectángulo_34765" data-name="Rectángulo 34765" width="265.572" height="265.572" rx="28" transform="translate(332.424 3434.881) rotate(-45)" fill="#636363" opacity="0.5"/>
    <g id="Grupo_88203" data-name="Grupo 88203" transform="translate(-513.3 3015.332)">
      <g id="Grupo_88195" data-name="Grupo 88195" transform="translate(842.724 285.033)">
        <g id="Grupo_88186" data-name="Grupo 88186" transform="translate(0 91.005)">
          <g id="Grupo_88181" data-name="Grupo 88181" transform="translate(0 17.099)">
            <path id="Trazado_102781" data-name="Trazado 102781" d="M856.184,493.7a12.263,12.263,0,0,1-8.105-2.931c-4.07-3.542-5.833-9.84-5.243-18.718.4-6,2.76-12.06,5.259-18.487,4.2-10.808,8.968-23.057,6.474-39.256l4.631-.712c2.681,17.44-2.543,30.87-6.74,41.665-2.466,6.342-4.6,11.823-4.95,17.1-.478,7.2.765,12.331,3.6,14.838a7.763,7.763,0,0,0,6.189,1.74l.938,4.588A10.568,10.568,0,0,1,856.184,493.7Z" transform="translate(-842.724 -413.598)" fill="#0054df"/>
          </g>
          <g id="Grupo_88184" data-name="Grupo 88184" transform="translate(11.382 113.666)">
            <g id="Grupo_88182" data-name="Grupo 88182" transform="translate(3.92 20.687)">
              <path id="Trazado_102782" data-name="Trazado 102782" d="M894.981,553.045,899.542,560l-38.3,12.27s-2.56-2.445,6.841-7.36C879.021,559.182,894.981,553.045,894.981,553.045Z" transform="translate(-860.922 -553.045)" fill="#88bdda"/>
              <path id="Trazado_102783" data-name="Trazado 102783" d="M908.652,553.045,904.093,560l38.3,12.27s2.56-2.445-6.84-7.36C924.611,559.182,908.652,553.045,908.652,553.045Z" transform="translate(-867.792 -553.045)" fill="#88bdda"/>
            </g>
            <rect id="Rectángulo_34766" data-name="Rectángulo 34766" width="8.001" height="28.493" transform="translate(37.378)" fill="#88bdda"/>
            <g id="Grupo_88183" data-name="Grupo 88183" transform="translate(8.313 22.153)">
              <path id="Trazado_102784" data-name="Trazado 102784" d="M895.3,554.788l3.9,6.634L866.418,573.13s-2.19-2.334,5.852-7.024A256.046,256.046,0,0,1,895.3,554.788Z" transform="translate(-866.146 -554.788)" fill="#acd5f4"/>
              <path id="Trazado_102785" data-name="Trazado 102785" d="M909.385,554.788l-3.9,6.634,32.788,11.707s2.187-2.334-5.856-7.024A255.7,255.7,0,0,0,909.385,554.788Z" transform="translate(-872.407 -554.788)" fill="#acd5f4"/>
            </g>
            <path id="Trazado_102786" data-name="Trazado 102786" d="M869.828,579.209a2.781,2.781,0,1,1-2.78-2.781A2.779,2.779,0,0,1,869.828,579.209Z" transform="translate(-857.534 -536.079)" fill="#001f46"/>
            <path id="Trazado_102787" data-name="Trazado 102787" d="M945.379,579.209a2.781,2.781,0,1,1-2.783-2.781A2.783,2.783,0,0,1,945.379,579.209Z" transform="translate(-869.558 -536.079)" fill="#001f46"/>
            <path id="Trazado_102788" data-name="Trazado 102788" d="M861.821,579.209a2.781,2.781,0,1,1-2.781-2.781A2.78,2.78,0,0,1,861.821,579.209Z" transform="translate(-856.26 -536.079)" fill="#367082"/>
            <path id="Trazado_102789" data-name="Trazado 102789" d="M953.384,579.209a2.781,2.781,0,1,1-2.781-2.781A2.781,2.781,0,0,1,953.384,579.209Z" transform="translate(-870.832 -536.079)" fill="#367082"/>
          </g>
          <rect id="Rectángulo_34767" data-name="Rectángulo 34767" width="5.853" height="10.248" transform="translate(49.732 103.224)" fill="#0054df"/>
          <path id="Trazado_102790" data-name="Trazado 102790" d="M911.284,508.5a5.712,5.712,0,0,1-5.711,5.71h-3.219a5.713,5.713,0,0,1-5.709-5.71h0a5.709,5.709,0,0,1,5.709-5.707h3.219a5.708,5.708,0,0,1,5.711,5.707Z" transform="translate(-851.306 -410.694)" fill="#0054df"/>
          <path id="Trazado_102791" data-name="Trazado 102791" d="M940.581,500.735c.14-.672.221-4.885.221-5.608,0-4.61-2.979-8.345-6.654-8.345H860c-3.675,0-6.654,3.735-6.654,8.345,0,.723.081,4.937.22,5.608Z" transform="translate(-844.414 -408.146)" fill="#8cc3ff"/>
          <path id="Trazado_102792" data-name="Trazado 102792" d="M852.529,505.581c0,1.411.824,2.555,1.843,2.555h85.143c1.017,0,1.843-1.144,1.843-2.555h0c0-1.412-.826-2.556-1.843-2.556H854.372c-1.019,0-1.843,1.144-1.843,2.556Z" transform="translate(-844.285 -410.731)" fill="#0054df"/>
          <g id="Grupo_88185" data-name="Grupo 88185" transform="translate(8.401)">
            <path id="Trazado_102793" data-name="Trazado 102793" d="M857.4,443.038c1.828.135,13.449.339,15.455.363,12.721.153,23.683-2.235,24.29-5.368a108.575,108.575,0,0,0,.329-39.4c-.541-3.131-11.666-5.518-24.655-5.36-2.044.024-13.906.231-15.771.367A106.614,106.614,0,0,1,857.4,443.038Z" transform="translate(-853.405 -393.262)" fill="#8cc3ff"/>
            <path id="Trazado_102794" data-name="Trazado 102794" d="M854.961,393.706c-1.424.015-2.418.692-2.221,1.51a106.464,106.464,0,0,1,.4,46.389c-.179.819.806,1.494,2.2,1.51h0c1.394.018,2.683-.635,2.86-1.455a106.629,106.629,0,0,0-.3-46.5c-.193-.822-1.505-1.471-2.933-1.453Z" transform="translate(-852.715 -393.333)" fill="#0054df"/>
            <path id="Trazado_102795" data-name="Trazado 102795" d="M854.637,443.047a31.265,31.265,0,0,0,3.335.221,6.7,6.7,0,0,0,6.179-5.493,106.842,106.842,0,0,0-.177-38.8,6.828,6.828,0,0,0-6.33-5.491,32.505,32.505,0,0,0-3.4.224A106.532,106.532,0,0,1,854.637,443.047Z" transform="translate(-852.959 -393.297)" fill="#69adfe"/>
          </g>
        </g>
        <g id="Grupo_88191" data-name="Grupo 88191" transform="translate(19.677)">
          <g id="Grupo_88189" data-name="Grupo 88189" transform="translate(50.4 47.945)">
            <g id="Grupo_88188" data-name="Grupo 88188" transform="translate(10.456 49.119)">
              <g id="Grupo_88187" data-name="Grupo 88187" transform="translate(6.706 2.532)">
                <path id="Trazado_102796" data-name="Trazado 102796" d="M946.474,407.534s.087,3.236,15.806,3.253,38.791-3.852,38.791-3.852l-36.253-3.425S950.894,402.861,946.474,407.534Z" transform="translate(-946.474 -403.479)" fill="#e2c59c"/>
                <path id="Trazado_102797" data-name="Trazado 102797" d="M996.214,408.529c7.471.236,10.56,4.084,13.487,5.337a52.006,52.006,0,0,1,5.826,3.093c-1.562-3.251-3.972-3.418-5.149-4.488s-.878-.547,1.786-.658c1.518-.065,4.092,2.683,5.964,4.224a6.065,6.065,0,0,0,2.65,1.465,33.017,33.017,0,0,0-4.247-5.006,38.473,38.473,0,0,0-7.367-5.393c-1.578-.674-6.57-1.006-10.144-.647C994.99,406.866,990.832,408.358,996.214,408.529Z" transform="translate(-953.982 -403.93)" fill="#e2c59c"/>
                <path id="Trazado_102798" data-name="Trazado 102798" d="M1011.621,407.411s5.674,1.635,6.654,2.422c.683.548,3.508,3.709,3.508,3.709a7.469,7.469,0,0,1-3.328-1.613C1017.255,410.732,1011.621,407.411,1011.621,407.411Z" transform="translate(-956.842 -404.105)" fill="#e2c59c"/>
              </g>
              <path id="Trazado_102799" data-name="Trazado 102799" d="M952.316,400.468s-14.493.412-13.792,9.023c.393,4.892,3.64,6.7,8.019,6.5,8.143-.378,17.383-1.246,17.383-1.246l4.57-13.187Z" transform="translate(-938.499 -400.468)" fill="#ca4f4e"/>
            </g>
            <path id="Trazado_102800" data-name="Trazado 102800" d="M947.269,392.254l-12.642-44.633s-1.863-6.542-5.346-5.444c-5.023,1.577-2.746,6.955-2.42,10.107.665,6.427-.021,9.191,4.024,24.766,2.492,9.608,4.556,20.647,6.8,26.981,1.546,4.367,4.647-1.7,9.079-3.277C955.032,397.818,947.269,392.254,947.269,392.254Z" transform="translate(-926.064 -342.052)" fill="#ca4f4e"/>
          </g>
          <path id="Trazado_102801" data-name="Trazado 102801" d="M915.222,327.354A18.416,18.416,0,1,1,901.2,305.739,18.225,18.225,0,0,1,915.222,327.354Z" transform="translate(-868.151 -288.255)" fill="#282723"/>
          <path id="Trazado_102802" data-name="Trazado 102802" d="M936.723,314.152a13.847,13.847,0,0,1-16.539,10.481l-1.942-7.174a13.844,13.844,0,0,1-10.482-16.539l1.137-5.065a13.847,13.847,0,0,1,16.538-10.485l3.377.759a13.843,13.843,0,0,1,10.483,16.536Z" transform="translate(-872.697 -285.033)" fill="#282723"/>
          <path id="Trazado_102803" data-name="Trazado 102803" d="M935.791,294.6a27.43,27.43,0,0,1-1.181,3.733c-3.305,8.372-10.058,13.777-16,13.3a42.152,42.152,0,0,1-4.26,10.036c-1.841,3.183-6.66,5.9-6.66,5.9-2.336,5.841,21.044,25.4,22.045,24.891,2.12-1.085-1.683-15.135-5.505-19.487-1.8-2.041-3.622-4.446-3.662-5.819-.134-4.822,1.4-5.847,3.719-8.057a11.329,11.329,0,0,1,8.735-1.968,1.577,1.577,0,0,0,1.251-.245,9.71,9.71,0,0,0,1.055-2.729l2.5-11.14A9.783,9.783,0,0,0,935.791,294.6Z" transform="translate(-872.714 -286.555)" fill="#e9d6b8"/>
          <path id="Trazado_102804" data-name="Trazado 102804" d="M912.313,426.647s5.989,5.426,7.674,5.907c2.252.646,8.563-2.084,8.563-2.084s-1.742-28.124-1.093-39.268,3.265-14.368,2.967-17.811c-.485-5.5,3.984-8.313,2.665-12.508s-4.636-19.272-4.864-17.179c-1.943,17.828-8.78,4.079-10.146,1.926C917.329,344.447,912.313,426.647,912.313,426.647Z" transform="translate(-873.476 -294.339)" fill="#3b4454"/>
          <path id="Trazado_102805" data-name="Trazado 102805" d="M926.917,337.974s7.926,5.811,7.818,8.492,4.095,10.621,2.391,22.542c-1.943,13.614-2.668,22.755-2.268,31.441s4.4,16.212,4.536,26.9c.108,8.375-1.811,9.122-1.811,9.122a6.942,6.942,0,0,1-6.8-1.494c-3.109-2.861-2.555-31.527-2.085-38.742s2.721-24.211,3.242-29.172a52.571,52.571,0,0,0-.647-13.939,59.106,59.106,0,0,0-3.326-12.086c-.156-.385-2.216-2.035-2.345-2.338C925.058,337.4,926.27,337.246,926.917,337.974Z" transform="translate(-875.571 -293.389)" fill="#ca4f4e"/>
          <path id="Trazado_102806" data-name="Trazado 102806" d="M908.68,356.288a19.237,19.237,0,1,1-14.648-22.58A19.036,19.036,0,0,1,908.68,356.288Z" transform="translate(-866.852 -292.703)" fill="#282723"/>
          <path id="Trazado_102807" data-name="Trazado 102807" d="M962.244,556.812l-3.6,27.578,15.544,7.131,8.629,1.819-15.313-11.432,5.01-24.881Z" transform="translate(-880.85 -328.286)" fill="#e9d6b8"/>
          <path id="Trazado_102808" data-name="Trazado 102808" d="M957.437,593.295l3.372.88,2.267-2.036,12.415,6.03,11.014,2.518a2.026,2.026,0,0,0-.235-1.326c-1.387-1.746-9.1-5.638-9.1-5.638s-.124,2.558-1.222,2.627-10.611-4.753-12.811-6.1c-3.788-2.316-4.5-3.753-4.784-3.574C957.593,587.152,957.437,593.295,957.437,593.295Z" transform="translate(-880.657 -333.037)" fill="#161711"/>
          <path id="Trazado_102809" data-name="Trazado 102809" d="M1007.543,510.657l12.344,23.5,17.084-.839,8.495-2.361-18.862-3.085-10.3-20.081Z" transform="translate(-888.632 -320.485)" fill="#e9d6b8"/>
          <path id="Trazado_102810" data-name="Trazado 102810" d="M1023,542.461l3.4-.774,1.072-2.851,15.316-.219,9.143-2.075a7.694,7.694,0,0,0-1.789-1.473c-2.036-.821-9.264-1.243-9.264-1.243s.76,2-.18,2.574-11.464.911-14.038.728c-4.43-.3-5.72-1.253-5.893-.962C1020.3,536.939,1023,542.461,1023,542.461Z" transform="translate(-890.727 -324.628)" fill="#161711"/>
          <path id="Trazado_102811" data-name="Trazado 102811" d="M896.125,427.612l9.214,4.007,4,12.017,59.267-9.756s6.036-1.86,9.879,7.672c5.471,13.576,19.394,55.77,19.394,55.77l-8.815,9.214-27.641-47.675s-56.644,26.568-75.32,20.834c-7.167-2.2-12.641-14.86-11.62-27.646a164.27,164.27,0,0,1,2.8-19.23Z" transform="translate(-867.436 -307.724)" fill="#194866"/>
          <path id="Trazado_102812" data-name="Trazado 102812" d="M909.773,484.387l45.327-3.26-3.9,69.939,13.365.425,9.875-81.908s-2.665-12.191-11.32-10.353S933.519,477.119,909.773,484.387Z" transform="translate(-873.072 -312.726)" fill="#163f59"/>
          <path id="Trazado_102813" data-name="Trazado 102813" d="M883.444,478.907s20.418-28.484,24.742-43.713c5.163-18.181,1.83-39.8,2.285-47.148.837-13.5.647-39.545.83-42.788s-2.289-6.561-2.289-6.561-2.523-8.256-7.091-7.648c-4.019.536-10.219,6.131-14.109,8.725-3.8,2.534-3.373,50.111-3.564,52.508-.686,8.642-6.153,17.036-9.719,25.482-8.4,19.9-8.4,42.174-8.4,42.174S869.441,475.97,883.444,478.907Z" transform="translate(-866.125 -292.351)" fill="#ca4f4e"/>
          <g id="Grupo_88190" data-name="Grupo 88190" transform="translate(31.013 102.354)">
            <path id="Trazado_102814" data-name="Trazado 102814" d="M903.008,415.361s.5,3.475,19.126,1.423,45.537-9.267,45.537-9.267l-43.39,1.088S907.7,409.743,903.008,415.361Z" transform="translate(-903.008 -406.88)" fill="#e9d6b8"/>
            <path id="Trazado_102815" data-name="Trazado 102815" d="M962.052,410.261c8.889-.728,13,3.008,16.621,3.976a64.312,64.312,0,0,1,7.273,2.561c-2.238-3.294-5.117-3.157-6.637-4.161s-1.107-.469,2.039-.944c1.789-.27,5.168,2.355,7.57,3.766a7.563,7.563,0,0,0,3.32,1.232,36.63,36.63,0,0,0-5.631-4.834,45.728,45.728,0,0,0-9.376-4.842c-1.947-.518-7.9-.219-12.1.644C960.4,408.63,955.649,410.788,962.052,410.261Z" transform="translate(-911.911 -406.76)" fill="#e9d6b8"/>
            <path id="Trazado_102816" data-name="Trazado 102816" d="M980.147,407.3s6.917,1.016,8.172,1.735c.875.5,4.6,3.532,4.6,3.532a9.344,9.344,0,0,1-4.133-1.3C987.216,410.133,980.147,407.3,980.147,407.3Z" transform="translate(-915.285 -406.845)" fill="#e9d6b8"/>
          </g>
          <path id="Trazado_102817" data-name="Trazado 102817" d="M915.017,416.334l-23.718-8.5s1.65,13.746,2.2,18.97-.826,12.921,3.574,13.471,6.6-.275,2.474,2.75-2.749,5.5-.825,7.421-4.4,23.367-4.4,23.367.626.319,2.474,1.376c5.859-9.264,13.126-19.772,15.4-27.767C915.125,437.084,915.318,425.638,915.017,416.334Z" transform="translate(-870.131 -304.576)" fill="#bf2d2c"/>
          <path id="Trazado_102818" data-name="Trazado 102818" d="M908.467,396.664,906.4,352.634s-2.375-9.227-5.835-11.344c-4.1-2.512-9.745,2.145-9.745,2.145s-2.891,6.875-.95,39.343c1.3,21.714,3.3,32.959,13.6,31.372,9.607-1.482,20.46-3.632,20.46-3.632l3.854-14.813Z" transform="translate(-869.797 -293.868)" fill="#ca4f4e"/>
        </g>
        <g id="Grupo_88194" data-name="Grupo 88194" transform="translate(95.347 64.843)">
          <path id="Trazado_102819" data-name="Trazado 102819" d="M956.155,419.871c-.013-.023-.025-.048-.037-.069l.037-2.185h90.434V419.8a.114.114,0,0,1,0,.069l-.23.407c-1.163,1.892-3.249,2.235-5.637,2.235h-78.7c-2.388,0-4.47-.343-5.635-2.235Z" transform="translate(-956.118 -370.977)" fill="#d0dee6"/>
          <path id="Trazado_102820" data-name="Trazado 102820" d="M978.112,420.4a.084.084,0,0,1,0,.061l-.225.329a3.688,3.688,0,0,1-1.321,1.112H962.812c-2.3,0-4.3-.274-5.421-1.8l-.215-.333a.54.54,0,0,1-.041-.055l.024-1.076h20.953Z" transform="translate(-956.28 -371.139)" fill="#b6c2c9"/>
          <g id="Grupo_88192" data-name="Grupo 88192" transform="translate(34.039 47.146)">
            <rect id="Rectángulo_34768" data-name="Rectángulo 34768" width="45.189" height="1.544" fill="#b6c2c9"/>
          </g>
          <g id="Grupo_88193" data-name="Grupo 88193" transform="translate(22.334)">
            <path id="Trazado_102821" data-name="Trazado 102821" d="M982.679,408.71,994.4,364.275a2.952,2.952,0,0,1,2.681-2.126h63.447a1.582,1.582,0,0,1,1.563,2.126L1050.37,408.71Z" transform="translate(-982.679 -362.149)" fill="#d7dfe2"/>
            <path id="Trazado_102822" data-name="Trazado 102822" d="M1025.321,389.059a3.06,3.06,0,0,0,3.024,4.108,5.717,5.717,0,0,0,5.193-4.108,3.059,3.059,0,0,0-3.024-4.112A5.719,5.719,0,0,0,1025.321,389.059Z" transform="translate(-989.443 -365.777)" fill="#b6c2c9"/>
          </g>
        </g>
        <path id="Trazado_102823" data-name="Trazado 102823" d="M1143.751,576.988h9.255L1137.736,429.08h-13.421Z" transform="translate(-887.539 -307.958)" fill="#93cef5"/>
        <path id="Trazado_102824" data-name="Trazado 102824" d="M1125.379,435.9l5.887,44.793,6.982-48.274-.342-3.336h-11.732Z" transform="translate(-887.708 -307.958)" fill="#86bbd8"/>
        <path id="Trazado_102825" data-name="Trazado 102825" d="M1042.992,576.988h9.254L1036.974,429.08h-13.419Z" transform="translate(-871.503 -307.958)" fill="#93cef5"/>
        <path id="Trazado_102826" data-name="Trazado 102826" d="M1024.618,435.9l5.886,44.793,6.986-48.274-.347-3.336h-11.731Z" transform="translate(-871.672 -307.958)" fill="#86bbd8"/>
        <path id="Trazado_102827" data-name="Trazado 102827" d="M929.342,576.988h-9.259L935.357,429.08h13.422Z" transform="translate(-855.036 -307.958)" fill="#93cef5"/>
        <path id="Trazado_102828" data-name="Trazado 102828" d="M949.744,435.9l-17.963,45.646,5.094-49.128.344-3.336H948.95Z" transform="translate(-856.897 -307.958)" fill="#86bbd8"/>
        <rect id="Rectángulo_34769" data-name="Rectángulo 34769" width="111.596" height="8.645" transform="translate(67.365 116.319)" fill="#73a9ff"/>
        <rect id="Rectángulo_34770" data-name="Rectángulo 34770" width="126.719" height="8.645" transform="translate(173.8 116.319)" fill="#8cc3ff"/>
        <path id="Trazado_102829" data-name="Trazado 102829" d="M911.34,327.727s6.048,7.974,7.146,15.4-1.923,47.563-1.923,47.563L914.4,355.412l1.607-5.418-2.746-.547s-2.474-13.746-4.4-15.947a11.723,11.723,0,0,1-2.2-3.023Z" transform="translate(-852.901 -291.828)" fill="#bf2d2c"/>
        <path id="Trazado_102830" data-name="Trazado 102830" d="M923.036,333.308s7.952,17.575,8.229,26.373-2.75,31.067-2.75,31.067L934.028,355l-2.2-3.574,1.649-.55s-5.761-12.929-6.323-13.47C923.93,334.3,923.036,333.308,923.036,333.308Z" transform="translate(-855.506 -292.716)" fill="#bf2d2c"/>
      </g>
      <g id="Grupo_88202" data-name="Grupo 88202" transform="translate(1066.875 288.703)">
        <path id="Trazado_102831" data-name="Trazado 102831" d="M1141.042,577.3l-1.441,7.5h-7.648s-.425-1.063-1.069-1.063c-.548,0-1.251,1.063-1.993,1.063h-19.458s-.346-1.577.078-2.122a7.434,7.434,0,0,1,2.347-1c3.954-1.11,15.261-4.578,17.226-8.354C1131.478,568.73,1141.042,577.3,1141.042,577.3Z" transform="translate(-1109.3 -334.369)" fill="#161711"/>
        <path id="Trazado_102832" data-name="Trazado 102832" d="M1141.052,465.9s2.19,12.249,4.008,27.9c1.34,11.493,1.375,44.325-.745,67.129-.128,1.4-14.626-2.851-14.626-2.851s-5.291-63.827-6.5-78.118S1132.351,456.993,1141.052,465.9Z" transform="translate(-1111.494 -316.914)" fill="#163f59"/>
        <path id="Trazado_102833" data-name="Trazado 102833" d="M1173.458,561.629c-.581-.7-.159-2.533-.159-2.533s10.07-1.122,13.309-.357a16.726,16.726,0,0,1,3.6,1.693c.223.127.621.9.846,1.029.4.24.616-.165.96.049a11.873,11.873,0,0,1,1.539,1.065c.885,4.618-.288,6.481-.288,6.481s-8.291,2.578-10.18.866C1178.282,565.577,1174.718,563.156,1173.458,561.629Z" transform="translate(-1119.462 -332.221)" fill="#161711"/>
        <path id="Trazado_102834" data-name="Trazado 102834" d="M1173.178,479.151s-8.023-4.689-5.979,7.885c4.932,30.334,9.467,52.572,11.591,62.643.825,3.913,2.089,3.3,2.089,3.3l9.219,1.5,4.652-3.172-8.612-68.567Z" transform="translate(-1118.462 -319.461)" fill="#163f59"/>
        <g id="Grupo_88196" data-name="Grupo 88196" transform="translate(15.07 0)">
          <path id="Trazado_102835" data-name="Trazado 102835" d="M1130.311,478.067c1.211,1.576,42.5,22.441,44.4,22.441h33.939c1.908,0,15.7-2.019,18.7-11.087,3.163-9.587,0-26.666,0-26.666a3.523,3.523,0,0,0-3.453-3.593h-42.279c-1.908,0-5.754,1.607-5.754,3.593l-41.056-1.317S1121.324,466.382,1130.311,478.067Z" transform="translate(-1127.222 -316.416)" fill="#194866"/>
          <path id="Trazado_102836" data-name="Trazado 102836" d="M1209.958,491.971h-38.852c-.411,0-33.955-9.15-34.329-9.257l4.045,13.032c0,1.986,33.506,8.51,35.412,8.51h33.939c1.908,0,15.7-2.019,18.7-11.087a35.532,35.532,0,0,0,1.4-10.178C1225.408,490.268,1211.958,491.971,1209.958,491.971Z" transform="translate(-1128.743 -320.164)" fill="#163f59"/>
          <path id="Trazado_102837" data-name="Trazado 102837" d="M1204.633,339.5l-1.832-8.286s-6.459.452-7.709-2.718c-2.538-6.353-.416-16.508,1.111-19.357,4.356-8.1,6.2-22.29,26.557-11.006,7.745,4.293-4.214,25.1-5.106,29.606s1.759,9.687,1.759,9.687l-4.763,3.255Z" transform="translate(-1137.836 -290.121)" fill="#e9d6b8"/>
          <path id="Trazado_102838" data-name="Trazado 102838" d="M1165.5,415.783l34.916,12.391s-41.171,2.961-41.327.567C1158.219,415.593,1165.5,415.783,1165.5,415.783Z" transform="translate(-1132.282 -309.512)" fill="#e9d6b8"/>
          <path id="Trazado_102839" data-name="Trazado 102839" d="M1248.587,357.726s6.946,3.293,11.943,30.027,1.814,25.714,1.814,25.714l-.909,6.09-12.981,1.083-7.016-23.08Z" transform="translate(-1145.4 -300.272)" fill="#3b4454"/>
          <path id="Trazado_102840" data-name="Trazado 102840" d="M1239.288,355.615l-17.1-7.069-4.719-4.069-18.177-.4-3.183,4.778-14.09,5.567s-3.476,4.98-.451,23.474c3.348,20.493-.057,73.511-.057,73.511l57.525.821S1234.291,365.561,1239.288,355.615Z" transform="translate(-1135.675 -298.101)" fill="#3b4454"/>
          <path id="Trazado_102841" data-name="Trazado 102841" d="M1181.467,356.316s-3.171-3.22-10.891,5.531c-13.175,14.92-19.549,33.423-20.909,37s-2.9,12.419,2.49,18.369c4.115,4.556,8.089,2.865,8.089,2.865l12.584-9.83-4.045-2.045-2.757-.205a198.307,198.307,0,0,0,15.44-22C1188.285,374.469,1181.467,356.316,1181.467,356.316Z" transform="translate(-1130.587 -299.956)" fill="#3b4454"/>
          <path id="Trazado_102842" data-name="Trazado 102842" d="M1201.652,310.8s2.307-1.291,2.66.318-.888,5.163-1.947,5.488-1.409,4.675-1.409,4.675l2.828,4.843h14.333s4.426-1.776,4.786-4.68,3.889-23.392,3.889-23.392l-10.086-4.841a70.49,70.49,0,0,0-9.03-3.388c-5.7-1.489-6.9,1.289-6.72,2.741s-1.6,1.614-3.9,1.614-5.138,1.611-3.9,2.58c.516.4-1.773,1.677-.87,3.217,1.3,2.2,5.646,2.915,6,6.467C1198.452,308.051,1199.181,313.377,1201.652,310.8Z" transform="translate(-1137.544 -289.398)" fill="#194866"/>
        </g>
        <g id="Grupo_88200" data-name="Grupo 88200" transform="translate(36.296 183.448)">
          <path id="Trazado_102843" data-name="Trazado 102843" d="M1153.466,521.058c-.137-.648-.214-4.723-.214-5.423,0-4.457,2.879-8.067,6.433-8.067h71.676c3.552,0,6.434,3.611,6.434,8.067,0,.7-.079,4.774-.213,5.423Z" transform="translate(-1152.591 -507.568)" fill="#8cc3ff"/>
          <path id="Trazado_102844" data-name="Trazado 102844" d="M1238.331,525.742c0,1.363-.8,2.467-1.779,2.467h-82.306c-.983,0-1.78-1.1-1.78-2.467h0c0-1.363.8-2.472,1.78-2.472h82.306c.983,0,1.779,1.109,1.779,2.472Z" transform="translate(-1152.466 -510.067)" fill="#0253a2"/>
          <g id="Grupo_88199" data-name="Grupo 88199" transform="translate(9.327 33.862)">
            <g id="Grupo_88197" data-name="Grupo 88197" transform="translate(3.59 19.999)">
              <path id="Trazado_102845" data-name="Trazado 102845" d="M1213.966,571.623l-4.409,6.72,37.022,11.86s2.472-2.368-6.612-7.116C1229.39,577.554,1213.966,571.623,1213.966,571.623Z" transform="translate(-1174.469 -571.623)" fill="#88bdda"/>
              <path id="Trazado_102846" data-name="Trazado 102846" d="M1200.751,571.623l4.405,6.72-37.021,11.86s-2.472-2.368,6.611-7.116C1185.324,577.554,1200.751,571.623,1200.751,571.623Z" transform="translate(-1167.828 -571.623)" fill="#88bdda"/>
            </g>
            <rect id="Rectángulo_34771" data-name="Rectángulo 34771" width="7.736" height="27.545" transform="translate(35.931)" fill="#88bdda"/>
            <g id="Grupo_88198" data-name="Grupo 88198" transform="translate(7.833 21.413)">
              <path id="Trazado_102847" data-name="Trazado 102847" d="M1214.676,573.3l-3.774,6.413,31.689,11.32s2.118-2.259-5.656-6.792C1227.88,578.965,1214.676,573.3,1214.676,573.3Z" transform="translate(-1178.926 -573.305)" fill="#acd5f4"/>
              <path id="Trazado_102848" data-name="Trazado 102848" d="M1201.056,573.3l3.773,6.413-31.693,11.32s-2.116-2.259,5.659-6.792A247.749,247.749,0,0,1,1201.056,573.3Z" transform="translate(-1172.873 -573.305)" fill="#acd5f4"/>
            </g>
            <path id="Trazado_102849" data-name="Trazado 102849" d="M1244.325,596.915a2.688,2.688,0,1,0,2.688-2.692A2.685,2.685,0,0,0,1244.325,596.915Z" transform="translate(-1176.412 -555.221)" fill="#0253a2"/>
            <path id="Trazado_102850" data-name="Trazado 102850" d="M1171.3,596.915a2.689,2.689,0,1,0,2.692-2.692A2.689,2.689,0,0,0,1171.3,596.915Z" transform="translate(-1164.789 -555.221)" fill="#0253a2"/>
            <path id="Trazado_102851" data-name="Trazado 102851" d="M1252.065,596.915a2.688,2.688,0,1,0,2.688-2.692A2.687,2.687,0,0,0,1252.065,596.915Z" transform="translate(-1177.644 -555.221)" fill="#0253a2"/>
            <path id="Trazado_102852" data-name="Trazado 102852" d="M1163.558,596.915a2.687,2.687,0,1,0,2.69-2.692A2.688,2.688,0,0,0,1163.558,596.915Z" transform="translate(-1163.558 -555.221)" fill="#0253a2"/>
          </g>
          <rect id="Rectángulo_34772" data-name="Rectángulo 34772" width="5.657" height="9.904" transform="translate(46.397 23.769)" fill="#0253a2"/>
          <path id="Trazado_102853" data-name="Trazado 102853" d="M1202.6,528.567a5.515,5.515,0,0,0,5.516,5.517h3.113a5.517,5.517,0,0,0,5.519-5.517h0a5.518,5.518,0,0,0-5.519-5.516h-3.113a5.515,5.515,0,0,0-5.516,5.516Z" transform="translate(-1160.444 -510.032)" fill="#0253a2"/>
          <path id="Trazado_102854" data-name="Trazado 102854" d="M1167.364,521.058c-.136-.648-.214-4.723-.214-5.423,0-4.457,2.88-8.067,6.434-8.067h71.677c3.553,0,6.432,3.611,6.432,8.067,0,.7-.079,4.774-.213,5.423Z" transform="translate(-1154.803 -507.568)" fill="#69adfe"/>
          <path id="Trazado_102855" data-name="Trazado 102855" d="M1252.229,525.742c0,1.363-.8,2.467-1.78,2.467h-82.307c-.982,0-1.78-1.1-1.78-2.467h0c0-1.363.8-2.472,1.78-2.472h82.307c.982,0,1.78,1.109,1.78,2.472Z" transform="translate(-1154.677 -510.067)" fill="#0063cb"/>
        </g>
        <g id="Grupo_88201" data-name="Grupo 88201" transform="translate(47.472 92.915)">
          <path id="Trazado_102856" data-name="Trazado 102856" d="M1243.277,447.687a3.562,3.562,0,0,1-3.563,3.593h-67.731a4.522,4.522,0,0,1-4.278-3.565,126.63,126.63,0,0,1,0-44.251,4.52,4.52,0,0,1,4.278-3.564h67.731a3.561,3.561,0,0,1,3.563,3.594Q1243.08,425.582,1243.277,447.687Z" transform="translate(-1165.757 -399.899)" fill="#8cc3ff"/>
          <path id="Trazado_102857" data-name="Trazado 102857" d="M1247.976,447.684a3.6,3.6,0,0,1-3.595,3.6h-67.73a4.475,4.475,0,0,1-4.248-3.565,133.285,133.285,0,0,1,0-44.249,4.479,4.479,0,0,1,4.248-3.567h67.73a3.6,3.6,0,0,1,3.595,3.6Z" transform="translate(-1166.521 -399.899)" fill="#69adfe"/>
        </g>
        <path id="Trazado_102858" data-name="Trazado 102858" d="M1187.041,508.9c10.426-34.9-9.459-69.811-.91-104.716a2.58,2.58,0,0,0-2.687-3.347h-1.213a4.83,4.83,0,0,0-4.506,3.347c-8.548,34.905,11.336,69.812.909,104.716Z" transform="translate(-1119.84 -307.134)" fill="#0063cb"/>
        <path id="Trazado_102859" data-name="Trazado 102859" d="M1257.592,508.9c10.425-34.9-9.459-69.811-.909-104.716a2.581,2.581,0,0,0-2.687-3.347h-1.216a4.829,4.829,0,0,0-4.5,3.347c-8.549,34.905,11.336,69.812.909,104.716Z" transform="translate(-1131.068 -307.134)" fill="#0063cb"/>
      </g>
    </g>
  </g>
</svg>
