<svg xmlns="http://www.w3.org/2000/svg" xmlns:xlink="http://www.w3.org/1999/xlink" width="505" height="482" viewBox="0 0 505 482">
  <defs>
    <linearGradient id="linear-gradient" x1="-12.256" y1="0.279" x2="-11.515" y2="0.279" gradientUnits="objectBoundingBox">
      <stop offset="0" stop-color="#abc460"/>
      <stop offset="1" stop-color="#d1e07b"/>
    </linearGradient>
    <linearGradient id="linear-gradient-2" x1="-12.791" y1="0.684" x2="-12.791" y2="-0.172" gradientUnits="objectBoundingBox">
      <stop offset="0" stop-color="#4b7f29"/>
      <stop offset="1" stop-color="#729937"/>
    </linearGradient>
    <linearGradient id="linear-gradient-3" x1="-15.7" y1="0.631" x2="-15.7" y2="-0.236" xlink:href="#linear-gradient"/>
    <linearGradient id="linear-gradient-4" x1="-37.511" y1="0.495" x2="-37.511" y2="-0.829" xlink:href="#linear-gradient-2"/>
    <linearGradient id="linear-gradient-5" x1="12.891" y1="1.796" x2="12.891" y2="0.755" xlink:href="#linear-gradient-2"/>
    <linearGradient id="linear-gradient-6" x1="-11.504" y1="1.685" x2="-10.764" y2="1.685" xlink:href="#linear-gradient"/>
    <linearGradient id="linear-gradient-7" x1="-11.98" y1="2.237" x2="-11.98" y2="1.328" xlink:href="#linear-gradient-2"/>
    <linearGradient id="linear-gradient-8" x1="-14.708" y1="2.453" x2="-14.708" y2="1.544" xlink:href="#linear-gradient"/>
    <linearGradient id="linear-gradient-9" x1="-35.417" y1="4.15" x2="-35.417" y2="2.906" xlink:href="#linear-gradient-2"/>
    <linearGradient id="linear-gradient-10" x1="13.343" y1="1.776" x2="13.343" y2="0.724" xlink:href="#linear-gradient-2"/>
    <linearGradient id="linear-gradient-11" x1="0.084" y1="5.206" x2="0.96" y2="4.035" gradientUnits="objectBoundingBox">
      <stop offset="0" stop-color="#ff7a36"/>
      <stop offset="0.195" stop-color="#ff573f"/>
      <stop offset="1" stop-color="#e62234"/>
    </linearGradient>
    <linearGradient id="linear-gradient-12" x1="-9.864" y1="-4.299" x2="-9.08" y2="-4.299" xlink:href="#linear-gradient"/>
    <linearGradient id="linear-gradient-13" x1="-10.224" y1="-4.268" x2="-10.224" y2="-5.121" xlink:href="#linear-gradient-2"/>
    <linearGradient id="linear-gradient-14" x1="-12.746" y1="-5.245" x2="-12.746" y2="-6.107" xlink:href="#linear-gradient"/>
    <linearGradient id="linear-gradient-15" x1="-30.68" y1="-12.709" x2="-30.68" y2="-13.981" xlink:href="#linear-gradient-2"/>
    <linearGradient id="linear-gradient-16" x1="15.146" y1="1.844" x2="15.146" y2="0.807" xlink:href="#linear-gradient-2"/>
    <linearGradient id="linear-gradient-17" x1="-8.041" y1="1.252" x2="-7.095" y2="1.252" gradientUnits="objectBoundingBox">
      <stop offset="0" stop-color="#a2bf54"/>
      <stop offset="1" stop-color="#c7db6c"/>
    </linearGradient>
    <linearGradient id="linear-gradient-18" x1="-8.636" y1="1.297" x2="-7.694" y2="1.297" gradientUnits="objectBoundingBox">
      <stop offset="0" stop-color="#467a24"/>
      <stop offset="1" stop-color="#6b9430"/>
    </linearGradient>
    <linearGradient id="linear-gradient-19" x1="-10.031" y1="1.451" x2="-9.085" y2="1.451" xlink:href="#linear-gradient-17"/>
    <linearGradient id="linear-gradient-20" x1="-44.719" y1="-4.613" x2="-44.719" y2="-5.572" xlink:href="#linear-gradient-2"/>
    <linearGradient id="linear-gradient-21" x1="21.619" y1="1.949" x2="21.619" y2="0.95" xlink:href="#linear-gradient-2"/>
    <linearGradient id="linear-gradient-22" x1="13.39" y1="-2.392" x2="14.397" y2="-2.392" gradientUnits="objectBoundingBox">
      <stop offset="0" stop-color="#c27040"/>
      <stop offset="1" stop-color="#e3924d"/>
    </linearGradient>
    <linearGradient id="linear-gradient-23" x1="-17.058" y1="9.155" x2="-16.271" y2="9.155" xlink:href="#linear-gradient"/>
    <linearGradient id="linear-gradient-24" x1="-17.959" y1="10.267" x2="-17.959" y2="9.432" xlink:href="#linear-gradient-2"/>
    <linearGradient id="linear-gradient-25" x1="-22.304" y1="12.005" x2="-22.304" y2="11.159" xlink:href="#linear-gradient"/>
    <linearGradient id="linear-gradient-26" x1="-53.435" y1="26.938" x2="-53.435" y2="25.655" xlink:href="#linear-gradient-2"/>
    <linearGradient id="linear-gradient-27" x1="20.15" y1="2.103" x2="20.15" y2="1.124" xlink:href="#linear-gradient-2"/>
    <linearGradient id="linear-gradient-28" x1="-11.549" y1="-5.368" x2="-10.758" y2="-5.368" xlink:href="#linear-gradient"/>
    <linearGradient id="linear-gradient-29" x1="-12.038" y1="-5.416" x2="-12.038" y2="-6.204" xlink:href="#linear-gradient-2"/>
    <linearGradient id="linear-gradient-30" x1="-14.995" y1="-6.487" x2="-14.995" y2="-7.275" xlink:href="#linear-gradient"/>
    <linearGradient id="linear-gradient-31" x1="-35.64" y1="-17.842" x2="-35.64" y2="-19.165" xlink:href="#linear-gradient-2"/>
    <linearGradient id="linear-gradient-32" x1="19.181" y1="2.107" x2="19.181" y2="1.093" xlink:href="#linear-gradient-2"/>
    <linearGradient id="linear-gradient-33" x1="18.383" y1="-14.085" x2="19.311" y2="-14.085" xlink:href="#linear-gradient-17"/>
    <linearGradient id="linear-gradient-34" x1="19.721" y1="-15.19" x2="20.643" y2="-15.19" xlink:href="#linear-gradient-18"/>
    <linearGradient id="linear-gradient-35" x1="23.111" y1="-17.922" x2="24.04" y2="-17.922" xlink:href="#linear-gradient-17"/>
    <linearGradient id="linear-gradient-36" x1="-11.534" y1="-4.84" x2="-10.76" y2="-4.84" xlink:href="#linear-gradient"/>
    <linearGradient id="linear-gradient-37" x1="-11.999" y1="-4.874" x2="-11.999" y2="-5.678" xlink:href="#linear-gradient-2"/>
    <linearGradient id="linear-gradient-38" x1="-14.679" y1="-6.045" x2="-14.679" y2="-6.872" xlink:href="#linear-gradient"/>
    <linearGradient id="linear-gradient-39" x1="-34.83" y1="-15.474" x2="-34.83" y2="-16.805" xlink:href="#linear-gradient-2"/>
    <linearGradient id="linear-gradient-40" x1="16.885" y1="2.036" x2="16.885" y2="1.006" xlink:href="#linear-gradient-2"/>
    <linearGradient id="linear-gradient-41" x1="-16.313" y1="0.252" x2="-15.544" y2="0.252" xlink:href="#linear-gradient"/>
    <linearGradient id="linear-gradient-42" x1="-17.124" y1="0.67" x2="-17.124" y2="-0.221" xlink:href="#linear-gradient-2"/>
    <linearGradient id="linear-gradient-43" x1="-20.981" y1="0.608" x2="-20.981" y2="-0.286" xlink:href="#linear-gradient"/>
    <linearGradient id="linear-gradient-44" x1="-50.187" y1="0.422" x2="-50.187" y2="-0.834" xlink:href="#linear-gradient-2"/>
    <linearGradient id="linear-gradient-45" x1="-43.803" y1="-19.433" x2="-43.803" y2="-20.986" xlink:href="#linear-gradient-2"/>
    <linearGradient id="linear-gradient-46" x1="-22.733" y1="16.991" x2="-21.957" y2="16.991" xlink:href="#linear-gradient"/>
    <linearGradient id="linear-gradient-47" x1="-24.014" y1="18.71" x2="-24.014" y2="17.891" xlink:href="#linear-gradient-2"/>
    <linearGradient id="linear-gradient-48" x1="-29.39" y1="22.306" x2="-29.39" y2="21.472" xlink:href="#linear-gradient"/>
    <linearGradient id="linear-gradient-49" x1="-69.699" y1="52.789" x2="-69.699" y2="51.459" xlink:href="#linear-gradient-2"/>
    <linearGradient id="linear-gradient-50" x1="0.103" y1="2.976" x2="0.103" y2="1.994" xlink:href="#linear-gradient-2"/>
    <linearGradient id="linear-gradient-51" x1="0.845" y1="2.713" x2="1.845" y2="2.713" gradientUnits="objectBoundingBox">
      <stop offset="0" stop-color="#4e7f29"/>
      <stop offset="1" stop-color="#7ca043"/>
    </linearGradient>
    <linearGradient id="linear-gradient-52" x1="-1.254" y1="-4.665" x2="-2.482" y2="-4.669" xlink:href="#linear-gradient-17"/>
    <linearGradient id="linear-gradient-53" x1="-1.526" y1="-4.948" x2="-2.848" y2="-4.951" xlink:href="#linear-gradient-18"/>
    <linearGradient id="linear-gradient-54" x1="-1.863" y1="-5.199" x2="-3.322" y2="-5.202" xlink:href="#linear-gradient-17"/>
    <linearGradient id="linear-gradient-55" x1="-5.807" y1="-39.245" x2="-5.807" y2="-40.553" xlink:href="#linear-gradient-18"/>
    <linearGradient id="linear-gradient-56" x1="1.083" y1="2.931" x2="2.084" y2="2.931" gradientUnits="objectBoundingBox">
      <stop offset="0" stop-color="#e6dbab"/>
      <stop offset="1" stop-color="#f7f4c0"/>
    </linearGradient>
    <linearGradient id="linear-gradient-57" x1="14.992" y1="1.473" x2="15.992" y2="1.473" xlink:href="#linear-gradient-22"/>
  </defs>
  <g id="Grupo_88426" data-name="Grupo 88426" transform="translate(-285 -8820)">
    <rect id="Rectángulo_34597" data-name="Rectángulo 34597" width="340.825" height="340.825" rx="65.683" transform="translate(296.999 9061) rotate(-45)" fill="#3b4454"/>
    <g id="Grupo_87896" data-name="Grupo 87896" transform="translate(208.75 8796.75)">
      <g id="Grupo_87875" data-name="Grupo 87875" transform="translate(307.758 249.082)">
        <path id="Trazado_101974" data-name="Trazado 101974" d="M483.007,328.857q5.14,15.292,10.85,30.528c.971-.946,62.94-19.9,63.93-23.12.075-1.256,1.214-6.752,2.027-11.556-.24-.316-.473-.638-.708-.958,0,0,.635-4.564.9-6.222l.9-.048c.611-3.7,1.045-6.449,1.045-6.449C537.378,315.257,511,321.116,483.007,328.857Z" transform="translate(-353.518 -274.932)" fill="#4e7f29"/>
        <path id="Trazado_101975" data-name="Trazado 101975" d="M338.651,299.935q-.059,3.793-.1,7.576c-.3.294-.609.589-.91.88q.081,3.91.183,7.817c.193.151-.884,2.742-.693,2.9.02,1.968,1.31,1.5,1.342,3.465l-.69.454q.351,2.748.724,5.491c-.241-.066,32.1,11.033,53.123,15.212,20.174,3.223,85.513,13.794,85.816,14.409q-.7-2.319-1.391-4.638c.445-.285.895-.567,1.338-.846q.134-3.038.27-6.077c-.765-.317-1.534-.632-2.3-.949q-.032-4.426-.069-8.862c.644-.15,1.289-.3,1.929-.446q-.06-3.723-.122-7.458A1218.621,1218.621,0,0,0,338.651,299.935Z" transform="translate(-337.104 -273.684)" fill="#7ca043"/>
        <path id="Trazado_101976" data-name="Trazado 101976" d="M492.734,342.686l46.109-11.16-46.023,14.509Z" transform="translate(-354.613 -277.238)" fill="#406529"/>
        <path id="Trazado_101977" data-name="Trazado 101977" d="M512.95,350.6l49.08-16.933-.53,2.514Z" transform="translate(-356.887 -277.479)" fill="#406529"/>
        <path id="Trazado_101978" data-name="Trazado 101978" d="M337.78,325.579l56.5,8.963-57.176-11.908Z" transform="translate(-337.105 -276.237)" fill="#4e7f29"/>
        <path id="Trazado_101979" data-name="Trazado 101979" d="M363.139,320l6.489,2.895,31.766,4.316Z" transform="translate(-340.033 -275.941)" fill="#4e7f29"/>
        <path id="Trazado_101980" data-name="Trazado 101980" d="M338.681,302.965c-.023,1.629-.051,3.259-.067,4.887-.3.294-.609.589-.91.88q.079,3.761.178,7.512l51.583-2.232Z" transform="translate(-337.172 -274.024)" fill="#4e7f29" opacity="0.3" style="mix-blend-mode: multiply;isolation: isolate"/>
        <path id="Trazado_101981" data-name="Trazado 101981" d="M417.046,270.356c-24.938,7.708-51.237,16.485-78.2,26.251C367.406,314.582,416,321.081,477.3,325.535c24.726-7.635,47.6-13.91,68.437-19.079C492.046,296.869,446.929,287.038,417.046,270.356Z" transform="translate(-337.3 -270.356)" fill="url(#linear-gradient)"/>
        <path id="Trazado_101982" data-name="Trazado 101982" d="M415.99,273.239c-22.044,6.937-45.148,14.729-68.849,23.33,27.764,16.3,72.758,22.979,129.05,27.634,22.8-6.812,44.111-12.49,63.749-17.223C488.572,298.093,445.3,288.813,415.99,273.239Z" transform="translate(-338.233 -270.68)" fill="url(#linear-gradient-2)"/>
        <path id="Trazado_101983" data-name="Trazado 101983" d="M523.145,305.516c-39.291-6.971-73.028-14.625-98.323-25.92-6.994,1.853-15.844,2.126-21.074.563q-16.008,5.691-32.735,12c.071.037.17.072.228.112,4.59,2.462,2.7,6.236-4.664,9.154,24.047,10.7,57.432,16.548,97.653,20.775a90.857,90.857,0,0,1,23.832-2.022q19.025-5.229,36.639-9.457C518.537,309.46,518.014,307.26,523.145,305.516Z" transform="translate(-340.42 -271.395)" fill="url(#linear-gradient-3)"/>
        <path id="Trazado_101984" data-name="Trazado 101984" d="M467.39,309.984c-13.258,4.2-36.3,6.512-49.106,4.017-12.691-2.6-9.766-9.338,4.281-13.87,14.119-4.479,33.747-5.074,45.739-2.2C480.213,300.769,480.684,305.776,467.39,309.984Z" transform="translate(-345.329 -273.26)" fill="url(#linear-gradient-4)"/>
        <path id="Trazado_101985" data-name="Trazado 101985" d="M409.906,316.2c-16.354-3.2-11.89-12.318,6.066-18.07,18.093-5.688,42.689-6.18,57.759-2.474,14.981,3.663,16.092,9.9-.631,15.116C456.453,316.049,426.271,319.4,409.906,316.2Zm61.831-19.953c-14.188-3.449-37.327-2.936-54.2,2.381-16.76,5.385-20.7,13.7-5.418,16.8,15.33,2.919,43.3-.02,58.964-4.98C486.783,305.544,485.817,299.669,471.737,296.247Z" transform="translate(-344.155 -272.935)" fill="url(#linear-gradient-5)"/>
        <path id="Trazado_101986" data-name="Trazado 101986" d="M491.006,317.47c-4.037-.522-4.215-1.952-.541-3.108a35.7,35.7,0,0,1,13.615-1c3.913.58,4.3,1.9.776,3.007A39.32,39.32,0,0,1,491.006,317.47Zm10.4-3.278a21.382,21.382,0,0,0-8,.6c-2.123.672-1.992,1.485.341,1.8a22.423,22.423,0,0,0,8.07-.63C503.919,315.3,503.693,314.523,501.41,314.192Z" transform="translate(-354.062 -275.165)" fill="#5e8c32"/>
        <path id="Trazado_101987" data-name="Trazado 101987" d="M398.713,296.643c-2.67-1.051-1.452-3.015,2.584-4.275,4.055-1.244,9.426-1.34,12.083-.319,2.689,1.031,1.684,2.836-2.317,4.114C407.016,297.432,401.382,297.693,398.713,296.643Zm11.643-3.656a12.832,12.832,0,0,0-7.079.212c-2.378.728-3.054,1.855-1.492,2.465s4.813.48,7.156-.265C411.318,294.662,411.905,293.588,410.356,292.988Z" transform="translate(-343.875 -272.718)" fill="#5e8c32"/>
        <g id="Grupo_87874" data-name="Grupo 87874" transform="translate(51.492 16.93)">
          <path id="Trazado_101988" data-name="Trazado 101988" d="M491.9,296.024l-63.985,23.855,1.382,27.342-32.892-7.3-.2-22.554L469.133,290.5Z" transform="translate(-395.245 -289.552)" fill="#e7dcad"/>
          <path id="Trazado_101989" data-name="Trazado 101989" d="M427.944,323.676l1.349,26.73L396.4,343.1l-.2-22.554,4.72-1.739C409.975,320.245,419.014,321.793,427.944,323.676Z" transform="translate(-395.245 -292.737)" fill="#cac195"/>
          <path id="Trazado_101990" data-name="Trazado 101990" d="M429.153,348.051a.928.928,0,0,0,.631-.224.956.956,0,0,0,.341-.778l-1.345-26.641L492.1,296.795a.95.95,0,0,0-.106-1.818l-22.76-5.52a1.014,1.014,0,0,0-.555.03l-72.93,26.861a.956.956,0,0,0-.627.9l.2,22.558a.953.953,0,0,0,.745.923l32.891,7.3A.826.826,0,0,0,429.153,348.051ZM488.528,296.1l-61.068,22.77a.948.948,0,0,0-.619.937l1.314,26.1-30.93-6.872-.188-21.125,72.033-26.526Z" transform="translate(-395.124 -289.432)" fill="#ae6439"/>
        </g>
        <path id="Trazado_101991" data-name="Trazado 101991" d="M488.5,340.564l-51.117-2.9,49.121,5.713Z" transform="translate(-348.386 -277.928)" fill="#4e7f29"/>
        <path id="Trazado_101992" data-name="Trazado 101992" d="M487.549,348.586l-.1,2.046-42.86-6.21Z" transform="translate(-349.197 -278.688)" fill="#4e7f29"/>
        <path id="Trazado_101993" data-name="Trazado 101993" d="M490.439,359.6l-29.762-5.018,30.367,6.621Z" transform="translate(-351.006 -279.831)" fill="#4e7f29"/>
        <path id="Trazado_101994" data-name="Trazado 101994" d="M566.675,318.352l-.314,1.776-24.106,6.521Z" transform="translate(-360.184 -275.755)" fill="#406529"/>
      </g>
      <g id="Grupo_87877" data-name="Grupo 87877" transform="translate(293.034 221.194)">
        <path id="Trazado_101995" data-name="Trazado 101995" d="M466.107,294.094q5.895,15.012,12.35,29.95c.926-.992,62.848-18.977,63.679-22.243.012-1.26-.093-10.815.481-15.654-.253-.306-.507-.613-.753-.921,0,0,.407-4.589.593-6.264l.89-.088c.432-3.726.729-6.5.729-6.5C519.741,277.818,493.682,284.974,466.107,294.094Z" transform="translate(-336.893 -242.696)" fill="#4e7f29"/>
        <path id="Trazado_101996" data-name="Trazado 101996" d="M320.578,272.839q.121,3.789.271,7.57c-.288.309.257,3.243-.035,3.548.185,2.6-.465,2.575-.26,5.169.2.146.393.286.594.434.116,1.964.241,3.932.364,5.895-.219.161-.444.322-.663.488.324,1.818.659,3.632.993,5.447-.239-.053,33.438,7.214,54.643,10.347,20.307,2.224,85.261,11.765,85.592,12.359-.54-1.523-1.084-3.039-1.619-4.561.435-.31.864-.61,1.293-.91-.007-2.026-.014-4.059-.031-6.086-.778-.28-1.56-.557-2.339-.832q-.246-4.424-.509-8.847c.639-.182,1.271-.366,1.906-.543q-.249-3.714-.49-7.437A1218.049,1218.049,0,0,0,320.578,272.839Z" transform="translate(-320.513 -242.747)" fill="#7ca043"/>
        <path id="Trazado_101997" data-name="Trazado 101997" d="M321.228,291.679l.147,2.224,45.77,6.019Z" transform="translate(-320.594 -244.867)" fill="#4e7f29"/>
        <path id="Trazado_101998" data-name="Trazado 101998" d="M392.995,310.9l67.494,10.33S411.389,308.178,392.995,310.9Z" transform="translate(-328.668 -246.987)" fill="#4e7f29"/>
        <path id="Trazado_101999" data-name="Trazado 101999" d="M356.3,307.966l-32.2-4.887S349.517,304.165,356.3,307.966Z" transform="translate(-320.918 -246.149)" fill="#4e7f29"/>
        <path id="Trazado_102000" data-name="Trazado 102000" d="M397.385,238.933c-24.526,8.932-50.357,19-76.8,30.092,29.411,16.537,78.268,20.624,139.71,22.04,24.313-8.857,46.85-16.252,67.408-22.448C473.608,261.7,428.061,254.118,397.385,238.933Z" transform="translate(-320.522 -238.933)" fill="url(#linear-gradient-6)"/>
        <path id="Trazado_102001" data-name="Trazado 102001" d="M396.457,241.925c-21.674,8.019-44.365,16.946-67.612,26.708,28.54,14.911,73.813,19.348,130.261,21.214,22.435-7.934,43.439-14.657,62.82-20.357C470.182,263.154,426.5,256.027,396.457,241.925Z" transform="translate(-321.451 -239.27)" fill="url(#linear-gradient-7)"/>
        <path id="Trazado_102002" data-name="Trazado 102002" d="M505.069,268.923c-39.587-5.019-73.663-10.994-99.483-21.02-6.9,2.2-15.721,2.9-21.022,1.605q-15.7,6.471-32.1,13.606c.069.034.174.06.231.095,4.711,2.236,3.005,6.1-4.206,9.378,24.549,9.492,58.186,13.683,98.567,15.918a90.408,90.408,0,0,1,23.7-3.2q18.736-6.169,36.123-11.263C500.661,273.089,500.031,270.917,505.069,268.923Z" transform="translate(-323.66 -239.942)" fill="url(#linear-gradient-8)"/>
        <path id="Trazado_102003" data-name="Trazado 102003" d="M449.544,276.237c-13.032,4.848-35.936,8.306-48.846,6.446-12.806-1.967-10.217-8.843,3.591-14.062,13.88-5.176,33.453-6.741,45.575-4.459C461.9,266.4,462.615,271.376,449.544,276.237Z" transform="translate(-328.598 -241.656)" fill="url(#linear-gradient-9)"/>
        <path id="Trazado_102004" data-name="Trazado 102004" d="M392.461,285.227c-16.486-2.386-12.483-11.718,5.164-18.351,17.79-6.576,42.332-8.282,57.566-5.326,15.147,2.915,16.568,9.084.12,15.125C438.945,282.771,408.967,287.617,392.461,285.227Zm60.769-22.992c-14.343-2.741-37.424-1.086-54.012,5.063-16.47,6.206-20,14.7-4.58,17.049,15.458,2.154,43.251-2.166,58.645-7.893C468.716,270.776,467.463,264.956,453.23,262.236Z" transform="translate(-327.432 -241.32)" fill="url(#linear-gradient-10)"/>
        <path id="Trazado_102005" data-name="Trazado 102005" d="M473.441,282.737c-4.056-.321-4.306-1.739-.694-3.075a35.753,35.753,0,0,1,13.546-1.676c3.939.387,4.387,1.685.931,2.965A39.307,39.307,0,0,1,473.441,282.737Zm10.23-3.79a21.328,21.328,0,0,0-7.963.99c-2.091.778-1.917,1.585.427,1.78a22.385,22.385,0,0,0,8.027-1.026C486.232,279.937,485.967,279.166,483.671,278.947Z" transform="translate(-337.354 -243.315)" fill="#5e8c32"/>
        <path id="Trazado_102006" data-name="Trazado 102006" d="M380.237,266.51c-2.717-.918-1.6-2.939,2.369-4.4,3.993-1.439,9.349-1.805,12.051-.912,2.738.895,1.83,2.744-2.109,4.22C388.571,266.887,382.959,267.429,380.237,266.51Zm11.445-4.227a12.832,12.832,0,0,0-7.057.567c-2.333.84-2.956,2-1.368,2.535s4.831.241,7.133-.62C392.725,263.91,393.265,262.805,391.682,262.283Z" transform="translate(-327.064 -241.384)" fill="#5e8c32"/>
        <g id="Grupo_87876" data-name="Grupo 87876" transform="translate(50.862 14.647)">
          <path id="Trazado_102007" data-name="Trazado 102007" d="M473.418,260.9l-62.721,27,2.727,27.24-33.208-5.666L378.9,286.947l71.517-30.438Z" transform="translate(-377.943 -255.558)" fill="#e7dcad"/>
          <path id="Trazado_102008" data-name="Trazado 102008" d="M410.755,292.109l2.669,26.629-33.208-5.665-1.32-22.518,4.635-1.97C392.641,289.575,401.746,290.669,410.755,292.109Z" transform="translate(-377.943 -259.166)" fill="#cac195"/>
          <path id="Trazado_102009" data-name="Trazado 102009" d="M413.336,315.961a.924.924,0,0,0,.619-.259.955.955,0,0,0,.3-.791l-2.661-26.542,62.078-26.721a.948.948,0,0,0,.576-.975.967.967,0,0,0-.769-.834l-23.006-4.387a1,1,0,0,0-.555.059L378.4,285.947a.961.961,0,0,0-.58.929l1.319,22.52a.962.962,0,0,0,.791.887l33.211,5.664A1.735,1.735,0,0,0,413.336,315.961Zm56.728-54.831L410.2,286.9a.947.947,0,0,0-.576.967l2.607,26L381,308.533l-1.233-21.092L450.4,257.383Z" transform="translate(-377.823 -255.437)" fill="#ae6439"/>
        </g>
        <path id="Trazado_102010" data-name="Trazado 102010" d="M472.068,306.006l-51.2-.365,49.34,3.273Z" transform="translate(-331.804 -246.438)" fill="#4e7f29"/>
        <path id="Trazado_102011" data-name="Trazado 102011" d="M478.544,305.03l30.218-8.068L478.438,302.8Z" transform="translate(-338.28 -245.461)" fill="#406529"/>
        <path id="Trazado_102012" data-name="Trazado 102012" d="M479.579,316.879l51.2-16.679L479.65,319.319Z" transform="translate(-338.408 -245.826)" fill="#406529"/>
        <path id="Trazado_102013" data-name="Trazado 102013" d="M397.9,305.663c14.022-5.439,25.974-11.068,40.673-16.5-39.011-7.808-68.39-12.037-103.173-15.7-.113,3.307-1.426,2.617-1.537,5.9C354.335,290.822,375.542,298.868,397.9,305.663Z" transform="translate(-322.015 -242.817)" fill="#4e7f29" opacity="0.3" style="mix-blend-mode: multiply;isolation: isolate"/>
      </g>
      <path id="Trazado_102014" data-name="Trazado 102014" d="M581.25,316.661l-55.531-10.387L540.4,291.593l-65.885-61.465-62.071,27.308L322.15,185.744,219.8,213.858,76.25,81.25h78.322l74.994,73.441,97.5-19.087L418.6,217.7l55.913-28.714,80.887,87.6,15.458-15.46Z" fill="url(#linear-gradient-11)"/>
      <g id="Grupo_87879" data-name="Grupo 87879" transform="translate(312.508 281.232)">
        <path id="Trazado_102015" data-name="Trazado 102015" d="M467.448,362.606l7.174,29.2S526.432,368.53,529.007,364c.294-1.283,2.268-7.025,3.941-12.053l-.44-.876s1.458-4.753,2.046-6.5l.81-.182c1.313-3.885,2.3-6.783,2.3-6.783Z" transform="translate(-356.518 -310.072)" fill="#7ca043"/>
        <path id="Trazado_102016" data-name="Trazado 102016" d="M342.456,330.534l1.27,6.9-.652.7,1.532,7.162.576.491,1.064,5.418-.517.335,1.529,5.119s28.809,13.913,45.691,19.032,67.611,15.319,67.611,15.319l-.83-4.447,1.094-.864.566-5.9-1.774-.844,1.182-7.32.843-1.772.345-7.231Z" transform="translate(-342.456 -309.277)" fill="#4e7f29"/>
        <path id="Trazado_102017" data-name="Trazado 102017" d="M409.968,369.071l32.381,6.583-31.777-4.586Z" transform="translate(-350.051 -313.612)" fill="#406529"/>
        <path id="Trazado_102018" data-name="Trazado 102018" d="M410.043,308.671c-22.49,7.071-45.073,13.58-67.587,19.4,29.185,19.612,69.422,30.384,119.531,32.1q31.288-12.74,61.618-25.822C476.668,333.146,438.5,324.459,410.043,308.671Z" transform="translate(-342.456 -306.817)" fill="url(#linear-gradient-12)"/>
        <path id="Trazado_102019" data-name="Trazado 102019" d="M409.188,311.355q-29.61,9.412-59.353,17.5c27.793,17.8,65.244,27.9,111.4,30.107q28.875-11.341,57.035-23.047C473.58,334.5,436.941,326.214,409.188,311.355Z" transform="translate(-343.286 -307.119)" fill="url(#linear-gradient-13)"/>
        <path id="Trazado_102020" data-name="Trazado 102020" d="M503.6,336.942c-33.919-2.277-62.755-8.851-86.088-19.564-6.232,1.727-14.126,1.771-18.977.141q-14,4.781-28.064,9.3c.065.04.156.077.215.116,4.433,2.61,3.18,5.983-2.886,8.044,22.648,11.9,50.733,19.432,83.867,22.5a77.336,77.336,0,0,1,19.97-2.944q16.37-6.194,32.542-12.552C498.954,341.433,498.774,339.3,503.6,336.942Z" transform="translate(-345.308 -307.797)" fill="url(#linear-gradient-14)"/>
        <path id="Trazado_102021" data-name="Trazado 102021" d="M454.97,345.735c-11.493,4.542-30.615,6.59-41.559,3.727-10.856-2.944-9.04-9.021,2.942-12.893,12.022-3.824,29.388-4.692,39.8-2.451C466.522,336.3,466.458,341.2,454.97,345.735Z" transform="translate(-349.63 -309.543)" fill="url(#linear-gradient-15)"/>
        <path id="Trazado_102022" data-name="Trazado 102022" d="M406.492,351.238c-13.983-3.849-11.277-11.919,4.062-16.691,15.42-4.715,37.358-5.663,50.48-2.911,13.109,2.679,13.309,8.8-1.227,14.621C445.3,352.185,420.454,355.082,406.492,351.238ZM459.255,332.3c-12.35-2.573-32.933-1.693-47.306,2.755-14.306,4.512-16.708,11.916-3.638,15.553,13.086,3.486,36.168.927,49.791-4.583C471.721,340.6,471.549,334.861,459.255,332.3Z" transform="translate(-348.635 -309.228)" fill="url(#linear-gradient-16)"/>
        <path id="Trazado_102023" data-name="Trazado 102023" d="M474.795,352.171c-3.388-.323-3.478-1.693-.284-2.983a29.689,29.689,0,0,1,11.734-1.771c3.321.3,3.528,1.562.414,2.887A29.309,29.309,0,0,1,474.795,352.171Zm9.089-3.762A17.356,17.356,0,0,0,477,349.452c-1.855.758-1.787,1.542.177,1.724a16.951,16.951,0,0,0,6.917-1.074C485.943,349.336,485.815,348.582,483.884,348.409Z" transform="translate(-357.05 -311.169)" fill="#5e8c32"/>
        <path id="Trazado_102024" data-name="Trazado 102024" d="M395.208,332.461c-2.439-1.112-1.567-2.867,1.9-3.853,3.482-.969,8.24-.887,10.652.144,2.446,1.036,1.658,2.7-1.759,3.767C402.543,333.577,397.651,333.575,395.208,332.461Zm9.945-2.927a10.888,10.888,0,0,0-6.229-.067c-2.036.575-2.526,1.59-1.1,2.231a10.6,10.6,0,0,0,6.261.036C406.115,331.132,406.561,330.143,405.154,329.534Z" transform="translate(-348.235 -308.983)" fill="#5e8c32"/>
        <path id="Trazado_102025" data-name="Trazado 102025" d="M438.022,346.187c10.955-3.708-4.411-5.374,1.371-7.3,6.494-2.135,10.427.84,10.449.83q2.627-.462,5.257-.944c.026-.581-1.092-1.243-2.92-1.756.885-.316,1.772-.64,2.659-.96-1.04-.121-2.069-.248-3.1-.376-.709.26-1.422.531-2.13.792a30.021,30.021,0,0,0-12.88,1.024c-9.642,2.97,1.487,6.02-2.668,7.425a14.71,14.71,0,0,1-11.846-1.186q-2.623.369-5.231.736a14.476,14.476,0,0,0,4.823,2.143q-1.514.482-3.025.969,1.124.249,2.26.49l2.76-.976A27.643,27.643,0,0,0,438.022,346.187Z" transform="translate(-350.84 -309.855)" fill="#cfdf7d"/>
        <g id="Grupo_87878" data-name="Grupo 87878" transform="translate(40.943 25.938)">
          <path id="Trazado_102026" data-name="Trazado 102026" d="M410.264,380.725l1.593-23.26,56.812-20.533-35.147-.13-43.513,14.792-.47,23.279Z" transform="translate(-388.696 -335.919)" fill="#cac195"/>
          <path id="Trazado_102027" data-name="Trazado 102027" d="M410.128,381.5a.7.7,0,0,1-.192-.029l-20.727-5.851a.877.877,0,0,1-.62-.872l.468-23.277a.892.892,0,0,1,.588-.825l43.512-14.793a.674.674,0,0,1,.263-.041l35.144.129a.919.919,0,0,1,.831.74.9.9,0,0,1-.561.981l-56.282,20.337L411,380.673a.891.891,0,0,1-.353.661A.833.833,0,0,1,410.128,381.5Zm-19.839-7.41,19.1,5.392,1.52-22.189a.884.884,0,0,1,.568-.775l52.1-18.827-30.037-.114-42.81,14.554Z" transform="translate(-388.589 -335.808)" fill="#ae6439"/>
        </g>
        <path id="Trazado_102028" data-name="Trazado 102028" d="M343.152,338.935s22.945,12.381,34.869,14.295c-6.56-3.47-33.662-15.586-33.662-15.586Z" transform="translate(-342.534 -310.076)" fill="#406529"/>
        <path id="Trazado_102029" data-name="Trazado 102029" d="M344.878,347.169l35.066,14.081-34.135-12.064Z" transform="translate(-342.728 -311.148)" fill="#406529"/>
        <path id="Trazado_102030" data-name="Trazado 102030" d="M346.145,354.2l.427,1.829L376.36,367.15Z" transform="translate(-342.871 -311.939)" fill="#406529"/>
        <path id="Trazado_102031" data-name="Trazado 102031" d="M468.792,375.858l-49.95-7.095,51.393,5.4Z" transform="translate(-351.049 -313.577)" fill="#406529"/>
        <path id="Trazado_102032" data-name="Trazado 102032" d="M468.75,384.141l-45.109-7.514,46.822,9.707.152-.881Z" transform="translate(-351.589 -314.462)" fill="#406529"/>
        <path id="Trazado_102033" data-name="Trazado 102033" d="M476.4,368.208l45.583-17.127-46.246,19.108Z" transform="translate(-357.45 -311.588)" fill="#4e7f29"/>
        <path id="Trazado_102034" data-name="Trazado 102034" d="M474.529,387.1,503.4,373.742l-29.105,15.117Z" transform="translate(-357.287 -314.137)" fill="#4e7f29"/>
        <path id="Trazado_102035" data-name="Trazado 102035" d="M533.362,360.426,491.731,381.58l41.18-18.948Z" transform="translate(-359.249 -312.639)" fill="#4e7f29"/>
        <path id="Trazado_102036" data-name="Trazado 102036" d="M537.222,352.777l-27.873,10.894,28.313-10.019Z" transform="translate(-361.231 -311.779)" fill="#4e7f29"/>
        <path id="Trazado_102037" data-name="Trazado 102037" d="M430.735,351.852l-52.879-4.028-9.992-31.807,11.391-9.435Z" transform="translate(-345.314 -306.582)" fill="#4e7f29" opacity="0.3" style="mix-blend-mode: multiply;isolation: isolate"/>
      </g>
      <g id="Grupo_87882" data-name="Grupo 87882" transform="translate(334.733 246.167)">
        <path id="Trazado_102038" data-name="Trazado 102038" d="M436.011,362.065s-57.948-37.2-67.456-58.653c-.115-8.743-1.057-16.519-1.057-16.519s55.047,39.69,71.952,48.265c7.641,1.921,5.126,14.012,5.126,14.012Z" transform="translate(-367.498 -269.302)" fill="#4e7f29"/>
        <g id="Grupo_87880" data-name="Grupo 87880" transform="translate(27.843 50.491)">
          <path id="Trazado_102039" data-name="Trazado 102039" d="M444.847,359.933c-11.172-5.744-21.8-11.356-31.832-19.149-.288-.222-.59.239-.321.469,9.754,8.2,19.931,15.3,31.873,19.466C445.064,360.892,445.3,360.165,444.847,359.933Z" transform="translate(-400.414 -325.849)" fill="#406529"/>
          <path id="Trazado_102040" data-name="Trazado 102040" d="M428.33,338.261c-8.011-2.813-15.3-7.582-22.317-12.415-.16-.107-.328.14-.17.26,12.784,9.5,26.864,17.3,42.742,18.265a10.051,10.051,0,0,0-.484-1.194C441.5,341.563,434.82,340.541,428.33,338.261Z" transform="translate(-399.648 -324.172)" fill="#406529"/>
          <path id="Trazado_102041" data-name="Trazado 102041" d="M448.488,349.646a94.907,94.907,0,0,1-26.174-9.726c-8.224-4.63-15.671-10.244-23.248-15.933-.132-.094-.271.114-.146.217,14.262,11.578,30.619,25.118,49.554,25.872C448.477,349.937,448.486,349.794,448.488,349.646Z" transform="translate(-398.87 -323.963)" fill="#406529"/>
        </g>
        <path id="Trazado_102042" data-name="Trazado 102042" d="M448.135,338.627l-1.051,8.757,2.466,1.118-.911,5.737-2.788,2.665-1.156,8.63,55.51-19.954,1.308-7.941,2.886-1.926,2.179-8.706-1.548-.643s4.172-7.942,3.761-8.632C499.971,320.541,448.135,338.627,448.135,338.627Z" transform="translate(-376.183 -272.771)" fill="#7ca043"/>
        <path id="Trazado_102043" data-name="Trazado 102043" d="M500.108,312.034c-18.513,9.418-39.911,15.784-60.658,20.894-26.682-8.291-59.01-29.937-71.952-48.265,16.229-4.884,33.052-10.7,50.417-17.591C432.245,285.367,465.328,304.217,500.108,312.034Z" transform="translate(-367.498 -267.072)" fill="url(#linear-gradient-17)"/>
        <path id="Trazado_102044" data-name="Trazado 102044" d="M494.783,313.452c-16.341,8.058-38.119,11.82-53.42,18.152-31.231-11.347-56.677-28.753-69.794-46.106q21.806-6.811,44.953-15.989C430.548,286.964,462.1,305.208,494.783,313.452Z" transform="translate(-367.956 -267.346)" fill="url(#linear-gradient-18)"/>
        <path id="Trazado_102045" data-name="Trazado 102045" d="M420.218,276.082c13.06,13.461,38.737,28.164,63.368,36.157-4.532,2.662-7.409,4.905-4.424,6.731-8.616,3.842-21.79,7.209-29.413,8.442-.075-.033-.138-.062-.209-.092-4.776-1.831-12.251-1.861-17.561.01-22.837-10-41.823-23.119-53.91-36.56,3.365-1.527,4.747-3.878,3.616-5.974Q394,280.6,406.73,275.659C409.294,277.536,414.986,277.738,420.218,276.082Z" transform="translate(-368.687 -268.038)" fill="url(#linear-gradient-19)"/>
        <path id="Trazado_102046" data-name="Trazado 102046" d="M443.442,314.017c-8.929,2.685-22.3,2.15-28.875-1.809-6.5-4.023-3.66-9.3,5.412-11.322,9.085-1.97,20.965-.581,27.353,2.745C453.7,306.9,452.348,311.338,443.442,314.017Z" transform="translate(-372.395 -270.774)" fill="url(#linear-gradient-20)"/>
        <path id="Trazado_102047" data-name="Trazado 102047" d="M409.342,313.076c-8.363-5.239-4.387-12.208,7.177-14.627,11.6-2.347,26.57-.467,34.641,3.66,8.081,4.064,6.583,9.64-4.722,13.1C435.122,318.776,417.677,318.3,409.342,313.076ZM449.79,302.49c-7.6-3.875-21.643-5.642-32.471-3.406-10.8,2.309-14.386,8.721-6.588,13.652,7.849,4.787,24.015,5.347,34.627,2.049C455.939,311.574,457.358,306.347,449.79,302.49Z" transform="translate(-371.704 -270.487)" fill="url(#linear-gradient-21)"/>
        <path id="Trazado_102048" data-name="Trazado 102048" d="M451.372,323.618c2.242,1.054,6.248.872,8.87-.381,2.638-1.274,2.925-3.091.706-4.091-2.23-.984-6.161-.837-8.818.375C449.487,320.711,449.12,322.558,451.372,323.618Zm7.569-3.518c1.306.588,1.121,1.661-.42,2.392a6.966,6.966,0,0,1-5.172.224c-1.313-.611-1.109-1.689.437-2.394A7.123,7.123,0,0,1,458.941,320.1Z" transform="translate(-376.767 -272.857)" fill="#487c27"/>
        <path id="Trazado_102049" data-name="Trazado 102049" d="M448.178,343.266l-.471,1.8,42.847-12.291Z" transform="translate(-376.521 -274.464)" fill="#4e7f29"/>
        <path id="Trazado_102050" data-name="Trazado 102050" d="M448.726,357.418s31.336-8.114,41.226-11.431c-4.558,2.788-44.49,14.668-44.49,14.668Z" transform="translate(-376.269 -275.95)" fill="#4e7f29"/>
        <path id="Trazado_102051" data-name="Trazado 102051" d="M445.331,365.191l20.858-4.181L445,367.177Z" transform="translate(-376.217 -277.64)" fill="#4e7f29"/>
        <path id="Trazado_102052" data-name="Trazado 102052" d="M511.581,328.184,489.157,337.6l21.733-6.956Z" transform="translate(-381.185 -273.947)" fill="#4e7f29"/>
        <path id="Trazado_102053" data-name="Trazado 102053" d="M468.006,347.208s39.024-10.619,44.817-10.941c-1.168-1.361-5.133-1.8-5.133-1.8Z" transform="translate(-378.805 -274.654)" fill="#4e7f29"/>
        <g id="Grupo_87881" data-name="Grupo 87881" transform="translate(18.555 20.466)">
          <path id="Trazado_102054" data-name="Trazado 102054" d="M389.123,327.13l1.79-18.65,56.627-17.595,17.3,7.671-59.131,20.087-3.06,19.593Z" transform="translate(-388.486 -290.217)" fill="#e7dcad"/>
          <path id="Trazado_102055" data-name="Trazado 102055" d="M390.913,310.672l-1.79,18.65,13.53,11.107,3.06-19.593.849-.289a85.338,85.338,0,0,1-14.647-10.185Z" transform="translate(-388.486 -292.408)" fill="#cac195"/>
          <path id="Trazado_102056" data-name="Trazado 102056" d="M402.55,338.819a.613.613,0,0,1-.375-.14l-13.528-11.11a.685.685,0,0,1-.239-.588l1.788-18.649a.659.659,0,0,1,.456-.577l56.623-17.6a.638.638,0,0,1,.431.027l17.306,7.672a.672.672,0,0,1,.386.647.664.664,0,0,1-.44.607L406.2,319.068l-3,19.19a.659.659,0,0,1-.4.517A.618.618,0,0,1,402.55,338.819Zm-12.837-12.076,12.4,10.183L405,318.454a.673.673,0,0,1,.433-.533l57.5-19.531-15.52-6.881-55.994,17.4Z" transform="translate(-388.405 -290.133)" fill="url(#linear-gradient-22)"/>
        </g>
      </g>
      <g id="Grupo_87883" data-name="Grupo 87883" transform="translate(118.077 270.982)">
        <path id="Trazado_102057" data-name="Trazado 102057" d="M193.861,350.036l-6.853,29.336s-52.061-22.309-54.683-26.8c-.306-1.275-2.347-6.978-4.067-11.974l.426-.885s-1.506-4.729-2.117-6.46l-.811-.167c-1.354-3.858-2.376-6.738-2.376-6.738Z" transform="translate(-123.379 -298.556)" fill="#7ca043"/>
        <path id="Trazado_102058" data-name="Trazado 102058" d="M312.287,315.471l-1.194,6.927.661.685-1.455,7.192-.572.5-1.006,5.439.521.321-1.475,5.151s-28.651,14.447-45.478,19.878-67.436,16.582-67.436,16.582l.78-4.467-1.106-.842-.628-5.889,1.766-.874-1.259-7.3-.864-1.755-.427-7.222Z" transform="translate(-131.224 -297.331)" fill="#4e7f29"/>
        <path id="Trazado_102059" data-name="Trazado 102059" d="M256.213,355.264,223.9,362.45l31.726-5.176Z" transform="translate(-134.688 -301.808)" fill="#406529"/>
        <path id="Trazado_102060" data-name="Trazado 102060" d="M236.653,295.032c22.563,6.648,45.214,12.744,67.788,18.14-28.968,20.158-69.083,31.675-119.173,34.329q-31.422-12.158-61.89-24.671C170.3,320.749,208.366,311.352,236.653,295.032Z" transform="translate(-123.379 -295.032)" fill="url(#linear-gradient-23)"/>
        <path id="Trazado_102061" data-name="Trazado 102061" d="M239.145,297.679q29.708,8.863,59.535,16.387c-27.594,18.314-64.934,29.114-111.057,32.18q-29-10.8-57.283-21.982C175.012,322.023,211.558,313.051,239.145,297.679Z" transform="translate(-124.162 -295.33)" fill="url(#linear-gradient-24)"/>
        <path id="Trazado_102062" data-name="Trazado 102062" d="M149.078,324.975c33.9-2.911,62.653-10.018,85.868-21.167,6.248,1.609,14.144,1.509,18.978-.211q14.047,4.514,28.161,8.772c-.068.043-.156.081-.215.125-4.4,2.691-3.115,6.039,2.971,7.991-22.515,12.312-50.512,20.373-83.61,24.063a77.045,77.045,0,0,0-20-2.574q-16.433-5.891-32.676-11.943C153.775,329.381,153.935,327.241,149.078,324.975Z" transform="translate(-126.211 -295.996)" fill="url(#linear-gradient-25)"/>
        <path id="Trazado_102063" data-name="Trazado 102063" d="M207.77,332.861c11.538,4.324,30.688,6.013,41.6,2.947,10.822-3.149,8.941-9.188-3.085-12.839-12.061-3.6-29.43-4.142-39.819-1.708C196.121,323.637,196.232,328.536,207.77,332.861Z" transform="translate(-131.875 -297.815)" fill="url(#linear-gradient-26)"/>
        <path id="Trazado_102064" data-name="Trazado 102064" d="M254.293,337.473c13.944-4.109,11.146-12.125-4.242-16.614-15.469-4.428-37.414-4.964-50.5-1.968-13.081,2.926-13.212,9.05,1.385,14.6C215.5,339.144,240.373,341.575,254.293,337.473Zm-52.959-17.95c12.319-2.805,32.907-2.307,47.33,1.872,14.352,4.248,16.833,11.6,3.8,15.484-13.045,3.728-36.153,1.6-49.835-3.655C188.956,328.058,189.062,322.317,201.334,319.524Z" transform="translate(-130.857 -297.505)" fill="url(#linear-gradient-27)"/>
        <path id="Trazado_102065" data-name="Trazado 102065" d="M193.19,339.606c3.384-.385,3.459-1.757.252-2.991a29.757,29.757,0,0,0-11.752-1.552c-3.318.359-3.51,1.632-.381,2.894A29.079,29.079,0,0,0,193.19,339.606Zm-9.131-3.6a17.3,17.3,0,0,1,6.9.919c1.862.722,1.8,1.509-.157,1.729a16.989,16.989,0,0,1-6.93-.945C182.01,336.974,182.132,336.217,184.059,336.009Z" transform="translate(-129.645 -299.525)" fill="#5e8c32"/>
        <path id="Trazado_102066" data-name="Trazado 102066" d="M272.724,318.405c2.427-1.157,1.534-2.893-1.941-3.816-3.489-.908-8.247-.734-10.646.34-2.434,1.082-1.625,2.735,1.8,3.736C265.4,319.655,270.3,319.562,272.724,318.405Zm-9.975-2.743a10.91,10.91,0,0,1,6.225-.183c2.041.536,2.547,1.543,1.131,2.211a10.594,10.594,0,0,1-6.261.152C261.806,317.278,261.344,316.3,262.75,315.662Z" transform="translate(-138.606 -297.166)" fill="#5e8c32"/>
        <path id="Trazado_102067" data-name="Trazado 102067" d="M227.178,332.986c-10.993-3.5,4.358-5.452-1.449-7.272-6.516-2.015-10.418,1.034-10.441,1.028-1.755-.279-3.5-.563-5.265-.849-.031-.58,1.079-1.266,2.9-1.811-.888-.3-1.78-.608-2.668-.909,1.037-.143,2.066-.289,3.095-.439.707.25,1.426.508,2.139.758a29.882,29.882,0,0,1,12.887.784c9.675,2.788-1.422,6.047,2.748,7.373a14.762,14.762,0,0,0,11.834-1.41q2.623.329,5.24.642a14.512,14.512,0,0,1-4.8,2.229c1.012.3,2.022.612,3.036.913-.75.18-1.5.357-2.252.537q-1.386-.465-2.772-.929A27.613,27.613,0,0,1,227.178,332.986Z" transform="translate(-133.126 -298.148)" fill="#cfdf7d"/>
        <path id="Trazado_102068" data-name="Trazado 102068" d="M322.393,323.887s-22.81,12.811-34.712,14.946c6.52-3.591,33.488-16.213,33.488-16.213Z" transform="translate(-141.863 -298.136)" fill="#406529"/>
        <path id="Trazado_102069" data-name="Trazado 102069" d="M320.729,332.152l-34.911,14.732,34-12.7Z" transform="translate(-141.653 -299.208)" fill="#406529"/>
        <path id="Trazado_102070" data-name="Trazado 102070" d="M320.15,339.207l-.406,1.842-29.665,11.668Z" transform="translate(-142.133 -300.002)" fill="#406529"/>
        <path id="Trazado_102071" data-name="Trazado 102071" d="M195.058,363.149l49.867-8.027-51.33,6.36Z" transform="translate(-131.278 -301.792)" fill="#406529"/>
        <path id="Trazado_102072" data-name="Trazado 102072" d="M195.753,371.431l45.022-8.354-46.712,10.577-.163-.877Z" transform="translate(-131.313 -302.687)" fill="#406529"/>
        <path id="Trazado_102073" data-name="Trazado 102073" d="M188.012,355.752l-45.765-16.277,46.447,18.243Z" transform="translate(-125.502 -300.032)" fill="#4e7f29"/>
        <path id="Trazado_102074" data-name="Trazado 102074" d="M192.261,374.557l-29.011-12.808,29.265,14.572Z" transform="translate(-127.864 -302.538)" fill="#4e7f29"/>
        <path id="Trazado_102075" data-name="Trazado 102075" d="M131.551,349.023l41.86,20.378L132.03,351.219Z" transform="translate(-124.298 -301.106)" fill="#4e7f29"/>
        <path id="Trazado_102076" data-name="Trazado 102076" d="M129.3,341.412l27.989,10.373L128.875,342.3Z" transform="translate(-123.997 -300.25)" fill="#4e7f29"/>
      </g>
      <g id="Grupo_87885" data-name="Grupo 87885" transform="translate(163.341 254.477)">
        <path id="Trazado_102077" data-name="Trazado 102077" d="M296.54,334.672l5.11,29.683s53.291-19.235,56.175-23.558c.38-1.257,2.753-6.833,4.766-11.719l-.372-.906s1.787-4.635,2.492-6.326l.821-.121c1.581-3.774,2.773-6.59,2.773-6.59Z" transform="translate(-188.124 -280.789)" fill="#7ca043"/>
        <path id="Trazado_102078" data-name="Trazado 102078" d="M174.381,292.384l.785,6.983-.7.649,1.025,7.264.541.532.68,5.485-.539.294,1.169,5.229s27.75,16.091,44.228,22.495S287.907,361.8,287.907,361.8l-.515-4.5,1.152-.776.975-5.84-1.708-.978,1.687-7.212.966-1.7.852-7.185Z" transform="translate(-174.381 -278.229)" fill="#4e7f29"/>
        <path id="Trazado_102079" data-name="Trazado 102079" d="M239,336.017l31.826,9.059-31.363-7.018Z" transform="translate(-181.65 -283.138)" fill="#406529"/>
        <path id="Trazado_102080" data-name="Trazado 102080" d="M243.127,276.435c-22.916,5.319-45.889,10.078-68.746,14.155C202.11,312.4,241.473,326.237,291.317,331.8q32.086-10.3,63.246-21.021C307.849,305.967,270.4,294.371,243.127,276.435Z" transform="translate(-174.381 -276.435)" fill="url(#linear-gradient-28)"/>
        <path id="Trazado_102081" data-name="Trazado 102081" d="M242.105,278.962c-20.121,4.744-40.3,9.068-60.4,12.887,26.468,19.9,63.1,32.848,108.965,38.6q29.586-9.088,58.484-18.6C304.688,307.005,268.737,295.917,242.105,278.962Z" transform="translate(-175.205 -276.719)" fill="url(#linear-gradient-29)"/>
        <path id="Trazado_102082" data-name="Trazado 102082" d="M334.456,311.487c-33.667-4.88-61.953-13.657-84.469-26.136-6.335,1.242-14.208.682-18.934-1.32q-14.29,3.693-28.632,7.12c.066.043.152.091.209.135,4.232,2.944,2.749,6.208-3.443,7.8,21.75,13.608,49.223,23.283,82.045,28.9a77.181,77.181,0,0,1,20.119-1.4q16.754-4.92,33.327-10.018C329.5,315.608,329.471,313.461,334.456,311.487Z" transform="translate(-177.172 -277.29)" fill="url(#linear-gradient-30)"/>
        <path id="Trazado_102083" data-name="Trazado 102083" d="M285.4,316.523c-11.775,3.643-30.99,4.213-41.7.521-10.616-3.777-8.378-9.7,3.839-12.637,12.255-2.9,29.626-2.418,39.849.613C297.578,308,297.175,312.88,285.4,316.523Z" transform="translate(-181.415 -279.364)" fill="url(#linear-gradient-31)"/>
        <path id="Trazado_102084" data-name="Trazado 102084" d="M236.655,318.363c-13.675-4.917-10.41-12.756,5.22-16.339,15.7-3.517,37.642-2.777,50.531.98,12.886,3.68,12.657,9.8-2.245,14.491C275.278,322.293,250.307,323.271,236.655,318.363Zm53.934-14.837c-12.136-3.518-32.719-4.217-47.361-.889-14.583,3.4-17.494,10.606-4.716,15.238,12.8,4.48,36,3.7,49.966-.746C302.438,312.771,302.671,307.029,290.589,303.526Z" transform="translate(-180.418 -279.058)" fill="url(#linear-gradient-32)"/>
        <path id="Trazado_102085" data-name="Trazado 102085" d="M304.786,324.259c-3.356-.583-3.349-1.957-.073-3a29.634,29.634,0,0,1,11.823-.862c3.291.549,3.4,1.833.209,2.912A29.153,29.153,0,0,1,304.786,324.259Zm9.329-3.054a17.29,17.29,0,0,0-6.944.51c-1.9.612-1.887,1.4.056,1.733a17.017,17.017,0,0,0,6.973-.537C316.1,322.283,316.027,321.527,314.116,321.205Z" transform="translate(-188.768 -281.352)" fill="#5e8c32"/>
        <path id="Trazado_102086" data-name="Trazado 102086" d="M226.82,298.441c-2.357-1.3-1.364-2.978,2.158-3.7,3.539-.7,8.279-.251,10.612.96,2.363,1.223,1.463,2.828-2.02,3.624C234.053,300.119,229.174,299.738,226.82,298.441Zm10.118-2.157a10.886,10.886,0,0,0-6.2-.545c-2.071.418-2.631,1.391-1.257,2.139a10.553,10.553,0,0,0,6.241.516C237.786,297.95,238.3,297,236.938,296.284Z" transform="translate(-180.136 -278.457)" fill="#5e8c32"/>
        <path id="Trazado_102087" data-name="Trazado 102087" d="M268.5,315.676c11.182-2.857-4.028-5.7,1.877-7.173,6.622-1.631,10.335,1.638,10.36,1.629q2.653-.258,5.306-.537c.064-.579-1-1.327-2.788-1.977.905-.249,1.811-.5,2.716-.752q-1.536-.3-3.061-.617c-.724.208-1.455.42-2.181.629a29.873,29.873,0,0,0-12.911.03c-9.82,2.221,1.061,6.119-3.181,7.2a14.752,14.752,0,0,1-11.727-2.095q-2.643.174-5.27.334a14.57,14.57,0,0,0,4.661,2.506c-1.03.241-2.058.493-3.081.731q1.1.338,2.217.667l2.819-.763A27.616,27.616,0,0,0,268.5,315.676Z" transform="translate(-182.622 -279.782)" fill="#cfdf7d"/>
        <g id="Grupo_87884" data-name="Grupo 87884" transform="translate(37.768 25.418)">
          <path id="Trazado_102088" data-name="Trazado 102088" d="M238.139,348.095l3.22-23.083L299.435,308.9l-35.03-2.834L219.983,317.48l-2.1,23.183Z" transform="translate(-217.043 -305.187)" fill="#cac195"/>
          <path id="Trazado_102089" data-name="Trazado 102089" d="M238,348.865a.78.78,0,0,1-.247-.047L217.5,341.384a.881.881,0,0,1-.557-.915l2.1-23.182a.878.878,0,0,1,.64-.778L264.1,305.1a1.049,1.049,0,0,1,.268-.023l35.032,2.832a.863.863,0,0,1,.773.8.887.887,0,0,1-.625.936L242.005,325.6l-3.138,22.505a.887.887,0,0,1-.4.627A.821.821,0,0,1,238,348.865Zm-19.32-8.919,18.665,6.849,3.071-22.021a.866.866,0,0,1,.622-.728L294.3,309.271l-29.937-2.423-43.706,11.23Z" transform="translate(-216.936 -305.075)" fill="#ae6439"/>
        </g>
        <path id="Trazado_102090" data-name="Trazado 102090" d="M174.477,300.832s22.009,14.114,33.764,16.94c-6.3-3.964-32.47-18.134-32.47-18.134Z" transform="translate(-174.392 -279.045)" fill="#406529"/>
        <path id="Trazado_102091" data-name="Trazado 102091" d="M175.632,309.168l33.978,16.741-33.193-14.659Z" transform="translate(-174.522 -280.117)" fill="#406529"/>
        <path id="Trazado_102092" data-name="Trazado 102092" d="M176.4,316.278l.3,1.86,28.923,13.377Z" transform="translate(-174.608 -280.917)" fill="#406529"/>
        <path id="Trazado_102093" data-name="Trazado 102093" d="M297.175,347.313,247.867,336.4l50.865,9.337Z" transform="translate(-182.648 -283.181)" fill="#406529"/>
        <path id="Trazado_102094" data-name="Trazado 102094" d="M296.556,355.573,252.1,344.606l46,13.284.214-.868Z" transform="translate(-183.125 -284.104)" fill="#406529"/>
        <path id="Trazado_102095" data-name="Trazado 102095" d="M305.124,340.717l46.651-13.583-47.448,15.507Z" transform="translate(-189 -282.139)" fill="#4e7f29"/>
        <path id="Trazado_102096" data-name="Trazado 102096" d="M301.974,359.246l29.718-11.1-30.076,12.839Z" transform="translate(-188.695 -284.503)" fill="#4e7f29"/>
        <path id="Trazado_102097" data-name="Trazado 102097" d="M362.45,337.288l-42.991,17.9,42.386-15.738Z" transform="translate(-190.702 -283.281)" fill="#4e7f29"/>
        <path id="Trazado_102098" data-name="Trazado 102098" d="M366.925,329.824l-28.557,8.722L367.3,330.73Z" transform="translate(-192.829 -282.441)" fill="#4e7f29"/>
      </g>
      <g id="Grupo_87887" data-name="Grupo 87887" transform="translate(201.799 215.444)">
        <path id="Trazado_102099" data-name="Trazado 102099" d="M283.739,323.948s63.31-26.361,76.273-45.8c1.578-8.594,3.811-16.089,3.811-16.089s-60.875,29.334-78.962,34.778c-7.846.539-7.4,12.892-7.4,12.892Z" transform="translate(-224.435 -235.784)" fill="#4e7f29"/>
        <g id="Grupo_87886" data-name="Grupo 87886" transform="translate(53.215 53.717)">
          <path id="Trazado_102100" data-name="Trazado 102100" d="M281.868,320.274c11.966-3.677,23.379-7.317,34.561-13.213.321-.17.542.343.237.52-10.979,6.347-22.2,11.532-34.658,13.518C281.493,321.18,281.382,320.424,281.868,320.274Z" transform="translate(-278.112 -294.56)" fill="#406529"/>
          <path id="Trazado_102101" data-name="Trazado 102101" d="M300.5,301.859c8.364-1.352,16.339-4.753,24.059-8.271a.159.159,0,0,1,.13.289c-14.184,7.086-29.364,12.272-45.16,10.409a9.817,9.817,0,0,1,.673-1.094C286.977,302.775,293.729,302.955,300.5,301.859Z" transform="translate(-277.884 -293.047)" fill="#406529"/>
          <path id="Trazado_102102" data-name="Trazado 102102" d="M277.729,309.5a94.067,94.067,0,0,0,27.413-4.934c8.878-3.1,17.153-7.312,25.57-11.569.147-.074.25.159.106.239-15.986,8.875-34.368,19.308-53.144,16.692C277.691,309.783,277.709,309.645,277.729,309.5Z" transform="translate(-277.675 -292.98)" fill="#406529"/>
        </g>
        <path id="Trazado_102103" data-name="Trazado 102103" d="M278.661,297.268l-.432,8.814-2.62.663-.062,5.815,2.3,3.113-.309,8.71-51.332-29.5.037-8.056-2.52-2.41-.684-8.963,1.632-.357s-2.781-8.567-2.26-9.174C230.634,270.254,278.661,297.268,278.661,297.268Z" transform="translate(-218.235 -236.219)" fill="#7ca043"/>
        <path id="Trazado_102104" data-name="Trazado 102104" d="M222.421,262.156c16.655,12.563,36.667,22.632,56.248,31.347,27.674-3.433,63.138-19.016,78.962-34.778q-22.759-11.527-46.718-26.271C293.733,247.933,257.988,260.631,222.421,262.156Z" transform="translate(-218.244 -232.454)" fill="url(#linear-gradient-33)"/>
        <path id="Trazado_102105" data-name="Trazado 102105" d="M228.622,264.626c14.75,10.835,35.57,18.407,49.582,27.357,32.662-5.636,60.641-18.267,76.471-33.032q-20.34-10.575-41.6-23.721C296.331,249.931,262.2,262.3,228.622,264.626Z" transform="translate(-218.941 -232.766)" fill="url(#linear-gradient-34)"/>
        <path id="Trazado_102106" data-name="Trazado 102106" d="M310.7,241.159c-15.119,10.945-42.876,20.872-68.48,24.372,4.02,3.425,6.476,6.146,3.23,7.415,7.846,5.314,20.26,10.967,27.562,13.534.077-.017.144-.035.222-.052,5.01-.958,12.376.34,17.291,3.125,24.171-5.8,45.071-15.35,59.23-26.442-3.06-2.105-4.027-4.666-2.561-6.529q-11.43-6.315-23.14-13.442C321.214,244.531,315.574,243.719,310.7,241.159Z" transform="translate(-220.471 -233.433)" fill="url(#linear-gradient-35)"/>
        <path id="Trazado_102107" data-name="Trazado 102107" d="M284.377,283.162c-2.386.643-6.3-.252-8.671-1.951-2.383-1.722-2.363-3.562-.011-4.151s6.205.268,8.623,1.93C286.725,280.631,286.773,282.517,284.377,283.162Zm-6.865-4.808c-1.383.348-1.384,1.433.011,2.429a6.991,6.991,0,0,0,5.06,1.139c1.4-.37,1.376-1.465-.029-2.436A7.152,7.152,0,0,0,277.512,278.353Z" transform="translate(-224.038 -237.452)" fill="#487c27"/>
        <path id="Trazado_102108" data-name="Trazado 102108" d="M280.5,302.307l.165,1.863-40.146-19.709Z" transform="translate(-220.28 -238.305)" fill="#4e7f29"/>
        <path id="Trazado_102109" data-name="Trazado 102109" d="M277.385,316.117s-29.5-13.556-38.7-18.573c4.028,3.549,41.369,22.338,41.369,22.338Z" transform="translate(-220.074 -239.777)" fill="#4e7f29"/>
        <path id="Trazado_102110" data-name="Trazado 102110" d="M282.339,324.9l-19.846-7.819,19.834,9.835Z" transform="translate(-222.752 -241.974)" fill="#4e7f29"/>
        <path id="Trazado_102111" data-name="Trazado 102111" d="M223.128,276.66l20.507,13.254L223.394,279.2Z" transform="translate(-218.323 -237.427)" fill="#4e7f29"/>
        <path id="Trazado_102112" data-name="Trazado 102112" d="M260.025,302.741s-36.656-17.383-42.311-18.729c1.378-1.137,5.359-.865,5.359-.865Z" transform="translate(-217.714 -238.154)" fill="#4e7f29"/>
      </g>
      <g id="Grupo_87888" data-name="Grupo 87888" transform="translate(232.488 197.93)">
        <path id="Trazado_102113" data-name="Trazado 102113" d="M384.372,266.837q4.689,14.528,10.32,29.374c1.473-.257,52.567-15.662,52.416-19.729-.047-1.28.494-6.88.812-11.821q-.31-.491-.623-.98s.2-4.691.3-6.407c.231-.018.465-.039.695-.054.239-3.823.4-6.679.4-6.679C429.912,255.528,408.469,260.826,384.372,266.837Z" transform="translate(-267.152 -216.975)" fill="#7ca043"/>
        <path id="Trazado_102114" data-name="Trazado 102114" d="M254.677,236.723q-.351,3.053-.655,6.11-.461.341-.92.692-.2,3.16-.347,6.33c.17.129.343.257.514.389q-.16,2.4-.286,4.808c-.228.113-.457.231-.68.346q.173,2.252.383,4.5c-.222-.181,30.079,10.492,49.517,15.648,19.087,3.914,77.661,18.445,77.631,19.106q-.711-2.248-1.4-4.488c.376-.236.754-.478,1.132-.714q0-2.874.015-5.739c-.675-.344-1.349-.693-2.023-1.037q.294-3.525.588-7.06c.249-.545.493-1.1.737-1.645q-.153-3.528-.295-7.06A678.192,678.192,0,0,0,254.677,236.723Z" transform="translate(-252.294 -215.42)" fill="#4e7f29"/>
        <path id="Trazado_102115" data-name="Trazado 102115" d="M327.588,212.72c-22.127,6.79-46.532,13.809-72.61,21.3,25.409,14.74,71.218,23.264,123.911,30.191,21.02-6.186,39.422-12.058,55.246-17.928C391.849,237.588,352.7,227.1,327.588,212.72Z" transform="translate(-252.595 -212.72)" fill="url(#linear-gradient-36)"/>
        <path id="Trazado_102116" data-name="Trazado 102116" d="M326.6,215.237c-19.632,6.041-41.037,12.278-63.817,18.88,24.727,13.583,66.784,21.931,115.2,28.73,19.419-5.5,36.693-10.72,51.8-15.927C388.989,238.649,351.373,228.735,326.6,215.237Z" transform="translate(-253.473 -213.003)" fill="url(#linear-gradient-37)"/>
        <path id="Trazado_102117" data-name="Trazado 102117" d="M416.616,245.559c-31.836-6.773-60.919-14.682-82.491-24.728-6.176,1.594-14.023,1.721-18.588.344q-14.548,4.758-30.311,9.716c.06.036.148.063.2.1,4.045,2.123,2.112,5.267-4.879,7.511,21.611,9.422,52.225,16.188,87.186,21.846a73.906,73.906,0,0,1,20.395-1.01q15.983-4.371,29.965-8.579C413.062,249.485,412.565,247.323,416.616,245.559Z" transform="translate(-255.472 -213.632)" fill="url(#linear-gradient-38)"/>
        <path id="Trazado_102118" data-name="Trazado 102118" d="M370.605,248.925c-11.339,3.539-31.792,4.623-43.317,1.923-11.416-2.787-8.44-8.41,4.25-12.033,12.755-3.557,29.74-3.84,39.9-1.02C381.5,240.558,381.994,245.37,370.605,248.925Z" transform="translate(-259.929 -215.326)" fill="url(#linear-gradient-39)"/>
        <path id="Trazado_102119" data-name="Trazado 102119" d="M319.645,252.476C304.81,249,309.4,241.517,325.706,236.924c16.429-4.508,37.6-4.742,50.271-1.147,12.561,3.515,13.668,9.623-.531,14.078C361.353,254.392,334.5,255.961,319.645,252.476ZM374.288,236.3c-11.956-3.348-31.911-3.121-47.2,1.093-15.2,4.305-19.239,11.154-5.41,14.494,13.877,3.194,38.75,1.854,52.049-2.384C387.084,245.331,386.122,239.614,374.288,236.3Z" transform="translate(-258.859 -215.034)" fill="url(#linear-gradient-40)"/>
        <path id="Trazado_102120" data-name="Trazado 102120" d="M391.052,256.432c-3.452-.614-3.609-1.95-.5-2.94a27.293,27.293,0,0,1,11.472-.641c3.285.629,3.644,1.911.713,2.889A28.621,28.621,0,0,1,391.052,256.432Zm8.754-2.838a16.16,16.16,0,0,0-6.745.374c-1.8.58-1.676,1.351.31,1.707a16.516,16.516,0,0,0,6.809-.395C401.935,254.708,401.724,253.955,399.806,253.594Z" transform="translate(-267.598 -217.197)" fill="#5e8c32"/>
        <path id="Trazado_102121" data-name="Trazado 102121" d="M310.34,235.153c-2.363-.96-1.15-2.6,2.542-3.6,3.718-.988,8.514-.993,10.832-.054,2.35.943,1.385,2.5-2.249,3.519C317.8,236.027,312.7,236.115,310.34,235.153Zm10.635-2.9a11.936,11.936,0,0,0-6.355.05c-2.167.577-2.836,1.525-1.464,2.087a12.3,12.3,0,0,0,6.442-.08C321.761,233.723,322.33,232.8,320.975,232.251Z" transform="translate(-258.687 -214.754)" fill="#5e8c32"/>
        <path id="Trazado_102122" data-name="Trazado 102122" d="M353.35,248.417c11.268-3.048-4.382-5.289,1.565-6.882,6.56-1.789,10.433,1.274,10.478,1.269q2.62-.3,5.206-.609c.011-.559-1.1-1.262-2.915-1.854.867-.256,1.737-.519,2.6-.777q-1.535-.262-3.054-.533l-2.1.654a29.937,29.937,0,0,0-12.866.433c-9.9,2.507,1.306,5.746-2.969,6.942a16.756,16.756,0,0,1-12.233-1.423q-2.761.309-5.532.627a15.134,15.134,0,0,0,4.9,2.072q-1.627.425-3.262.859c.781.166,1.564.333,2.351.494.993-.288,1.982-.575,2.975-.86A32.831,32.831,0,0,0,353.35,248.417Z" transform="translate(-261.208 -215.68)" fill="#cfdf7d"/>
        <path id="Trazado_102123" data-name="Trazado 102123" d="M253.2,244.225c-.193-.123,52.472,18.614,65.634,20.172-6.928-3.23-64.118-21.654-63.932-21.452C254.34,243.37,253.773,243.8,253.2,244.225Z" transform="translate(-252.395 -216.12)" fill="#406529"/>
        <path id="Trazado_102124" data-name="Trazado 102124" d="M252.812,251.519q17.728,4.762,36.408,10.756-18.307-5.089-35.917-9.017C253.134,252.68,252.974,252.1,252.812,251.519Z" transform="translate(-252.351 -217.085)" fill="#406529"/>
        <path id="Trazado_102125" data-name="Trazado 102125" d="M252.3,257.765c-.007.54-.008,1.077-.009,1.621q15.592,3.748,31.776,8.4Q267.8,262.294,252.3,257.765Z" transform="translate(-252.293 -217.788)" fill="#406529"/>
        <path id="Trazado_102126" data-name="Trazado 102126" d="M386.442,279.1q-27.11-6.186-54.65-10.162,28.374,3.2,56.033,8.657Q387.141,278.352,386.442,279.1Z" transform="translate(-261.237 -219.045)" fill="#406529"/>
        <path id="Trazado_102127" data-name="Trazado 102127" d="M387.056,287.154Q362,280.88,336.731,276.495q26.166,5.454,52.418,13.013c.028-.28.054-.564.079-.845Q388.136,287.9,387.056,287.154Z" transform="translate(-261.792 -219.895)" fill="#406529"/>
        <path id="Trazado_102128" data-name="Trazado 102128" d="M394.169,272.848c15.5-4,29.851-7.732,43.038-11.29-13.256,4.2-27.775,8.549-43.559,13.165C393.822,274.1,394,273.477,394.169,272.848Z" transform="translate(-268.195 -218.214)" fill="#4e7f29"/>
        <path id="Trazado_102129" data-name="Trazado 102129" d="M393.882,290.946q15.291-4.864,28.991-9.46-13.675,5.479-29.083,11.166C393.821,292.085,393.851,291.513,393.882,290.946Z" transform="translate(-268.211 -220.456)" fill="#4e7f29"/>
        <path id="Trazado_102130" data-name="Trazado 102130" d="M450.291,272.921c-11.575,4.923-24.321,9.9-38.234,15.029,13.856-4.418,26.632-8.662,38.34-12.825C450.362,274.39,450.328,273.652,450.291,272.921Z" transform="translate(-270.266 -219.493)" fill="#4e7f29"/>
        <path id="Trazado_102131" data-name="Trazado 102131" d="M452.133,265.347q-11.72,3.328-24.773,6.831,13.348-3.043,25.4-5.851Q452.446,265.836,452.133,265.347Z" transform="translate(-271.988 -218.641)" fill="#4e7f29"/>
      </g>
      <g id="Grupo_87890" data-name="Grupo 87890" transform="translate(236.962 172.775)">
        <path id="Trazado_102132" data-name="Trazado 102132" d="M375.77,232.192q4.592,12.853,9.643,25.639c.759-.832,50.5-18.731,51.212-21.5.022-1.064.8-5.775,1.325-9.877-.2-.265-.4-.537-.6-.8,0,0,.387-3.9.563-5.316.241-.026.484-.043.724-.072.391-3.16.666-5.505.666-5.505A636.1,636.1,0,0,0,375.77,232.192Z" transform="translate(-270.658 -187.796)" fill="#7ca043"/>
        <path id="Trazado_102133" data-name="Trazado 102133" d="M257.924,212.067q.053,3.219.123,6.433c-.237.266-.475.524-.714.778q.169,3.321.359,6.638c.162.125.321.251.482.373.063,1.676.141,3.354.221,5.019-.186.135-.361.272-.543.41.235,1.55.486,3.094.733,4.642-.193-.05,26.337,8.454,43.505,11.4,16.45,2.162,69.734,9.258,70,9.77-.42-1.3-.84-2.6-1.255-3.9.353-.254.711-.5,1.06-.755q.027-2.591.05-5.176c-.627-.248-1.259-.493-1.886-.738-.1-2.507-.2-5.023-.305-7.53q.781-.226,1.551-.441-.141-3.159-.3-6.333A946.5,946.5,0,0,0,257.924,212.067Z" transform="translate(-257.334 -187.492)" fill="#4e7f29"/>
        <g id="Grupo_87889" data-name="Grupo 87889" transform="translate(41.525 14.535)">
          <path id="Trazado_102134" data-name="Trazado 102134" d="M382.017,205.7l-51.233,22.129,1.867,23.2-26.876-5.261-.782-19.171,58.4-24.933Z" transform="translate(-304.221 -200.857)" fill="#e7dcad"/>
          <path id="Trazado_102135" data-name="Trazado 102135" d="M330.82,231.3l1.83,22.685-26.875-5.261-.782-19.171,3.781-1.609C316.159,228.907,323.529,229.959,330.82,231.3Z" transform="translate(-304.221 -203.813)" fill="#cac195"/>
          <path id="Trazado_102136" data-name="Trazado 102136" d="M332.566,251.734a.747.747,0,0,0,.506-.208.817.817,0,0,0,.253-.667L331.5,228.248l50.708-21.9a.822.822,0,0,0,.477-.821.79.79,0,0,0-.613-.72l-18.613-4.038a.822.822,0,0,0-.446.043L304.6,225.748a.813.813,0,0,0-.479.784l.78,19.169a.794.794,0,0,0,.631.764l26.877,5.258A.761.761,0,0,0,332.566,251.734Zm46.726-45.878-48.9,21.122a.815.815,0,0,0-.477.813l1.789,22.149-25.276-4.951-.731-17.955,57.688-24.625Z" transform="translate(-304.123 -200.755)" fill="#ae6439"/>
        </g>
        <path id="Trazado_102137" data-name="Trazado 102137" d="M257.924,212.067q.053,3.219.123,6.433c-.237.266-.475.524-.714.778q.169,3.321.359,6.638c.162.125.321.251.482.373.063,1.676.141,3.354.221,5.019-.186.135-.361.272-.543.41.235,1.55.486,3.094.733,4.642-.182-.043,23.3,7.476,40.373,10.819,18.562-1.215,36.005-8.573,52.024-19.166A934.863,934.863,0,0,0,257.924,212.067Z" transform="translate(-257.334 -187.492)" fill="#4e7f29" opacity="0.3" style="mix-blend-mode: multiply;isolation: isolate"/>
        <path id="Trazado_102138" data-name="Trazado 102138" d="M320.7,184.377c-20.017,7.265-41.1,15.487-62.7,24.575,23.652,14.448,63.242,18.571,113.079,20.585,19.841-7.2,38.222-13.2,54.974-18.19C382.251,204.743,345.388,197.69,320.7,184.377Z" transform="translate(-257.409 -184.377)" fill="url(#linear-gradient-41)"/>
        <path id="Trazado_102139" data-name="Trazado 102139" d="M319.9,186.892c-17.688,6.531-36.209,13.824-55.195,21.812,22.968,13.066,59.642,17.436,105.424,19.772,18.3-6.454,35.432-11.9,51.228-16.486C379.458,205.915,344.106,199.273,319.9,186.892Z" transform="translate(-258.164 -184.66)" fill="url(#linear-gradient-42)"/>
        <path id="Trazado_102140" data-name="Trazado 102140" d="M407.691,211.269c-32.055-4.792-59.628-10.324-80.447-19.194-5.63,1.777-12.794,2.264-17.08,1.085q-12.827,5.3-26.219,11.145c.055.032.137.057.189.093,3.795,1.964,2.362,5.22-3.53,7.918,19.8,8.4,47.037,12.4,79.775,14.843a69.845,69.845,0,0,1,19.267-2.41q15.289-5,29.455-9.1C404.067,214.756,403.583,212.9,407.691,211.269Z" transform="translate(-259.952 -185.243)" fill="url(#linear-gradient-43)"/>
        <path id="Trazado_102141" data-name="Trazado 102141" d="M362.566,216.737c-10.633,3.955-29.264,6.584-39.717,4.832-10.364-1.845-8.178-7.659,3.092-11.915,11.332-4.217,27.233-5.288,37.038-3.188C372.712,208.529,373.233,212.77,362.566,216.737Z" transform="translate(-263.952 -186.745)" fill="url(#linear-gradient-44)"/>
        <path id="Trazado_102142" data-name="Trazado 102142" d="M316.133,223.644c-13.357-2.248-9.984-10.134,4.422-15.541,14.52-5.355,34.447-6.484,46.775-3.767,12.247,2.682,13.322,7.948-.1,12.863C353.876,222.171,329.49,225.891,316.133,223.644ZM365.727,204.9c-11.608-2.52-30.355-1.423-43.891,3.59-13.444,5.054-16.41,12.237-3.93,14.433,12.513,2.039,35.121-1.265,47.684-5.935C378.181,212.36,377.243,207.4,365.727,204.9Z" transform="translate(-263.003 -186.462)" fill="url(#linear-gradient-45)"/>
        <path id="Trazado_102143" data-name="Trazado 102143" d="M381.9,222.524c-3.289-.327-3.478-1.529-.526-2.626a27.884,27.884,0,0,1,11.015-1.25c3.191.387,3.536,1.5.713,2.536A30.5,30.5,0,0,1,381.9,222.524Zm8.345-3.084a16.625,16.625,0,0,0-6.477.738c-1.7.627-1.575,1.319.328,1.515a17.392,17.392,0,0,0,6.521-.767C392.305,220.307,392.1,219.652,390.24,219.44Z" transform="translate(-271.053 -188.219)" fill="#5e8c32"/>
        <path id="Trazado_102144" data-name="Trazado 102144" d="M306.471,207.491c-2.193-.811-1.265-2.525,1.977-3.7s7.6-1.419,9.79-.627c2.216.8,1.443,2.365-1.765,3.57C313.225,207.922,308.666,208.3,306.471,207.491Zm9.339-3.445a9.956,9.956,0,0,0-5.733.391c-1.908.676-2.424,1.659-1.142,2.138a10.231,10.231,0,0,0,5.8-.437C316.637,205.443,317.086,204.509,315.81,204.046Z" transform="translate(-262.728 -186.438)" fill="#5e8c32"/>
        <path id="Trazado_102145" data-name="Trazado 102145" d="M380.485,242.273l-41.531-.985,40,3.438Z" transform="translate(-266.516 -190.779)" fill="#406529"/>
        <path id="Trazado_102146" data-name="Trazado 102146" d="M379.942,249.125l-.024,1.742-34.935-4.041Z" transform="translate(-267.194 -191.402)" fill="#406529"/>
        <path id="Trazado_102147" data-name="Trazado 102147" d="M382.584,258.395l-24.274-3.4,24.807,4.758Z" transform="translate(-268.694 -192.321)" fill="#406529"/>
        <path id="Trazado_102148" data-name="Trazado 102148" d="M442.02,227.7l-30.074,9.5,29.477-11.393Z" transform="translate(-274.728 -189.038)" fill="#4e7f29"/>
        <path id="Trazado_102149" data-name="Trazado 102149" d="M443.306,221.049l-.21,1.512-19.37,6.244Z" transform="translate(-276.053 -188.503)" fill="#4e7f29"/>
        <path id="Trazado_102150" data-name="Trazado 102150" d="M385.743,241.579l24.625-6.46-24.678,4.568Z" transform="translate(-271.774 -190.085)" fill="#4e7f29"/>
        <path id="Trazado_102151" data-name="Trazado 102151" d="M386.42,251.706l41.749-13.5-41.723,15.579Z" transform="translate(-271.856 -190.433)" fill="#4e7f29"/>
        <path id="Trazado_102152" data-name="Trazado 102152" d="M258.013,215.595l26.379,11.282-26.28-8.783Z" transform="translate(-257.41 -187.889)" fill="#406529"/>
      </g>
      <g id="Grupo_87892" data-name="Grupo 87892" transform="translate(223.703 152.704)">
        <path id="Trazado_102153" data-name="Trazado 102153" d="M306.85,213.436q-3.814,13.15-8.106,26.262c-.808-.775-51.514-15.048-52.4-17.754-.086-1.066-1.141-5.706-1.909-9.762.183-.273.369-.554.554-.833,0,0-.623-3.861-.88-5.264-.24-.009-.484-.012-.725-.012-.583-3.127-.993-5.447-.993-5.447A631.828,631.828,0,0,1,306.85,213.436Z" transform="translate(-242.394 -166.134)" fill="#4e7f29"/>
        <path id="Trazado_102154" data-name="Trazado 102154" d="M417.114,184.29q.136,3.208.257,6.433c.249.244.509.481.756.722q.029,3.32.031,6.65l-.455.406c.033,1.668.055,3.34.083,5.019.18.125.375.239.563.361-.146,1.565-.3,3.131-.463,4.688.193-.061-25.788,10.329-42.753,14.506-16.292,3.335-69.069,14.259-69.3,14.785.347-1.329.688-2.653,1.022-3.979l-1.1-.684c-.123-1.716-.238-3.439-.355-5.154.614-.293,1.23-.583,1.84-.874-.05-2.506-.1-5.028-.143-7.534-.528-.1-1.053-.218-1.574-.321q-.039-3.17-.075-6.336A955,955,0,0,1,417.114,184.29Z" transform="translate(-249.481 -164.296)" fill="#7ca043"/>
        <path id="Trazado_102155" data-name="Trazado 102155" d="M345.98,161.762c20.409,5.808,41.951,12.484,64.047,19.994-22.761,16.12-62.035,23.079-111.673,28.688-20.234-5.763-38.944-10.412-55.96-14.189C285.73,186.509,322.114,176.824,345.98,161.762Z" transform="translate(-242.394 -161.762)" fill="url(#linear-gradient-46)"/>
        <path id="Trazado_102156" data-name="Trazado 102156" d="M348.344,164.146c18.045,5.237,36.969,11.18,56.394,17.785-22.153,14.681-58.512,21.685-104.08,27.309-18.654-5.118-36.071-9.309-52.118-12.744C290.017,187.415,324.919,178.245,348.344,164.146Z" transform="translate(-243.086 -162.03)" fill="url(#linear-gradient-47)"/>
        <path id="Trazado_102157" data-name="Trazado 102157" d="M265.7,194.688c31.719-7.086,58.919-14.593,79.185-24.942,5.716,1.378,12.9,1.335,17.112-.144q13.115,4.363,26.832,9.23c-.056.036-.138.065-.182.1-3.668,2.23-2.047,5.385,3.992,7.637-19.267,9.811-46.221,15.774-78.759,20.556a70.285,70.285,0,0,0-19.381-1.014q-15.55-3.886-29.946-6.953C269.524,197.907,269.9,196.018,265.7,194.688Z" transform="translate(-244.886 -162.644)" fill="url(#linear-gradient-48)"/>
        <path id="Trazado_102158" data-name="Trazado 102158" d="M320.33,196.777c10.853,3.175,29.6,4.469,39.931,1.968,10.244-2.59,7.719-8.233-3.789-11.663-11.553-3.391-27.492-3.312-37.16-.513C309.715,189.327,309.448,193.593,320.33,196.777Z" transform="translate(-250.24 -164.32)" fill="url(#linear-gradient-49)"/>
        <path id="Trazado_102159" data-name="Trazado 102159" d="M365.223,200.4c13.2-3.2,9.366-10.824-5.334-15.182-14.814-4.295-34.776-3.985-46.919-.388-12.073,3.555-12.833,8.883.856,12.83C327.454,201.647,352.018,203.607,365.223,200.4ZM314.6,185.274c11.435-3.355,30.218-3.6,44.032.42,13.718,4.077,17.109,11.025,4.777,14.121-12.374,2.93-35.138,1.267-47.953-2.488C302.6,193.619,303.253,188.6,314.6,185.274Z" transform="translate(-249.295 -164.046)" fill="url(#linear-gradient-50)"/>
        <path id="Trazado_102160" data-name="Trazado 102160" d="M306.228,203.738c3.262-.561,3.377-1.776.369-2.656a27.717,27.717,0,0,0-11.072-.45c-3.162.61-3.447,1.747-.564,2.577A30.373,30.373,0,0,0,306.228,203.738Zm-8.519-2.473a16.608,16.608,0,0,1,6.507.261c1.741.511,1.653,1.207-.233,1.538a17.234,17.234,0,0,1-6.56-.293C295.7,202.283,295.868,201.612,297.709,201.265Z" transform="translate(-248.083 -166.095)" fill="#5e8c32"/>
        <path id="Trazado_102161" data-name="Trazado 102161" d="M380.824,183.307c2.142-.971,1.109-2.612-2.2-3.559-3.322-.938-7.675-.862-9.811.09-2.158.958-1.3,2.457,1.975,3.42C374.107,184.219,378.681,184.277,380.824,183.307Zm-9.533-2.765a9.985,9.985,0,0,1,5.751-.028c1.94.546,2.521,1.488,1.269,2.047a10.089,10.089,0,0,1-5.818-.012C370.557,181.994,370.047,181.095,371.292,180.542Z" transform="translate(-256.483 -163.711)" fill="#5e8c32"/>
        <g id="Grupo_87891" data-name="Grupo 87891" transform="translate(47.849 15.737)">
          <path id="Trazado_102162" data-name="Trazado 102162" d="M297.181,185.765l52.459,18.384-.493,23.277,26.519-7.181-.353-19.171L315.523,180.4Z" transform="translate(-296.407 -179.597)" fill="#e7dcad"/>
          <path id="Trazado_102163" data-name="Trazado 102163" d="M356.215,207.119l-.482,22.759,26.519-7.181-.352-19.172-3.872-1.34C370.716,203.669,363.417,205.259,356.215,207.119Z" transform="translate(-302.994 -182.047)" fill="#cac195"/>
          <path id="Trazado_102164" data-name="Trazado 102164" d="M349.083,228.137a.805.805,0,0,1-.519-.176.832.832,0,0,1-.29-.654l.482-22.684-51.918-18.187a.811.811,0,0,1-.529-.788.823.823,0,0,1,.572-.764l18.34-5.361a.8.8,0,0,1,.45.007l59.79,20.67a.8.8,0,0,1,.53.745l.354,19.175a.826.826,0,0,1-.588.809l-26.519,7.176A1.21,1.21,0,0,1,349.083,228.137Zm-49.361-42.4,50.069,17.545a.788.788,0,0,1,.522.778l-.465,22.217,24.932-6.758-.328-17.959L315.4,181.144Z" transform="translate(-296.309 -179.494)" fill="#ae6439"/>
        </g>
        <path id="Trazado_102165" data-name="Trazado 102165" d="M305.531,223.249l41.407-3.98-39.722,6.307Z" transform="translate(-249.497 -168.231)" fill="#4e7f29"/>
        <path id="Trazado_102166" data-name="Trazado 102166" d="M307.332,230.045l.119,1.731,34.639-6.545Z" transform="translate(-249.699 -168.902)" fill="#4e7f29"/>
        <path id="Trazado_102167" data-name="Trazado 102167" d="M306.538,239.476l24.032-5.146-24.485,6.529Z" transform="translate(-249.559 -169.926)" fill="#4e7f29"/>
        <path id="Trazado_102168" data-name="Trazado 102168" d="M244.7,213.4l30.582,7.315-30.1-9.236Z" transform="translate(-242.653 -167.356)" fill="#406529"/>
        <path id="Trazado_102169" data-name="Trazado 102169" d="M244.33,206.777l.3,1.5,19.709,4.828Z" transform="translate(-242.612 -166.826)" fill="#406529"/>
        <path id="Trazado_102170" data-name="Trazado 102170" d="M302.367,223.162l-24.962-4.671,24.9,2.778Z" transform="translate(-246.333 -168.144)" fill="#406529"/>
        <path id="Trazado_102171" data-name="Trazado 102171" d="M300.133,233.459,257.649,223l42.58,12.534Z" transform="translate(-244.11 -168.651)" fill="#406529"/>
        <path id="Trazado_102172" data-name="Trazado 102172" d="M428.211,187.816l-25.664,13.153,25.713-10.656Z" transform="translate(-260.411 -164.693)" fill="#4e7f29"/>
      </g>
      <g id="Grupo_87895" data-name="Grupo 87895" transform="translate(262.906 234.534)">
        <path id="Trazado_102173" data-name="Trazado 102173" d="M286.567,369.093l2.121,6.635,1.067.521.777,3.026-.619.994.673,2.4,1.9.787,2.129,7.32,89.581-.5,4.033-7.266-.995-1.089,1.287-4.62,1.322-.1.643-2.368-.8-2.149.958-3.255Z" transform="translate(-286.567 -266.916)" fill="url(#linear-gradient-51)"/>
        <path id="Trazado_102174" data-name="Trazado 102174" d="M371.754,255.179q-27.185-.6-54.349-1.215c-3.088,34.494-18.331,68.428-30.838,102.177a484.692,484.692,0,0,0,104.08.33C383.9,322.488,372.189,289.089,371.754,255.179Z" transform="translate(-286.567 -253.964)" fill="url(#linear-gradient-52)"/>
        <path id="Trazado_102175" data-name="Trazado 102175" d="M369.354,257.889q-24.138-.359-48.263-.714c-3.353,32.6-15.622,64.827-27.3,97.215a501.441,501.441,0,0,0,91.79.847C379.29,322.364,370.079,290.312,369.354,257.889Z" transform="translate(-287.379 -254.325)" fill="url(#linear-gradient-53)"/>
        <path id="Trazado_102176" data-name="Trazado 102176" d="M380.335,345.165c-4.8-26.008-10.4-51.469-11.96-77.041-5.311-.631-9.711-4.1-10.8-8.329q-12.7.138-25.435.275c0,.082,0,.158,0,.239-.32,5.132-5.118,8.992-10.964,9.1-3.83,25.131-12.054,50.107-20.667,75.264,7.268,1.408,12.176,4.855,12.373,9.024,16.989,1.274,33.829,1.7,50.824,1.295C364.685,350.357,371.435,346.391,380.335,345.165Z" transform="translate(-288.135 -254.62)" fill="url(#linear-gradient-54)"/>
        <path id="Trazado_102177" data-name="Trazado 102177" d="M344.7,327.681c-15.379.111-26.149-8.289-23.721-17.968,2.44-9.718,13.407-17.112,24.937-16.627,11.523.513,22.14,8.216,23.787,17.335C371.311,319.508,360.051,327.57,344.7,327.681Z" transform="translate(-290.4 -258.363)" fill="#4e7f29"/>
        <path id="Trazado_102178" data-name="Trazado 102178" d="M341.386,331.922c-11.668-.393-21.668-4.754-26.094-11.371a13.548,13.548,0,0,1-1.8-11.886c3.8-12.24,17.525-21.462,31.244-21l.466.02c14.206.753,27.49,10.373,30.255,21.908a12.791,12.791,0,0,1-2.47,10.736c-5.148,6.972-16.381,11.423-29.317,11.616C342.9,331.956,342.138,331.948,341.386,331.922Zm3.3-42.745c-13.111-.446-26.214,8.315-29.828,19.951a12.032,12.032,0,0,0,1.613,10.552c4.176,6.24,13.742,10.356,24.969,10.738.73.024,1.473.033,2.222.026,12.5-.185,23.308-4.414,28.192-11.031a11.275,11.275,0,0,0,2.208-9.449c-2.575-10.746-15.553-20.065-28.933-20.771Z" transform="translate(-289.524 -257.754)" fill="url(#linear-gradient-55)"/>
        <path id="Trazado_102179" data-name="Trazado 102179" d="M344.372,353.374c-2.682-.094-4.972-.978-6.129-2.374a3.347,3.347,0,0,1-.8-2.508c.286-2.692,3.747-4.781,8.058-4.864,4.392-.075,7.679,1.967,7.709,4.67.03,2.741-3.5,4.971-8.035,5.081C344.9,353.384,344.633,353.384,344.372,353.374Zm1.723-7.634c-.188-.006-.378-.009-.572,0-3.407.063-5.941,1.621-6.084,2.983a1.194,1.194,0,0,0,.324.9c.859,1.035,2.992,1.712,5.368,1.657,3.432-.083,6.074-1.648,6.061-2.941C351.181,347.163,349.13,345.84,346.095,345.74Z" transform="translate(-292.288 -264.051)" fill="#57872c"/>
        <path id="Trazado_102180" data-name="Trazado 102180" d="M349.166,281.665l-.186-.012c-3.049-.187-5.409-2.476-5.264-5.1a4.927,4.927,0,0,1,5.356-4.376l.27.013c2.958.225,5.27,2.438,5.26,5.036a4.1,4.1,0,0,1-1.22,2.891A5.648,5.648,0,0,1,349.166,281.665ZM349,274.283c-1.756-.06-3.2.99-3.277,2.385-.078,1.442,1.47,2.765,3.381,2.883l.132,0a3.727,3.727,0,0,0,2.752-.955,1.974,1.974,0,0,0,.605-1.376c0-1.453-1.556-2.794-3.4-2.934Z" transform="translate(-292.996 -256.012)" fill="#57872c"/>
        <g id="Grupo_87893" data-name="Grupo 87893" transform="translate(14.807 42.445)">
          <path id="Trazado_102181" data-name="Trazado 102181" d="M309.338,302.64l-5,16.664,80.414,2.785L380.282,303Z" transform="translate(-303.374 -301.885)" fill="url(#linear-gradient-56)"/>
          <path id="Trazado_102182" data-name="Trazado 102182" d="M385.554,322.78l-82.3-2.852,5.44-18.14,72.03.359Zm-80.365-4.291,78.519,2.722-4.114-17.562-69.853-.35Z" transform="translate(-303.251 -301.789)" fill="url(#linear-gradient-57)"/>
        </g>
        <g id="Grupo_87894" data-name="Grupo 87894" transform="translate(2.269 108.883)">
          <path id="Trazado_102183" data-name="Trazado 102183" d="M293.123,385.225l.1.046.98,3.365,75.879-2.465Z" transform="translate(-289.574 -377.614)" fill="#406529"/>
          <path id="Trazado_102184" data-name="Trazado 102184" d="M289.124,376.649l.919.45.691,2.692,76.882-1.653S308.129,377.457,289.124,376.649Z" transform="translate(-289.124 -376.649)" fill="#406529"/>
        </g>
        <path id="Trazado_102185" data-name="Trazado 102185" d="M344.713,381.4s23.205,1.3,47.022,1.992a19.88,19.88,0,0,0-.536-3.152Z" transform="translate(-293.108 -268.17)" fill="#a8c35b"/>
        <path id="Trazado_102186" data-name="Trazado 102186" d="M359.941,389.335s31.223,1.575,35.524,2.154a10.849,10.849,0,0,0-1.018-3.157Z" transform="translate(-294.822 -269.08)" fill="#a8c35b"/>
      </g>
    </g>
  </g>
</svg>
