<svg xmlns="http://www.w3.org/2000/svg" width="375.575" height="375.576" viewBox="0 0 375.575 375.576">
  <g id="Grupo_88436" data-name="Grupo 88436" transform="translate(-302.3 -3719.999)">
    <rect id="Rectángulo_34780" data-name="Rectángulo 34780" width="265.572" height="265.572" rx="28" transform="translate(302.3 3907.787) rotate(-45)" fill="#636363" opacity="0.5"/>
    <g id="Grupo_88236" data-name="Grupo 88236" transform="translate(-668.246 2459.862)">
      <g id="Grupo_88204" data-name="Grupo 88204" transform="translate(1145.077 1356.378)">
        <path id="Trazado_102860" data-name="Trazado 102860" d="M1251.982,1423.619l1.925-7.656-3.881-1.909a24.9,24.9,0,0,0-.211-3.39l3.814-2.025-2.161-7.589-4.773.316a24.655,24.655,0,0,0-1.637-2.507l2.509-4.013-5.667-5.492-4.238,2.837a25.264,25.264,0,0,0-2.418-1.264l.176-5-7.652-1.925-2.288,4.649a25.151,25.151,0,0,0-2.679.068l-2.358-4.439-7.59,2.16.334,5.018a24.677,24.677,0,0,0-2.448,1.441l-4.093-2.555-5.491,5.665,2.6,3.889a25.237,25.237,0,0,0-1.592,2.747l-4.434-.155-1.924,7.653,3.778,1.859a24.887,24.887,0,0,0-.011,3.611l-3.487,1.853,2.16,7.59,3.748-.249a25.317,25.317,0,0,0,2.015,3.475l-1.861,2.978,5.665,5.492,2.856-1.912a25.292,25.292,0,0,0,3.741,2.08l-.116,3.252,7.655,1.928,1.469-2.987a25,25,0,0,0,4.338-.146l1.514,2.854,7.59-2.159-.231-3.474a24.957,24.957,0,0,0,3.514-2.257l2.923,1.827,5.492-5.666-2.142-3.2a25.408,25.408,0,0,0,1.715-3.413Zm-24.248.686a10.82,10.82,0,1,1,7.446-13.368A10.819,10.819,0,0,1,1227.734,1424.305Z" transform="translate(-1195.808 -1384.006)" fill="#c5e1f9"/>
        <path id="Trazado_102861" data-name="Trazado 102861" d="M1226.657,1404.77a16.727,16.727,0,1,0,20.668,11.508A16.73,16.73,0,0,0,1226.657,1404.77Zm8.21,28.838a13.256,13.256,0,1,1,9.119-16.378A13.252,13.252,0,0,1,1234.866,1433.607Z" transform="translate(-1202.273 -1390.964)" fill="#eaf4fe"/>
      </g>
      <g id="Grupo_88205" data-name="Grupo 88205" transform="translate(1070.498 1394.032)">
        <path id="Trazado_102862" data-name="Trazado 102862" d="M1184.561,1496.374l-.816-13.94-7.562-1.164a44.842,44.842,0,0,0-2.154-5.606l5.356-5.443-7.673-11.661-7.886,3.07a44.3,44.3,0,0,0-4.095-3.362l2.1-8.1-12.479-6.261-5.646,7.039a45.386,45.386,0,0,0-4.75-.85l-2.358-8.522-13.934.816-1.391,9.056a44.948,44.948,0,0,0-4.484,1.539l-6.339-6.237-11.66,7.675,3.226,8.288a44.206,44.206,0,0,0-3.364,3.734l-8.26-2.143-6.259,12.477,6.457,5.18a44.712,44.712,0,0,0-1.228,5.482l-7.565,2.09.814,13.938,7.363,1.13a44.33,44.33,0,0,0,1.9,6.1l-4.9,4.978,7.677,11.662,6.194-2.409a44.272,44.272,0,0,0,5.242,4.793l-1.559,6.013,12.475,6.26,3.807-4.741a44.8,44.8,0,0,0,7.415,1.525l1.535,5.548,13.937-.81.894-5.819a44.338,44.338,0,0,0,7.245-2.547l4.071,4.01,11.661-7.673-2.235-5.741a44.278,44.278,0,0,0,4.73-5.673l5.9,1.531,6.26-12.477-5.316-4.265a44.651,44.651,0,0,0,1.083-6.67Zm-40.553,14.032a19.142,19.142,0,1,1,5.466-26.511A19.139,19.139,0,0,1,1144.008,1510.405Z" transform="translate(-1081.8 -1441.568)" fill="#60c1dd"/>
        <path id="Trazado_102863" data-name="Trazado 102863" d="M1128.89,1481.995a29.592,29.592,0,1,0,40.986,8.448A29.594,29.594,0,0,0,1128.89,1481.995Zm29.164,44.306a23.452,23.452,0,1,1,6.694-32.479A23.447,23.447,0,0,1,1158.054,1526.3Z" transform="translate(-1093.477 -1453.862)" fill="#2a75a9"/>
      </g>
      <g id="Grupo_88208" data-name="Grupo 88208" transform="translate(1121.268 1443.747)">
        <path id="Trazado_102864" data-name="Trazado 102864" d="M1159.44,1575.818c-.009-.018-.021-.039-.029-.056l.029-1.73h71.619v1.73s.011.038,0,.056l-.182.322c-.92,1.5-2.571,1.769-4.463,1.769h-62.327c-1.892,0-3.54-.27-4.463-1.769Z" transform="translate(-1159.411 -1537.095)" fill="#d0dee6"/>
        <path id="Trazado_102865" data-name="Trazado 102865" d="M1177.059,1576.468a.062.062,0,0,1,0,.048l-.178.262a2.915,2.915,0,0,1-1.047.88h-10.89c-1.82,0-3.407-.217-4.293-1.429l-.172-.264a.3.3,0,0,1-.032-.044l.018-.851h16.593Z" transform="translate(-1159.769 -1537.454)" fill="#b6c2c9"/>
        <g id="Grupo_88206" data-name="Grupo 88206" transform="translate(26.957 37.337)">
          <rect id="Rectángulo_34773" data-name="Rectángulo 34773" width="35.786" height="1.223" fill="#b6c2c9"/>
        </g>
        <g id="Grupo_88207" data-name="Grupo 88207" transform="translate(17.687)">
          <path id="Trazado_102866" data-name="Trazado 102866" d="M1186.449,1554.442l9.285-35.192a2.338,2.338,0,0,1,2.124-1.683h50.247a1.252,1.252,0,0,1,1.236,1.683l-9.285,35.192Z" transform="translate(-1186.449 -1517.567)" fill="#212957"/>
          <path id="Trazado_102867" data-name="Trazado 102867" d="M1239.962,1552.562l7.625-28.9h-46.38l-7.625,28.9Z" transform="translate(-1188.916 -1519.675)" fill="#9ac7f7"/>
        </g>
      </g>
      <g id="Grupo_88211" data-name="Grupo 88211" transform="translate(1154.98 1326.991)">
        <g id="Grupo_88209" data-name="Grupo 88209" transform="translate(109.745 40.353)">
          <path id="Trazado_102868" data-name="Trazado 102868" d="M1390.337,1543.549l5.4-3.646.613-.762-.9-1.193-1.233.262-.1-3.713-6.029-.542-3.167-1.168,3.673,9.779" transform="translate(-1380.86 -1446.427)" fill="#f7b68b"/>
          <path id="Trazado_102869" data-name="Trazado 102869" d="M1403.4,1491.236l-18.364,26.727s1.053,3.575,2.532,1.5c.179-.245-.875-.9.313-1.687,4.805-3.184,16.271-8.434,20.292-13.044a73.336,73.336,0,0,0,8.816-12.965Z" transform="translate(-1380.9 -1432.057)" fill="#f7b68b"/>
          <rect id="Rectángulo_34774" data-name="Rectángulo 34774" width="8.128" height="7.372" transform="matrix(0.616, -0.787, 0.787, 0.616, 7.886, 79.235)" fill="#e7f5fe"/>
          <path id="Trazado_102870" data-name="Trazado 102870" d="M1383.649,1425.911l17.215,26.828-12.915,24.678s6.375,7.072,8.434,5.847c14.225-8.475,23.117-31.878,23.117-31.878l-27.316-40.034-8.033-10.542C1374.005,1399.542,1380.6,1428.8,1383.649,1425.911Z" transform="translate(-1378.713 -1400.77)" fill="#163f59"/>
        </g>
        <path id="Trazado_102871" data-name="Trazado 102871" d="M1257.945,1426.289s-9.408-5.728-21.1-19.678c-3.947-4.711-2.01.4-1.343,6.313s12.135,14.64,22.94,20.9C1267.986,1439.343,1257.945,1426.289,1257.945,1426.289Z" transform="translate(-1219.071 -1361.799)" fill="#f7b68b"/>
        <path id="Trazado_102872" data-name="Trazado 102872" d="M1229.665,1404.431s1.871-6.335.9-7.917-4.869-7.11-4.869-7.11l-1.117-1.318s-2.029.525.635,4.209.451,2.651.451,2.651l-3.6-2.35-4.608-2.519-1.914-1.4s-1.03-.876-1.44-.862c-1.189.046-.716,1.005-.716,1.005l7.011,6.109-7.889-3.742s-1.084-.3-1.427.215c-.321.491,0,.665,0,.665l8,6.494-4.272-1.44s-1.071-.261-1.424.222c-.389.532-.506.663-.506.663l15.744,7.985Z" transform="translate(-1210.946 -1355.938)" fill="#f7b68b"/>
        <rect id="Rectángulo_34775" data-name="Rectángulo 34775" width="8.128" height="6.545" transform="translate(14.557 51.646) rotate(-36.57)" fill="#e7f5fe"/>
        <path id="Trazado_102873" data-name="Trazado 102873" d="M1304.875,1410.411s1.037,4.971-17.028,25.044c-10.1,11.217-15.516,15.878-21.948,14.129-11.016-3-33.138-29.029-33.138-29.029l9.481-11.287s22.651,19.733,25.163,20.737c1.58.632,11.41-12.611,21.143-26.109C1288.548,1403.9,1303.657,1409.049,1304.875,1410.411Z" transform="translate(-1218.491 -1361.498)" fill="#163f59"/>
        <g id="Grupo_88210" data-name="Grupo 88210" transform="translate(84.089 0)">
          <path id="Trazado_102874" data-name="Trazado 102874" d="M1360.591,1367.934c-.511,1.72.026,3.393,1.2,3.74h0c1.17.35,2.53-.765,3.04-2.487l.643-2.164c.508-1.719-.028-3.394-1.2-3.742h0c-1.168-.343-2.53.767-3.04,2.488Z" transform="translate(-1346.722 -1347.43)" fill="#f7b68b"/>
          <path id="Trazado_102875" data-name="Trazado 102875" d="M1342.661,1379.982c.125,3.145,1.686,5.93,3.451,6.142q2.52.107,5.037.222c1.779-.054,3.578-2.694,3.978-5.812q.961-7.716,1.923-15.432c.413-3.084-.523-9.352-3.125-11.308a6.691,6.691,0,0,0-7.712-.339c-2.76,1.717-4.249,7.881-4.107,10.987Q1342.386,1372.215,1342.661,1379.982Z" transform="translate(-1340.393 -1343.686)" fill="#ec9568"/>
          <path id="Trazado_102876" data-name="Trazado 102876" d="M1339.493,1369.725c.677,2.955,1.85,3.706,3.967,4.12,2.021.29,2.507.516,4.528.806,2.141.2,4.459-2.551,5.075-5.132.989-4.259,3.481-7.678,4.47-11.934.627-2.551-.371-4.9-3.421-6.906-2.791-1.8-6.042-5.353-9.144-4.41-3.4,1.076-5.452,6.076-5.414,8.725C1339.554,1359.392,1339.489,1365.325,1339.493,1369.725Z" transform="translate(-1339.493 -1341.513)" fill="#f7b68b"/>
          <path id="Trazado_102877" data-name="Trazado 102877" d="M1359.306,1351.868l-1.714,3.285s-3.152-3.89-5.359-7.06c-.7-1-8.271-1.418-10.168-1.166-1.377.185-1.615,1.934-1.974,2.938-1.288,3.6.753-6.118.753-6.118s2.771-4.491,7.606-4.66c2.668-.1,3.839,1.505,4.76,3.559.216.48-2.9-.895-2.347-.939a32.759,32.759,0,0,1,3.222,3.077,16.586,16.586,0,0,0,1.532,3.078C1358.039,1351.428,1359.306,1351.868,1359.306,1351.868Z" transform="translate(-1339.553 -1339.083)" fill="#163f59"/>
          <path id="Trazado_102878" data-name="Trazado 102878" d="M1349.481,1360.927l-2.1.2.508,1.3-1.684.544-1.914,6.352,2.732.321.6-3.91,1.751-1.9,4.225-.2Z" transform="translate(-1341.152 -1346.637)" fill="#ec9568"/>
        </g>
        <path id="Trazado_102879" data-name="Trazado 102879" d="M1287.365,1721.212l.014,6.79-.742,5.7-2.14,1.7-1.659.663-.408.983-5.547,4.416a10.315,10.315,0,0,1-6.508.969c-.943-.14.126-2.774.416-3.186a46.387,46.387,0,0,1,4.293-4.983l4.094-6.052,4.573-7.529Z" transform="translate(-1231.368 -1471.059)" fill="#161711"/>
        <path id="Trazado_102880" data-name="Trazado 102880" d="M1377.34,1732.1l-1.235,2.827-.532,3.11.532,4.837,2.646.163,1.943-.59,1.373.8a103.494,103.494,0,0,0,10.336.693c4.632-.241,7.122-.934,7.954-1.9.46-.543-1.771-1.337-2.493-1.387a27.131,27.131,0,0,1-8.693-2.538l-3.706-3.532-.884-2.649Z" transform="translate(-1267.881 -1474.946)" fill="#161711"/>
        <path id="Trazado_102881" data-name="Trazado 102881" d="M1319.641,1402.228l15.99-6.852,5.428,3.285,9.8-2.522s11.423,6.852,12.566,6.852-.38,63.961-.38,63.961l-28.935,9.139-11.041-7.233Z" transform="translate(-1248.538 -1358.551)" fill="#d1dbea"/>
        <path id="Trazado_102882" data-name="Trazado 102882" d="M1311.4,1502.681l-29.555,150.082,10.653-.334,16.378-48.394,3.735-14.478,17.244-57.259,4.365-30.7Z" transform="translate(-1235.464 -1395.287)" fill="#163f59"/>
        <path id="Trazado_102883" data-name="Trazado 102883" d="M1367.126,1652.709l-2.293-60.692-5.054-27.461-6.522-37.727,2.613-25.862,23.191-1.465-.916,43.485,2.368,38.96.464,14.717-1.215,58.225Z" transform="translate(-1260.163 -1394.563)" fill="#163f59"/>
        <path id="Trazado_102884" data-name="Trazado 102884" d="M1328.469,1493.037l3.387-82.652,2.284-14.4-16.658,5.173-1.061,86.355Z" transform="translate(-1247.424 -1358.763)" fill="#194866"/>
        <path id="Trazado_102885" data-name="Trazado 102885" d="M1362.714,1395.376l4.442,8.5,2.791,63.089-4.339,25.347,19.035-2-1.752-79.342-4.273-12.03Z" transform="translate(-1263.434 -1358.551)" fill="#194866"/>
        <path id="Trazado_102886" data-name="Trazado 102886" d="M1332.16,1441.8l-4.953-24.747,3.048-4.568-2.665-11.8,2.665-3.8,7.992-2.664-2.661,27.79-1.523,36.548Z" transform="translate(-1251.155 -1358.15)" fill="#163f59"/>
        <path id="Trazado_102887" data-name="Trazado 102887" d="M1362.753,1395.041c-.38,1.141,4.026,9.231,4.026,9.231l2.411,45.812,5.712-33.885-1.524-6.089,1.524-3.809-4.741-9.633Z" transform="translate(-1263.439 -1358.436)" fill="#163f59"/>
        <path id="Trazado_102888" data-name="Trazado 102888" d="M1347.992,1397.239l-3.89,4.365-3.03-7.375.965-1.939Z" transform="translate(-1255.95 -1357.484)" fill="#b0bfde"/>
        <path id="Trazado_102889" data-name="Trazado 102889" d="M1359.628,1392.074l-5.724,5.1,3.782,4.541,3.191-7.357Z" transform="translate(-1260.387 -1357.41)" fill="#b0bfde"/>
      </g>
      <g id="Grupo_88223" data-name="Grupo 88223" transform="translate(1049.122 1385.767)">
        <g id="Grupo_88213" data-name="Grupo 88213" transform="translate(30.597 98.416)">
          <g id="Grupo_88212" data-name="Grupo 88212">
            <path id="Trazado_102890" data-name="Trazado 102890" d="M1102.716,1693.771h-6.821l11.253-108.982h9.889Z" transform="translate(-1095.894 -1581.251)" fill="#163f59"/>
            <path id="Trazado_102891" data-name="Trazado 102891" d="M1122.194,1589.812l-4.338,33-5.145-35.569.252-2.459h8.644Z" transform="translate(-1101.711 -1581.251)" fill="#212957"/>
            <path id="Trazado_102892" data-name="Trazado 102892" d="M1242.4,1693.771h-6.819l11.252-108.982h9.889Z" transform="translate(-1144.204 -1581.251)" fill="#163f59"/>
            <path id="Trazado_102893" data-name="Trazado 102893" d="M1261.875,1589.812l-4.336,33-5.148-35.569.255-2.459h8.644Z" transform="translate(-1150.018 -1581.251)" fill="#212957"/>
            <path id="Trazado_102894" data-name="Trazado 102894" d="M1347.9,1693.771h6.821l-11.252-108.982h-9.89Z" transform="translate(-1178.095 -1581.251)" fill="#163f59"/>
            <path id="Trazado_102895" data-name="Trazado 102895" d="M1334.584,1589.812l13.236,33.634-3.753-36.2-.252-2.459h-8.644Z" transform="translate(-1178.444 -1581.251)" fill="#212957"/>
            <rect id="Rectángulo_34776" data-name="Rectángulo 34776" width="82.227" height="6.369" transform="translate(92.689)" fill="#387bff"/>
            <rect id="Rectángulo_34777" data-name="Rectángulo 34777" width="93.369" height="6.369" transform="translate(3.122)" fill="#7eb3ff"/>
          </g>
        </g>
        <g id="Grupo_88222" data-name="Grupo 88222">
          <g id="Grupo_88221" data-name="Grupo 88221">
            <path id="Trazado_102896" data-name="Trazado 102896" d="M1074.8,1608.713s-8.459,5.237-6.848,14.9,5.64,17.321,24.571,14.9,35.045-11.279,35.045-11.279-8.862,3.222-8.459,16.918-2.417,40.684-4.834,45.115a76.94,76.94,0,0,0-4.431,10.474h20.141l-6.848-11.682,21.349-77.743s4.028-13.7-10.473-10.07S1074.8,1608.713,1074.8,1608.713Z" transform="translate(-1055.562 -1487.972)" fill="#212957"/>
            <path id="Trazado_102897" data-name="Trazado 102897" d="M1106.907,1614.13l37.865-6.848s12.085-3.222,14.5,8.056c2.817,13.146,8.862,71.7,8.862,71.7l.4,2.82,18.529,10.07h-28.2l2.014-8.862-16.918-59.616s-29,8.459-38.67,8.459-16.918-3.625-16.918-5.236S1100.059,1613.324,1106.907,1614.13Z" transform="translate(-1062.698 -1490.466)" fill="#3b47bc"/>
            <g id="Grupo_88214" data-name="Grupo 88214" transform="translate(77.021 92.099)">
              <path id="Trazado_102898" data-name="Trazado 102898" d="M1168.069,1582.4a54.661,54.661,0,0,1,9.365-2.719c1.359-.151,2.417-3.927,1.661-6.345-.5-1.6-1-3-1.762-3.458a1.261,1.261,0,0,0-1.41.135c-1.662,1.058-8.308,6.8-8.308,6.8S1165.651,1583.461,1168.069,1582.4Z" transform="translate(-1166.863 -1569.724)" fill="#f7b68b"/>
              <path id="Trazado_102899" data-name="Trazado 102899" d="M1190.824,1571.007l-7.955-1.042,1.762,3.458-1.058,5.287,4.381.756s.6-.756-.151-1.058-1.812-.755-1.812-.755,2.114-.3,3.021-.453,1.058-.453,1.058-.906-.907-.756-.907-.756,1.662-.6,1.813-1.057.453-1.058.151-1.51S1191.278,1571.309,1190.824,1571.007Z" transform="translate(-1172.398 -1569.807)" fill="#ec9568"/>
            </g>
            <path id="Trazado_102900" data-name="Trazado 102900" d="M1086.608,1616.99s-9.668,27.794,11.681,26.183,40.685-11.279,42.3-12.89,0,11.278,5.237,22.557,12.89,39.476,12.89,39.476l7.653-.4-8.862-71.3s-.432-11.193-16.515-10.07c-17.322,1.208-33.434,1.611-33.434,1.611Z" transform="translate(-1061.331 -1491.715)" fill="#3b47bc"/>
            <path id="Trazado_102901" data-name="Trazado 102901" d="M1089.854,1480.913s4.262,6.718,8.912,7.072,6.974-10.609,6.974-18.034-8.138-14.5-8.912-16.62-8.912,4.951-8.912,11.315S1089.854,1479.145,1089.854,1480.913Z" transform="translate(-1062.538 -1437.238)" fill="#ec9568"/>
            <path id="Trazado_102902" data-name="Trazado 102902" d="M1060.694,1525.372s-6.319,7.323,2.884,23.74,13.349,25.479,14.593,25.555,7.7.1,9.338-2.661,3.031-5.174,2.458-6.6-14.3-37.954-15.687-41.331C1071.468,1517.22,1062.607,1524.094,1060.694,1525.372Z" transform="translate(-1052.392 -1460.8)" fill="#9ac7f7"/>
            <path id="Trazado_102903" data-name="Trazado 102903" d="M1101.914,1522.9l-8.761-4.532-16.314-.3s-8.459,1.209-12.084,9.063c-1.247,2.7,6.808,34.011,7.754,39.375,1.208,6.848-7.411,16.87-5.639,18.932,6.563,7.636,39.879-5.639,39.879-5.639S1107.957,1527.734,1101.914,1522.9Z" transform="translate(-1054.483 -1459.759)" fill="#c5e1f9"/>
            <path id="Trazado_102904" data-name="Trazado 102904" d="M1117.283,1526.32s-7.553,6.042-1.51,23.867,8.459,27.492,9.668,27.794,7.552,1.511,9.667-.906,3.927-4.532,3.625-6.042-12.084-34.138-13.595-37.461S1119.4,1525.414,1117.283,1526.32Z" transform="translate(-1071.362 -1462.575)" fill="#9ac7f7"/>
            <path id="Trazado_102905" data-name="Trazado 102905" d="M1080.065,1490.815l1.208,16.314s-.62,2.271,4.531,2.719c6.949.6,9.97-2.114,9.97-2.114a37.349,37.349,0,0,1-3.323-17.824C1093.055,1479.637,1080.065,1490.815,1080.065,1490.815Z" transform="translate(-1059.823 -1448.519)" fill="#f7b68b"/>
            <path id="Trazado_102906" data-name="Trazado 102906" d="M1085.859,1446.774a22.274,22.274,0,0,0-17.522,4.532c-5.136,3.927-8.157,10.876-5.438,16.615s8.761,13.293,11.782,13.293,9.668-4.531,10.574-6.344.907-3.022,1.51-6.949,2.719-2.719,2.719-1.812,1.208,3.625,1.813,1.812S1104.288,1453.119,1085.859,1446.774Z" transform="translate(-1053.534 -1434.992)" fill="#212957"/>
            <ellipse id="Elipse_4947" data-name="Elipse 4947" cx="13.142" cy="12.689" rx="13.142" ry="12.689" fill="#212957"/>
            <path id="Trazado_102907" data-name="Trazado 102907" d="M1134.968,1578.512c1.472.655,17.321.4,18.127,1.612s1.611,5.639,1.611,5.639a27.9,27.9,0,0,1-13.7,8.861c-9.264,2.82-8.862,3.223-13.292-5.639S1131.343,1576.9,1134.968,1578.512Z" transform="translate(-1075.855 -1480.526)" fill="#9ac7f7"/>
            <g id="Grupo_88220" data-name="Grupo 88220" transform="translate(0.01 89.179)">
              <g id="Grupo_88215" data-name="Grupo 88215" transform="translate(0 11.112)">
                <path id="Trazado_102908" data-name="Trazado 102908" d="M1059.626,1644.67a9.546,9.546,0,0,1-6.317-2.284c-3.174-2.759-4.547-7.67-4.084-14.587.31-4.671,2.148-9.4,4.094-14.406,3.279-8.423,6.989-17.969,5.048-30.593l3.606-.555c2.088,13.592-1.983,24.059-5.25,32.47-1.923,4.942-3.585,9.215-3.859,13.324-.373,5.612.595,9.611,2.807,11.563a6.048,6.048,0,0,0,4.823,1.356l.732,3.575A8.477,8.477,0,0,1,1059.626,1644.67Z" transform="translate(-1049.137 -1582.245)" fill="#367082"/>
              </g>
              <g id="Grupo_88218" data-name="Grupo 88218" transform="translate(8.868 86.366)">
                <g id="Grupo_88216" data-name="Grupo 88216" transform="translate(3.055 16.12)">
                  <path id="Trazado_102909" data-name="Trazado 102909" d="M1093.9,1721.927l3.554,5.42-29.847,9.56s-2-1.906,5.33-5.734C1081.467,1726.71,1093.9,1721.927,1093.9,1721.927Z" transform="translate(-1067.364 -1721.927)" fill="#88bdda"/>
                  <path id="Trazado_102910" data-name="Trazado 102910" d="M1114.16,1721.927l-3.553,5.42,29.846,9.56s1.993-1.906-5.331-5.734C1126.6,1726.71,1114.16,1721.927,1114.16,1721.927Z" transform="translate(-1082.319 -1721.927)" fill="#88bdda"/>
                </g>
                <rect id="Rectángulo_34778" data-name="Rectángulo 34778" width="6.237" height="22.205" transform="translate(29.128)" fill="#88bdda"/>
                <g id="Grupo_88217" data-name="Grupo 88217" transform="translate(6.477 17.263)">
                  <path id="Trazado_102911" data-name="Trazado 102911" d="M1095.316,1723.674l3.039,5.171-25.548,9.122s-1.706-1.818,4.56-5.474A199.937,199.937,0,0,1,1095.316,1723.674Z" transform="translate(-1072.595 -1723.674)" fill="#acd5f4"/>
                  <path id="Trazado_102912" data-name="Trazado 102912" d="M1115.039,1723.674l-3.037,5.171,25.547,9.122s1.706-1.818-4.562-5.474A199.79,199.79,0,0,0,1115.039,1723.674Z" transform="translate(-1086.224 -1723.674)" fill="#acd5f4"/>
                </g>
                <path id="Trazado_102913" data-name="Trazado 102913" d="M1075.049,1747.52a2.167,2.167,0,1,1-2.166-2.171A2.166,2.166,0,0,1,1075.049,1747.52Z" transform="translate(-1065.468 -1713.907)" fill="#001f46"/>
                <path id="Trazado_102914" data-name="Trazado 102914" d="M1150.727,1747.52a2.169,2.169,0,1,1-2.17-2.171A2.169,2.169,0,0,1,1150.727,1747.52Z" transform="translate(-1091.64 -1713.907)" fill="#001f46"/>
                <path id="Trazado_102915" data-name="Trazado 102915" d="M1067.029,1747.52a2.168,2.168,0,1,1-2.167-2.171A2.164,2.164,0,0,1,1067.029,1747.52Z" transform="translate(-1062.694 -1713.907)" fill="#367082"/>
                <path id="Trazado_102916" data-name="Trazado 102916" d="M1158.747,1747.52a2.165,2.165,0,1,1-2.167-2.171A2.165,2.165,0,0,1,1158.747,1747.52Z" transform="translate(-1094.416 -1713.907)" fill="#367082"/>
              </g>
              <rect id="Rectángulo_34779" data-name="Rectángulo 34779" width="4.562" height="7.985" transform="translate(38.753 78.228)" fill="#367082"/>
              <path id="Trazado_102917" data-name="Trazado 102917" d="M1114.553,1676.045a4.45,4.45,0,0,1-4.448,4.447h-2.51a4.449,4.449,0,0,1-4.448-4.447h0a4.448,4.448,0,0,1,4.448-4.45h2.51a4.448,4.448,0,0,1,4.448,4.45Z" transform="translate(-1067.817 -1602.035)" fill="#367082"/>
              <path id="Trazado_102918" data-name="Trazado 102918" d="M1127.757,1666.428c.106-.524.167-3.808.167-4.372,0-3.592-2.319-6.5-5.185-6.5h-57.786c-2.861,0-5.184,2.91-5.184,6.5,0,.564.062,3.848.173,4.372Z" transform="translate(-1052.814 -1596.487)" fill="#8dcfff"/>
              <path id="Trazado_102919" data-name="Trazado 102919" d="M1058.955,1673.816c0,1.1.641,1.993,1.437,1.993h66.348c.8,0,1.438-.893,1.438-1.993h0c0-1.1-.641-1.99-1.438-1.99h-66.348c-.8,0-1.437.892-1.437,1.99Z" transform="translate(-1052.533 -1602.114)" fill="#367082"/>
              <g id="Grupo_88219" data-name="Grupo 88219" transform="translate(22.558 11.112)">
                <path id="Trazado_102920" data-name="Trazado 102920" d="M1094.109,1644.67a9.547,9.547,0,0,1-6.317-2.284c-3.173-2.759-4.546-7.67-4.083-14.587.309-4.671,2.148-9.4,4.093-14.406,3.279-8.423,6.99-17.969,5.049-30.593l3.606-.555c2.089,13.592-1.983,24.059-5.25,32.47-1.923,4.942-3.585,9.215-3.859,13.324-.373,5.612.595,9.611,2.807,11.563a6.049,6.049,0,0,0,4.822,1.356l.732,3.575A8.471,8.471,0,0,1,1094.109,1644.67Z" transform="translate(-1083.621 -1582.245)" fill="#367082"/>
              </g>
              <path id="Trazado_102921" data-name="Trazado 102921" d="M1092.655,1597.195a91.026,91.026,0,0,1-34.771,0,2.37,2.37,0,0,1-1.856-2.2V1566.73a1.459,1.459,0,0,1,1.856-1.435,91.021,91.021,0,0,0,34.771,0,1.46,1.46,0,0,1,1.856,1.435V1595A2.371,2.371,0,0,1,1092.655,1597.195Z" transform="translate(-1051.52 -1565.259)" fill="#8dcfff"/>
            </g>
          </g>
        </g>
      </g>
      <path id="Trazado_102922" data-name="Trazado 102922" d="M1274.314,1387.236a4.489,4.489,0,1,0,4.488-4.489A4.488,4.488,0,0,0,1274.314,1387.236Z" transform="translate(-77.881 -27.193)" fill="none" stroke="#7eb3ff" stroke-miterlimit="10" stroke-width="3.037"/>
      <path id="Trazado_102923" data-name="Trazado 102923" d="M1111.271,1430.692a4.489,4.489,0,1,0,4.489-4.489A4.489,4.489,0,0,0,1111.271,1430.692Z" transform="translate(-21.494 -42.222)" fill="none" stroke="#7eb3ff" stroke-miterlimit="10" stroke-width="3.037"/>
      <g id="Grupo_88224" data-name="Grupo 88224" transform="translate(1094.046 1330.116)">
        <line id="Línea_296" data-name="Línea 296" y1="2.282" transform="translate(107.089 23.348)" fill="none" stroke="#7eb3ff" stroke-miterlimit="10" stroke-width="3.751"/>
        <line id="Línea_297" data-name="Línea 297" y1="14.745" transform="translate(107.089 4.389)" fill="none" stroke="#7eb3ff" stroke-miterlimit="10" stroke-width="3.751" stroke-dasharray="6.44 6.44"/>
        <path id="Trazado_102924" data-name="Trazado 102924" d="M1280.3,1346.143v-2.283h-2.282" transform="translate(-1173.207 -1343.86)" fill="none" stroke="#7eb3ff" stroke-miterlimit="10" stroke-width="3.751"/>
        <line id="Línea_298" data-name="Línea 298" x1="95.838" transform="translate(4.511)" fill="none" stroke="#7eb3ff" stroke-miterlimit="10" stroke-width="3.751" stroke-dasharray="6.814 6.814"/>
        <path id="Trazado_102925" data-name="Trazado 102925" d="M1120.079,1343.86H1117.8v2.283" transform="translate(-1117.797 -1343.86)" fill="none" stroke="#7eb3ff" stroke-miterlimit="10" stroke-width="3.751"/>
        <line id="Línea_299" data-name="Línea 299" y2="41.285" transform="translate(0 6.629)" fill="none" stroke="#7eb3ff" stroke-miterlimit="10" stroke-width="3.751" stroke-dasharray="6.643 6.643"/>
        <line id="Línea_300" data-name="Línea 300" y2="2.282" transform="translate(0 50.087)" fill="none" stroke="#7eb3ff" stroke-miterlimit="10" stroke-width="3.751"/>
      </g>
      <g id="Grupo_88235" data-name="Grupo 88235" transform="translate(1121.296 1304.119)">
        <g id="Grupo_88225" data-name="Grupo 88225" transform="translate(13.384 4.227)">
          <path id="Trazado_102926" data-name="Trazado 102926" d="M1179.914,1312.624l6.813-1.719c6.7-1.69,14.348,3.342,18.14,12.488,4.332,10.452,1.982,22.319-5.248,26.5l-6.812,1.719c7.23-4.187,9.581-16.052,5.246-26.505C1194.264,1315.965,1186.613,1310.933,1179.914,1312.624Z" transform="translate(-1179.914 -1310.581)" fill="#ffc910"/>
        </g>
        <g id="Grupo_88226" data-name="Grupo 88226" transform="translate(23.478 43.543)">
          <path id="Trazado_102927" data-name="Trazado 102927" d="M1202.158,1371.826l-6.814,1.718a10.958,10.958,0,0,0,2.8-1.143l6.812-1.719A10.928,10.928,0,0,1,1202.158,1371.826Z" transform="translate(-1195.344 -1370.683)" fill="#ffc910"/>
        </g>
        <g id="Grupo_88227" data-name="Grupo 88227" transform="translate(10.588 4.551)">
          <path id="Trazado_102928" data-name="Trazado 102928" d="M1178.435,1312.8l6.813-1.719a10.889,10.889,0,0,0-2.8,1.142l-6.812,1.72A10.787,10.787,0,0,1,1178.435,1312.8Z" transform="translate(-1175.639 -1311.076)" fill="#ffab01"/>
        </g>
        <g id="Grupo_88228" data-name="Grupo 88228" transform="translate(3.165 5.693)">
          <path id="Trazado_102929" data-name="Trazado 102929" d="M1191.418,1351.816l-6.814,1.718c-6.7,1.689-14.348-3.341-18.14-12.486-4.333-10.452-1.985-22.319,5.25-26.5l6.812-1.72c-7.232,4.187-9.583,16.054-5.25,26.505C1177.068,1348.474,1184.719,1353.5,1191.418,1351.816Z" transform="translate(-1164.292 -1312.822)" fill="#ffab01"/>
        </g>
        <g id="Grupo_88229" data-name="Grupo 88229" transform="translate(0 1.772)">
          <path id="Trazado_102930" data-name="Trazado 102930" d="M1190.79,1353.9l-6.812,1.718c-8.087,2.04-17.325-4.032-21.9-15.073-5.231-12.62-2.393-26.945,6.34-32l6.811-1.718c-8.732,5.055-11.569,19.38-6.338,32C1173.465,1349.867,1182.7,1355.942,1190.79,1353.9Z" transform="translate(-1159.453 -1306.828)" fill="#f99b0f"/>
        </g>
        <g id="Grupo_88230" data-name="Grupo 88230" transform="translate(6.813)">
          <path id="Trazado_102931" data-name="Trazado 102931" d="M1178.829,1305.891c8.732-5.055,20.047,1.076,25.279,13.694s2.394,26.944-6.338,32-20.049-1.075-25.279-13.693S1170.1,1310.947,1178.829,1305.891Zm17.315,41.771c7.23-4.185,9.581-16.052,5.248-26.5s-13.707-15.531-20.938-11.346-9.583,16.054-5.25,26.506,13.709,15.531,20.939,11.344" transform="translate(-1169.868 -1304.119)" fill="#ffc910"/>
        </g>
        <path id="Trazado_102932" data-name="Trazado 102932" d="M1182.128,1312.047c7.231-4.185,16.605.893,20.938,11.344s1.982,22.32-5.248,26.506-16.607-.892-20.939-11.345S1174.9,1316.234,1182.128,1312.047Z" transform="translate(-1164.728 -1306.354)" fill="#ffab01"/>
        <g id="Grupo_88231" data-name="Grupo 88231" transform="translate(8.963 0.392)">
          <path id="Trazado_102933" data-name="Trazado 102933" d="M1176.532,1306.437l6.812-1.718a13.056,13.056,0,0,0-3.379,1.38l-6.811,1.718A13.114,13.114,0,0,1,1176.532,1306.437Z" transform="translate(-1173.155 -1304.719)" fill="#ee8f01"/>
        </g>
        <g id="Grupo_88232" data-name="Grupo 88232" transform="translate(14.158 4.226)">
          <path id="Trazado_102934" data-name="Trazado 102934" d="M1184.338,1312.047a12.359,12.359,0,0,0-3.241,2.748,12.268,12.268,0,0,1,2.869-2.324c7.23-4.186,16.6.892,20.938,11.344,3.6,8.683,2.581,18.338-2.011,23.759,4.91-5.329,6.078-15.267,2.383-24.183C1200.943,1312.94,1191.569,1307.861,1184.338,1312.047Z" transform="translate(-1181.097 -1310.58)" fill="#f99b0f"/>
        </g>
        <path id="Trazado_102935" data-name="Trazado 102935" d="M1190.875,1379.208l6.812-1.718a15.077,15.077,0,0,1-12-2.455l-6.295,2.05A14.89,14.89,0,0,0,1190.875,1379.208Z" transform="translate(-1166.35 -1328.645)" fill="#ee8f01"/>
        <g id="Grupo_88233" data-name="Grupo 88233" transform="translate(18.186 10.288)">
          <path id="Trazado_102936" data-name="Trazado 102936" d="M1189.341,1319.846l1.31,3.161a3.114,3.114,0,0,1,2.849.5,7.7,7.7,0,0,1,2.419,3.17l-1.971,1.144a3.455,3.455,0,0,0-1.447-1.679,1.711,1.711,0,0,0-1.729.073,2.346,2.346,0,0,0-1.147,1.7,4.427,4.427,0,0,0,.356,2.535,3.963,3.963,0,0,0,.479.865,2.311,2.311,0,0,0,.616.582,2.95,2.95,0,0,0,2.223.111,8.511,8.511,0,0,1,1.42-.234,4.687,4.687,0,0,1,3.154.94,7.16,7.16,0,0,1,2.219,3.075,10.809,10.809,0,0,1,.9,4.951,4.851,4.851,0,0,1-1.537,3.5l1.574,3.8-1.838,1.065-1.514-3.65a3.693,3.693,0,0,1-3.467-.51,8.236,8.236,0,0,1-2.774-3.761l1.9-1.1a4.666,4.666,0,0,0,1.785,2.263,2.129,2.129,0,0,0,2.173-.154,2.708,2.708,0,0,0,1.328-1.947,5.107,5.107,0,0,0-.41-2.91,6.4,6.4,0,0,0-.507-.992,3.293,3.293,0,0,0-.563-.692,2.919,2.919,0,0,0-2.681-.508c-.19.035-.331.064-.427.079a5.2,5.2,0,0,1-3.619-.447,5.889,5.889,0,0,1-2.345-3,9.256,9.256,0,0,1-.786-4.429,5,5,0,0,1,1.514-3.3l-1.3-3.133Z" transform="translate(-1187.255 -1319.846)" fill="#f99b0f"/>
        </g>
        <g id="Grupo_88234" data-name="Grupo 88234" transform="translate(19.374 9.807)">
          <path id="Trazado_102937" data-name="Trazado 102937" d="M1191.156,1319.111l1.312,3.161a3.105,3.105,0,0,1,2.847.5,7.728,7.728,0,0,1,2.422,3.171l-1.973,1.144a3.457,3.457,0,0,0-1.446-1.679,1.714,1.714,0,0,0-1.729.072,2.353,2.353,0,0,0-1.15,1.7,4.443,4.443,0,0,0,.359,2.536,3.9,3.9,0,0,0,.479.865,2.353,2.353,0,0,0,.614.582,2.961,2.961,0,0,0,2.225.11,8.444,8.444,0,0,1,1.421-.234,4.665,4.665,0,0,1,3.153.94,7.135,7.135,0,0,1,2.219,3.074,10.778,10.778,0,0,1,.9,4.951,4.859,4.859,0,0,1-1.537,3.5l1.575,3.8-1.838,1.064-1.512-3.65a3.691,3.691,0,0,1-3.467-.509,8.223,8.223,0,0,1-2.777-3.76l1.9-1.1a4.661,4.661,0,0,0,1.785,2.262,2.124,2.124,0,0,0,2.172-.153,2.706,2.706,0,0,0,1.329-1.948,5.107,5.107,0,0,0-.411-2.91,6.468,6.468,0,0,0-.506-.992,3.365,3.365,0,0,0-.562-.691,2.924,2.924,0,0,0-2.681-.508c-.192.035-.33.064-.427.081a5.2,5.2,0,0,1-3.617-.448,5.887,5.887,0,0,1-2.347-3,9.26,9.26,0,0,1-.786-4.427,5.018,5.018,0,0,1,1.513-3.306l-1.3-3.132Z" transform="translate(-1189.07 -1319.111)" fill="#ffc910"/>
        </g>
      </g>
    </g>
  </g>
</svg>
