<svg xmlns="http://www.w3.org/2000/svg" xmlns:xlink="http://www.w3.org/1999/xlink" width="375.575" height="375.575" viewBox="0 0 375.575 375.575">
  <defs>
    <clipPath id="clip-path">
      <path id="Trazado_103119" data-name="Trazado 103119" d="M3217.121,1700.25a58.687,58.687,0,0,1-.632-8.565c0-24.648,15.3-47.129,40.934-60.14l.166-.086c6.98-3.92,12.165-8.789,14.59-13.7l.153-.308.1-.327a17.233,17.233,0,0,0-.1-10.66l-.1-.308-.152-.3c-2.471-4.851-7.613-9.66-14.492-13.522l-.166-.088c-25.63-13.008-40.934-35.491-40.934-60.138a58.614,58.614,0,0,1,.632-8.561H3332.1a58.219,58.219,0,0,1,.632,8.561c0,24.647-15.307,47.13-40.937,60.138l-.164.086c-6.874,3.865-12.026,8.674-14.491,13.525l-.15.3-.1.308a17.216,17.216,0,0,0-.1,10.66l.1.327.155.3c2.43,4.918,7.612,9.787,14.587,13.707l.164.086c25.63,13.011,40.937,35.491,40.937,60.14a58.316,58.316,0,0,1-.632,8.565Z" transform="translate(-3216.489 -1523.546)" fill="none"/>
    </clipPath>
  </defs>
  <g id="Grupo_88439" data-name="Grupo 88439" transform="translate(-302.3 -5159.425)">
    <rect id="Rectángulo_34825" data-name="Rectángulo 34825" width="265.572" height="265.572" rx="28" transform="translate(302.3 5347.212) rotate(-45)" fill="#636363" opacity="0.5"/>
    <g id="Grupo_88357" data-name="Grupo 88357" transform="translate(-2772.881 3812.536)">
      <g id="Grupo_88339" data-name="Grupo 88339" transform="translate(3139.319 1432.939)">
        <g id="Grupo_88338" data-name="Grupo 88338" transform="translate(0 0)">
          <g id="Grupo_88329" data-name="Grupo 88329" transform="translate(5.526 12.394)">
            <rect id="Rectángulo_34826" data-name="Rectángulo 34826" width="6.631" height="210.407" fill="#003e99"/>
            <rect id="Rectángulo_34827" data-name="Rectángulo 34827" width="6.629" height="210.407" transform="translate(142.061)" fill="#003e99"/>
          </g>
          <g id="Grupo_88333" data-name="Grupo 88333" transform="translate(17.427 24.344)">
            <path id="Trazado_103114" data-name="Trazado 103114" d="M3289.561,1623.5c-6.231-3.5-10.846-7.83-12.83-11.847a12.924,12.924,0,0,1,.071-8.031c2.025-3.979,6.6-8.253,12.759-11.709,25.976-13.184,43.307-36.911,43.307-64a62.534,62.534,0,0,0-1.341-12.888H3209.315a62.772,62.772,0,0,0-1.334,12.888c0,27.085,17.328,50.812,43.3,64,6.157,3.456,10.734,7.728,12.762,11.709a12.922,12.922,0,0,1,.071,8.031c-1.983,4.018-6.6,8.352-12.833,11.847-25.976,13.178-43.3,36.911-43.3,64a62.725,62.725,0,0,0,1.334,12.885h122.213a62.508,62.508,0,0,0,1.341-12.885C3332.868,1660.406,3315.538,1636.68,3289.561,1623.5Z" transform="translate(-3207.98 -1515.024)" fill="#eaf4fe"/>
            <path id="Trazado_103115" data-name="Trazado 103115" d="M3217.121,1700.25a58.687,58.687,0,0,1-.632-8.565c0-24.648,15.3-47.129,40.934-60.14l.166-.086c6.98-3.92,12.165-8.789,14.59-13.7l.153-.308.1-.327a17.233,17.233,0,0,0-.1-10.66l-.1-.308-.152-.3c-2.471-4.851-7.613-9.66-14.492-13.522l-.166-.088c-25.63-13.008-40.934-35.491-40.934-60.138a58.614,58.614,0,0,1,.632-8.561H3332.1a58.219,58.219,0,0,1,.632,8.561c0,24.647-15.307,47.13-40.937,60.138l-.164.086c-6.874,3.865-12.026,8.674-14.491,13.525l-.15.3-.1.308a17.216,17.216,0,0,0-.1,10.66l.1.327.155.3c2.43,4.918,7.612,9.787,14.587,13.707l.164.086c25.63,13.011,40.937,35.491,40.937,60.14a58.316,58.316,0,0,1-.632,8.565Z" transform="translate(-3212.168 -1519.218)" fill="#fff"/>
            <g id="Grupo_88330" data-name="Grupo 88330" transform="translate(62.681 4.321)">
              <path id="Trazado_103116" data-name="Trazado 103116" d="M3331.409,1523.54h57.251a58.22,58.22,0,0,1,.632,8.56c0,24.647-15.307,47.13-40.937,60.138l-.164.086c-6.874,3.865-12.026,8.674-14.492,13.525l-.15.3-.1.308a17.216,17.216,0,0,0-.1,10.66l.1.327.155.305c2.43,4.918,7.613,9.786,14.587,13.707l.164.086c25.63,13.011,40.937,35.491,40.937,60.14a58.321,58.321,0,0,1-.632,8.565h-57.251v.19h61.575a62.58,62.58,0,0,0,.632-8.756c0-27.085-17.331-50.812-43.307-64-6.231-3.5-10.846-7.83-12.83-11.847a12.922,12.922,0,0,1,.071-8.031c2.025-3.979,6.6-8.253,12.759-11.709,25.976-13.184,43.307-36.911,43.307-64a63.655,63.655,0,0,0-.6-8.567h-61.6Z" transform="translate(-3331.409 -1523.533)" fill="#eaf4fe"/>
              <path id="Trazado_103117" data-name="Trazado 103117" d="M3389.292,1691.685c0-24.648-15.307-47.129-40.937-60.14l-.164-.086c-6.975-3.92-12.157-8.789-14.587-13.707l-.155-.3-.1-.327a17.216,17.216,0,0,1,.1-10.66l.1-.308.15-.3c2.466-4.851,7.618-9.66,14.492-13.525l.164-.086c25.63-13.008,40.937-35.491,40.937-60.138a58.219,58.219,0,0,0-.632-8.561h-57.251v176.7h57.251A58.316,58.316,0,0,0,3389.292,1691.685Z" transform="translate(-3331.409 -1523.54)" fill="#fff"/>
            </g>
            <g id="Grupo_88332" data-name="Grupo 88332" transform="translate(4.321 4.328)">
              <g id="Grupo_88331" data-name="Grupo 88331" clip-path="url(#clip-path)">
                <path id="Trazado_103118" data-name="Trazado 103118" d="M3389.292,1691.685c0-24.648-15.307-47.129-40.937-60.14l-.164-.086c-6.975-3.92-12.157-8.789-14.587-13.707l-.155-.3-.1-.327a17.216,17.216,0,0,1,.1-10.66l.1-.308.15-.3c2.466-4.851,7.618-9.66,14.492-13.525l.164-.086c25.63-13.008,40.937-35.491,40.937-60.138a58.219,58.219,0,0,0-.632-8.561h-57.251v176.7h57.251A58.316,58.316,0,0,0,3389.292,1691.685Z" transform="translate(-3273.049 -1523.546)" fill="#eaf4fe" style="mix-blend-mode: multiply;isolation: isolate"/>
              </g>
            </g>
          </g>
          <g id="Grupo_88334" data-name="Grupo 88334">
            <rect id="Rectángulo_34828" data-name="Rectángulo 34828" width="159.741" height="13.104" fill="#0450cf"/>
            <rect id="Rectángulo_34829" data-name="Rectángulo 34829" width="105.967" height="12.195" transform="translate(53.775 0.458)" fill="#003e99"/>
          </g>
          <g id="Grupo_88335" data-name="Grupo 88335" transform="translate(16.413 10.733)">
            <rect id="Rectángulo_34830" data-name="Rectángulo 34830" width="126.913" height="14.368" fill="#0450cf"/>
            <rect id="Rectángulo_34831" data-name="Rectángulo 34831" width="84.189" height="13.372" transform="translate(42.724 0.499)" fill="#003e99"/>
          </g>
          <g id="Grupo_88336" data-name="Grupo 88336" transform="translate(0 220.989)">
            <rect id="Rectángulo_34832" data-name="Rectángulo 34832" width="159.741" height="13.101" fill="#0450cf"/>
            <rect id="Rectángulo_34833" data-name="Rectángulo 34833" width="105.964" height="12.194" transform="translate(0 0.451)" fill="#003e99"/>
          </g>
          <g id="Grupo_88337" data-name="Grupo 88337" transform="translate(16.413 208.993)">
            <rect id="Rectángulo_34834" data-name="Rectángulo 34834" width="126.913" height="14.364" fill="#0450cf"/>
            <rect id="Rectángulo_34835" data-name="Rectángulo 34835" width="84.189" height="13.369" transform="translate(0 0.495)" fill="#003e99"/>
          </g>
        </g>
        <path id="Trazado_103120" data-name="Trazado 103120" d="M3235.427,1604.336c7.043,11.16,17.7,20.76,31.319,27.671l.166.089a45.3,45.3,0,0,1,9.514,7c.09.081.193.146.284.222a17.755,17.755,0,0,1,3.011,3.594,21.282,21.282,0,0,1,1.684,2.7l.153.3.1.308a18.509,18.509,0,0,1,.578,2.333v.005c.022.113.063.229.082.346,1.016,3.759,1.365,10.913,1.458,17.215h.033c.214-6.765.754-14.6,2.065-18.549.111-.449.188-.9.335-1.351l.1-.308.15-.3a20.347,20.347,0,0,1,1.176-1.994,17.9,17.9,0,0,1,3.433-4.3c.224-.2.47-.366.7-.554a45.949,45.949,0,0,1,9.179-6.674l.164-.086c13.614-6.911,24.278-16.511,31.318-27.671Z" transform="translate(-3204.062 -1534.636)" fill="#60c1dd"/>
        <path id="Trazado_103121" data-name="Trazado 103121" d="M3330.966,1698.886c0,25.891-.346,46.887-.773,46.887s-.768-21-.768-46.887c0-25.953.345-46.937.768-46.937S3330.966,1672.934,3330.966,1698.886Z" transform="translate(-3250.324 -1558.071)" fill="#60c1dd"/>
        <path id="Trazado_103122" data-name="Trazado 103122" d="M3295.913,1802.547c-6.576-2.031-11.242-7.732-11.242-14.26v0c-.16-.014-.323-.017-.486-.022v-.016l-.173.008-.171-.008v.016c-.164.005-.326.008-.487.022v0c0,6.638-5.234,11.981-11.574,14.364-8.794,3.305-29.312,17.457-36.352,28.617h97.01C3325.392,1820.108,3304.093,1805.073,3295.913,1802.547Z" transform="translate(-3204.062 -1625.151)" fill="#60c1dd"/>
      </g>
      <g id="Grupo_88346" data-name="Grupo 88346" transform="translate(3220.908 1542.608)">
        <g id="Grupo_88341" data-name="Grupo 88341" transform="translate(0 0)">
          <g id="Grupo_88340" data-name="Grupo 88340">
            <path id="Trazado_103123" data-name="Trazado 103123" d="M3392.231,1725.448s-8.968-8.053-2.05-20.833c3.834-7.085,1.823-26.441-10.59-20.434s-9.051-1.483-16.059,1.859-10.112,8.367-9.169,13.851.331,15.931-3.979,17.94-24.958,13.246-11.652,27.441S3400.432,1749.043,3392.231,1725.448Z" transform="translate(-3334.324 -1683.041)" fill="#212957"/>
            <path id="Trazado_103124" data-name="Trazado 103124" d="M3399.708,1727.61s1.972,9.858.657,13.363,8.982.876,8.982.876-.438-8.106-.657-9.858S3399.708,1727.61,3399.708,1727.61Z" transform="translate(-3366.504 -1704.977)" fill="#f7b68b"/>
            <path id="Trazado_103125" data-name="Trazado 103125" d="M3408.69,1731.991c-.219-1.753-8.982-4.381-8.982-4.381s6.372,9.238,8.544,9.42a4,4,0,0,0,.814-.012C3408.937,1734.936,3408.79,1732.8,3408.69,1731.991Z" transform="translate(-3366.504 -1704.977)" fill="#ec9568"/>
            <path id="Trazado_103126" data-name="Trazado 103126" d="M3411.4,1708.2s.657,8.981-.438,11.611-1.533,4.6-4.162,4.381-6.791-4.162-9.2-5.7-4.162-3.286-3.286-5.477,1.971-.438,1.971.219,6.791,1.752,12.049-1.533C3409.644,1710.882,3411.616,1709.512,3411.4,1708.2Z" transform="translate(-3363.734 -1695.423)" fill="#f7b68b"/>
            <path id="Trazado_103127" data-name="Trazado 103127" d="M3414.864,1836.909l38.263-8.179s12.268-4.674,7.3,7.887-19.862,52.868-19.862,52.868l13.144,8.179h-18.693l7.886-52.577s-13.728,7.595-21.031,8.471-21.906.877-21.322-2.92S3414.864,1836.909,3414.864,1836.909Z" transform="translate(-3366.91 -1754.326)" fill="#212957"/>
            <path id="Trazado_103128" data-name="Trazado 103128" d="M3458.129,1948.4s-.292,2.848-.292,3.724,1.9,3.359,2.044,4.089l.146.73h-14.313s-.292-1.461,2.045-3.359,3.067-3.214,3.359-5.623S3458.129,1948.4,3458.129,1948.4Z" transform="translate(-3389.141 -1812.949)" fill="#7eb3ff"/>
            <path id="Trazado_103129" data-name="Trazado 103129" d="M3419.967,1755.215s8.324,1.314,9.42,4.6a16.327,16.327,0,0,1,.657,6.791C3430.044,1768.14,3419.529,1761.13,3419.967,1755.215Z" transform="translate(-3376.468 -1718.563)" fill="#dd000b"/>
            <path id="Trazado_103130" data-name="Trazado 103130" d="M3394.433,1753.058l8.982,1.1s10.077,10.515,12.268,10.954-.761,24.427-.219,27.675c.292,1.752-7.887,2.556-12.268,3.213a50.771,50.771,0,0,1-10.515,0,31.638,31.638,0,0,0,.657-14.24c-1.533-7.229-8.324-12.706-6.791-17.744S3383.7,1758.973,3394.433,1753.058Z" transform="translate(-3359.916 -1717.501)" fill="#ca4f4e"/>
            <path id="Trazado_103131" data-name="Trazado 103131" d="M3378.925,1764.25s2.409,6.791,1.972,11.172-1.752,15.116-1.752,15.116-2.629,12.487-7.667,10.953-4.6-15.773-1.1-24.755S3377.391,1762.059,3378.925,1764.25Z" transform="translate(-3350.761 -1722.778)" fill="#dd000b"/>
            <path id="Trazado_103132" data-name="Trazado 103132" d="M3369.456,1820.3s-.318,2.509-.433,3.044,2.1,1.687,4.563,2.218,22.929-6.031,24.8-6.411a39.7,39.7,0,0,1,7.054-.494c.987.1,2.314-2.414,2.148-4.242a4.8,4.8,0,0,0-.719-2.721.915.915,0,0,0-1.021-.12c-.374.139-1.08.476-1.9.892-.367.185-.757.385-1.152.59-1.888.981-3.874,2.065-3.874,2.065s-11.467-.347-16.272.633S3372.2,1817.98,3369.456,1820.3Z" transform="translate(-3351.4 -1746.255)" fill="#f7b68b"/>
            <path id="Trazado_103133" data-name="Trazado 103133" d="M3448.227,1813.86l-.985-.351-4.494-1.6.719,2.721-1.559,3.586,2.99,1.206s.544-.443.055-.772-1.169-.813-1.169-.813,1.545.11,2.21.141.819-.16.888-.48-.527-.674-.527-.674,1.27-.174,1.447-.472.483-.68.338-1.048S3448.5,1814.144,3448.227,1813.86Z" transform="translate(-3387.274 -1746.463)" fill="#ec9568"/>
            <path id="Trazado_103134" data-name="Trazado 103134" d="M3394.814,1830.078h10.515l34.174-7.3s9.055-2.921,5.842,5.842-14.6,56.957-14.6,56.957l-6.718-.584s1.168-31.838,4.382-37.387,3.5-7.3,3.5-7.3-21.322,11.392-30.085,10.808S3385.759,1843.806,3394.814,1830.078Z" transform="translate(-3362.049 -1751.584)" fill="#3b47bc"/>
            <path id="Trazado_103135" data-name="Trazado 103135" d="M3400.193,1838.192s-7.3,9.346-2.045,12.268,42.353-12.852,42.353-12.852-12.56,32.422-11.1,53.744" transform="translate(-3364.8 -1759.114)" fill="none" stroke="#8dcfff" stroke-miterlimit="10" stroke-width="0.649"/>
          </g>
        </g>
        <g id="Grupo_88345" data-name="Grupo 88345" transform="translate(53.229 46.291)">
          <g id="Grupo_88344" data-name="Grupo 88344">
            <path id="Trazado_103136" data-name="Trazado 103136" d="M3439.161,1824.471l-.02-.038.02-1.167h48.318v1.167s.008.025,0,.038l-.124.217c-.621,1.011-1.734,1.193-3.011,1.193H3442.3c-1.276,0-2.388-.182-3.01-1.193Z" transform="translate(-3439.141 -1798.346)" fill="#d0dee6"/>
            <path id="Trazado_103137" data-name="Trazado 103137" d="M3451.249,1825.111s.008.021,0,.032l-.12.177a1.965,1.965,0,0,1-.707.594h-7.347c-1.228,0-2.3-.147-2.9-.964l-.116-.178a.188.188,0,0,1-.022-.03l.012-.574h11.195Z" transform="translate(-3439.584 -1798.79)" fill="#b6c2c9"/>
            <g id="Grupo_88342" data-name="Grupo 88342" transform="translate(18.187 25.19)">
              <rect id="Rectángulo_34836" data-name="Rectángulo 34836" width="24.143" height="0.825" fill="#b6c2c9"/>
            </g>
            <g id="Grupo_88343" data-name="Grupo 88343" transform="translate(11.932)">
              <path id="Trazado_103138" data-name="Trazado 103138" d="M3462.638,1799.073l6.264-23.742a1.578,1.578,0,0,1,1.433-1.135h33.9a.845.845,0,0,1,.834,1.135l-6.264,23.742Z" transform="translate(-3462.638 -1774.195)" fill="#d7dfe2"/>
              <path id="Trazado_103139" data-name="Trazado 103139" d="M3500.313,1796.561a1.634,1.634,0,0,0,1.615,2.194,3.056,3.056,0,0,0,2.775-2.194,1.636,1.636,0,0,0-1.616-2.2A3.054,3.054,0,0,0,3500.313,1796.561Z" transform="translate(-3481.143 -1784.121)" fill="#b6c2c9"/>
            </g>
          </g>
        </g>
      </g>
      <g id="Grupo_88347" data-name="Grupo 88347" transform="translate(3181.659 1408.396)">
        <path id="Trazado_103140" data-name="Trazado 103140" d="M3551.08,1802.807q1.92-.491,3.807-1.032" transform="translate(-3401.756 -1607.266)" fill="none" stroke="#7eb3ff" stroke-miterlimit="10" stroke-width="3.88"/>
        <path id="Trazado_103141" data-name="Trazado 103141" d="M3425.269,1612c80.049-28.136,108.748-124.027,44.371-166.018-41.361-26.979-99.994-25.174-144.273,22.2-22.269,23.822,27.1,24.344,19.566,9.268-5.739-11.476-25.928-47.614-72.524-56.376" transform="translate(-3264.603 -1419.898)" fill="none" stroke="#7eb3ff" stroke-miterlimit="10" stroke-width="3.88" stroke-dasharray="15.572 15.572"/>
        <path id="Trazado_103142" data-name="Trazado 103142" d="M3260.943,1419.275q-1.926-.289-3.906-.516" transform="translate(-3257.037 -1418.759)" fill="none" stroke="#7eb3ff" stroke-miterlimit="10" stroke-width="3.88"/>
      </g>
      <g id="Grupo_88349" data-name="Grupo 88349" transform="translate(3139.199 1397.704)">
        <g id="Grupo_88348" data-name="Grupo 88348">
          <path id="Trazado_103143" data-name="Trazado 103143" d="M3217.757,1398.9l-44.33-1.192,36.086,5.277Z" transform="translate(-3173.427 -1397.704)" fill="#9ac7f7"/>
          <path id="Trazado_103144" data-name="Trazado 103144" d="M3209.522,1411.4l-36.1-13.7,36.086,5.277Z" transform="translate(-3173.427 -1397.704)" fill="#7eb3ff"/>
          <path id="Trazado_103145" data-name="Trazado 103145" d="M3209.522,1411.4l-36.1-13.7,30.423,9.143Z" transform="translate(-3173.427 -1397.704)" fill="#0561fc"/>
          <path id="Trazado_103146" data-name="Trazado 103146" d="M3195.077,1420.287l-21.65-22.583,30.423,9.143Z" transform="translate(-3173.427 -1397.704)" fill="#9ac7f7"/>
        </g>
      </g>
      <g id="Grupo_88350" data-name="Grupo 88350" transform="translate(3361.519 1469.839)">
        <path id="Trazado_103147" data-name="Trazado 103147" d="M3664.2,1577.121l1.817-7.22-3.66-1.8a23.564,23.564,0,0,0-.2-3.2l3.6-1.912-2.038-7.161-4.5.3a23.578,23.578,0,0,0-1.546-2.366l2.367-3.785-5.346-5.182-4,2.676a23.81,23.81,0,0,0-2.282-1.194l.165-4.712-7.22-1.817-2.158,4.387a23.622,23.622,0,0,0-2.526.065l-2.225-4.188-7.161,2.039.314,4.732a23.887,23.887,0,0,0-2.311,1.361l-3.857-2.412-5.182,5.346,2.456,3.668a23.974,23.974,0,0,0-1.5,2.594l-4.182-.147-1.815,7.22,3.563,1.753a23.628,23.628,0,0,0-.01,3.409l-3.291,1.749,2.038,7.16,3.539-.235a23.6,23.6,0,0,0,1.9,3.278l-1.758,2.811,5.346,5.182,2.695-1.8a23.876,23.876,0,0,0,3.529,1.964l-.108,3.07,7.22,1.814,1.385-2.814a23.7,23.7,0,0,0,4.1-.137l1.428,2.688,7.162-2.037-.217-3.275a23.6,23.6,0,0,0,3.315-2.13l2.757,1.723,5.181-5.344-2.022-3.02a23.823,23.823,0,0,0,1.62-3.224Zm-22.248,2.862a12.507,12.507,0,1,1,8.607-15.452A12.5,12.5,0,0,1,3641.956,1579.983Z" transform="translate(-3611.208 -1539.748)" fill="#60c1dd"/>
        <path id="Trazado_103148" data-name="Trazado 103148" d="M3642.68,1560.6a17.965,17.965,0,1,0,22.2,12.36A17.966,17.966,0,0,0,3642.68,1560.6Zm8.816,30.971a14.237,14.237,0,1,1,9.8-17.589A14.235,14.235,0,0,1,3651.5,1591.567Z" transform="translate(-3620.274 -1549.668)" fill="#2a75a9"/>
      </g>
      <g id="Grupo_88351" data-name="Grupo 88351" transform="translate(3306.748 1549.838)">
        <path id="Trazado_103149" data-name="Trazado 103149" d="M3503.356,1720.448a2.483,2.483,0,0,0,2.483,2.482h1.654l5.792,5.791v-5.791h19.031a2.482,2.482,0,0,0,2.483-2.482v-20.688a2.482,2.482,0,0,0-2.483-2.483h-26.478a2.483,2.483,0,0,0-2.483,2.483Z" transform="translate(-3503.356 -1697.278)" fill="#9ac7f7"/>
        <rect id="Rectángulo_34837" data-name="Rectángulo 34837" width="21.515" height="1.655" transform="translate(4.964 7.448)" fill="#fff"/>
        <rect id="Rectángulo_34838" data-name="Rectángulo 34838" width="21.515" height="1.653" transform="translate(4.964 11.586)" fill="#fff"/>
        <rect id="Rectángulo_34839" data-name="Rectángulo 34839" width="21.515" height="1.654" transform="translate(4.964 15.722)" fill="#fff"/>
      </g>
      <g id="Grupo_88352" data-name="Grupo 88352" transform="translate(3343.788 1524.63)">
        <path id="Trazado_103150" data-name="Trazado 103150" d="M3629.254,1655.557a20.951,20.951,0,0,0-15.622-7.886c-.387-.017-.775-.029-1.169-.03h-.005a20.7,20.7,0,0,0-6.72,1.065c-.06.021-.119.044-.18.063.06-.019.117-.041.177-.061l2.074,6.383a15.008,15.008,0,0,1,4.65-.738h0a15.023,15.023,0,0,1,12.175,6.207l5.432-3.947Q3629.673,1656.069,3629.254,1655.557Z" transform="translate(-3590.697 -1647.64)" fill="#194866"/>
        <path id="Trazado_103151" data-name="Trazado 103151" d="M3643.123,1669.055A14.968,14.968,0,0,1,3646,1677.9h6.712v0c0,.393-.012.782-.032,1.169a.474.474,0,0,0,0,.05c.023-.405.036-.812.036-1.224a21.659,21.659,0,0,0-4-12.572c-.31-.437-.426-.58-.163-.219Z" transform="translate(-3609.185 -1656.136)" fill="#2e9daa"/>
        <path id="Trazado_103152" data-name="Trazado 103152" d="M3606.9,1682.614a15.05,15.05,0,1,1-13.5-26.49l-2.073-6.383c-.06.02-.117.042-.177.061-.267.09-.533.183-.795.281-.076.028-.148.059-.226.088a21.358,21.358,0,0,0-13.822,19.378c-.01.206-.01.411-.013.618,0,.092-.006.18-.006.273,0,.017,0,.034,0,.05,0,.292.008.583.02.872.006.088.006.174.011.262.011.225.031.449.052.676.012.156.023.315.042.471.012.126.031.251.046.375.033.26.065.521.107.778a.371.371,0,0,1,.007.043,21.616,21.616,0,0,0,1.577,5.286c.092.205.181.411.278.614,0,.005.007.011.009.019a21.777,21.777,0,0,0,17.334,12.2l.131.012c.256.025.515.043.774.06.133.007.264.016.4.022.173.008.347.01.524.013.151,0,.3.012.454.012a21.656,21.656,0,0,0,12.789-4.16Z" transform="translate(-3576.294 -1648.674)" fill="#9ac7f7"/>
        <path id="Trazado_103153" data-name="Trazado 103153" d="M3641.521,1707.329a20.89,20.89,0,0,0,7.854-14.591c0-.04.007-.08.01-.118.027-.3.052-.6.067-.9,0-.017,0-.035,0-.05.018-.387.032-.775.032-1.169v0h-6.712a15.027,15.027,0,0,1-6.206,12.175l3.945,5.43h0l.005,0Q3641.034,1707.724,3641.521,1707.329Z" transform="translate(-3605.959 -1668.733)" fill="#b0bfde"/>
      </g>
      <path id="Trazado_103154" data-name="Trazado 103154" d="M3133.173,1836.661l-.085-4.1-3.65-.227a11.118,11.118,0,0,0-1.515-3.691l2.372-2.926-2.958-2.836-2.74,2.418a11.089,11.089,0,0,0-3.68-1.537l-.393-3.748-4.1.087-.227,3.647a11.18,11.18,0,0,0-3.69,1.514l-2.927-2.372-2.836,2.959,2.42,2.74a11.055,11.055,0,0,0-1.536,3.68l-3.747.393.086,4.1,3.648.229a11.037,11.037,0,0,0,1.514,3.688l-2.372,2.927,2.959,2.836,2.739-2.418a11.042,11.042,0,0,0,3.683,1.535l.39,3.748,4.1-.085.228-3.649a11.1,11.1,0,0,0,3.689-1.516l2.927,2.373,2.836-2.958-2.42-2.741a11.164,11.164,0,0,0,1.538-3.682Zm-14.531,3.416a5.413,5.413,0,1,1,5.3-5.526A5.413,5.413,0,0,1,3118.641,1840.077Z" transform="translate(0 -207.849)" fill="#3bb6d5"/>
      <g id="Grupo_88353" data-name="Grupo 88353" transform="translate(3353.525 1448.443)">
        <path id="Trazado_103155" data-name="Trazado 103155" d="M3619.258,1514.707a1.34,1.34,0,0,1-1.29,1.385h-2.5v5.19l-6.129-5.19h-12.574a1.341,1.341,0,0,1-1.294-1.385V1499a1.34,1.34,0,0,1,1.294-1.383h21.206a1.339,1.339,0,0,1,1.29,1.383Z" transform="translate(-3595.468 -1497.617)" fill="#9ac7f7"/>
        <path id="Trazado_103156" data-name="Trazado 103156" d="M3620.906,1511.779l-3.47,2-3.471,2v-8.013l3.471,2Z" transform="translate(-3604.572 -1502.615)" fill="#fff"/>
      </g>
      <g id="Grupo_88355" data-name="Grupo 88355" transform="translate(3350.987 1575.249)">
        <rect id="Rectángulo_34840" data-name="Rectángulo 34840" width="29.911" height="30.66" fill="#9ac7f7"/>
        <g id="Grupo_88354" data-name="Grupo 88354" transform="translate(7.14 8.254)">
          <path id="Trazado_103157" data-name="Trazado 103157" d="M3623.928,1767.686h-5.135a11.009,11.009,0,0,0,.616-1.656,7.145,7.145,0,0,0,0-1.255,1.206,1.206,0,0,0-1.207-1.206h-.6v1.861s-2.108,2.457-2.108,3.46v5.875a1.206,1.206,0,0,0,1.206,1.205h4.216a1.9,1.9,0,0,0,1.642-1.205l2.14-5.875A.816.816,0,0,0,3623.928,1767.686Z" transform="translate(-3609.925 -1763.569)" fill="#fff"/>
          <rect id="Rectángulo_34841" data-name="Rectángulo 34841" width="1.606" height="6.577" transform="translate(4.714 5.07)" fill="#fff"/>
          <rect id="Rectángulo_34842" data-name="Rectángulo 34842" width="2.863" height="8.284" transform="translate(0 4.117)" fill="#fff"/>
        </g>
      </g>
      <g id="Grupo_88356" data-name="Grupo 88356" transform="translate(3327.731 1408.777)">
        <rect id="Rectángulo_34843" data-name="Rectángulo 34843" width="37.437" height="27.227" rx="5.026" transform="translate(0)" fill="#ffbf0d"/>
        <rect id="Rectángulo_34844" data-name="Rectángulo 34844" width="37.437" height="27.227" rx="5.026" transform="translate(0)" fill="#60c1dd"/>
        <path id="Trazado_103158" data-name="Trazado 103158" d="M3579.56,1419.509h-32.332a2.552,2.552,0,0,0-2.552,2.552v1.337l29.7,23.338h5.183a2.553,2.553,0,0,0,2.552-2.553v-22.122A2.553,2.553,0,0,0,3579.56,1419.509Z" transform="translate(-3544.675 -1419.509)" fill="#2a75a9"/>
        <path id="Trazado_103159" data-name="Trazado 103159" d="M3563.394,1436.526l18.719-13.021v-1.444a2.553,2.553,0,0,0-2.552-2.552h-32.332a2.552,2.552,0,0,0-2.552,2.552v1.444Z" transform="translate(-3544.675 -1419.509)" fill="#60c1dd"/>
      </g>
    </g>
  </g>
</svg>
