<svg xmlns="http://www.w3.org/2000/svg" xmlns:xlink="http://www.w3.org/1999/xlink" width="410.419" height="375.575" viewBox="0 0 410.419 375.575">
  <defs>
    <clipPath id="clip-path">
      <ellipse id="Elipse_4948" data-name="Elipse 4948" cx="42.846" cy="46.014" rx="42.846" ry="46.014" fill="none"/>
    </clipPath>
    <clipPath id="clip-path-2">
      <ellipse id="Elipse_4952" data-name="Elipse 4952" cx="42.846" cy="45.945" rx="42.846" ry="45.945" fill="none"/>
    </clipPath>
    <clipPath id="clip-path-3">
      <path id="Trazado_103282" data-name="Trazado 103282" d="M2367,2222.2a42.847,42.847,0,0,1-42.846,42.847c-23.664,0-62.732-27.13-62.732-50.794s39.069-34.9,62.732-34.9A42.846,42.846,0,0,1,2367,2222.2Z" transform="translate(-2261.423 -2179.349)" fill="none"/>
    </clipPath>
    <clipPath id="clip-path-4">
      <circle id="Elipse_4954" data-name="Elipse 4954" cx="42.846" cy="42.846" r="42.846" transform="translate(0 60.594) rotate(-45)" fill="none"/>
    </clipPath>
    <clipPath id="clip-path-5">
      <circle id="Elipse_4956" data-name="Elipse 4956" cx="42.846" cy="42.846" r="42.846" fill="none"/>
    </clipPath>
  </defs>
  <g id="Grupo_88440" data-name="Grupo 88440" transform="translate(-275.224 -5635.425)">
    <rect id="Rectángulo_34845" data-name="Rectángulo 34845" width="265.572" height="265.572" rx="28" transform="translate(302.3 5823.212) rotate(-45)" fill="#636363" opacity="0.5"/>
    <g id="Grupo_88404" data-name="Grupo 88404" transform="translate(-1967.852 3718.276)">
      <g id="Grupo_88361" data-name="Grupo 88361" transform="translate(2332.352 1991.375)">
        <g id="Grupo_88360" data-name="Grupo 88360">
          <path id="Trazado_103160" data-name="Trazado 103160" d="M2529.84,2011.494c-69.806-10.021-134.766,38.626-144.789,108.412-10.02,69.806,38.625,134.73,108.429,144.758a127.884,127.884,0,0,0,36.359-253.17Z" transform="translate(-2383.743 -2010.186)" fill="#c5e1f9"/>
          <path id="Trazado_103161" data-name="Trazado 103161" d="M2568.132,2013.755a127.861,127.861,0,0,1-89.174,232.907c-1.868-.258-3.71-.586-5.553-.943a127.848,127.848,0,0,0,197.589-88.154C2680.748,2089.648,2634.915,2026.318,2568.132,2013.755Z" transform="translate(-2416.5 -2011.49)" fill="#b5d5ea"/>
          <g id="Grupo_88358" data-name="Grupo 88358" transform="translate(4.317 8.916)">
            <path id="Trazado_103162" data-name="Trazado 103162" d="M2754.056,2293.3c-1.69-.2-3.96.271-4.069.833s-2.564,1.278-3.361,1.484c-.8.19-2.632,2.324-3.055,3.044-.421.738-2.269.239-3.007.446s-2.339,1.155-2.445,1.842-.493.562-.827-.286l-1.063.818-1.238,1.041c-.9,1.867-3.32,4-4.066,4.142-.713.073-1.353,3.484-1.545,4.852a6.573,6.573,0,0,0,.652,3.944l-.012,1.118-.077,2.2a3.963,3.963,0,0,0,.771,3.664c.322.333,3.571-.047,4.82-.175a7.187,7.187,0,0,0,1.792-.444,127.061,127.061,0,0,0,17.4-28.348A3.944,3.944,0,0,0,2754.056,2293.3Z" transform="translate(-2514.312 -2122.519)" fill="#e1ebf4"/>
            <path id="Trazado_103163" data-name="Trazado 103163" d="M2420.817,2177.385c-.242.323,1.692,2.977,2.472,3.885.76.923,2.064,5,2.275,6.276a9.608,9.608,0,0,1-.52,3.8c-.178.448.218,1.579.247,2.037.009.439-1.387,4.047-1.28,5.579.1,1.547-2.644,5.923-2.925,8.258-.253,2.331.341,5.5.791,5.34.463-.178.267,2.192-.478,2.363s-1.84,1.91-1.443,2.062c.374.153-.312,1.919-.312,2.66s-.068,5.661-.11,6.87c-.028,1.234,1.246,4.4,1.474,5.44.21,1.055.316,2.988.427,3.289a3.693,3.693,0,0,0,.227.643,9.954,9.954,0,0,1,1.682,1.089c.4.368,3.12.554,4.038.517.888-.073.2-1-.138-1.5-.327-.5-.369-2.683-.8-2.971-.439-.27-.228-3.024.247-3.564.5-.552,2.27-1.273,2.508-1.761s.658-2.85.249-3.248c-.378-.376.589-3.18.475-4.647-.143-1.485,2.865-2.377,3.195-3.491s3.545-1.894,4.33-2.36c.768-.461,1.81-3.627,1.6-4.387-.23-.734,1.295-1.1,1.953-1a8.076,8.076,0,0,0,1.686-.229c.253.015,1.23-1.3,1.7-1.58s1.814-3.571,2.642-4.028a5.826,5.826,0,0,0,1.849-3.037,10.048,10.048,0,0,1,1.98-2.74c.44-.5,3.457-1.393,4.017-1.525.533-.136,1.95-4.578,2.41-6.2a45.311,45.311,0,0,1,1.719-4.21c.119-.524,1.113-.857,1.295-1,.212-.152,1.184-2.138,1.685-2.553a13.475,13.475,0,0,0,2.472-2.643,19.566,19.566,0,0,1,.9-2.45l.158-1.115.271-1.761c-.3-1.475-1.591-3.393-2.019-3.075-.459.308-1.995-1.528-2.844-2.008a17.032,17.032,0,0,0-3.6-1.119c-.567-.087-2.295-1.98-3.131-2.375s-3.015-1.156-3.377-1.473-.444-3.722-2.086-5.077c-1.646-1.338-4.445-4.335-4.671-5.318s-3.4-3.429-4.382-4.177a4.2,4.2,0,0,0-2.787-.913c-.251.169-1.293-2.033-1.9-2.7s-2.6-1.448-2.8-.944c-.149.509-1.483.036-1.76-.449-.232-.47-1.4-.022-1.93.083-.512.077-2.605,2.446-3.5,2.98-.886.509-1.661-.83-2.151-1.131a5.746,5.746,0,0,0-3.147.333c-.6.312-1.412-3.048-.9-4.459.494-1.4-.688-4.544-1.9-4.8-1.231-.249-1.172-3.34-.761-4.432s-1.953-2.144-2.564-2.29c-.616-.192-2.38,1.156-2.759,1.883s-5.717-1.879-4.565-5.132a15.752,15.752,0,0,1,5.011-6.685c.717-.3,4.349,0,5.084.565a1.332,1.332,0,0,0,1.68.037,10.533,10.533,0,0,1,3.884.958c.83.487,1.6,4.066,2.439,4.612.86.544,1.563-2.031,1.793-2.627a6.626,6.626,0,0,0-.267-2.792c-.161-.5,2.106-4.358,3.587-4.866,1.455-.517,3.263-2.591,3.2-3.012s1.189-.557,1.543-.684.438-3.5,1.107-4.151a16,16,0,0,1,4.31-2.019,3.207,3.207,0,0,0,1.538-2.652c-.261-.42,2.445-2.108,3.733-2.327,1.315-.215,2.224,1.036,1.913,1.164.246-.084,2.115-.748,2.93-1.125.921-.42.286-2.1-.2-2.638s.123-2.3.8-2.369,1.486-1.55,1.368-1.9c-.135-.38,2.718.644,3.95-.015,1.21-.661.034,2.024-.944,3.05a1.3,1.3,0,0,0,.838,2.149c.55-.158.981.765,1.048,1.084s1.275-.155,1.961.269c.7.453,1.312-.83,1.475-1.447.146-.6-1.5-2.134-1.673-2.917a48.916,48.916,0,0,1,.4-5.949c.093-.894-.874-2.494-1.316-2.29-.4.173-.806-2.447-1.329-3.085a3.111,3.111,0,0,1-.426-2.273c.083-.415-1.708-2.911-2.063-4s-1.1-.978-1.2-.533c-.129.472-1.583.336-2.187.182-.586-.148-.745-2.542-.633-3.4.126-.887-2.571-1.429-2.9-2.2-.333-.757-2.152-.693-2.372-1.208a2.79,2.79,0,0,0-2.042-1.066c-.359.119-1.089,6.436-1.632,8.105-.551,1.651-2.2,2.939-2.727,2.822-.513-.111-.372,1.184,0,1.118.391-.052-1.284,1.715-1.653,2.981-.363,1.247-1.478-.284-1.52-1.478s-1.106-2.973-1.4-2.6-1.059-.637-1.488-.441-2.6-1.81-3.491-2.5c-.892-.636-1.019-3.721-1.54-4.066s.009-.644.052-1.092c.051-.465,2.2-1.917,2.886-2.535a34.326,34.326,0,0,1,4.068-3.491,3.661,3.661,0,0,0,1.68-2.256c-.108-.282,3.76-.921,4.812-1.133,1.056-.2,2.331-2.859,2.577-3.643a3.481,3.481,0,0,0-.726-2.675c-.44-.252,1.433-.07,2,.338.586.383,2.6-.208,3.324.3.676.5,2.075,1.622,3.065,2.486l-.517,2-.967,3.4c-3.075.8-4.212,2.763-3.194,2.871s5.393,2.843,6.561,3.964c1.189,1.129,1.918-1.111,2.417-1.838a5.673,5.673,0,0,0,.452-3.433c-.25-.486,1.568-.07,2,.5s1.177-.342,1.627-.472c.412-.121.885-1.988,1.17-2.355.252-.336-.784-.9-.741-1.376.021-.48-1.917-1.705-2.541-2.115-.657-.431-.621-1.881-.24-2.093s.075-2.117-.173-2.78c-.241-.642-2.361-1.458-3.07-1.562-.737-.114-1.253-1.9-1.617-2.211a11.962,11.962,0,0,0-3.885-.906c-.71.111-1.659-2.26-2.921-1.762s-2.3-1.128-2.773-1.5-3.652,2.2-3.916,4.25c-.274,2.073.467,4.225.9,4.352s-.376,1.915-.926,2.381-1.553-.794-1.04-1.212c.5-.4-.815-2.794-1.248-3.761-.3-.7-1.663-1.458-2.568-1.983-.649.528-1.288,1.064-1.915,1.621a4.8,4.8,0,0,1-.141,2.5c-.6,1.215-1.7,1.248-1.677.7.016-.247-.471-.524-1.1-.681a127.385,127.385,0,0,0-37.965,62.074,7.606,7.606,0,0,1,1.178,2.325c.2,1.163,2.028,2.159,2.362,2.46.311.253.784-2.065.622-2.718s.589-.908.531-.454,1.438,2.778,1.943,3.621.423,5.742.862,6.861,5.689,4.078,7.434,4.7a9.776,9.776,0,0,1,3.98,3.6c.249.619,2.612,1.263,3.086,1.573s1.457,2.09,1.924,2.5a2.873,2.873,0,0,1,.683,1.7c-.026.245,2.939,1.89,3.588,2.848a1.7,1.7,0,0,0,2.214.583c.287-.314.619,1.8.859,2.534a4.654,4.654,0,0,1-.247,2.725c-.29.229-1.187,3.326-1.8,3.9a16.354,16.354,0,0,0-2.312,5.935,7.232,7.232,0,0,0,1.931,3.408.744.744,0,0,1-.337,1.3c-.507,0-.9,4.417.192,5.243C2420.329,2174.985,2421.03,2177.082,2420.817,2177.385Z" transform="translate(-2390.545 -2033.379)" fill="#e1ebf4"/>
            <path id="Trazado_103164" data-name="Trazado 103164" d="M2479.131,2133.016l.021-.008C2479.105,2133.039,2479.091,2133.032,2479.131,2133.016Z" transform="translate(-2422.9 -2063.974)" fill="#e1ebf4"/>
            <path id="Trazado_103165" data-name="Trazado 103165" d="M2474.778,2038.651c1.554-.042,4.123-.091,4.343-.5a2.56,2.56,0,0,0,.118-1.762c.227.042.517.107.742.126.557.084,1.977-2.935,2.688-3.583s4.326-1.245,5.228-1.627c.884-.377,2.948-1.857,3.677-1.956s1.962-1.581,1.857-1.936c-.114-.332,2.605-1.5,3.621-1.756,1.012-.269,1.662-1.308,1.295-1.42-.214-.052-5.908,1.95-11.124,4.005a127.636,127.636,0,0,0-17.392,10.283C2471.371,2038.622,2473.755,2038.68,2474.778,2038.651Z" transform="translate(-2419.511 -2024.234)" fill="#e1ebf4"/>
            <path id="Trazado_103166" data-name="Trazado 103166" d="M2566.416,2227.393c1.763-.741,5.091-4.416,6.124-5.129s2.135-3.707,2.414-4.358a4.436,4.436,0,0,1,2.344-1.606c.552-.088,3.139-6.667,4.8-7.952s4.4-8.249,4.59-10.876c.184-2.612,2-7.417,2.518-8.553a11.722,11.722,0,0,1,3.256-3.334,85.233,85.233,0,0,0,6.209-6.692c1.392-1.7,3.046-5.6,2.957-6.57-.083-.988-2.419-2-2.924-1.6-.51.409-2.851.467-3.57.355-.738-.1-1.857-4.242-2.773-5.2s-1.208-5.55-1.694-6.484a42.87,42.87,0,0,0-2.28-3.873c-.454-.574-.2-2.944-.227-3.632-.038-.653.95.57,1,1.538s2.186,5.172,2.835,6.584c.655,1.394,2.248,5.8,2.623,7.151s5.339,1.416,7.02.9,3.842-1.5,3.984-1.93c.133-.412,2.8-1.23,3.591-1.689s1.824-3.269,2.327-3.687c.535-.412.11-3.322-.282-4.229-.412-.9-2.837-1.94-3.385-1.673-.58.247-1.34-2.1-1.625-2.97-.246-.864-2.049-2.131-2.178-2.719s.719-1.349,1.063-1.5c.321-.148,3.511,2.861,4.385,4.259a28.034,28.034,0,0,1,1.825,4.264c.117.426,2.9,1.036,3.6.65.693-.364,1.4-.133,1.552.5l.91-.02,3.152-.053a6.318,6.318,0,0,1,1.373,3.544,3.109,3.109,0,0,0,1.249,1.928c.568.243.732,2.317.819,2.833a45.865,45.865,0,0,1,1.617,5.12,31.139,31.139,0,0,0,1.589,4.727,10.194,10.194,0,0,1,.217,3.225c-.077.512.91,1.7,1.605,1.77.7.044,2.758-4.177,3.328-5.76.548-1.6,1.893-2.794,2.2-2.757.334.051.727-.832.77-1.177s1.82-.054,2.048-.481c.213-.409,1.165-3.282,1.862-3.619a27.6,27.6,0,0,1,4.03-1.671c.826-.169,2.587,1.87,2.932,2.759a7.2,7.2,0,0,1,.236,3.325c-.233.31.75,2.281,1.851,2.417,1.069.117,1.2,1.573,1.169,2.072-.034.522,1.171,2.159,1.379,2.855a5.737,5.737,0,0,1-.4,2.8,10.088,10.088,0,0,0-.335,3.387c.11.683,2.941,4.514,4.041,5.723,1.1,1.193,2.139-1.834,1.636-2.876-.5-1.073-2.347-3.609-2.756-4.348-.4-.758-.108-3.471.183-4.178.3-.727,1.843.689,2.47,1.332a5.58,5.58,0,0,1,1.353,2.39c-.036.411,4.759-1.438,5.3-4.113.569-2.7,2.479-5.518,2.718-6.214.264-.708-.183-1.755-.575-1.838-.362-.1.977-1.973,2.233-1.766,1.231.22,4.7-2.7,5.618-3.921a10.021,10.021,0,0,1,2.663-2.246,23.312,23.312,0,0,0,2-4.41c.362-1.26-.238-3.429-.255-4.13a12.733,12.733,0,0,0-1.083-2.911,5.831,5.831,0,0,1,.033-2.69c.2-.313,1.376-.525,1.558-.8.157-.3,1.648-1.479,1.617-2.105,0-.607.694.894,1.211,1.492.507.578.7,3.9,1.376,4.353.675.473,4.159-2.882,4.159-5.375s1.65-5.417,2.4-5.611c.577-.145,2.245-1.91,3.382-3.176a128.026,128.026,0,0,0-24.1-53.621,1.331,1.331,0,0,1-.493-.09l-1.063-.374c-1.756-.656-2.528-2.739-2.139-3.157a1.385,1.385,0,0,0,.106-.846c-.882-1.057-1.8-2.1-2.72-3.134-.869-.149-1.767-.255-2.284-.357a9.96,9.96,0,0,1-3.706-1.792c-.347-.477-1.9.113-2.087.882-.208.776-2.728.776-3.04,1.35a1.367,1.367,0,0,1-1.825.044c-.206-.379-2.652.448-3.824.46a18.753,18.753,0,0,0-3.991.761,6.042,6.042,0,0,0-2.175,1.633,5.8,5.8,0,0,1-2.352,1.2c-.492.105-.692,2.254-.167,2.654.584.391-1.062-.411-1.768-.92-.733-.494-1.772.667-2.062,1.082-.318.417-.916-.4-.788-1.03s-1.741-1.42-2.062-.959c-.331.488-1.569-.4-2.07-.757-.518-.364-3.255,1.782-4.263,2.531s-5.337.859-6.077.4c-.728-.438-1.823,1.658-1.178,1.886s-1.694-.365-3.04-.407a21.369,21.369,0,0,0-6.368,1.448.985.985,0,0,1-1.54-.9c.065-.512-1.317-1.217-1.733-1.423s-1.673,2.67-2.524,3.13c-.854.479-1.312-2.577-3.037-3.312-1.709-.748-4.25-2.844-5.027-3.169a10.956,10.956,0,0,1-2.472-2.771c-.371-.525-2.6-1.265-3.342-1.375a11.31,11.31,0,0,0-3.974,1.364c-.719.437-1.659.192-2,.335s-3.372,2.388-4.532,3.053-3.473,3.921-4.165,4.671a2.477,2.477,0,0,1-1.95.768c-.342-.034-.759.864-.82,1.216-.049.335-3.322,1.5-3.845,2.84s-.357,4.611-.513,5.749.645,3.529,1.5,3.688c.823.151.113,1.975-.166,2.466-.3.492.374,1.191.262,1.622-.061.447-2.3.778-2.983.936a4.973,4.973,0,0,0-2.186,2.014c-.182.453-2.285.492-3.05,1.07a13.112,13.112,0,0,1,.794-1.4,2.538,2.538,0,0,0-.126-2.368c-.312-.308.077-4.026-.334-4.877a15.3,15.3,0,0,0-1.773-2.692c-.28-.308.394-1.187.652-1.573.221-.383-1.642-.894-2.2-.661-.55.205-1.348,3.818-1.733,4.791a3.249,3.249,0,0,0,.9,2.763c.308.136-.055,1.913-.715,1.872-.679-.035-1.672,2.506-1.43,3.15.271.657-.733,1.7-1.162,1.919s2.567.479,3.924.631c1.346.174,2.3.923,2.144,1.007-.14.1-2.643.1-3.159.614s-2.354,1.408-2.716,1.81c-.4.379.326,1.5,1.044,1.551.691.058,1.163,2.639,1.637,3.19.479.519.1,1.764-.183,2.1-.317.289-3.531-.778-4.82-.617-1.293.121-3.241,2.547-3.5,3.529a25.632,25.632,0,0,0-.3,4.729c.04.8,2.6,1.674,3.055,2.151.5.46,3.054.442,3.547.762.469.321,2.564-2.241,3.09-3.469.515-1.257,3.531-3.246,4.24-4.049.672-.809,3.538-.286,4.287-.646.8-.357.029,2.233.132,3.736.136,1.506,2.932,1.71,2.726.286-.224-1.411.547-1.913.585-1.395.079.492,2.556,1.965,2.946,2.805s.008,2.448-.573,2.344-.861,1.7-.262,2c.584.254,1.737-1.856,2.443-2.071.736-.256,1.476-1.556,1.165-1.705-.276-.148.763-1.274,1.089-.807a15.886,15.886,0,0,0-1.985-4.2c-.963-1.32-.252-.713,1.6,1.379l1.174,2.229c.208.41.45,1.582.627,2.031l.257.653a13.717,13.717,0,0,1,.083,3.263,2.309,2.309,0,0,0,1.617,1.782c.678.056,1.165.517,1.016.517-.143.015.265,1.442.953,1.567s1.234-1.6.542-1.752c-.686-.121-.2-2.678-.137-3.8.084-1.147.8-1.978,1.032-1.938s-.347,2.3-.425,2.821a7.636,7.636,0,0,0,.307,2.4l.616.669,1.423,1.451c2.409-.355,5.413.6,5.224,1.057s1.613.827,1.815.092c.225-.74.2.042.113.572-.053.5-1.87,2.352-2.246,3.249-.383.915-5.577-.481-7.828-.979-2.278-.509-5.725-.215-6.1.435-.326.637-3.579-2.117-5.105-3.047-1.523-.91-2.44-3.582-2.73-3.935-.3-.39.439-1.108.343-1.625s-3.795-1.137-4.92-.887c-1.146.234-6.812.019-8.192.428-1.406.385-3.309-.531-3.926-.73-.589-.191-2.339,1.428-3.117,1.637-.824.22-2.116,2.657-2.944,5.444l-1.309,1.818-.82,1.184c-2.038,1.124-4.745,5.5-5.5,6.359-.726.852-2.178,7.5-2.51,9.773s.969,7.349,1.343,8.746,3.359,4.82,4.41,5.688c1.032.85,4.724,1.477,5.956,1.655a3.794,3.794,0,0,0,3.424-2.125l1.762.436.8.19c-.093,1.012,2.424,2.183,3.016,2.623a5.877,5.877,0,0,0,2.9.354c.544-.084.448,4.651-.113,5.951-.573,1.266.028,6.181.2,7.639.19,1.487,1.243,5.591,1.2,7.015s-1.8,5.89-2.228,7.481,1.124,6.457,1.493,8.1a24.78,24.78,0,0,1,.236,5.833c-.1.778,1.613,5.816,1.906,7.827C2558.671,2226.774,2564.656,2228.1,2566.416,2227.393Z" transform="translate(-2442.242 -2042.272)" fill="#e1ebf4"/>
            <path id="Trazado_103167" data-name="Trazado 103167" d="M2762.371,2245.545c.14.355,1.808-.622,2.747-.628.948-.024,1.844-2.381,1.174-2.653-.7-.3-1.324-2.311-1.812-2.623-.49-.287-1.636.6-1.7,1.333-.068.771-1.79.823-2.208,1.389-.4.583-.469,1.02-.1,1.014C2760.816,2243.369,2762.282,2245.182,2762.371,2245.545Z" transform="translate(-2525.605 -2102.911)" fill="#e1ebf4"/>
            <path id="Trazado_103168" data-name="Trazado 103168" d="M2755.146,2267.8c.479-.115.319-2.6-.594-2.934-.937-.335-4.039,2.664-3.809,4.7.205,2,.773,1.96,1.1,1.592s1.811.522,2.237.753.5-.258.151-1.043S2754.652,2267.9,2755.146,2267.8Z" transform="translate(-2522.134 -2112.138)" fill="#e1ebf4"/>
            <path id="Trazado_103169" data-name="Trazado 103169" d="M2744.41,2260.729c.229-.844.795-3.531,1.008-4.033.213-.529-1.171-2.312-1.915-2.685-.768-.4-4.114,4.777-6.1,5.482-1.973.729-3.107,4-2.751,4.859.394.831,4.15,1.789,4.725,2.485.594.7,1.429.106,1.848.069s.331-.316.181-.436,1.585-1.485,1.94-2.445S2744.171,2261.566,2744.41,2260.729Z" transform="translate(-2516.237 -2108.172)" fill="#e1ebf4"/>
            <path id="Trazado_103170" data-name="Trazado 103170" d="M2729.63,2276.585c-1.345-.757-3.16-.146-3.365.39-.223.531,5.306,2.239,7.122,3.028,1.8.77,2.945,1.114,2.562.74C2735.555,2280.345,2730.991,2277.344,2729.63,2276.585Z" transform="translate(-2513.194 -2116.299)" fill="#e1ebf4"/>
            <path id="Trazado_103171" data-name="Trazado 103171" d="M2757.307,2219.53c.541-.564-.13-3.693-.756-3.084-.65.586-.506,2.36-.421,3C2756.226,2220.071,2756.756,2220.107,2757.307,2219.53Z" transform="translate(-2524.08 -2094.428)" fill="#e1ebf4"/>
            <path id="Trazado_103172" data-name="Trazado 103172" d="M2760.455,2230.906c.43-.7-.184-1.653-1.378-2.092-1.179-.434-1.537,3.275-1.062,3.834C2758.474,2233.174,2760,2231.64,2760.455,2230.906Z" transform="translate(-2524.721 -2098.962)" fill="#e1ebf4"/>
            <path id="Trazado_103173" data-name="Trazado 103173" d="M2766.837,2268.618c1.319,1.23,4.657,1.22,5.046-.748C2770.587,2266.71,2767.026,2266.378,2766.837,2268.618Z" transform="translate(-2528.019 -2112.913)" fill="#e1ebf4"/>
            <path id="Trazado_103174" data-name="Trazado 103174" d="M2774.745,2196.312a2.072,2.072,0,0,0-1.014,1.843,1.547,1.547,0,0,0-.257-.063c-.47-.069-.815,1.868-.346,2.27.45.4,1.945-1.253,2.678-1.6a3.651,3.651,0,0,1,2.2-.251,5.911,5.911,0,0,0,2.661-.395,2.112,2.112,0,0,0,.8-.755c-.056-1.458-.2-2.9-.344-4.344-.665.368-1.42.75-1.789.991C2778.6,2194.492,2775.633,2195.883,2774.745,2196.312Z" transform="translate(-2530.236 -2085.896)" fill="#e1ebf4"/>
            <path id="Trazado_103175" data-name="Trazado 103175" d="M2714.2,2251.756c0,.011.023.015.023.015C2713.986,2251.552,2713.962,2251.523,2714.2,2251.756Z" transform="translate(-2508.728 -2107.297)" fill="#e1ebf4"/>
            <path id="Trazado_103176" data-name="Trazado 103176" d="M2722.212,2261.379a15.706,15.706,0,0,0-3.243-5.085l-.482-1.08-.506-1.2c-.416-1.3-2.1-2.509-2.2-2.888s-.885.951-1.441.453c.286.279.9.853,1.749,1.655,1.533,1.47,3.625,10.19,4.271,10.88C2721.032,2264.8,2722.568,2262.646,2722.212,2261.379Z" transform="translate(-2508.839 -2107.1)" fill="#e1ebf4"/>
            <path id="Trazado_103177" data-name="Trazado 103177" d="M2688.535,2239.929c-.594.835,2,3.257,2.291,2.833a5.478,5.478,0,0,0-.412-3.368C2689.971,2238.8,2689.132,2239.06,2688.535,2239.929Z" transform="translate(-2499.38 -2102.724)" fill="#e1ebf4"/>
            <path id="Trazado_103178" data-name="Trazado 103178" d="M2618.285,2291.906c-.018,1,1.853,2.056,2.454,1.993.6-.091,2.646-2.822,2.98-3.636a17.817,17.817,0,0,0,.852-3.076,2.957,2.957,0,0,1,.719-1.46,5.673,5.673,0,0,0,1.147-2.111c.355-1.109-.334-6.5-.225-7.417s-1.13.315-1.521,1.2c-.428.886-3.265,2.4-3.963,3.1-.682.692-1.691,3.258-1.526,3.765a6.064,6.064,0,0,1-.883,2.687C2617.977,2287.412,2618.323,2290.909,2618.285,2291.906Z" transform="translate(-2473.704 -2116.166)" fill="#e1ebf4"/>
            <path id="Trazado_103179" data-name="Trazado 103179" d="M2463.171,2336.063c.568.082,1.149.161,1.752.254C2465.486,2334.479,2463.294,2334.482,2463.171,2336.063Z" transform="translate(-2417.078 -2137.735)" fill="#e1ebf4"/>
            <path id="Trazado_103180" data-name="Trazado 103180" d="M2549.642,2033.729a5.706,5.706,0,0,1-2.839-1.057,7.659,7.659,0,0,0-3.966-.869c-.843.213.044-2.038,1.225-2.131,1.156-.084.412-1.822-.768-2.01-1.218-.178-4.135-1.042-4.867-.988-.714.051-1.983-.784-2.506-.933-.472-.142-4.234.482-5.918.157a40.177,40.177,0,0,0-6.795-.61c-.952.1-1.855,1.781-1.815,2.416s-4.109.022-5.413-.127c-1.328-.186-8.52.3-10.493,1.045-1.95.725-3.757,3.093-3.156,3.224s-1.228,1.372-2.26,1.547c-1.033.206-3.4.023-4.021.5s.463,1.007.634,1.409.911-.208,1.468.268a31.52,31.52,0,0,0,3.09,1.148c.527.3-1.818.4-2.9.322s-1.135,2.05-.313,2.46c.829.426,3.017,1.057,3.3.733s2.593.762,3.7,1.062c1.05.262,1.5,3.137,1.745,3.775a8.772,8.772,0,0,1-.141,3.33c-.177.593,1.69,1.983,2.113,1.648.4-.329.122.986-.691.806-.786-.189-.607,2.2.345,2.68s.062,1.8-.578,2.153c-.618.344-.5,1.762-1.173,2.175-.658.392,1.34,5.4.973,7.767-.326,2.374.888,4.523,1.443,4.608s2.442.845,2.62,1.39c.2.53,1.273-.2,1.684-.527a19.6,19.6,0,0,0,2.122-2.27c.737-.932,2.774-5.508,3.031-5.98.253-.489,2.444.16,3-.03.522-.191,2.145-1.137,2.633-1.415.453-.286,3.831-1.168,4.82-1.682.94-.5,2.78-2.99,3.544-3.474.743-.479-.3-.47-1.062-1.146a.918.918,0,0,1-.024-1.526c.3-.233,2.758.838,3.6,1.3s2.705-.506,2.115-1.059-.227-.5.05-.265.867-1.479.581-1.846c-.293-.383,2.94-2.113,2.711-4.21-.192-2.107,1.412-4,2.192-3.905.8.089.889-2.207-.037-2.564-.9-.341,0-.421.427-.7a4.875,4.875,0,0,0,.98-2.659c-.15-.413,1.558-.6,1.919-1.028a7.932,7.932,0,0,1,3.075-1.1C2549.735,2035.491,2550.385,2033.74,2549.642,2033.729Z" transform="translate(-2429.021 -2024.61)" fill="#e1ebf4"/>
            <path id="Trazado_103181" data-name="Trazado 103181" d="M2602.195,2044.88c-.877-.425-2.83.294-2.694.9.16.617-1.384-.948-2.671-.489-1.292.44-1.927,2.511-1.411,2.871s.657,2.1.642,2.4c-.036.352,2.313.439,2.987.036s.271,1.781-.4,2.29-.043,1.8.593,1.988,1.288,1.827,1.959,1.91,2.176-2.307,2.568-3.219,2.489.14,3.477.6c.972.447,1.9-3.325.869-4.067-1.009-.733-2.417-.645-2.831-1.135a3.55,3.55,0,0,0-1.616-1.172C2603.2,2047.648,2603.026,2045.3,2602.195,2044.88Z" transform="translate(-2465.328 -2031.73)" fill="#e1ebf4"/>
            <path id="Trazado_103182" data-name="Trazado 103182" d="M2616.219,2047.623c1.721.506,3.95-.673,4.44-1.033.509-.347-4.734-2.22-6.777-2.569s-3.715-.324-3.767.09C2610.095,2044.513,2614.448,2047.1,2616.219,2047.623Z" transform="translate(-2470.762 -2031.372)" fill="#e1ebf4"/>
            <path id="Trazado_103183" data-name="Trazado 103183" d="M2556.88,2117.695c-.439-.258-.958,1.472-.929,2.16s1.637.859,2.376.845a1.391,1.391,0,0,0,1.409-1.092c.051-.592-.577-3.346-.992-3.418C2558.367,2116.135,2557.33,2117.96,2556.88,2117.695Z" transform="translate(-2450.974 -2057.829)" fill="#e1ebf4"/>
            <path id="Trazado_103184" data-name="Trazado 103184" d="M2565.442,2085.746c-.271-.712-3.081-1.022-3.773-1.162a8.735,8.735,0,0,1-3.013-1.641c-.325-.5-.92,1.62-1.615,1.818-.675.183.21.751.514.548.286-.188-.175,1.109-.531,1.526s1.733,1.057,1.89,1.8a1.78,1.78,0,0,0,1.828,1.285c.861.011,2.69-.632,3.29-.6S2565.72,2086.451,2565.442,2085.746Z" transform="translate(-2451.282 -2045.655)" fill="#e1ebf4"/>
            <path id="Trazado_103185" data-name="Trazado 103185" d="M2661.757,2072.9c1.083-.835,5.239-1.566,5.836-2.494a1.27,1.27,0,0,0-.416-1.911,1.592,1.592,0,0,0-1.083.51c-.114.141-4.806.583-6.313,1.053a16.845,16.845,0,0,0-3.93,1.771c-.677.52-2.295,4.886-2.686,5.331-.41.48,1.18,2.571,1.915,3.2a3.072,3.072,0,0,0,2.236.467c.336-.042.05-3.305-.2-4.449C2656.832,2075.207,2660.665,2073.721,2661.757,2072.9Z" transform="translate(-2486.466 -2040.403)" fill="#e1ebf4"/>
            <path id="Trazado_103186" data-name="Trazado 103186" d="M2661.732,2054.681c1.28,1.714,2.4-.3,4.03.131C2666.17,2051.787,2661.929,2052.244,2661.732,2054.681Z" transform="translate(-2489.62 -2034.633)" fill="#e1ebf4"/>
            <path id="Trazado_103187" data-name="Trazado 103187" d="M2707.412,2062.852c-.115.55,4,1.594,5.25,1.561s.05-2.158-1.737-2.291C2709.113,2061.973,2707.546,2062.31,2707.412,2062.852Z" transform="translate(-2506.307 -2038.063)" fill="#e1ebf4"/>
            <path id="Trazado_103188" data-name="Trazado 103188" d="M2461.614,2077.345c-.51.321-.419,2.431.407,2.616s2.606-2.767,3.56-2.017c.922.787,1.6,1.133,1.46.775-.115-.354-2.871-2.056-3.195-2.345C2463.524,2076.11,2462.109,2076.994,2461.614,2077.345Z" transform="translate(-2416.394 -2043.265)" fill="#e1ebf4"/>
            <path id="Trazado_103189" data-name="Trazado 103189" d="M2462.921,2189.161c-.051.353,1.766.563,2.158.03.357-.51.284-.993-.209-1.065S2462.965,2188.8,2462.921,2189.161Z" transform="translate(-2416.987 -2084.109)" fill="#e1ebf4"/>
            <path id="Trazado_103190" data-name="Trazado 103190" d="M2445.7,2180.369c.893-.051.275,1.311.41,1.848s2.188,1.241,2.539,1.644c.388.388,1.584-.428,2.417-.2.817.223.142-2.93-1.267-3.048-1.427-.111-2.349-1.626-2.646-1.854a19.715,19.715,0,0,1-2.217-1.849c-.4-.434-3.925-1.268-5.146-1.444a3.966,3.966,0,0,0-2.95,1.236c-.275.395,1.811.97,2.469.732s3.375.857,3.845,1.616A3.2,3.2,0,0,0,2445.7,2180.369Z" transform="translate(-2407.448 -2079.476)" fill="#e1ebf4"/>
            <path id="Trazado_103191" data-name="Trazado 103191" d="M2444.109,2186.809c-.055.352,1.822.4,2.259.48s.488-.227.076-.669C2446.016,2186.17,2444.173,2186.461,2444.109,2186.809Z" transform="translate(-2410.114 -2083.476)" fill="#e1ebf4"/>
            <path id="Trazado_103192" data-name="Trazado 103192" d="M2447.724,2172.4c-.43-.258-.918.428-.964.8a.6.6,0,0,0,.476.718C2447.559,2173.963,2448.184,2172.655,2447.724,2172.4Z" transform="translate(-2411.079 -2078.343)" fill="#e1ebf4"/>
            <path id="Trazado_103193" data-name="Trazado 103193" d="M2453.4,2173.3a1.905,1.905,0,0,0-1.117-.81c-.244-.036-.5.551-.553,1.285C2451.644,2174.544,2453.491,2173.667,2453.4,2173.3Z" transform="translate(-2412.896 -2078.398)" fill="#e1ebf4"/>
            <path id="Trazado_103194" data-name="Trazado 103194" d="M2456.558,2179.467c.8-.266,1.022-1.144.583-1.16-.46-.019-1.079-1.451-1.527-1.725-.449-.253-1,.691-1.056,1.106-.057.45.183.775.508.73C2455.416,2178.393,2455.776,2179.687,2456.558,2179.467Z" transform="translate(-2413.928 -2079.877)" fill="#e1ebf4"/>
            <path id="Trazado_103195" data-name="Trazado 103195" d="M2772.961,2272.893c-.4.144-2.309.1-2.494-.306-.194-.381-.72.675-1.137.79-.441.123-.357,1.132.273.913.463-.148,2.072,1.087,3.382,2.18.476-1.374.929-2.751,1.379-4.16C2773.807,2272.511,2773.222,2272.8,2772.961,2272.893Z" transform="translate(-2528.829 -2114.866)" fill="#e1ebf4"/>
          </g>
          <path id="Trazado_103196" data-name="Trazado 103196" d="M2484.506,2043.829c-.111-.145-.7.169-.494.43C2484.1,2044.43,2484.681,2044.123,2484.506,2043.829Z" transform="translate(-2420.36 -2022.464)" fill="#9ac7f7"/>
          <path id="Trazado_103197" data-name="Trazado 103197" d="M2497.132,2112.838c-.073-.157-.679.163-.492.419C2496.752,2113.432,2497.33,2113.123,2497.132,2112.838Z" transform="translate(-2424.976 -2047.674)" fill="#9ac7f7"/>
          <g id="Grupo_88359" data-name="Grupo 88359" transform="translate(4.317 8.916)">
            <path id="Trazado_103198" data-name="Trazado 103198" d="M2461.974,2181.454a13.475,13.475,0,0,0,2.472-2.643,19.566,19.566,0,0,1,.9-2.45l.158-1.115.271-1.761c-.3-1.475-1.591-3.393-2.019-3.075-.459.308-1.995-1.528-2.844-2.008a17.032,17.032,0,0,0-3.6-1.119c-.567-.087-2.295-1.98-3.131-2.375s-3.015-1.156-3.377-1.473-.444-3.722-2.086-5.077c-1.646-1.338-4.445-4.335-4.671-5.318s-3.4-3.429-4.382-4.177a4.2,4.2,0,0,0-2.787-.913c-.251.169-1.293-2.033-1.9-2.7s-2.6-1.448-2.8-.944c-.149.509-1.483.036-1.76-.449-.232-.47-1.4-.022-1.93.083-.512.077-2.605,2.446-3.5,2.98-.886.509-1.661-.83-2.151-1.131a5.746,5.746,0,0,0-3.147.333c-.6.312-1.412-3.048-.9-4.459.494-1.4-.688-4.544-1.9-4.8-1.231-.249-1.172-3.34-.761-4.432s-1.953-2.144-2.564-2.29c-.616-.192-2.38,1.156-2.759,1.883s-5.717-1.879-4.565-5.132a15.752,15.752,0,0,1,5.011-6.685c.717-.3,4.349,0,5.084.565a1.332,1.332,0,0,0,1.68.037,10.533,10.533,0,0,1,3.884.958c.83.487,1.6,4.066,2.439,4.612.86.544,1.563-2.031,1.793-2.627a6.626,6.626,0,0,0-.267-2.792c-.161-.5,2.106-4.358,3.587-4.866,1.455-.517,3.263-2.591,3.2-3.012s1.189-.557,1.543-.684.438-3.5,1.107-4.151a16,16,0,0,1,4.31-2.019,3.207,3.207,0,0,0,1.538-2.652c-.261-.42,2.445-2.108,3.733-2.327,1.315-.215,2.224,1.036,1.913,1.164.246-.084,2.115-.748,2.93-1.125.921-.42.286-2.1-.2-2.638s.123-2.3.8-2.369,1.486-1.55,1.368-1.9c-.135-.38,2.718.644,3.95-.015,1.21-.661.034,2.024-.944,3.05a1.3,1.3,0,0,0,.838,2.149c.55-.158.981.765,1.048,1.084s1.275-.155,1.961.269c.7.453,1.312-.83,1.475-1.447.146-.6-1.5-2.134-1.673-2.917a48.916,48.916,0,0,1,.4-5.949c.093-.894-.874-2.494-1.316-2.29-.4.173-.806-2.447-1.329-3.085a3.111,3.111,0,0,1-.426-2.273c.083-.415-1.708-2.911-2.063-4s-1.1-.978-1.2-.533c-.129.472-1.583.336-2.187.182-.586-.148-.745-2.542-.633-3.4.126-.887-2.571-1.429-2.9-2.2-.333-.757-2.152-.693-2.372-1.208a2.79,2.79,0,0,0-2.042-1.066c-.359.119-1.089,6.436-1.632,8.105-.551,1.651-2.2,2.939-2.727,2.822-.513-.111-.372,1.184,0,1.118.391-.052-1.284,1.715-1.653,2.981-.363,1.247-1.478-.284-1.52-1.478s-1.106-2.973-1.4-2.6-1.059-.637-1.488-.441-2.6-1.81-3.491-2.5c-.892-.636-1.019-3.721-1.54-4.066s.009-.644.052-1.092c.051-.465,2.2-1.917,2.886-2.535a34.326,34.326,0,0,1,4.068-3.491,3.661,3.661,0,0,0,1.68-2.256c-.108-.282,3.76-.921,4.812-1.133,1.056-.2,2.331-2.859,2.577-3.643a3.481,3.481,0,0,0-.726-2.675c-.44-.252,1.433-.07,2,.338.586.383,2.6-.208,3.324.3.676.5,2.075,1.622,3.065,2.486l-.517,2-.967,3.4c-3.075.8-4.212,2.763-3.194,2.871s5.393,2.843,6.561,3.964c1.189,1.129,1.918-1.111,2.417-1.838a5.673,5.673,0,0,0,.452-3.433c-.25-.486,1.568-.07,2,.5s1.177-.342,1.627-.472c.412-.121.885-1.988,1.17-2.355.252-.336-.784-.9-.741-1.376.021-.48-1.917-1.705-2.541-2.115-.657-.431-.621-1.881-.24-2.093s.075-2.117-.173-2.78c-.241-.642-2.361-1.458-3.07-1.562-.737-.114-1.253-1.9-1.617-2.211a11.962,11.962,0,0,0-3.885-.906c-.71.111-1.659-2.26-2.921-1.762s-2.3-1.128-2.773-1.5-3.652,2.2-3.916,4.25c-.274,2.073.467,4.225.9,4.352s-.376,1.915-.926,2.381-1.553-.794-1.04-1.212c.5-.4-.815-2.794-1.248-3.761-.3-.7-1.663-1.458-2.568-1.983-.649.528-1.288,1.064-1.915,1.621a4.8,4.8,0,0,1-.141,2.5c-.6,1.215-1.7,1.248-1.677.7.016-.247-.471-.524-1.1-.681a127.385,127.385,0,0,0-37.965,62.074,7.606,7.606,0,0,1,1.178,2.325c.2,1.163,2.028,2.159,2.362,2.46.311.253.784-2.065.622-2.718s.589-.908.531-.454,1.438,2.778,1.943,3.621.423,5.742.862,6.861,5.689,4.078,7.434,4.7a9.776,9.776,0,0,1,3.98,3.6c.249.619,2.612,1.263,3.086,1.573s1.457,2.09,1.924,2.5a2.873,2.873,0,0,1,.683,1.7c-.026.245,2.939,1.89,3.588,2.848a1.7,1.7,0,0,0,2.214.583c.287-.314.619,1.8.859,2.534a4.654,4.654,0,0,1-.247,2.725c-.29.229-1.187,3.326-1.8,3.9a16.354,16.354,0,0,0-2.312,5.935,7.232,7.232,0,0,0,1.931,3.408.744.744,0,0,1-.337,1.3c-.507,0-.9,4.417.192,5.243,1.093.81,1.794,2.907,1.581,3.211-.242.323,1.692,2.977,2.472,3.885.76.923,2.064,5,2.275,6.276a9.608,9.608,0,0,1-.52,3.8c-.178.448.218,1.579.247,2.037.009.439-1.387,4.047-1.28,5.579.1,1.547-2.644,5.923-2.925,8.258-.253,2.331.341,5.5.791,5.34.463-.178.267,2.192-.478,2.363s-1.84,1.91-1.443,2.062c.374.153-.312,1.919-.312,2.66s-.068,5.661-.11,6.87c-.028,1.234,1.246,4.4,1.474,5.44.21,1.055.316,2.988.427,3.289a3.693,3.693,0,0,0,.227.643,9.954,9.954,0,0,1,1.682,1.089c.4.368,3.12.554,4.038.517.888-.073.2-1-.138-1.5-.327-.5-.369-2.683-.8-2.971-.439-.27-.228-3.024.247-3.564.5-.552,2.27-1.273,2.508-1.761s.658-2.85.249-3.248c-.378-.376.589-3.18.475-4.647-.143-1.485,2.865-2.377,3.195-3.491s3.545-1.894,4.33-2.36c.768-.461,1.81-3.627,1.6-4.387-.23-.734,1.295-1.1,1.953-1a8.076,8.076,0,0,0,1.686-.229c.253.015,1.23-1.3,1.7-1.58s1.814-3.571,2.642-4.028a5.826,5.826,0,0,0,1.849-3.037,10.048,10.048,0,0,1,1.98-2.74c.44-.5,3.457-1.393,4.017-1.525.533-.136,1.95-4.578,2.41-6.2a45.311,45.311,0,0,1,1.719-4.21c.119-.524,1.113-.857,1.295-1C2460.5,2183.855,2461.472,2181.869,2461.974,2181.454Z" transform="translate(-2390.545 -2033.379)" fill="#eaf4fe"/>
            <line id="Línea_318" data-name="Línea 318" x1="0.021" y2="0.008" transform="translate(56.231 69.035)" fill="#eaf4fe"/>
            <path id="Trazado_103199" data-name="Trazado 103199" d="M2482.669,2032.93c.7-.646,4.326-1.245,5.228-1.627.884-.377,2.948-1.857,3.677-1.956s1.962-1.581,1.857-1.936c-.114-.332,2.605-1.5,3.621-1.756,1.012-.269,1.662-1.308,1.295-1.42-.214-.052-5.908,1.95-11.124,4.005a127.636,127.636,0,0,0-17.392,10.283c1.539.1,3.923.157,4.946.127,1.554-.042,4.123-.091,4.343-.5a2.56,2.56,0,0,0,.118-1.762c.227.042.517.107.742.126C2480.538,2036.6,2481.958,2033.578,2482.669,2032.93Z" transform="translate(-2419.511 -2024.234)" fill="#eaf4fe"/>
            <path id="Trazado_103200" data-name="Trazado 103200" d="M2631.819,2084.256c-.05.071-.107.126-.124.164-.318.416-.916-.4-.788-1.03s-1.741-1.42-2.062-.959c-.331.488-1.569-.4-2.07-.757-.518-.364-3.255,1.782-4.263,2.531s-5.337.859-6.077.4c-.728-.438-1.823,1.658-1.178,1.886s-1.694-.365-3.04-.407a21.384,21.384,0,0,0-6.368,1.448.985.985,0,0,1-1.54-.9c.065-.512-1.317-1.217-1.733-1.423s-1.673,2.67-2.524,3.13c-.854.479-1.312-2.578-3.037-3.312-1.709-.748-4.25-2.844-5.027-3.169a10.953,10.953,0,0,1-2.472-2.771c-.371-.525-2.6-1.265-3.342-1.375a11.315,11.315,0,0,0-3.974,1.364c-.719.437-1.659.192-2,.335s-3.372,2.388-4.532,3.053-3.473,3.921-4.165,4.671a2.476,2.476,0,0,1-1.95.768c-.342-.034-.759.864-.82,1.216-.049.335-3.322,1.5-3.845,2.839s-.357,4.611-.513,5.749.645,3.529,1.5,3.689c.823.151.113,1.974-.166,2.466-.3.492.374,1.191.262,1.622-.061.448-2.3.778-2.983.936a4.971,4.971,0,0,0-2.186,2.014c-.182.453-2.285.492-3.05,1.07a13.112,13.112,0,0,1,.794-1.4,2.537,2.537,0,0,0-.126-2.368c-.312-.308.077-4.026-.334-4.877a15.3,15.3,0,0,0-1.773-2.692c-.28-.308.394-1.187.652-1.573.221-.383-1.642-.894-2.2-.661-.55.205-1.348,3.818-1.733,4.791a3.249,3.249,0,0,0,.9,2.763c.308.136-.055,1.913-.715,1.872-.679-.036-1.672,2.506-1.43,3.15.271.657-.733,1.7-1.162,1.919s2.567.479,3.924.631c1.346.174,2.3.923,2.144,1.007-.14.1-2.643.1-3.159.614s-2.354,1.407-2.716,1.809c-.4.379.326,1.5,1.044,1.551.691.058,1.163,2.639,1.637,3.19.479.519.1,1.764-.183,2.1-.317.289-3.531-.778-4.82-.617-1.293.121-3.241,2.547-3.5,3.529a25.63,25.63,0,0,0-.3,4.729c.04.8,2.6,1.674,3.055,2.151.5.46,3.054.442,3.547.762.469.321,2.564-2.241,3.09-3.469.515-1.257,3.531-3.247,4.24-4.049.672-.809,3.538-.286,4.287-.646.8-.357.029,2.233.132,3.736.136,1.505,2.932,1.71,2.726.286-.224-1.412.547-1.914.585-1.4.079.493,2.556,1.965,2.946,2.805s.008,2.448-.573,2.344-.861,1.7-.262,2c.584.254,1.737-1.856,2.443-2.071.736-.256,1.476-1.556,1.165-1.705-.276-.148.763-1.274,1.089-.807a15.89,15.89,0,0,0-1.985-4.2c-.963-1.32-.252-.713,1.6,1.379l1.174,2.228c.208.41.45,1.582.627,2.031l.257.652a13.717,13.717,0,0,1,.083,3.263,2.309,2.309,0,0,0,1.617,1.782c.678.056,1.165.517,1.016.517-.143.015.265,1.442.953,1.567s1.234-1.6.542-1.752c-.686-.121-.2-2.678-.137-3.8.084-1.147.8-1.978,1.032-1.938s-.347,2.3-.425,2.821a7.635,7.635,0,0,0,.307,2.4l.616.67,1.423,1.451c2.409-.355,5.413.6,5.224,1.057s1.613.827,1.815.092c.225-.74.2.042.113.572-.053.5-1.87,2.352-2.246,3.249-.383.914-5.577-.481-7.828-.979-2.278-.509-5.725-.215-6.1.435-.326.637-3.579-2.117-5.105-3.047-1.523-.909-2.44-3.582-2.73-3.935-.3-.39.439-1.108.343-1.625s-3.795-1.137-4.92-.887c-1.146.234-6.812.019-8.192.428-1.406.385-3.309-.531-3.926-.73-.589-.191-2.339,1.428-3.117,1.638-.824.219-2.116,2.657-2.944,5.444l-1.309,1.818-.82,1.184c-2.038,1.124-4.745,5.5-5.5,6.359-.726.852-2.178,7.5-2.51,9.772s.969,7.349,1.343,8.746,3.359,4.82,4.41,5.688c1.032.851,4.724,1.477,5.956,1.655a3.794,3.794,0,0,0,3.424-2.126l1.762.436.8.19c-.093,1.012,2.424,2.183,3.016,2.623a5.874,5.874,0,0,0,2.9.354c.544-.084.448,4.651-.113,5.951-.573,1.266.028,6.181.2,7.64.19,1.486,1.243,5.591,1.2,7.015s-1.8,5.891-2.228,7.481,1.124,6.457,1.493,8.1a24.781,24.781,0,0,1,.236,5.833c-.1.777,1.613,5.816,1.906,7.826.255,2.023,6.24,3.349,8,2.643,1.763-.741,5.091-4.416,6.124-5.129s2.135-3.707,2.414-4.357a4.435,4.435,0,0,1,2.344-1.606c.552-.088,3.139-6.667,4.8-7.952s4.4-8.249,4.59-10.876c.184-2.612,2-7.417,2.518-8.552a11.716,11.716,0,0,1,3.256-3.334,85.277,85.277,0,0,0,6.209-6.692c1.392-1.7,3.046-5.6,2.957-6.57-.083-.988-2.419-2-2.924-1.6-.51.409-2.851.467-3.57.355-.738-.1-1.857-4.242-2.773-5.2s-1.208-5.549-1.694-6.484a42.87,42.87,0,0,0-2.28-3.873c-.454-.574-.2-2.944-.227-3.632-.038-.653.95.57,1,1.538s2.186,5.172,2.835,6.584c.655,1.394,2.248,5.8,2.623,7.151s5.339,1.416,7.02.9,3.842-1.5,3.984-1.93c.133-.412,2.8-1.23,3.591-1.689s1.824-3.269,2.327-3.687c.535-.411.11-3.322-.282-4.229-.412-.9-2.837-1.94-3.385-1.673-.58.247-1.34-2.1-1.625-2.97-.246-.864-2.049-2.13-2.178-2.719s.719-1.349,1.063-1.5c.321-.148,3.511,2.861,4.385,4.259a28.055,28.055,0,0,1,1.825,4.264c.117.427,2.9,1.036,3.6.651.693-.365,1.4-.133,1.552.5l.91-.02,3.152-.053a6.319,6.319,0,0,1,1.373,3.544,3.109,3.109,0,0,0,1.249,1.928c.568.243.732,2.317.819,2.833a45.865,45.865,0,0,1,1.617,5.12,31.133,31.133,0,0,0,1.589,4.727,10.192,10.192,0,0,1,.217,3.225c-.077.512.91,1.7,1.605,1.77.7.044,2.758-4.177,3.328-5.76.548-1.6,1.893-2.794,2.2-2.757.334.051.727-.832.77-1.177s1.82-.055,2.048-.482c.213-.409,1.165-3.282,1.862-3.619a27.6,27.6,0,0,1,4.03-1.671,1.423,1.423,0,0,1,1,.407c.3-1.735.618-3.466.876-5.221A127.366,127.366,0,0,0,2631.819,2084.256Z" transform="translate(-2442.242 -2043.772)" fill="#eaf4fe"/>
            <path id="Trazado_103201" data-name="Trazado 103201" d="M2690.826,2242.762a5.478,5.478,0,0,0-.412-3.368c-.443-.589-1.282-.334-1.879.535C2687.942,2240.765,2690.539,2243.187,2690.826,2242.762Z" transform="translate(-2499.38 -2102.724)" fill="#eaf4fe"/>
            <path id="Trazado_103202" data-name="Trazado 103202" d="M2618.285,2291.906c-.018,1,1.853,2.056,2.454,1.993.6-.091,2.646-2.822,2.98-3.636a17.817,17.817,0,0,0,.852-3.076,2.957,2.957,0,0,1,.719-1.46,5.673,5.673,0,0,0,1.147-2.111c.355-1.109-.334-6.5-.225-7.417s-1.13.315-1.521,1.2c-.428.886-3.265,2.4-3.963,3.1-.682.692-1.691,3.258-1.526,3.765a6.064,6.064,0,0,1-.883,2.687C2617.977,2287.412,2618.323,2290.909,2618.285,2291.906Z" transform="translate(-2473.704 -2116.166)" fill="#eaf4fe"/>
            <path id="Trazado_103203" data-name="Trazado 103203" d="M2463.171,2336.063c.568.082,1.149.161,1.752.254C2465.486,2334.479,2463.294,2334.482,2463.171,2336.063Z" transform="translate(-2417.078 -2137.735)" fill="#eaf4fe"/>
            <path id="Trazado_103204" data-name="Trazado 103204" d="M2515.981,2027.578c-1.328-.186-8.52.3-10.493,1.045-1.95.725-3.757,3.093-3.156,3.224s-1.228,1.372-2.26,1.547c-1.033.206-3.4.023-4.021.5s.463,1.007.634,1.409.911-.208,1.468.268a31.52,31.52,0,0,0,3.09,1.148c.527.3-1.818.4-2.9.322s-1.135,2.05-.313,2.46c.829.426,3.017,1.057,3.3.733s2.593.762,3.7,1.062c1.05.262,1.5,3.137,1.745,3.775a8.772,8.772,0,0,1-.141,3.33c-.177.593,1.69,1.983,2.113,1.648.4-.329.122.986-.691.806-.786-.189-.607,2.2.345,2.68s.062,1.8-.578,2.153c-.618.344-.5,1.762-1.173,2.175-.658.392,1.34,5.4.973,7.767-.326,2.374.888,4.523,1.443,4.608s2.442.845,2.62,1.39c.2.53,1.273-.2,1.684-.527a19.6,19.6,0,0,0,2.122-2.27c.737-.932,2.774-5.508,3.031-5.98.253-.489,2.444.16,3-.03.522-.191,2.145-1.137,2.633-1.415.453-.286,3.831-1.168,4.82-1.682.94-.5,2.78-2.99,3.544-3.474.743-.479-.3-.47-1.062-1.146a.918.918,0,0,1-.024-1.526c.3-.233,2.758.838,3.6,1.3s2.705-.506,2.115-1.059-.227-.5.05-.265.867-1.479.581-1.846c-.293-.383,2.94-2.113,2.711-4.21-.192-2.107,1.412-4,2.192-3.905.8.089.889-2.207-.037-2.564-.9-.341,0-.421.427-.7a4.875,4.875,0,0,0,.98-2.659c-.15-.413,1.558-.6,1.919-1.028a7.932,7.932,0,0,1,3.075-1.1c.683-.049,1.333-1.8.59-1.811a5.706,5.706,0,0,1-2.839-1.057,7.659,7.659,0,0,0-3.966-.869c-.843.213.044-2.038,1.225-2.131,1.156-.084.412-1.822-.768-2.01-1.218-.178-4.135-1.042-4.867-.988-.714.051-1.983-.784-2.506-.933-.472-.142-4.234.482-5.918.157a40.177,40.177,0,0,0-6.795-.61c-.952.1-1.855,1.781-1.815,2.416S2517.285,2027.727,2515.981,2027.578Z" transform="translate(-2429.021 -2024.61)" fill="#eaf4fe"/>
            <path id="Trazado_103205" data-name="Trazado 103205" d="M2599.236,2054.879c.64.184,1.288,1.827,1.959,1.91s2.176-2.307,2.568-3.219,2.489.14,3.477.6c.972.447,1.9-3.325.869-4.067-1.009-.733-2.417-.645-2.831-1.135a3.55,3.55,0,0,0-1.616-1.172c-.46-.149-.636-2.494-1.468-2.916-.877-.425-2.83.294-2.694.9.16.617-1.384-.948-2.671-.489-1.292.44-1.927,2.511-1.411,2.871s.657,2.1.642,2.4c-.036.352,2.313.439,2.987.036s.271,1.781-.4,2.29S2598.6,2054.694,2599.236,2054.879Z" transform="translate(-2465.328 -2031.73)" fill="#eaf4fe"/>
            <path id="Trazado_103206" data-name="Trazado 103206" d="M2620.659,2046.59c.509-.347-4.734-2.22-6.777-2.569s-3.715-.324-3.767.09c-.02.4,4.333,2.985,6.1,3.512C2617.94,2048.129,2620.169,2046.95,2620.659,2046.59Z" transform="translate(-2470.762 -2031.372)" fill="#eaf4fe"/>
            <path id="Trazado_103207" data-name="Trazado 103207" d="M2556.88,2117.695c-.439-.258-.958,1.472-.929,2.16s1.637.859,2.376.845a1.391,1.391,0,0,0,1.409-1.092c.051-.592-.577-3.346-.992-3.418C2558.367,2116.135,2557.33,2117.96,2556.88,2117.695Z" transform="translate(-2450.974 -2057.829)" fill="#eaf4fe"/>
            <path id="Trazado_103208" data-name="Trazado 103208" d="M2565.442,2085.746c-.271-.712-3.081-1.022-3.773-1.162a8.735,8.735,0,0,1-3.013-1.641c-.325-.5-.92,1.62-1.615,1.818-.675.183.21.751.514.548.286-.188-.175,1.109-.531,1.526s1.733,1.057,1.89,1.8a1.78,1.78,0,0,0,1.828,1.285c.861.011,2.69-.632,3.29-.6S2565.72,2086.451,2565.442,2085.746Z" transform="translate(-2451.282 -2045.655)" fill="#eaf4fe"/>
            <path id="Trazado_103209" data-name="Trazado 103209" d="M2655.85,2071.828c-.677.52-2.295,4.886-2.686,5.331-.41.48,1.18,2.571,1.915,3.2a3.072,3.072,0,0,0,2.236.467c.336-.042.05-3.305-.2-4.449-.282-1.168,3.551-2.655,4.643-3.477s5.239-1.566,5.836-2.494a1.27,1.27,0,0,0-.416-1.911,1.592,1.592,0,0,0-1.083.51c-.114.141-4.806.583-6.313,1.053A16.845,16.845,0,0,0,2655.85,2071.828Z" transform="translate(-2486.466 -2040.403)" fill="#eaf4fe"/>
            <path id="Trazado_103210" data-name="Trazado 103210" d="M2661.732,2054.7c1.28,1.714,2.4-.3,4.03.131a1.665,1.665,0,0,0-.017-.289q-.7-.884-1.406-1.782A2.269,2.269,0,0,0,2661.732,2054.7Z" transform="translate(-2489.62 -2034.648)" fill="#eaf4fe"/>
            <path id="Trazado_103211" data-name="Trazado 103211" d="M2461.614,2077.345c-.51.321-.419,2.431.407,2.616s2.606-2.767,3.56-2.017c.922.787,1.6,1.133,1.46.775-.115-.354-2.871-2.056-3.195-2.345C2463.524,2076.11,2462.109,2076.994,2461.614,2077.345Z" transform="translate(-2416.394 -2043.265)" fill="#eaf4fe"/>
            <path id="Trazado_103212" data-name="Trazado 103212" d="M2462.921,2189.161c-.051.353,1.766.563,2.158.03.357-.51.284-.993-.209-1.065S2462.965,2188.8,2462.921,2189.161Z" transform="translate(-2416.987 -2084.109)" fill="#eaf4fe"/>
            <path id="Trazado_103213" data-name="Trazado 103213" d="M2445.7,2180.369c.893-.051.275,1.311.41,1.848s2.188,1.241,2.539,1.644c.388.388,1.584-.428,2.417-.2.817.223.142-2.93-1.267-3.048-1.427-.111-2.349-1.626-2.646-1.854a19.715,19.715,0,0,1-2.217-1.849c-.4-.434-3.925-1.268-5.146-1.444a3.966,3.966,0,0,0-2.95,1.236c-.275.395,1.811.97,2.469.732s3.375.857,3.845,1.616A3.2,3.2,0,0,0,2445.7,2180.369Z" transform="translate(-2407.448 -2079.476)" fill="#eaf4fe"/>
            <path id="Trazado_103214" data-name="Trazado 103214" d="M2444.109,2186.809c-.055.352,1.822.4,2.259.48s.488-.227.076-.669C2446.016,2186.17,2444.173,2186.461,2444.109,2186.809Z" transform="translate(-2410.114 -2083.476)" fill="#eaf4fe"/>
            <path id="Trazado_103215" data-name="Trazado 103215" d="M2447.724,2172.4c-.43-.258-.918.428-.964.8a.6.6,0,0,0,.476.718C2447.559,2173.963,2448.184,2172.655,2447.724,2172.4Z" transform="translate(-2411.079 -2078.343)" fill="#eaf4fe"/>
            <path id="Trazado_103216" data-name="Trazado 103216" d="M2453.4,2173.3a1.905,1.905,0,0,0-1.117-.81c-.244-.036-.5.551-.553,1.285C2451.644,2174.544,2453.491,2173.667,2453.4,2173.3Z" transform="translate(-2412.896 -2078.398)" fill="#eaf4fe"/>
            <path id="Trazado_103217" data-name="Trazado 103217" d="M2456.558,2179.467c.8-.266,1.022-1.144.583-1.16-.46-.019-1.079-1.451-1.527-1.725-.449-.253-1,.691-1.056,1.106-.057.45.183.775.508.73C2455.416,2178.393,2455.776,2179.687,2456.558,2179.467Z" transform="translate(-2413.928 -2079.877)" fill="#eaf4fe"/>
          </g>
        </g>
      </g>
      <path id="Trazado_103218" data-name="Trazado 103218" d="M2436.944,2156.689a9.378,9.378,0,0,0-9.38,9.376c0,5.183,9.38,19.386,9.38,19.386s9.376-14.2,9.376-19.386A9.376,9.376,0,0,0,2436.944,2156.689Zm.53,12.626a2.778,2.778,0,1,1,2.188-2.163A2.781,2.781,0,0,1,2437.474,2169.315Z" transform="translate(-67.4 -72.334)" fill="#ca4f4e"/>
      <path id="Trazado_103219" data-name="Trazado 103219" d="M2461.726,2091.742a9.379,9.379,0,0,0-9.38,9.377c0,5.184,9.38,19.386,9.38,19.386s9.376-14.2,9.376-19.386A9.377,9.377,0,0,0,2461.726,2091.742Zm.53,12.627a2.778,2.778,0,1,1,2.188-2.163A2.781,2.781,0,0,1,2462.256,2104.369Z" transform="translate(-76.454 -48.607)" fill="#ca4f4e"/>
      <g id="Grupo_88368" data-name="Grupo 88368" transform="translate(2288.723 1994.777)">
        <g id="Grupo_88367" data-name="Grupo 88367">
          <g id="Grupo_88366" data-name="Grupo 88366" clip-path="url(#clip-path)">
            <g id="Grupo_88365" data-name="Grupo 88365" transform="translate(3.125 7.81)">
              <g id="Grupo_88363" data-name="Grupo 88363" transform="translate(6.793)">
                <path id="Trazado_103220" data-name="Trazado 103220" d="M2332.677,2071.357s11.5-7.254,4.92-21.616c-3.645-7.962,1.052-28.032,14.894-20.046s10.8-.338,18.623,4.118,10.858,10.155,9.088,15.791-2.31,16.7,2.5,19.389,19.96,18.156,2.63,31.279S2320.206,2095.047,2332.677,2071.357Z" transform="translate(-2330.627 -2027.851)" fill="#212957"/>
                <g id="Grupo_88362" data-name="Grupo 88362" transform="translate(20.257 15.18)">
                  <path id="Trazado_103221" data-name="Trazado 103221" d="M2369.366,2067.946c-.527-6.448-5.189,1.512-5.189,1.512s2.238,8.322,0,14.428c.84.5,9.129,10.979,13.348,1.579C2372.768,2079.277,2369.709,2072.177,2369.366,2067.946Z" transform="translate(-2363.141 -2056.758)" fill="#f7b68b"/>
                  <path id="Trazado_103222" data-name="Trazado 103222" d="M2365.1,2075.448a11.5,11.5,0,0,0,4.637,3.248,11.329,11.329,0,0,0,3.8.723c-2.444-4.357-3.944-8.584-4.178-11.473-.527-6.448-5.189,1.512-5.189,1.512A34.641,34.641,0,0,1,2365.1,2075.448Z" transform="translate(-2363.141 -2056.758)" fill="#ec9568"/>
                  <path id="Trazado_103223" data-name="Trazado 103223" d="M2372.567,2051.769s4.227,6.459,4.5,10.448.841,9.094-3.127,9.507c-3.178.329-6.8-4.192-8.864-6.05-2-1.809,2.055-5.083-2.354-11.676C2361.13,2051.617,2370.747,2054.37,2372.567,2051.769Z" transform="translate(-2362.545 -2051.769)" fill="#f7b68b"/>
                </g>
              </g>
              <g id="Grupo_88364" data-name="Grupo 88364" transform="translate(48.026 75.924)">
                <path id="Trazado_103224" data-name="Trazado 103224" d="M2399.179,2148.276l14.367,24.331s-.927,4.171-3.244,1.854-9.733-8.342-9.733-8.342S2390.373,2142.946,2399.179,2148.276Z" transform="translate(-2395.596 -2147.479)" fill="#ec9568"/>
                <path id="Trazado_103225" data-name="Trazado 103225" d="M2416.941,2185.611s1.159,4.634,1.622,6.951,2.781,8.574,3.708,9.5l.927.927-1.622-5.908,1.739,2.085a30.058,30.058,0,0,0,1.274,3.939,2.44,2.44,0,0,0,.927.7c1.159.579,1.391-.116,1.391-.116l-.811-4.4-1.274-3.244,2.085,1.969s.463,3.708.811,4.056,1.158.115,1.158.115l-.811-5.214-3.36-4.866s.7-.348,1.507.7a3.243,3.243,0,0,0,2.2,1.507c.58,0-1.622-3.013-2.2-3.476s-1.507-3.36-4.055-4.171A27.474,27.474,0,0,0,2416.941,2185.611Z" transform="translate(-2403.394 -2161.411)" fill="#ec9568"/>
              </g>
              <path id="Trazado_103226" data-name="Trazado 103226" d="M2333.067,2353.436s-.309,3.013-.309,3.939,2.008,3.553,2.163,4.326l.154.772h-15.139s-.309-1.545,2.163-3.554,3.244-3.4,3.553-5.947S2333.067,2353.436,2333.067,2353.436Z" transform="translate(-2319.924 -2146.257)" fill="#c5e1f9"/>
              <path id="Trazado_103227" data-name="Trazado 103227" d="M2372.683,2353.993l-1.544,8.342h23.635a3.415,3.415,0,0,0-2.626-3.4c-2.78-.772-10.351-3.09-12.359-5.562S2372.683,2353.993,2372.683,2353.993Z" transform="translate(-2338.635 -2146.427)" fill="#c5e1f9"/>
              <path id="Trazado_103228" data-name="Trazado 103228" d="M2391.038,2097.435c-1.771-1.328-5.1-3.707-9.617-3.476s2.665,7.531,6.141,9.848,5.1,1.506,5.1,1.506S2393.356,2099.173,2391.038,2097.435Z" transform="translate(-2341.862 -2051.997)" fill="#afafaf"/>
              <path id="Trazado_103229" data-name="Trazado 103229" d="M2390.646,2163.414s7.089,22.736-2.713,62.631c-2.084,8.483-1.612,9.779-2.906,17.028-4.017,22.5-4.953,40.36-5.681,41.021-1.656,1.505-6.463-.064-8.112-.7-.683-.265,2.334-49.747,2.67-55.618.48-8.405-3.128-19.657-1.131-29.057C2374.872,2188.841,2389.036,2158.5,2390.646,2163.414Z" transform="translate(-2338.633 -2077.182)" fill="#212957"/>
              <path id="Trazado_103230" data-name="Trazado 103230" d="M2347.487,2164.434s-6.488,14.135-7.183,20.623c-.667,6.221-1.159,43.332-1.159,43.332s-5.33,12.513-6.951,18.538-3.244,37.539-3.244,37.539l7.416.463L2360,2198.266l16.221-32.828Z" transform="translate(-2323.221 -2077.75)" fill="#3b47bc"/>
              <path id="Trazado_103231" data-name="Trazado 103231" d="M2349.64,2176.825c-5.785,13.378-7.146,57.25-7.146,57.25s-10.891,25.258-11.354,50.748" transform="translate(-2324.021 -2082.277)" fill="none" stroke="#7eb3ff" stroke-miterlimit="10" stroke-width="1.285"/>
              <path id="Trazado_103232" data-name="Trazado 103232" d="M2357.4,2093.989s-5.446,5.33-4.75,10.428,3.322,7.3,4.248,13.788-3.758,24.046-2.674,24.769c13.217,8.812,32.18,4.7,32.18,4.7s-5.175-25.26-2.008-32.56c1.2-2.771.811-9.076-2.9-11.393s-9.153-10.2-9.153-10.2S2360.756,2092.251,2357.4,2093.989Z" transform="translate(-2331.856 -2051.68)" fill="#636363"/>
              <path id="Trazado_103233" data-name="Trazado 103233" d="M2352.029,2094.515s-5.445.464-7.415,4.75-6.72,23.4-6.72,28.154a28.753,28.753,0,0,0,.58,6.836l12.4-6.6S2353.651,2094.979,2352.029,2094.515Z" transform="translate(-2326.489 -2052.206)" fill="#afafaf"/>
              <path id="Trazado_103234" data-name="Trazado 103234" d="M2402.663,2126.945h-6.829a.945.945,0,0,1-.887-1.394l5.606-15.4a2.214,2.214,0,0,1,1.9-1.394h6.83a.945.945,0,0,1,.887,1.394l-5.607,15.4A2.212,2.212,0,0,1,2402.663,2126.945Z" transform="translate(-2347.3 -2057.408)" fill="#eaf4fe"/>
              <path id="Trazado_103235" data-name="Trazado 103235" d="M2338.807,2147.132s.231,2.665.231,3.244,2.55,1.274,5.214,1.274,22.362-11.354,24.215-12.166a41.951,41.951,0,0,1,7.183-2.085c1.043-.115,1.854-3.012,1.274-4.866-.383-1.227-.767-2.3-1.351-2.653a.967.967,0,0,0-1.082.1c-1.274.811-6.372,5.214-6.372,5.214s-11.934,2.2-16.684,4.286S2341.124,2144.12,2338.807,2147.132Z" transform="translate(-2326.823 -2065.082)" fill="#f7b68b"/>
              <path id="Trazado_103236" data-name="Trazado 103236" d="M2402.841,2130.749l-6.1-.8,1.351,2.653-.811,4.056,3.36.579s.463-.579-.116-.81-1.391-.579-1.391-.579,1.622-.232,2.317-.348.811-.348.811-.695-.695-.58-.695-.58,1.274-.463,1.39-.811.348-.811.116-1.158S2403.188,2130.981,2402.841,2130.749Z" transform="translate(-2347.987 -2065.152)" fill="#ec9568"/>
            </g>
          </g>
        </g>
        <circle id="Elipse_4949" data-name="Elipse 4949" cx="42.846" cy="42.846" r="42.846" transform="translate(0 6.335)" fill="none" stroke="#0561fc" stroke-width="1.285"/>
      </g>
      <g id="Grupo_88369" data-name="Grupo 88369" transform="translate(2274.606 2098.736)">
        <circle id="Elipse_4950" data-name="Elipse 4950" cx="42.846" cy="42.846" r="42.846" transform="translate(0 0)" fill="none" stroke="#0561fc" stroke-width="1.285"/>
      </g>
      <circle id="Elipse_4951" data-name="Elipse 4951" cx="42.846" cy="42.846" r="42.846" transform="translate(2458.172 2139.934) rotate(-45)" fill="none" stroke="#0561fc" stroke-width="1.285"/>
      <g id="Grupo_88372" data-name="Grupo 88372" transform="translate(2475.919 2090.891)">
        <g id="Grupo_88371" data-name="Grupo 88371" transform="translate(0 0)" clip-path="url(#clip-path-2)">
          <g id="Grupo_88370" data-name="Grupo 88370" transform="translate(4.19 4.78)">
            <path id="Trazado_103237" data-name="Trazado 103237" d="M2630.642,2459.316l.581,6.506s-7.087,1.627-9.411,1.394-5.228-.348-5.228-.348a2,2,0,0,1,1.394-2.208c1.742-.813,7.2-2.672,7.784-3.021a5.708,5.708,0,0,0,1.277-1.742Z" transform="translate(-2616.555 -2278.566)" fill="#212957"/>
            <path id="Trazado_103238" data-name="Trazado 103238" d="M2684.944,2462.535l-.116,4.415a23.339,23.339,0,0,1-5.112,2.44,11.718,11.718,0,0,1-3.95-.116s-.7-1.394.233-2.091,4.182-3.486,4.531-4.3S2684.944,2462.535,2684.944,2462.535Z" transform="translate(-2638.095 -2279.693)" fill="#212957"/>
            <path id="Trazado_103239" data-name="Trazado 103239" d="M2662,2292.733h21.377s1.473,12.085,1.395,16.265c-.232,12.317-2.634,49.725-2.634,49.725l-1.24,41.825-6.2.309-3.718-49.26-4.027-50.809Z" transform="translate(-2633.157 -2217.707)" fill="#003e99"/>
            <path id="Trazado_103240" data-name="Trazado 103240" d="M2636.821,2399l10.534-49.26,13.632-46.472v-10.533h-16.11l-8.984,53.288-4.647,53.907Z" transform="translate(-2621.922 -2217.707)" fill="#003e99"/>
            <path id="Trazado_103241" data-name="Trazado 103241" d="M2662.094,2181.076s-1.287-3.272-1.084-4.337c.619-3.253,2.943-1.394,2.943-1.394s4.337-1.859,6.971,0,3.873,2.943,3.873,4.182-1.7-.929,0-1.239,2.788,2.169,2.168,4.183-1.239,7.745-4.647,8.365S2662.094,2181.076,2662.094,2181.076Z" transform="translate(-2632.788 -2174.519)" fill="#212957"/>
            <path id="Trazado_103242" data-name="Trazado 103242" d="M2665.9,2211.6l.465-8.055,6.506-3.563.93,13.322-3.718,6.816Z" transform="translate(-2634.584 -2183.822)" fill="#f7b68b"/>
            <path id="Trazado_103243" data-name="Trazado 103243" d="M2666.137,2209.3c4.877-.945,5.829-5.7,5.95-8.563l-5.634,3.085Z" transform="translate(-2634.669 -2184.097)" fill="#ec9568"/>
            <path id="Trazado_103244" data-name="Trazado 103244" d="M2660.833,2180.457a35.829,35.829,0,0,0-3.408,9.759c-.619,4.492-.464,8.365,1.859,8.21s7.591-1.549,10.069-3.408,4.337-5.422,2.788-6.2-2.633.929-2.633.929-1.395-.929-.465-3.1,6.042-5.422,1.084-4.957S2660.214,2182.006,2660.833,2180.457Z" transform="translate(-2631.373 -2176.688)" fill="#f7b68b"/>
            <path id="Trazado_103245" data-name="Trazado 103245" d="M2645.157,2227.546c.774-.155,12.392-6.816,12.392-6.816l4.8,3.408,3.872-3.253,14.251,4.957-2.788,26.489-.465,14.1h-27.263Z" transform="translate(-2627.005 -2191.401)" fill="#60c1dd"/>
            <path id="Trazado_103246" data-name="Trazado 103246" d="M2669.485,2223.247l-4.028-4.957-.774,1.549,1.549,8.055Z" transform="translate(-2634.138 -2190.51)" fill="#fff"/>
            <path id="Trazado_103247" data-name="Trazado 103247" d="M2672.25,2223.157l2.633,3.718,2.479-7.436-1.7-1.394Z" transform="translate(-2636.903 -2190.42)" fill="#fff"/>
            <path id="Trazado_103248" data-name="Trazado 103248" d="M2633.89,2264.354c-2.075-2.787,1.819-7.331,2.594-12.1s3.1-20.921,4.337-20.781,4.183,21.483,4.183,21.483l-2.08,12.482S2635.435,2266.429,2633.89,2264.354Z" transform="translate(-2622.668 -2195.324)" fill="#fff"/>
            <path id="Trazado_103249" data-name="Trazado 103249" d="M2698.755,2228.785l15.336,27.883.93,1.859-.31,4.027-9.294-2.168-.155-3.1-10.069-14.406Z" transform="translate(-2645.284 -2194.344)" fill="#fff"/>
            <path id="Trazado_103250" data-name="Trazado 103250" d="M2705.764,2278.088l-9.6,15.026h-3.408s-1.859.31-1.085,2.478a9.042,9.042,0,0,0,2.479,3.563l3.873-3.1,14.1-15.18Z" transform="translate(-2643.927 -2212.356)" fill="#f7b68b"/>
            <path id="Trazado_103251" data-name="Trazado 103251" d="M2630.679,2262.513,2624,2239.6l.8-2.849-1.08-3.435s.447-.169.552.074c.629,1.451,3.338,6.368,3.338,6.368.455-1.121.678-3.453,1.2-2.32s.155,4.474.2,5.112a4.972,4.972,0,0,1-.561,1.806s8.044,14.06,8.04,15.968C2636.481,2262.85,2630.679,2262.513,2630.679,2262.513Z" transform="translate(-2619.171 -2195.98)" fill="#f7b68b"/>
            <path id="Trazado_103252" data-name="Trazado 103252" d="M2624.32,2237.106s-1.138-3.114-1.436-3.621c-.1-.172-.9-.331-.8-.037s1.2,3.376,1.694,4.357S2624.32,2237.106,2624.32,2237.106Z" transform="translate(-2618.573 -2195.988)" fill="#f7b68b"/>
            <path id="Trazado_103253" data-name="Trazado 103253" d="M2623.748,2239.044s-1.435-2.881-2.16-3.94c-.115-.167-.761-.294-.663,0s1.62,3.339,2.111,4.271C2623.548,2240.347,2623.748,2239.044,2623.748,2239.044Z" transform="translate(-2618.148 -2196.589)" fill="#f7b68b"/>
            <path id="Trazado_103254" data-name="Trazado 103254" d="M2623.972,2242.159s-1.531-3.091-2.428-3.712c-.112-.077-.489-.137-.36.146s1.586,3.395,2.176,4.321S2623.972,2242.159,2623.972,2242.159Z" transform="translate(-2618.236 -2197.85)" fill="#f7b68b"/>
          </g>
        </g>
      </g>
      <path id="Trazado_103255" data-name="Trazado 103255" d="M2463.1,2151.121s52.264-34.261,110.469-5.2" transform="translate(-80.383 -64.129)" fill="none" stroke="#7eb3ff" stroke-miterlimit="10" stroke-width="2.452" stroke-dasharray="5.14"/>
      <path id="Trazado_103256" data-name="Trazado 103256" d="M2470.79,2124.492s65.626-22.779,105.587,15.411" transform="translate(-83.193 -58.109)" fill="none" stroke="#7eb3ff" stroke-miterlimit="10" stroke-width="2.452" stroke-dasharray="5.14"/>
      <path id="Trazado_103257" data-name="Trazado 103257" d="M2645.121,2160.661s42.857-25.757,71.868,16.68" transform="translate(-146.882 -70.956)" fill="none" stroke="#7eb3ff" stroke-miterlimit="10" stroke-width="2.452" stroke-dasharray="5.14"/>
      <path id="Trazado_103258" data-name="Trazado 103258" d="M2757.405,2164.38a9.378,9.378,0,0,0-9.38,9.377c0,5.184,9.38,19.386,9.38,19.386s9.376-14.2,9.376-19.386A9.377,9.377,0,0,0,2757.405,2164.38Zm.53,12.626a2.778,2.778,0,1,1,2.188-2.162A2.78,2.78,0,0,1,2757.935,2177.006Z" transform="translate(-184.477 -75.144)" fill="#ca4f4e"/>
      <path id="Trazado_103259" data-name="Trazado 103259" d="M2636.057,2137.888a9.379,9.379,0,0,0-9.38,9.377c0,5.183,9.38,19.386,9.38,19.386s9.376-14.2,9.376-19.386A9.377,9.377,0,0,0,2636.057,2137.888Zm.53,12.627a2.778,2.778,0,1,1,2.188-2.162A2.781,2.781,0,0,1,2636.587,2150.515Z" transform="translate(-140.144 -65.465)" fill="#ca4f4e"/>
      <g id="Grupo_88377" data-name="Grupo 88377" transform="translate(2254.72 2098.736)">
        <g id="Grupo_88376" data-name="Grupo 88376" transform="translate(0)" clip-path="url(#clip-path-3)">
          <g id="Grupo_88375" data-name="Grupo 88375" transform="translate(4.311 3.175)">
            <g id="Grupo_88373" data-name="Grupo 88373" transform="translate(78.423 28.836)">
              <path id="Trazado_103260" data-name="Trazado 103260" d="M2400.225,2334.714l3.856-2.605.438-.544-.642-.853-.881.187-.068-2.653-4.308-.388-2.263-.835,2.625,6.988" transform="translate(-2393.453 -2265.311)" fill="#f7b68b"/>
              <path id="Trazado_103261" data-name="Trazado 103261" d="M2409.563,2296.42l-13.123,19.1s.753,2.555,1.81,1.073c.128-.175-.625-.64.224-1.205,3.433-2.275,11.627-6.027,14.5-9.322a52.358,52.358,0,0,0,6.3-9.264Z" transform="translate(-2393.484 -2254.13)" fill="#f7b68b"/>
              <rect id="Rectángulo_34846" data-name="Rectángulo 34846" width="5.808" height="5.268" transform="matrix(0.616, -0.787, 0.787, 0.616, 5.635, 56.621)" fill="#e7f5fe"/>
              <path id="Trazado_103262" data-name="Trazado 103262" d="M2395.31,2247.753l12.3,19.171-9.229,17.635s4.556,5.053,6.027,4.178c10.166-6.056,16.519-22.779,16.519-22.779l-19.521-28.607-5.74-7.534C2388.419,2228.91,2393.129,2249.82,2395.31,2247.753Z" transform="translate(-2391.782 -2229.787)" fill="#163f59"/>
            </g>
            <path id="Trazado_103263" data-name="Trazado 103263" d="M2302.316,2248.11s-6.722-4.093-15.075-14.062c-2.821-3.366-1.436.285-.96,4.511s8.671,10.462,16.393,14.932C2309.491,2257.439,2302.316,2248.11,2302.316,2248.11Z" transform="translate(-2274.537 -2202.026)" fill="#f7b68b"/>
            <path id="Trazado_103264" data-name="Trazado 103264" d="M2281.592,2232.119s1.336-4.528.644-5.657-3.479-5.081-3.479-5.081l-.8-.941s-1.449.375.454,3.008.323,1.895.323,1.895l-2.569-1.679-3.292-1.8-1.368-1s-.736-.626-1.029-.616c-.849.033-.512.719-.512.719l5.01,4.365-5.637-2.675s-.775-.214-1.02.154c-.229.35,0,.475,0,.475l5.717,4.641-3.053-1.029s-.765-.187-1.017.159c-.278.38-.362.473-.362.473l11.251,5.706Z" transform="translate(-2268.216 -2197.467)" fill="#f7b68b"/>
            <rect id="Rectángulo_34847" data-name="Rectángulo 34847" width="5.808" height="4.677" transform="translate(10.402 36.906) rotate(-36.572)" fill="#e7f5fe"/>
            <path id="Trazado_103265" data-name="Trazado 103265" d="M2335.815,2236.745s.741,3.552-12.168,17.9c-7.215,8.016-11.087,11.346-15.683,10.1-7.873-2.141-23.68-20.743-23.68-20.743l6.775-8.067s16.187,14.1,17.981,14.819c1.13.452,8.154-9.011,15.109-18.657C2324.148,2232.09,2334.945,2235.772,2335.815,2236.745Z" transform="translate(-2274.086 -2201.793)" fill="#163f59"/>
            <g id="Grupo_88374" data-name="Grupo 88374" transform="translate(60.089)">
              <path id="Trazado_103266" data-name="Trazado 103266" d="M2378.43,2205.5c-.365,1.229.019,2.425.854,2.672h0c.837.25,1.808-.545,2.173-1.777l.459-1.547c.363-1.228-.02-2.425-.856-2.674h0c-.834-.245-1.808.548-2.173,1.778Z" transform="translate(-2368.52 -2190.847)" fill="#f7b68b"/>
              <path id="Trazado_103267" data-name="Trazado 103267" d="M2365.216,2213.871c.089,2.248,1.205,4.238,2.466,4.389q1.8.077,3.6.159c1.271-.039,2.556-1.926,2.842-4.154q.687-5.513,1.375-11.027c.3-2.2-.374-6.684-2.233-8.081a4.782,4.782,0,0,0-5.512-.243c-1.972,1.227-3.036,5.632-2.934,7.851Q2365.019,2208.32,2365.216,2213.871Z" transform="translate(-2363.596 -2187.934)" fill="#ec9568"/>
              <path id="Trazado_103268" data-name="Trazado 103268" d="M2362.9,2206.4c.484,2.112,1.322,2.648,2.835,2.944,1.445.208,1.791.369,3.236.576,1.53.141,3.186-1.823,3.626-3.668.707-3.043,2.488-5.487,3.194-8.528.448-1.823-.265-3.5-2.444-4.936-1.995-1.283-4.317-3.824-6.534-3.151-2.429.769-3.9,4.342-3.869,6.235C2362.939,2199.019,2362.893,2203.259,2362.9,2206.4Z" transform="translate(-2362.895 -2186.244)" fill="#f7b68b"/>
              <path id="Trazado_103269" data-name="Trazado 103269" d="M2377.057,2193.488l-1.224,2.348s-2.252-2.781-3.83-5.046c-.5-.715-5.91-1.013-7.266-.833-.984.132-1.154,1.382-1.41,2.1-.92,2.572.538-4.372.538-4.372s1.98-3.209,5.436-3.33c1.906-.069,2.742,1.076,3.4,2.543.154.343-2.069-.64-1.676-.672a23.575,23.575,0,0,1,2.3,2.2,11.822,11.822,0,0,0,1.094,2.2C2376.152,2193.175,2377.057,2193.488,2377.057,2193.488Z" transform="translate(-2362.942 -2184.352)" fill="#163f59"/>
              <path id="Trazado_103270" data-name="Trazado 103270" d="M2370.138,2200.441l-1.5.143.363.93-1.2.389-1.368,4.539,1.953.229.428-2.794,1.251-1.359,3.019-.144Z" transform="translate(-2364.186 -2190.23)" fill="#ec9568"/>
            </g>
            <path id="Trazado_103271" data-name="Trazado 103271" d="M2324.12,2465.794l.01,4.852-.531,4.075-1.529,1.216-1.186.474-.291.7-3.963,3.155a7.371,7.371,0,0,1-4.65.693c-.673-.1.09-1.982.3-2.277a33.213,33.213,0,0,1,3.068-3.562l2.927-4.324,3.268-5.38Z" transform="translate(-2284.105 -2287.037)" fill="#161711"/>
            <path id="Trazado_103272" data-name="Trazado 103272" d="M2390.733,2473.823l-.883,2.02-.38,2.223.38,3.456,1.891.117,1.389-.422.98.568a74,74,0,0,0,7.386.5c3.31-.173,5.089-.667,5.685-1.359.329-.388-1.266-.956-1.781-.992a19.4,19.4,0,0,1-6.212-1.813l-2.649-2.525-.631-1.892Z" transform="translate(-2312.515 -2290.062)" fill="#161711"/>
            <path id="Trazado_103273" data-name="Trazado 103273" d="M2348.274,2230.711l11.427-4.9,3.878,2.346,7-1.8s8.162,4.9,8.98,4.9-.272,45.706-.272,45.706l-20.677,6.531-7.889-5.169Z" transform="translate(-2297.464 -2199.5)" fill="#d1dbea"/>
            <path id="Trazado_103274" data-name="Trazado 103274" d="M2341.552,2304.825l-21.12,107.248,7.613-.239,11.7-34.582,2.669-10.345,12.322-40.917,3.119-21.941Z" transform="translate(-2287.292 -2228.082)" fill="#163f59"/>
            <path id="Trazado_103275" data-name="Trazado 103275" d="M2382.944,2411.988l-1.639-43.37-3.612-19.624-4.66-26.959,1.868-18.481,16.572-1.047-.655,31.074,1.693,27.841.332,10.516-.868,41.608Z" transform="translate(-2306.509 -2227.519)" fill="#163f59"/>
            <path id="Trazado_103276" data-name="Trazado 103276" d="M2354.511,2295.616l2.42-59.062,1.632-10.289-11.9,3.7-.758,61.708Z" transform="translate(-2296.597 -2199.665)" fill="#194866"/>
            <path id="Trazado_103277" data-name="Trazado 103277" d="M2380,2225.815l3.174,6.076,1.994,45.083-3.1,18.113,13.6-1.428-1.252-56.7-3.053-8.6Z" transform="translate(-2309.054 -2199.5)" fill="#194866"/>
            <path id="Trazado_103278" data-name="Trazado 103278" d="M2357.386,2258.966l-3.54-17.684,2.178-3.264-1.9-8.435,1.9-2.719,5.711-1.9-1.9,19.858-1.089,26.117Z" transform="translate(-2299.5 -2199.188)" fill="#163f59"/>
            <path id="Trazado_103279" data-name="Trazado 103279" d="M2380.028,2225.568c-.272.816,2.876,6.6,2.876,6.6l1.723,32.737,4.082-24.214-1.089-4.351,1.089-2.722-3.388-6.883Z" transform="translate(-2309.059 -2199.41)" fill="#163f59"/>
            <path id="Trazado_103280" data-name="Trazado 103280" d="M2369,2227.078l-2.78,3.119-2.165-5.27.689-1.386Z" transform="translate(-2303.231 -2198.67)" fill="#b0bfde"/>
            <path id="Trazado_103281" data-name="Trazado 103281" d="M2377.6,2223.383l-4.091,3.646,2.7,3.245,2.28-5.257Z" transform="translate(-2306.684 -2198.612)" fill="#b0bfde"/>
          </g>
        </g>
      </g>
      <g id="Grupo_88382" data-name="Grupo 88382" transform="translate(2436.898 1958.697)">
        <g id="Grupo_88378" data-name="Grupo 88378" transform="translate(0)">
          <circle id="Elipse_4953" data-name="Elipse 4953" cx="42.846" cy="42.846" r="42.846" transform="translate(0 60.594) rotate(-45)" fill="none" stroke="#0561fc" stroke-width="1.285"/>
        </g>
        <g id="Grupo_88381" data-name="Grupo 88381" transform="translate(0)">
          <g id="Grupo_88380" data-name="Grupo 88380" clip-path="url(#clip-path-4)">
            <g id="Grupo_88379" data-name="Grupo 88379" transform="translate(26.404 25.248)">
              <path id="Trazado_103283" data-name="Trazado 103283" d="M2622.708,2076.424c.158,4.28,3.4,14.72,5.363,20.7h30.488l5.453-15s11.541-17.972-8.329-29.895c-2.852-1.711-17.686-.456-17.686-.456s-10.987.736-25.558,22.592C2611.982,2075.055,2622.479,2070.263,2622.708,2076.424Z" transform="translate(-2598.24 -2017.789)" fill="#212957"/>
              <path id="Trazado_103284" data-name="Trazado 103284" d="M2653.034,2027.709c.228,1.141,2.2,4.6-6.39,12.55-6.162,5.706,13.464,6.39,20.31-2.281,0,0-10.5-1.37-7.074-20.538C2662.449,2003.056,2653.034,2027.709,2653.034,2027.709Z" transform="translate(-2610.31 -2003.76)" fill="#f7b68b"/>
              <path id="Trazado_103285" data-name="Trazado 103285" d="M2647.223,2066.25l-4.108,1.674s-1.584.736-1.217.951c.456.267,3.651-.722,3.651-.722a15.057,15.057,0,0,1,2.282,1.293,7.454,7.454,0,0,0,3.8.761s8.367,16.278,15.822,19.016,8.519,1.521,9.584-.456,3.042-10.8-4.564-13.083-19.169-6.39-19.169-6.39l-3.651-3.841-2.585-.114s-1.065.76-1.674,1.217" transform="translate(-2608.988 -2022.905)" fill="#f7b68b"/>
              <path id="Trazado_103286" data-name="Trazado 103286" d="M2622.293,2073.4a.71.71,0,0,1-.581,1.032h-24.189a1.581,1.581,0,0,1-1.245-1.032l-6.146-16.919a.64.64,0,0,1,.58-.944H2614.9a1.478,1.478,0,0,1,1.245.944Z" transform="translate(-2590.074 -2019.325)" fill="#2a75a9"/>
              <path id="Rectángulo_34848" data-name="Rectángulo 34848" d="M1.212,0H32.705a1.211,1.211,0,0,1,1.211,1.211v0a1.211,1.211,0,0,1-1.211,1.211H1.211A1.211,1.211,0,0,1,0,1.212v0A1.212,1.212,0,0,1,1.212,0Z" transform="translate(7.094 55.11)" fill="#2a75a9"/>
              <path id="Trazado_103287" data-name="Trazado 103287" d="M2621.624,2087.991h-17.342s-3.651,1.236-.229,5.571,6.96,3.128,8.9,2.329,8.443-6.765,8.443-6.765l2.739.325,3.423-1.605a2.115,2.115,0,0,0-1.826,0,2.922,2.922,0,0,1-1.6.34l-1.026-.572.684-.8.342-.8-1.6.932Z" transform="translate(-2594.646 -2030.458)" fill="#ec9568"/>
              <path id="Trazado_103288" data-name="Trazado 103288" d="M2661.925,2028.349a33.142,33.142,0,0,1,.4-10.909c2.569-14.383-6.846,10.27-6.846,10.27.2.978,1.673,3.656-3.32,9.411C2656.215,2036.248,2659.714,2032.973,2661.925,2028.349Z" transform="translate(-2612.757 -2003.76)" fill="#ec9568"/>
              <path id="Trazado_103289" data-name="Trazado 103289" d="M2653.243,2009.055s-2.282,14.148-1.369,17.343,3.637,3.941,6.846-.456c6.161-8.443,5.933-15.061,4.107-16.2S2655.981,2004.263,2653.243,2009.055Z" transform="translate(-2612.573 -2001.536)" fill="#f7b68b"/>
              <path id="Trazado_103290" data-name="Trazado 103290" d="M2655.337,2008.052c-2.217.356-5.705,1.6-7.987-4.108s2.738-6.846,5.248-3.88,2.282,4.335.685,2.967.913-5.477,3.195-2.739,3.194,6.845,2.053,6.618,2.511-4.792,3.88-2.739,2.281,5.021.684,5.934-3.423-2.282-1.826-1.141,2.054,7.3,0,8.215-2.053-.685-.228-2.51-.685-5.591-1.6-1.939c-.079.313-.685,2.4-.685,2.4l-1.369,1.141s0-4.108.913-5.59C2660.361,2007.332,2660.3,2007.254,2655.337,2008.052Z" transform="translate(-2610.787 -1998.478)" fill="#212957"/>
              <path id="Trazado_103291" data-name="Trazado 103291" d="M2623.142,2089.513s-12.345,1.189-15.447,1.5c-2.052.208-3.946,1.071-4.476,2.16a8.512,8.512,0,0,0,1.064,1.678c3.423,4.336,6.96,3.122,8.9,2.323s8.443-6.768,8.443-6.768l2.741.329C2624.495,2090.5,2623.374,2089.554,2623.142,2089.513Z" transform="translate(-2594.876 -2031.737)" fill="#f7b68b"/>
              <path id="Trazado_103292" data-name="Trazado 103292" d="M2682.411,2092.082c-.807.564-1.069,1-2.381.826-2.011-.268-8.3-3.859-11.283-6.123-4.723-3.586-11.19-13.719-11.442-13.715.45.867,8.556,16.316,15.8,18.977C2679.919,2094.551,2681.394,2093.749,2682.411,2092.082Z" transform="translate(-2614.636 -2025.73)" fill="#ec9568"/>
            </g>
          </g>
        </g>
      </g>
      <path id="Trazado_103293" data-name="Trazado 103293" d="M2570.256,2071.232a9.378,9.378,0,0,0-9.38,9.377c0,5.183,9.38,19.385,9.38,19.385s9.376-14.2,9.376-19.385A9.377,9.377,0,0,0,2570.256,2071.232Zm.53,12.626a2.778,2.778,0,1,1,2.188-2.162A2.78,2.78,0,0,1,2570.786,2083.858Z" transform="translate(-116.104 -41.113)" fill="#ca4f4e"/>
      <g id="Grupo_88388" data-name="Grupo 88388" transform="translate(2567.16 2010.452)">
        <g id="Grupo_88383" data-name="Grupo 88383">
          <circle id="Elipse_4955" data-name="Elipse 4955" cx="42.846" cy="42.846" r="42.846" fill="none" stroke="#0561fc" stroke-width="1.285"/>
        </g>
        <g id="Grupo_88387" data-name="Grupo 88387">
          <g id="Grupo_88386" data-name="Grupo 88386" clip-path="url(#clip-path-5)">
            <g id="Grupo_88385" data-name="Grupo 88385" transform="translate(9.54 6.493)">
              <g id="Grupo_88384" data-name="Grupo 88384">
                <path id="Trazado_103294" data-name="Trazado 103294" d="M2820.579,2104.627c-1.209.247-5.651,1.755-9.155-2.337s0-8.573-7.794-11.886-10.132-8.182-4.286-15.586.974-7.6,1.364-13.832,12.861-15.2,22.791-7.6c6.147,4.7,8.577,6.04,4.481,19.679-4.157,13.869,5.652,9.546,7.8,15.779S2828.176,2103.068,2820.579,2104.627Z" transform="translate(-2778.731 -2050.475)" fill="#212a54"/>
                <path id="Trazado_103295" data-name="Trazado 103295" d="M2839.945,2282.682c-.365-1.525-1.579-14.639-6.961-16.36-3.585-1.147-5.956,10.62,3.471,50.675.361,1.533,7.417,27,7.4,26.391C2843.1,2314.327,2845.359,2305.3,2839.945,2282.682Z" transform="translate(-2791.063 -2129.305)" fill="#ec9568"/>
                <path id="Trazado_103296" data-name="Trazado 103296" d="M2829.339,2194.284c-2.852-.437-2.878,1.11-4.841,4.985-3.851,7.6-5.885,18.81-4.234,30.719,1.936,13.951,6.01,26.1,10.8,33.715,2.749-6.562,4.035-14.44,5.065-23.166C2839.324,2213.389,2838.1,2195.625,2829.339,2194.284Z" transform="translate(-2787.357 -2102.988)" fill="#ec9568"/>
                <path id="Trazado_103297" data-name="Trazado 103297" d="M2787.294,2128.333c-7.1,22.32-4.009,24.729-4.009,24.729s1.638,5.991,7.745-18.417C2792.863,2127.317,2787.767,2126.849,2787.294,2128.333Z" transform="translate(-2773.814 -2078.672)" fill="#f7b68b"/>
                <path id="Trazado_103298" data-name="Trazado 103298" d="M2777.877,2150.648c-4.674-5.64-7.037-28.854-7.037-28.854s1.538-8.881,10.135,20.922C2783.557,2151.665,2779.03,2152.038,2777.877,2150.648Z" transform="translate(-2769.512 -2076.078)" fill="#f7b68b"/>
                <path id="Trazado_103299" data-name="Trazado 103299" d="M2772.053,2090.942l-1.95,2.144-1.063,2.116-.293,3.835a25.62,25.62,0,0,0,.819,5.611c.627,1.519.487,7.587.715,8.332s4.047,1.653,4.047,1.653-1.677-6.287-2.13-8.834.154-6.408.013-7.414a11.4,11.4,0,0,0-.9-3.065s-.105,2.719-.049,3.436-.774.4-.774.4a22.674,22.674,0,0,1,.094-4.751,5.121,5.121,0,0,1,1-1.773A2.9,2.9,0,0,0,2772.053,2090.942Z" transform="translate(-2768.747 -2065.259)" fill="#f7b68b"/>
                <path id="Trazado_103300" data-name="Trazado 103300" d="M2796.669,2196.01c2.164-.759,9.179,1.111,10.807,5.118,3.192,7.854,5.026,19.5,3.969,31.934-1.236,14.562,3.447,43.7-8.895,38.251C2798.82,2265.572,2788.2,2198.982,2796.669,2196.01Z" transform="translate(-2777.78 -2103.584)" fill="#f7b68b"/>
                <path id="Trazado_103301" data-name="Trazado 103301" d="M2808.114,2286.052c1.46-.75,4.119,1.1,5.964,4.769,3.62,7.2,4.754,17.057,5.4,29.25.681,12.9.707,22.511.526,30.459-.178,7.847,1.262,15.209-2.721,14.349,1.722-10.764-1.728-23.175-4.336-31.751C2803.359,2301.626,2803.632,2288.35,2808.114,2286.052Z" transform="translate(-2782.033 -2136.48)" fill="#f7b68b"/>
                <path id="Trazado_103302" data-name="Trazado 103302" d="M2801.32,2127.01l22.9-1.654,1.916-27.162-29.251,5.223Z" transform="translate(-2779.025 -2067.909)" fill="#9ac7f7"/>
                <path id="Trazado_103303" data-name="Trazado 103303" d="M2831,2219.346l-39.215-3.225c-8.157-23.317-3.3-50.138,6.086-74.059l23.074-1.9C2830.012,2164.919,2838.529,2193.545,2831,2219.346Z" transform="translate(-2775.65 -2083.242)" fill="#2a75a9"/>
                <path id="Trazado_103304" data-name="Trazado 103304" d="M2843.6,2129.372l-3.184-30.526a4.843,4.843,0,0,1,2.532-.95l.658-.055a4.522,4.522,0,0,1,5.017,3.821l3.406,28.939Z" transform="translate(-2794.932 -2067.774)" fill="#9ac7f7"/>
                <path id="Trazado_103305" data-name="Trazado 103305" d="M2788.871,2135.807l7.13-27.31a3.635,3.635,0,0,0-1.838-1.144l-.506-.132a3.657,3.657,0,0,0-4.461,2.614l-6.231,23.864Z" transform="translate(-2773.941 -2071.163)" fill="#9ac7f7"/>
                <path id="Trazado_103306" data-name="Trazado 103306" d="M2825.441,2406.708c-1.245,5.093-3.344,8.955-4.691,8.625s-1.427-4.722-.184-9.817,3.345-8.953,4.69-8.624S2826.686,2401.617,2825.441,2406.708Z" transform="translate(-2787.357 -2177.028)" fill="#3c463b"/>
                <path id="Trazado_103307" data-name="Trazado 103307" d="M2826.138,2401.115c-.361,3.851-2.249,7-3.595,6.667s-1.588-3.507-.5-7.218c1.373-4.7,1.982-6.091,1.511-9.13C2823.107,2388.581,2827.5,2386.641,2826.138,2401.115Z" transform="translate(-2787.968 -2174.307)" fill="#f7b68b"/>
                <path id="Trazado_103308" data-name="Trazado 103308" d="M2857.666,2391.231c3.1,5.171,2.834,9.543,1.65,10.512-1.251,1.023-4.524-2.7-6.97-8.216-3.255-7.338-2.525-6.231-.994-10.244C2851.494,2382.908,2854.651,2386.208,2857.666,2391.231Z" transform="translate(-2798.451 -2172.052)" fill="#3c463b"/>
                <path id="Trazado_103309" data-name="Trazado 103309" d="M2843.307,2333.424c-.079-.682-.426-6.409-.507-9.331-.278-9.955-4.435-11.048-6.052-11.076-.961-.018-1.471,2.075-1.562,5.771.235,1.314.476,2.638.729,3.98a329.477,329.477,0,0,0,8.568,35.83c.658,2.086.994,4.557,1.76,6.075,2.117,4.2,4.008,6.546,5.059,6.565.962.018,1.882-1.672.324-5.7-1.4-3.615-2.692-4.045-4.2-7.866C2845.987,2354.026,2845.346,2351.147,2843.307,2333.424Z" transform="translate(-2793.02 -2146.392)" fill="#ec9568"/>
                <path id="Trazado_103310" data-name="Trazado 103310" d="M2824.086,2096.367c-3.532.02-2.193-6.663-1.425-9.741.781-3.116-7.6,2.535-7.6,2.535s2.538,2.531,1.949,5.648c-.32,1.713-2.23,2.9-4.4,4.424a6.918,6.918,0,0,0,4.618,1.889C2820,2101.121,2822.478,2099.263,2824.086,2096.367Z" transform="translate(-2784.771 -2063.34)" fill="#f7b68b"/>
                <path id="Trazado_103311" data-name="Trazado 103311" d="M2818.071,2095.744a22.992,22.992,0,0,0,5.112-3.71,29.226,29.226,0,0,1,.891-5.408c.781-3.116-7.6,2.535-7.6,2.535s2.538,2.531,1.949,5.648A3.072,3.072,0,0,1,2818.071,2095.744Z" transform="translate(-2786.184 -2063.34)" fill="#ec9568"/>
                <path id="Trazado_103312" data-name="Trazado 103312" d="M2815.112,2061.915s-7.394,9.161-1.953,18.9c2.827,5.06,9.9-2.858,10.519-4.571s2.646,1.089,3.115-2.335-.624-3.27-2.182-1.712-2.179.779-2.334-1.714,3.286-4.271-1.387-4.271S2813.4,2065.652,2815.112,2061.915Z" transform="translate(-2784.243 -2054.655)" fill="#f7b68b"/>
              </g>
              <path id="Trazado_103313" data-name="Trazado 103313" d="M2804.471,2142.437h20.161l-6.04-29.629h-20.161Z" transform="translate(-2779.592 -2073.248)" fill="#212957"/>
              <path id="Trazado_103314" data-name="Trazado 103314" d="M2843.346,2142.759c-2.806-4.2-25.8-10.031-25.8-10.031-.162,1.585-2.231,2.474,3.691,4.337,3.434,1.08,8.992,3.939,16.635,7.823C2843.089,2147.537,2844.038,2143.8,2843.346,2142.759Z" transform="translate(-2786.4 -2080.525)" fill="#f7b68b"/>
              <path id="Trazado_103315" data-name="Trazado 103315" d="M2815.75,2134.379l-4.945.049.936-4.71,2.183.708a3.4,3.4,0,0,0-.726-1.671c-.561-.529,1.009-.217,1.836.417S2819.315,2134.709,2815.75,2134.379Z" transform="translate(-2784.113 -2078.976)" fill="#f7b68b"/>
              <path id="Trazado_103316" data-name="Trazado 103316" d="M2808.333,2133.631l-2.729-2.052s-1.449-2.83-1.521-3.166-.128-.974.4-.764-.449-1.2-.449-1.2.477-.428,1.561.206,2.916,1.972,3.671,2.27S2808.333,2133.631,2808.333,2133.631Z" transform="translate(-2781.639 -2078.179)" fill="#ec9568"/>
            </g>
          </g>
        </g>
      </g>
      <g id="Grupo_88389" data-name="Grupo 88389" transform="translate(2597.947 2105.897)">
        <path id="Trazado_103317" data-name="Trazado 103317" d="M2838.193,2211.4v-20.766h-35.968V2211.4h35.968Z" transform="translate(-2802.225 -2190.632)" fill="#c5e1f9"/>
        <path id="Trazado_103318" data-name="Trazado 103318" d="M2838.193,2211.4v-20.766l-17.984,11.468-17.984-11.468V2211.4h35.968Z" transform="translate(-2802.225 -2190.632)" fill="#9ac7f7"/>
        <path id="Trazado_103319" data-name="Trazado 103319" d="M2848.545,2193.874v-3.242l-17.984,11.468Z" transform="translate(-2812.577 -2190.632)" fill="#7eb3ff"/>
      </g>
      <g id="Grupo_88390" data-name="Grupo 88390" transform="translate(2378.83 2019.198)">
        <path id="Trazado_103320" data-name="Trazado 103320" d="M2456.975,2054.025h9.763l5.785,19.525h25.672" transform="translate(-2456.975 -2054.025)" fill="none" stroke="#0561fc" stroke-miterlimit="10" stroke-width="1.285"/>
        <path id="Trazado_103321" data-name="Trazado 103321" d="M2501.742,2074.338h-22.213l-4.893-15.186h32Z" transform="translate(-2463.427 -2055.898)" fill="#9ac7f7"/>
        <path id="Trazado_103322" data-name="Trazado 103322" d="M2488.6,2091.774a2.712,2.712,0,1,1-2.712-2.712A2.712,2.712,0,0,1,2488.6,2091.774Z" transform="translate(-2466.547 -2066.825)" fill="#9ac7f7"/>
        <path id="Trazado_103323" data-name="Trazado 103323" d="M2510.824,2091.774a2.712,2.712,0,1,1-2.712-2.712A2.711,2.711,0,0,1,2510.824,2091.774Z" transform="translate(-2474.667 -2066.825)" fill="#9ac7f7"/>
      </g>
      <g id="Grupo_88393" data-name="Grupo 88393" transform="translate(2452.61 1987.939)">
        <g id="Grupo_88391" data-name="Grupo 88391">
          <path id="Trazado_103324" data-name="Trazado 103324" d="M2601.586,2025.146a1.6,1.6,0,0,1-1.538,1.65h-2.982v6.187l-7.3-6.187h-14.991a1.6,1.6,0,0,1-1.542-1.65v-18.722a1.6,1.6,0,0,1,1.542-1.651h25.279a1.6,1.6,0,0,1,1.538,1.651Z" transform="translate(-2573.227 -2004.773)" fill="#60c1dd"/>
        </g>
        <g id="Grupo_88392" data-name="Grupo 88392" transform="translate(5.312 9.295)">
          <path id="Trazado_103325" data-name="Trazado 103325" d="M2604.128,2021.044a1.626,1.626,0,1,0,1.626-1.626A1.626,1.626,0,0,0,2604.128,2021.044Z" transform="translate(-2589.828 -2019.418)" fill="#fff"/>
          <path id="Trazado_103326" data-name="Trazado 103326" d="M2592.863,2021.044a1.626,1.626,0,1,0,1.626-1.626A1.626,1.626,0,0,0,2592.863,2021.044Z" transform="translate(-2585.713 -2019.418)" fill="#fff"/>
          <path id="Trazado_103327" data-name="Trazado 103327" d="M2581.6,2021.044a1.626,1.626,0,1,0,1.626-1.626A1.626,1.626,0,0,0,2581.6,2021.044Z" transform="translate(-2581.597 -2019.418)" fill="#fff"/>
        </g>
      </g>
      <g id="Grupo_88402" data-name="Grupo 88402" transform="translate(2243.076 2087.473)">
        <g id="Grupo_88395" data-name="Grupo 88395" transform="translate(0 0)">
          <g id="Grupo_88394" data-name="Grupo 88394">
            <rect id="Rectángulo_34849" data-name="Rectángulo 34849" width="67.297" height="36.878" fill="#eaf4fe"/>
            <rect id="Rectángulo_34850" data-name="Rectángulo 34850" width="67.297" height="6.165" fill="#9ac7f7"/>
            <line id="Línea_319" data-name="Línea 319" x2="1.791" transform="translate(1.998 3.019)" fill="none" stroke="#eaf4fe" stroke-width="3.327"/>
            <line id="Línea_320" data-name="Línea 320" x2="1.791" transform="translate(5.487 3.019)" fill="none" stroke="#eaf4fe" stroke-width="3.327"/>
            <line id="Línea_321" data-name="Línea 321" x2="1.79" transform="translate(8.979 3.019)" fill="none" stroke="#eaf4fe" stroke-width="3.327"/>
          </g>
        </g>
        <line id="Línea_322" data-name="Línea 322" x2="51.425" transform="translate(5.015 17.947)" fill="none" stroke="#b5d6f9" stroke-miterlimit="10" stroke-width="4.269"/>
        <line id="Línea_323" data-name="Línea 323" x2="33.204" transform="translate(5.015 22.841)" fill="none" stroke="#b5d6f9" stroke-miterlimit="10" stroke-width="4.269"/>
        <g id="Grupo_88396" data-name="Grupo 88396" transform="translate(5.015 29.653)">
          <rect id="Rectángulo_34851" data-name="Rectángulo 34851" width="2.952" height="2.709" fill="#fec12f"/>
        </g>
        <g id="Grupo_88397" data-name="Grupo 88397" transform="translate(9.012 29.653)">
          <rect id="Rectángulo_34852" data-name="Rectángulo 34852" width="13.927" height="2.709" fill="#b5d6f9"/>
        </g>
        <g id="Grupo_88398" data-name="Grupo 88398" transform="translate(26.914 29.653)">
          <rect id="Rectángulo_34853" data-name="Rectángulo 34853" width="2.953" height="2.709" fill="#7ac943"/>
        </g>
        <g id="Grupo_88399" data-name="Grupo 88399" transform="translate(30.91 29.653)">
          <rect id="Rectángulo_34854" data-name="Rectángulo 34854" width="12.121" height="2.709" fill="#b5d6f9"/>
        </g>
        <g id="Grupo_88400" data-name="Grupo 88400" transform="translate(47.458 29.653)">
          <rect id="Rectángulo_34855" data-name="Rectángulo 34855" width="2.953" height="2.709" fill="#0561fc"/>
        </g>
        <g id="Grupo_88401" data-name="Grupo 88401" transform="translate(51.455 29.653)">
          <rect id="Rectángulo_34856" data-name="Rectángulo 34856" width="12.12" height="2.709" fill="#b5d6f9"/>
        </g>
        <line id="Línea_324" data-name="Línea 324" x2="21.34" transform="translate(5.015 12.172)" fill="none" stroke="#0561fc" stroke-miterlimit="10" stroke-width="4.269"/>
      </g>
      <g id="Grupo_88403" data-name="Grupo 88403" transform="translate(2465.392 2092.171)">
        <path id="Trazado_103328" data-name="Trazado 103328" d="M2618.44,2201.129a2.351,2.351,0,0,1-2.352,2.351h-20.372a2.352,2.352,0,0,1-2.351-2.351v-29.774a2.352,2.352,0,0,1,2.351-2.351h14.1l8.62,8.619Z" transform="translate(-2593.366 -2169.004)" fill="#fff"/>
        <path id="Trazado_103329" data-name="Trazado 103329" d="M2620.528,2181.35l7.835,7.733v-6.949l-.783-.784Z" transform="translate(-2603.289 -2173.514)" fill="#c5e1f9"/>
        <path id="Trazado_103330" data-name="Trazado 103330" d="M2619.293,2169v6.269a2.352,2.352,0,0,0,2.35,2.351h6.269Z" transform="translate(-2602.838 -2169.004)" fill="#0561fc"/>
        <rect id="Rectángulo_34857" data-name="Rectángulo 34857" width="15.672" height="1.567" transform="translate(4.701 18.806)" fill="#69aeeb"/>
        <rect id="Rectángulo_34858" data-name="Rectángulo 34858" width="15.672" height="1.567" transform="translate(4.701 21.94)" fill="#69aeeb"/>
        <rect id="Rectángulo_34859" data-name="Rectángulo 34859" width="15.672" height="1.567" transform="translate(4.701 25.074)" fill="#69aeeb"/>
        <rect id="Rectángulo_34860" data-name="Rectángulo 34860" width="11.754" height="1.567" transform="translate(4.701 15.671)" fill="#69aeeb"/>
      </g>
    </g>
  </g>
</svg>
