<svg xmlns="http://www.w3.org/2000/svg" xmlns:xlink="http://www.w3.org/1999/xlink" width="509.357" height="375.575" viewBox="0 0 509.357 375.575">
  <defs>
    <clipPath id="clip-path">
      <rect id="Rectángulo_34821" data-name="Rectángulo 34821" width="509.357" height="256.631" transform="translate(509.357 256.631) rotate(180)" fill="none"/>
    </clipPath>
  </defs>
  <g id="Grupo_88438" data-name="Grupo 88438" transform="translate(-223 -4676)">
    <rect id="Rectángulo_34800" data-name="Rectángulo 34800" width="265.572" height="265.572" rx="28" transform="translate(302.3 4863.787) rotate(-45)" fill="#636363" opacity="0.5"/>
    <g id="Grupo_88328" data-name="Grupo 88328" transform="translate(-948.813 3333.719)">
      <path id="Trazado_103021" data-name="Trazado 103021" d="M1736.251,1476.039s16.948-8.666,18.379-4.3c6.276,19.187,15.876,39.922,16.913,44.7s1.568,18.805-5.052,22.124-12.872-5.858-12.872-5.858-7.278-24.029-13.356-39.767S1736.251,1476.039,1736.251,1476.039Z" transform="translate(-244.379 -31.946)" fill="#636363"/>
      <g id="Grupo_88278" data-name="Grupo 88278" transform="translate(1261.082 1438.741)">
        <g id="Grupo_88277" data-name="Grupo 88277" transform="translate(0)">
          <g id="Grupo_88276" data-name="Grupo 88276">
            <rect id="Rectángulo_34801" data-name="Rectángulo 34801" width="249.238" height="174.891" fill="#eaf4fe"/>
            <rect id="Rectángulo_34802" data-name="Rectángulo 34802" width="249.238" height="23.571" fill="#c5e1f9"/>
            <path id="Trazado_103022" data-name="Trazado 103022" d="M1352.606,1488.023a4.717,4.717,0,1,1-4.72-4.716A4.72,4.72,0,0,1,1352.606,1488.023Z" transform="translate(-1335.318 -1476.231)" fill="#60c1dd"/>
            <path id="Trazado_103023" data-name="Trazado 103023" d="M1378.952,1488.023a4.709,4.709,0,1,1-4.715-4.716A4.716,4.716,0,0,1,1378.952,1488.023Z" transform="translate(-1346.738 -1476.231)" fill="#ca4f4e"/>
            <path id="Trazado_103024" data-name="Trazado 103024" d="M1405.289,1488.023a4.713,4.713,0,1,1-4.713-4.716A4.717,4.717,0,0,1,1405.289,1488.023Z" transform="translate(-1358.145 -1476.231)" fill="#eaf4fe"/>
          </g>
        </g>
      </g>
      <g id="Grupo_88306" data-name="Grupo 88306" transform="translate(1342.324 1472.906)">
        <g id="Grupo_88305" data-name="Grupo 88305">
          <g id="Grupo_88301" data-name="Grupo 88301">
            <g id="Grupo_88279" data-name="Grupo 88279" transform="translate(0.314 100.686)">
              <path id="Trazado_103025" data-name="Trazado 103025" d="M1474.719,1712.758h-.5v-3.329l-1.009.37v-.453l1.432-.537h.078Z" transform="translate(-1473.209 -1708.774)" fill="#7eb3ff"/>
              <path id="Trazado_103026" data-name="Trazado 103026" d="M1480.9,1711.055a2.3,2.3,0,0,1-.3,1.3,1.244,1.244,0,0,1-1.868.01,2.157,2.157,0,0,1-.315-1.245v-.667a2.24,2.24,0,0,1,.3-1.288,1.267,1.267,0,0,1,1.873-.015,2.15,2.15,0,0,1,.308,1.254Zm-.5-.682a1.831,1.831,0,0,0-.178-.925.613.613,0,0,0-.564-.29.6.6,0,0,0-.558.288,1.78,1.78,0,0,0-.181.888v.8a1.862,1.862,0,0,0,.185.941.609.609,0,0,0,.56.3.6.6,0,0,0,.549-.285,1.8,1.8,0,0,0,.188-.9Z" transform="translate(-1475.468 -1708.747)" fill="#7eb3ff"/>
            </g>
            <g id="Grupo_88280" data-name="Grupo 88280" transform="translate(0.108 82.15)">
              <path id="Trazado_103027" data-name="Trazado 103027" d="M1475.494,1680.028h-2.573v-.359l1.36-1.512a3.358,3.358,0,0,0,.417-.558.943.943,0,0,0,.115-.444.7.7,0,0,0-.187-.5.648.648,0,0,0-.5-.2.763.763,0,0,0-.579.212.805.805,0,0,0-.207.589h-.5a1.159,1.159,0,0,1,.349-.877,1.3,1.3,0,0,1,.936-.335,1.245,1.245,0,0,1,.867.288.98.98,0,0,1,.318.765,2.241,2.241,0,0,1-.74,1.381l-1.052,1.142h1.972Z" transform="translate(-1472.845 -1676.043)" fill="#7eb3ff"/>
              <path id="Trazado_103028" data-name="Trazado 103028" d="M1480.9,1678.351a2.3,2.3,0,0,1-.3,1.3,1.244,1.244,0,0,1-1.868.01,2.157,2.157,0,0,1-.315-1.245v-.667a2.24,2.24,0,0,1,.3-1.288,1.268,1.268,0,0,1,1.873-.015,2.154,2.154,0,0,1,.308,1.255Zm-.5-.682a1.83,1.83,0,0,0-.178-.925.613.613,0,0,0-.564-.29.6.6,0,0,0-.558.289,1.779,1.779,0,0,0-.181.888v.8a1.861,1.861,0,0,0,.185.941.61.61,0,0,0,.56.3.6.6,0,0,0,.549-.286,1.8,1.8,0,0,0,.188-.9Z" transform="translate(-1475.262 -1676.043)" fill="#7eb3ff"/>
            </g>
            <g id="Grupo_88281" data-name="Grupo 88281" transform="translate(0.11 63.614)">
              <path id="Trazado_103029" data-name="Trazado 103029" d="M1473.647,1645.114h.377a.814.814,0,0,0,.554-.187.615.615,0,0,0,.2-.488.609.609,0,0,0-.686-.691.714.714,0,0,0-.517.185.646.646,0,0,0-.193.49h-.5a1,1,0,0,1,.341-.776,1.243,1.243,0,0,1,.869-.309,1.223,1.223,0,0,1,.87.294,1.058,1.058,0,0,1,.316.817.865.865,0,0,1-.165.5,1.014,1.014,0,0,1-.452.36.96.96,0,0,1,.5.34.94.94,0,0,1,.178.581,1.072,1.072,0,0,1-.346.839,1.3,1.3,0,0,1-.9.31,1.326,1.326,0,0,1-.9-.3.992.992,0,0,1-.346-.791h.5a.642.642,0,0,0,.2.5.767.767,0,0,0,.542.187.758.758,0,0,0,.555-.188.734.734,0,0,0,.191-.543.66.66,0,0,0-.21-.526.921.921,0,0,0-.607-.189h-.377Z" transform="translate(-1472.849 -1643.338)" fill="#7eb3ff"/>
              <path id="Trazado_103030" data-name="Trazado 103030" d="M1480.9,1645.646a2.294,2.294,0,0,1-.3,1.3,1.244,1.244,0,0,1-1.868.01,2.156,2.156,0,0,1-.315-1.245v-.667a2.242,2.242,0,0,1,.3-1.288,1.268,1.268,0,0,1,1.873-.015,2.151,2.151,0,0,1,.308,1.254Zm-.5-.683a1.83,1.83,0,0,0-.178-.925.613.613,0,0,0-.564-.29.6.6,0,0,0-.558.288,1.783,1.783,0,0,0-.181.889v.8a1.861,1.861,0,0,0,.185.94.61.61,0,0,0,.56.3.6.6,0,0,0,.549-.286,1.8,1.8,0,0,0,.188-.9Z" transform="translate(-1475.264 -1643.338)" fill="#7eb3ff"/>
            </g>
            <g id="Grupo_88282" data-name="Grupo 88282" transform="translate(0 45.075)">
              <path id="Trazado_103031" data-name="Trazado 103031" d="M1474.947,1613.334h.545v.408h-.545v.912h-.5v-.912h-1.788v-.294l1.76-2.724h.532Zm-1.726,0h1.223v-1.927l-.059.108Z" transform="translate(-1472.655 -1610.67)" fill="#7eb3ff"/>
              <path id="Trazado_103032" data-name="Trazado 103032" d="M1480.9,1612.936a2.294,2.294,0,0,1-.3,1.3,1.243,1.243,0,0,1-1.868.01,2.156,2.156,0,0,1-.315-1.245v-.667a2.238,2.238,0,0,1,.3-1.287,1.268,1.268,0,0,1,1.873-.015,2.151,2.151,0,0,1,.308,1.254Zm-.5-.682a1.831,1.831,0,0,0-.178-.925.613.613,0,0,0-.564-.29.6.6,0,0,0-.558.288,1.783,1.783,0,0,0-.181.889v.8a1.861,1.861,0,0,0,.185.94.61.61,0,0,0,.56.3.6.6,0,0,0,.549-.286,1.8,1.8,0,0,0,.188-.9Z" transform="translate(-1475.154 -1610.629)" fill="#7eb3ff"/>
            </g>
            <g id="Grupo_88283" data-name="Grupo 88283" transform="translate(0.273 26.537)">
              <path id="Trazado_103033" data-name="Trazado 103033" d="M1473.276,1579.976l.2-1.96h2.015v.462H1473.9l-.117,1.072a1.26,1.26,0,0,1,.655-.17,1.087,1.087,0,0,1,.854.355,1.392,1.392,0,0,1,.316.96,1.35,1.35,0,0,1-.328.957,1.2,1.2,0,0,1-.917.349,1.243,1.243,0,0,1-.85-.289,1.15,1.15,0,0,1-.375-.8h.471a.792.792,0,0,0,.24.509.749.749,0,0,0,.513.172.674.674,0,0,0,.547-.238.993.993,0,0,0,.2-.656.917.917,0,0,0-.214-.633.734.734,0,0,0-.571-.239.823.823,0,0,0-.513.143l-.133.108Z" transform="translate(-1473.136 -1577.962)" fill="#7eb3ff"/>
              <path id="Trazado_103034" data-name="Trazado 103034" d="M1480.9,1580.229a2.3,2.3,0,0,1-.3,1.3,1.244,1.244,0,0,1-1.868.01,2.157,2.157,0,0,1-.315-1.245v-.667a2.24,2.24,0,0,1,.3-1.288,1.267,1.267,0,0,1,1.873-.015,2.151,2.151,0,0,1,.308,1.254Zm-.5-.682a1.834,1.834,0,0,0-.178-.925.614.614,0,0,0-.564-.289.6.6,0,0,0-.558.288,1.779,1.779,0,0,0-.181.888v.8a1.862,1.862,0,0,0,.185.941.61.61,0,0,0,.56.3.6.6,0,0,0,.549-.286,1.8,1.8,0,0,0,.188-.9Z" transform="translate(-1475.427 -1577.921)" fill="#7eb3ff"/>
            </g>
            <g id="Grupo_88284" data-name="Grupo 88284" transform="translate(0.212 8)">
              <path id="Trazado_103035" data-name="Trazado 103035" d="M1474.959,1545.306v.424h-.091a1.319,1.319,0,0,0-.929.345,1.432,1.432,0,0,0-.4.942,1.069,1.069,0,0,1,.848-.356,1.022,1.022,0,0,1,.819.363,1.585,1.585,0,0,1-.025,1.906,1.14,1.14,0,0,1-.888.364,1.12,1.12,0,0,1-.914-.433,1.712,1.712,0,0,1-.352-1.117v-.191a2.586,2.586,0,0,1,.464-1.658,1.7,1.7,0,0,1,1.377-.588Zm-.655,1.771a.834.834,0,0,0-.772.539v.184a1.289,1.289,0,0,0,.218.783.655.655,0,0,0,.545.3.639.639,0,0,0,.532-.249,1.191,1.191,0,0,0,0-1.305A.627.627,0,0,0,1474.3,1547.077Z" transform="translate(-1473.029 -1545.255)" fill="#7eb3ff"/>
              <path id="Trazado_103036" data-name="Trazado 103036" d="M1480.9,1547.523a2.294,2.294,0,0,1-.3,1.3,1.243,1.243,0,0,1-1.868.01,2.157,2.157,0,0,1-.315-1.245v-.667a2.238,2.238,0,0,1,.3-1.287,1.268,1.268,0,0,1,1.873-.015,2.151,2.151,0,0,1,.308,1.254Zm-.5-.682a1.831,1.831,0,0,0-.178-.925.613.613,0,0,0-.564-.29.6.6,0,0,0-.558.288,1.784,1.784,0,0,0-.181.889v.8a1.861,1.861,0,0,0,.185.94.61.61,0,0,0,.56.3.6.6,0,0,0,.549-.286,1.8,1.8,0,0,0,.188-.9Z" transform="translate(-1475.366 -1545.216)" fill="#7eb3ff"/>
            </g>
            <g id="Grupo_88285" data-name="Grupo 88285" transform="translate(22.283 117.077)">
              <path id="Trazado_103037" data-name="Trazado 103037" d="M1513.292,1741.122h-.439v-2.912l-.882.324v-.4l1.253-.47h.069Z" transform="translate(-1511.971 -1737.667)" fill="#7eb3ff"/>
            </g>
            <g id="Grupo_88286" data-name="Grupo 88286" transform="translate(50.636 117.046)">
              <path id="Trazado_103038" data-name="Trazado 103038" d="M1564.314,1741.1h-2.253v-.314l1.19-1.323a2.816,2.816,0,0,0,.365-.487.827.827,0,0,0,.1-.389.621.621,0,0,0-.163-.442.574.574,0,0,0-.435-.172.674.674,0,0,0-.507.185.712.712,0,0,0-.18.516h-.438a1.014,1.014,0,0,1,.307-.767,1.134,1.134,0,0,1,.818-.293,1.091,1.091,0,0,1,.759.252.859.859,0,0,1,.278.67,1.964,1.964,0,0,1-.647,1.209l-.922,1h1.728Z" transform="translate(-1561.994 -1737.612)" fill="#7eb3ff"/>
            </g>
            <g id="Grupo_88287" data-name="Grupo 88287" transform="translate(79.173 117.046)">
              <path id="Trazado_103039" data-name="Trazado 103039" d="M1613.045,1739.166h.328a.718.718,0,0,0,.486-.163.542.542,0,0,0,.178-.427.533.533,0,0,0-.6-.6.622.622,0,0,0-.452.162.563.563,0,0,0-.17.428h-.435a.878.878,0,0,1,.3-.68,1.1,1.1,0,0,1,.76-.27,1.073,1.073,0,0,1,.763.258.931.931,0,0,1,.276.715.758.758,0,0,1-.146.435.88.88,0,0,1-.4.314.854.854,0,0,1,.439.3.83.83,0,0,1,.153.507.942.942,0,0,1-.3.735,1.138,1.138,0,0,1-.787.271,1.16,1.16,0,0,1-.787-.262.871.871,0,0,1-.3-.693h.439a.564.564,0,0,0,.178.435.674.674,0,0,0,.474.163.659.659,0,0,0,.484-.166.634.634,0,0,0,.167-.475.576.576,0,0,0-.184-.46.8.8,0,0,0-.532-.166h-.328Z" transform="translate(-1612.345 -1737.612)" fill="#7eb3ff"/>
            </g>
            <g id="Grupo_88288" data-name="Grupo 88288" transform="translate(107.611 117.093)">
              <path id="Trazado_103040" data-name="Trazado 103040" d="M1664.525,1739.979H1665v.357h-.477v.8h-.439v-.8h-1.567v-.257l1.54-2.383h.466Zm-1.51,0h1.071v-1.686l-.053.095Z" transform="translate(-1662.519 -1737.695)" fill="#7eb3ff"/>
            </g>
            <g id="Grupo_88289" data-name="Grupo 88289" transform="translate(136.389 117.093)">
              <path id="Trazado_103041" data-name="Trazado 103041" d="M1713.416,1739.411l.174-1.716h1.764v.4h-1.393l-.1.938a1.1,1.1,0,0,1,.573-.149.945.945,0,0,1,.745.311,1.209,1.209,0,0,1,.277.84,1.178,1.178,0,0,1-.286.838,1.05,1.05,0,0,1-.8.306,1.084,1.084,0,0,1-.744-.253,1.007,1.007,0,0,1-.329-.7h.414a.691.691,0,0,0,.21.445.652.652,0,0,0,.448.15.591.591,0,0,0,.479-.208.869.869,0,0,0,.172-.573.8.8,0,0,0-.187-.554.638.638,0,0,0-.5-.21.714.714,0,0,0-.448.126l-.115.095Z" transform="translate(-1713.293 -1737.695)" fill="#7eb3ff"/>
            </g>
            <g id="Grupo_88300" data-name="Grupo 88300" transform="translate(8.675)">
              <g id="Grupo_88290" data-name="Grupo 88290">
                <path id="Trazado_103042" data-name="Trazado 103042" d="M1632.454,1644.795H1487.96V1531.1h144.494Zm-144.211-.286h143.928V1531.384H1488.243Z" transform="translate(-1487.96 -1531.101)" fill="#7eb3ff"/>
              </g>
              <g id="Grupo_88291" data-name="Grupo 88291" transform="translate(0.143 94.507)">
                <rect id="Rectángulo_34803" data-name="Rectángulo 34803" width="144.214" height="0.285" fill="#7eb3ff"/>
              </g>
              <g id="Grupo_88292" data-name="Grupo 88292" transform="translate(0.143 75.602)">
                <rect id="Rectángulo_34804" data-name="Rectángulo 34804" width="144.214" height="0.283" fill="#7eb3ff"/>
              </g>
              <g id="Grupo_88293" data-name="Grupo 88293" transform="translate(0.143 56.705)">
                <rect id="Rectángulo_34805" data-name="Rectángulo 34805" width="144.214" height="0.283" fill="#7eb3ff"/>
              </g>
              <g id="Grupo_88294" data-name="Grupo 88294" transform="translate(0.143 37.804)">
                <rect id="Rectángulo_34806" data-name="Rectángulo 34806" width="144.214" height="0.285" fill="#7eb3ff"/>
              </g>
              <g id="Grupo_88295" data-name="Grupo 88295" transform="translate(0.143 18.904)">
                <rect id="Rectángulo_34807" data-name="Rectángulo 34807" width="144.214" height="0.283" fill="#7eb3ff"/>
              </g>
              <g id="Grupo_88296" data-name="Grupo 88296" transform="translate(115.375 0.143)">
                <rect id="Rectángulo_34808" data-name="Rectángulo 34808" width="0.278" height="113.408" fill="#7eb3ff"/>
              </g>
              <g id="Grupo_88297" data-name="Grupo 88297" transform="translate(86.526 0.143)">
                <rect id="Rectángulo_34809" data-name="Rectángulo 34809" width="0.286" height="113.408" fill="#7eb3ff"/>
              </g>
              <g id="Grupo_88298" data-name="Grupo 88298" transform="translate(57.688 0.143)">
                <rect id="Rectángulo_34810" data-name="Rectángulo 34810" width="0.278" height="113.408" fill="#7eb3ff"/>
              </g>
              <g id="Grupo_88299" data-name="Grupo 88299" transform="translate(28.844 0.143)">
                <rect id="Rectángulo_34811" data-name="Rectángulo 34811" width="0.286" height="113.408" fill="#7eb3ff"/>
              </g>
            </g>
          </g>
          <g id="Grupo_88304" data-name="Grupo 88304" transform="translate(19.788 4.608)">
            <rect id="Rectángulo_34812" data-name="Rectángulo 34812" width="6.909" height="48.25" transform="translate(0 60.693)" fill="#9ac7f7"/>
            <rect id="Rectángulo_34813" data-name="Rectángulo 34813" width="6.914" height="48.25" transform="translate(28.807 60.693)" fill="#c5e1f9"/>
            <rect id="Rectángulo_34814" data-name="Rectángulo 34814" width="6.912" height="48.25" transform="translate(57.626 60.693)" fill="#0561fc"/>
            <rect id="Rectángulo_34815" data-name="Rectángulo 34815" width="6.909" height="48.25" transform="translate(86.44 60.693)" fill="#9ac7f7"/>
            <rect id="Rectángulo_34816" data-name="Rectángulo 34816" width="6.912" height="48.25" transform="translate(115.257 60.693)" fill="#0561fc"/>
            <rect id="Rectángulo_34817" data-name="Rectángulo 34817" width="6.909" height="8.455" transform="translate(0 52.238)" fill="#9ac7f7"/>
            <rect id="Rectángulo_34818" data-name="Rectángulo 34818" width="6.914" height="37.2" transform="translate(28.807 23.493)" fill="#c5e1f9"/>
            <rect id="Rectángulo_34819" data-name="Rectángulo 34819" width="6.909" height="32.711" transform="translate(86.44 27.982)" fill="#9ac7f7"/>
            <rect id="Rectángulo_34820" data-name="Rectángulo 34820" width="6.912" height="60.693" transform="translate(115.257)" fill="#0561fc"/>
            <path id="Trazado_103043" data-name="Trazado 103043" d="M1535.306,1592.108a7.773,7.773,0,1,1-7.781-7.776A7.775,7.775,0,0,1,1535.306,1592.108Z" transform="translate(-1512.85 -1558.77)" fill="#c5e1f9"/>
            <g id="Grupo_88302" data-name="Grupo 88302" transform="translate(10.619 30.185)">
              <path id="Trazado_103044" data-name="Trazado 103044" d="M1529.455,1596.078h.749v.56h-.749v1.254h-.691v-1.254h-2.46v-.4l2.42-3.746h.731Zm-2.371,0h1.68v-2.65l-.081.148Z" transform="translate(-1526.304 -1592.488)" fill="#eaf4fe"/>
              <path id="Trazado_103045" data-name="Trazado 103045" d="M1534.69,1595.182l.274-2.694h2.768v.635h-2.186l-.163,1.474a1.739,1.739,0,0,1,.9-.235,1.491,1.491,0,0,1,1.173.488,1.915,1.915,0,0,1,.435,1.32,1.842,1.842,0,0,1-.452,1.315,1.637,1.637,0,0,1-1.258.481,1.7,1.7,0,0,1-1.169-.4,1.582,1.582,0,0,1-.517-1.1h.649a1.1,1.1,0,0,0,.332.7,1.023,1.023,0,0,0,.706.236.927.927,0,0,0,.751-.326,1.365,1.365,0,0,0,.273-.9,1.251,1.251,0,0,0-.3-.87,1,1,0,0,0-.785-.328,1.137,1.137,0,0,0-.706.2l-.182.148Z" transform="translate(-1529.853 -1592.488)" fill="#eaf4fe"/>
            </g>
            <line id="Línea_316" data-name="Línea 316" x2="6.351" transform="translate(22.456 33.339)" fill="none" stroke="#c5e1f9" stroke-miterlimit="10" stroke-width="0.48"/>
            <path id="Trazado_103046" data-name="Trazado 103046" d="M1688.008,1558.759a7.776,7.776,0,1,1-7.778-7.776A7.775,7.775,0,0,1,1688.008,1558.759Z" transform="translate(-1579.001 -1544.322)" fill="#0561fc"/>
            <g id="Grupo_88303" data-name="Grupo 88303" transform="translate(97.545 11.211)">
              <path id="Trazado_103047" data-name="Trazado 103047" d="M1679.866,1561.835l.274-2.694h2.769v.635h-2.185l-.163,1.474a1.745,1.745,0,0,1,.9-.235,1.489,1.489,0,0,1,1.173.489,1.913,1.913,0,0,1,.435,1.319,1.843,1.843,0,0,1-.452,1.316,1.637,1.637,0,0,1-1.258.481,1.7,1.7,0,0,1-1.17-.4,1.579,1.579,0,0,1-.516-1.1h.649a1.1,1.1,0,0,0,.331.7,1.027,1.027,0,0,0,.706.235.928.928,0,0,0,.751-.326,1.369,1.369,0,0,0,.273-.9,1.253,1.253,0,0,0-.3-.871,1,1,0,0,0-.786-.328,1.135,1.135,0,0,0-.706.2l-.181.147Z" transform="translate(-1679.673 -1559.067)" fill="#eaf4fe"/>
              <path id="Trazado_103048" data-name="Trazado 103048" d="M1690.24,1560.5a1.241,1.241,0,0,1-.214.72,1.443,1.443,0,0,1-.577.494,1.532,1.532,0,0,1,.67.531,1.337,1.337,0,0,1,.248.79,1.409,1.409,0,0,1-.473,1.118,2.074,2.074,0,0,1-2.494,0,1.414,1.414,0,0,1-.469-1.115,1.377,1.377,0,0,1,.239-.79,1.5,1.5,0,0,1,.662-.534,1.41,1.41,0,0,1-.567-.494,1.274,1.274,0,0,1-.208-.717,1.4,1.4,0,0,1,.439-1.083,1.858,1.858,0,0,1,2.307,0A1.392,1.392,0,0,1,1690.24,1560.5Zm-.56,2.521a1,1,0,0,0-.287-.739,1.022,1.022,0,0,0-.752-.286.966.966,0,0,0-1.024,1.025.96.96,0,0,0,.273.724,1.22,1.22,0,0,0,1.516,0A.956.956,0,0,0,1689.68,1563.016Zm-1.031-3.441a.885.885,0,0,0-.654.25,1.033,1.033,0,0,0,0,1.348.98.98,0,0,0,1.317,0,1.019,1.019,0,0,0-.009-1.338A.877.877,0,0,0,1688.649,1559.575Z" transform="translate(-1682.817 -1559.011)" fill="#eaf4fe"/>
            </g>
            <line id="Línea_317" data-name="Línea 317" x2="6.355" transform="translate(109.007 14.437)" fill="none" stroke="#003e99" stroke-miterlimit="10" stroke-width="0.48"/>
          </g>
        </g>
      </g>
      <g id="Grupo_88307" data-name="Grupo 88307" transform="translate(1493.02 1434.199)">
        <path id="Trazado_103049" data-name="Trazado 103049" d="M1750.183,1462.938c2.662.3,5.457,4.091,5.457,4.091l-6.049.049a5.5,5.5,0,0,0-.061,2.008l-.306,6.153.088,2.86a5.214,5.214,0,0,1-.12,2.041c-.829,1.223-1.442.14-1.442.14l-1.287-11.074-1.578,10.572s-.43,1.323-1.154,1.365c-.673.037-.636-.4-.636-.4l-1-12.35-1.426,5.37s-.448,1.283-1.152,1.361c-.768.087-.977.132-.977.132l1.4-11.3A27.521,27.521,0,0,1,1750.183,1462.938Z" transform="translate(-1738.536 -1462.808)" fill="#f0bf97"/>
        <path id="Trazado_103050" data-name="Trazado 103050" d="M1746.269,1473.875l-1.539,7.377a6.2,6.2,0,0,1-.727,2.425.992.992,0,0,1-1.393.32l1.246-11.341Z" transform="translate(-1740.301 -1467.074)" fill="#f0bf97"/>
      </g>
      <g id="Grupo_88319" data-name="Grupo 88319" transform="translate(1171.813 1396.769)">
        <g id="Grupo_88318" data-name="Grupo 88318" clip-path="url(#clip-path)">
          <g id="Grupo_88311" data-name="Grupo 88311" transform="translate(332.303 16.361)">
            <g id="Grupo_88310" data-name="Grupo 88310">
              <path id="Trazado_103051" data-name="Trazado 103051" d="M1843.719,1508.85s5.662,8.381-4.606,18c-17.509,16.394-40.1,25.434-44.465,27.33s-17.644,5.006-22.111-.872,9.212-16.8,9.212-16.8,15.375-8.461,29.212-17.321S1843.719,1508.85,1843.719,1508.85Z" transform="translate(-1763.974 -1461.686)" fill="#636363"/>
              <g id="Grupo_88309" data-name="Grupo 88309">
                <path id="Trazado_103052" data-name="Trazado 103052" d="M1873.3,1478.778c.364,4.325,2.687,8.075,5.135,8.251h6.959c2.448-.176,4.773-3.926,5.136-8.251q.857-10.7,1.71-21.4c.38-4.279-1.293-12.869-5-15.4a9.231,9.231,0,0,0-10.657,0c-3.7,2.535-5.375,11.125-5,15.4Q1872.441,1468.076,1873.3,1478.778Z" transform="translate(-1807.248 -1431.98)" fill="#f0bf97"/>
                <path id="Trazado_103053" data-name="Trazado 103053" d="M1961.811,1649.748l-21.114,34.324s31.4-15.08,29.777-29.124S1961.811,1649.748,1961.811,1649.748Z" transform="translate(-1837.212 -1521.536)" fill="#f0bf97"/>
                <path id="Trazado_103054" data-name="Trazado 103054" d="M1855.3,1700.345s-11.775,55.8-24.051,85.377c-10.878,26.212-23.564-7.885-23.564-7.885l19.853-101.487,32.733-2.48S1862.516,1674.7,1855.3,1700.345Z" transform="translate(-1779.588 -1533.176)" fill="#194866"/>
                <path id="Trazado_103055" data-name="Trazado 103055" d="M1883.809,1671.487l-4.024,43.46,5.675,3.335s3.283,64.548,4.354,67.813c6.134,18.687,22.017,7.475,24.183,1.246s5.774-52.319,5.056-85.957l-.725-33.636Z" transform="translate(-1810.824 -1530.525)" fill="#194866"/>
                <path id="Trazado_103056" data-name="Trazado 103056" d="M1834.149,1522.531l21.056-10.739,5.658,2.3,16.261-1.765,25.246,8.647s5.125,6.677.542,30.679c-4.561,23.887-4.975,62.406-4.975,62.406l-62.962,3.729S1826.567,1517.272,1834.149,1522.531Z" transform="translate(-1789.681 -1462.96)" fill="#636363"/>
                <path id="Trazado_103057" data-name="Trazado 103057" d="M1937.832,1528.294s8.559-7.39,18.408,6.238c14.653,20.286,23.278,43.682,24.9,48.365s3.788,18.72-2.706,22.879l-6.5,4.162-14.458-8.444,2.485-4.556,1.686-2.08s-7.577-16.644-15.7-31.723S1937.832,1528.294,1937.832,1528.294Z" transform="translate(-1835.971 -1469.243)" fill="#636363"/>
                <path id="Trazado_103058" data-name="Trazado 103058" d="M1881.83,1510.451l4.063,7.777,12.553-9.193-2.477-4.419Z" transform="translate(-1811.71 -1459.852)" fill="#7eb3ff"/>
                <path id="Trazado_103059" data-name="Trazado 103059" d="M1867.708,1505.05l5.673,5.588-5.475,6.578-3.127-8.388Z" transform="translate(-1804.323 -1460.04)" fill="#7eb3ff"/>
                <path id="Trazado_103060" data-name="Trazado 103060" d="M1923.054,2059.494c.552.755.135,2.749.135,2.749s-9.724,1.253-12.848.445a15.582,15.582,0,0,1-3.473-1.818c-.218-.137-.6-.976-.811-1.111-.391-.261-.6.177-.93-.057a11.655,11.655,0,0,1-1.48-1.145c-.833-5,.311-7.021.311-7.021s8.29-3.125,9.833-.979C1917.421,2055.607,1921.841,2057.842,1923.054,2059.494Z" transform="translate(-1821.03 -1696.038)" fill="#161711"/>
                <path id="Trazado_103061" data-name="Trazado 103061" d="M1790.855,2043.024l-1.483,8.13h-7.889s-.436-1.154-1.1-1.154c-.567,0-1.294,1.154-2.057,1.154h-20.071s-.358-1.712.075-2.3a7.429,7.429,0,0,1,2.424-1.085c4.08-1.206,15.741-4.964,17.772-9.058C1780.992,2033.734,1790.855,2043.024,1790.855,2043.024Z" transform="translate(-1758.114 -1690.597)" fill="#161711"/>
                <path id="Trazado_103062" data-name="Trazado 103062" d="M1898.163,1842.426s-2.628,12.21-2.25,35.292c.239,14.629,1.595,53.364,4.12,82.2.154,1.764,13.717.431,13.717.431s8.263-93.6,8.983-111.72C1922.956,1843.17,1908.991,1829.515,1898.163,1842.426Z" transform="translate(-1817.795 -1603.864)" fill="#194866"/>
                <path id="Trazado_103063" data-name="Trazado 103063" d="M1804.542,1853.756s4.271-1.681,15.892,1.673c7.568,2.183-15.53,108.945-15.53,108.945l-17.107-6.283,11.766-105.449Z" transform="translate(-1770.973 -1610.624)" fill="#194866"/>
                <g id="Grupo_88308" data-name="Grupo 88308" transform="translate(56.438)">
                  <path id="Trazado_103064" data-name="Trazado 103064" d="M1874.889,1430.587v-4.951H1864.2a6.51,6.51,0,0,0-6.51,6.512v4.949h10.694A6.51,6.51,0,0,0,1874.889,1430.587Z" transform="translate(-1857.69 -1425.636)" fill="#163f59"/>
                  <path id="Trazado_103065" data-name="Trazado 103065" d="M1887.216,1462.865a5.787,5.787,0,0,1-5.788,5.788h-13.137a5.787,5.787,0,0,1-5.789-5.788v-26.273a5.792,5.792,0,0,1,5.789-5.792h13.137a5.792,5.792,0,0,1,5.788,5.792Z" transform="translate(-1859.775 -1427.873)" fill="#f0bf97"/>
                  <path id="Trazado_103066" data-name="Trazado 103066" d="M1879.9,1425.636a6.5,6.5,0,0,1,5.443,2.944h2.236a5.044,5.044,0,0,1,5.043,5.046v12.46h-3.549v-5.066a3.551,3.551,0,0,0-3.551-3.545h-10.715a6.511,6.511,0,0,1-6.51-6.511v-5.327Z" transform="translate(-1862.285 -1425.636)" fill="#163f59"/>
                  <path id="Trazado_103067" data-name="Trazado 103067" d="M1902.978,1465.073a3.085,3.085,0,0,1,3.088-3.084h.256a3.087,3.087,0,0,1,3.091,3.084v3.755a3.089,3.089,0,0,1-3.091,3.085h-.256a3.1,3.1,0,0,1-2.827-1.84" transform="translate(-1877.31 -1441.384)" fill="#f0bf97"/>
                </g>
              </g>
            </g>
          </g>
          <g id="Grupo_88317" data-name="Grupo 88317" transform="translate(7.74 57.9)">
            <path id="Trazado_103068" data-name="Trazado 103068" d="M1453.964,2039.3l-.017,7.5.872,6.3,2.514,1.881,1.948.732.478,1.087,6.516,4.881a12.788,12.788,0,0,0,7.644,1.071c1.107-.155-.148-3.065-.488-3.521a52.4,52.4,0,0,0-5.044-5.508l-4.809-6.689-5.372-8.321Z" transform="translate(-1301.779 -1732.774)" fill="#00046d"/>
            <path id="Trazado_103069" data-name="Trazado 103069" d="M1322.456,2053.248l1.45,3.125.625,3.438-.625,5.346-3.107.179-2.284-.653-1.612.88s-8.858.927-12.141.766c-5.441-.267-8.366-1.031-9.344-2.1-.54-.6,2.081-1.478,2.928-1.534a33.317,33.317,0,0,0,10.212-2.8l4.355-3.9,1.038-2.927Z" transform="translate(-1233.069 -1738.986)" fill="#00046d"/>
            <path id="Trazado_103070" data-name="Trazado 103070" d="M1392.175,1760.438l34.716,165.877-12.514-.37-19.238-53.486-4.388-16-20.255-63.285-5.128-33.935Z" transform="translate(-1263.406 -1611.698)" fill="#212957"/>
            <path id="Trazado_103071" data-name="Trazado 103071" d="M1335.915,1925.9l2.694-67.08,5.937-30.351,7.661-41.7-3.07-28.584-27.241-1.62,1.076,48.062-2.781,43.061-.546,16.266,1.426,64.353Z" transform="translate(-1243.597 -1610.54)" fill="#212957"/>
            <g id="Grupo_88313" data-name="Grupo 88313" transform="translate(91.858)">
              <path id="Trazado_103072" data-name="Trazado 103072" d="M1347.54,1574.147l8.128-32.9,13.235,6.257,3.37,36.535Z" transform="translate(-1347.54 -1517.26)" fill="#f7b68b"/>
              <g id="Grupo_88312" data-name="Grupo 88312" transform="translate(2.7)">
                <path id="Trazado_103073" data-name="Trazado 103073" d="M1381.267,1533.091a3,3,0,0,1-2.292,3.577l-13.217,2.875a3.007,3.007,0,0,1-3.574-2.3l-4.255-19.57a3.006,3.006,0,0,1,2.3-3.578l13.21-2.866a3,3,0,0,1,3.575,2.294Z" transform="translate(-1354.71 -1504.225)" fill="#f7b68b"/>
                <path id="Trazado_103074" data-name="Trazado 103074" d="M1390.352,1517.187a11.4,11.4,0,0,0,1.433-3.515,4.475,4.475,0,0,0-2.673-3.261c-1.656-.534-2.53,1.318-2.53,1.318s2.627.8,2.855,1.257S1390.352,1517.187,1390.352,1517.187Z" transform="translate(-1367.154 -1503.859)" fill="#163f59"/>
                <path id="Trazado_103075" data-name="Trazado 103075" d="M1356.091,1521.47s-3.63-7.084-3.745-9.364-.2-3.868,2.436-4.7c3.948-1.239,4.185-.4,5.875-2.05s4.571-5.359,5.716-5.915c1.915-.932,5.217-.944,6.165,2.823a4.316,4.316,0,0,0,2.59,3.2c-.084.374-.749.855-1.89,1.773-3.275,2.635-5.4,3.482-8.366,3.356s-8.557-.572-8.717,1.641,1.468,8.521,1.334,9.062S1356.664,1521.736,1356.091,1521.47Z" transform="translate(-1352.304 -1498.925)" fill="#194866"/>
                <path id="Trazado_103076" data-name="Trazado 103076" d="M1364.021,1542.881a1.007,1.007,0,0,1-.769,1.193l-2.853.618a1,1,0,0,1-1.194-.763l-1.136-5.217a1.011,1.011,0,0,1,.765-1.2l2.855-.617a.994.994,0,0,1,1.188.763Z" transform="translate(-1354.792 -1515.366)" fill="#f7b68b"/>
                <path id="Trazado_103077" data-name="Trazado 103077" d="M1394.048,1536.339a1,1,0,0,1-.76,1.194l-2.852.622a1,1,0,0,1-1.2-.769l-1.132-5.216a1,1,0,0,1,.763-1.191l2.855-.624a1.007,1.007,0,0,1,1.189.77Z" transform="translate(-1367.805 -1512.532)" fill="#f7b68b"/>
                <path id="Trazado_103078" data-name="Trazado 103078" d="M1361.88,1540.813s1.674,7.7,2.233,10.271c.5,2.324,2.543,7.22,15.661,4.359,7.767-1.683,6.243-7.33,5.833-9.207-.311-1.427-2.857-5.351-3.854-5.992-.034-.019.69,3.181.69,3.181a6.352,6.352,0,0,0-5.98-1.942c-5.956,1.293-6.551,5.074-9.189,5.584C1365.239,1547.459,1363.009,1544.5,1361.88,1540.813Z" transform="translate(-1356.453 -1516.826)" fill="#194866"/>
                <path id="Trazado_103079" data-name="Trazado 103079" d="M1384.223,1550.26l4.075-.888a1,1,0,0,0,.765-1.194l-.125-.571-6.033,1.318.125.569A1,1,0,0,0,1384.223,1550.26Z" transform="translate(-1365.561 -1520.015)" fill="#f7b68b"/>
              </g>
            </g>
            <path id="Trazado_103080" data-name="Trazado 103080" d="M1314.925,1694.288l1.066-100.39s15.453-11.053,40.776-4.012l22.656,15.437-4.907,88.965Z" transform="translate(-1241.552 -1537.315)" fill="#c5e1f9"/>
            <path id="Trazado_103081" data-name="Trazado 103081" d="M1210.843,1680.348l-9.386-34.7s17.818,20.313,18.467,31.778S1210.843,1680.348,1210.843,1680.348Z" transform="translate(-1192.395 -1562.489)" fill="#f7b68b"/>
            <g id="Grupo_88314" data-name="Grupo 88314" transform="translate(0 75.416)">
              <path id="Trazado_103082" data-name="Trazado 103082" d="M1199.679,1649.39s3.19-4.5,2.749-6.014-2.419-6.944-2.419-6.944l-.638-1.34s-1.873-.137-.5,3.5-.272,2.22-.272,2.22l-2.506-2.835-3.344-3.239-1.3-1.623s-.668-.977-1.025-1.072c-1.035-.285-.867.6-.867.6l4.512,6.73-5.859-5.1s-.858-.529-1.279-.212c-.4.3-.165.525-.165.525l5.268,7.3-3.317-2.292s-.853-.5-1.281-.213c-.465.313-.6.388-.6.388l11.564,10.583Z" transform="translate(-1186.003 -1631.985)" fill="#f7b68b"/>
              <path id="Trazado_103083" data-name="Trazado 103083" d="M1192.266,1642.912l-4.331-3.352a4.483,4.483,0,0,0-1.545-1,.72.72,0,0,0-.921.478l6.033,5.682Z" transform="translate(-1185.469 -1634.823)" fill="#f7b68b"/>
            </g>
            <g id="Grupo_88316" data-name="Grupo 88316" transform="translate(173.585 100.332)">
              <path id="Trazado_103084" data-name="Trazado 103084" d="M1494.491,1694.19l36.3-5.7s-25.8,16.985-34.646,18.14S1494.491,1694.19,1494.491,1694.19Z" transform="translate(-1491.734 -1681.382)" fill="#f7b68b"/>
              <g id="Grupo_88315" data-name="Grupo 88315" transform="translate(27.104)">
                <path id="Trazado_103085" data-name="Trazado 103085" d="M1539.555,1687.284s.5-5.811,1.884-6.735,6.69-3.956,6.69-3.956l1.432-.646s1.6,1.168-1.984,3.168-1.293,1.977-1.293,1.977l3.954-.581,4.913-.333,2.156-.425a3.969,3.969,0,0,1,1.559-.166c1.029.475.288,1.074.288,1.074l-8.234,2.357,8.211-.12s1.053.159,1.176.7c.116.508-.225.538-.225.538l-9.235,2.3,4.245.409s1.028.182,1.177.705c.162.571.222.723.222.723l-16.559.656Z" transform="translate(-1539.555 -1675.947)" fill="#f7b68b"/>
                <path id="Trazado_103086" data-name="Trazado 103086" d="M1560.1,1690.958l5.784.248a4.732,4.732,0,0,1,1.929.248.762.762,0,0,1,.416,1.016l-8.75.472Z" transform="translate(-1548.185 -1682.45)" fill="#f7b68b"/>
              </g>
            </g>
            <path id="Trazado_103087" data-name="Trazado 103087" d="M1392.468,1642.534l28.825,41.772,52.031-21.008-4.4-13.436-39.574,10.748s-11.725-44.215-18.321-53.009-11.97-10.016-11.97-10.016Z" transform="translate(-1275.145 -1541.667)" fill="#c5e1f9"/>
            <path id="Trazado_103088" data-name="Trazado 103088" d="M1268.3,1594.971a99.419,99.419,0,0,0-24.184,31.512c-9.771,20.031-15.634,32.978-15.634,32.978l-16.611-25.65-11.726,10.748,27.115,43.971s3.908,4.641,8.061,0,38.108-57.406,38.108-57.406S1280.758,1594.483,1268.3,1594.971Z" transform="translate(-1191.827 -1540.532)" fill="#c5e1f9"/>
            <path id="Trazado_103089" data-name="Trazado 103089" d="M1381.181,1592.169" transform="translate(-1270.255 -1539.32)" fill="#d5dee7"/>
            <path id="Trazado_103090" data-name="Trazado 103090" d="M1389.054,1660.992l-4.362,15.832-9.482-14.732,1.517-57.389-3.034-5.5,5.31-7.036,4.172,5.937-2.086,5.717Z" transform="translate(-1267.011 -1539.32)" fill="#ca4f4e"/>
            <path id="Trazado_103091" data-name="Trazado 103091" d="M1369.02,1579.469l-9.526,4.641-18.566-6.6-5.862,8.55,18.321,12.7,7.085-10.26,3.87,3.745,3.7,3.583,7.817-5.863Z" transform="translate(-1250.277 -1532.972)" fill="#c5e1f9"/>
            <path id="Trazado_103092" data-name="Trazado 103092" d="M1335.065,1592.6l18.321,12.7,7.085-10.26,3.87,3.745c.16.155,3.541,5.08,3.7,5.236" transform="translate(-1250.277 -1539.507)" fill="none" stroke="#2f76a7" stroke-miterlimit="10" stroke-width="0.972"/>
          </g>
        </g>
      </g>
      <g id="Grupo_88327" data-name="Grupo 88327" transform="translate(1235.857 1526.459)">
        <g id="Grupo_88320" data-name="Grupo 88320" transform="translate(136.705 85.404)">
          <path id="Trazado_103093" data-name="Trazado 103093" d="M1553.986,1826.242l-14.833-2.923-2.728-.537s-1.208,7.092,1.934,10.06,15.16.525,16.848-.591S1553.986,1826.242,1553.986,1826.242Z" transform="translate(-1530.42 -1796.42)" fill="#ec9568"/>
          <path id="Trazado_103094" data-name="Trazado 103094" d="M1526,1827.278l4.43,7.491,5.537-.647-3.961-11.341Z" transform="translate(-1526.004 -1796.42)" fill="#ec9568"/>
          <path id="Trazado_103095" data-name="Trazado 103095" d="M1624.548,1783.446c.695,6.25-16.62,23.94-18.4,24.653-8.681,3.472-43.751,5.556-45.833,4.861-2.264-.755-.057-6.506,2.43-6.944,5.9-1.042,19.886-5.333,33.681-9.722,7.638-2.43,12.921-17.961,20.833-19.792C1622.388,1775.315,1624.038,1778.861,1624.548,1783.446Z" transform="translate(-1540.458 -1776.271)" fill="#ec9568"/>
        </g>
        <path id="Trazado_103096" data-name="Trazado 103096" d="M1674.887,1723.934a12.314,12.314,0,0,0-8.332,2.083c-3.82,2.778-21.528,30.556-22.222,31.944s14.583,13.195,14.583,13.195S1683.569,1748.587,1674.887,1723.934Z" transform="translate(-1440.552 -1668.16)" fill="#2a75a9"/>
        <path id="Trazado_103097" data-name="Trazado 103097" d="M1723.11,1733.457s-5.9-6.945-7.292-7.639-39-1.62-39-1.62-16.548,72.933-15.74,73.149h50.579S1724.846,1749.776,1723.11,1733.457Z" transform="translate(-1447.802 -1668.308)" fill="#60c1dd"/>
        <g id="Grupo_88325" data-name="Grupo 88325" transform="translate(0 66.019)">
          <g id="Grupo_88323" data-name="Grupo 88323" transform="translate(103.317)">
            <path id="Trazado_103098" data-name="Trazado 103098" d="M1597.338,1841.76l.044-.083-.044-2.575H1490.706v2.575s-.018.056,0,.083l.271.479c1.37,2.233,3.829,2.634,6.644,2.634h92.8c2.816,0,5.27-.4,6.645-2.634Z" transform="translate(-1477.321 -1784.106)" fill="#d0dee6"/>
            <path id="Trazado_103099" data-name="Trazado 103099" d="M1633.5,1842.966a.1.1,0,0,0,0,.071l.265.39a4.325,4.325,0,0,0,1.559,1.31h16.214c2.709,0,5.073-.323,6.392-2.128l.255-.393a.453.453,0,0,0,.048-.065l-.027-1.267H1633.5Z" transform="translate(-1539.183 -1784.878)" fill="#b6c2c9"/>
            <g id="Grupo_88321" data-name="Grupo 88321" transform="translate(26.643 55.591)">
              <rect id="Rectángulo_34822" data-name="Rectángulo 34822" width="53.281" height="1.821" fill="#b6c2c9"/>
            </g>
            <g id="Grupo_88322" data-name="Grupo 88322">
              <path id="Trazado_103100" data-name="Trazado 103100" d="M1560.823,1796.973l-13.825-52.4a3.481,3.481,0,0,0-3.163-2.506h-74.812a1.864,1.864,0,0,0-1.841,2.506l13.824,52.4Z" transform="translate(-1467.096 -1742.07)" fill="#d7dfe2"/>
              <path id="Trazado_103101" data-name="Trazado 103101" d="M1550.288,1786.8c.707,2.672-.895,4.842-3.566,4.842a6.745,6.745,0,0,1-6.124-4.842c-.7-2.679.889-4.85,3.567-4.85A6.741,6.741,0,0,1,1550.288,1786.8Z" transform="translate(-1498.867 -1759.347)" fill="#b6c2c9"/>
            </g>
          </g>
          <g id="Grupo_88324" data-name="Grupo 88324" transform="translate(0 60.697)">
            <rect id="Rectángulo_34823" data-name="Rectángulo 34823" width="185.441" height="10.192" transform="translate(201.993)" fill="#387bff"/>
            <rect id="Rectángulo_34824" data-name="Rectángulo 34824" width="210.569" height="10.192" fill="#7eb3ff"/>
          </g>
        </g>
        <path id="Trazado_103102" data-name="Trazado 103102" d="M1749.586,1794.142l8.334,13.195-58.45,4.745s-1.967,4.977,1.5,6.019,71.528,0,71.528,0,10.416-3.125,4.861-12.153-17.014-27.431-17.014-27.431Z" transform="translate(-1464.208 -1691.84)" fill="#f7b68b"/>
        <path id="Trazado_103103" data-name="Trazado 103103" d="M1788.316,1798.919l10.069-9.375s5.049,5.05,10.125,11.057c-5.112,2.271-10.636,4.453-16.306,4.475Z" transform="translate(-1502.938 -1696.617)" fill="#ec9568"/>
        <path id="Trazado_103104" data-name="Trazado 103104" d="M1750.179,1728.89c2.471-1.776,6.373-.472,10.806,2.51,13.3,8.945,31.358,32.994,29.819,34.3-5.454,4.616-11.59,9.305-19.1,9.722-6.251.347-16.1-12.33-19.792-21.527C1749.287,1747.332,1744.621,1732.886,1750.179,1728.89Z" transform="translate(-1485.288 -1669.992)" fill="#2a75a9"/>
        <path id="Trazado_103105" data-name="Trazado 103105" d="M1687.3,1833.593l-14.462-4.4-2.66-.809s-1.917,6.933.91,10.2,15.03,2.051,16.821,1.111S1687.3,1833.593,1687.3,1833.593Z" transform="translate(-1451.483 -1713.442)" fill="#f7b68b"/>
        <path id="Trazado_103106" data-name="Trazado 103106" d="M1659.32,1832.248l3.652,7.9,5.574-.085-2.8-11.682Z" transform="translate(-1447.055 -1713.442)" fill="#ec9568"/>
        <path id="Trazado_103107" data-name="Trazado 103107" d="M1704.783,1641.68s-9.86,1.135-13.061-2.533,5.9-2.717,1.894.122-13.292-1.768-10.99-6.409,6.082-6.715,9.873-4.153.8,4.165-.676,1.6,3.97-9.089,8.992-.176,2.473,9.686.669,3.74,1.885-9.848,4.924-2.885-1.2,10.568-2.379,7.448,7.856-10.037,8.746-4.044,1.675,13.175-2.9,13.4,5.629-15.853,10.195-3.092-3.97,9.089-4.381,6.2,15.459,2.036,3.4,6.622-7.634-.7-8.747-3.609,10.407,4.5,4.475,10.935-11.8,5.434-10.78-1.137,8.024-3.362,5.978,2.128,1.45,8.606,2.77,9.134-8.276,4.828-10.312-.353S1697.072,1643.786,1704.783,1641.68Z" transform="translate(-1456.995 -1625.589)" fill="#212a54"/>
        <path id="Trazado_103108" data-name="Trazado 103108" d="M1682.706,1656.621l-.135-2.741,5.4-7.435s.5,2.4,9.6,3.352c13.567,1.418,1.822,5.245,1.309,11.2-.282,3.253.471,5.56,1.453,6.541a46.235,46.235,0,0,1-9.789,12.677l-.048-.209-5.754,2.439c-5.754,2.441-5.091-3.79-5.091-3.79l.667-11.566-2.286-3.714Z" transform="translate(-1455.159 -1634.624)" fill="#f7b68b"/>
        <path id="Trazado_103109" data-name="Trazado 103109" d="M1682.705,1656.621l-.135-2.742,5.4-7.435s.5,2.4,9.6,3.352c13.567,1.418,1.822,5.245,1.309,11.2s2.428,8.772,3.907,6,6.154-4.185,8.392-1.386-4.077,7.963-5.5,8.626a3.432,3.432,0,0,1-2.465.284s5.177,14.243,7.856,21.276c-1.473,1.028-12.257,6.781-16.707,4.9-.668-6.032-3.865-20.695-3.865-20.695l-5.754,2.439c-5.753,2.44-5.091-3.79-5.091-3.79l.667-11.566-2.286-3.714Z" transform="translate(-1455.159 -1634.624)" fill="#f7b68b"/>
        <g id="Grupo_88326" data-name="Grupo 88326" transform="translate(226.294 5.59)">
          <path id="Trazado_103110" data-name="Trazado 103110" d="M1731.943,1680.455a5.277,5.277,0,1,1-4.12-6.222A5.277,5.277,0,0,1,1731.943,1680.455Z" transform="translate(-1700.284 -1652.206)" fill="#c5e1f9"/>
          <path id="Trazado_103111" data-name="Trazado 103111" d="M1684.082,1669.139s19.893,11.013,26.482-6.49c12.887-34.227-2.705-26.436-2.705-26.436" transform="translate(-1684.076 -1635.451)" fill="none" stroke="#fff" stroke-miterlimit="10" stroke-width="1.866"/>
          <path id="Trazado_103112" data-name="Trazado 103112" d="M1686.542,1696.072l-1.846-.9a1.114,1.114,0,0,1-.515-1.484h0a1.114,1.114,0,0,1,1.484-.515l1.847.9a1.114,1.114,0,0,1,.515,1.484h0A1.114,1.114,0,0,1,1686.542,1696.072Z" transform="translate(-1684.071 -1660.411)" fill="#eaf4fe"/>
          <path id="Trazado_103113" data-name="Trazado 103113" d="M1731.623,1681.3a3.787,3.787,0,1,1-2.957-4.467A3.788,3.788,0,0,1,1731.623,1681.3Z" transform="translate(-1701.422 -1653.344)" fill="#eaf4fe"/>
        </g>
      </g>
    </g>
  </g>
</svg>
