<svg xmlns="http://www.w3.org/2000/svg" width="374.198" height="304.196" viewBox="0 0 374.198 304.196">
  <g id="Grupo_87526" data-name="Grupo 87526" transform="translate(-852.38 -120.676)">
    <path id="Trazado_100927" data-name="Trazado 100927" d="M1026.629,763.464s61.365,35.022,62.248,33.226,110.668-48.208,110.668-48.208l-64.38-27.756Z" transform="translate(-107.121 -371.884)" fill="#fff"/>
    <ellipse id="Elipse_4744" data-name="Elipse 4744" cx="47.947" cy="18.108" rx="47.947" ry="18.108" transform="translate(1130.683 337.663)" fill="#86b9d4"/>
    <g id="Grupo_87482" data-name="Grupo 87482" transform="translate(898.676 222.657)">
      <path id="Trazado_100928" data-name="Trazado 100928" d="M1090.172,549l78.216-21.506c9.385-2.581,9.139-15.914-.352-19.075l-50.942-16.965Z" transform="translate(-1045.178 -452.448)" fill="#86b9d4"/>
      <g id="Grupo_87467" data-name="Grupo 87467" transform="translate(0 32.44)">
        <path id="Trazado_100929" data-name="Trazado 100929" d="M1070.844,522.052l.04-12.081-39.038-1.186a1.514,1.514,0,0,0-1.034-.02L972.045,531.98l.284,12.121c.051.641.01,1.307.4,1.433l43.2,14.124a1.515,1.515,0,0,0,1.034.02l52.9-35.686A2.384,2.384,0,0,0,1070.844,522.052Z" transform="translate(-971.969 -495.568)" fill="#447e9e"/>
        <path id="Trazado_100930" data-name="Trazado 100930" d="M1141.445,522.214l-.022-11.9-38.975-1.368c-.386-.126-16.3,9.36-16.484,9.476,0,0,.859,41.474,1,41.488a1.062,1.062,0,0,0,.6-.071l52.9-35.685A2.383,2.383,0,0,0,1141.445,522.214Z" transform="translate(-1042.57 -495.73)" fill="#36647d"/>
        <g id="Grupo_87466" data-name="Grupo 87466">
          <path id="Trazado_100931" data-name="Trazado 100931" d="M1016.521,525.182l54.239-36.59c.185-.115.03-.91-.357-1.036l-39-13.266a1.518,1.518,0,0,0-1.034-.021L971.921,510.6c-.185.115-.022.311.364.437l43.2,14.124A1.515,1.515,0,0,0,1016.521,525.182Z" transform="translate(-971.844 -474.188)" fill="#4a8aad"/>
          <g id="Grupo_87465" data-name="Grupo 87465" transform="translate(9.922 4.273)">
            <ellipse id="Elipse_4745" data-name="Elipse 4745" cx="5.186" cy="12.02" rx="5.186" ry="12.02" transform="translate(29.022 25.211) rotate(-86.699)" fill="#169e6f"/>
            <path id="Trazado_100932" data-name="Trazado 100932" d="M998.308,516.153a4.446,4.446,0,0,0,2.078,1.252l27.472,8.981a8.209,8.209,0,0,0,2.562.408,3.336,3.336,0,0,0,1.644-.354l46.726-29.044a.778.778,0,0,0,.219-1.212c-.008-.011-.018-.022-.026-.034l.067-.041-.131-.043a4.453,4.453,0,0,0-2.079-1.251l-27.471-8.981c-1.6-.524-3.411-.546-4.205-.054l-46.726,29.044a.752.752,0,0,0-.292,1.083l-.2.127Zm24.665,7.39-16.5-5.394c1.716-1.513.861-3.445-2.079-4.779l38.9-24.178c3.726.845,8.065.612,10.722-.594l16.5,5.394c-1.756,1.548-.816,3.535,2.293,4.871l-38.851,24.149C1030.173,522.1,1025.692,522.31,1022.973,523.543Z" transform="translate(-997.939 -485.425)" fill="#169e6f"/>
          </g>
        </g>
        <path id="Trazado_100933" data-name="Trazado 100933" d="M972.531,551.079l42.711,13.461c1.443.471,3.319-.309,4.541-1.114l51.385-35.309" transform="translate(-972.27 -507.611)" fill="none" stroke="#2f586e" stroke-linecap="round" stroke-linejoin="round" stroke-width="1.29"/>
      </g>
      <g id="Grupo_87474" data-name="Grupo 87474" transform="translate(0.203 15.942)">
        <path id="Trazado_100934" data-name="Trazado 100934" d="M1071.378,478.663l.04-12.08L1032.38,465.4a1.515,1.515,0,0,0-1.034-.02l-58.767,23.215.284,12.121c.051.641.01,1.307.4,1.433l43.2,14.124a1.516,1.516,0,0,0,1.034.02l52.9-35.686A2.384,2.384,0,0,0,1071.378,478.663Z" transform="translate(-972.503 -452.178)" fill="#447e9e"/>
        <path id="Trazado_100935" data-name="Trazado 100935" d="M1141.979,478.825l.04-12.08-39.038-1.186c-.386-.126-16.3,9.36-16.484,9.476,0,0,.859,41.474,1,41.488a1.062,1.062,0,0,0,.6-.071l52.9-35.686A2.383,2.383,0,0,0,1141.979,478.825Z" transform="translate(-1043.104 -452.341)" fill="#36647d"/>
        <g id="Grupo_87473" data-name="Grupo 87473">
          <path id="Trazado_100936" data-name="Trazado 100936" d="M1017.055,481.793l54.239-36.59c.185-.115.03-.91-.357-1.037l-39-13.266a1.518,1.518,0,0,0-1.034-.021l-58.45,36.332c-.185.115-.022.311.364.437l43.2,14.124A1.515,1.515,0,0,0,1017.055,481.793Z" transform="translate(-972.378 -430.799)" fill="#539bc2"/>
          <g id="Grupo_87472" data-name="Grupo 87472" transform="translate(9.922 4.273)">
            <g id="Grupo_87471" data-name="Grupo 87471">
              <g id="Grupo_87468" data-name="Grupo 87468" transform="translate(29.022 14.855)">
                <ellipse id="Elipse_4746" data-name="Elipse 4746" cx="5.186" cy="12.02" rx="5.186" ry="12.02" transform="translate(0 10.356) rotate(-86.699)" fill="#2f7094"/>
              </g>
              <g id="Grupo_87470" data-name="Grupo 87470">
                <g id="Grupo_87469" data-name="Grupo 87469">
                  <path id="Trazado_100937" data-name="Trazado 100937" d="M998.842,472.764a4.446,4.446,0,0,0,2.078,1.252L1028.391,483a8.213,8.213,0,0,0,2.562.408,3.335,3.335,0,0,0,1.644-.354l46.726-29.044a.778.778,0,0,0,.219-1.211c-.008-.012-.018-.023-.026-.034l.067-.041-.132-.043a4.453,4.453,0,0,0-2.079-1.251l-27.471-8.981c-1.6-.523-3.411-.546-4.2-.054l-46.726,29.044a.752.752,0,0,0-.292,1.083l-.2.127Zm24.665,7.39-16.5-5.394c1.716-1.513.861-3.445-2.079-4.779l38.9-24.178c3.725.845,8.065.612,10.722-.594l16.5,5.394c-1.756,1.548-.816,3.535,2.293,4.871l-38.851,24.149C1030.707,478.706,1026.226,478.921,1023.506,480.154Z" transform="translate(-998.473 -442.036)" fill="#2f7094"/>
                </g>
              </g>
            </g>
          </g>
        </g>
        <path id="Trazado_100938" data-name="Trazado 100938" d="M973.064,507.691l42.711,13.461c1.444.471,3.32-.309,4.541-1.115l51.385-35.308" transform="translate(-972.803 -464.223)" fill="none" stroke="#2f586e" stroke-linecap="round" stroke-linejoin="round" stroke-width="1.29"/>
      </g>
      <g id="Grupo_87481" data-name="Grupo 87481" transform="translate(0.203)">
        <path id="Trazado_100939" data-name="Trazado 100939" d="M1071.378,436.739l.04-12.081-39.038-1.186a1.52,1.52,0,0,0-1.034-.02l-58.767,23.215.284,12.121c.051.641.01,1.307.4,1.433l43.2,14.124a1.518,1.518,0,0,0,1.034.021l52.9-35.686A2.383,2.383,0,0,0,1071.378,436.739Z" transform="translate(-972.503 -410.254)" fill="#447e9e"/>
        <path id="Trazado_100940" data-name="Trazado 100940" d="M1141.979,436.9l.04-12.081-39.038-1.186c-.386-.126-16.3,9.36-16.484,9.476,0,0,.859,41.474,1,41.488a1.061,1.061,0,0,0,.6-.071l52.9-35.686A2.382,2.382,0,0,0,1141.979,436.9Z" transform="translate(-1043.104 -410.416)" fill="#36647d"/>
        <g id="Grupo_87480" data-name="Grupo 87480">
          <path id="Trazado_100941" data-name="Trazado 100941" d="M1017.055,439.869l54.239-36.59c.185-.115.03-.91-.357-1.036l-39-13.267a1.515,1.515,0,0,0-1.034-.02l-58.45,36.332c-.185.115-.022.311.364.437l43.2,14.124A1.518,1.518,0,0,0,1017.055,439.869Z" transform="translate(-972.378 -388.875)" fill="#539bc2"/>
          <g id="Grupo_87479" data-name="Grupo 87479" transform="translate(9.922 4.273)">
            <g id="Grupo_87478" data-name="Grupo 87478">
              <g id="Grupo_87475" data-name="Grupo 87475" transform="translate(29.022 14.855)">
                <ellipse id="Elipse_4747" data-name="Elipse 4747" cx="5.186" cy="12.02" rx="5.186" ry="12.02" transform="translate(0 10.356) rotate(-86.699)" fill="#2f7094"/>
              </g>
              <g id="Grupo_87477" data-name="Grupo 87477">
                <g id="Grupo_87476" data-name="Grupo 87476">
                  <path id="Trazado_100942" data-name="Trazado 100942" d="M998.842,430.84a4.452,4.452,0,0,0,2.078,1.252l27.472,8.981a8.211,8.211,0,0,0,2.562.409,3.334,3.334,0,0,0,1.644-.355l46.726-29.044a.778.778,0,0,0,.219-1.212c-.008-.011-.018-.022-.026-.034l.067-.041-.132-.043a4.454,4.454,0,0,0-2.079-1.251L1049.9,400.52c-1.6-.524-3.411-.546-4.2-.054L998.969,429.51a.753.753,0,0,0-.292,1.083l-.2.127Zm24.665,7.39-16.5-5.394c1.716-1.513.861-3.445-2.079-4.779l38.9-24.179c3.725.846,8.065.612,10.722-.594l16.5,5.395c-1.756,1.548-.816,3.535,2.293,4.87L1034.489,437.7C1030.707,436.782,1026.226,437,1023.506,438.23Z" transform="translate(-998.473 -400.112)" fill="#2f7094"/>
                </g>
              </g>
            </g>
          </g>
        </g>
        <path id="Trazado_100943" data-name="Trazado 100943" d="M973.064,465.766l42.711,13.461c1.444.471,3.32-.309,4.541-1.115L1071.7,442.8" transform="translate(-972.803 -422.298)" fill="none" stroke="#2f586e" stroke-linecap="round" stroke-linejoin="round" stroke-width="1.29"/>
      </g>
    </g>
    <path id="Trazado_100944" data-name="Trazado 100944" d="M1528.108,653.049l54.56-6.885,51.353-37.676a5.226,5.226,0,0,0-1.472-9.182l-69.631-22.684Z" transform="translate(-417.916 -282.574)" fill="#86b9d4"/>
    <circle id="Elipse_4748" data-name="Elipse 4748" cx="3.125" cy="3.125" r="3.125" transform="translate(1150.57 411.129) rotate(-76.717)" fill="none" stroke="#fff" stroke-linecap="round" stroke-linejoin="round" stroke-width="3.365"/>
    <g id="Grupo_87489" data-name="Grupo 87489" transform="translate(878.877 316.218)">
      <ellipse id="Elipse_4749" data-name="Elipse 4749" cx="20.449" cy="8.861" rx="20.449" ry="8.861" transform="translate(7.152 17.146) rotate(-3.448)" fill="#86b9d4"/>
      <g id="Grupo_87485" data-name="Grupo 87485" transform="translate(0 7.518)">
        <g id="Grupo_87484" data-name="Grupo 87484" transform="translate(0 0)">
          <g id="Grupo_87483" data-name="Grupo 87483">
            <path id="Trazado_100945" data-name="Trazado 100945" d="M958.665,670.9a26.666,26.666,0,0,1-.316,6.139c-.554,2.209-2.62,4.339-6.157,5.951-7.76,3.538-19.639,3.247-26.531-.65-3.212-1.816-4.978-3.694-5.075-6.085-.133-1.291-.263-4.9-.263-4.9.231-.794,1.262.006,1.885-.744a12.563,12.563,0,0,1,5.228-3.968c7.76-3.538,19.639-3.247,26.532.65C956.868,668.938,958.416,668.853,958.665,670.9Z" transform="translate(-920.115 -660.572)" fill="#cf9161"/>
            <ellipse id="Elipse_4750" data-name="Elipse 4750" cx="19.185" cy="9.813" rx="19.185" ry="9.813" transform="translate(0.013 1.332) rotate(-1.19)" fill="#fff"/>
            <ellipse id="Elipse_4751" data-name="Elipse 4751" cx="19.185" cy="9.813" rx="19.185" ry="9.813" transform="translate(0 0.797) rotate(-1.19)" fill="#f0b68b"/>
            <ellipse id="Elipse_4752" data-name="Elipse 4752" cx="13.412" cy="6.86" rx="13.412" ry="6.86" transform="matrix(1, -0.021, 0.021, 1, 5.813, 3.372)" fill="#fff"/>
            <path id="Trazado_100946" data-name="Trazado 100946" d="M940.191,665.427c5.647-2.538,14.109-2.313,18.9.5,1.91,1.122,2.948,2.487,3.149,3.883.16-1.681-.876-3.377-3.169-4.724-4.792-2.815-13.254-3.04-18.9-.5-3.4,1.526-5,3.7-4.7,5.811C935.649,668.565,937.245,666.751,940.191,665.427Z" transform="translate(-929.483 -659.734)" fill="#cf9161"/>
            <path id="Trazado_100947" data-name="Trazado 100947" d="M952.56,677.494a3.276,3.276,0,0,1-1.513-2.18l2.642-.2a2.5,2.5,0,0,0,1.291,1.742,2.445,2.445,0,0,0,2.414.189c1.7-.806-2.485-3.168.489-4.578a7.015,7.015,0,0,1,5.448-.079l1.7-.806,1.526.873-1.669.791a2.087,2.087,0,0,1,.99,1.984l-2.552-.009a1.491,1.491,0,0,0-.889-1.373,2.262,2.262,0,0,0-2.222-.165c-1.569.744,2.717,3.059-.439,4.554a7.239,7.239,0,0,1-5.626.1l-1.718.814-1.526-.874Z" transform="translate(-939.07 -665.164)" fill="#ffd4b3"/>
          </g>
        </g>
        <line id="Línea_141" data-name="Línea 141" x2="0.149" y2="4.169" transform="translate(19.916 20.724)" fill="none" stroke="#ffd4b3" stroke-linecap="round" stroke-linejoin="round" stroke-width="1.258"/>
        <line id="Línea_142" data-name="Línea 142" x2="0.115" y2="4.056" transform="translate(24.843 20.308)" fill="none" stroke="#ffd4b3" stroke-linecap="round" stroke-linejoin="round" stroke-width="1.258"/>
        <line id="Línea_143" data-name="Línea 143" x2="0.115" y2="4.056" transform="translate(29.508 19.182)" fill="none" stroke="#ffd4b3" stroke-linecap="round" stroke-linejoin="round" stroke-width="1.258"/>
        <line id="Línea_144" data-name="Línea 144" x2="0.106" y2="3.74" transform="translate(33.673 17.361)" fill="none" stroke="#ffd4b3" stroke-linecap="round" stroke-linejoin="round" stroke-width="1.258"/>
        <line id="Línea_145" data-name="Línea 145" x1="0.005" y2="3.803" transform="translate(37.048 14.66)" fill="none" stroke="#ffd4b3" stroke-linecap="round" stroke-linejoin="round" stroke-width="1.258"/>
        <line id="Línea_146" data-name="Línea 146" x2="0.079" y2="4.057" transform="translate(14.744 20.524)" fill="none" stroke="#ffd4b3" stroke-linecap="round" stroke-linejoin="round" stroke-width="1.258"/>
        <line id="Línea_147" data-name="Línea 147" x2="0.079" y2="4.057" transform="translate(10.03 19.6)" fill="none" stroke="#ffd4b3" stroke-linecap="round" stroke-linejoin="round" stroke-width="1.258"/>
        <line id="Línea_148" data-name="Línea 148" x2="0.073" y2="3.741" transform="translate(5.783 17.958)" fill="none" stroke="#ffd4b3" stroke-linecap="round" stroke-linejoin="round" stroke-width="1.258"/>
        <line id="Línea_149" data-name="Línea 149" x2="0.187" y2="3.799" transform="translate(2.276 15.405)" fill="none" stroke="#ffd4b3" stroke-linecap="round" stroke-linejoin="round" stroke-width="1.258"/>
      </g>
      <g id="Grupo_87488" data-name="Grupo 87488" transform="translate(0.174 0)">
        <g id="Grupo_87487" data-name="Grupo 87487" transform="translate(0)">
          <g id="Grupo_87486" data-name="Grupo 87486">
            <path id="Trazado_100948" data-name="Trazado 100948" d="M959.123,651.133a26.644,26.644,0,0,1-.316,6.139c-.554,2.209-2.62,4.339-6.157,5.951-7.761,3.538-19.639,3.247-26.532-.65-3.213-1.816-4.978-3.695-5.075-6.085-.133-1.291-.263-4.9-.263-4.9.231-.794,1.262.006,1.885-.744a12.567,12.567,0,0,1,5.227-3.969c7.761-3.538,19.639-3.247,26.532.65C957.326,649.166,958.875,649.081,959.123,651.133Z" transform="translate(-920.573 -640.8)" fill="#cf9161"/>
            <ellipse id="Elipse_4753" data-name="Elipse 4753" cx="19.185" cy="9.813" rx="19.185" ry="9.813" transform="matrix(1, -0.021, 0.021, 1, 0.013, 1.332)" fill="#fff"/>
            <ellipse id="Elipse_4754" data-name="Elipse 4754" cx="19.185" cy="9.813" rx="19.185" ry="9.813" transform="translate(0 0.797) rotate(-1.19)" fill="#ffd4b3"/>
            <ellipse id="Elipse_4755" data-name="Elipse 4755" cx="13.412" cy="6.86" rx="13.412" ry="6.86" transform="matrix(1, -0.021, 0.021, 1, 5.813, 3.372)" fill="#fff"/>
            <path id="Trazado_100949" data-name="Trazado 100949" d="M940.649,645.655c5.647-2.538,14.109-2.313,18.9.5,1.91,1.122,2.948,2.487,3.148,3.883.16-1.681-.876-3.377-3.169-4.724-4.792-2.815-13.255-3.04-18.9-.5-3.4,1.527-5,3.7-4.7,5.811C936.107,648.793,937.7,646.979,940.649,645.655Z" transform="translate(-929.941 -639.962)" fill="#cf9161"/>
            <path id="Trazado_100950" data-name="Trazado 100950" d="M953.019,657.722a3.281,3.281,0,0,1-1.513-2.18l2.642-.2a2.5,2.5,0,0,0,1.291,1.742,2.447,2.447,0,0,0,2.414.189c1.7-.807-2.485-3.169.489-4.578a7.013,7.013,0,0,1,5.447-.079l1.7-.806,1.526.873-1.668.791a2.088,2.088,0,0,1,.99,1.984l-2.552-.009a1.491,1.491,0,0,0-.889-1.373,2.262,2.262,0,0,0-2.221-.165c-1.569.744,2.716,3.059-.439,4.555a7.242,7.242,0,0,1-5.626.1l-1.718.814-1.526-.874Z" transform="translate(-939.529 -645.392)" fill="#ffd4b3"/>
          </g>
        </g>
        <line id="Línea_150" data-name="Línea 150" x2="0.149" y2="4.169" transform="translate(19.916 20.724)" fill="none" stroke="#ffd4b3" stroke-linecap="round" stroke-linejoin="round" stroke-width="1.258"/>
        <line id="Línea_151" data-name="Línea 151" x2="0.115" y2="4.056" transform="translate(24.843 20.308)" fill="none" stroke="#ffd4b3" stroke-linecap="round" stroke-linejoin="round" stroke-width="1.258"/>
        <line id="Línea_152" data-name="Línea 152" x2="0.115" y2="4.056" transform="translate(29.508 19.182)" fill="none" stroke="#ffd4b3" stroke-linecap="round" stroke-linejoin="round" stroke-width="1.258"/>
        <line id="Línea_153" data-name="Línea 153" x2="0.106" y2="3.74" transform="translate(33.673 17.36)" fill="none" stroke="#ffd4b3" stroke-linecap="round" stroke-linejoin="round" stroke-width="1.258"/>
        <line id="Línea_154" data-name="Línea 154" x1="0.005" y2="3.803" transform="translate(37.048 14.66)" fill="none" stroke="#ffd4b3" stroke-linecap="round" stroke-linejoin="round" stroke-width="1.258"/>
        <line id="Línea_155" data-name="Línea 155" x2="0.079" y2="4.057" transform="translate(14.744 20.524)" fill="none" stroke="#ffd4b3" stroke-linecap="round" stroke-linejoin="round" stroke-width="1.258"/>
        <line id="Línea_156" data-name="Línea 156" x2="0.079" y2="4.057" transform="translate(10.03 19.6)" fill="none" stroke="#ffd4b3" stroke-linecap="round" stroke-linejoin="round" stroke-width="1.258"/>
        <line id="Línea_157" data-name="Línea 157" x2="0.073" y2="3.741" transform="translate(5.783 17.958)" fill="none" stroke="#ffd4b3" stroke-linecap="round" stroke-linejoin="round" stroke-width="1.258"/>
        <line id="Línea_158" data-name="Línea 158" x2="0.187" y2="3.799" transform="translate(2.276 15.405)" fill="none" stroke="#ffd4b3" stroke-linecap="round" stroke-linejoin="round" stroke-width="1.258"/>
      </g>
      <path id="Trazado_100951" data-name="Trazado 100951" d="M967.579,684.3s8.787-3.067,9.486-12.876c0,0,11.042-2.584,11.079-9.1,0,0,.079,4.87-.291,5.931,0,0,.43,1.628-.05,6.8,0,0-.11,3.36-4.675,5.944C983.128,681,977.389,684.653,967.579,684.3Z" transform="translate(-949.402 -651.909)" fill="#bf865a" opacity="0.29" style="mix-blend-mode: multiply;isolation: isolate"/>
    </g>
    <g id="Grupo_87491" data-name="Grupo 87491" transform="translate(1032.998 384.886)">
      <path id="Trazado_100952" data-name="Trazado 100952" d="M1385.953,824.779a3.944,3.944,0,0,0-5.3-2.038l-.074.034v0l-3.943,1.7a3.123,3.123,0,0,0-.45.16l-.074.034v0l-1.454.627h0l-42.292,18.257a1.15,1.15,0,0,0-.352.111l-3.562,4.488h0l-3.355,3.737,6.031-.625h0l4.676-.359a1.8,1.8,0,0,0,.393-.491l.108.172,47.217-20.431h0l.075-.031A4.208,4.208,0,0,0,1385.953,824.779Z" transform="translate(-1325.097 -819.776)" fill="#8db4c9"/>
      <g id="Grupo_87490" data-name="Grupo 87490" transform="translate(1.223)">
        <path id="Trazado_100953" data-name="Trazado 100953" d="M1457.642,815.872l-.074.034v0l-7.583,3.268a4.208,4.208,0,0,0-2.356,5.338,3.943,3.943,0,0,0,5.3,2.038l7.584-3.268h0l.076-.031a4.209,4.209,0,0,0,2.356-5.338A3.944,3.944,0,0,0,1457.642,815.872Z" transform="translate(-1402.089 -815.519)" fill="#2e3245"/>
        <path id="Trazado_100954" data-name="Trazado 100954" d="M1401.1,828.725l-47.292,20.464-2.439-3.877,46.034-19.918C1404.332,822.437,1405.094,826.518,1401.1,828.725Z" transform="translate(-1342.605 -820.996)" fill="#2e3245"/>
        <path id="Trazado_100955" data-name="Trazado 100955" d="M1348.771,843.766c-.425-1.93-1.852-.611-1.556-3.132L1390.393,822c3.181-.473,4.326.367,4.594,1.772Z" transform="translate(-1340.003 -819.45)" fill="#2e3245"/>
        <path id="Trazado_100956" data-name="Trazado 100956" d="M1336.129,871.244l-6.365,8.02,10.155-.779C1342.181,876.525,1338.3,870.126,1336.129,871.244Z" transform="translate(-1329.212 -849.974)" fill="#fff"/>
        <path id="Trazado_100957" data-name="Trazado 100957" d="M1328.313,887l3.355-3.737a2.994,2.994,0,0,1,2.676,3.112Z" transform="translate(-1328.313 -857.501)" fill="#2e3245"/>
      </g>
    </g>
    <g id="Grupo_87496" data-name="Grupo 87496" transform="translate(950.765 120.676)">
      <path id="Trazado_100958" data-name="Trazado 100958" d="M1609.206,472.648l32.146-22.634V328.852l-32.525-7.483Z" transform="translate(-1418.707 -245.057)" fill="#4c6d80"/>
      <path id="Trazado_100959" data-name="Trazado 100959" d="M1267.771,635.78,1108.832,592l44.345-27.193,153.629,43.565Z" transform="translate(-1108.832 -395.929)" fill="#a9c8db"/>
      <path id="Trazado_100960" data-name="Trazado 100960" d="M1108.832,636.322l.081,8.885,159.347,44.842-.488-9.948Z" transform="translate(-1108.832 -440.251)" fill="#c9e5f5"/>
      <path id="Trazado_100961" data-name="Trazado 100961" d="M1527.083,716.9l38.776-27.712V679.38l-39.035,27.406Z" transform="translate(-1367.885 -466.936)" fill="#89b4c9"/>
      <path id="Trazado_100962" data-name="Trazado 100962" d="M1288.1,606.531l-143.392-39.5,38.326-24.385,138.533,40.385Z" transform="translate(-1131.064 -382.197)" fill="#a9c8db"/>
      <path id="Trazado_100963" data-name="Trazado 100963" d="M1381.854,396.619l-138.533-40.385-1.335-105.1,35.92-9.274,105.879,10.952Z" transform="translate(-1191.355 -195.781)" fill="#598096"/>
      <path id="Trazado_100964" data-name="Trazado 100964" d="M1382.357,359.167l-139.483-38.142-.888-69.89,35.92-9.274,105.879,10.952Z" transform="translate(-1191.355 -195.781)" fill="#507387"/>
      <g id="Grupo_87492" data-name="Grupo 87492" transform="translate(18.762 168.879)">
        <path id="Trazado_100965" data-name="Trazado 100965" d="M1175.775,599.708l-17.6-5v-5.089l31.6.148Z" transform="translate(-1158.174 -580.182)" fill="#c9e5f5"/>
        <path id="Trazado_100966" data-name="Trazado 100966" d="M1175.775,579.245l-17.6-5,15.8-9.433,15.8,4.492Z" transform="translate(-1158.174 -564.808)" fill="#fff"/>
        <path id="Trazado_100967" data-name="Trazado 100967" d="M1218.462,576.621v5.089l-14,9.945v-5.089Z" transform="translate(-1186.862 -572.129)" fill="#89b4c9"/>
      </g>
      <path id="Trazado_100968" data-name="Trazado 100968" d="M1189.738,431.189h0a7.377,7.377,0,0,1-7.107-7.444V334.593l14.214-2.512v91.934A7.048,7.048,0,0,1,1189.738,431.189Z" transform="translate(-1154.569 -251.695)" fill="#c9e5f5"/>
      <path id="Trazado_100969" data-name="Trazado 100969" d="M1198.11,318.591v95.754a7.15,7.15,0,0,1-4.264,6.616,6.986,6.986,0,0,0,2.843.666h0a7.048,7.048,0,0,0,7.107-7.174v-97.8Z" transform="translate(-1161.52 -242.133)" fill="#92bfd6"/>
      <g id="Grupo_87493" data-name="Grupo 87493" transform="translate(59.072 179.745)">
        <path id="Trazado_100970" data-name="Trazado 100970" d="M1282.359,629.4l-18.174-5.217v-5.089l32.628.53Z" transform="translate(-1264.185 -609.318)" fill="#c9e5f5"/>
        <path id="Trazado_100971" data-name="Trazado 100971" d="M1282.359,608.378l-18.174-5.217,14.455-9.775,18.174,5.217Z" transform="translate(-1264.185 -593.386)" fill="#fff"/>
        <path id="Trazado_100972" data-name="Trazado 100972" d="M1326.435,607.1v5.089l-14.455,9.776V616.88Z" transform="translate(-1293.806 -601.888)" fill="#89b4c9"/>
      </g>
      <g id="Grupo_87494" data-name="Grupo 87494" transform="translate(97.161 190.017)">
        <path id="Trazado_100973" data-name="Trazado 100973" d="M1382.457,656.693l-18.1-4.961v-5.089l32.5.07Z" transform="translate(-1364.355 -636.664)" fill="#c9e5f5"/>
        <path id="Trazado_100974" data-name="Trazado 100974" d="M1382.457,635.339l-18.1-4.961,14.4-9.979,18.1,4.96Z" transform="translate(-1364.355 -620.4)" fill="#fff"/>
        <path id="Trazado_100975" data-name="Trazado 100975" d="M1426.356,633.445v5.089l-14.4,9.979v-5.089Z" transform="translate(-1393.858 -628.485)" fill="#89b4c9"/>
      </g>
      <g id="Grupo_87495" data-name="Grupo 87495" transform="translate(138.513 201.393)">
        <path id="Trazado_100976" data-name="Trazado 100976" d="M1491.179,686.5l-18.073-5.059v-5.089l32.447.247Z" transform="translate(-1473.106 -666.455)" fill="#c9e5f5"/>
        <path id="Trazado_100977" data-name="Trazado 100977" d="M1491.179,665.278l-18.073-5.059,14.374-9.9,18.073,5.059Z" transform="translate(-1473.106 -650.318)" fill="#fff"/>
        <path id="Trazado_100978" data-name="Trazado 100978" d="M1535.01,663.623v5.089l-14.374,9.9v-5.089Z" transform="translate(-1502.563 -658.564)" fill="#89b4c9"/>
      </g>
      <path id="Trazado_100979" data-name="Trazado 100979" d="M1298.4,460.945h0a7.378,7.378,0,0,1-7.107-7.444V364.349l14.214-2.512v91.934A7.048,7.048,0,0,1,1298.4,460.945Z" transform="translate(-1221.916 -270.137)" fill="#c9e5f5"/>
      <path id="Trazado_100980" data-name="Trazado 100980" d="M1306.775,348.347V444.1a7.15,7.15,0,0,1-4.264,6.616,7,7,0,0,0,2.843.666h0a7.048,7.048,0,0,0,7.107-7.174v-97.8Z" transform="translate(-1228.866 -260.574)" fill="#92bfd6"/>
      <path id="Trazado_100981" data-name="Trazado 100981" d="M1395.5,489.809h0a7.378,7.378,0,0,1-7.107-7.444V393.213l14.214-2.512v91.934A7.048,7.048,0,0,1,1395.5,489.809Z" transform="translate(-1282.094 -288.025)" fill="#c9e5f5"/>
      <path id="Trazado_100982" data-name="Trazado 100982" d="M1403.877,377.212v95.753a7.149,7.149,0,0,1-4.265,6.616,6.988,6.988,0,0,0,2.843.666h0a7.048,7.048,0,0,0,7.107-7.174v-97.8Z" transform="translate(-1289.045 -278.463)" fill="#92bfd6"/>
      <path id="Trazado_100983" data-name="Trazado 100983" d="M1505.719,519.149h0a7.377,7.377,0,0,1-7.107-7.444V422.553l14.214-2.512v91.934A7.048,7.048,0,0,1,1505.719,519.149Z" transform="translate(-1350.401 -306.209)" fill="#c9e5f5"/>
      <path id="Trazado_100984" data-name="Trazado 100984" d="M1514.091,406.552V502.3a7.15,7.15,0,0,1-4.264,6.616,6.993,6.993,0,0,0,2.843.666h0a7.048,7.048,0,0,0,7.107-7.174v-97.8Z" transform="translate(-1357.351 -296.647)" fill="#92bfd6"/>
      <path id="Trazado_100985" data-name="Trazado 100985" d="M1269.507,301.767l-160.675-43.041,80.337-53.212Z" transform="translate(-1108.832 -173.255)" fill="#fff"/>
      <path id="Trazado_100986" data-name="Trazado 100986" d="M1282.5,301.125l-109.334-29.288,54.667-36.209Z" transform="translate(-1148.703 -191.918)" fill="#7da9c2"/>
      <path id="Trazado_100987" data-name="Trazado 100987" d="M1320.11,152.935l69.653-32.259,79.2,87.354-68.516,41.158Z" transform="translate(-1239.773 -120.676)" fill="#c9e5f5"/>
      <path id="Trazado_100988" data-name="Trazado 100988" d="M1180.479,318.112l95.366,26.161,6.653,7.972-109.334-29.288Z" transform="translate(-1148.703 -243.038)" fill="#598096"/>
      <path id="Trazado_100989" data-name="Trazado 100989" d="M1194.229,270.661l45.582-30.885-3.463-4.149-49.443,32.749Z" transform="translate(-1157.218 -191.918)" fill="#598096"/>
      <path id="Trazado_100990" data-name="Trazado 100990" d="M1144.7,606.78v7.555l143.811,40.47-.418-8.529Z" transform="translate(-1131.064 -421.942)" fill="#c9e5f5"/>
      <path id="Trazado_100991" data-name="Trazado 100991" d="M1521.9,680.791l33.374-22.726v-9.208l-33.466,23.5Z" transform="translate(-1364.778 -448.019)" fill="#89b4c9"/>
    </g>
    <path id="Trazado_100992" data-name="Trazado 100992" d="M1328.937,285.683c0,8.1-6.107,13.47-13.642,12s-13.642-9.224-13.642-17.321,6.107-13.471,13.642-12a14.6,14.6,0,0,1,3.715,1.275l9.181,11.109A17.051,17.051,0,0,1,1328.937,285.683Z" transform="translate(-277.57 -91.379)" fill="#598096"/>
    <g id="Grupo_87499" data-name="Grupo 87499" transform="translate(1011.149 175.626)">
      <g id="Grupo_87498" data-name="Grupo 87498" transform="translate(0 0)">
        <g id="Grupo_87497" data-name="Grupo 87497">
          <path id="Trazado_100993" data-name="Trazado 100993" d="M1306.093,301.365a50.613,50.613,0,0,0,5.794-4.768,11.547,11.547,0,0,0,2.912-8.317c-.164-7.535-5.936-14.822-12.893-16.276-3.242-.678-5.875-.4-8.234,1.322-1.311.877-4.863,3.481-4.863,3.481-.662.737.589.792.151,1.744a12.392,12.392,0,0,0-1.423,6.255c.164,7.535,5.936,14.821,12.892,16.275C1303.361,301.694,1303.993,302.735,1306.093,301.365Z" transform="translate(-1279.968 -269.202)" fill="#cf9161"/>
          <ellipse id="Elipse_4756" data-name="Elipse 4756" cx="11.942" cy="15.057" rx="11.942" ry="15.057" transform="matrix(0.865, -0.502, 0.502, 0.865, 0.523, 11.994)" fill="#fff"/>
          <ellipse id="Elipse_4757" data-name="Elipse 4757" cx="11.942" cy="15.057" rx="11.942" ry="15.057" transform="translate(0 12.384) rotate(-30.145)" fill="#f5ba8c"/>
          <ellipse id="Elipse_4758" data-name="Elipse 4758" cx="8.348" cy="10.526" rx="8.348" ry="10.526" transform="translate(5.124 14.676) rotate(-30.146)" fill="#fff"/>
          <path id="Trazado_100994" data-name="Trazado 100994" d="M1291.3,299.764c.154,5.456,4.283,10.634,9.222,11.566a7.129,7.129,0,0,0,5.212-.9,7,7,0,0,1-6.035,1.513c-4.939-.932-9.068-6.11-9.222-11.565a8.069,8.069,0,0,1,3.451-7.29A8.349,8.349,0,0,0,1291.3,299.764Z" transform="translate(-1281.786 -282.479)" fill="#d1905e"/>
          <path id="Trazado_100995" data-name="Trazado 100995" d="M1307.354,308.717a7.374,7.374,0,0,1-2.754-2.084l1.108-1.269a5.224,5.224,0,0,0,2.241,1.633c.9.276,1.316.031,1.354-.7.086-1.649-4.142-2.918-3.992-5.8a2.14,2.14,0,0,1,2.589-2.212l.086-1.649,1.553.478-.085,1.616a5.656,5.656,0,0,1,2.318,2.047l-1.255.98a3.405,3.405,0,0,0-1.7-1.337c-.769-.237-1.2-.061-1.239.66-.079,1.52,4.155,2.693,3.995,5.75a2.214,2.214,0,0,1-2.659,2.3l-.087,1.664-1.553-.478Z" transform="translate(-1290.544 -284.676)" fill="#f5ba8c"/>
        </g>
      </g>
      <line id="Línea_159" data-name="Línea 159" y1="2.396" x2="3.268" transform="translate(28.307 9.522)" fill="none" stroke="#ffd4b3" stroke-linecap="round" stroke-linejoin="round" stroke-width="1.198"/>
      <line id="Línea_160" data-name="Línea 160" y1="2.335" x2="3.154" transform="translate(30.182 13.005)" fill="none" stroke="#ffd4b3" stroke-linecap="round" stroke-linejoin="round" stroke-width="1.198"/>
      <line id="Línea_161" data-name="Línea 161" y1="2.221" x2="2.999" transform="translate(31.249 16.904)" fill="none" stroke="#ffd4b3" stroke-linecap="round" stroke-linejoin="round" stroke-width="1.198"/>
      <line id="Línea_162" data-name="Línea 162" y1="2.29" x2="3.093" transform="translate(31.412 20.82)" fill="none" stroke="#ffd4b3" stroke-linecap="round" stroke-linejoin="round" stroke-width="1.198"/>
      <line id="Línea_163" data-name="Línea 163" y1="2.384" x2="3.095" transform="translate(30.361 24.871)" fill="none" stroke="#ffd4b3" stroke-linecap="round" stroke-linejoin="round" stroke-width="1.198"/>
      <line id="Línea_164" data-name="Línea 164" y1="2.351" x2="3.137" transform="translate(25.724 6.449)" fill="none" stroke="#ffd4b3" stroke-linecap="round" stroke-linejoin="round" stroke-width="1.198"/>
      <line id="Línea_165" data-name="Línea 165" y1="2.205" x2="2.942" transform="translate(22.65 4.306)" fill="none" stroke="#ffd4b3" stroke-linecap="round" stroke-linejoin="round" stroke-width="1.198"/>
      <line id="Línea_166" data-name="Línea 166" y1="2.109" x2="2.814" transform="translate(19.098 2.94)" fill="none" stroke="#ffd4b3" stroke-linecap="round" stroke-linejoin="round" stroke-width="1.198"/>
      <line id="Línea_167" data-name="Línea 167" y1="2.249" x2="3.124" transform="translate(15.007 2.485)" fill="none" stroke="#ffd4b3" stroke-linecap="round" stroke-linejoin="round" stroke-width="1.198"/>
    </g>
    <path id="Trazado_100996" data-name="Trazado 100996" d="M1108.832,345.456v8.3l160.675,44.49V388.5Z" transform="translate(-158.067 -139.308)" fill="#c9e5f5"/>
    <path id="Trazado_100997" data-name="Trazado 100997" d="M1531.388,401.314l68.516-41.452v-9.454l-68.516,41.158Z" transform="translate(-419.948 -142.377)" fill="#89b4c9"/>
    <path id="Trazado_100998" data-name="Trazado 100998" d="M1182.631,396.385l14.214,4.191v-8.923l-14.214-3.936Z" transform="translate(-203.805 -165.5)" fill="#92bfd6"/>
    <path id="Trazado_100999" data-name="Trazado 100999" d="M1291.3,426.015l14.214,4.191v-8.923l-14.214-3.936Z" transform="translate(-271.151 -183.863)" fill="#92bfd6"/>
    <path id="Trazado_101000" data-name="Trazado 101000" d="M1388.4,454.164l14.214,4.191v-8.923L1388.4,445.5Z" transform="translate(-331.329 -201.309)" fill="#92bfd6"/>
    <path id="Trazado_101001" data-name="Trazado 101001" d="M1498.612,483.919l14.214,4.191v-8.923l-14.214-3.936Z" transform="translate(-399.636 -219.75)" fill="#92bfd6"/>
    <path id="Trazado_101002" data-name="Trazado 101002" d="M1306.938,676.983l-38.776,27.712-159.118-45.006" transform="translate(-158.199 -334.056)" fill="none" stroke="#52768a" stroke-linecap="round" stroke-linejoin="round" stroke-width="1.028"/>
    <path id="Trazado_101003" data-name="Trazado 101003" d="M1144.7,626.65l143.484,40.378,33.374-22.726" transform="translate(-180.299 -313.58)" fill="none" stroke="#52768a" stroke-linecap="round" stroke-linejoin="round" stroke-width="1.028"/>
    <path id="Trazado_101004" data-name="Trazado 101004" d="M1612.233,417.413l31.277-20.745.071-11.169-31.172,18.859Z" transform="translate(-470.052 -164.125)" fill="#466575"/>
    <line id="Línea_168" data-name="Línea 168" y1="9.901" x2="14.374" transform="translate(1107.351 332.217)" fill="none" stroke="#52768a" stroke-linecap="round" stroke-linejoin="round" stroke-width="1.028"/>
    <line id="Línea_169" data-name="Línea 169" y1="9.979" x2="14.397" transform="translate(1066.027 320.742)" fill="none" stroke="#52768a" stroke-linecap="round" stroke-linejoin="round" stroke-width="1.028"/>
    <line id="Línea_170" data-name="Línea 170" x1="14.455" y2="9.775" transform="translate(1028.011 310.727)" fill="none" stroke="#52768a" stroke-linecap="round" stroke-linejoin="round" stroke-width="1.028"/>
    <line id="Línea_171" data-name="Línea 171" x1="13.999" y2="9.945" transform="translate(987.128 299.135)" fill="none" stroke="#52768a" stroke-linecap="round" stroke-linejoin="round" stroke-width="1.028"/>
    <g id="Grupo_87514" data-name="Grupo 87514" transform="translate(920.789 301.623)">
      <ellipse id="Elipse_4759" data-name="Elipse 4759" cx="20.449" cy="8.861" rx="20.449" ry="8.861" transform="translate(2.499 28.506) rotate(-2.879)" fill="#86b9d4"/>
      <g id="Grupo_87513" data-name="Grupo 87513" transform="translate(0 0)">
        <g id="Grupo_87512" data-name="Grupo 87512" transform="translate(0)">
          <g id="Grupo_87502" data-name="Grupo 87502" transform="translate(0.599 19.706)">
            <g id="Grupo_87501" data-name="Grupo 87501" transform="translate(0 0)">
              <g id="Grupo_87500" data-name="Grupo 87500">
                <path id="Trazado_101005" data-name="Trazado 101005" d="M1066.723,663.323a24.956,24.956,0,0,1-.228,5.643c-.479,2.032-2.321,4-5.494,5.5-6.961,3.286-17.669,3.073-23.916-.477-2.912-1.654-4.521-3.372-4.63-5.569-.132-1.186-.283-4.5-.283-4.5.2-.731,1.137,0,1.692-.692a11.276,11.276,0,0,1,4.674-3.67c6.961-3.286,17.668-3.073,23.916.477C1065.086,661.525,1066.48,661.439,1066.723,663.323Z" transform="translate(-1031.945 -653.855)" fill="#cf9161"/>
                <ellipse id="Elipse_4760" data-name="Elipse 4760" cx="17.288" cy="9.018" rx="17.288" ry="9.018" transform="translate(0.017 1.343) rotate(-1.411)" fill="#fff"/>
                <ellipse id="Elipse_4761" data-name="Elipse 4761" cx="17.288" cy="9.018" rx="17.288" ry="9.018" transform="translate(0 0.851) rotate(-1.411)" fill="#f0b68b"/>
                <path id="Trazado_101006" data-name="Trazado 101006" d="M1067.033,658.022c-4.345-2.565-11.973-2.734-17.038-.375s-5.649,6.349-1.3,8.915,11.973,2.734,17.038.375S1071.377,660.587,1067.033,658.022Z" transform="translate(-1040.377 -653.087)" fill="#fff"/>
                <path id="Trazado_101007" data-name="Trazado 101007" d="M1050.021,658.418c5.065-2.358,12.693-2.19,17.038.376a5.3,5.3,0,0,1,2.873,3.554c.129-1.545-.821-3.1-2.9-4.326-4.345-2.565-11.973-2.734-17.038-.375-3.046,1.418-4.471,3.427-4.178,5.361C1045.957,661.322,1047.379,659.648,1050.021,658.418Z" transform="translate(-1040.378 -653.087)" fill="#cf9161"/>
                <path id="Trazado_101008" data-name="Trazado 101008" d="M1061.275,669.449a3.035,3.035,0,0,1-1.384-2l2.38-.195a2.305,2.305,0,0,0,1.18,1.595,2.17,2.17,0,0,0,2.177.163c1.526-.749-2.269-2.9.4-4.209a6.207,6.207,0,0,1,4.909-.1l1.526-.749,1.383.8-1.5.734a1.943,1.943,0,0,1,.91,1.819l-2.3,0a1.38,1.38,0,0,0-.814-1.258,2.005,2.005,0,0,0-2-.142c-1.407.691,2.476,2.8-.354,4.187a6.408,6.408,0,0,1-5.069.115l-1.541.756-1.383-.8Z" transform="translate(-1049.063 -658.031)" fill="#ffd4b3"/>
              </g>
            </g>
            <line id="Línea_172" data-name="Línea 172" x2="0.173" y2="3.83" transform="translate(18.081 19.101)" fill="none" stroke="#ffd4b3" stroke-linecap="round" stroke-linejoin="round" stroke-width="1.258"/>
            <line id="Línea_173" data-name="Línea 173" x2="0.142" y2="3.727" transform="translate(22.518 18.696)" fill="none" stroke="#ffd4b3" stroke-linecap="round" stroke-linejoin="round" stroke-width="1.258"/>
            <line id="Línea_174" data-name="Línea 174" x2="0.142" y2="3.727" transform="translate(26.711 17.641)" fill="none" stroke="#ffd4b3" stroke-linecap="round" stroke-linejoin="round" stroke-width="1.258"/>
            <line id="Línea_175" data-name="Línea 175" x2="0.131" y2="3.436" transform="translate(30.447 15.948)" fill="none" stroke="#ffd4b3" stroke-linecap="round" stroke-linejoin="round" stroke-width="1.258"/>
            <line id="Línea_176" data-name="Línea 176" x2="0.031" y2="3.495" transform="translate(33.468 13.451)" fill="none" stroke="#ffd4b3" stroke-linecap="round" stroke-linejoin="round" stroke-width="1.258"/>
            <line id="Línea_177" data-name="Línea 177" x2="0.109" y2="3.728" transform="translate(13.419 18.941)" fill="none" stroke="#ffd4b3" stroke-linecap="round" stroke-linejoin="round" stroke-width="1.258"/>
            <line id="Línea_178" data-name="Línea 178" x2="0.109" y2="3.728" transform="translate(9.162 18.113)" fill="none" stroke="#ffd4b3" stroke-linecap="round" stroke-linejoin="round" stroke-width="1.258"/>
            <line id="Línea_179" data-name="Línea 179" x2="0.101" y2="3.437" transform="translate(5.319 16.623)" fill="none" stroke="#ffd4b3" stroke-linecap="round" stroke-linejoin="round" stroke-width="1.258"/>
            <line id="Línea_180" data-name="Línea 180" x2="0.204" y2="3.49" transform="translate(2.135 14.293)" fill="none" stroke="#ffd4b3" stroke-linecap="round" stroke-linejoin="round" stroke-width="1.258"/>
          </g>
          <g id="Grupo_87505" data-name="Grupo 87505" transform="translate(0.129 12.802)">
            <g id="Grupo_87504" data-name="Grupo 87504" transform="translate(0 0)">
              <g id="Grupo_87503" data-name="Grupo 87503">
                <path id="Trazado_101009" data-name="Trazado 101009" d="M1065.488,645.168a24.954,24.954,0,0,1-.228,5.643c-.479,2.033-2.321,4-5.494,5.5-6.961,3.286-17.668,3.073-23.916-.477-2.912-1.654-4.521-3.372-4.63-5.569-.132-1.186-.282-4.5-.282-4.5.2-.731,1.137,0,1.692-.692a11.27,11.27,0,0,1,4.674-3.67c6.961-3.286,17.668-3.073,23.916.476C1063.851,643.369,1065.245,643.284,1065.488,645.168Z" transform="translate(-1030.71 -635.699)" fill="#cf9161"/>
                <ellipse id="Elipse_4762" data-name="Elipse 4762" cx="17.288" cy="9.018" rx="17.288" ry="9.018" transform="matrix(1, -0.025, 0.025, 1, 0.017, 1.343)" fill="#fff"/>
                <ellipse id="Elipse_4763" data-name="Elipse 4763" cx="17.288" cy="9.018" rx="17.288" ry="9.018" transform="matrix(1, -0.025, 0.025, 1, 0, 0.851)" fill="#f0b68b"/>
                <ellipse id="Elipse_4764" data-name="Elipse 4764" cx="12.086" cy="6.304" rx="12.086" ry="6.304" transform="matrix(1, -0.025, 0.025, 1, 5.247, 3.2)" fill="#fff"/>
                <path id="Trazado_101010" data-name="Trazado 101010" d="M1048.786,640.263c5.065-2.358,12.693-2.19,17.038.375a5.306,5.306,0,0,1,2.874,3.554c.129-1.545-.821-3.1-2.9-4.326-4.345-2.566-11.973-2.734-17.038-.376-3.046,1.418-4.471,3.427-4.179,5.361C1044.722,643.167,1046.144,641.493,1048.786,640.263Z" transform="translate(-1039.143 -634.932)" fill="#cf9161"/>
                <path id="Trazado_101011" data-name="Trazado 101011" d="M1060.04,651.292a3.037,3.037,0,0,1-1.384-2l2.379-.195a2.306,2.306,0,0,0,1.18,1.595,2.17,2.17,0,0,0,2.177.163c1.526-.749-2.269-2.9.4-4.208a6.209,6.209,0,0,1,4.909-.1l1.526-.749,1.383.8-1.5.734a1.943,1.943,0,0,1,.91,1.819l-2.3,0a1.38,1.38,0,0,0-.814-1.258,2.007,2.007,0,0,0-2-.142c-1.407.69,2.476,2.8-.354,4.187a6.408,6.408,0,0,1-5.069.116l-1.541.756-1.383-.8Z" transform="translate(-1047.828 -639.876)" fill="#ffd4b3"/>
              </g>
            </g>
            <line id="Línea_181" data-name="Línea 181" x2="0.173" y2="3.83" transform="translate(18.081 19.101)" fill="none" stroke="#ffd4b3" stroke-linecap="round" stroke-linejoin="round" stroke-width="1.258"/>
            <line id="Línea_182" data-name="Línea 182" x2="0.142" y2="3.727" transform="translate(22.518 18.696)" fill="none" stroke="#ffd4b3" stroke-linecap="round" stroke-linejoin="round" stroke-width="1.258"/>
            <line id="Línea_183" data-name="Línea 183" x2="0.142" y2="3.727" transform="translate(26.711 17.641)" fill="none" stroke="#ffd4b3" stroke-linecap="round" stroke-linejoin="round" stroke-width="1.258"/>
            <line id="Línea_184" data-name="Línea 184" x2="0.131" y2="3.436" transform="translate(30.447 15.948)" fill="none" stroke="#ffd4b3" stroke-linecap="round" stroke-linejoin="round" stroke-width="1.258"/>
            <line id="Línea_185" data-name="Línea 185" x2="0.031" y2="3.495" transform="translate(33.468 13.451)" fill="none" stroke="#ffd4b3" stroke-linecap="round" stroke-linejoin="round" stroke-width="1.258"/>
            <line id="Línea_186" data-name="Línea 186" x2="0.109" y2="3.728" transform="translate(13.419 18.941)" fill="none" stroke="#ffd4b3" stroke-linecap="round" stroke-linejoin="round" stroke-width="1.258"/>
            <line id="Línea_187" data-name="Línea 187" x2="0.109" y2="3.728" transform="translate(9.162 18.112)" fill="none" stroke="#ffd4b3" stroke-linecap="round" stroke-linejoin="round" stroke-width="1.258"/>
            <line id="Línea_188" data-name="Línea 188" x2="0.101" y2="3.437" transform="translate(5.319 16.623)" fill="none" stroke="#ffd4b3" stroke-linecap="round" stroke-linejoin="round" stroke-width="1.258"/>
            <line id="Línea_189" data-name="Línea 189" x2="0.204" y2="3.49" transform="translate(2.135 14.293)" fill="none" stroke="#ffd4b3" stroke-linecap="round" stroke-linejoin="round" stroke-width="1.258"/>
          </g>
          <g id="Grupo_87508" data-name="Grupo 87508" transform="translate(0.065 6.44)">
            <g id="Grupo_87507" data-name="Grupo 87507" transform="translate(0 0)">
              <g id="Grupo_87506" data-name="Grupo 87506">
                <path id="Trazado_101012" data-name="Trazado 101012" d="M1065.319,628.437a24.948,24.948,0,0,1-.228,5.643c-.479,2.033-2.321,4-5.494,5.5-6.961,3.286-17.668,3.073-23.916-.477-2.912-1.654-4.52-3.372-4.63-5.569-.132-1.186-.282-4.5-.282-4.5.2-.731,1.137,0,1.692-.692a11.271,11.271,0,0,1,4.674-3.67c6.961-3.286,17.668-3.073,23.916.476C1063.682,626.638,1065.076,626.552,1065.319,628.437Z" transform="translate(-1030.541 -618.968)" fill="#cf9161"/>
                <ellipse id="Elipse_4765" data-name="Elipse 4765" cx="17.288" cy="9.018" rx="17.288" ry="9.018" transform="translate(0.017 1.343) rotate(-1.411)" fill="#fff"/>
                <ellipse id="Elipse_4766" data-name="Elipse 4766" cx="17.288" cy="9.018" rx="17.288" ry="9.018" transform="translate(0 0.851) rotate(-1.411)" fill="#f0b68b"/>
                <ellipse id="Elipse_4767" data-name="Elipse 4767" cx="12.086" cy="6.304" rx="12.086" ry="6.304" transform="matrix(1, -0.025, 0.025, 1, 5.247, 3.2)" fill="#fff"/>
                <path id="Trazado_101013" data-name="Trazado 101013" d="M1048.617,623.532c5.065-2.358,12.693-2.19,17.038.375a5.306,5.306,0,0,1,2.874,3.554c.129-1.545-.821-3.1-2.9-4.326-4.345-2.565-11.973-2.733-17.038-.375-3.046,1.418-4.471,3.427-4.179,5.361C1044.553,626.436,1045.975,624.762,1048.617,623.532Z" transform="translate(-1038.974 -618.201)" fill="#cf9161"/>
                <path id="Trazado_101014" data-name="Trazado 101014" d="M1059.871,634.561a3.038,3.038,0,0,1-1.384-2l2.38-.195a2.307,2.307,0,0,0,1.18,1.595,2.17,2.17,0,0,0,2.177.163c1.526-.749-2.269-2.9.4-4.209a6.21,6.21,0,0,1,4.909-.1l1.526-.749,1.383.8-1.5.734a1.943,1.943,0,0,1,.91,1.819l-2.3,0a1.38,1.38,0,0,0-.814-1.258,2.007,2.007,0,0,0-2-.142c-1.407.69,2.476,2.8-.354,4.187a6.406,6.406,0,0,1-5.07.116l-1.541.756-1.383-.8Z" transform="translate(-1047.66 -623.145)" fill="#ffd4b3"/>
              </g>
            </g>
            <line id="Línea_190" data-name="Línea 190" x2="0.173" y2="3.83" transform="translate(18.081 19.101)" fill="none" stroke="#ffd4b3" stroke-linecap="round" stroke-linejoin="round" stroke-width="1.258"/>
            <line id="Línea_191" data-name="Línea 191" x2="0.142" y2="3.727" transform="translate(22.518 18.696)" fill="none" stroke="#ffd4b3" stroke-linecap="round" stroke-linejoin="round" stroke-width="1.258"/>
            <line id="Línea_192" data-name="Línea 192" x2="0.142" y2="3.727" transform="translate(26.711 17.641)" fill="none" stroke="#ffd4b3" stroke-linecap="round" stroke-linejoin="round" stroke-width="1.258"/>
            <line id="Línea_193" data-name="Línea 193" x2="0.131" y2="3.436" transform="translate(30.447 15.948)" fill="none" stroke="#ffd4b3" stroke-linecap="round" stroke-linejoin="round" stroke-width="1.258"/>
            <line id="Línea_194" data-name="Línea 194" x2="0.031" y2="3.495" transform="translate(33.468 13.451)" fill="none" stroke="#ffd4b3" stroke-linecap="round" stroke-linejoin="round" stroke-width="1.258"/>
            <line id="Línea_195" data-name="Línea 195" x2="0.109" y2="3.728" transform="translate(13.419 18.941)" fill="none" stroke="#ffd4b3" stroke-linecap="round" stroke-linejoin="round" stroke-width="1.258"/>
            <line id="Línea_196" data-name="Línea 196" x2="0.109" y2="3.728" transform="translate(9.162 18.113)" fill="none" stroke="#ffd4b3" stroke-linecap="round" stroke-linejoin="round" stroke-width="1.258"/>
            <line id="Línea_197" data-name="Línea 197" x2="0.101" y2="3.437" transform="translate(5.319 16.623)" fill="none" stroke="#ffd4b3" stroke-linecap="round" stroke-linejoin="round" stroke-width="1.258"/>
            <line id="Línea_198" data-name="Línea 198" x2="0.204" y2="3.49" transform="translate(2.135 14.293)" fill="none" stroke="#ffd4b3" stroke-linecap="round" stroke-linejoin="round" stroke-width="1.258"/>
          </g>
          <g id="Grupo_87511" data-name="Grupo 87511">
            <g id="Grupo_87510" data-name="Grupo 87510">
              <g id="Grupo_87509" data-name="Grupo 87509">
                <path id="Trazado_101015" data-name="Trazado 101015" d="M1065.148,611.5a24.949,24.949,0,0,1-.227,5.643c-.479,2.032-2.321,4-5.494,5.5-6.961,3.286-17.668,3.073-23.916-.477-2.912-1.654-4.521-3.372-4.63-5.568-.132-1.186-.282-4.5-.282-4.5.2-.731,1.137,0,1.692-.692a11.269,11.269,0,0,1,4.674-3.67c6.961-3.286,17.669-3.073,23.916.476C1063.511,609.7,1064.905,609.616,1065.148,611.5Z" transform="translate(-1030.37 -602.032)" fill="#cf9161"/>
                <ellipse id="Elipse_4768" data-name="Elipse 4768" cx="17.288" cy="9.018" rx="17.288" ry="9.018" transform="translate(0.017 1.343) rotate(-1.411)" fill="#fff"/>
                <ellipse id="Elipse_4769" data-name="Elipse 4769" cx="17.288" cy="9.018" rx="17.288" ry="9.018" transform="translate(0 0.851) rotate(-1.411)" fill="#ffd4b3"/>
                <ellipse id="Elipse_4770" data-name="Elipse 4770" cx="12.086" cy="6.304" rx="12.086" ry="6.304" transform="translate(5.247 3.2) rotate(-1.411)" fill="#fff"/>
                <path id="Trazado_101016" data-name="Trazado 101016" d="M1048.446,606.6c5.065-2.358,12.693-2.19,17.038.375a5.3,5.3,0,0,1,2.874,3.554c.129-1.545-.821-3.1-2.9-4.326-4.345-2.566-11.973-2.734-17.038-.376-3.046,1.418-4.471,3.427-4.178,5.361C1044.382,609.5,1045.8,607.825,1048.446,606.6Z" transform="translate(-1038.803 -601.264)" fill="#d1905e"/>
                <path id="Trazado_101017" data-name="Trazado 101017" d="M1059.7,617.625a3.036,3.036,0,0,1-1.384-2l2.38-.195a2.307,2.307,0,0,0,1.18,1.6,2.17,2.17,0,0,0,2.177.163c1.526-.749-2.269-2.9.4-4.209a6.207,6.207,0,0,1,4.909-.1l1.526-.749,1.383.8-1.5.734a1.944,1.944,0,0,1,.911,1.819l-2.3,0a1.38,1.38,0,0,0-.814-1.258,2.007,2.007,0,0,0-2-.142c-1.407.691,2.476,2.8-.354,4.187a6.408,6.408,0,0,1-5.069.116l-1.541.756-1.383-.8Z" transform="translate(-1047.489 -606.208)" fill="#f5ba8c"/>
              </g>
            </g>
            <line id="Línea_199" data-name="Línea 199" x2="0.173" y2="3.83" transform="translate(18.081 19.101)" fill="none" stroke="#ffd4b3" stroke-linecap="round" stroke-linejoin="round" stroke-width="1.258"/>
            <line id="Línea_200" data-name="Línea 200" x2="0.142" y2="3.727" transform="translate(22.518 18.696)" fill="none" stroke="#ffd4b3" stroke-linecap="round" stroke-linejoin="round" stroke-width="1.258"/>
            <line id="Línea_201" data-name="Línea 201" x2="0.142" y2="3.727" transform="translate(26.711 17.641)" fill="none" stroke="#ffd4b3" stroke-linecap="round" stroke-linejoin="round" stroke-width="1.258"/>
            <line id="Línea_202" data-name="Línea 202" x2="0.131" y2="3.436" transform="translate(30.447 15.948)" fill="none" stroke="#ffd4b3" stroke-linecap="round" stroke-linejoin="round" stroke-width="1.258"/>
            <line id="Línea_203" data-name="Línea 203" x2="0.031" y2="3.495" transform="translate(33.468 13.451)" fill="none" stroke="#ffd4b3" stroke-linecap="round" stroke-linejoin="round" stroke-width="1.258"/>
            <line id="Línea_204" data-name="Línea 204" x2="0.109" y2="3.728" transform="translate(13.419 18.941)" fill="none" stroke="#ffd4b3" stroke-linecap="round" stroke-linejoin="round" stroke-width="1.258"/>
            <line id="Línea_205" data-name="Línea 205" x2="0.109" y2="3.728" transform="translate(9.162 18.113)" fill="none" stroke="#ffd4b3" stroke-linecap="round" stroke-linejoin="round" stroke-width="1.258"/>
            <line id="Línea_206" data-name="Línea 206" x2="0.101" y2="3.437" transform="translate(5.319 16.623)" fill="none" stroke="#ffd4b3" stroke-linecap="round" stroke-linejoin="round" stroke-width="1.258"/>
            <line id="Línea_207" data-name="Línea 207" x2="0.204" y2="3.49" transform="translate(2.135 14.293)" fill="none" stroke="#ffd4b3" stroke-linecap="round" stroke-linejoin="round" stroke-width="1.258"/>
          </g>
        </g>
        <path id="Trazado_101018" data-name="Trazado 101018" d="M1073.626,655.033s7.645-8.812,7.968-24.586c0,0,9.71-2.1,10.259-8.32a41.516,41.516,0,0,1-.124,4.608s.484,1.292.071,6.387a20.632,20.632,0,0,1,.1,5.921s1.008.675.378,7.749c0,0-.178,3.321-5.316,5.815C1086.967,652.606,1082.291,655.077,1073.626,655.033Z" transform="translate(-1057.037 -612.4)" fill="#bf865a" opacity="0.29" style="mix-blend-mode: multiply;isolation: isolate"/>
      </g>
    </g>
    <path id="Trazado_101019" data-name="Trazado 101019" d="M1652.55,541.609s5-7.343,10.965-3.115,2.07,9.193,2.07,9.193Z" transform="translate(-495.039 -258.132)" fill="#2c6a8c"/>
    <path id="Trazado_101020" data-name="Trazado 101020" d="M1593.539,644.238c-6.146-2.953-10.952-11.208-11.43-18.051-.673-9.623,7.369-13.5,13.452-24.976,10.122-19.1,7.9-16.3,14.205-22.482,8.751-8.577,17.245-7.623,22.681,3.421s11.644,16.885,17.1,22.816c12.755,13.876,13.65,39.685-22.575,45.991C1616.351,652.805,1600.916,647.782,1593.539,644.238Z" transform="translate(-451.359 -280.324)" fill="#3a8bb8"/>
    <path id="Trazado_101021" data-name="Trazado 101021" d="M1693.4,603.825a94.027,94.027,0,0,1-16.273-23.681c-5.115-10.394-15.51-11.313-24.29-4.236,2.675,1.447,8.826,2.05,10.4,5.241,5.436,11.044,4.6,19.445,10.049,25.376,11.662,12.687,13.624,34.635-13.851,43.246a26.81,26.81,0,0,0,11.393.045C1707.054,643.509,1706.159,617.7,1693.4,603.825Z" transform="translate(-495.22 -279.296)" fill="#2c6a8c"/>
    <path id="Trazado_101022" data-name="Trazado 101022" d="M1643.776,561.023s-9.9-12.542-8.3-14.477,2.358-4.876,6.495-4.277c1.034.15,5.192,3.909,6.247,3.779,3.164-.389,3.276-5.474,6.335-5.594,4.077-.159,12.232,3.71,6.844,13.072s-5.242,18.521-10.776,17.152S1643.776,561.023,1643.776,561.023Z" transform="translate(-484.349 -260.157)" fill="#3a8bb8"/>
    <path id="Trazado_101023" data-name="Trazado 101023" d="M1683.891,569.676s-5.4-5.977,1.4-12.726c7.665-7.614-3.9-16.134-3.9-16.134s7.308-1.042,11.508,4.953-4.926,12.6-4.926,12.6l4.9,10.456Z" transform="translate(-512.911 -260.341)" fill="#2c6a8c"/>
    <path id="Trazado_101024" data-name="Trazado 101024" d="M1648.312,588.753s.66,2.753-.835,3.738-3.291,4.344-3.291,4.344,2.836-.079,3.495-1.711c.874-2.164,1.648-2.73,1.6-4.323C1649.186,587.422,1648.312,588.753,1648.312,588.753Z" transform="translate(-489.856 -289.933)" fill="#2c6a8c"/>
    <path id="Trazado_101025" data-name="Trazado 101025" d="M1662.8,594s-1.845,3.765-1.65,4.389,1.116,3.83,1.116,3.83a25.314,25.314,0,0,1,.534-3.895C1664.774,593.925,1662.8,594,1662.8,594Z" transform="translate(-500.363 -293.346)" fill="#2c6a8c"/>
    <path id="Trazado_101026" data-name="Trazado 101026" d="M1660.442,549.121a25.237,25.237,0,0,1,2.805,9.317,69.83,69.83,0,0,1-.211,8.128,18.945,18.945,0,0,0,1.786-7.273c0-3.392-1.969-8.318-1.969-8.318Z" transform="translate(-499.931 -265.531)" fill="#2c6a8c"/>
    <path id="Trazado_101027" data-name="Trazado 101027" d="M1651.538,582.235s2.991,3.955,21.5-2.862" transform="translate(-494.412 -284.28)" fill="none" stroke="#22536e" stroke-linecap="round" stroke-linejoin="round" stroke-width="2.971"/>
    <path id="Trazado_101028" data-name="Trazado 101028" d="M1652.55,584.939s.824,3.129,8.615,2.06a36.848,36.848,0,0,0,13.324-4.55" transform="translate(-495.039 -286.186)" fill="none" stroke="#22536e" stroke-linecap="round" stroke-linejoin="round" stroke-width="2.971"/>
    <g id="Grupo_87515" data-name="Grupo 87515" transform="translate(1150.473 332.646)">
      <path id="Trazado_101029" data-name="Trazado 101029" d="M1637.878,695.624a9.272,9.272,0,0,1-3.836-2.7l.84-1.107a7.213,7.213,0,0,0,3.5,2.387c1.662.4,2.482-.341,2.468-1.77-.039-3.734-6.3-4.444-6.343-8.938a2.752,2.752,0,0,1,3.216-3.037l-.024-2.328,1.347.326.024,2.282a6.87,6.87,0,0,1,3.207,2.524l-.976.89a4.842,4.842,0,0,0-2.754-1.977c-1.369-.332-2.236.332-2.222,1.669.035,3.342,6.29,3.937,6.342,8.892a2.862,2.862,0,0,1-3.438,3.167l.024,2.328-1.347-.326Z" transform="translate(-1634.042 -678.132)" fill="#fff"/>
    </g>
    <g id="Grupo_87519" data-name="Grupo 87519" transform="translate(1111.995 360.084)">
      <ellipse id="Elipse_4771" data-name="Elipse 4771" cx="20.449" cy="8.861" rx="20.449" ry="8.861" transform="matrix(0.998, -0.06, 0.06, 0.998, 7.152, 9.628)" fill="#86b9d4"/>
      <g id="Grupo_87518" data-name="Grupo 87518" transform="translate(0 0)">
        <g id="Grupo_87517" data-name="Grupo 87517" transform="translate(0)">
          <g id="Grupo_87516" data-name="Grupo 87516">
            <path id="Trazado_101030" data-name="Trazado 101030" d="M1571.738,766.494a26.642,26.642,0,0,1-.316,6.139c-.554,2.209-2.62,4.339-6.157,5.951-7.76,3.538-19.639,3.247-26.532-.65-3.212-1.816-4.978-3.694-5.075-6.085-.134-1.291-.263-4.9-.263-4.9.231-.794,1.262.006,1.885-.744a12.563,12.563,0,0,1,5.227-3.969c7.761-3.538,19.639-3.247,26.532.65C1569.941,764.527,1571.49,764.442,1571.738,766.494Z" transform="translate(-1533.188 -756.161)" fill="#cf9161"/>
            <ellipse id="Elipse_4772" data-name="Elipse 4772" cx="19.185" cy="9.813" rx="19.185" ry="9.813" transform="translate(0.013 1.332) rotate(-1.19)" fill="#fff"/>
            <ellipse id="Elipse_4773" data-name="Elipse 4773" cx="19.185" cy="9.813" rx="19.185" ry="9.813" transform="matrix(1, -0.021, 0.021, 1, 0, 0.797)" fill="#f0b68b"/>
            <ellipse id="Elipse_4774" data-name="Elipse 4774" cx="13.412" cy="6.86" rx="13.412" ry="6.86" transform="translate(5.813 3.372) rotate(-1.19)" fill="#fff"/>
            <path id="Trazado_101031" data-name="Trazado 101031" d="M1553.264,761.016c5.646-2.538,14.109-2.313,18.9.5,1.91,1.122,2.948,2.487,3.148,3.883.16-1.681-.876-3.377-3.168-4.724-4.792-2.815-13.255-3.04-18.9-.5-3.4,1.527-5,3.7-4.7,5.811C1548.722,764.154,1550.319,762.34,1553.264,761.016Z" transform="translate(-1542.556 -755.323)" fill="#cf9161"/>
            <path id="Trazado_101032" data-name="Trazado 101032" d="M1565.634,773.083a3.28,3.28,0,0,1-1.513-2.18l2.642-.2a2.5,2.5,0,0,0,1.291,1.742,2.445,2.445,0,0,0,2.415.189c1.7-.806-2.485-3.168.489-4.578a7.015,7.015,0,0,1,5.448-.079l1.7-.806,1.526.873-1.668.791a2.088,2.088,0,0,1,.99,1.984l-2.552-.009a1.49,1.49,0,0,0-.889-1.373,2.261,2.261,0,0,0-2.221-.165c-1.569.744,2.716,3.059-.439,4.555a7.242,7.242,0,0,1-5.626.1l-1.718.814-1.526-.874Z" transform="translate(-1552.144 -760.753)" fill="#ffd4b3"/>
          </g>
        </g>
        <line id="Línea_208" data-name="Línea 208" x2="0.149" y2="4.169" transform="translate(19.916 20.724)" fill="none" stroke="#ffd4b3" stroke-linecap="round" stroke-linejoin="round" stroke-width="1.258"/>
        <line id="Línea_209" data-name="Línea 209" x2="0.115" y2="4.056" transform="translate(24.843 20.308)" fill="none" stroke="#ffd4b3" stroke-linecap="round" stroke-linejoin="round" stroke-width="1.258"/>
        <line id="Línea_210" data-name="Línea 210" x2="0.115" y2="4.056" transform="translate(29.508 19.182)" fill="none" stroke="#ffd4b3" stroke-linecap="round" stroke-linejoin="round" stroke-width="1.258"/>
        <line id="Línea_211" data-name="Línea 211" x2="0.106" y2="3.74" transform="translate(33.673 17.36)" fill="none" stroke="#ffd4b3" stroke-linecap="round" stroke-linejoin="round" stroke-width="1.258"/>
        <line id="Línea_212" data-name="Línea 212" x1="0.005" y2="3.803" transform="translate(37.048 14.66)" fill="none" stroke="#ffd4b3" stroke-linecap="round" stroke-linejoin="round" stroke-width="1.258"/>
        <line id="Línea_213" data-name="Línea 213" x2="0.079" y2="4.057" transform="translate(14.744 20.524)" fill="none" stroke="#ffd4b3" stroke-linecap="round" stroke-linejoin="round" stroke-width="1.258"/>
        <line id="Línea_214" data-name="Línea 214" x2="0.079" y2="4.057" transform="translate(10.03 19.6)" fill="none" stroke="#ffd4b3" stroke-linecap="round" stroke-linejoin="round" stroke-width="1.258"/>
        <line id="Línea_215" data-name="Línea 215" x2="0.073" y2="3.741" transform="translate(5.783 17.958)" fill="none" stroke="#ffd4b3" stroke-linecap="round" stroke-linejoin="round" stroke-width="1.258"/>
        <line id="Línea_216" data-name="Línea 216" x2="0.187" y2="3.799" transform="translate(2.276 15.405)" fill="none" stroke="#ffd4b3" stroke-linecap="round" stroke-linejoin="round" stroke-width="1.258"/>
      </g>
      <path id="Trazado_101033" data-name="Trazado 101033" d="M1580.652,789.56s7.761-2.07,8.734-5.647c0,0,11.657-2.669,11.657-9.542,0,0-.017.645-.117-.859,0,0,.431,1.628-.05,6.8,0,0-.11,3.36-4.674,5.944C1596.2,786.257,1590.462,789.909,1580.652,789.56Z" transform="translate(-1562.475 -764.682)" fill="#bf865a" opacity="0.29" style="mix-blend-mode: multiply;isolation: isolate"/>
    </g>
    <path id="Trazado_101034" data-name="Trazado 101034" d="M1344.7,759.284l-48.891-21.972,3.959-1.632,49.264,22.14Z" transform="translate(-273.945 -381.152)" fill="#abcbde"/>
    <path id="Trazado_101035" data-name="Trazado 101035" d="M1222.839,816.491l-45.5-23.349,1.225-.542,45.5,23.349Z" transform="translate(-200.522 -416.429)" fill="#abcbde"/>
    <path id="Trazado_101036" data-name="Trazado 101036" d="M1248.622,810.635l-45.5-23.349,1.225-.542,45.5,23.349Z" transform="translate(-216.501 -412.799)" fill="#abcbde"/>
    <path id="Trazado_101037" data-name="Trazado 101037" d="M1162.688,824.608l-20.719-10.588,1.215-.546,20.719,10.588Z" transform="translate(-178.604 -429.365)" fill="#abcbde"/>
    <path id="Trazado_101038" data-name="Trazado 101038" d="M1143.415,833.267,1122.7,822.679l1.215-.546,20.719,10.588Z" transform="translate(-166.66 -434.732)" fill="#abcbde"/>
    <path id="Trazado_101039" data-name="Trazado 101039" d="M1111.418,841.927,1090.7,831.339l1.215-.546,20.719,10.588Z" transform="translate(-146.829 -440.099)" fill="#abcbde"/>
    <path id="Trazado_101040" data-name="Trazado 101040" d="M1092.146,850.587,1071.427,840l1.215-.546,20.719,10.588Z" transform="translate(-134.885 -445.465)" fill="#abcbde"/>
    <g id="Grupo_87521" data-name="Grupo 87521" transform="translate(1019.802 372.088)">
      <path id="Trazado_101041" data-name="Trazado 101041" d="M1343.684,795.752l14.67-6.412s7.744,3.677,5.043,8.324Z" transform="translate(-1323.421 -786.496)" fill="#c6d1dd"/>
      <g id="Grupo_87520" data-name="Grupo 87520">
        <path id="Trazado_101042" data-name="Trazado 101042" d="M1315.277,782.1a31.389,31.389,0,0,1,10.031,2.613c7.731,3.692,7.439,9.551-.652,13.089s-20.918,3.411-28.65-.28-7.439-9.551.652-13.089a36.712,36.712,0,0,1,14.866-2.565" transform="translate(-1290.393 -781.86)" fill="none" stroke="#52768a" stroke-linecap="round" stroke-linejoin="round" stroke-width="1.028"/>
        <path id="Trazado_101043" data-name="Trazado 101043" d="M1358.335,789.362l-14.651,6.4,19.8,1.952" transform="translate(-1323.42 -786.51)" fill="none" stroke="#52768a" stroke-linecap="round" stroke-linejoin="round" stroke-width="1.028"/>
        <line id="Línea_217" data-name="Línea 217" x1="1.887" y2="4.093" transform="translate(37.961 6.863)" fill="none" stroke="#52768a" stroke-linecap="round" stroke-linejoin="round" stroke-width="1.028"/>
        <line id="Línea_218" data-name="Línea 218" x1="2.687" y2="5.827" transform="translate(35.626 4.944)" fill="none" stroke="#52768a" stroke-linecap="round" stroke-linejoin="round" stroke-width="1.028"/>
        <line id="Línea_219" data-name="Línea 219" x1="3.16" y2="6.854" transform="translate(33.311 3.689)" fill="none" stroke="#52768a" stroke-linecap="round" stroke-linejoin="round" stroke-width="1.028"/>
        <line id="Línea_220" data-name="Línea 220" x1="3.533" y2="7.663" transform="translate(30.996 2.651)" fill="none" stroke="#52768a" stroke-linecap="round" stroke-linejoin="round" stroke-width="1.028"/>
        <line id="Línea_221" data-name="Línea 221" x1="2.604" y2="5.647" transform="translate(28.68 4.439)" fill="none" stroke="#52768a" stroke-linecap="round" stroke-linejoin="round" stroke-width="1.028"/>
        <line id="Línea_222" data-name="Línea 222" x1="1.887" y2="4.092" transform="translate(26.363 5.766)" fill="none" stroke="#52768a" stroke-linecap="round" stroke-linejoin="round" stroke-width="1.028"/>
        <line id="Línea_223" data-name="Línea 223" x1="1.155" y2="2.504" transform="translate(23.996 7.12)" fill="none" stroke="#52768a" stroke-linecap="round" stroke-linejoin="round" stroke-width="1.028"/>
        <line id="Línea_224" data-name="Línea 224" x1="0.448" y2="0.972" transform="translate(21.674 8.444)" fill="none" stroke="#52768a" stroke-linecap="round" stroke-linejoin="round" stroke-width="1.028"/>
      </g>
      <line id="Línea_225" data-name="Línea 225" y1="12.808" x2="29.3" transform="translate(5.613 2.853)" fill="none" stroke="#52768a" stroke-linecap="round" stroke-linejoin="round" stroke-width="1.028"/>
      <path id="Trazado_101044" data-name="Trazado 101044" d="M1313.98,783.56l11.126,7.652-.883-9.318" transform="translate(-1305.011 -781.881)" fill="none" stroke="#52768a" stroke-linecap="round" stroke-linejoin="round" stroke-width="1.028"/>
    </g>
    <g id="Grupo_87524" data-name="Grupo 87524" transform="translate(917.862 334.608)">
      <path id="Trazado_101045" data-name="Trazado 101045" d="M1093.655,759.876l-7.933-1.154L1038.1,743.677c-.7-.188.75-5.643,1.313-6.119l35.378-31.195c.563-.476,1.223-3.091,1.923-2.9l63.514,17.046c.7.188.81.726.247,1.2l-44.534,37.646A2.833,2.833,0,0,1,1093.655,759.876Z" transform="translate(-1031.977 -695.786)" fill="#86b9d4" opacity="0.38" style="mix-blend-mode: multiply;isolation: isolate"/>
      <g id="Grupo_87523" data-name="Grupo 87523">
        <path id="Trazado_101046" data-name="Trazado 101046" d="M1109.875,735.9l-.2.033-44.97-13a2.46,2.46,0,0,0-1.959.4l-33.695,26.524-6.28,1.266-.469,3.407a.553.553,0,0,0,.353.571l53.955,15.561a2.46,2.46,0,0,0,1.959-.4l36.247-28.534a3.073,3.073,0,0,0,1.15-2.038l.589-4.743C1116.6,734.245,1109.875,735.9,1109.875,735.9Z" transform="translate(-1022.302 -707.824)" fill="#2e3245"/>
        <path id="Trazado_101047" data-name="Trazado 101047" d="M1062.891,713.727a1.833,1.833,0,0,0-.359.217L1023.878,744.9c-.489.392-.409.846.179,1.015l53.358,15.325a2.427,2.427,0,0,0,1.949-.4l37.484-30.589a4.731,4.731,0,0,0,.554-.632Z" transform="translate(-1023.08 -702.155)" fill="#dcf3ff"/>
        <g id="Grupo_87522" data-name="Grupo 87522" transform="translate(6.831 15.043)">
          <path id="Trazado_101048" data-name="Trazado 101048" d="M1120.173,729.253l-6.729-1.933c-.487-.14-.553-.516-.148-.84l4.044-3.238a2.011,2.011,0,0,1,1.614-.334l6.729,1.932c.486.14.553.516.148.84l-4.043,3.238A2.012,2.012,0,0,1,1120.173,729.253Z" transform="translate(-1085.363 -722.856)" fill="#4a8aad"/>
          <path id="Trazado_101049" data-name="Trazado 101049" d="M1156.192,739.6l-6.729-1.932c-.487-.14-.553-.516-.148-.84l4.044-3.238a2.01,2.01,0,0,1,1.614-.334l6.729,1.932c.486.14.553.516.148.84l-4.043,3.238A2.011,2.011,0,0,1,1156.192,739.6Z" transform="translate(-1107.686 -729.267)" fill="#4a8aad"/>
          <path id="Trazado_101050" data-name="Trazado 101050" d="M1192.211,749.943l-6.729-1.932c-.487-.14-.553-.516-.148-.84l4.043-3.238a2.013,2.013,0,0,1,1.614-.334l6.729,1.933c.487.14.553.516.148.84l-4.043,3.238A2.011,2.011,0,0,1,1192.211,749.943Z" transform="translate(-1130.009 -735.678)" fill="#4a8aad"/>
          <path id="Trazado_101051" data-name="Trazado 101051" d="M1228.23,760.287l-6.729-1.933c-.487-.14-.553-.516-.148-.84l4.044-3.238a2.012,2.012,0,0,1,1.614-.334l6.729,1.932c.486.14.553.516.148.84l-4.043,3.238A2.012,2.012,0,0,1,1228.23,760.287Z" transform="translate(-1152.331 -742.09)" fill="#4a8aad"/>
          <path id="Trazado_101052" data-name="Trazado 101052" d="M1095.918,748.677l-6.729-1.932c-.487-.14-.553-.516-.148-.84l4.043-3.238a2.012,2.012,0,0,1,1.614-.334l6.729,1.933c.487.14.553.516.148.84l-4.044,3.238A2.01,2.01,0,0,1,1095.918,748.677Z" transform="translate(-1070.331 -734.894)" fill="#4a8aad"/>
          <path id="Trazado_101053" data-name="Trazado 101053" d="M1131.937,759.022l-6.729-1.932c-.487-.14-.553-.516-.148-.84l4.044-3.238a2.011,2.011,0,0,1,1.614-.334l6.729,1.932c.487.14.553.516.148.84l-4.044,3.238A2.011,2.011,0,0,1,1131.937,759.022Z" transform="translate(-1092.654 -741.306)" fill="#4a8aad"/>
          <path id="Trazado_101054" data-name="Trazado 101054" d="M1167.956,769.367l-6.729-1.932c-.487-.14-.553-.516-.148-.84l4.043-3.238a2.01,2.01,0,0,1,1.614-.334l6.729,1.932c.487.14.553.516.148.84l-4.043,3.238A2.01,2.01,0,0,1,1167.956,769.367Z" transform="translate(-1114.976 -747.717)" fill="#4a8aad"/>
          <path id="Trazado_101055" data-name="Trazado 101055" d="M1203.975,779.712l-6.729-1.932c-.487-.14-.553-.516-.148-.84l4.043-3.238a2.012,2.012,0,0,1,1.614-.334l6.729,1.933c.487.14.553.516.148.84l-4.043,3.238A2.011,2.011,0,0,1,1203.975,779.712Z" transform="translate(-1137.299 -754.128)" fill="#4a8aad"/>
          <path id="Trazado_101056" data-name="Trazado 101056" d="M1071.663,768.1l-6.729-1.933c-.487-.14-.553-.516-.148-.84l4.043-3.238a2.011,2.011,0,0,1,1.614-.334l6.729,1.932c.487.14.553.516.148.84l-4.043,3.238A2.011,2.011,0,0,1,1071.663,768.1Z" transform="translate(-1055.298 -746.933)" fill="#4a8aad"/>
          <path id="Trazado_101057" data-name="Trazado 101057" d="M1107.682,778.447l-6.729-1.932c-.487-.14-.553-.516-.148-.84l4.044-3.238a2.01,2.01,0,0,1,1.614-.334l6.729,1.932c.487.139.553.516.148.84l-4.044,3.238A2.01,2.01,0,0,1,1107.682,778.447Z" transform="translate(-1077.621 -753.344)" fill="#4a8aad"/>
          <path id="Trazado_101058" data-name="Trazado 101058" d="M1143.7,788.792l-6.729-1.932c-.487-.14-.553-.516-.148-.84l4.044-3.238a2.012,2.012,0,0,1,1.614-.334l6.729,1.932c.487.14.553.516.148.84l-4.043,3.238A2.013,2.013,0,0,1,1143.7,788.792Z" transform="translate(-1099.944 -759.755)" fill="#4a8aad"/>
          <path id="Trazado_101059" data-name="Trazado 101059" d="M1047.408,787.527l-6.729-1.932c-.487-.14-.553-.516-.148-.84l4.043-3.238a2.012,2.012,0,0,1,1.614-.334l6.729,1.933c.487.14.553.516.148.84l-4.044,3.238A2.011,2.011,0,0,1,1047.408,787.527Z" transform="translate(-1040.266 -758.971)" fill="#4a8aad"/>
          <path id="Trazado_101060" data-name="Trazado 101060" d="M1083.427,797.871l-6.729-1.933c-.487-.14-.553-.516-.148-.84l4.043-3.238a2.012,2.012,0,0,1,1.614-.334l6.729,1.932c.487.14.553.516.148.84l-4.044,3.238A2.013,2.013,0,0,1,1083.427,797.871Z" transform="translate(-1062.589 -765.382)" fill="#4a8aad"/>
          <path id="Trazado_101061" data-name="Trazado 101061" d="M1119.446,808.216l-6.729-1.932c-.487-.14-.553-.516-.148-.84l4.044-3.238a2.01,2.01,0,0,1,1.614-.334l6.729,1.932c.487.14.553.516.148.84l-4.044,3.238A2.01,2.01,0,0,1,1119.446,808.216Z" transform="translate(-1084.912 -771.794)" fill="#4a8aad"/>
        </g>
        <path id="Trazado_101062" data-name="Trazado 101062" d="M1169.356,792.389l-6.729-1.932a2.009,2.009,0,0,0-1.614.334l-4.044,3.238h0l-8.893,7.122c-.587.47-.49,1.015.215,1.218l5.937,1.705a2.914,2.914,0,0,0,2.339-.484l8.894-7.122h0l4.044-3.238C1169.909,792.9,1169.843,792.529,1169.356,792.389Z" transform="translate(-1100.013 -749.676)" fill="#cc5c49"/>
        <path id="Trazado_101063" data-name="Trazado 101063" d="M1181.806,698.83l-52.6-15.5a1.038,1.038,0,0,0-1.208.96l-1.309,8.36c0,.007,0,.014,0,.021l-.238,1.65a.894.894,0,0,0,.54,1.03l4.979,1.557,0,.011L1167,707.865l0-.03,12.26,3.833a1.881,1.881,0,0,0,2.189-1.738l1.094-7.563c0-.007,0-.014,0-.021l.238-1.65A1.62,1.62,0,0,0,1181.806,698.83Z" transform="translate(-1086.842 -683.294)" fill="#dcf3ff"/>
        <path id="Trazado_101064" data-name="Trazado 101064" d="M1181.827,705.958l-4.078-1.232v-.007l-32.145-9.708,0,.019-12.014-3.628a.813.813,0,0,0-1.066.543l-.917,5.992a.671.671,0,0,0,.523.716l4.569,1.38v.007l32.146,9.708,0-.019,11.252,3.4a1.472,1.472,0,0,0,1.93-.984l.748-4.888A1.215,1.215,0,0,0,1181.827,705.958Z" transform="translate(-1090.039 -688.294)" fill="#4a8aad"/>
        <line id="Línea_226" data-name="Línea 226" x2="52.394" y2="15.798" transform="translate(40.059 11.634)" fill="none" stroke="#2e3245" stroke-linecap="round" stroke-linejoin="round" stroke-width="1.372"/>
        <line id="Línea_227" data-name="Línea 227" x2="50.743" y2="14.899" transform="translate(42.092 1.391)" fill="none" stroke="#2e3245" stroke-linecap="round" stroke-linejoin="round" stroke-width="1.372"/>
      </g>
    </g>
    <path id="Trazado_101065" data-name="Trazado 101065" d="M1178.69,879.034l-1.178-3.942-6.7-1.235,13.416-6.576,7.878,5.177Z" transform="translate(-196.479 -462.713)" fill="#ff8470"/>
    <path id="Trazado_101066" data-name="Trazado 101066" d="M1189.611,882.843l-1.178-3.942,10.7-5.474,3.9,2.84Z" transform="translate(-207.401 -466.521)" fill="#f0725e"/>
    <path id="Trazado_101067" data-name="Trazado 101067" d="M1210.443,862.712a4.072,4.072,0,0,0,3.622.258c.87-.5.679-1.427-.422-2.075a4.06,4.06,0,0,0,.788-1.053c1.549-.016,2.79-.587,2.786-1.293s-1.229-1.272-2.759-1.3a4.026,4.026,0,0,0-.788-1.09c1.045-.643,1.208-1.545.347-2.041a4.051,4.051,0,0,0-3.575.221,12.274,12.274,0,0,0-1.844-.419c-.013-.91-1.021-1.648-2.261-1.65s-2.248.737-2.243,1.652c0,.02,0,.039,0,.059a11.753,11.753,0,0,0-1.695.432c-.034-.022-.067-.043-.1-.064a4.071,4.071,0,0,0-3.622-.258c-.877.506-.677,1.442.447,2.091.063.036.129.071.2.1a3.83,3.83,0,0,0-.633.94q-.148-.008-.3-.008c-1.584,0-2.865.577-2.862,1.3s1.291,1.3,2.876,1.305c.115,0,.229,0,.34-.009a4.012,4.012,0,0,0,.66.917c-.086.041-.17.084-.251.131-1.117.645-1.307,1.58-.424,2.09a4.062,4.062,0,0,0,3.62-.245q.1-.059.194-.121a11.923,11.923,0,0,0,1.613.409,1.325,1.325,0,0,0-.009.145c0,.914,1.018,1.658,2.261,1.66s2.248-.737,2.244-1.652c0-.026,0-.051-.006-.076a12.252,12.252,0,0,0,1.747-.383Z" transform="translate(-211.796 -453.407)" fill="#ffd4b3"/>
    <ellipse id="Elipse_4775" data-name="Elipse 4775" cx="3.939" cy="2.022" rx="3.939" ry="2.022" transform="translate(991.01 402.644)" fill="#fff"/>
    <g id="Grupo_87525" data-name="Grupo 87525" transform="translate(853.784 355.681)">
      <path id="Trazado_101068" data-name="Trazado 101068" d="M873.277,785.275l-3.387,1.142c-5.015,1.69-11.477-1.216-14.433-6.491l-.306-.546c-2.766-4.937-1.2-10.222,3.491-11.8l9.53-3.211c3.463-1.167,7.923.84,9.964,4.481h0C881.987,775.718,879.812,783.074,873.277,785.275Z" transform="translate(-853.784 -754.405)" fill="#7191b5" opacity="0.34" style="mix-blend-mode: multiply;isolation: isolate"/>
      <path id="Trazado_101069" data-name="Trazado 101069" d="M857.428,785.466h0a4.4,4.4,0,0,0,1.6,2.9l.327.3c.531.487.089.4.783.787a6.929,6.929,0,0,0-.559,2.131l1.95.433a1.07,1.07,0,0,0,1.355-.8,3.82,3.82,0,0,1,.074-.433,17.7,17.7,0,0,0,10.8.506l3.241-.976c5.767-1.737,8.139-5.16,5.175-8.733,2.363-.446,4.233-1.5,6.407-1.915a22.556,22.556,0,0,0,16.949,2.055l3.241-.976a7.109,7.109,0,0,0,4.162-2.765l.59-1.337c1,.256,1.475,1.394,2.235.808l1.652-1.617a11.3,11.3,0,0,0-3.919-2.028c.369-1.344-.281.429-1.749-.916l-.327-.3a11.3,11.3,0,0,0-4.36-2.316h0l-.005,0-.062-.018-1.781-.521-.187.068a15.993,15.993,0,0,0-7.09.335l-9.119,2.747c-2.574.775-3.694,2.414-3.047,4.043-1.977.735-4.031,1.5-6.125,2.281a12.035,12.035,0,0,0-8.714-.937l-9.119,2.747c-2.949.888-4.5,2.612-4.379,4.457Z" transform="translate(-856.038 -757.825)" fill="#8db4c9"/>
      <path id="Trazado_101070" data-name="Trazado 101070" d="M913.289,788.531a2.882,2.882,0,0,0,2.231,2.994c1.212.107,1.011-1.019.991-2.566s.148-2.931-1.064-3.037S913.268,786.984,913.289,788.531Z" transform="translate(-890.662 -767.967)" fill="#2e3245"/>
      <path id="Trazado_101071" data-name="Trazado 101071" d="M945.2,778.18c1.566.921,2.346,2.351,1.743,3.192s-1.633.051-3.2-.87-3.075-1.626-2.471-2.467S943.63,777.258,945.2,778.18Z" transform="translate(-907.919 -762.716)" fill="#2e3245"/>
      <path id="Trazado_101072" data-name="Trazado 101072" d="M907.081,740.971s-19.6,8.628-37.791,16.866c-6.714,3.041-9.441,11.19-10.244,14.228a1.153,1.153,0,0,0,1.053,1.358h0a1.165,1.165,0,0,0,1.381-.882A17.714,17.714,0,0,1,871.5,759.225c8.871-4.382,37.414-17.082,37.414-17.082Z" transform="translate(-857.025 -740.112)" fill="#6c9bb3"/>
      <path id="Trazado_101073" data-name="Trazado 101073" d="M854.108,774.9s22.087-3.761,42.76-7.069c7.716-1.235,15.565,3.423,18.2,5.185a.971.971,0,0,1,.274,1.443h0a1.278,1.278,0,0,1-1.715.151c-2.522-1.886-9.582-6.515-16.478-5.061-8.594,1.813-43.362,7.009-43.362,7.009Z" transform="translate(-853.785 -756.63)" fill="#6c9bb3"/>
      <path id="Trazado_101074" data-name="Trazado 101074" d="M951.172,759.536l3.387-1.141c5.016-1.69,6.686-7.336,3.73-12.611l-.306-.546c-2.767-4.937-8.815-7.657-13.509-6.076l-9.53,3.211c-3.463,1.167-4.615,5.064-2.575,8.706h0C936.219,757.952,944.638,761.737,951.172,759.536Z" transform="translate(-901.862 -738.712)" fill="#7191b5" opacity="0.34" style="mix-blend-mode: multiply;isolation: isolate"/>
      <path id="Trazado_101075" data-name="Trazado 101075" d="M951.172,759.536l3.387-1.141c5.016-1.69,6.686-7.336,3.73-12.611l-.306-.546c-2.767-4.937-8.815-7.657-13.509-6.076l-9.53,3.211c-3.463,1.167-4.615,5.064-2.575,8.706h0C936.219,757.952,944.638,761.737,951.172,759.536Z" transform="translate(-901.862 -738.712)" fill="none" stroke="#2e3245" stroke-linecap="round" stroke-linejoin="round" stroke-width="2.758"/>
      <path id="Trazado_101076" data-name="Trazado 101076" d="M873.277,785.275l-3.387,1.142c-5.015,1.69-11.477-1.216-14.433-6.491l-.306-.546c-2.766-4.937-1.2-10.222,3.491-11.8l9.53-3.211c3.463-1.167,7.923.84,9.964,4.481h0C881.987,775.718,879.812,783.074,873.277,785.275Z" transform="translate(-853.784 -754.405)" fill="none" stroke="#2e3245" stroke-linecap="round" stroke-linejoin="round" stroke-width="2.758"/>
      <path id="Trazado_101077" data-name="Trazado 101077" d="M916.288,757.631c-4.369-.692-7.144.243-9.472,3.192" transform="translate(-886.651 -750.303)" fill="none" stroke="#2e3245" stroke-linecap="round" stroke-linejoin="round" stroke-width="2.758"/>
    </g>
    <path id="Trazado_101078" data-name="Trazado 101078" d="M1182.631,387.716c.367.666,0,63.1,0,63.1" transform="translate(-203.805 -165.499)" fill="none" stroke="#52768a" stroke-linecap="round" stroke-linejoin="round" stroke-width="1.028"/>
    <line id="Línea_228" data-name="Línea 228" y1="53.212" x2="80.337" transform="translate(950.765 152.935)" fill="none" stroke="#52768a" stroke-linecap="round" stroke-linejoin="round" stroke-width="1.028"/>
  </g>
</svg>
