<svg xmlns="http://www.w3.org/2000/svg" xmlns:xlink="http://www.w3.org/1999/xlink" width="400.878" height="375.576" viewBox="0 0 400.878 375.576">
  <defs>
    <clipPath id="clip-path">
      <rect id="Rectángulo_34705" data-name="Rectángulo 34705" width="322.492" height="201.557" fill="none"/>
    </clipPath>
  </defs>
  <g id="Grupo_88433" data-name="Grupo 88433" transform="translate(-304.122 -2293.424)">
    <rect id="Rectángulo_34706" data-name="Rectángulo 34706" width="265.572" height="265.572" rx="28" transform="translate(329.425 2481.212) rotate(-45)" fill="#636363" opacity="0.5"/>
    <g id="Grupo_88138" data-name="Grupo 88138" transform="translate(-2944.974 991.001)">
      <g id="Grupo_88130" data-name="Grupo 88130" transform="translate(3458.617 1341.818)">
        <path id="Trazado_102610" data-name="Trazado 102610" d="M3674.012,1416.961a75.143,75.143,0,1,1-75.146-75.143A75.144,75.144,0,0,1,3674.012,1416.961Z" transform="translate(-3523.727 -1341.818)" fill="#9ac7f7"/>
        <path id="Trazado_102611" data-name="Trazado 102611" d="M3668.259,1419.556a66.793,66.793,0,1,1-66.8-66.793A66.8,66.8,0,0,1,3668.259,1419.556Z" transform="translate(-3526.322 -1344.413)" fill="#fff"/>
        <g id="Grupo_88129" data-name="Grupo 88129" transform="translate(13.28 13.287)">
          <g id="Grupo_88123" data-name="Grupo 88123">
            <rect id="Rectángulo_34668" data-name="Rectángulo 34668" width="2.338" height="2.332" transform="translate(60.741)" fill="#7eb3ff"/>
            <rect id="Rectángulo_34669" data-name="Rectángulo 34669" width="2.338" height="14.146" transform="translate(60.741 0.183)" fill="#7eb3ff"/>
            <path id="Trazado_102612" data-name="Trazado 102612" d="M3589.591,1381.631l-2.024,1.157-7.065-12.234,2.013-1.167Z" transform="translate(-3550.467 -1361.641)" fill="#7eb3ff"/>
            <path id="Trazado_102613" data-name="Trazado 102613" d="M3564.784,1405.545l-1.161,2.012-12.251-7.069,1.182-2.021Z" transform="translate(-3543.561 -1368.536)" fill="#7eb3ff"/>
            <path id="Trazado_102614" data-name="Trazado 102614" d="M3555.26,1438.7l.006,2.336h-14.133V1438.7Z" transform="translate(-3541.133 -1378.075)" fill="#7eb3ff"/>
            <path id="Trazado_102615" data-name="Trazado 102615" d="M3563.566,1470.211l1.173,2.016-12.245,7.069-1.169-2.015Z" transform="translate(-3543.55 -1385.545)" fill="#7eb3ff"/>
            <path id="Trazado_102616" data-name="Trazado 102616" d="M3587.495,1493.644l2,1.173-7.06,12.249-2.009-1.171Z" transform="translate(-3550.449 -1391.101)" fill="#7eb3ff"/>
            <rect id="Rectángulo_34670" data-name="Rectángulo 34670" width="2.333" height="14.132" transform="translate(60.634 109.578)" fill="#7eb3ff"/>
            <path id="Trazado_102617" data-name="Trazado 102617" d="M3652.148,1494.875l2.026-1.169,7.072,12.246-2.028,1.155Z" transform="translate(-3567.453 -1391.115)" fill="#7eb3ff"/>
            <rect id="Rectángulo_34671" data-name="Rectángulo 34671" width="2.33" height="14.151" transform="matrix(0.5, -0.866, 0.866, 0.5, 102.51, 86.658)" fill="#7eb3ff"/>
            <path id="Trazado_102618" data-name="Trazado 102618" d="M3684.725,1441.144v-2.337h14.129l-.013,2.332Z" transform="translate(-3575.177 -1378.1)" fill="#7eb3ff"/>
            <path id="Trazado_102619" data-name="Trazado 102619" d="M3676.823,1407.639l-1.173-2.028,12.251-7.064,1.162,2.022Z" transform="translate(-3573.025 -1368.555)" fill="#7eb3ff"/>
            <rect id="Rectángulo_34672" data-name="Rectángulo 34672" width="14.134" height="2.339" transform="translate(84.686 20.024) rotate(-60.01)" fill="#7eb3ff"/>
            <path id="Trazado_102620" data-name="Trazado 102620" d="M3614.86,1361.833l-2.327.243-.238-2.314,2.317-.246Z" transform="translate(-3558.005 -1359.301)" fill="#7eb3ff"/>
            <path id="Trazado_102621" data-name="Trazado 102621" d="M3606.7,1362.955l-2.268.49-.492-2.28,2.277-.482Z" transform="translate(-3556.023 -1359.578)" fill="#7eb3ff"/>
            <rect id="Rectángulo_34673" data-name="Rectángulo 34673" width="2.331" height="2.332" transform="translate(41.694 3.378) rotate(-18.042)" fill="#7eb3ff"/>
            <path id="Trazado_102622" data-name="Trazado 102622" d="M3590.992,1367.739l-2.125.953-.939-2.14,2.121-.937Z" transform="translate(-3552.228 -1360.747)" fill="#7eb3ff"/>
            <path id="Trazado_102623" data-name="Trazado 102623" d="M3583.606,1371.329l-2,1.164-1.167-2.025,2.02-1.161Z" transform="translate(-3550.451 -1361.622)" fill="#7eb3ff"/>
            <path id="Trazado_102624" data-name="Trazado 102624" d="M3576.649,1375.679l-1.878,1.366-1.378-1.885,1.9-1.377Z" transform="translate(-3548.781 -1362.684)" fill="#7eb3ff"/>
            <rect id="Rectángulo_34674" data-name="Rectángulo 34674" width="2.335" height="2.331" transform="translate(19.657 16.642) rotate(-42)" fill="#7eb3ff"/>
            <rect id="Rectángulo_34675" data-name="Rectángulo 34675" width="2.33" height="2.333" transform="translate(15.166 21.306) rotate(-48.031)" fill="#7eb3ff"/>
            <rect id="Rectángulo_34676" data-name="Rectángulo 34676" width="2.332" height="2.328" transform="translate(11.185 26.406) rotate(-53.708)" fill="#7eb3ff"/>
            <path id="Trazado_102625" data-name="Trazado 102625" d="M3554.483,1399.573l-1.16,2.02-2.017-1.175,1.169-2.02Z" transform="translate(-3543.545 -1368.519)" fill="#7eb3ff"/>
            <rect id="Rectángulo_34677" data-name="Rectángulo 34677" width="2.337" height="2.325" transform="translate(4.93 37.722) rotate(-65.8)" fill="#7eb3ff"/>
            <rect id="Rectángulo_34678" data-name="Rectángulo 34678" width="2.324" height="2.329" transform="translate(2.722 43.802) rotate(-71.987)" fill="#7eb3ff"/>
            <path id="Trazado_102626" data-name="Trazado 102626" d="M3545.416,1422.392l-.483,2.274-2.293-.49.5-2.274Z" transform="translate(-3541.49 -1374.092)" fill="#7eb3ff"/>
            <path id="Trazado_102627" data-name="Trazado 102627" d="M3544.046,1430.5l-.252,2.326-2.324-.255.25-2.309Z" transform="translate(-3541.213 -1376.073)" fill="#7eb3ff"/>
            <path id="Trazado_102628" data-name="Trazado 102628" d="M3543.512,1438.723v2.328h-2.326l-.007-2.328Z" transform="translate(-3541.144 -1378.08)" fill="#7eb3ff"/>
            <path id="Trazado_102629" data-name="Trazado 102629" d="M3543.79,1446.887l.235,2.317-2.31.235-.261-2.308Z" transform="translate(-3541.209 -1380.015)" fill="#7eb3ff"/>
            <path id="Trazado_102630" data-name="Trazado 102630" d="M3544.93,1454.973l.478,2.285-2.289.476-.49-2.274Z" transform="translate(-3541.488 -1381.932)" fill="#7eb3ff"/>
            <path id="Trazado_102631" data-name="Trazado 102631" d="M3546.9,1462.9l.715,2.219-2.209.723-.719-2.216Z" transform="translate(-3541.975 -1383.811)" fill="#7eb3ff"/>
            <path id="Trazado_102632" data-name="Trazado 102632" d="M3549.7,1470.579l.942,2.132-2.13.938-.949-2.116Z" transform="translate(-3542.657 -1385.632)" fill="#7eb3ff"/>
            <path id="Trazado_102633" data-name="Trazado 102633" d="M3553.28,1477.927l1.165,2.021-2.019,1.16-1.161-2.013Z" transform="translate(-3543.535 -1387.374)" fill="#7eb3ff"/>
            <path id="Trazado_102634" data-name="Trazado 102634" d="M3557.652,1484.874l1.361,1.883-1.9,1.36-1.358-1.877Z" transform="translate(-3544.601 -1389.021)" fill="#7eb3ff"/>
            <path id="Trazado_102635" data-name="Trazado 102635" d="M3562.7,1491.312l1.546,1.737-1.73,1.563-1.557-1.74Z" transform="translate(-3545.833 -1390.548)" fill="#7eb3ff"/>
            <path id="Trazado_102636" data-name="Trazado 102636" d="M3568.416,1497.205l1.715,1.556-1.567,1.728-1.731-1.556Z" transform="translate(-3547.226 -1391.945)" fill="#7eb3ff"/>
            <rect id="Rectángulo_34679" data-name="Rectángulo 34679" width="2.329" height="2.333" transform="translate(24.566 111.164) rotate(-54.085)" fill="#7eb3ff"/>
            <path id="Trazado_102637" data-name="Trazado 102637" d="M3581.535,1507.045l2.009,1.171-1.173,2.014-2.021-1.158Z" transform="translate(-3550.431 -1394.278)" fill="#7eb3ff"/>
            <path id="Trazado_102638" data-name="Trazado 102638" d="M3588.8,1510.893l2.123.955-.953,2.124-2.134-.934Z" transform="translate(-3552.206 -1395.19)" fill="#7eb3ff"/>
            <path id="Trazado_102639" data-name="Trazado 102639" d="M3596.437,1513.977l2.218.726-.734,2.214-2.209-.714Z" transform="translate(-3554.073 -1395.921)" fill="#7eb3ff"/>
            <path id="Trazado_102640" data-name="Trazado 102640" d="M3604.336,1516.244l2.29.5-.5,2.282-2.261-.487Z" transform="translate(-3556.006 -1396.458)" fill="#7eb3ff"/>
            <path id="Trazado_102641" data-name="Trazado 102641" d="M3612.462,1517.682l2.32.254-.253,2.315-2.308-.231Z" transform="translate(-3557.987 -1396.799)" fill="#7eb3ff"/>
            <path id="Trazado_102642" data-name="Trazado 102642" d="M3620.686,1518.27l2.327.009v2.329l-2.327.007Z" transform="translate(-3559.994 -1396.939)" fill="#7eb3ff"/>
            <path id="Trazado_102643" data-name="Trazado 102643" d="M3628.852,1517.941l2.309-.235.246,2.319-2.313.236Z" transform="translate(-3561.93 -1396.805)" fill="#7eb3ff"/>
            <path id="Trazado_102644" data-name="Trazado 102644" d="M3636.928,1516.746l2.277-.476.489,2.281-2.281.491Z" transform="translate(-3563.845 -1396.465)" fill="#7eb3ff"/>
            <path id="Trazado_102645" data-name="Trazado 102645" d="M3644.864,1514.728l2.208-.72.708,2.216-2.2.724Z" transform="translate(-3565.726 -1395.929)" fill="#7eb3ff"/>
            <path id="Trazado_102646" data-name="Trazado 102646" d="M3652.549,1511.876l2.121-.939.943,2.131-2.116.953Z" transform="translate(-3567.548 -1395.2)" fill="#7eb3ff"/>
            <path id="Trazado_102647" data-name="Trazado 102647" d="M3659.888,1508.246l2.018-1.152,1.16,2.014-2.012,1.172Z" transform="translate(-3569.288 -1394.289)" fill="#7eb3ff"/>
            <path id="Trazado_102648" data-name="Trazado 102648" d="M3666.814,1503.878l1.9-1.363,1.354,1.887-1.865,1.368Z" transform="translate(-3570.93 -1393.204)" fill="#7eb3ff"/>
            <path id="Trazado_102649" data-name="Trazado 102649" d="M3673.255,1498.809l1.749-1.561,1.547,1.74-1.72,1.559Z" transform="translate(-3572.457 -1391.955)" fill="#7eb3ff"/>
            <path id="Trazado_102650" data-name="Trazado 102650" d="M3679.151,1493.1l1.564-1.727,1.726,1.558-1.547,1.731Z" transform="translate(-3573.855 -1390.562)" fill="#7eb3ff"/>
            <path id="Trazado_102651" data-name="Trazado 102651" d="M3684.413,1486.81l1.371-1.882,1.888,1.37-1.363,1.889Z" transform="translate(-3575.103 -1389.034)" fill="#7eb3ff"/>
            <path id="Trazado_102652" data-name="Trazado 102652" d="M3688.992,1480.014l1.174-2.02,2.019,1.169-1.149,2.012Z" transform="translate(-3576.188 -1387.39)" fill="#7eb3ff"/>
            <path id="Trazado_102653" data-name="Trazado 102653" d="M3692.846,1472.781l.962-2.125,2.116.951-.931,2.118Z" transform="translate(-3577.102 -1385.65)" fill="#7eb3ff"/>
            <path id="Trazado_102654" data-name="Trazado 102654" d="M3695.929,1465.184l.726-2.212,2.209.726-.691,2.208Z" transform="translate(-3577.833 -1383.829)" fill="#7eb3ff"/>
            <path id="Trazado_102655" data-name="Trazado 102655" d="M3698.2,1457.326l.489-2.284,2.273.5-.472,2.264Z" transform="translate(-3578.372 -1381.949)" fill="#7eb3ff"/>
            <path id="Trazado_102656" data-name="Trazado 102656" d="M3699.647,1449.277l.247-2.316,2.31.247-.223,2.3Z" transform="translate(-3578.714 -1380.033)" fill="#7eb3ff"/>
            <path id="Trazado_102657" data-name="Trazado 102657" d="M3700.239,1441.135v-2.328h2.334l.012,2.328Z" transform="translate(-3578.855 -1378.1)" fill="#7eb3ff"/>
            <path id="Trazado_102658" data-name="Trazado 102658" d="M3699.9,1432.9l-.252-2.312,2.322-.234.25,2.3Z" transform="translate(-3578.714 -1376.094)" fill="#7eb3ff"/>
            <path id="Trazado_102659" data-name="Trazado 102659" d="M3698.7,1424.747l-.475-2.29,2.272-.473.507,2.269Z" transform="translate(-3578.378 -1374.111)" fill="#7eb3ff"/>
            <path id="Trazado_102660" data-name="Trazado 102660" d="M3696.684,1416.76l-.725-2.213,2.222-.718.737,2.2Z" transform="translate(-3577.84 -1372.178)" fill="#7eb3ff"/>
            <path id="Trazado_102661" data-name="Trazado 102661" d="M3693.825,1409.037l-.95-2.127,2.139-.946.957,2.118Z" transform="translate(-3577.109 -1370.313)" fill="#7eb3ff"/>
            <path id="Trazado_102662" data-name="Trazado 102662" d="M3690.2,1401.657l-1.165-2.008,2.028-1.171,1.175,2.007Z" transform="translate(-3576.198 -1368.538)" fill="#7eb3ff"/>
            <path id="Trazado_102663" data-name="Trazado 102663" d="M3685.827,1394.708l-1.374-1.887,1.906-1.371,1.376,1.871Z" transform="translate(-3575.112 -1366.872)" fill="#7eb3ff"/>
            <path id="Trazado_102664" data-name="Trazado 102664" d="M3680.761,1388.242l-1.571-1.724,1.762-1.566,1.557,1.719Z" transform="translate(-3573.865 -1365.332)" fill="#7eb3ff"/>
            <path id="Trazado_102665" data-name="Trazado 102665" d="M3675.049,1382.354l-1.739-1.552,1.574-1.735,1.738,1.546Z" transform="translate(-3572.47 -1363.936)" fill="#7eb3ff"/>
            <path id="Trazado_102666" data-name="Trazado 102666" d="M3668.762,1377.109l-1.89-1.376,1.395-1.887,1.879,1.351Z" transform="translate(-3570.944 -1362.698)" fill="#7eb3ff"/>
            <path id="Trazado_102667" data-name="Trazado 102667" d="M3661.961,1372.539l-2.013-1.166,1.17-2.022,2.014,1.154Z" transform="translate(-3569.302 -1361.633)" fill="#7eb3ff"/>
            <path id="Trazado_102668" data-name="Trazado 102668" d="M3654.728,1368.725l-2.124-.945.961-2.129,2.12.931Z" transform="translate(-3567.561 -1360.755)" fill="#7eb3ff"/>
            <path id="Trazado_102669" data-name="Trazado 102669" d="M3647.138,1365.684l-2.218-.711.737-2.225,2.208.71Z" transform="translate(-3565.74 -1360.067)" fill="#7eb3ff"/>
            <path id="Trazado_102670" data-name="Trazado 102670" d="M3639.278,1363.462l-2.272-.476.5-2.291,2.265.473Z" transform="translate(-3563.863 -1359.581)" fill="#7eb3ff"/>
            <path id="Trazado_102671" data-name="Trazado 102671" d="M3631.23,1362.094l-2.306-.231.244-2.339,2.314.239Z" transform="translate(-3561.947 -1359.303)" fill="#7eb3ff"/>
          </g>
          <path id="Trazado_102672" data-name="Trazado 102672" d="M3607.241,1430.23l-1.177,2.012-21.186-12.222,1.175-2.028Z" transform="translate(-3551.505 -1373.165)" fill="#c5e1f9"/>
          <g id="Grupo_88124" data-name="Grupo 88124" transform="translate(55.07 57.686)">
            <path id="Trazado_102673" data-name="Trazado 102673" d="M3618.185,1438.189l-4.868-2.8.306-.54,4.865,2.823Z" transform="translate(-3613.316 -1434.847)" fill="#c5e1f9"/>
          </g>
          <path id="Trazado_102674" data-name="Trazado 102674" d="M3636.863,1422.83l-1.355-1.9,34.141-24.334,1.334,1.9Z" transform="translate(-3563.508 -1368.092)" fill="#c5e1f9"/>
          <g id="Grupo_88125" data-name="Grupo 88125" transform="translate(63.243 52.917)">
            <path id="Trazado_102675" data-name="Trazado 102675" d="M3624.384,1436.142l-.354-.488,9.9-7.058.343.491Z" transform="translate(-3624.03 -1428.595)" fill="#c5e1f9"/>
          </g>
          <g id="Grupo_88126" data-name="Grupo 88126" transform="translate(59.616 59.106)">
            <path id="Trazado_102676" data-name="Trazado 102676" d="M3621.461,1441.067a2.18,2.18,0,1,1,2.183-2.18A2.184,2.184,0,0,1,3621.461,1441.067Zm0-3.764a1.582,1.582,0,1,0,1.575,1.584A1.593,1.593,0,0,0,3621.461,1437.3Z" transform="translate(-3619.276 -1436.708)" fill="#c5e1f9"/>
          </g>
          <g id="Grupo_88128" data-name="Grupo 88128" transform="translate(60.314 53.15)">
            <g id="Grupo_88127" data-name="Grupo 88127" transform="translate(0 6.659)">
              <path id="Trazado_102677" data-name="Trazado 102677" d="M3621.678,1440.594a1.482,1.482,0,1,1,1.476-1.488A1.493,1.493,0,0,1,3621.678,1440.594Zm0-2.366a.882.882,0,0,0-.881.878.875.875,0,1,0,1.75,0A.88.88,0,0,0,3621.678,1438.228Z" transform="translate(-3620.19 -1437.63)" fill="#eaf4fe"/>
            </g>
            <rect id="Rectángulo_34680" data-name="Rectángulo 34680" width="0.438" height="50.645" transform="translate(1.328 9.432)" fill="#eaf4fe"/>
            <rect id="Rectángulo_34681" data-name="Rectángulo 34681" width="0.438" height="6.968" transform="translate(1.328)" fill="#eaf4fe"/>
          </g>
        </g>
      </g>
      <g id="Grupo_88133" data-name="Grupo 88133" transform="translate(3249.096 1408.401)">
        <path id="Trazado_102678" data-name="Trazado 102678" d="M3488.3,1623.7a8.107,8.107,0,0,1-8.1,8.108H3257.207a8.112,8.112,0,0,1-8.111-8.108V1437.2a8.114,8.114,0,0,1,8.111-8.11H3480.2a8.11,8.11,0,0,1,8.1,8.11Z" transform="translate(-3249.096 -1429.092)" fill="#e9f6ff"/>
        <path id="Trazado_102679" data-name="Trazado 102679" d="M3249.1,1458.41V1437.2a8.114,8.114,0,0,1,8.111-8.11H3480.2a8.11,8.11,0,0,1,8.1,8.11v21.208" transform="translate(-3249.096 -1429.092)" fill="#76bdff"/>
        <g id="Grupo_88131" data-name="Grupo 88131" transform="translate(28.502 60.795)">
          <rect id="Rectángulo_34682" data-name="Rectángulo 34682" width="16.221" height="16.216" transform="translate(64.867)" fill="#c5e1f9"/>
          <rect id="Rectángulo_34683" data-name="Rectángulo 34683" width="16.218" height="16.216" transform="translate(97.301)" fill="#c5e1f9"/>
          <rect id="Rectángulo_34684" data-name="Rectángulo 34684" width="16.218" height="16.216" transform="translate(129.737)" fill="#c5e1f9"/>
          <rect id="Rectángulo_34685" data-name="Rectángulo 34685" width="16.218" height="16.216" transform="translate(162.168)" fill="#c5e1f9"/>
          <rect id="Rectángulo_34686" data-name="Rectángulo 34686" width="16.216" height="16.22" transform="translate(0 32.436)" fill="#c5e1f9"/>
          <rect id="Rectángulo_34687" data-name="Rectángulo 34687" width="16.221" height="16.22" transform="translate(32.429 32.436)" fill="#c5e1f9"/>
          <rect id="Rectángulo_34688" data-name="Rectángulo 34688" width="16.221" height="16.22" transform="translate(64.867 32.436)" fill="#9fc400"/>
          <rect id="Rectángulo_34689" data-name="Rectángulo 34689" width="16.218" height="16.22" transform="translate(97.301 32.436)" fill="#9fc400"/>
          <rect id="Rectángulo_34690" data-name="Rectángulo 34690" width="16.218" height="16.22" transform="translate(129.737 32.436)" fill="#c5e1f9"/>
          <rect id="Rectángulo_34691" data-name="Rectángulo 34691" width="16.218" height="16.22" transform="translate(162.168 32.436)" fill="#c5e1f9"/>
          <rect id="Rectángulo_34692" data-name="Rectángulo 34692" width="16.216" height="16.217" transform="translate(0 64.869)" fill="#4e99ff"/>
          <rect id="Rectángulo_34693" data-name="Rectángulo 34693" width="16.221" height="16.217" transform="translate(32.429 64.869)" fill="#4e99ff"/>
          <rect id="Rectángulo_34694" data-name="Rectángulo 34694" width="16.221" height="16.217" transform="translate(64.867 64.869)" fill="#4e99ff"/>
          <rect id="Rectángulo_34695" data-name="Rectángulo 34695" width="16.218" height="16.217" transform="translate(97.301 64.869)" fill="#c5e1f9"/>
          <rect id="Rectángulo_34696" data-name="Rectángulo 34696" width="16.218" height="16.217" transform="translate(129.737 64.869)" fill="#ff5931"/>
          <rect id="Rectángulo_34697" data-name="Rectángulo 34697" width="16.218" height="16.217" transform="translate(162.168 64.869)" fill="#c5e1f9"/>
          <rect id="Rectángulo_34698" data-name="Rectángulo 34698" width="16.216" height="16.221" transform="translate(0 97.303)" fill="#c5e1f9"/>
          <rect id="Rectángulo_34699" data-name="Rectángulo 34699" width="16.221" height="16.221" transform="translate(32.429 97.303)" fill="#c5e1f9"/>
          <rect id="Rectángulo_34700" data-name="Rectángulo 34700" width="16.221" height="16.221" transform="translate(64.867 97.303)" fill="#c5e1f9"/>
        </g>
        <line id="Línea_251" data-name="Línea 251" x2="8.111" transform="translate(32.554 68.907)" fill="none" stroke="#a5b6be" stroke-width="7.468"/>
        <line id="Línea_252" data-name="Línea 252" x2="8.109" transform="translate(64.988 68.907)" fill="none" stroke="#a5b6be" stroke-width="7.468"/>
        <line id="Línea_253" data-name="Línea 253" x2="8.104" transform="translate(194.727 166.207)" fill="none" stroke="#a5b6be" stroke-width="7.468"/>
        <line id="Línea_254" data-name="Línea 254" x2="8.116" transform="translate(162.289 166.207)" fill="none" stroke="#a5b6be" stroke-width="7.468"/>
        <line id="Línea_255" data-name="Línea 255" x2="8.107" transform="translate(129.86 166.207)" fill="none" stroke="#a5b6be" stroke-width="7.468"/>
        <line id="Línea_256" data-name="Línea 256" x2="72.982" transform="translate(89.199 16.217)" fill="none" stroke="#fff" stroke-width="7.468"/>
        <line id="Línea_257" data-name="Línea 257" x2="8.104" transform="translate(16.22 16.217)" fill="none" stroke="#fff" stroke-width="7.468"/>
        <line id="Línea_258" data-name="Línea 258" x2="8.111" transform="translate(214.879 16.217)" fill="none" stroke="#fff" stroke-width="7.468"/>
        <g id="Grupo_88132" data-name="Grupo 88132" transform="translate(0 29.588)">
          <rect id="Rectángulo_34701" data-name="Rectángulo 34701" width="239.204" height="5.695" fill="#d8e5ed"/>
        </g>
      </g>
      <g id="Grupo_88137" data-name="Grupo 88137" transform="translate(3302.043 1426.05)">
        <g id="Grupo_88136" data-name="Grupo 88136" clip-path="url(#clip-path)">
          <g id="Grupo_88135" data-name="Grupo 88135" transform="translate(27.448 -0.828)">
            <path id="Trazado_102680" data-name="Trazado 102680" d="M3681.377,2117.254l1.056,12.365,2.263,10.275,4.167,2.761,3.135.938.9,1.741,10.806,7.15a18.8,18.8,0,0,0,12.008.728c1.7-.407-.668-5.035-1.257-5.732a84.934,84.934,0,0,0-8.616-8.4l-8.424-10.374-9.532-12.991Z" transform="translate(-3431.978 -1608.7)" fill="#161711"/>
            <path id="Trazado_102681" data-name="Trazado 102681" d="M3542.585,2100.1l2.7,4.959,1.466,5.583-.2,8.9-4.791.707-3.639-.752-2.37,1.662s-13.614,2.725-18.725,2.91c-8.481.292-13.126-.561-14.777-2.2-.949-.913,2.993-2.721,4.313-2.912,7.509-1.174,15.428-6.016,15.428-6.016l6.19-7.032,1.191-4.965Z" transform="translate(-3389.475 -1605)" fill="#161711"/>
            <path id="Trazado_102682" data-name="Trazado 102682" d="M3591.726,1747.01l78.035,293.763-19.827,1.258-37.865-93.458-9.172-28.18-45.016-110.568-8.672-60.815Z" transform="translate(-3400.644 -1521.287)" fill="#0253a2"/>
            <path id="Trazado_102683" data-name="Trazado 102683" d="M3548.2,2013.257l-5.605-112.933,4.926-51.753,5.976-71.026L3544.447,1730l-30.992,4.965-3.5,76.586,1.921,72.638,1.527,27.375,11.7,107.785Z" transform="translate(-3391.337 -1517.253)" fill="#0253a2"/>
            <path id="Trazado_102684" data-name="Trazado 102684" d="M3433.106,1579.386s-15.715-9.316-36.423-36.991c-6.986-9.346-3.853.539-3.207,11.828s19.9,29.329,41.321,39.512C3443.745,1597.993,3433.106,1579.386,3433.106,1579.386Z" transform="translate(-3363.423 -1471.894)" fill="#e9d6b8"/>
            <path id="Trazado_102685" data-name="Trazado 102685" d="M3389.293,1542.525s4.207-11.814,2.533-14.911-8.487-13.99-8.487-13.99l-1.971-2.618s-3.908.783.753,8.049.578,5.071.578,5.071l-6.56-4.83-8.481-5.256-3.483-2.848s-1.865-1.772-2.64-1.792c-2.258-.036-1.466,1.837-1.466,1.837l12.671,12.314-14.586-7.923s-2.022-.673-2.723.259c-.658.893-.068,1.26-.068,1.26l14.5,13.151-7.963-3.176s-2-.609-2.725.272c-.791.966-1.028,1.2-1.028,1.2l29.015,16.791Z" transform="translate(-3354.628 -1464.953)" fill="#e9d6b8"/>
            <rect id="Rectángulo_34702" data-name="Rectángulo 34702" width="15.433" height="12.428" transform="translate(26.442 83.115) rotate(-33.402)" fill="#fff"/>
            <path id="Trazado_102686" data-name="Trazado 102686" d="M3370.335,1529l-10.559-4.929s-2.246-1.379-3.667-1.317a1.61,1.61,0,0,0-1.634,1.589l15.237,9.121Z" transform="translate(-3354.475 -1468.119)" fill="#e9d6b8"/>
            <path id="Trazado_102687" data-name="Trazado 102687" d="M3525.209,1557.552s1.438,9.531-34.917,45.706c-20.314,20.213-32.541,33.3-44.549,29.312-20.58-6.837-58.339-63.331-58.339-63.331l19.158-20.417s30.564,36.2,44.386,35.946c3.241-.065,22.9-18,42.764-42.575C3502.109,1531.806,3523.036,1554.842,3525.209,1557.552Z" transform="translate(-3362.282 -1472.094)" fill="#12344a"/>
            <path id="Trazado_102688" data-name="Trazado 102688" d="M3496.977,1759.6l11.508,11.919,9.34-31.307,9.177,36.154,73.312-9.877s-10.851-63.828-17.81-93.41l23.538-74.267s20.023-52.351-12.665-54.842c-32.67-2.48-70.4-4.564-70.4-4.564S3477.078,1663.761,3496.977,1759.6Z" transform="translate(-3387.074 -1472.067)" fill="#163f59"/>
            <path id="Trazado_102689" data-name="Trazado 102689" d="M3558.931,1543.149l-5.414,69.723,36.215-55.519.624-14.409Z" transform="translate(-3401.665 -1472.906)" fill="#e9f6ff"/>
            <path id="Trazado_102690" data-name="Trazado 102690" d="M3618.923,1784.695l11.132-5.414,1.342-1.269-1.375-2.482-2.365.163.792-7-11.193-2.634-5.639-3.036,4.3,19.363" transform="translate(-3415.439 -1525.082)" fill="#e9d6b8"/>
            <path id="Trazado_102691" data-name="Trazado 102691" d="M3653.619,1702.482l-41.657,45.35s1.021,7,4.359,3.5c.4-.413-1.4-1.913,1.033-3.087,9.885-4.7,32.845-11.519,41.635-19.116a139.131,139.131,0,0,0,20.034-22.019Z" transform="translate(-3415.521 -1510.73)" fill="#e9d6b8"/>
            <rect id="Rectángulo_34703" data-name="Rectángulo 34703" width="15.435" height="14.003" transform="matrix(0.721, -0.693, 0.693, 0.721, 205.264, 225.558)" fill="#e7f5fe"/>
            <path id="Trazado_102692" data-name="Trazado 102692" d="M3565.966,1557.965s-23,52.427-8.795,105.991c1.123,4.215,6.571,6.709,6.571,6.709l6.33-6.917S3562.607,1602.155,3565.966,1557.965Z" transform="translate(-3401.432 -1476.467)" fill="#ca4f4e"/>
            <path id="Trazado_102693" data-name="Trazado 102693" d="M3573.452,1552.2l1.4,9.031L3595,1547.407l.157-4.456Z" transform="translate(-3406.391 -1472.908)" fill="#d1dbea"/>
            <path id="Trazado_102694" data-name="Trazado 102694" d="M3567.5,1542.351l-4.634,17.6,4.595-6.032Z" transform="translate(-3403.881 -1472.765)" fill="#d1dbea"/>
            <path id="Trazado_102695" data-name="Trazado 102695" d="M3633.8,1598.6l18.028,62.927-25.616,33.107s10.1,15,14.288,13.24c29.015-12.137,51.974-53.772,51.974-53.772l-26.251-85.489s-10.963-18.27-37.4-22.668C3609.673,1542.774,3632.543,1593.385,3633.8,1598.6Z" transform="translate(-3417.714 -1473.585)" fill="#12344a"/>
            <path id="Trazado_102696" data-name="Trazado 102696" d="M3596.866,1527.615a68.7,68.7,0,0,1-3.966,11.519c-2.4,4.656-21.235,9.784-24.111,10.312-2.892.523,1.516-14.311,1.691-17.719.14-2.612,1.775-1.7-.034-5.572Z" transform="translate(-3405.053 -1468.926)" fill="#e9d6b8"/>
            <path id="Trazado_102697" data-name="Trazado 102697" d="M3562.429,1540.687l-5.572,15.58-7.167,59.72-10.295-46.939,8.464-8.125-4.594-7.554,10.132-12.317Z" transform="translate(-3398.317 -1472.371)" fill="#194866"/>
            <path id="Trazado_102698" data-name="Trazado 102698" d="M3525.915,1705.826l-.859,32.915,6.464-29.709,60.759,39.107s5.027-44.38-1.932-73.963l23.538-74.267s20.023-52.351-12.665-54.842c-4.605-.346-9.306-.688-13.979-1.019-6.627-.466-18.967,18.523-21.949,23.974-3.179,5.838-23.853,58.8-23.853,58.8Z" transform="translate(-3394.917 -1473.166)" fill="#12344a"/>
            <path id="Trazado_102699" data-name="Trazado 102699" d="M3590.414,1542.384l10.835,2.418-8.712,16.26-12.435,7.391.09,14.075-32.323,46.1,21.107-60.792Z" transform="translate(-3400.326 -1472.773)" fill="#163f59"/>
            <path id="Trazado_102700" data-name="Trazado 102700" d="M3590.48,1541.254l10.835,2.415-8.672,16.316-12.413,7.043.118,13.457-32.2,44.025,20.955-58.1Z" transform="translate(-3400.392 -1472.505)" fill="#194866"/>
            <path id="Trazado_102701" data-name="Trazado 102701" d="M3568.063,1556.572l3.325-.362-.331,8.2-4.01,2.842-2.3-3.443Z" transform="translate(-3404.326 -1476.051)" fill="#ca4f4e"/>
            <g id="Grupo_88134" data-name="Grupo 88134" transform="translate(155.274)">
              <path id="Trazado_102702" data-name="Trazado 102702" d="M3564.984,1506.655a5.373,5.373,0,0,0,4.1,6.4l23.656,5.143a5.377,5.377,0,0,0,6.392-4.115l7.615-35.018a5.369,5.369,0,0,0-4.11-6.4l-23.645-5.131a5.363,5.363,0,0,0-6.393,4.106Z" transform="translate(-3559.627 -1454.997)" fill="#e9d6b8"/>
              <path id="Trazado_102703" data-name="Trazado 102703" d="M3572.1,1478.585s-2.437-4.077-2.567-6.293c-.067-1.111,1.825-4.872,4.785-5.835s4.538,2.358,4.538,2.358-4.712,1.424-5.116,2.253S3572.1,1478.585,3572.1,1478.585Z" transform="translate(-3560.735 -1454.731)" fill="#163f59"/>
              <path id="Trazado_102704" data-name="Trazado 102704" d="M3607.853,1491.487s6.487-12.677,6.694-16.759.354-6.919-4.358-8.4c-7.065-2.219-7.493-.707-10.514-3.667-3.028-2.943-8.178-9.594-10.222-10.588-3.426-1.668-9.346-1.691-11.025,5.05a7.78,7.78,0,0,1-4.646,5.722c.146.668,1.332,1.534,3.371,3.173,5.863,4.719,9.666,6.235,14.979,6.01,5.33-.214,15.316-1.028,15.6,2.934s-2.629,15.251-2.388,16.217C3605.606,1492.156,3606.825,1491.965,3607.853,1491.487Z" transform="translate(-3561.743 -1451.141)" fill="#194866"/>
              <path id="Trazado_102705" data-name="Trazado 102705" d="M3605.655,1512.344a1.8,1.8,0,0,0,1.376,2.137l5.112,1.106a1.8,1.8,0,0,0,2.134-1.364l2.028-9.34a1.809,1.809,0,0,0-1.365-2.143l-5.112-1.1a1.768,1.768,0,0,0-2.123,1.365Z" transform="translate(-3569.29 -1463.104)" fill="#e9d6b8"/>
              <path id="Trazado_102706" data-name="Trazado 102706" d="M3565.745,1503.65a1.775,1.775,0,0,0,1.359,2.132l5.106,1.115a1.8,1.8,0,0,0,2.145-1.376l2.023-9.334a1.787,1.787,0,0,0-1.371-2.129l-5.1-1.123a1.818,1.818,0,0,0-2.135,1.382Z" transform="translate(-3559.826 -1461.041)" fill="#e9d6b8"/>
              <path id="Trazado_102707" data-name="Trazado 102707" d="M3601.168,1507.092s-2.994,13.784-3.994,18.38c-.9,4.162-4.549,12.924-28.026,7.807-13.9-3.016-11.171-13.12-10.441-16.479.556-2.556,5.111-9.576,6.9-10.724.056-.034-1.224,5.692-1.224,5.692a11.333,11.333,0,0,1,10.688-3.477c10.66,2.314,11.716,9.082,16.446,10C3595.158,1518.991,3599.147,1513.684,3601.168,1507.092Z" transform="translate(-3558.001 -1464.165)" fill="#194866"/>
              <path id="Trazado_102708" data-name="Trazado 102708" d="M3580.835,1520.609l-7.291-1.589a1.781,1.781,0,0,1-1.364-2.135l.219-1.021,10.795,2.358-.224,1.02A1.793,1.793,0,0,1,3580.835,1520.609Z" transform="translate(-3561.353 -1466.486)" fill="#e9d6b8"/>
            </g>
            <rect id="Rectángulo_34704" data-name="Rectángulo 34704" width="7.755" height="25.594" transform="translate(181.996 128.025) rotate(-81.634)" fill="#194866"/>
          </g>
        </g>
      </g>
      <line id="Línea_259" data-name="Línea 259" x1="233.364" transform="translate(3388.785 1627.634)" fill="none" stroke="#7eb3ff" stroke-miterlimit="10" stroke-width="2.291"/>
    </g>
  </g>
</svg>
