<svg xmlns="http://www.w3.org/2000/svg" xmlns:xlink="http://www.w3.org/1999/xlink" width="376.575" height="375.576" viewBox="0 0 376.575 375.576">
  <defs>
    <clipPath id="clip-path">
      <rect id="Rectángulo_34710" data-name="Rectángulo 34710" width="201.126" height="259.86" fill="none"/>
    </clipPath>
  </defs>
  <g id="Grupo_88434" data-name="Grupo 88434" transform="translate(-329.425 -2768.418)">
    <rect id="Rectángulo_34707" data-name="Rectángulo 34707" width="265.572" height="265.572" rx="28" transform="translate(329.425 2956.206) rotate(-45)" fill="#636363" opacity="0.5"/>
    <g id="Grupo_88180" data-name="Grupo 88180" transform="translate(-1769.004 2041.369)">
      <g id="Grupo_88146" data-name="Grupo 88146" transform="translate(2019.3 828.9)">
        <g id="Grupo_88145" data-name="Grupo 88145" transform="translate(106.795 59.239)">
          <path id="Trazado_102719" data-name="Trazado 102719" d="M2262.438,978.267a109.355,109.355,0,0,1,11.8,101.328,109.105,109.105,0,0,1-102.2-148.61A109.347,109.347,0,0,1,2262.438,978.267Z" transform="translate(-2164.692 -930.985)" fill="#c5e1f9"/>
          <g id="Grupo_88144" data-name="Grupo 88144" transform="translate(7.469 9.444)">
            <line id="Línea_271" data-name="Línea 271" x2="90.254" y2="131.255" transform="translate(8.408 1.948)" fill="none" stroke="#fff" stroke-miterlimit="10" stroke-width="2.734"/>
            <line id="Línea_272" data-name="Línea 272" x1="26.864" y1="3.003" transform="translate(0 26.127)" fill="none" stroke="#fff" stroke-miterlimit="10" stroke-width="2.734"/>
            <line id="Línea_273" data-name="Línea 273" x1="33.116" y1="3.699" transform="translate(9.141 47.809)" fill="none" stroke="#fff" stroke-miterlimit="10" stroke-width="2.734"/>
            <line id="Línea_274" data-name="Línea 274" x1="55.36" y1="6.187" transform="translate(2.285 67.702)" fill="none" stroke="#fff" stroke-miterlimit="10" stroke-width="2.734"/>
            <line id="Línea_275" data-name="Línea 275" x1="53.858" y1="6.017" transform="translate(19.179 90.256)" fill="none" stroke="#fff" stroke-miterlimit="10" stroke-width="2.734"/>
            <line id="Línea_276" data-name="Línea 276" x1="29.988" y1="3.348" transform="translate(58.439 115.303)" fill="none" stroke="#fff" stroke-miterlimit="10" stroke-width="2.734"/>
            <line id="Línea_277" data-name="Línea 277" y1="26.157" x2="6.809" transform="translate(25.402)" fill="none" stroke="#fff" stroke-miterlimit="10" stroke-width="2.734"/>
            <line id="Línea_278" data-name="Línea 278" y1="40.793" x2="10.622" transform="translate(40.789 7.752)" fill="none" stroke="#fff" stroke-miterlimit="10" stroke-width="2.734"/>
            <line id="Línea_279" data-name="Línea 279" y1="51.058" x2="13.296" transform="translate(56.18 19.865)" fill="none" stroke="#fff" stroke-miterlimit="10" stroke-width="2.734"/>
            <line id="Línea_280" data-name="Línea 280" y1="52.444" x2="13.663" transform="translate(71.566 40.857)" fill="none" stroke="#fff" stroke-miterlimit="10" stroke-width="2.734"/>
            <line id="Línea_281" data-name="Línea 281" y1="45.049" x2="11.725" transform="translate(86.963 70.633)" fill="none" stroke="#fff" stroke-miterlimit="10" stroke-width="2.734"/>
          </g>
        </g>
        <path id="Trazado_102721" data-name="Trazado 102721" d="M2282.325,1102.088c-.163-.135-.329-.252-.5-.371.088-.03.174-.06.261-.093,2.293-.9,3.77-2.6,3.3-3.8s-2.71-1.44-5-.542a6.085,6.085,0,0,0-.568.253c.015-.095.035-.187.049-.278.368-2.434-.364-4.558-1.636-4.755s-2.6,1.623-2.969,4.057c-.03.209-.049.415-.069.616-.07-.058-.14-.123-.212-.176-1.921-1.537-4.13-1.971-4.937-.964s.106,3.065,2.029,4.6c.167.134.332.255.5.37-.084.029-.17.057-.255.093-2.293.9-3.773,2.594-3.305,3.79s2.71,1.443,4.995.546a4.386,4.386,0,0,0,.569-.254c-.015.1-.028.184-.045.281-.371,2.434.366,4.562,1.639,4.755s2.6-1.626,2.967-4.059c.032-.209.053-.413.067-.615.073.06.141.123.213.18,1.925,1.536,4.134,1.969,4.935.966S2284.249,1103.621,2282.325,1102.088Zm-5.486,1.657a2.411,2.411,0,1,1,2.749-2.019A2.413,2.413,0,0,1,2276.839,1103.745Z" transform="translate(-2085.569 -914.621)" fill="#fff"/>
      </g>
      <g id="Grupo_88179" data-name="Grupo 88179" transform="translate(2130.843 769.584)">
        <g id="Grupo_88147" data-name="Grupo 88147" transform="translate(19.171 67.274)">
          <rect id="Rectángulo_34708" data-name="Rectángulo 34708" width="268.603" height="201.775" fill="#c5e1f9"/>
          <rect id="Rectángulo_34709" data-name="Rectángulo 34709" width="268.603" height="19.275" fill="#9ac7f7"/>
          <path id="Trazado_102722" data-name="Trazado 102722" d="M2213.718,872.9a3.858,3.858,0,1,1-3.859-3.858A3.862,3.862,0,0,1,2213.718,872.9Z" transform="translate(-2199.577 -863.261)" fill="#003e99"/>
          <path id="Trazado_102723" data-name="Trazado 102723" d="M2230.338,872.9a3.853,3.853,0,1,1-3.859-3.858A3.86,3.86,0,0,1,2230.338,872.9Z" transform="translate(-2203.992 -863.261)" fill="#0450cf"/>
          <path id="Trazado_102724" data-name="Trazado 102724" d="M2246.959,872.9a3.857,3.857,0,1,1-3.86-3.858A3.861,3.861,0,0,1,2246.959,872.9Z" transform="translate(-2208.403 -863.261)" fill="#eaf4fe"/>
        </g>
        <g id="Grupo_88151" data-name="Grupo 88151" transform="translate(71.425 9.188)">
          <g id="Grupo_88150" data-name="Grupo 88150" clip-path="url(#clip-path)">
            <g id="Grupo_88149" data-name="Grupo 88149" transform="translate(21.545 31.9)">
              <path id="Trazado_102725" data-name="Trazado 102725" d="M2372.176,887.625s.325,2.9,6.18,4.278,13.943-4.256,14.652-17.748,9.493-11.429,9.938-21.688c.429-10.258-4.118-16.982-11.98-12.237s-13.677,5.262-11.505,9.07,10.569,5.311,10.68.632-19.327-28.243-33.4-23.872c-9.5,2.948-11.233,5.837-8.306,15,2.137,6.676,1.576,12.615-7.439,15.679-11.587,3.941-8.069,8.114-4.285,11.236,5.591,4.613,14.642,7.682,12.039,14.136S2361.216,890.225,2372.176,887.625Z" transform="translate(-2307.115 -825.522)" fill="#17203f"/>
              <g id="Grupo_88148" data-name="Grupo 88148" transform="translate(0 26.345)">
                <path id="Trazado_102726" data-name="Trazado 102726" d="M2386.416,915.629c6.691,3.429.943,3.459.489,3.946-2.738,2.925-30.464-2.859-31.961-6.988-.25-.693,13-1.751,13.1-2.248,1.189-5.759,1.832-10.662.635-17.272a.982.982,0,0,1,.919-.847c2.449.235,4.911.419,7.37.65.413.046,5.147,1.427,3.926,3.665C2379.952,902.834,2379.342,911.993,2386.416,915.629Z" transform="translate(-2312.916 -869.573)" fill="#ec9568"/>
                <path id="Trazado_102727" data-name="Trazado 102727" d="M2387.945,889.858c.165-.2.324-.411.485-.621.051-.068.1-.129.151-.2.2-.267.4-.541.586-.826.052-.073.1-.151.151-.226.144-.216.281-.431.427-.653.076-.123.151-.249.225-.372.111-.186.225-.374.339-.569.076-.134.15-.267.229-.4q.215-.385.413-.771c.1-.2.2-.4.311-.6.087-.179.183-.361.266-.546s.176-.373.264-.563c.072-.162.148-.325.215-.488.061-.134.116-.264.181-.4,0-.008,0-.013,0-.019.973-2.277,2.973-13.71,2.487-19.535-.056-.7-.865-2.185-1.54-1.509-12.573,12.563-22.3-5.831-21.911,11.334v.014c-.007.045-.1,1.487-.125,2.15a1.413,1.413,0,0,0-.007.174c-.016.672-.027,1.34-.016,1.987,0,.044,0,.085,0,.12.014.671.035,1.326.082,1.967,0,.023,0,.043,0,.063.54,8.179,3.523,14.248,8.068,15.052,2.651.469,5.419-.92,7.926-3.651v0a.535.535,0,0,1,.063-.067c.185-.208.371-.424.556-.644C2387.832,889.989,2387.892,889.925,2387.945,889.858Z" transform="translate(-2317.199 -861.388)" fill="#f7b68b"/>
                <path id="Trazado_102728" data-name="Trazado 102728" d="M2498.514,954.327s.856,1.036,1.695.411c1.4-1.022,3.112-4.033,3.685-5.127.628-1.225,2.646-7.483,2.646-7.483a7.68,7.68,0,0,0-2.893,3.816C2502.45,949.614,2498.514,954.327,2498.514,954.327Z" transform="translate(-2351.03 -882.822)" fill="#ec9568"/>
                <path id="Trazado_102729" data-name="Trazado 102729" d="M2498.479,953.218c1.93-1.555,2.594-4.351,2.584-7.828-.01-3.3,1.7-4.572,1.7-4.572a39.629,39.629,0,0,1-.289,7.248,12.222,12.222,0,0,1-1.046,4.269C2499.467,956.181,2493.516,957.224,2498.479,953.218Z" transform="translate(-2350.508 -882.474)" fill="#ec9568"/>
                <path id="Trazado_102730" data-name="Trazado 102730" d="M2388.456,1421.392s-2.58-1.1-9.7-2.455c-4.179-.794-7.343-.769-8.837-2.334-2.478-2.58-.894-10.726-2.1-10.448-5.9,1.352-8.112,15.36-4.672,17.083s22.863,1.1,24.46.981S2388.952,1421.024,2388.456,1421.392Z" transform="translate(-2314.66 -1006.005)" fill="#f7b68b"/>
                <path id="Trazado_102731" data-name="Trazado 102731" d="M2336.094,1230.687q.729-5.3,1.525-10.449c2.35-5.2,4.55-8.056,6.441-7.912,7.147.55,15.98,27.413-.154,95.909-.817,3.441-10.136,62.534-10.492,61.173C2329.009,1352.541,2328.861,1283.1,2336.094,1230.687Z" transform="translate(-2306.384 -954.55)" fill="#f7b68b"/>
                <path id="Trazado_102732" data-name="Trazado 102732" d="M2343.879,1076.648c5.625-.915,5.679,2.329,9.556,10.463,7.6,15.952,11.607,39.482,8.349,64.478-3.817,29.283-11.855,54.776-21.295,70.762-5.424-13.768-7.962-30.3-9.989-48.616C2324.181,1116.749,2326.594,1079.463,2343.879,1076.648Z" transform="translate(-2305.583 -918.493)" fill="#f7b68b"/>
                <path id="Trazado_102733" data-name="Trazado 102733" d="M2349.68,1164.676a83.31,83.31,0,0,0-21.875-2.52c.445,9.606,1.308,20.153,2.517,31.5,8.383-8.971,24.609-4.052,28.266.411,1.314-6.329,2.438-12.926,3.324-19.739.259-1.962.456-3.913.624-5.856C2358.407,1167.076,2354.114,1165.8,2349.68,1164.676Z" transform="translate(-2305.712 -941.229)" fill="#ec9568"/>
                <path id="Trazado_102734" data-name="Trazado 102734" d="M2303.429,973.206c8.35,7.624,15.894,42.318,15.894,42.318s-.987,13.756-19.515-29.687C2294.244,972.79,2301.373,971.329,2303.429,973.206Z" transform="translate(-2297.728 -890.895)" fill="#f7b68b"/>
                <path id="Trazado_102735" data-name="Trazado 102735" d="M2419.667,964.846c6.308,10.076,1.265,45.247,1.265,45.247s-6.424,12.545-10.162-34.688C2409.646,961.224,2418.115,962.362,2419.667,964.846Z" transform="translate(-2327.709 -888.45)" fill="#f7b68b"/>
                <path id="Trazado_102736" data-name="Trazado 102736" d="M2418.194,1010.068c5.87-12.485,43.535-35.1,43.535-35.1s16.37-4.494-27.538,34.031C2421.009,1020.564,2416.745,1013.145,2418.194,1010.068Z" transform="translate(-2329.636 -891.496)" fill="#f7b68b"/>
                <path id="Trazado_102737" data-name="Trazado 102737" d="M2491.155,953.12l.677,1.046-1.134,4.13s-4.871,5.986-7.518,7.586-9.867,10.978-11.045,11.852-7.333-2.059-7.333-2.059,9.57-7.643,13.106-11,6.935-9.879,8.277-11.242c2.281-2.336,3.308-3.643,3.308-3.643s1.075,1.39-2.295,5.261c-.89,1.018.725,1.47.725,1.47Z" transform="translate(-2342.081 -884.857)" fill="#f7b68b"/>
                <path id="Trazado_102738" data-name="Trazado 102738" d="M2400.559,1094.827c-4.14-1.231-4.448,1.785-8.033,9.1-7.02,14.336-12,35.976-11.644,59.47.421,27.518,4.309,51.79,10.052,67.312,5.212-12.455,8.5-27.68,11.548-44.594C2411.968,1133.488,2413.282,1098.609,2400.559,1094.827Z" transform="translate(-2319.797 -923.288)" fill="#f7b68b"/>
                <path id="Trazado_102739" data-name="Trazado 102739" d="M2397.035,1171.815c.781-9.279,1.326-17.7,1.593-25.173-1.356-1.666-2.135-.74-4.58.1-4.721,1.623-9.479,6.4-12.8,14.079-.285,5.24-.422,10.643-.364,16.154q.073,9.142.479,17.729a75.555,75.555,0,0,0,5.611-6.9A111.951,111.951,0,0,0,2397.035,1171.815Z" transform="translate(-2319.799 -936.868)" fill="#ec9568"/>
                <path id="Trazado_102740" data-name="Trazado 102740" d="M2385.964,1221c-2.746-1.407-7.755,2.071-11.229,8.984-6.817,13.551-8.951,32.118-10.163,55.079-1.286,24.284-1.331,42.391-.99,57.358.333,14.777-5.9,35.429,5.244,33.464-1.3-20.33,2.076-50.443,8.045-66.234C2397.257,1255.749,2394.406,1225.33,2385.964,1221Z" transform="translate(-2314.827 -956.772)" fill="#f7b68b"/>
                <path id="Trazado_102741" data-name="Trazado 102741" d="M2387.929,970.1l-43.112-3.114-2.134-49.676,53.61,8.36Z" transform="translate(-2309.662 -876.235)" fill="#3b4454"/>
                <path id="Trazado_102742" data-name="Trazado 102742" d="M2317.567,1132.7l73.843-6.068c15.361-43.911,6.207-94.415-11.461-139.463q-21.718-1.786-43.451-3.57C2319.428,1030.21,2303.394,1084.115,2317.567,1132.7Z" transform="translate(-2301.548 -893.831)" fill="#3b4454"/>
                <path id="Trazado_102743" data-name="Trazado 102743" d="M2307.895,965.591l30.931-43.218a6.858,6.858,0,0,0-2.466-3.252l-.792-.573a6.886,6.886,0,0,0-9.609,1.6l-27.035,37.764Z" transform="translate(-2298.045 -876.221)" fill="#3b4454"/>
                <path id="Trazado_102744" data-name="Trazado 102744" d="M2411.2,982.926l-4.739-52.939a6.841,6.841,0,0,1,3.768-1.552l.978-.088a6.888,6.888,0,0,1,7.477,6.241l4.139,46.262Z" transform="translate(-2326.592 -879.156)" fill="#3b4454"/>
                <path id="Trazado_102745" data-name="Trazado 102745" d="M2325.591,1039.687a1.471,1.471,0,0,1-1.845.967l-1.877-.588a1.469,1.469,0,0,1-.959-1.848l2.638-8.443a1.473,1.473,0,0,1,1.848-.97l1.88.589a1.471,1.471,0,0,1,.959,1.848Z" transform="translate(-2303.863 -905.814)" fill="#f7b68b"/>
                <path id="Trazado_102746" data-name="Trazado 102746" d="M2329.7,1427.2c-3.524,9.649-8.45,16.719-11,15.784s-1.762-9.51,1.765-19.158,8.443-16.721,11-15.784S2333.219,1417.554,2329.7,1427.2Z" transform="translate(-2302.898 -1006.487)" fill="#0561fc"/>
                <path id="Trazado_102747" data-name="Trazado 102747" d="M2331.6,1418.212c-1.537,7.422-5.893,13.132-8.443,12.2s-2.341-7.172.574-14.169c3.689-8.85,5.178-11.429,4.918-17.453C2328.4,1393.139,2337.376,1390.312,2331.6,1418.212Z" transform="translate(-2304.006 -1003.069)" fill="#f7b68b"/>
                <path id="Trazado_102748" data-name="Trazado 102748" d="M2364.736,1415.936a.243.243,0,0,0,.245.246h.489a.251.251,0,0,0,.252-.246h0a.253.253,0,0,0-.252-.247h-.489a.246.246,0,0,0-.245.247Z" transform="translate(-2315.516 -1008.538)" fill="#fff"/>
                <path id="Trazado_102749" data-name="Trazado 102749" d="M2384.272,1425.192c1.11,4.647-13.144,2.776-16.836,1.566a42.362,42.362,0,0,0-5.772-1.518c-.148,0-.295-.023-.443-.026a2.714,2.714,0,0,0-.052.331c0,2.555-1.124,5.941,2.951,5.941h25.562C2410.578,1431.485,2384.251,1425.089,2384.272,1425.192Z" transform="translate(-2314.531 -1011.06)" fill="#0561fc"/>
                <path id="Trazado_102750" data-name="Trazado 102750" d="M2498,956.477s2.661-2.909,2.911-4.877c.17-1.369-.095-7.94-.095-7.94a7.746,7.746,0,0,0-1.4,4.575A25.906,25.906,0,0,1,2498,956.477Z" transform="translate(-2350.893 -883.229)" fill="#f7b68b"/>
                <path id="Trazado_102751" data-name="Trazado 102751" d="M2494.826,958.517s-1.1-.234-1.284-.7a6.007,6.007,0,0,0-.333.981c-.215.623-2.406,4.488-2.406,4.488a36.93,36.93,0,0,1,2.89-3.075,17.32,17.32,0,0,0,2.026-2.334c.088-.114.144-.35.262-.578Z" transform="translate(-2348.983 -886.85)" fill="#dee7ec"/>
                <path id="Trazado_102752" data-name="Trazado 102752" d="M2494.45,955.232c2.269-2.6,2.522-4.081,2.445-4.771-.531.611-1.4,1.587-2.691,2.9a24.126,24.126,0,0,0-2.067,2.946c-.167.264.767,1.017.064,3.628-.13.472,1.887-1.775,2.765-3.314C2494.561,956.456,2493.764,956.013,2494.45,955.232Z" transform="translate(-2349.332 -885.034)" fill="#ec9568"/>
              </g>
            </g>
          </g>
        </g>
        <g id="Grupo_88154" data-name="Grupo 88154" transform="translate(0 105.611)">
          <g id="Grupo_88152" data-name="Grupo 88152">
            <path id="Trazado_102753" data-name="Trazado 102753" d="M2257.783,1007.156c0,1.047-.777,2.326-1.59,2.326H2171.9c-.811,0-.746-1.279-.746-2.326V915.083c0-1.048-.064-1.719.746-1.719h84.289a1.637,1.637,0,0,1,1.59,1.719Z" transform="translate(-2171.156 -913.364)" fill="#eaf4fe"/>
            <path id="Trazado_102754" data-name="Trazado 102754" d="M2228.529,954.254a19.576,19.576,0,1,1-19.574-19.578A19.574,19.574,0,0,1,2228.529,954.254Z" transform="translate(-2175.993 -919.022)" fill="#60c1dd"/>
            <path id="Trazado_102755" data-name="Trazado 102755" d="M2227.6,932.31l-12.691,21.683h24.98c.011,0,.022-.451.022-.74A23.972,23.972,0,0,0,2227.6,932.31Z" transform="translate(-2182.772 -918.394)" fill="#ff2226"/>
          </g>
          <g id="Grupo_88153" data-name="Grupo 88153" transform="translate(15.428 66.453)">
            <line id="Línea_282" data-name="Línea 282" x2="45.092" fill="none" stroke="#9ac7f7" stroke-miterlimit="10" stroke-width="3.231"/>
            <line id="Línea_283" data-name="Línea 283" x2="65.266" transform="translate(0 7.12)" fill="none" stroke="#9ac7f7" stroke-miterlimit="10" stroke-width="3.231"/>
            <line id="Línea_284" data-name="Línea 284" x2="45.092" transform="translate(0 14.24)" fill="none" stroke="#9ac7f7" stroke-miterlimit="10" stroke-width="3.231"/>
          </g>
        </g>
        <g id="Grupo_88172" data-name="Grupo 88172" transform="translate(200.544)">
          <path id="Trazado_102756" data-name="Trazado 102756" d="M2568.778,885.567c0,1.294-.734,1.5-1.9,1.5H2446.71c-1.16,0-2.53-.2-2.53-1.5V771.927a2.607,2.607,0,0,1,2.53-2.343h120.172c1.161,0,1.9,1.05,1.9,2.343Z" transform="translate(-2444.18 -769.584)" fill="#eaf4fe"/>
          <g id="Grupo_88171" data-name="Grupo 88171" transform="translate(12.992 20.473)">
            <g id="Grupo_88167" data-name="Grupo 88167">
              <g id="Grupo_88155" data-name="Grupo 88155" transform="translate(0.362 74.472)">
                <path id="Trazado_102757" data-name="Trazado 102757" d="M2462.9,899.239h-.008l-.459.247-.068-.272.576-.308h.3v2.64h-.345Z" transform="translate(-2462.36 -898.859)" fill="#9ac7f7"/>
                <path id="Trazado_102758" data-name="Trazado 102758" d="M2466.624,900.18c0,.9-.333,1.393-.918,1.393-.515,0-.865-.483-.873-1.356s.383-1.374.918-1.374C2466.307,898.843,2466.624,899.34,2466.624,900.18Zm-1.433.04c0,.687.211,1.077.536,1.077.365,0,.541-.428.541-1.1,0-.649-.167-1.075-.537-1.075C2465.417,899.12,2465.19,899.5,2465.19,900.22Z" transform="translate(-2463.016 -898.843)" fill="#9ac7f7"/>
              </g>
              <g id="Grupo_88156" data-name="Grupo 88156" transform="translate(0.122 60.788)">
                <path id="Trazado_102759" data-name="Trazado 102759" d="M2462.033,882.9v-.22l.281-.272c.673-.641.978-.982.982-1.381a.471.471,0,0,0-.524-.516.908.908,0,0,0-.561.223l-.114-.251a1.162,1.162,0,0,1,.749-.269.743.743,0,0,1,.807.769c0,.487-.353.88-.909,1.418l-.211.195v.007h1.185v.3Z" transform="translate(-2462.033 -880.213)" fill="#9ac7f7"/>
                <path id="Trazado_102760" data-name="Trazado 102760" d="M2466.624,881.55c0,.9-.333,1.393-.918,1.393-.515,0-.865-.483-.873-1.356s.383-1.374.918-1.374C2466.307,880.213,2466.624,880.71,2466.624,881.55Zm-1.433.04c0,.687.211,1.077.536,1.077.365,0,.541-.427.541-1.1,0-.65-.167-1.076-.537-1.076C2465.417,880.49,2465.19,880.872,2465.19,881.59Z" transform="translate(-2462.776 -880.213)" fill="#9ac7f7"/>
              </g>
              <g id="Grupo_88157" data-name="Grupo 88157" transform="translate(0.11 47.104)">
                <path id="Trazado_102761" data-name="Trazado 102761" d="M2462.114,863.858a1.189,1.189,0,0,0,.585.167c.458,0,.6-.292.6-.511-.005-.37-.337-.528-.683-.528h-.2v-.267h.2c.26,0,.588-.135.588-.448,0-.211-.134-.4-.462-.4a.98.98,0,0,0-.529.174l-.093-.259a1.248,1.248,0,0,1,.69-.2c.52,0,.756.309.756.63a.656.656,0,0,1-.487.621v.007a.688.688,0,0,1,.588.679c0,.422-.328.792-.962.792a1.345,1.345,0,0,1-.687-.179Z" transform="translate(-2462.016 -861.584)" fill="#9ac7f7"/>
                <path id="Trazado_102762" data-name="Trazado 102762" d="M2466.624,862.92c0,.9-.333,1.393-.918,1.393-.515,0-.865-.483-.873-1.357s.383-1.373.918-1.373C2466.307,861.584,2466.624,862.081,2466.624,862.92Zm-1.433.04c0,.687.211,1.077.536,1.077.365,0,.541-.427.541-1.1,0-.65-.167-1.075-.537-1.075C2465.417,861.861,2465.19,862.242,2465.19,862.961Z" transform="translate(-2462.764 -861.584)" fill="#9ac7f7"/>
              </g>
              <g id="Grupo_88158" data-name="Grupo 88158" transform="translate(0 33.42)">
                <path id="Trazado_102763" data-name="Trazado 102763" d="M2463.094,845.656v-.719h-1.227V844.7l1.177-1.687h.386v1.641h.369v.281h-.369v.719Zm0-1v-.881c0-.137,0-.276.012-.415h-.012c-.082.155-.146.269-.22.39l-.645.9v.007Z" transform="translate(-2461.867 -842.97)" fill="#9ac7f7"/>
                <path id="Trazado_102764" data-name="Trazado 102764" d="M2466.624,844.29c0,.9-.333,1.393-.918,1.393-.515,0-.865-.483-.873-1.357s.383-1.373.918-1.373C2466.307,842.954,2466.624,843.451,2466.624,844.29Zm-1.433.04c0,.687.211,1.077.536,1.077.365,0,.541-.427.541-1.1,0-.65-.167-1.075-.537-1.075C2465.417,843.231,2465.19,843.612,2465.19,844.331Z" transform="translate(-2462.654 -842.954)" fill="#9ac7f7"/>
              </g>
              <g id="Grupo_88159" data-name="Grupo 88159" transform="translate(0.11 19.734)">
                <path id="Trazado_102765" data-name="Trazado 102765" d="M2463.6,824.684H2462.6l-.1.678a1.514,1.514,0,0,1,.215-.016,1.111,1.111,0,0,1,.568.143.752.752,0,0,1,.378.678.915.915,0,0,1-.982.9,1.3,1.3,0,0,1-.659-.162l.09-.272a1.173,1.173,0,0,0,.564.146.584.584,0,0,0,.627-.573c-.005-.341-.232-.585-.76-.585a2.836,2.836,0,0,0-.366.028l.17-1.266h1.263Z" transform="translate(-2462.016 -824.338)" fill="#9ac7f7"/>
                <path id="Trazado_102766" data-name="Trazado 102766" d="M2466.624,825.659c0,.9-.333,1.393-.918,1.393-.515,0-.865-.483-.873-1.356s.383-1.374.918-1.374C2466.307,824.322,2466.624,824.819,2466.624,825.659Zm-1.433.04c0,.687.211,1.077.536,1.077.365,0,.541-.427.541-1.1,0-.65-.167-1.076-.537-1.076C2465.417,824.6,2465.19,824.981,2465.19,825.7Z" transform="translate(-2462.764 -824.322)" fill="#9ac7f7"/>
              </g>
              <g id="Grupo_88160" data-name="Grupo 88160" transform="translate(0.078 6.05)">
                <path id="Trazado_102767" data-name="Trazado 102767" d="M2463.524,805.991a1.235,1.235,0,0,0-.268.018,1.07,1.07,0,0,0-.917.938h.012a.8.8,0,0,1,1.434.548.882.882,0,0,1-.877.929c-.565,0-.934-.438-.934-1.124a1.661,1.661,0,0,1,.446-1.191,1.435,1.435,0,0,1,.844-.39,1.726,1.726,0,0,1,.26-.02Zm-.1,1.523a.536.536,0,0,0-.545-.6.588.588,0,0,0-.511.325.3.3,0,0,0-.041.158c.007.436.207.756.581.756C2463.215,808.148,2463.422,807.892,2463.422,807.514Z" transform="translate(-2461.973 -805.694)" fill="#9ac7f7"/>
                <path id="Trazado_102768" data-name="Trazado 102768" d="M2466.624,807.029c0,.9-.333,1.393-.918,1.393-.515,0-.865-.483-.873-1.356s.383-1.374.918-1.374C2466.307,805.692,2466.624,806.189,2466.624,807.029Zm-1.433.04c0,.687.211,1.077.536,1.077.365,0,.541-.427.541-1.1,0-.649-.167-1.076-.537-1.076C2465.417,805.97,2465.19,806.351,2465.19,807.069Z" transform="translate(-2462.732 -805.692)" fill="#9ac7f7"/>
              </g>
              <g id="Grupo_88161" data-name="Grupo 88161" transform="translate(16.262 86.55)">
                <path id="Trazado_102769" data-name="Trazado 102769" d="M2484.477,915.578h-.007l-.4.218-.062-.239.506-.271h.267V917.6h-.3Z" transform="translate(-2484.006 -915.286)" fill="#9ac7f7"/>
              </g>
              <g id="Grupo_88162" data-name="Grupo 88162" transform="translate(37.112 86.511)">
                <path id="Trazado_102770" data-name="Trazado 102770" d="M2512.391,917.588V917.4l.246-.239c.592-.563.859-.862.862-1.211a.413.413,0,0,0-.46-.452.782.782,0,0,0-.491.2l-.1-.221a1.016,1.016,0,0,1,.656-.235.651.651,0,0,1,.709.673c0,.428-.308.773-.8,1.244l-.186.17v.007h1.042v.26Z" transform="translate(-2512.391 -915.233)" fill="#9ac7f7"/>
              </g>
              <g id="Grupo_88163" data-name="Grupo 88163" transform="translate(58.171 86.511)">
                <path id="Trazado_102771" data-name="Trazado 102771" d="M2541.146,917.228a1.045,1.045,0,0,0,.513.147c.4,0,.528-.258.525-.45,0-.323-.3-.462-.6-.462h-.174v-.235h.174c.229,0,.518-.118.518-.393,0-.185-.118-.35-.407-.35a.856.856,0,0,0-.463.154l-.081-.228a1.1,1.1,0,0,1,.6-.178c.456,0,.663.271.663.552a.576.576,0,0,1-.427.546v.007a.6.6,0,0,1,.516.594c0,.372-.288.7-.845.7a1.175,1.175,0,0,1-.6-.157Z" transform="translate(-2541.061 -915.233)" fill="#9ac7f7"/>
              </g>
              <g id="Grupo_88164" data-name="Grupo 88164" transform="translate(79.139 86.55)">
                <path id="Trazado_102772" data-name="Trazado 102772" d="M2570.683,917.6v-.63h-1.075v-.207l1.033-1.479h.338v1.44h.325v.247h-.325v.63Zm0-.876v-.774c0-.12,0-.241.011-.363h-.011c-.071.135-.128.236-.192.342l-.566.787v.007Z" transform="translate(-2569.608 -915.286)" fill="#9ac7f7"/>
              </g>
              <g id="Grupo_88165" data-name="Grupo 88165" transform="translate(100.3 86.55)">
                <path id="Trazado_102773" data-name="Trazado 102773" d="M2599.809,915.55h-.883l-.09.595a1.337,1.337,0,0,1,.19-.014.984.984,0,0,1,.5.124.661.661,0,0,1,.331.6.8.8,0,0,1-.863.791,1.134,1.134,0,0,1-.577-.142l.079-.239a1.033,1.033,0,0,0,.5.129.512.512,0,0,0,.549-.5c0-.3-.2-.514-.667-.514a2.316,2.316,0,0,0-.32.026l.15-1.112h1.107Z" transform="translate(-2598.416 -915.286)" fill="#9ac7f7"/>
              </g>
              <g id="Grupo_88166" data-name="Grupo 88166" transform="translate(6.169)">
                <rect id="Rectángulo_34711" data-name="Rectángulo 34711" width="106.456" height="83.717" fill="none" stroke="#9ac7f7" stroke-miterlimit="10" stroke-width="0.285"/>
                <line id="Línea_285" data-name="Línea 285" x2="106.456" transform="translate(0 69.764)" fill="none" stroke="#9ac7f7" stroke-miterlimit="10" stroke-width="0.285"/>
                <line id="Línea_286" data-name="Línea 286" x2="106.456" transform="translate(0 55.81)" fill="none" stroke="#9ac7f7" stroke-miterlimit="10" stroke-width="0.285"/>
                <line id="Línea_287" data-name="Línea 287" x2="106.456" transform="translate(0 41.858)" fill="none" stroke="#9ac7f7" stroke-miterlimit="10" stroke-width="0.285"/>
                <line id="Línea_288" data-name="Línea 288" x2="106.456" transform="translate(0 27.906)" fill="none" stroke="#9ac7f7" stroke-miterlimit="10" stroke-width="0.285"/>
                <line id="Línea_289" data-name="Línea 289" x2="106.456" transform="translate(0 13.954)" fill="none" stroke="#9ac7f7" stroke-miterlimit="10" stroke-width="0.285"/>
                <line id="Línea_290" data-name="Línea 290" y2="83.717" transform="translate(85.167)" fill="none" stroke="#9ac7f7" stroke-miterlimit="10" stroke-width="0.285"/>
                <line id="Línea_291" data-name="Línea 291" y2="83.717" transform="translate(63.875)" fill="none" stroke="#9ac7f7" stroke-miterlimit="10" stroke-width="0.285"/>
                <line id="Línea_292" data-name="Línea 292" y2="83.717" transform="translate(42.583)" fill="none" stroke="#9ac7f7" stroke-miterlimit="10" stroke-width="0.285"/>
                <line id="Línea_293" data-name="Línea 293" y2="83.717" transform="translate(21.29)" fill="none" stroke="#9ac7f7" stroke-miterlimit="10" stroke-width="0.285"/>
              </g>
            </g>
            <g id="Grupo_88170" data-name="Grupo 88170" transform="translate(14.264 3.295)">
              <rect id="Rectángulo_34712" data-name="Rectángulo 34712" width="5.101" height="35.616" transform="translate(0 44.806)" fill="#fd2227"/>
              <rect id="Rectángulo_34713" data-name="Rectángulo 34713" width="5.101" height="35.616" transform="translate(21.271 44.806)" fill="#70c1fb"/>
              <rect id="Rectángulo_34714" data-name="Rectángulo 34714" width="5.101" height="35.616" transform="translate(42.543 44.806)" fill="#c5e1f9"/>
              <rect id="Rectángulo_34715" data-name="Rectángulo 34715" width="5.104" height="35.616" transform="translate(63.812 44.806)" fill="#fd2227"/>
              <rect id="Rectángulo_34716" data-name="Rectángulo 34716" width="5.102" height="35.616" transform="translate(85.087 44.806)" fill="#0561fc"/>
              <rect id="Rectángulo_34717" data-name="Rectángulo 34717" width="5.101" height="6.242" transform="translate(0 38.564)" fill="#fd2227"/>
              <rect id="Rectángulo_34718" data-name="Rectángulo 34718" width="5.101" height="27.46" transform="translate(21.271 17.346)" fill="#70c1fb"/>
              <rect id="Rectángulo_34719" data-name="Rectángulo 34719" width="5.104" height="24.145" transform="translate(63.812 20.661)" fill="#fd2227"/>
              <rect id="Rectángulo_34720" data-name="Rectángulo 34720" width="5.102" height="44.806" transform="translate(85.087)" fill="#0561fc"/>
              <path id="Trazado_102774" data-name="Trazado 102774" d="M2499.708,833.374a5.739,5.739,0,1,1-5.738-5.739A5.738,5.738,0,0,1,2499.708,833.374Z" transform="translate(-2483.13 -808.762)" fill="#00046d"/>
              <g id="Grupo_88168" data-name="Grupo 88168" transform="translate(8.041 22.635)">
                <path id="Trazado_102775" data-name="Trazado 102775" d="M2493.924,836.394V835.4h-1.69v-.324l1.624-2.323h.531v2.262h.509v.385h-.509v.991Zm0-1.376V833.8c0-.191.006-.381.017-.571h-.017c-.112.214-.2.369-.3.537l-.89,1.237v.012Z" transform="translate(-2492.234 -832.757)" fill="#ecf6f8"/>
                <path id="Trazado_102776" data-name="Trazado 102776" d="M2498.546,833.172h-1.387l-.14.934a1.979,1.979,0,0,1,.3-.022,1.544,1.544,0,0,1,.784.195,1.04,1.04,0,0,1,.52.934,1.262,1.262,0,0,1-1.354,1.242,1.78,1.78,0,0,1-.906-.223l.123-.375a1.617,1.617,0,0,0,.778.2.8.8,0,0,0,.862-.788c-.006-.47-.319-.806-1.046-.806a3.773,3.773,0,0,0-.5.039l.235-1.746h1.74Z" transform="translate(-2493.329 -832.757)" fill="#ecf6f8"/>
              </g>
              <line id="Línea_294" data-name="Línea 294" x2="4.693" transform="translate(16.578 24.612)" fill="none" stroke="#00046d" stroke-miterlimit="10" stroke-width="0.694"/>
              <path id="Trazado_102777" data-name="Trazado 102777" d="M2586.691,814.378a5.74,5.74,0,1,1-5.742-5.741A5.741,5.741,0,0,1,2586.691,814.378Z" transform="translate(-2506.221 -803.719)" fill="#00046d"/>
              <g id="Grupo_88169" data-name="Grupo 88169" transform="translate(72.083 8.619)">
                <path id="Trazado_102778" data-name="Trazado 102778" d="M2581.608,814.173h-1.388l-.14.934a1.96,1.96,0,0,1,.3-.022,1.545,1.545,0,0,1,.784.195,1.04,1.04,0,0,1,.52.934,1.261,1.261,0,0,1-1.354,1.242,1.778,1.778,0,0,1-.906-.223l.122-.375a1.63,1.63,0,0,0,.778.2.8.8,0,0,0,.862-.789c-.006-.469-.319-.806-1.046-.806a3.619,3.619,0,0,0-.5.04l.236-1.746h1.74Z" transform="translate(-2579.421 -813.697)" fill="#ecf6f8"/>
                <path id="Trazado_102779" data-name="Trazado 102779" d="M2583.3,816.45a1.038,1.038,0,0,1,.72-.973l0-.016a.9.9,0,0,1-.577-.817,1.019,1.019,0,0,1,1.125-.969.939.939,0,0,1,1.057.9.924.924,0,0,1-.6.851v.016a1.009,1.009,0,0,1,.733.94,1.121,1.121,0,0,1-1.238,1.057C2583.758,817.434,2583.3,816.982,2583.3,816.45Zm1.958-.022c0-.443-.308-.655-.8-.795a.792.792,0,0,0-.655.749.674.674,0,0,0,.729.694A.658.658,0,0,0,2585.258,816.428Zm-1.354-1.819c0,.364.273.559.693.672a.719.719,0,0,0,.555-.661.565.565,0,0,0-.616-.592A.578.578,0,0,0,2583.9,814.609Z" transform="translate(-2580.451 -813.675)" fill="#ecf6f8"/>
              </g>
              <line id="Línea_295" data-name="Línea 295" x2="4.69" transform="translate(80.47 10.659)" fill="none" stroke="#00046d" stroke-miterlimit="10" stroke-width="1.176"/>
            </g>
          </g>
        </g>
        <g id="Grupo_88178" data-name="Grupo 88178" transform="translate(258.657 130.531)">
          <path id="Trazado_102780" data-name="Trazado 102780" d="M2608.767,1040.921c0,1.048.236,2.487-.577,2.487H2523.9c-.814,0-.575-1.439-.575-2.487V948.849c0-1.05-.239-1.559.575-1.559h84.287c.813,0,.577.509.577,1.559Z" transform="translate(-2523.296 -947.29)" fill="#eaf4fe"/>
          <g id="Grupo_88177" data-name="Grupo 88177" transform="translate(9.957 6.701)">
            <g id="Grupo_88175" data-name="Grupo 88175">
              <g id="Grupo_88173" data-name="Grupo 88173" transform="translate(0 5.738)">
                <rect id="Rectángulo_34721" data-name="Rectángulo 34721" width="65.454" height="2.692" fill="#c5e1f9"/>
              </g>
              <g id="Grupo_88174" data-name="Grupo 88174">
                <rect id="Rectángulo_34722" data-name="Rectángulo 34722" width="21.207" height="2.691" fill="#c5e1f9"/>
              </g>
            </g>
            <g id="Grupo_88176" data-name="Grupo 88176" transform="translate(1.269 18.829)">
              <rect id="Rectángulo_34723" data-name="Rectángulo 34723" width="3.496" height="3.495" fill="#eaf4fe"/>
              <rect id="Rectángulo_34724" data-name="Rectángulo 34724" width="3.494" height="3.495" transform="translate(9.903)" fill="#eaf4fe"/>
              <rect id="Rectángulo_34725" data-name="Rectángulo 34725" width="3.495" height="3.495" transform="translate(19.808)" fill="#eaf4fe"/>
              <rect id="Rectángulo_34726" data-name="Rectángulo 34726" width="3.495" height="3.495" transform="translate(29.711)" fill="#70c1fb"/>
              <rect id="Rectángulo_34727" data-name="Rectángulo 34727" width="3.494" height="3.495" transform="translate(39.616)" fill="#70c1fb"/>
              <rect id="Rectángulo_34728" data-name="Rectángulo 34728" width="3.495" height="3.495" transform="translate(49.52)" fill="#c5e1f9"/>
              <rect id="Rectángulo_34729" data-name="Rectángulo 34729" width="3.495" height="3.495" transform="translate(59.424)" fill="#c5e1f9"/>
              <rect id="Rectángulo_34730" data-name="Rectángulo 34730" width="3.496" height="3.495" transform="translate(0 8.738)" fill="#70c1fb"/>
              <rect id="Rectángulo_34731" data-name="Rectángulo 34731" width="3.494" height="3.495" transform="translate(9.903 8.738)" fill="#70c1fb"/>
              <rect id="Rectángulo_34732" data-name="Rectángulo 34732" width="3.495" height="3.495" transform="translate(19.808 8.738)" fill="#70c1fb"/>
              <rect id="Rectángulo_34733" data-name="Rectángulo 34733" width="3.495" height="3.495" transform="translate(29.711 8.738)" fill="#70c1fb"/>
              <rect id="Rectángulo_34734" data-name="Rectángulo 34734" width="3.494" height="3.495" transform="translate(39.616 8.738)" fill="#70c1fb"/>
              <rect id="Rectángulo_34735" data-name="Rectángulo 34735" width="3.495" height="3.495" transform="translate(49.52 8.738)" fill="#c5e1f9"/>
              <rect id="Rectángulo_34736" data-name="Rectángulo 34736" width="3.495" height="3.495" transform="translate(59.424 8.738)" fill="#c5e1f9"/>
              <rect id="Rectángulo_34737" data-name="Rectángulo 34737" width="3.496" height="3.494" transform="translate(0 17.478)" fill="#70c1fb"/>
              <rect id="Rectángulo_34738" data-name="Rectángulo 34738" width="3.494" height="3.494" transform="translate(9.903 17.478)" fill="#70c1fb"/>
              <rect id="Rectángulo_34739" data-name="Rectángulo 34739" width="3.495" height="3.494" transform="translate(19.808 17.478)" fill="#fd2227"/>
              <rect id="Rectángulo_34740" data-name="Rectángulo 34740" width="3.495" height="3.494" transform="translate(29.711 17.478)" fill="#fd2227"/>
              <rect id="Rectángulo_34741" data-name="Rectángulo 34741" width="3.494" height="3.494" transform="translate(39.616 17.478)" fill="#70c1fb"/>
              <rect id="Rectángulo_34742" data-name="Rectángulo 34742" width="3.495" height="3.494" transform="translate(49.52 17.478)" fill="#c5e1f9"/>
              <rect id="Rectángulo_34743" data-name="Rectángulo 34743" width="3.495" height="3.494" transform="translate(59.424 17.478)" fill="#c5e1f9"/>
              <rect id="Rectángulo_34744" data-name="Rectángulo 34744" width="3.496" height="3.494" transform="translate(0 26.215)" fill="#0561fc"/>
              <rect id="Rectángulo_34745" data-name="Rectángulo 34745" width="3.494" height="3.494" transform="translate(9.903 26.215)" fill="#70c1fb"/>
              <rect id="Rectángulo_34746" data-name="Rectángulo 34746" width="3.495" height="3.494" transform="translate(19.808 26.215)" fill="#70c1fb"/>
              <rect id="Rectángulo_34747" data-name="Rectángulo 34747" width="3.495" height="3.494" transform="translate(29.711 26.215)" fill="#70c1fb"/>
              <rect id="Rectángulo_34748" data-name="Rectángulo 34748" width="3.494" height="3.494" transform="translate(39.616 26.215)" fill="#70c1fb"/>
              <rect id="Rectángulo_34749" data-name="Rectángulo 34749" width="3.495" height="3.494" transform="translate(49.52 26.215)" fill="#c5e1f9"/>
              <rect id="Rectángulo_34750" data-name="Rectángulo 34750" width="3.495" height="3.494" transform="translate(59.424 26.215)" fill="#c5e1f9"/>
              <rect id="Rectángulo_34751" data-name="Rectángulo 34751" width="3.496" height="3.499" transform="translate(0 34.952)" fill="#70c1fb"/>
              <rect id="Rectángulo_34752" data-name="Rectángulo 34752" width="3.494" height="3.499" transform="translate(9.903 34.952)" fill="#70c1fb"/>
              <rect id="Rectángulo_34753" data-name="Rectángulo 34753" width="3.495" height="3.499" transform="translate(19.808 34.952)" fill="#70c1fb"/>
              <rect id="Rectángulo_34754" data-name="Rectángulo 34754" width="3.495" height="3.499" transform="translate(29.711 34.952)" fill="#70c1fb"/>
              <rect id="Rectángulo_34755" data-name="Rectángulo 34755" width="3.494" height="3.499" transform="translate(39.616 34.952)" fill="#70c1fb"/>
              <rect id="Rectángulo_34756" data-name="Rectángulo 34756" width="3.495" height="3.499" transform="translate(49.52 34.952)" fill="#c5e1f9"/>
              <rect id="Rectángulo_34757" data-name="Rectángulo 34757" width="3.495" height="3.499" transform="translate(59.424 34.952)" fill="#c5e1f9"/>
              <rect id="Rectángulo_34758" data-name="Rectángulo 34758" width="3.496" height="3.494" transform="translate(0 43.694)" fill="#70c1fb"/>
              <rect id="Rectángulo_34759" data-name="Rectángulo 34759" width="3.494" height="3.494" transform="translate(9.903 43.694)" fill="#70c1fb"/>
              <rect id="Rectángulo_34760" data-name="Rectángulo 34760" width="3.495" height="3.494" transform="translate(19.808 43.694)" fill="#70c1fb"/>
              <rect id="Rectángulo_34761" data-name="Rectángulo 34761" width="3.495" height="3.494" transform="translate(29.711 43.694)" fill="#70c1fb"/>
              <rect id="Rectángulo_34762" data-name="Rectángulo 34762" width="3.494" height="3.494" transform="translate(39.616 43.694)" fill="#70c1fb"/>
              <rect id="Rectángulo_34763" data-name="Rectángulo 34763" width="3.495" height="3.494" transform="translate(49.52 43.694)" fill="#eaf4fe"/>
              <rect id="Rectángulo_34764" data-name="Rectángulo 34764" width="3.495" height="3.494" transform="translate(59.424 43.694)" fill="#eaf4fe"/>
            </g>
          </g>
        </g>
      </g>
    </g>
  </g>
</svg>
