<svg xmlns="http://www.w3.org/2000/svg" width="375.575" height="375.576" viewBox="0 0 375.575 375.576">
  <g id="Grupo_88432" data-name="Grupo 88432" transform="translate(-329.425 -1815.922)">
    <rect id="Rectángulo_34649" data-name="Rectángulo 34649" width="265.572" height="265.572" rx="28" transform="translate(329.425 2003.71) rotate(-45)" fill="#636363" opacity="0.5"/>
    <g id="Grupo_88122" data-name="Grupo 88122" transform="translate(-2302.573 -77.367)">
      <g id="Grupo_88110" data-name="Grupo 88110" transform="translate(2710.785 1929.778)">
        <rect id="Rectángulo_34625" data-name="Rectángulo 34625" width="141.754" height="165.006" fill="#f7f8fc"/>
        <g id="Grupo_88093" data-name="Grupo 88093" transform="translate(21.141 17.754)">
          <rect id="Rectángulo_34626" data-name="Rectángulo 34626" width="66.047" height="2.716" fill="#9ac7f7"/>
        </g>
        <g id="Grupo_88094" data-name="Grupo 88094" transform="translate(21.141 11.962)">
          <rect id="Rectángulo_34627" data-name="Rectángulo 34627" width="21.396" height="2.718" fill="#9ac7f7"/>
        </g>
        <g id="Grupo_88109" data-name="Grupo 88109" transform="translate(12.217 26.149)">
          <g id="Grupo_88108" data-name="Grupo 88108">
            <g id="Grupo_88106" data-name="Grupo 88106">
              <g id="Grupo_88095" data-name="Grupo 88095" transform="translate(11.504)">
                <rect id="Rectángulo_34628" data-name="Rectángulo 34628" width="103.133" height="116.918" fill="none" stroke="#bac2c6" stroke-miterlimit="10" stroke-width="0.192"/>
                <line id="Línea_236" data-name="Línea 236" x2="103.133" transform="translate(0 100.215)" fill="none" stroke="#bac2c6" stroke-miterlimit="10" stroke-width="0.192"/>
                <line id="Línea_237" data-name="Línea 237" x2="103.133" transform="translate(0 83.513)" fill="none" stroke="#bac2c6" stroke-miterlimit="10" stroke-width="0.192"/>
                <line id="Línea_238" data-name="Línea 238" x2="103.133" transform="translate(0 66.809)" fill="none" stroke="#bac2c6" stroke-miterlimit="10" stroke-width="0.192"/>
                <line id="Línea_239" data-name="Línea 239" x2="103.133" transform="translate(0 50.108)" fill="none" stroke="#bac2c6" stroke-miterlimit="10" stroke-width="0.192"/>
                <line id="Línea_240" data-name="Línea 240" x2="103.133" transform="translate(0 33.405)" fill="none" stroke="#bac2c6" stroke-miterlimit="10" stroke-width="0.192"/>
                <line id="Línea_241" data-name="Línea 241" x2="103.133" transform="translate(0 16.703)" fill="none" stroke="#bac2c6" stroke-miterlimit="10" stroke-width="0.192"/>
                <line id="Línea_242" data-name="Línea 242" y2="116.918" transform="translate(68.757)" fill="none" stroke="#bac2c6" stroke-miterlimit="10" stroke-width="0.192"/>
                <line id="Línea_243" data-name="Línea 243" y2="116.918" transform="translate(34.377)" fill="none" stroke="#bac2c6" stroke-miterlimit="10" stroke-width="0.192"/>
              </g>
              <line id="Línea_244" data-name="Línea 244" x1="5.334" y2="5.334" transform="translate(6.17)" fill="none" stroke="#bac2c6" stroke-miterlimit="10" stroke-width="0.192"/>
              <line id="Línea_245" data-name="Línea 245" x1="5.334" y2="5.332" transform="translate(6.17 16.703)" fill="none" stroke="#bac2c6" stroke-miterlimit="10" stroke-width="0.192"/>
              <line id="Línea_246" data-name="Línea 246" x1="5.334" y2="5.334" transform="translate(6.17 33.405)" fill="none" stroke="#bac2c6" stroke-miterlimit="10" stroke-width="0.192"/>
              <line id="Línea_247" data-name="Línea 247" x1="5.334" y2="5.334" transform="translate(6.17 50.108)" fill="none" stroke="#bac2c6" stroke-miterlimit="10" stroke-width="0.192"/>
              <line id="Línea_248" data-name="Línea 248" x1="5.334" y2="5.335" transform="translate(6.17 66.809)" fill="none" stroke="#bac2c6" stroke-miterlimit="10" stroke-width="0.192"/>
              <line id="Línea_249" data-name="Línea 249" x1="5.334" y2="5.334" transform="translate(6.17 83.513)" fill="none" stroke="#bac2c6" stroke-miterlimit="10" stroke-width="0.192"/>
              <line id="Línea_250" data-name="Línea 250" x1="5.334" y2="5.334" transform="translate(6.17 100.215)" fill="none" stroke="#bac2c6" stroke-miterlimit="10" stroke-width="0.192"/>
              <g id="Grupo_88096" data-name="Grupo 88096" transform="translate(0.266 105.302)">
                <path id="Trazado_102532" data-name="Trazado 102532" d="M2731.414,2136.971h-.423v-2.808l-.85.313v-.383l1.207-.453h.066Z" transform="translate(-2730.141 -2133.61)" fill="#bac2c6"/>
                <path id="Trazado_102533" data-name="Trazado 102533" d="M2736.1,2135.541a1.924,1.924,0,0,1-.253,1.1,1.05,1.05,0,0,1-1.575.008,1.827,1.827,0,0,1-.265-1.051v-.562a1.888,1.888,0,0,1,.253-1.086,1.07,1.07,0,0,1,1.581-.014,1.817,1.817,0,0,1,.259,1.058Zm-.421-.576a1.541,1.541,0,0,0-.15-.78.582.582,0,0,0-.948,0,1.511,1.511,0,0,0-.151.749v.675a1.566,1.566,0,0,0,.156.793.565.565,0,0,0,.936.015,1.507,1.507,0,0,0,.158-.761Z" transform="translate(-2731.514 -2133.594)" fill="#bac2c6"/>
              </g>
              <g id="Grupo_88097" data-name="Grupo 88097" transform="translate(0.091 88.72)">
                <path id="Trazado_102534" data-name="Trazado 102534" d="M2732.105,2111.244h-2.173v-.3l1.147-1.276a2.726,2.726,0,0,0,.352-.47.777.777,0,0,0,.1-.375.6.6,0,0,0-.157-.426.55.55,0,0,0-.419-.167.654.654,0,0,0-.489.179.684.684,0,0,0-.174.5h-.421a.977.977,0,0,1,.3-.74,1.092,1.092,0,0,1,.789-.282,1.054,1.054,0,0,1,.731.242.829.829,0,0,1,.268.646,1.9,1.9,0,0,1-.624,1.166l-.888.963h1.664Z" transform="translate(-2729.869 -2107.883)" fill="#bac2c6"/>
                <path id="Trazado_102535" data-name="Trazado 102535" d="M2736.1,2109.829a1.923,1.923,0,0,1-.253,1.1,1.05,1.05,0,0,1-1.575.007,1.825,1.825,0,0,1-.265-1.051v-.562a1.888,1.888,0,0,1,.253-1.086.905.905,0,0,1,.793-.355.915.915,0,0,1,.788.342,1.816,1.816,0,0,1,.259,1.058Zm-.421-.576a1.541,1.541,0,0,0-.15-.779.581.581,0,0,0-.948,0,1.509,1.509,0,0,0-.151.749v.674a1.566,1.566,0,0,0,.156.794.565.565,0,0,0,.936.015,1.51,1.51,0,0,0,.158-.761Z" transform="translate(-2731.339 -2107.883)" fill="#bac2c6"/>
              </g>
              <g id="Grupo_88098" data-name="Grupo 88098" transform="translate(0.094 72.135)">
                <path id="Trazado_102536" data-name="Trazado 102536" d="M2730.547,2083.667h.316a.7.7,0,0,0,.469-.157.521.521,0,0,0,.17-.412.514.514,0,0,0-.58-.583.608.608,0,0,0-.437.156.547.547,0,0,0-.163.413h-.422a.847.847,0,0,1,.288-.654,1.187,1.187,0,0,1,1.468-.013.9.9,0,0,1,.267.69.733.733,0,0,1-.14.419.845.845,0,0,1-.382.3.812.812,0,0,1,.423.286.8.8,0,0,1,.148.49.905.905,0,0,1-.291.708,1.094,1.094,0,0,1-.759.262,1.119,1.119,0,0,1-.759-.252.837.837,0,0,1-.293-.668h.423a.541.541,0,0,0,.171.419.654.654,0,0,0,.458.157.637.637,0,0,0,.467-.159.615.615,0,0,0,.162-.457.56.56,0,0,0-.178-.445.777.777,0,0,0-.513-.159h-.316Z" transform="translate(-2729.873 -2082.168)" fill="#bac2c6"/>
                <path id="Trazado_102537" data-name="Trazado 102537" d="M2736.1,2084.115a1.924,1.924,0,0,1-.253,1.1,1.049,1.049,0,0,1-1.575.008,1.826,1.826,0,0,1-.265-1.051v-.562a1.888,1.888,0,0,1,.253-1.086,1.07,1.07,0,0,1,1.581-.013,1.815,1.815,0,0,1,.259,1.059Zm-.421-.576a1.546,1.546,0,0,0-.15-.78.581.581,0,0,0-.948,0,1.51,1.51,0,0,0-.151.75v.674a1.562,1.562,0,0,0,.156.793.565.565,0,0,0,.936.015,1.512,1.512,0,0,0,.158-.762Z" transform="translate(-2731.341 -2082.168)" fill="#bac2c6"/>
              </g>
              <g id="Grupo_88099" data-name="Grupo 88099" transform="translate(0 55.553)">
                <path id="Trazado_102538" data-name="Trazado 102538" d="M2731.662,2058.729h.46v.344h-.46v.77h-.423v-.77h-1.51v-.248l1.484-2.3h.45Zm-1.456,0h1.033V2057.1l-.051.092Z" transform="translate(-2729.728 -2056.482)" fill="#bac2c6"/>
                <path id="Trazado_102539" data-name="Trazado 102539" d="M2736.1,2058.4a1.923,1.923,0,0,1-.253,1.1,1.049,1.049,0,0,1-1.575.008,1.825,1.825,0,0,1-.265-1.051v-.562a1.889,1.889,0,0,1,.253-1.086,1.07,1.07,0,0,1,1.581-.013,1.813,1.813,0,0,1,.259,1.058Zm-.421-.576a1.543,1.543,0,0,0-.15-.78.581.581,0,0,0-.948,0,1.509,1.509,0,0,0-.151.749v.674a1.564,1.564,0,0,0,.156.793.565.565,0,0,0,.936.015,1.507,1.507,0,0,0,.158-.761Z" transform="translate(-2731.248 -2056.457)" fill="#bac2c6"/>
              </g>
              <g id="Grupo_88100" data-name="Grupo 88100" transform="translate(0.23 38.967)">
                <path id="Trazado_102540" data-name="Trazado 102540" d="M2730.2,2032.465l.168-1.654h1.7v.39h-1.342l-.1.9a1.074,1.074,0,0,1,.553-.144.918.918,0,0,1,.72.3,1.176,1.176,0,0,1,.266.809,1.127,1.127,0,0,1-.276.807,1,1,0,0,1-.773.3,1.046,1.046,0,0,1-.717-.244.975.975,0,0,1-.317-.674h.4a.676.676,0,0,0,.2.43.635.635,0,0,0,.433.144.57.57,0,0,0,.461-.2.844.844,0,0,0,.167-.553.767.767,0,0,0-.181-.534.616.616,0,0,0-.482-.2.7.7,0,0,0-.433.121l-.111.091Z" transform="translate(-2730.085 -2030.766)" fill="#bac2c6"/>
                <path id="Trazado_102541" data-name="Trazado 102541" d="M2736.1,2032.688a1.923,1.923,0,0,1-.253,1.1,1.049,1.049,0,0,1-1.575.008,1.829,1.829,0,0,1-.265-1.051v-.562a1.888,1.888,0,0,1,.253-1.086,1.07,1.07,0,0,1,1.581-.013,1.813,1.813,0,0,1,.259,1.058Zm-.421-.576a1.544,1.544,0,0,0-.15-.78.581.581,0,0,0-.948,0,1.507,1.507,0,0,0-.151.749v.675a1.566,1.566,0,0,0,.156.793.565.565,0,0,0,.936.015,1.507,1.507,0,0,0,.158-.761Z" transform="translate(-2731.478 -2030.741)" fill="#bac2c6"/>
              </g>
              <g id="Grupo_88101" data-name="Grupo 88101" transform="translate(0.179 22.383)">
                <path id="Trazado_102542" data-name="Trazado 102542" d="M2731.635,2005.093v.357h-.077a1.113,1.113,0,0,0-.784.292,1.213,1.213,0,0,0-.337.795.9.9,0,0,1,.715-.3.858.858,0,0,1,.691.3,1.339,1.339,0,0,1-.02,1.608.963.963,0,0,1-.749.307.949.949,0,0,1-.772-.365,1.452,1.452,0,0,1-.3-.942v-.162a2.182,2.182,0,0,1,.391-1.4,1.433,1.433,0,0,1,1.163-.5Zm-.553,1.494a.706.706,0,0,0-.651.455v.155a1.091,1.091,0,0,0,.184.66.554.554,0,0,0,.46.251.534.534,0,0,0,.448-.21,1.008,1.008,0,0,0,0-1.1A.531.531,0,0,0,2731.082,2006.587Z" transform="translate(-2730.006 -2005.05)" fill="#bac2c6"/>
                <path id="Trazado_102543" data-name="Trazado 102543" d="M2736.1,2006.972a1.923,1.923,0,0,1-.253,1.1,1.049,1.049,0,0,1-1.575.008,1.825,1.825,0,0,1-.265-1.051v-.562a1.891,1.891,0,0,1,.253-1.087,1.07,1.07,0,0,1,1.581-.013,1.816,1.816,0,0,1,.259,1.058Zm-.421-.576a1.541,1.541,0,0,0-.15-.779.581.581,0,0,0-.948,0,1.509,1.509,0,0,0-.151.749v.674a1.561,1.561,0,0,0,.156.793.564.564,0,0,0,.936.015,1.511,1.511,0,0,0,.158-.762Z" transform="translate(-2731.427 -2005.026)" fill="#bac2c6"/>
              </g>
              <g id="Grupo_88102" data-name="Grupo 88102" transform="translate(0.055 5.798)">
                <path id="Trazado_102544" data-name="Trazado 102544" d="M2732.053,1979.619l-1.373,3.079h-.443l1.37-2.969h-1.795v-.347h2.24Z" transform="translate(-2729.813 -1979.337)" fill="#bac2c6"/>
                <path id="Trazado_102545" data-name="Trazado 102545" d="M2736.1,1981.258a1.924,1.924,0,0,1-.253,1.1,1.049,1.049,0,0,1-1.575.008,1.829,1.829,0,0,1-.265-1.051v-.562a1.888,1.888,0,0,1,.253-1.086,1.07,1.07,0,0,1,1.581-.013,1.814,1.814,0,0,1,.259,1.058Zm-.421-.576a1.542,1.542,0,0,0-.15-.78.581.581,0,0,0-.948,0,1.507,1.507,0,0,0-.151.749v.675a1.563,1.563,0,0,0,.156.793.565.565,0,0,0,.936.015,1.508,1.508,0,0,0,.158-.761Z" transform="translate(-2731.302 -1979.312)" fill="#bac2c6"/>
              </g>
              <g id="Grupo_88103" data-name="Grupo 88103" transform="translate(21.456 119.728)">
                <path id="Trazado_102546" data-name="Trazado 102546" d="M2765.232,2159.323h-2.173v-.3l1.148-1.276a2.746,2.746,0,0,0,.352-.47.787.787,0,0,0,.1-.375.594.594,0,0,0-.157-.425.549.549,0,0,0-.419-.167.654.654,0,0,0-.489.179.685.685,0,0,0-.175.5H2763a.977.977,0,0,1,.295-.74,1.09,1.09,0,0,1,.789-.282,1.051,1.051,0,0,1,.731.242.828.828,0,0,1,.268.646,1.9,1.9,0,0,1-.623,1.166l-.889.963h1.665Z" transform="translate(-2762.996 -2155.961)" fill="#bac2c6"/>
                <path id="Trazado_102547" data-name="Trazado 102547" d="M2769.227,2157.907a1.923,1.923,0,0,1-.253,1.1,1.05,1.05,0,0,1-1.575.008,1.827,1.827,0,0,1-.265-1.051v-.562a1.883,1.883,0,0,1,.254-1.087,1.069,1.069,0,0,1,1.58-.013,1.81,1.81,0,0,1,.259,1.058Zm-.42-.576a1.541,1.541,0,0,0-.151-.779.517.517,0,0,0-.476-.246.511.511,0,0,0-.471.244,1.507,1.507,0,0,0-.152.75v.674a1.567,1.567,0,0,0,.156.793.515.515,0,0,0,.472.256.509.509,0,0,0,.464-.241,1.508,1.508,0,0,0,.159-.761Z" transform="translate(-2764.465 -2155.961)" fill="#bac2c6"/>
                <path id="Trazado_102548" data-name="Trazado 102548" d="M2772.661,2159.338h-.423v-2.808l-.849.312v-.383l1.207-.453h.065Z" transform="translate(-2765.976 -2155.977)" fill="#bac2c6"/>
                <path id="Trazado_102549" data-name="Trazado 102549" d="M2776.866,2157.864a1.026,1.026,0,0,1-.315.253.863.863,0,0,1-.4.1.888.888,0,0,1-.5-.141.933.933,0,0,1-.33-.4,1.358,1.358,0,0,1-.115-.566,1.383,1.383,0,0,1,.126-.6.923.923,0,0,1,.359-.408,1.018,1.018,0,0,1,.542-.141.929.929,0,0,1,.775.367,1.612,1.612,0,0,1,.283,1v.123a2.141,2.141,0,0,1-.382,1.413,1.47,1.47,0,0,1-1.155.457h-.082v-.357h.09a1,1,0,0,0,1.107-1.1Zm-.649,0a.652.652,0,0,0,.391-.129.776.776,0,0,0,.261-.322v-.168a1.162,1.162,0,0,0-.18-.674.55.55,0,0,0-.9-.048.883.883,0,0,0-.168.563.91.91,0,0,0,.163.559A.515.515,0,0,0,2776.217,2157.864Z" transform="translate(-2767.331 -2155.961)" fill="#bac2c6"/>
              </g>
              <g id="Grupo_88104" data-name="Grupo 88104" transform="translate(56.527 119.728)">
                <path id="Trazado_102550" data-name="Trazado 102550" d="M2819.609,2159.323h-2.173v-.3l1.148-1.276a2.763,2.763,0,0,0,.352-.47.786.786,0,0,0,.1-.375.593.593,0,0,0-.158-.425.548.548,0,0,0-.418-.167.653.653,0,0,0-.489.179.684.684,0,0,0-.174.5h-.421a.977.977,0,0,1,.295-.74,1.09,1.09,0,0,1,.789-.282,1.052,1.052,0,0,1,.731.242.827.827,0,0,1,.268.646,1.9,1.9,0,0,1-.624,1.166l-.888.963h1.665Z" transform="translate(-2817.373 -2155.961)" fill="#bac2c6"/>
                <path id="Trazado_102551" data-name="Trazado 102551" d="M2823.6,2157.907a1.922,1.922,0,0,1-.253,1.1,1.049,1.049,0,0,1-1.575.008,1.823,1.823,0,0,1-.265-1.051v-.562a1.889,1.889,0,0,1,.253-1.087,1.069,1.069,0,0,1,1.581-.013,1.814,1.814,0,0,1,.26,1.058Zm-.421-.576a1.544,1.544,0,0,0-.151-.779.581.581,0,0,0-.948,0,1.507,1.507,0,0,0-.152.75v.674a1.564,1.564,0,0,0,.156.793.564.564,0,0,0,.935.015,1.51,1.51,0,0,0,.159-.761Z" transform="translate(-2818.842 -2155.961)" fill="#bac2c6"/>
                <path id="Trazado_102552" data-name="Trazado 102552" d="M2827.73,2159.323h-2.172v-.3l1.147-1.276a2.694,2.694,0,0,0,.352-.47.784.784,0,0,0,.1-.375.6.6,0,0,0-.157-.425.55.55,0,0,0-.419-.167.654.654,0,0,0-.489.179.684.684,0,0,0-.174.5h-.421a.977.977,0,0,1,.295-.74,1.09,1.09,0,0,1,.79-.282,1.053,1.053,0,0,1,.731.242.828.828,0,0,1,.268.646,1.9,1.9,0,0,1-.623,1.166l-.889.963h1.665Z" transform="translate(-2820.256 -2155.961)" fill="#bac2c6"/>
                <path id="Trazado_102553" data-name="Trazado 102553" d="M2831.726,2157.907a1.926,1.926,0,0,1-.253,1.1,1.05,1.05,0,0,1-1.576.008,1.825,1.825,0,0,1-.265-1.051v-.562a1.883,1.883,0,0,1,.253-1.087,1.069,1.069,0,0,1,1.58-.013,1.817,1.817,0,0,1,.26,1.058Zm-.421-.576a1.541,1.541,0,0,0-.151-.779.58.58,0,0,0-.947,0,1.5,1.5,0,0,0-.152.75v.674a1.562,1.562,0,0,0,.156.793.565.565,0,0,0,.936.015,1.514,1.514,0,0,0,.158-.761Z" transform="translate(-2821.726 -2155.961)" fill="#bac2c6"/>
              </g>
              <g id="Grupo_88105" data-name="Grupo 88105" transform="translate(91.597 119.728)">
                <path id="Trazado_102554" data-name="Trazado 102554" d="M2873.986,2159.323h-2.173v-.3l1.148-1.276a2.711,2.711,0,0,0,.352-.47.789.789,0,0,0,.1-.375.594.594,0,0,0-.157-.425.549.549,0,0,0-.419-.167.652.652,0,0,0-.489.179.684.684,0,0,0-.175.5h-.42a.978.978,0,0,1,.295-.74,1.09,1.09,0,0,1,.789-.282,1.051,1.051,0,0,1,.731.242.828.828,0,0,1,.268.646,1.9,1.9,0,0,1-.624,1.166l-.888.963h1.665Z" transform="translate(-2871.75 -2155.961)" fill="#bac2c6"/>
                <path id="Trazado_102555" data-name="Trazado 102555" d="M2877.981,2157.907a1.922,1.922,0,0,1-.253,1.1,1.049,1.049,0,0,1-1.575.008,1.825,1.825,0,0,1-.265-1.051v-.562a1.891,1.891,0,0,1,.253-1.087,1.07,1.07,0,0,1,1.581-.013,1.812,1.812,0,0,1,.259,1.058Zm-.421-.576a1.544,1.544,0,0,0-.151-.779.581.581,0,0,0-.948,0,1.5,1.5,0,0,0-.152.75v.674a1.564,1.564,0,0,0,.156.793.565.565,0,0,0,.936.015,1.508,1.508,0,0,0,.158-.761Z" transform="translate(-2873.219 -2155.961)" fill="#bac2c6"/>
                <path id="Trazado_102556" data-name="Trazado 102556" d="M2882.108,2159.323h-2.173v-.3l1.147-1.276a2.707,2.707,0,0,0,.352-.47.787.787,0,0,0,.1-.375.594.594,0,0,0-.157-.425.547.547,0,0,0-.419-.167.654.654,0,0,0-.489.179.683.683,0,0,0-.174.5h-.421a.977.977,0,0,1,.295-.74,1.09,1.09,0,0,1,.789-.282,1.051,1.051,0,0,1,.731.242.826.826,0,0,1,.268.646,1.9,1.9,0,0,1-.623,1.166l-.888.963h1.665Z" transform="translate(-2874.633 -2155.961)" fill="#bac2c6"/>
                <path id="Trazado_102557" data-name="Trazado 102557" d="M2885.478,2159.338h-.423v-2.808l-.849.312v-.383l1.207-.453h.066Z" transform="translate(-2876.172 -2155.977)" fill="#bac2c6"/>
              </g>
              <rect id="Rectángulo_34629" data-name="Rectángulo 34629" width="103.133" height="16.701" transform="translate(11.504 16.703)" fill="#fff" opacity="0.34"/>
              <rect id="Rectángulo_34630" data-name="Rectángulo 34630" width="103.133" height="16.702" transform="translate(11.504 50.108)" fill="#fff" opacity="0.34"/>
              <rect id="Rectángulo_34631" data-name="Rectángulo 34631" width="103.133" height="16.702" transform="translate(11.504 83.513)" fill="#fff" opacity="0.34"/>
            </g>
            <g id="Grupo_88107" data-name="Grupo 88107" transform="translate(11.504 16.703)">
              <rect id="Rectángulo_34632" data-name="Rectángulo 34632" width="46.347" height="2.666" fill="#c5e1f9"/>
              <rect id="Rectángulo_34633" data-name="Rectángulo 34633" width="79.612" height="2.668" transform="translate(0 7.016)" fill="#7eb3ff"/>
              <rect id="Rectángulo_34634" data-name="Rectángulo 34634" width="28.375" height="2.666" transform="translate(0 14.035)" fill="#eaf4fe"/>
              <rect id="Rectángulo_34635" data-name="Rectángulo 34635" width="83.659" height="2.666" transform="translate(0 33.404)" fill="#c5e1f9"/>
              <rect id="Rectángulo_34636" data-name="Rectángulo 34636" width="34.377" height="2.667" transform="translate(0 40.423)" fill="#7eb3ff"/>
              <rect id="Rectángulo_34637" data-name="Rectángulo 34637" width="68.756" height="2.666" transform="translate(0 47.44)" fill="#eaf4fe"/>
              <rect id="Rectángulo_34638" data-name="Rectángulo 34638" width="34.377" height="2.668" transform="translate(0 67.025)" fill="#c5e1f9"/>
              <rect id="Rectángulo_34639" data-name="Rectángulo 34639" width="68.756" height="2.667" transform="translate(0 74.043)" fill="#7eb3ff"/>
              <rect id="Rectángulo_34640" data-name="Rectángulo 34640" width="56.749" height="2.666" transform="translate(0 81.062)" fill="#eaf4fe"/>
            </g>
          </g>
        </g>
      </g>
      <g id="Grupo_88119" data-name="Grupo 88119" transform="translate(2716.991 1989.723)">
        <g id="Grupo_88112" data-name="Grupo 88112">
          <g id="Grupo_88111" data-name="Grupo 88111">
            <path id="Trazado_102558" data-name="Trazado 102558" d="M2809.742,2082.918s-7.469,3.107,1.673,25.57,13.837,19.524,13.837,19.524l6.056-.827,10.592-14.735-6.74-5.457-1.233.569a3.348,3.348,0,0,1-1.993-2.192c-.31-1.558-3.765-7.992-7.031-21.261C2823.4,2077.988,2811.175,2082.311,2809.742,2082.918Z" transform="translate(-2751.105 -2043.368)" fill="#d1dbea"/>
            <path id="Trazado_102559" data-name="Trazado 102559" d="M2851.458,2130.345s12.737,6.96,20.48,7.82c5.187.576-5.526,6.359-16.183,7.51s-14.789.679-17.09-3.07S2851.458,2130.345,2851.458,2130.345Z" transform="translate(-2762.31 -2060.934)" fill="#ec9568"/>
            <path id="Trazado_102560" data-name="Trazado 102560" d="M2836.508,2123.4l3.646-2.708,1.52-.993a3.6,3.6,0,0,0,1.816,1.649l-3.1,1.478-3.318,2.442-3.267,4.611Z" transform="translate(-2760.669 -2057.156)" fill="#b0bfde"/>
            <path id="Trazado_102561" data-name="Trazado 102561" d="M2807.074,2132.767l-28.257-.612-11.749-39.337s-7.621-23.786,6.985-24.093,31.436-.3,31.436-.3S2815.327,2076.959,2807.074,2132.767Z" transform="translate(-2736.269 -2038.948)" fill="#d1dbea"/>
            <path id="Trazado_102562" data-name="Trazado 102562" d="M2812.673,2027.625s1.994,20.191-2.559,22.562c-.2.1-3.443.24-5.14,1.766-1.6,1.44-1.668,3.062-2.232,3.7a16.225,16.225,0,0,1-1.253,1.93c-1.721,1.505-3.114-.418-4.086-.861-2.366-1.075-2.989,1.782-3.351.776-.251-.691-2.459-1.732-1.905-2.6,1.18-1.855,4.119-9.44,3.994-10.95-.362-4.426-5.142-12.6,2.584-17.576C2800.981,2024.918,2812.125,2026.325,2812.673,2027.625Z" transform="translate(-2745.847 -2023.799)" fill="#f7b68b"/>
            <path id="Trazado_102563" data-name="Trazado 102563" d="M2805.86,2076.988s12.8,22.072,9.167,46.5c-.286,1.923-2.58,3.3-2.58,3.3l-3.151-2.753S2809.55,2096.391,2805.86,2076.988Z" transform="translate(-2750.748 -2041.99)" fill="#ca4f4e"/>
            <path id="Trazado_102564" data-name="Trazado 102564" d="M2799.825,2073.659l-.7,4.875-8.973-7.453,1.04-1.821Z" transform="translate(-2745.172 -2039.246)" fill="#b0bfde"/>
            <path id="Trazado_102565" data-name="Trazado 102565" d="M2808.088,2071.2l1.387,1.173.078,5.171-3.543-3.089Z" transform="translate(-2750.801 -2039.935)" fill="#b0bfde"/>
            <path id="Trazado_102566" data-name="Trazado 102566" d="M2812.852,2059.1s-.629-.346-1.762-1.1a11.359,11.359,0,0,0-2.1-1.157c-2.741-.847-2.666-.58-4.224-1.417a46.125,46.125,0,0,1-5.12-3.714s1.09,2.063,1.508,2.9a5.723,5.723,0,0,0,3.058,2.757c4.664,1.961,4.357,2.309,4.993,2.332A24.291,24.291,0,0,1,2812.852,2059.1Z" transform="translate(-2748.541 -2033.016)" fill="#ec9568"/>
            <path id="Trazado_102567" data-name="Trazado 102567" d="M2823.335,2041.47a40.569,40.569,0,0,0,1.527,4.2c.243.6.577,1.356.467,1.568a6.3,6.3,0,0,1-1,1.044c-.275.22-1.321,1.146-1.5-.4A45.044,45.044,0,0,1,2823.335,2041.47Z" transform="translate(-2756.763 -2029.379)" fill="#f7b68b"/>
            <path id="Trazado_102568" data-name="Trazado 102568" d="M2799.4,2024.43c3.749-2.934,11.287-2.135,16.422,2.787a3.553,3.553,0,0,1-1.994,2.17,9.284,9.284,0,0,0-7.859-3.32c-5.111.575-1.6,3.053-2.79,4.3-1,1.045-1.94,1.932-1.94,1.932l-.775,2.842-1.34.146s-.713-3.056-1.394-2.156c-.823,1.094-.462,3.385-.442,3.71s.064.867-.094.959a36.7,36.7,0,0,1-.148,4.8c-.629.008-1.406-.862-1.782-2.746C2794.421,2035.61,2794.83,2028.011,2799.4,2024.43Z" transform="translate(-2746.861 -2022.723)" fill="#163f59"/>
            <path id="Trazado_102569" data-name="Trazado 102569" d="M2798.518,2038.564a2.08,2.08,0,0,0-.186,4.156" transform="translate(-2747.37 -2028.347)" fill="#f7b68b"/>
            <path id="Trazado_102570" data-name="Trazado 102570" d="M2820.988,2050.019a21.347,21.347,0,0,1,2.68-.522c.249.065.869.147.884.393s-.365.873-1.573,1.543C2822.684,2051.593,2822.859,2050.979,2820.988,2050.019Z" transform="translate(-2756.119 -2032.227)" fill="#ec9568"/>
            <rect id="Rectángulo_34641" data-name="Rectángulo 34641" width="7.28" height="11.092" transform="translate(62.79 215.26)" fill="#593446"/>
            <rect id="Rectángulo_34642" data-name="Rectángulo 34642" width="5.89" height="11.092" transform="translate(11.148 215.26)" fill="#593446"/>
            <path id="Trazado_102571" data-name="Trazado 102571" d="M2818.036,2375.4h5.317v-1.617l2.309,1.617h13.4s-.233-2.194-9.243-2.54c-2.313-.089-3.93-3.237-3.93-3.237s-1.152-1.038-2.888,1.386c-.449.632-5.314-.577-5.314-.577S2817.23,2373.662,2818.036,2375.4Z" transform="translate(-2754.902 -2145.81)" fill="#081832"/>
            <path id="Trazado_102572" data-name="Trazado 102572" d="M2817.338,2166.769l.632,60.076-12.7,7.015a86.5,86.5,0,0,1-8.574-32.631C2795.747,2182.933,2817.338,2166.769,2817.338,2166.769Z" transform="translate(-2747.484 -2073.867)" fill="#163f59"/>
            <path id="Trazado_102573" data-name="Trazado 102573" d="M2795.673,2165.762l-27.943,65.871-5.08,7.015-19.273,54.727-7.28-2.078s-2.656-30.082,4.964-42.892,11.43-19.823,11.43-19.823l16.828-64.65Z" transform="translate(-2725.819 -2072.859)" fill="#194866"/>
            <path id="Trazado_102574" data-name="Trazado 102574" d="M2812.6,2328.5c-2.3-11.785-7.357-32.334-7.532-39.911a107.27,107.27,0,0,1,1.907-23.789l13.969-4.879L2821,2328.5Z" transform="translate(-2750.454 -2106.939)" fill="#163f59"/>
            <path id="Trazado_102575" data-name="Trazado 102575" d="M2742.475,2376.172h-3.6l-1.135-1.137-.488-2.776-1.143,1.142-3.76-3.756c.655-1.8,3.269-3.759,3.269-3.759s2.585,4.294,3.348,4.166c2.943-.489,3.025,1.063,3.025,1.063S2740.914,2374.469,2742.475,2376.172Z" transform="translate(-2724.648 -2144.564)" fill="#081832"/>
            <path id="Trazado_102576" data-name="Trazado 102576" d="M2742.255,2375.524a4.163,4.163,0,0,0,2.777,1.584c9.011.347,9.241,2.543,9.241,2.543h-12.018Z" transform="translate(-2728.165 -2147.985)" fill="#081832"/>
            <path id="Trazado_102577" data-name="Trazado 102577" d="M2755.292,2196.5c.769,1.428,5.668,2.825,5.668,2.825l3.492-3.923h-2.223l-1.588-3.57-4.763,1.83S2754.821,2195.626,2755.292,2196.5Z" transform="translate(-2732.75 -2082.765)" fill="#f7b68b"/>
            <path id="Trazado_102578" data-name="Trazado 102578" d="M2753.113,2091.783l-16.509,25.309-2.223.307.634,2.134-11.959-.917-2.647-10.368,23.178-34.154s7.222-6.561,19.051-4.88C2771.212,2070.436,2754.383,2089.647,2753.113,2091.783Z" transform="translate(-2720.408 -2039.132)" fill="#d1dbea"/>
            <path id="Trazado_102579" data-name="Trazado 102579" d="M2735.779,2144.957l12.259,34.069s-2.668.815-4.218-.563c-4.2-3.736-11.521-13.906-14.074-19.478a95.042,95.042,0,0,1-5.4-15.858Z" transform="translate(-2721.806 -2065.473)" fill="#f7b68b"/>
            <path id="Trazado_102580" data-name="Trazado 102580" d="M2726.041,2135.712s7.392,3.55,11.308,5.26l-.969.135.634,2.134-4.131-.35-5.794-1.37-.318-2.45h1.795Z" transform="translate(-2722.408 -2062.84)" fill="#b0bfde"/>
          </g>
          <path id="Trazado_102581" data-name="Trazado 102581" d="M2887.365,2141.081l8.531-4.947,5.5.629s.622,1.288-1.254,2.23a15.007,15.007,0,0,1-4.243,1.228l-3.656,5.449s3.571,2.113,4.517,1.649,4.66-2.222,4.66-2.222-2.152,4.588-4.446,4.588a44.524,44.524,0,0,1-6.453-.286c-1.721-.288-2.294-5.163-4.014-6.022S2887.365,2141.081,2887.365,2141.081Z" transform="translate(-2779.17 -2062.99)" fill="#ec9568"/>
        </g>
        <g id="Grupo_88118" data-name="Grupo 88118" transform="translate(93.945 1.734)">
          <path id="Trazado_102582" data-name="Trazado 102582" d="M2896.3,2147.125l2.542.891,10.441-3.439-4.083-7.341-1.368,2.162-3.647-.146-4.583,6.41Z" transform="translate(-2876.558 -2065.115)" fill="#f7b68b"/>
          <g id="Grupo_88115" data-name="Grupo 88115" transform="translate(0 14.417)">
            <path id="Trazado_102583" data-name="Trazado 102583" d="M2902.314,2084.251l-21.206-19.394s-1.408,1.705-.875,3.261c1.452,4.219,6.661,12.686,9.966,16.26a75.592,75.592,0,0,0,9.96,8.8Z" transform="translate(-2871.057 -2053.834)" fill="#f7b68b"/>
            <g id="Grupo_88114" data-name="Grupo 88114">
              <g id="Grupo_88113" data-name="Grupo 88113">
                <path id="Trazado_102584" data-name="Trazado 102584" d="M2878.494,2066.786l-2.677-2.279a12.042,12.042,0,0,1-2.428-2.724c-1.1-1.7-.473-3.354.955-4.715a5.205,5.205,0,0,1,2.5-1.514s2.306,1.022,2.014,3.084,1.785,6.612,1,6.942A3.585,3.585,0,0,0,2878.494,2066.786Z" transform="translate(-2868.47 -2050.531)" fill="#f7b68b"/>
                <path id="Trazado_102585" data-name="Trazado 102585" d="M2877.514,2053.2l-2.664-2.873-2.6-2.56-.333.75,1.591,2.072.85,4.335,1.05-.577Z" transform="translate(-2868.148 -2047.765)" fill="#f7b68b"/>
                <path id="Trazado_102586" data-name="Trazado 102586" d="M2871.1,2052.968l-2.864-1.5-.52.63,2.558,1.988,1.855,2.916,1.788-1.343Z" transform="translate(-2866.656 -2049.081)" fill="#f7b68b"/>
                <path id="Trazado_102587" data-name="Trazado 102587" d="M2866.881,2054.459l2.358,1.048,1.66.482,1.145,1.525-1.066,1.519-1.18-1.684-2.871-1.909Z" transform="translate(-2866.358 -2050.142)" fill="#f7b68b"/>
                <path id="Trazado_102588" data-name="Trazado 102588" d="M2866.071,2058.387l4.509,1.155.738,1.137-.671,1.082-1.828-1.266-2.424-1.365Z" transform="translate(-2866.071 -2051.537)" fill="#f7b68b"/>
              </g>
              <path id="Trazado_102589" data-name="Trazado 102589" d="M2883.11,2065.433a4.735,4.735,0,0,1-1.139-3.685s.662-5.506-.145-6.414a9.5,9.5,0,0,1-1.314-3.26s-.689-.878-.985,1.349a9.22,9.22,0,0,0,.085,2.759s-1.489,3-1.374,3.978c.227,2.009,3.842,5.536,3.842,5.536S2883.3,2065.622,2883.11,2065.433Z" transform="translate(-2870.389 -2049.235)" fill="#f7b68b"/>
            </g>
            <path id="Trazado_102590" data-name="Trazado 102590" d="M2938.008,2084.67l-23.582,4.357-.9,1.536-1.368-1.121-2.988,9.041,6.789,5.1,32.1-6.535a19.415,19.415,0,0,0,9.393-12.466C2959.173,2077.937,2939.961,2084.393,2938.008,2084.67Z" transform="translate(-2881.372 -2059.775)" fill="#b0bfde"/>
            <path id="Trazado_102591" data-name="Trazado 102591" d="M2914.982,2104.1s-.34-6.5-.4-9.892l-.395.673-1.371-1.122-1,3.136-.768,4.661,1.7.98.548-1.314Z" transform="translate(-2882.04 -2064.097)" fill="#d1dbea"/>
          </g>
          <g id="Grupo_88117" data-name="Grupo 88117" transform="translate(27.962)">
            <path id="Trazado_102592" data-name="Trazado 102592" d="M2971.251,2061.611c-.318,2.981.772,5.833,2.408,6.277l4.728.909c1.687.2,3.755-2.047,4.564-4.934q1.978-7.158,3.96-14.312c.813-2.857.8-8.907-1.384-11.116a6.39,6.39,0,0,0-7.235-1.392c-2.846,1.241-5.1,6.854-5.409,9.808Q2972.07,2054.225,2971.251,2061.611Z" transform="translate(-2931.358 -2029.342)" fill="#ec9568"/>
            <path id="Trazado_102593" data-name="Trazado 102593" d="M2936,2144.453l-26.578.785s19.694,11.856,26.848,5.878S2936,2144.453,2936,2144.453Z" transform="translate(-2909.427 -2067.677)" fill="#f7b68b"/>
            <path id="Trazado_102594" data-name="Trazado 102594" d="M2969.753,2387.434l.056,2.7,15-.319.2-7.26-9.051-.109S2971.172,2387.018,2969.753,2387.434Z" transform="translate(-2930.846 -2152.177)" fill="#161711"/>
            <path id="Trazado_102595" data-name="Trazado 102595" d="M2970.312,2182.861s-6.825,44.627-14.51,64.312c-6.81,17.442-15.656-4.871-15.656-4.871l11.518-74.878,21.554-2.1S2974.714,2165.843,2970.312,2182.861Z" transform="translate(-2920.333 -2075.089)" fill="#163f59"/>
            <path id="Trazado_102596" data-name="Trazado 102596" d="M2963.877,2169.786l-2.048,28.721,3.79,2.123s3.07,42.537,3.825,44.676c4.31,12.24,14.627,4.622,15.969.481s3.076-34.6,2.131-56.773l-.948-22.181Z" transform="translate(-2928.032 -2075.623)" fill="#194866"/>
            <path id="Trazado_102597" data-name="Trazado 102597" d="M2974.041,2268.837s-1.571,7.62-1.017,21.96c.353,9.086,1.751,33.139,3.8,51.021.128,1.094,9.056.074,9.056.074s4.216-58.277,4.457-69.548C2990.409,2268.949,2981.018,2260.661,2974.041,2268.837Z" transform="translate(-2931.965 -2110.6)" fill="#194866"/>
            <path id="Trazado_102598" data-name="Trazado 102598" d="M2964.251,2077.687l14.038-3.141,7.2,8.1s5.341,7.16,5.458,23.244c.117,16.123-5.344,45.99-5.344,45.99l-32.135-10.326S2954.968,2084.953,2964.251,2077.687Z" transform="translate(-2925.064 -2042.857)" fill="#d1dbea"/>
            <path id="Trazado_102599" data-name="Trazado 102599" d="M2978.851,2086.167s6.2,3.192,3.225,12.412c-5.069,15.715-15.658,28.661-17.652,31.251s-8.954,8.87-13.6,6.793l-4.647-2.074-.315-10.479,3.079-.313,1.826-.344s6.433-10.209,11.809-20.151S2978.851,2086.167,2978.851,2086.167Z" transform="translate(-2922.363 -2046.983)" fill="#b0bfde"/>
            <path id="Trazado_102600" data-name="Trazado 102600" d="M2972.957,2077.625l1.986,5.8,12.649-6.619-1.321-3.758Z" transform="translate(-2931.983 -2042.326)" fill="#b0bfde"/>
            <path id="Trazado_102601" data-name="Trazado 102601" d="M2969.9,2076.005l.292,1.516-2.84,4.127.075-3.386Z" transform="translate(-2929.992 -2043.375)" fill="#b0bfde"/>
            <path id="Trazado_102602" data-name="Trazado 102602" d="M2940.349,2281.277s2.522.765,10.5.878c7.952.117-8.878,64.438-8.878,64.438l-11.374-3.908,6.76-64.535Z" transform="translate(-2916.944 -2115.147)" fill="#163f59"/>
            <path id="Trazado_102603" data-name="Trazado 102603" d="M2936.083,2381.1l-.952,5.627-5.714.121-5.358.114-7.5.159-.045-2.059s8.864-3.278,10.578-6.746S2936.083,2381.1,2936.083,2381.1Z" transform="translate(-2911.943 -2150.34)" fill="#161711"/>
            <g id="Grupo_88116" data-name="Grupo 88116" transform="translate(36.689)">
              <path id="Trazado_102604" data-name="Trazado 102604" d="M2980.852,2030.251l.646-3.362-1.387-.266-3.661-.7-2.21-.426a4.507,4.507,0,0,0-5.274,3.573l-.646,3.357,1.392.268,3.661.7,2.21.426A4.5,4.5,0,0,0,2980.852,2030.251Z" transform="translate(-2967.027 -2025.411)" fill="#163f59"/>
              <path id="Trazado_102605" data-name="Trazado 102605" d="M2983.17,2053.237a4,4,0,0,1-4.687,3.172l-8.921-1.716a4,4,0,0,1-3.175-4.685l3.432-17.842a4,4,0,0,1,4.689-3.177l8.919,1.717a4.007,4.007,0,0,1,3.176,4.689Z" transform="translate(-2966.314 -2026.655)" fill="#f7b68b"/>
              <path id="Trazado_102606" data-name="Trazado 102606" d="M2984.425,2026.954a4.5,4.5,0,0,1,3.311,2.711l1.519.292a3.491,3.491,0,0,1,2.766,4.084l-1.629,8.464-2.411-.464.662-3.443a2.455,2.455,0,0,0-1.948-2.872l-1.406-.271-3.659-.7-2.21-.424a4.5,4.5,0,0,1-3.57-5.272l.7-3.616Z" transform="translate(-2969.671 -2025.421)" fill="#163f59"/>
              <path id="Trazado_102607" data-name="Trazado 102607" d="M2992.607,2053.409a2.137,2.137,0,0,1,2.5-1.691l.175.034a2.134,2.134,0,0,1,1.694,2.5l-.489,2.548a2.139,2.139,0,0,1-2.5,1.7l-.172-.035a2.139,2.139,0,0,1-1.681-1.621" transform="translate(-2975.481 -2034.738)" fill="#f7b68b"/>
            </g>
          </g>
        </g>
      </g>
      <g id="Grupo_88120" data-name="Grupo 88120" transform="translate(2794.243 1958.623)">
        <path id="Trazado_102608" data-name="Trazado 102608" d="M2840.188,2008.315a3.624,3.624,0,0,0,3.624,3.623h2.413v8.451l8.454-8.451h27.774a3.623,3.623,0,0,0,3.623-3.623v-30.19a3.622,3.622,0,0,0-3.623-3.623h-38.641a3.624,3.624,0,0,0-3.624,3.623Z" transform="translate(-2840.188 -1974.502)" fill="#60c1dd"/>
        <rect id="Rectángulo_34643" data-name="Rectángulo 34643" width="31.397" height="2.416" transform="translate(7.246 10.869)" fill="#fff"/>
        <rect id="Rectángulo_34644" data-name="Rectángulo 34644" width="31.397" height="2.413" transform="translate(7.246 16.908)" fill="#fff"/>
        <rect id="Rectángulo_34645" data-name="Rectángulo 34645" width="31.397" height="2.416" transform="translate(7.246 22.944)" fill="#fff"/>
      </g>
      <g id="Grupo_88121" data-name="Grupo 88121" transform="translate(2830.37 1941.738)">
        <path id="Trazado_102609" data-name="Trazado 102609" d="M2942.091,1982.135a3.624,3.624,0,0,1-3.624,3.624h-2.413v8.451l-8.455-8.451h-27.774a3.622,3.622,0,0,1-3.622-3.624v-30.19a3.621,3.621,0,0,1,3.622-3.623h38.642a3.623,3.623,0,0,1,3.624,3.623Z" transform="translate(-2896.203 -1948.322)" fill="#2e9daa"/>
        <rect id="Rectángulo_34646" data-name="Rectángulo 34646" width="31.397" height="2.416" transform="translate(7.245 10.869)" fill="#fff"/>
        <rect id="Rectángulo_34647" data-name="Rectángulo 34647" width="31.397" height="2.413" transform="translate(7.245 16.908)" fill="#fff"/>
        <rect id="Rectángulo_34648" data-name="Rectángulo 34648" width="31.397" height="2.416" transform="translate(7.245 22.944)" fill="#fff"/>
      </g>
    </g>
  </g>
</svg>
