<svg xmlns="http://www.w3.org/2000/svg" width="397.7" height="375.575" viewBox="0 0 397.7 375.575">
  <g id="Grupo_88437" data-name="Grupo 88437" transform="translate(-302.3 -4198)">
    <rect id="Rectángulo_34781" data-name="Rectángulo 34781" width="265.572" height="265.572" rx="28" transform="translate(302.3 4385.787) rotate(-45)" fill="#636363" opacity="0.5"/>
    <g id="Grupo_88275" data-name="Grupo 88275" transform="translate(-698.05 2277.563)">
      <rect id="Rectángulo_34782" data-name="Rectángulo 34782" width="330.586" height="43.502" transform="translate(1057.763 2143.945)" fill="#d4edff"/>
      <rect id="Rectángulo_34783" data-name="Rectángulo 34783" width="330.586" height="43.502" transform="translate(1033.61 2187.447)" fill="#c5e1f9"/>
      <rect id="Rectángulo_34784" data-name="Rectángulo 34784" width="330.586" height="43.502" transform="translate(1009.458 2230.949)" fill="#d4edff"/>
      <g id="Grupo_88247" data-name="Grupo 88247" transform="translate(1283.198 1941.996)">
        <g id="Grupo_88243" data-name="Grupo 88243" transform="translate(0.005)">
          <g id="Grupo_88238" data-name="Grupo 88238" transform="translate(57.421)">
            <g id="Grupo_88237" data-name="Grupo 88237">
              <path id="Trazado_102938" data-name="Trazado 102938" d="M1447.9,1999.4l33.752-46.448A55.036,55.036,0,0,0,1447.9,1942Z" transform="translate(-1447.903 -1941.996)" fill="#ca4f4e"/>
            </g>
          </g>
          <g id="Grupo_88240" data-name="Grupo 88240" transform="translate(57.421)">
            <g id="Grupo_88239" data-name="Grupo 88239">
              <path id="Trazado_102939" data-name="Trazado 102939" d="M1447.9,1999.4l9.411-56.712a61.243,61.243,0,0,0-9.411-.7Z" transform="translate(-1447.903 -1941.996)" fill="#60c1dd"/>
            </g>
          </g>
          <g id="Grupo_88242" data-name="Grupo 88242">
            <g id="Grupo_88241" data-name="Grupo 88241">
              <path id="Trazado_102940" data-name="Trazado 102940" d="M1429.3,1999.4V1942a57.422,57.422,0,1,0,57.426,57.409c0-19.018-8.276-35.264-23.674-46.448Z" transform="translate(-1371.881 -1941.996)" fill="#c5e1f9"/>
            </g>
          </g>
        </g>
        <g id="Grupo_88246" data-name="Grupo 88246">
          <g id="Grupo_88245" data-name="Grupo 88245">
            <g id="Grupo_88244" data-name="Grupo 88244">
              <path id="Trazado_102941" data-name="Trazado 102941" d="M1429.313,1999.4l-54.613,17.752a57.428,57.428,0,0,1,36.865-72.36,54.758,54.758,0,0,1,17.749-2.8Z" transform="translate(-1371.875 -1941.996)" fill="#2a75a9"/>
            </g>
          </g>
        </g>
      </g>
      <g id="Grupo_88248" data-name="Grupo 88248" transform="translate(1115.544 1968.352)">
        <rect id="Rectángulo_34785" data-name="Rectángulo 34785" width="200.093" height="156.92" transform="translate(0 18.204)" fill="#e9f6ff"/>
        <rect id="Rectángulo_34786" data-name="Rectángulo 34786" width="200.093" height="18.837" fill="#d4edff"/>
        <path id="Trazado_102942" data-name="Trazado 102942" d="M1165.751,1986.99a3.767,3.767,0,1,1-3.766-3.764A3.774,3.774,0,0,1,1165.751,1986.99Z" transform="translate(-1151.942 -1978.44)" fill="#074fdf"/>
        <path id="Trazado_102943" data-name="Trazado 102943" d="M1181.543,1986.99a3.767,3.767,0,1,1-3.767-3.764A3.771,3.771,0,0,1,1181.543,1986.99Z" transform="translate(-1155.806 -1978.44)" fill="#8dcfff"/>
        <path id="Trazado_102944" data-name="Trazado 102944" d="M1197.335,1986.99a3.767,3.767,0,1,1-3.768-3.764A3.771,3.771,0,0,1,1197.335,1986.99Z" transform="translate(-1159.67 -1978.44)" fill="#acd4f8"/>
      </g>
      <g id="Grupo_88264" data-name="Grupo 88264" transform="translate(1130.509 1991.82)">
        <g id="Grupo_88263" data-name="Grupo 88263">
          <g id="Grupo_88262" data-name="Grupo 88262">
            <g id="Grupo_88260" data-name="Grupo 88260">
              <g id="Grupo_88249" data-name="Grupo 88249" transform="translate(13.235)">
                <rect id="Rectángulo_34787" data-name="Rectángulo 34787" width="118.661" height="134.521" fill="none" stroke="#7eb3ff" stroke-miterlimit="10" stroke-width="0.189"/>
                <line id="Línea_301" data-name="Línea 301" x2="118.661" transform="translate(0 115.304)" fill="none" stroke="#7eb3ff" stroke-miterlimit="10" stroke-width="0.189"/>
                <line id="Línea_302" data-name="Línea 302" x2="118.661" transform="translate(0 96.087)" fill="none" stroke="#7eb3ff" stroke-miterlimit="10" stroke-width="0.189"/>
                <line id="Línea_303" data-name="Línea 303" x2="118.661" transform="translate(0 76.868)" fill="none" stroke="#7eb3ff" stroke-miterlimit="10" stroke-width="0.189"/>
                <line id="Línea_304" data-name="Línea 304" x2="118.661" transform="translate(0 57.652)" fill="none" stroke="#7eb3ff" stroke-miterlimit="10" stroke-width="0.189"/>
                <line id="Línea_305" data-name="Línea 305" x2="118.661" transform="translate(0 38.434)" fill="none" stroke="#7eb3ff" stroke-miterlimit="10" stroke-width="0.189"/>
                <line id="Línea_306" data-name="Línea 306" x2="118.661" transform="translate(0 19.218)" fill="none" stroke="#7eb3ff" stroke-miterlimit="10" stroke-width="0.189"/>
                <line id="Línea_307" data-name="Línea 307" y2="134.521" transform="translate(79.109)" fill="none" stroke="#7eb3ff" stroke-miterlimit="10" stroke-width="0.189"/>
                <line id="Línea_308" data-name="Línea 308" y2="134.521" transform="translate(39.553)" fill="none" stroke="#7eb3ff" stroke-miterlimit="10" stroke-width="0.189"/>
              </g>
              <line id="Línea_309" data-name="Línea 309" x1="6.137" y2="6.137" transform="translate(7.098)" fill="none" stroke="#7eb3ff" stroke-miterlimit="10" stroke-width="0.189"/>
              <line id="Línea_310" data-name="Línea 310" x1="6.137" y2="6.134" transform="translate(7.098 19.218)" fill="none" stroke="#7eb3ff" stroke-miterlimit="10" stroke-width="0.189"/>
              <line id="Línea_311" data-name="Línea 311" x1="6.137" y2="6.137" transform="translate(7.098 38.434)" fill="none" stroke="#7eb3ff" stroke-miterlimit="10" stroke-width="0.189"/>
              <line id="Línea_312" data-name="Línea 312" x1="6.137" y2="6.137" transform="translate(7.098 57.652)" fill="none" stroke="#7eb3ff" stroke-miterlimit="10" stroke-width="0.189"/>
              <line id="Línea_313" data-name="Línea 313" x1="6.137" y2="6.139" transform="translate(7.098 76.868)" fill="none" stroke="#7eb3ff" stroke-miterlimit="10" stroke-width="0.189"/>
              <line id="Línea_314" data-name="Línea 314" x1="6.137" y2="6.137" transform="translate(7.098 96.087)" fill="none" stroke="#7eb3ff" stroke-miterlimit="10" stroke-width="0.189"/>
              <line id="Línea_315" data-name="Línea 315" x1="6.137" y2="6.137" transform="translate(7.098 115.304)" fill="none" stroke="#7eb3ff" stroke-miterlimit="10" stroke-width="0.189"/>
              <g id="Grupo_88250" data-name="Grupo 88250" transform="translate(0.306 121.159)">
                <path id="Trazado_102945" data-name="Trazado 102945" d="M1171.592,2172.246h-.488v-3.23l-.977.358v-.44l1.39-.521h.075Z" transform="translate(-1170.127 -2168.379)" fill="#7eb3ff"/>
                <path id="Trazado_102946" data-name="Trazado 102946" d="M1176.335,2170.607a2.218,2.218,0,0,1-.291,1.267,1.207,1.207,0,0,1-1.814.008,2.111,2.111,0,0,1-.3-1.209v-.646a2.163,2.163,0,0,1,.292-1.25,1.042,1.042,0,0,1,.912-.409,1.054,1.054,0,0,1,.906.393,2.1,2.1,0,0,1,.3,1.218Zm-.486-.662a1.777,1.777,0,0,0-.172-.9.6.6,0,0,0-.548-.282.588.588,0,0,0-.542.281,1.735,1.735,0,0,0-.176.862v.776a1.8,1.8,0,0,0,.181.913.649.649,0,0,0,1.076.017,1.731,1.731,0,0,0,.181-.875Z" transform="translate(-1171.057 -2168.368)" fill="#7eb3ff"/>
              </g>
              <g id="Grupo_88251" data-name="Grupo 88251" transform="translate(0.104 102.079)">
                <path id="Trazado_102947" data-name="Trazado 102947" d="M1172.433,2146.974h-2.5v-.348l1.321-1.468a3.1,3.1,0,0,0,.4-.541.9.9,0,0,0,.111-.431.685.685,0,0,0-.181-.49.631.631,0,0,0-.481-.192.748.748,0,0,0-.563.207.783.783,0,0,0-.2.573h-.486a1.129,1.129,0,0,1,.339-.853,1.261,1.261,0,0,1,.909-.324,1.205,1.205,0,0,1,.841.279.951.951,0,0,1,.309.742,2.182,2.182,0,0,1-.718,1.342l-1.021,1.108h1.915Z" transform="translate(-1169.86 -2143.107)" fill="#7eb3ff"/>
                <path id="Trazado_102948" data-name="Trazado 102948" d="M1176.335,2145.346a2.215,2.215,0,0,1-.291,1.266,1.207,1.207,0,0,1-1.814.009,2.113,2.113,0,0,1-.3-1.209v-.646a2.165,2.165,0,0,1,.292-1.25,1.044,1.044,0,0,1,.912-.409,1.055,1.055,0,0,1,.906.394,2.1,2.1,0,0,1,.3,1.218Zm-.486-.662a1.773,1.773,0,0,0-.172-.9.594.594,0,0,0-.548-.283.588.588,0,0,0-.542.281,1.74,1.74,0,0,0-.176.863v.776a1.793,1.793,0,0,0,.181.912.648.648,0,0,0,1.076.017,1.729,1.729,0,0,0,.181-.875Z" transform="translate(-1170.855 -2143.107)" fill="#7eb3ff"/>
              </g>
              <g id="Grupo_88252" data-name="Grupo 88252" transform="translate(0.107 82.997)">
                <path id="Trazado_102949" data-name="Trazado 102949" d="M1170.64,2119.567H1171a.806.806,0,0,0,.539-.18.606.606,0,0,0,.2-.476.592.592,0,0,0-.668-.671.7.7,0,0,0-.5.18.628.628,0,0,0-.187.475h-.486a.97.97,0,0,1,.332-.752,1.365,1.365,0,0,1,1.69-.015,1.033,1.033,0,0,1,.306.794.839.839,0,0,1-.162.482.969.969,0,0,1-.438.35.931.931,0,0,1,.485.329.918.918,0,0,1,.173.564,1.046,1.046,0,0,1-.335.816,1.264,1.264,0,0,1-.874.3,1.288,1.288,0,0,1-.874-.291.966.966,0,0,1-.336-.768h.487a.621.621,0,0,0,.2.482.868.868,0,0,0,1.064,0,.707.707,0,0,0,.185-.527.643.643,0,0,0-.2-.511.9.9,0,0,0-.59-.184h-.363Z" transform="translate(-1169.864 -2117.843)" fill="#7eb3ff"/>
                <path id="Trazado_102950" data-name="Trazado 102950" d="M1176.335,2120.083a2.213,2.213,0,0,1-.291,1.266,1.208,1.208,0,0,1-1.814.009,2.112,2.112,0,0,1-.3-1.209v-.646a2.167,2.167,0,0,1,.292-1.25,1.043,1.043,0,0,1,.912-.408,1.055,1.055,0,0,1,.906.393,2.1,2.1,0,0,1,.3,1.219Zm-.486-.662a1.775,1.775,0,0,0-.172-.9.6.6,0,0,0-.548-.282.589.589,0,0,0-.542.282,1.736,1.736,0,0,0-.176.862v.776a1.8,1.8,0,0,0,.181.913.592.592,0,0,0,.543.295.585.585,0,0,0,.533-.279,1.725,1.725,0,0,0,.181-.875Z" transform="translate(-1170.858 -2117.843)" fill="#7eb3ff"/>
              </g>
              <g id="Grupo_88253" data-name="Grupo 88253" transform="translate(0 63.915)">
                <path id="Trazado_102951" data-name="Trazado 102951" d="M1171.947,2095.182h.529v.4h-.529v.885h-.488v-.885h-1.737v-.286l1.708-2.644h.517Zm-1.674,0h1.187v-1.871l-.058.1Z" transform="translate(-1169.722 -2092.597)" fill="#7eb3ff"/>
                <path id="Trazado_102952" data-name="Trazado 102952" d="M1176.335,2094.819a2.211,2.211,0,0,1-.291,1.265,1.206,1.206,0,0,1-1.814.009,2.11,2.11,0,0,1-.3-1.209v-.647a2.16,2.16,0,0,1,.292-1.249,1.041,1.041,0,0,1,.912-.409,1.055,1.055,0,0,1,.906.394,2.093,2.093,0,0,1,.3,1.217Zm-.486-.662a1.77,1.77,0,0,0-.172-.9.6.6,0,0,0-.548-.283.589.589,0,0,0-.542.281,1.739,1.739,0,0,0-.176.863v.776a1.8,1.8,0,0,0,.181.913.592.592,0,0,0,.543.294.586.586,0,0,0,.533-.278,1.732,1.732,0,0,0,.181-.875Z" transform="translate(-1170.751 -2092.58)" fill="#7eb3ff"/>
              </g>
              <g id="Grupo_88254" data-name="Grupo 88254" transform="translate(0.264 44.835)">
                <path id="Trazado_102953" data-name="Trazado 102953" d="M1170.208,2069.291l.194-1.9h1.955v.447h-1.543l-.115,1.042a1.218,1.218,0,0,1,.637-.166,1.054,1.054,0,0,1,.827.344,1.345,1.345,0,0,1,.307.932,1.3,1.3,0,0,1-.319.927,1.156,1.156,0,0,1-.889.341,1.207,1.207,0,0,1-.826-.281,1.12,1.12,0,0,1-.365-.776h.459a.765.765,0,0,0,.233.495.719.719,0,0,0,.5.167.651.651,0,0,0,.529-.231.965.965,0,0,0,.193-.637.881.881,0,0,0-.208-.613.706.706,0,0,0-.554-.232.794.794,0,0,0-.5.138l-.129.105Z" transform="translate(-1170.072 -2067.336)" fill="#7eb3ff"/>
                <path id="Trazado_102954" data-name="Trazado 102954" d="M1176.335,2069.558a2.214,2.214,0,0,1-.291,1.266,1.208,1.208,0,0,1-1.814.009,2.112,2.112,0,0,1-.3-1.209v-.647a2.164,2.164,0,0,1,.292-1.249,1.044,1.044,0,0,1,.912-.409,1.055,1.055,0,0,1,.906.394,2.1,2.1,0,0,1,.3,1.218Zm-.486-.662a1.776,1.776,0,0,0-.172-.9.6.6,0,0,0-.548-.282.588.588,0,0,0-.542.281,1.742,1.742,0,0,0-.176.863v.776a1.8,1.8,0,0,0,.181.913.593.593,0,0,0,.543.295.586.586,0,0,0,.533-.279,1.726,1.726,0,0,0,.181-.875Z" transform="translate(-1171.015 -2067.319)" fill="#7eb3ff"/>
              </g>
              <g id="Grupo_88255" data-name="Grupo 88255" transform="translate(0.206 25.754)">
                <path id="Trazado_102955" data-name="Trazado 102955" d="M1171.869,2042.122v.412h-.088a1.275,1.275,0,0,0-.9.335,1.393,1.393,0,0,0-.389.915,1.037,1.037,0,0,1,.824-.346.987.987,0,0,1,.794.351,1.54,1.54,0,0,1-.023,1.85,1.108,1.108,0,0,1-.861.354,1.093,1.093,0,0,1-.889-.421,1.67,1.67,0,0,1-.341-1.083v-.187a2.51,2.51,0,0,1,.45-1.61,1.653,1.653,0,0,1,1.338-.57Zm-.637,1.719a.817.817,0,0,0-.749.524v.178a1.252,1.252,0,0,0,.212.76.637.637,0,0,0,.53.289.613.613,0,0,0,.514-.242,1.154,1.154,0,0,0,0-1.266A.606.606,0,0,0,1171.232,2043.841Z" transform="translate(-1169.995 -2042.073)" fill="#7eb3ff"/>
                <path id="Trazado_102956" data-name="Trazado 102956" d="M1176.335,2044.3a2.216,2.216,0,0,1-.291,1.266,1.208,1.208,0,0,1-1.814.009,2.114,2.114,0,0,1-.3-1.209v-.647a2.164,2.164,0,0,1,.292-1.249,1.044,1.044,0,0,1,.912-.409,1.055,1.055,0,0,1,.906.394,2.1,2.1,0,0,1,.3,1.218Zm-.486-.662a1.774,1.774,0,0,0-.172-.9.594.594,0,0,0-.548-.282.588.588,0,0,0-.542.281,1.741,1.741,0,0,0-.176.863v.776a1.793,1.793,0,0,0,.181.912.592.592,0,0,0,.543.3.586.586,0,0,0,.533-.279,1.729,1.729,0,0,0,.181-.875Z" transform="translate(-1170.957 -2042.057)" fill="#7eb3ff"/>
              </g>
              <g id="Grupo_88256" data-name="Grupo 88256" transform="translate(0.063 6.675)">
                <path id="Trazado_102957" data-name="Trazado 102957" d="M1172.384,2017.138l-1.58,3.543h-.508l1.575-3.417h-2.065v-.4h2.579Z" transform="translate(-1169.805 -2016.814)" fill="#7eb3ff"/>
                <path id="Trazado_102958" data-name="Trazado 102958" d="M1176.335,2019.036a2.217,2.217,0,0,1-.291,1.266,1.207,1.207,0,0,1-1.814.008,2.109,2.109,0,0,1-.3-1.208v-.647a2.161,2.161,0,0,1,.292-1.249,1.042,1.042,0,0,1,.912-.409,1.055,1.055,0,0,1,.906.394,2.1,2.1,0,0,1,.3,1.218Zm-.486-.662a1.771,1.771,0,0,0-.172-.9.594.594,0,0,0-.548-.282.588.588,0,0,0-.542.281,1.74,1.74,0,0,0-.176.863v.776a1.8,1.8,0,0,0,.181.912.649.649,0,0,0,1.076.017,1.731,1.731,0,0,0,.181-.875Z" transform="translate(-1170.813 -2016.797)" fill="#7eb3ff"/>
              </g>
              <g id="Grupo_88257" data-name="Grupo 88257" transform="translate(24.686 137.756)">
                <path id="Trazado_102959" data-name="Trazado 102959" d="M1204.979,2194.208h-2.5v-.348l1.322-1.468a3.208,3.208,0,0,0,.4-.541.907.907,0,0,0,.111-.431.689.689,0,0,0-.18-.49.633.633,0,0,0-.482-.192.746.746,0,0,0-.562.207.782.782,0,0,0-.2.572h-.486a1.129,1.129,0,0,1,.34-.853,1.259,1.259,0,0,1,.909-.324,1.209,1.209,0,0,1,.841.279.953.953,0,0,1,.309.743,2.18,2.18,0,0,1-.719,1.341l-1.021,1.109h1.915Z" transform="translate(-1202.405 -2190.341)" fill="#7eb3ff"/>
                <path id="Trazado_102960" data-name="Trazado 102960" d="M1208.881,2192.581a2.213,2.213,0,0,1-.292,1.266,1.207,1.207,0,0,1-1.813.009,2.114,2.114,0,0,1-.3-1.209V2192a2.164,2.164,0,0,1,.292-1.249,1.04,1.04,0,0,1,.912-.408,1.054,1.054,0,0,1,.906.393,2.1,2.1,0,0,1,.3,1.219Zm-.486-.663a1.762,1.762,0,0,0-.173-.9.594.594,0,0,0-.547-.282.587.587,0,0,0-.542.281,1.741,1.741,0,0,0-.177.863v.776a1.8,1.8,0,0,0,.181.912.648.648,0,0,0,1.076.017,1.733,1.733,0,0,0,.182-.875Z" transform="translate(-1203.4 -2190.341)" fill="#7eb3ff"/>
                <path id="Trazado_102961" data-name="Trazado 102961" d="M1212.958,2194.208h-2.5v-.348l1.321-1.468a3.129,3.129,0,0,0,.4-.541.9.9,0,0,0,.111-.431.686.686,0,0,0-.18-.49.631.631,0,0,0-.481-.192.747.747,0,0,0-.563.207.782.782,0,0,0-.2.572h-.486a1.128,1.128,0,0,1,.339-.853,1.26,1.26,0,0,1,.909-.324,1.207,1.207,0,0,1,.841.279.953.953,0,0,1,.309.743,2.178,2.178,0,0,1-.718,1.341l-1.022,1.109h1.916Z" transform="translate(-1204.358 -2190.341)" fill="#7eb3ff"/>
                <path id="Trazado_102962" data-name="Trazado 102962" d="M1216.86,2192.581a2.208,2.208,0,0,1-.292,1.266,1.206,1.206,0,0,1-1.813.009,2.114,2.114,0,0,1-.3-1.209V2192a2.164,2.164,0,0,1,.292-1.249,1.04,1.04,0,0,1,.912-.408,1.053,1.053,0,0,1,.906.393,2.1,2.1,0,0,1,.3,1.219Zm-.486-.663a1.773,1.773,0,0,0-.172-.9.6.6,0,0,0-.548-.282.588.588,0,0,0-.542.281,1.739,1.739,0,0,0-.177.863v.776a1.8,1.8,0,0,0,.181.912.593.593,0,0,0,.544.3.586.586,0,0,0,.533-.279,1.742,1.742,0,0,0,.181-.875Z" transform="translate(-1205.352 -2190.341)" fill="#7eb3ff"/>
              </g>
              <g id="Grupo_88258" data-name="Grupo 88258" transform="translate(65.037 137.756)">
                <path id="Trazado_102963" data-name="Trazado 102963" d="M1258.4,2194.208h-2.5v-.348l1.322-1.468a3.111,3.111,0,0,0,.4-.541.906.906,0,0,0,.111-.431.685.685,0,0,0-.181-.49.631.631,0,0,0-.482-.192.746.746,0,0,0-.562.207.783.783,0,0,0-.2.572h-.485a1.129,1.129,0,0,1,.339-.853,1.259,1.259,0,0,1,.909-.324,1.21,1.21,0,0,1,.842.279.954.954,0,0,1,.309.743,2.179,2.179,0,0,1-.719,1.341l-1.021,1.109h1.916Z" transform="translate(-1255.828 -2190.341)" fill="#7eb3ff"/>
                <path id="Trazado_102964" data-name="Trazado 102964" d="M1262.3,2192.581a2.213,2.213,0,0,1-.292,1.266,1.207,1.207,0,0,1-1.813.009,2.114,2.114,0,0,1-.3-1.209V2192a2.164,2.164,0,0,1,.292-1.249,1.041,1.041,0,0,1,.912-.408,1.054,1.054,0,0,1,.906.393,2.1,2.1,0,0,1,.3,1.219Zm-.486-.663a1.764,1.764,0,0,0-.173-.9.594.594,0,0,0-.547-.282.587.587,0,0,0-.542.281,1.741,1.741,0,0,0-.177.863v.776a1.8,1.8,0,0,0,.181.912.649.649,0,0,0,1.077.017,1.742,1.742,0,0,0,.181-.875Z" transform="translate(-1256.823 -2190.341)" fill="#7eb3ff"/>
                <path id="Trazado_102965" data-name="Trazado 102965" d="M1266.38,2194.208h-2.5v-.348l1.321-1.468a3.126,3.126,0,0,0,.405-.541.9.9,0,0,0,.111-.431.685.685,0,0,0-.181-.49.631.631,0,0,0-.481-.192.747.747,0,0,0-.563.207.782.782,0,0,0-.2.572h-.486a1.128,1.128,0,0,1,.339-.853,1.261,1.261,0,0,1,.909-.324,1.206,1.206,0,0,1,.841.279.954.954,0,0,1,.309.743,2.177,2.177,0,0,1-.718,1.341l-1.021,1.109h1.915Z" transform="translate(-1257.78 -2190.341)" fill="#7eb3ff"/>
                <path id="Trazado_102966" data-name="Trazado 102966" d="M1269.529,2194.219h-.488v-3.23l-.977.358v-.439l1.39-.521h.076Z" transform="translate(-1258.822 -2190.352)" fill="#7eb3ff"/>
              </g>
              <g id="Grupo_88259" data-name="Grupo 88259" transform="translate(105.388 137.756)">
                <path id="Trazado_102967" data-name="Trazado 102967" d="M1311.823,2194.208h-2.5v-.348l1.321-1.468a3.168,3.168,0,0,0,.4-.541.907.907,0,0,0,.111-.431.686.686,0,0,0-.18-.49.631.631,0,0,0-.481-.192.747.747,0,0,0-.563.207.782.782,0,0,0-.2.572h-.486a1.128,1.128,0,0,1,.339-.853,1.26,1.26,0,0,1,.909-.324,1.207,1.207,0,0,1,.841.279.953.953,0,0,1,.309.743,2.178,2.178,0,0,1-.718,1.341l-1.022,1.109h1.915Z" transform="translate(-1309.25 -2190.341)" fill="#7eb3ff"/>
                <path id="Trazado_102968" data-name="Trazado 102968" d="M1315.725,2192.581a2.213,2.213,0,0,1-.292,1.266,1.206,1.206,0,0,1-1.813.009,2.108,2.108,0,0,1-.3-1.209V2192a2.164,2.164,0,0,1,.292-1.249,1.041,1.041,0,0,1,.912-.408,1.054,1.054,0,0,1,.906.393,2.1,2.1,0,0,1,.3,1.219Zm-.486-.663a1.773,1.773,0,0,0-.172-.9.6.6,0,0,0-.548-.282.587.587,0,0,0-.542.281,1.741,1.741,0,0,0-.177.863v.776a1.8,1.8,0,0,0,.181.912.593.593,0,0,0,.544.3.587.587,0,0,0,.533-.279,1.742,1.742,0,0,0,.181-.875Z" transform="translate(-1310.245 -2190.341)" fill="#7eb3ff"/>
                <path id="Trazado_102969" data-name="Trazado 102969" d="M1319.8,2194.208h-2.5v-.348l1.322-1.468a3.156,3.156,0,0,0,.4-.541.9.9,0,0,0,.111-.431.688.688,0,0,0-.18-.49.633.633,0,0,0-.482-.192.747.747,0,0,0-.563.207.782.782,0,0,0-.2.572h-.486a1.131,1.131,0,0,1,.339-.853,1.262,1.262,0,0,1,.909-.324,1.205,1.205,0,0,1,.841.279.953.953,0,0,1,.309.743,2.178,2.178,0,0,1-.718,1.341l-1.021,1.109h1.915Z" transform="translate(-1311.202 -2190.341)" fill="#7eb3ff"/>
                <path id="Trazado_102970" data-name="Trazado 102970" d="M1323.792,2194.208h-2.5v-.348l1.321-1.468a3.129,3.129,0,0,0,.4-.541.9.9,0,0,0,.111-.431.686.686,0,0,0-.18-.49.631.631,0,0,0-.481-.192.747.747,0,0,0-.563.207.782.782,0,0,0-.2.572h-.486a1.128,1.128,0,0,1,.339-.853,1.261,1.261,0,0,1,.909-.324,1.207,1.207,0,0,1,.841.279.953.953,0,0,1,.309.743,2.176,2.176,0,0,1-.719,1.341l-1.021,1.109h1.915Z" transform="translate(-1312.179 -2190.341)" fill="#7eb3ff"/>
              </g>
              <rect id="Rectángulo_34788" data-name="Rectángulo 34788" width="118.661" height="19.216" transform="translate(13.235 19.218)" fill="#fff" opacity="0.34"/>
              <rect id="Rectángulo_34789" data-name="Rectángulo 34789" width="118.661" height="19.217" transform="translate(13.235 57.652)" fill="#fff" opacity="0.34"/>
              <rect id="Rectángulo_34790" data-name="Rectángulo 34790" width="118.661" height="19.217" transform="translate(13.235 96.087)" fill="#fff" opacity="0.34"/>
            </g>
            <g id="Grupo_88261" data-name="Grupo 88261" transform="translate(13.235 19.218)">
              <rect id="Rectángulo_34791" data-name="Rectángulo 34791" width="53.325" height="3.067" fill="#c5e1f9"/>
              <rect id="Rectángulo_34792" data-name="Rectángulo 34792" width="91.599" height="3.07" transform="translate(0 8.072)" fill="#9ac7f7"/>
              <rect id="Rectángulo_34793" data-name="Rectángulo 34793" width="32.647" height="3.068" transform="translate(0 16.148)" fill="#eaf4fe"/>
              <rect id="Rectángulo_34794" data-name="Rectángulo 34794" width="96.255" height="3.068" transform="translate(0 38.433)" fill="#c5e1f9"/>
              <rect id="Rectángulo_34795" data-name="Rectángulo 34795" width="39.553" height="3.069" transform="translate(0 46.509)" fill="#9ac7f7"/>
              <rect id="Rectángulo_34796" data-name="Rectángulo 34796" width="79.109" height="3.067" transform="translate(0 54.583)" fill="#eaf4fe"/>
              <rect id="Rectángulo_34797" data-name="Rectángulo 34797" width="39.553" height="3.07" transform="translate(0 77.116)" fill="#c5e1f9"/>
              <rect id="Rectángulo_34798" data-name="Rectángulo 34798" width="79.109" height="3.069" transform="translate(0 85.191)" fill="#9ac7f7"/>
              <rect id="Rectángulo_34799" data-name="Rectángulo 34799" width="65.294" height="3.067" transform="translate(0 93.267)" fill="#eaf4fe"/>
            </g>
          </g>
        </g>
      </g>
      <g id="Grupo_88272" data-name="Grupo 88272" transform="translate(1235.806 2014.817)">
        <g id="Grupo_88267" data-name="Grupo 88267" transform="translate(34.693 184.767)">
          <path id="Trazado_102971" data-name="Trazado 102971" d="M1374.487,2301.64l1.688-18.121-7.907-.49-.863,20.911Z" transform="translate(-1358.081 -2283.028)" fill="#e9d6b8"/>
          <g id="Grupo_88266" data-name="Grupo 88266" transform="translate(0 15.836)">
            <path id="Trazado_102972" data-name="Trazado 102972" d="M1355.069,2322.428c-.116,1.062,1.187,2.76,1.187,2.76s11.238-4.193,14.254-6.735a19.928,19.928,0,0,0,2.9-3.711c.175-.26.182-1.283.338-1.542.3-.47.739-.16.991-.574a14.132,14.132,0,0,0,1.059-1.943c-1.536-5.349-3.774-6.69-3.774-6.69s-2.9,4.507-3,3.056c-.2-3.1-5.932-1.444-5.97.338C1362.9,2314.507,1355.394,2319.35,1355.069,2322.428Z" transform="translate(-1355.061 -2303.994)" fill="#3b4454"/>
            <path id="Trazado_102973" data-name="Trazado 102973" d="M1355.358,2325.007c3.5-1.24,10.812-3.884,11.965-4.757,4.718-3.572,6.439-7.87,7.7-10.619a23.7,23.7,0,0,1,.847,2.432,14.11,14.11,0,0,1-1.059,1.944c-.252.415-.688.1-.991.574-.156.258-.163,1.282-.338,1.542a19.932,19.932,0,0,1-2.9,3.711c-3.016,2.542-14.254,6.734-14.254,6.734A7.869,7.869,0,0,1,1355.358,2325.007Z" transform="translate(-1355.134 -2305.373)" fill="#e5e8ec"/>
            <g id="Grupo_88265" data-name="Grupo 88265" transform="translate(4.036 5.514)">
              <path id="Trazado_102974" data-name="Trazado 102974" d="M1360.409,2318.918c.048.214.528.1,1.091-.217a21.655,21.655,0,0,1,3.6-1.633c.631-.212,1.084-.539,1.01-.755s-.664-.243-1.28-.025a21.165,21.165,0,0,0-3.547,1.635C1360.74,2318.242,1360.357,2318.7,1360.409,2318.918Z" transform="translate(-1360.405 -2312.48)" fill="#e5e8ec"/>
              <path id="Trazado_102975" data-name="Trazado 102975" d="M1362.139,2315.98c.06.215.568.141,1.144-.126a20.945,20.945,0,0,1,3.7-1.329c.634-.166,1.1-.452,1.014-.672s-.69-.291-1.316-.126a21.327,21.327,0,0,0-3.648,1.348C1362.468,2315.346,1362.079,2315.769,1362.139,2315.98Z" transform="translate(-1360.828 -2311.868)" fill="#e5e8ec"/>
              <path id="Trazado_102976" data-name="Trazado 102976" d="M1363.867,2313.222c.069.217.6.184,1.2-.039a21.571,21.571,0,0,1,3.786-1.032c.649-.118,1.121-.366,1.017-.591s-.708-.34-1.348-.216a21.4,21.4,0,0,0-3.735,1.052C1364.2,2312.621,1363.8,2313.006,1363.867,2313.222Z" transform="translate(-1361.25 -2311.295)" fill="#e5e8ec"/>
            </g>
          </g>
        </g>
        <g id="Grupo_88269" data-name="Grupo 88269" transform="translate(118.208 213.614)">
          <path id="Trazado_102977" data-name="Trazado 102977" d="M1479.227,2337.753c1.622-2.853-1.068-6.445-1.068-6.445l-3.332-10.088-4.78.146,1.334,17.772S1477.605,2340.6,1479.227,2337.753Z" transform="translate(-1466.711 -2321.22)" fill="#e9d6b8"/>
          <path id="Trazado_102978" data-name="Trazado 102978" d="M1476.845,2334.44a8.6,8.6,0,0,1,1.767,1.3c1.4,1.168,1.7,2.089,1.647,2.927-.2,3.242-1.4,5.2-2.594,12.736s-2.986,9.282-6.983,10.169-5.767-2.18-4.788-5.713c1.431-5.11,3-7.673,3.544-10.408.574-2.864.027-3.256-.372-5.2-.377-1.826,5.574-1.217,6.326.652C1476.054,2342.546,1478.532,2336.249,1476.845,2334.44Z" transform="translate(-1465.63 -2324.455)" fill="#3b4454"/>
          <path id="Trazado_102979" data-name="Trazado 102979" d="M1479.494,2337.758c-.2,3.242-1.4,5.194-2.6,12.732s-2.984,9.283-6.983,10.172a3.991,3.991,0,0,1-4.046-.965c.5,1.934,2.175,3.14,4.873,2.542,4-.887,5.787-2.628,6.983-10.169s2.4-9.494,2.594-12.736a2.876,2.876,0,0,0-.856-2.163A2.635,2.635,0,0,1,1479.494,2337.758Z" transform="translate(-1465.688 -2325.123)" fill="#e5e8ec"/>
          <path id="Trazado_102980" data-name="Trazado 102980" d="M1480.572,2334.487a.627.627,0,0,0-.094-.047c.032.032.057.079.085.109C1480.569,2334.532,1480.569,2334.506,1480.572,2334.487Z" transform="translate(-1469.263 -2324.455)" fill="#e9d6b8"/>
          <g id="Grupo_88268" data-name="Grupo 88268" transform="translate(2.014 20.389)">
            <path id="Trazado_102981" data-name="Trazado 102981" d="M1474.516,2355.4c0,.259-.5.307-1.123.163a17.763,17.763,0,0,0-3.922-.5c-.672-.014-1.2-.207-1.174-.483s.593-.514,1.245-.5a18.2,18.2,0,0,1,3.867.528C1474.027,2354.767,1474.511,2355.143,1474.516,2355.4Z" transform="translate(-1468.296 -2349.649)" fill="#e5e8ec"/>
            <path id="Trazado_102982" data-name="Trazado 102982" d="M1475.147,2352.349c-.038.259-.533.321-1.119.183a16.531,16.531,0,0,0-3.707-.43c-.634,0-1.11-.191-1.049-.467s.632-.529,1.254-.517a16.445,16.445,0,0,1,3.657.465C1474.759,2351.728,1475.176,2352.1,1475.147,2352.349Z" transform="translate(-1468.534 -2348.925)" fill="#e5e8ec"/>
            <path id="Trazado_102983" data-name="Trazado 102983" d="M1476.026,2349.312c-.054.259-.585.344-1.2.224a18.444,18.444,0,0,0-3.869-.322c-.658.011-1.146-.165-1.061-.445s.695-.544,1.345-.554a18.012,18.012,0,0,1,3.819.361C1475.662,2348.7,1476.085,2349.049,1476.026,2349.312Z" transform="translate(-1468.685 -2348.214)" fill="#e5e8ec"/>
          </g>
        </g>
        <path id="Trazado_102984" data-name="Trazado 102984" d="M1313.861,2076.888a6.5,6.5,0,0,1,.975-5.206s4.329-6.278,3.928-7.9.493-4.814.493-4.814-.274-1.508-2.059,1.009a12.7,12.7,0,0,0-1.671,3.416s-3.731,2.7-4.223,3.956c-1.008,2.594,1.132,9.2,1.132,9.2S1313.963,2077.238,1313.861,2076.888Z" transform="translate(-1309.595 -2043.328)" fill="#e9d6b8"/>
        <path id="Trazado_102985" data-name="Trazado 102985" d="M1334.623,2087.335s-18.651,3.875-23.478-15.044c-1.433-5.623-1.947.249-2.015,5.944s6.008,20.333,17.02,24.271,15.52,4.494,18.916,1.106S1334.623,2087.335,1334.623,2087.335Z" transform="translate(-1309.129 -2046.14)" fill="#e9d6b8"/>
        <path id="Trazado_102986" data-name="Trazado 102986" d="M1426.786,2146.659l-51,41.212,4.412,17.323a84.621,84.621,0,0,0,34.378-14.328C1430.727,2179.062,1426.786,2146.659,1426.786,2146.659Z" transform="translate(-1325.44 -2064.894)" fill="#163f59"/>
        <path id="Trazado_102987" data-name="Trazado 102987" d="M1375.535,2278.181c3.632-12.587,11.232-35.772,12.149-43.987a116.856,116.856,0,0,0,.224-26.047L1373.2,2201.5l-6.795,75.875Z" transform="translate(-1323.143 -2078.312)" fill="#163f59"/>
        <path id="Trazado_102988" data-name="Trazado 102988" d="M1439.229,2145.944l-13.615,23.593-4.7,48.87L1441.669,2233s2.294-23.7,5.717-43.988C1450.714,2169.3,1439.229,2145.944,1439.229,2145.944Z" transform="translate(-1336.481 -2064.719)" fill="#194866"/>
        <path id="Trazado_102989" data-name="Trazado 102989" d="M1466.239,2310.444c-4.334-15.523-11.44-44.654-15.679-53.931-7.854-17.182-11.077-16.659-11.077-16.659l-18.424,1.6,35.819,73.51Z" transform="translate(-1336.516 -2087.697)" fill="#194866"/>
        <path id="Trazado_102990" data-name="Trazado 102990" d="M1383.512,2095.6s1.511,6.344-22.795,15.09c-15.149,5.456-21.033.553-21.033.553l-7.167-2.853,6-18.543,8.8,1.673.275,1.311a3.621,3.621,0,0,0,3.1.123c1.515-.759,8.651-3.99,23.192-6.9C1390.817,2082.657,1383.142,2094.107,1383.512,2095.6Z" transform="translate(-1314.852 -2049.911)" fill="#2a75a9"/>
        <path id="Trazado_102991" data-name="Trazado 102991" d="M1354.868,2102.684l-.109-4.956-.163-1.975a3.943,3.943,0,0,1-2.636-.456l.8,3.658.12,4.5-1.789,5.9Z" transform="translate(-1319.398 -2052.326)" fill="#60c1dd"/>
        <path id="Trazado_102992" data-name="Trazado 102992" d="M1402.789,2150.336l34.645-1.306-28.1-63.4s-12.583-16.545-25.493-7.192a93.3,93.3,0,0,1-14.379,8.5S1366.188,2114.389,1402.789,2150.336Z" transform="translate(-1323.872 -2047.501)" fill="#60c1dd"/>
        <g id="Grupo_88270" data-name="Grupo 88270" transform="translate(1.849 34.028)">
          <path id="Trazado_102993" data-name="Trazado 102993" d="M1317.2,2163.78c-1.771-.008-5.627-4.017-5.627-4.017l2-5.373,4.055-.923,1.336,2.767.676,5.526S1318.288,2163.789,1317.2,2163.78Z" transform="translate(-1311.577 -2100.588)" fill="#e9d6b8"/>
          <path id="Trazado_102994" data-name="Trazado 102994" d="M1384.423,2105.589l-15.943,28.869.846,2.3-2.386.48,7.006,11.057,11.347-2.757,21.054-39.82s2.63-10.322-5.048-20.86C1395.738,2077.216,1385.832,2103.273,1384.423,2105.589Z" transform="translate(-1325.123 -2083.458)" fill="#2a75a9"/>
          <path id="Trazado_102995" data-name="Trazado 102995" d="M1355.875,2154.846l-39.116,5.627s.582,2.984,2.7,3.772c5.749,2.136,19.3,3.989,25.973,3.6a103.65,103.65,0,0,0,18.051-2.917Z" transform="translate(-1312.845 -2100.925)" fill="#e9d6b8"/>
          <path id="Trazado_102996" data-name="Trazado 102996" d="M1379.811,2160.9s-7.2-5.306-10.853-8.205l.369,1-2.386.48,2.454,3.805,4.283,4.88,2.525-.95-.918-1.729Z" transform="translate(-1325.123 -2100.398)" fill="#60c1dd"/>
        </g>
        <g id="Grupo_88271" data-name="Grupo 88271" transform="translate(45.939)">
          <path id="Trazado_102997" data-name="Trazado 102997" d="M1377.666,2067.994c-2.162,7.011.085,14.844.455,15.179,3.6,3.271,9.281-3.052,9.112-4.957s1.9-10.075,2.469-11.232S1378.9,2064.006,1377.666,2067.994Z" transform="translate(-1371.611 -2045.047)" fill="#e9d6b8"/>
          <path id="Trazado_102998" data-name="Trazado 102998" d="M1383.314,2065.466a21.906,21.906,0,0,1,5.66.867c-.805,2.054-1.647,4.074-2.323,5.376-1.891,3.621-5.483,4.277-7.83,4.963a5.477,5.477,0,0,1-1.744.171c0-1.236.18-3.828.672-8.869C1377.933,2066.083,1380.559,2065.469,1383.314,2065.466Z" transform="translate(-1371.694 -2045.028)" fill="#e9d6b8"/>
          <path id="Trazado_102999" data-name="Trazado 102999" d="M1377.725,2043.791l-6.948,17.619s-1.644,4.17-.293,5.4,5.759,2.615,8.1,1.924,5.935-1.339,7.821-4.965,5.067-12.837,5.067-12.837-.121-3.495-6.4-3.9S1377.725,2043.791,1377.725,2043.791Z" transform="translate(-1369.95 -2039.724)" fill="#e9d6b8"/>
          <path id="Trazado_103000" data-name="Trazado 103000" d="M1382.088,2038.432a3.431,3.431,0,0,0-3.213,1.193,3.86,3.86,0,0,0,.672,4.488c1.063.749,8.61,3.782,9.663,3.812s2.955.354,4.326-.768c.891-.727-1.179-3.871-3.063-4.037C1385.667,2042.688,1385.258,2038.766,1382.088,2038.432Z" transform="translate(-1372.026 -2038.406)" fill="#194866"/>
          <path id="Trazado_103001" data-name="Trazado 103001" d="M1394.518,2048.964l-3,7.615-.992,4.264.9.355,1.639.645s6.811-9.388,4.741-11.585S1394.9,2048.426,1394.518,2048.964Z" transform="translate(-1374.984 -2040.89)" fill="#194866"/>
          <path id="Trazado_103002" data-name="Trazado 103002" d="M1391.419,2065.166a1.28,1.28,0,0,0,.723,1.662l.7.28a1.293,1.293,0,0,0,1.669-.723l1.094-2.791a1.279,1.279,0,0,0-.722-1.663l-.7-.276a1.288,1.288,0,0,0-1.665.72Z" transform="translate(-1375.181 -2044.073)" fill="#e9d6b8"/>
        </g>
        <path id="Trazado_103003" data-name="Trazado 103003" d="M1385.279,2086.079l3.812,3.789,2.911-12.395-2.1-.9Z" transform="translate(-1327.762 -2047.744)" fill="#2a75a9"/>
        <path id="Trazado_103004" data-name="Trazado 103004" d="M1379.224,2087.306l-.853-1.6.419,3.534,3.332,4.551,1.054-5.021Z" transform="translate(-1326.072 -2049.98)" fill="#2a75a9"/>
      </g>
      <g id="Grupo_88273" data-name="Grupo 88273" transform="translate(1208.135 2002.764)">
        <path id="Trazado_103005" data-name="Trazado 103005" d="M1291.333,2089.2l29.5-46.261a10.3,10.3,0,0,0,11.831-11.786l-3.3,5.176-7.247-.318-3.339-6.436,4.521-7.095a10.315,10.315,0,0,0-9.349,16.076l-29.487,46.262a10.3,10.3,0,0,0-11.335,13.721l4.219-6.619,5.946.263,2.752,5.281-4.917,7.712a10.315,10.315,0,0,0,10.206-15.976Z" transform="translate(-1272.495 -2022.449)" fill="#0450cf"/>
        <path id="Trazado_103006" data-name="Trazado 103006" d="M1294.129,2092.02l29.5-46.261a10.3,10.3,0,0,0,11.831-11.786l-3.3,5.176-7.247-.318-1.159-2.23-37.474,58.771,2.559,4.913-4.917,7.712a10.315,10.315,0,0,0,10.206-15.976Z" transform="translate(-1275.291 -2025.269)" fill="#387bff"/>
      </g>
      <path id="Trazado_103007" data-name="Trazado 103007" d="M1304.243,2073.469l3.274-4.678,3.508-.936,1.4,2.339-2.48,1.568-3.6,1.94-1.4,1.871Z" transform="translate(-72.128 -30.795)" fill="#e9d6b8"/>
      <g id="Grupo_88274" data-name="Grupo 88274" transform="translate(1033.947 1991.453)">
        <path id="Trazado_103008" data-name="Trazado 103008" d="M1085.454,2049.45a35.924,35.924,0,0,0-12.229,9.544c-5.435,6.642-17.242,22.911-19.09,29.328s17.526-4.025,17.526-4.025,16.232-24.648,16.848-29.187S1085.454,2049.45,1085.454,2049.45Z" transform="translate(-1044.848 -2017.744)" fill="#60c1dd"/>
        <path id="Trazado_103009" data-name="Trazado 103009" d="M1070.384,2095.75c4.8,4.642,14.4,14.928,14.4,14.928s2.268,10.154-5.255,7.611S1053.185,2101,1053.185,2101,1065.582,2091.109,1070.384,2095.75Z" transform="translate(-1044.646 -2028.77)" fill="#60c1dd"/>
        <path id="Trazado_103010" data-name="Trazado 103010" d="M1159.655,2264.843h-23.188l-.317-4.447,7.305-2.224S1155.525,2260.079,1159.655,2264.843Z" transform="translate(-1064.946 -2068.815)" fill="#281617"/>
        <path id="Trazado_103011" data-name="Trazado 103011" d="M1070.541,2131.095s-3.176,4.447-4.129,12.705-3.494,28.27-3.494,28.27l-4.573,30.812-16.465,66.357,12.388,2.224,19.773-67.484,9.841-49.061S1084.835,2129.506,1070.541,2131.095Z" transform="translate(-1041.88 -2037.704)" fill="#12263f"/>
        <path id="Trazado_103012" data-name="Trazado 103012" d="M1109.473,2135.781l42.261,33.337-19.413,60.407s-5.4,3.176-8.577,3.494,4.088-33.144,5.041-42.037,5.431-12.2,5.113-15.689-40.3-18.693-40.3-18.693-14.406-8.748-7.628-20.5C1089.491,2129.989,1109.473,2135.781,1109.473,2135.781Z" transform="translate(-1052.224 -2038.26)" fill="#12263f"/>
        <path id="Trazado_103013" data-name="Trazado 103013" d="M1126.9,2061.273c.3-1.963-14.839-9.283-23.339-13.538a3.659,3.659,0,0,0-1.7-.526l-13.136,1.8a32.752,32.752,0,0,0-4.148,18.02c.505,10.843-1.058,26.027-3.41,32.277s-4.6,13.2-4.6,13.2,2.877,6.562,7.062,7.9c8.12,2.589,15.925,1.517,28.059-1.517,4.145-1.036,8.025-32.505,9.772-38.951S1126.9,2061.273,1126.9,2061.273Z" transform="translate(-1050.368 -2017.196)" fill="#60c1dd"/>
        <path id="Trazado_103014" data-name="Trazado 103014" d="M1132.923,2023.428s-1.806,10.765-2.977,14.393-3.347,7.265-7.276,6-4.223-.362-4.846-2.566S1118.237,2021.358,1132.923,2023.428Z" transform="translate(-1060.429 -2011.336)" fill="#ec9568"/>
        <path id="Trazado_103015" data-name="Trazado 103015" d="M1110.112,2033.133l10.777-7.535-.98,23.715s-11.4,1.459-12.461-7.794" transform="translate(-1057.923 -2011.908)" fill="#f7b68b"/>
        <path id="Trazado_103016" data-name="Trazado 103016" d="M1114.985,2010.171s-1.55-4.506,6.611-1.871,10.784,3.816,11.71,6.117,1.647,4.2-.342,6.231-5.617.857-6.5,3.577-1.971,4.036-3.7,2.144-3.94-2.273-3.911.74-1.835,7.753-5.062,6.377-6.446-1.747-5.117-10S1108.266,2011.34,1114.985,2010.171Z" transform="translate(-1058.15 -2007.474)" fill="#281617"/>
        <path id="Trazado_103017" data-name="Trazado 103017" d="M1182.39,2116.07c-.105-.134,5.99.058,8.449-.658s3.226-.489,3.741-.738c1.921-.93,2.62-2.114,1.342-1.738-1.511.444,2.461-1.294,2.729-1.7.616-.939-3.706.385-3.358-.042.1-.127,4.123-1.725,4.16-1.881.409-1.7-1.609-.563-.828-1.292,1.022-.955-1.516-.666-3.967-.24-.817.143-1.851.369-2.544.561a7.791,7.791,0,0,1-5.419-.79s3.69-1.37,3.194-2.321c-.174-.334-4.423.75-5.364.9s-5.255,5.347-5.255,5.347Z" transform="translate(-1075.497 -2031.377)" fill="#f7b68b"/>
        <path id="Trazado_103018" data-name="Trazado 103018" d="M1133.317,2062.784a35.931,35.931,0,0,0-1.658,15.424c.987,8.525,4.451,28.326,7.773,34.119s9.308-15.386,9.308-15.386-6.4-28.811-9.232-32.412S1133.317,2062.784,1133.317,2062.784Z" transform="translate(-1063.793 -2020.89)" fill="#60c1dd"/>
        <path id="Trazado_103019" data-name="Trazado 103019" d="M1151.1,2109.549c6.675-.218,20.742.048,20.742.048s8.869,5.44,1.808,9.072-30.749,6.883-30.749,6.883S1144.429,2109.767,1151.1,2109.549Z" transform="translate(-1066.599 -2032.429)" fill="#60c1dd"/>
        <path id="Trazado_103020" data-name="Trazado 103020" d="M1045.08,2316.289l2.4,5.145,8.918,2.4,6.887-2.85,2.031-1.953s-3.611-3.5-7.718-2.915c-1.2.172-3.258-2.229-4.63-4.288S1044.051,2307.714,1045.08,2316.289Z" transform="translate(-1042.639 -2081.501)" fill="#212957"/>
      </g>
    </g>
  </g>
</svg>
