<svg xmlns="http://www.w3.org/2000/svg" xmlns:xlink="http://www.w3.org/1999/xlink" width="300.215" height="300.215" viewBox="0 0 300.215 300.215">
  <defs>
    <filter id="Rectángulo_32997" x="0" y="0" width="300.215" height="300.215" filterUnits="userSpaceOnUse">
      <feOffset dy="3" input="SourceAlpha"/>
      <feGaussianBlur stdDeviation="3" result="blur"/>
      <feFlood flood-opacity="0.161"/>
      <feComposite operator="in" in2="blur"/>
      <feComposite in="SourceGraphic"/>
    </filter>
  </defs>
  <g id="Grupo_88448" data-name="Grupo 88448" transform="translate(-933.821 -3082.464)">
    <g transform="matrix(1, 0, 0, 1, 933.82, 3082.46)" filter="url(#Rectángulo_32997)">
      <rect id="Rectángulo_32997-2" data-name="Rectángulo 32997" width="194.556" height="194.556" rx="22" transform="translate(12.54 147.11) rotate(-45)" fill="#f6f6f6" stroke="#3b4453" stroke-width="5"/>
    </g>
    <g id="Grupo_87457" data-name="Grupo 87457" transform="translate(822.851 3131.302)">
      <g id="Grupo_87456" data-name="Grupo 87456" transform="translate(182.647 50.698)">
        <g id="Grupo_87454" data-name="Grupo 87454" transform="translate(0)">
          <g id="Grupo_87453" data-name="Grupo 87453" transform="translate(2.484)">
            <g id="Grupo_87446" data-name="Grupo 87446">
              <g id="Grupo_87444" data-name="Grupo 87444" transform="translate(16.777)">
                <path id="Trazado_100880" data-name="Trazado 100880" d="M331.993,117.069a5.273,5.273,0,0,1-5.29,5.221h-107a5.268,5.268,0,0,1-5.289-5.221V55.905A5.266,5.266,0,0,1,219.7,50.7h107a5.271,5.271,0,0,1,5.29,5.207Z" transform="translate(-214.413 -50.698)" fill="#1a222b"/>
                <path id="Trazado_100881" data-name="Trazado 100881" d="M330.431,50.7H223.424a5.266,5.266,0,0,0-5.286,5.207v61.164a5.268,5.268,0,0,0,5.286,5.221H330.431a5.269,5.269,0,0,0,5.284-5.221V55.905A5.268,5.268,0,0,0,330.431,50.7Z" transform="translate(-213.378 -50.698)" fill="#0e2036"/>
                <path id="Trazado_100882" data-name="Trazado 100882" d="M326.7,50.7h-107a5.266,5.266,0,0,0-5.289,5.207v61.164a5.268,5.268,0,0,0,5.289,5.221h107a5.273,5.273,0,0,0,5.29-5.221V55.905A5.271,5.271,0,0,0,326.7,50.7Z" transform="translate(-214.413 -50.698)" fill="#153152"/>
                <path id="Trazado_100883" data-name="Trazado 100883" d="M323.653,54.39H220.907a3.172,3.172,0,0,0-3.172,3.132v55.891a3.158,3.158,0,0,0,3.172,3.126H323.653a3.157,3.157,0,0,0,3.169-3.126V57.522A3.171,3.171,0,0,0,323.653,54.39Z" transform="translate(-213.49 -49.672)" fill="#fafafa"/>
              </g>
              <g id="Grupo_87445" data-name="Grupo 87445" transform="translate(23.497 71.592)">
                <path id="Trazado_100884" data-name="Trazado 100884" d="M263.208,107.453V118.23h58.535a9.523,9.523,0,0,0,9.526-9.523v-1.254Z" transform="translate(-207.578 -107.453)" fill="#0e2036"/>
                <path id="Trazado_100885" data-name="Trazado 100885" d="M206.7,107.453v1.254a9.528,9.528,0,0,0,9.53,9.523h59.682V107.453Z" transform="translate(-206.705 -107.453)" fill="#243242"/>
              </g>
              <path id="Trazado_100886" data-name="Trazado 100886" d="M252.273,107.453H183.058v1.254a9.528,9.528,0,0,0,9.532,9.523H310.806a9.529,9.529,0,0,0,9.531-9.523v-1.254Z" transform="translate(-183.058 -35.861)" fill="#193a61"/>
            </g>
            <g id="_9" data-name="9" transform="translate(83.412 21.956)">
              <path id="Trazado_100887" data-name="Trazado 100887" d="M283.6,85.072l-.238.019.482,21.464a21.446,21.446,0,0,0,19.8-14.469Z" transform="translate(-261.894 -63.622)" fill="#5794d9"/>
              <path id="Trazado_100888" data-name="Trazado 100888" d="M302.217,75.246a21.46,21.46,0,0,0-29.769-1.808L286.39,89.754l.138-.009L302.42,75.483C302.35,75.4,302.287,75.323,302.217,75.246Z" transform="translate(-264.926 -68.285)" fill="#447a52"/>
              <path id="Trazado_100889" data-name="Trazado 100889" d="M304.723,86.4a21.438,21.438,0,0,0-5.364-12.479L283.467,88.181l.1-.01,20.046,7.015A21.438,21.438,0,0,0,304.723,86.4Z" transform="translate(-261.864 -66.721)" fill="#e87152"/>
              <path id="Trazado_100890" data-name="Trazado 100890" d="M288.025,88.634,274.083,72.318A21.466,21.466,0,0,0,288.507,110.1Z" transform="translate(-266.561 -67.165)" fill="#ffce3b"/>
            </g>
            <rect id="Rectángulo_32824" data-name="Rectángulo 32824" width="55.895" height="40.853" transform="translate(37.893 22.428)" fill="#e1e1e1"/>
            <g id="Grupo_87451" data-name="Grupo 87451" transform="translate(40.053 25.092)">
              <g id="Grupo_87447" data-name="Grupo 87447">
                <rect id="Rectángulo_32825" data-name="Rectángulo 32825" width="8.366" height="7.354" fill="#ffce3b"/>
                <rect id="Rectángulo_32826" data-name="Rectángulo 32826" width="40.388" height="7.354" transform="translate(11.039)" fill="#afafaf"/>
              </g>
              <g id="Grupo_87448" data-name="Grupo 87448" transform="translate(0 9.394)">
                <rect id="Rectángulo_32827" data-name="Rectángulo 32827" width="8.366" height="7.357" fill="#5794d9"/>
                <rect id="Rectángulo_32828" data-name="Rectángulo 32828" width="40.388" height="7.357" transform="translate(11.039)" fill="#afafaf"/>
              </g>
              <g id="Grupo_87449" data-name="Grupo 87449" transform="translate(0 18.785)">
                <rect id="Rectángulo_32829" data-name="Rectángulo 32829" width="8.366" height="7.355" fill="#447a52"/>
                <rect id="Rectángulo_32830" data-name="Rectángulo 32830" width="40.388" height="7.355" transform="translate(11.039)" fill="#afafaf"/>
              </g>
              <g id="Grupo_87450" data-name="Grupo 87450" transform="translate(0 28.18)">
                <rect id="Rectángulo_32831" data-name="Rectángulo 32831" width="8.366" height="7.356" fill="#e87152"/>
                <rect id="Rectángulo_32832" data-name="Rectángulo 32832" width="40.388" height="7.356" transform="translate(11.039)" fill="#afafaf"/>
              </g>
            </g>
            <g id="Grupo_87452" data-name="Grupo 87452" transform="translate(37.557 9.701)">
              <path id="Trazado_100891" data-name="Trazado 100891" d="M226.49,64.534v3.341h-1.954V58.392h3.7a4.276,4.276,0,0,1,1.878.391,2.872,2.872,0,0,1,1.247,1.11,3.092,3.092,0,0,1,.437,1.638,2.721,2.721,0,0,1-.954,2.2,3.973,3.973,0,0,1-2.641.805Zm0-1.583h1.747a1.717,1.717,0,0,0,1.182-.364,1.329,1.329,0,0,0,.406-1.043,1.568,1.568,0,0,0-.41-1.127,1.533,1.533,0,0,0-1.133-.442H226.49Z" transform="translate(-224.536 -58.262)" fill="#5794d9"/>
              <path id="Trazado_100892" data-name="Trazado 100892" d="M234.781,64.4h-1.558v3.472H231.27V58.392h3.524a3.983,3.983,0,0,1,2.593.749,2.589,2.589,0,0,1,.912,2.117,2.914,2.914,0,0,1-.422,1.619,2.858,2.858,0,0,1-1.273,1.031l2.052,3.877v.091h-2.1Zm-1.558-1.583H234.8a1.611,1.611,0,0,0,1.14-.374,1.335,1.335,0,0,0,.4-1.032,1.428,1.428,0,0,0-.381-1.054,1.582,1.582,0,0,0-1.169-.385h-1.57Z" transform="translate(-222.665 -58.262)" fill="#5794d9"/>
              <path id="Trazado_100893" data-name="Trazado 100893" d="M243.638,63.766h-3.752v2.539h4.4v1.57h-6.357V58.392h6.343v1.583h-4.389v2.259h3.752Z" transform="translate(-220.814 -58.262)" fill="#5794d9"/>
              <path id="Trazado_100894" data-name="Trazado 100894" d="M248.808,65.416a1,1,0,0,0-.39-.85,5.126,5.126,0,0,0-1.407-.626,9.815,9.815,0,0,1-1.61-.648,2.63,2.63,0,0,1-1.615-2.351,2.289,2.289,0,0,1,.433-1.371,2.835,2.835,0,0,1,1.245-.942,4.674,4.674,0,0,1,1.82-.339,4.266,4.266,0,0,1,1.812.368A2.893,2.893,0,0,1,250.33,59.7a2.723,2.723,0,0,1,.44,1.524h-1.954a1.281,1.281,0,0,0-.411-1.013,1.691,1.691,0,0,0-1.153-.362,1.805,1.805,0,0,0-1.114.3.958.958,0,0,0-.4.8.918.918,0,0,0,.466.776,5.29,5.29,0,0,0,1.371.585,5.913,5.913,0,0,1,2.429,1.245,2.475,2.475,0,0,1,.763,1.849,2.284,2.284,0,0,1-.932,1.932,4.081,4.081,0,0,1-2.508.7,4.833,4.833,0,0,1-1.992-.4,3.161,3.161,0,0,1-1.372-1.1,2.819,2.819,0,0,1-.472-1.616h1.96q0,1.57,1.876,1.57a1.826,1.826,0,0,0,1.089-.284A.923.923,0,0,0,248.808,65.416Z" transform="translate(-219.269 -58.29)" fill="#5794d9"/>
              <path id="Trazado_100895" data-name="Trazado 100895" d="M257.422,58.392v6.246a3.2,3.2,0,0,1-.974,2.464,3.761,3.761,0,0,1-2.662.9,3.8,3.8,0,0,1-2.639-.879,3.147,3.147,0,0,1-1-2.418V58.392h1.955v6.26a1.807,1.807,0,0,0,.446,1.358,1.717,1.717,0,0,0,1.234.427q1.646,0,1.674-1.733V58.392Z" transform="translate(-217.42 -58.262)" fill="#5794d9"/>
              <path id="Trazado_100896" data-name="Trazado 100896" d="M259.049,64.534v3.341H257.1V58.392h3.7a4.278,4.278,0,0,1,1.88.391,2.875,2.875,0,0,1,1.248,1.11,3.1,3.1,0,0,1,.436,1.638,2.721,2.721,0,0,1-.955,2.2,3.971,3.971,0,0,1-2.641.805Zm0-1.583h1.744a1.719,1.719,0,0,0,1.183-.364,1.329,1.329,0,0,0,.406-1.043,1.562,1.562,0,0,0-.41-1.127,1.535,1.535,0,0,0-1.133-.442h-1.79Z" transform="translate(-215.491 -58.262)" fill="#5794d9"/>
              <path id="Trazado_100897" data-name="Trazado 100897" d="M271.026,58.392v6.246a3.2,3.2,0,0,1-.972,2.464,4.383,4.383,0,0,1-5.3.026,3.142,3.142,0,0,1-1-2.418V58.392h1.953v6.26a1.807,1.807,0,0,0,.447,1.358,1.713,1.713,0,0,0,1.234.427q1.648,0,1.674-1.733V58.392Z" transform="translate(-213.64 -58.262)" fill="#5794d9"/>
              <path id="Trazado_100898" data-name="Trazado 100898" d="M276.405,63.766h-3.752v2.539h4.4v1.57H270.7V58.392h6.344v1.583h-4.391v2.259h3.752Z" transform="translate(-211.712 -58.262)" fill="#5794d9"/>
              <path id="Trazado_100899" data-name="Trazado 100899" d="M281.577,65.416a1,1,0,0,0-.392-.85,5.1,5.1,0,0,0-1.406-.626,9.744,9.744,0,0,1-1.609-.648,2.629,2.629,0,0,1-1.616-2.351,2.3,2.3,0,0,1,.433-1.371,2.842,2.842,0,0,1,1.245-.942,4.675,4.675,0,0,1,1.821-.339,4.264,4.264,0,0,1,1.811.368A2.866,2.866,0,0,1,283.1,59.7a2.714,2.714,0,0,1,.441,1.524h-1.954a1.281,1.281,0,0,0-.411-1.013,1.686,1.686,0,0,0-1.153-.362,1.805,1.805,0,0,0-1.114.3.957.957,0,0,0-.4.8.917.917,0,0,0,.465.776,5.27,5.27,0,0,0,1.371.585,5.912,5.912,0,0,1,2.429,1.245,2.475,2.475,0,0,1,.763,1.849,2.284,2.284,0,0,1-.931,1.932,4.079,4.079,0,0,1-2.507.7,4.849,4.849,0,0,1-1.995-.4,3.153,3.153,0,0,1-1.37-1.1,2.81,2.81,0,0,1-.473-1.616h1.96q0,1.57,1.877,1.57a1.817,1.817,0,0,0,1.086-.284A.922.922,0,0,0,281.577,65.416Z" transform="translate(-210.167 -58.29)" fill="#5794d9"/>
              <path id="Trazado_100900" data-name="Trazado 100900" d="M290.257,59.975h-2.906v7.9H285.4v-7.9h-2.866V58.392h7.726Z" transform="translate(-208.425 -58.262)" fill="#5794d9"/>
              <path id="Trazado_100901" data-name="Trazado 100901" d="M297.159,63.377a5.747,5.747,0,0,1-.495,2.456,3.728,3.728,0,0,1-1.417,1.628,3.911,3.911,0,0,1-2.113.574,3.957,3.957,0,0,1-2.1-.566,3.78,3.78,0,0,1-1.434-1.619,5.578,5.578,0,0,1-.514-2.42V62.96a5.7,5.7,0,0,1,.5-2.465,3.752,3.752,0,0,1,1.427-1.636,4.18,4.18,0,0,1,4.214,0,3.773,3.773,0,0,1,1.426,1.636,5.682,5.682,0,0,1,.5,2.458Zm-1.979-.429a4,4,0,0,0-.534-2.267,1.887,1.887,0,0,0-3.042-.01,3.941,3.941,0,0,0-.541,2.244v.463a4.038,4.038,0,0,0,.534,2.254,1.871,1.871,0,0,0,3.049.029,4.028,4.028,0,0,0,.534-2.25Z" transform="translate(-206.605 -58.29)" fill="#5794d9"/>
            </g>
          </g>
          <g id="Grupo_87458" data-name="Grupo 87458" transform="translate(0 39.024)">
            <g id="Grupo_87440" data-name="Grupo 87440" transform="translate(26.345)">
              <path id="Trazado_100860" data-name="Trazado 100860" d="M245.637,107.166l-1.892.808L219.474,51.666l1.871-.778Z" transform="translate(-189.752 -50.888)" fill="#c4c4c4"/>
              <g id="Grupo_87439" data-name="Grupo 87439" transform="translate(0 0.778)">
                <rect id="Rectángulo_32822" data-name="Rectángulo 32822" width="32.365" height="61.318" transform="translate(0 12.812) rotate(-23.32)" fill="#82de9a"/>
                <path id="Trazado_100861" data-name="Trazado 100861" d="M204.46,67.194l17.292-7.451,18.922,43.894-17.289,7.452L204.46,67.194Zm-5.944-2.35,22.5,52.181,25.593-11.041-22.5-52.178-25.6,11.038Z" transform="translate(-195.574 -50.854)" fill="#447a52"/>
                <path id="Trazado_100862" data-name="Trazado 100862" d="M213.192,96.655a9.474,9.474,0,0,1,12.444,4.927l-8.7,3.757Z" transform="translate(-191.497 -39.167)" fill="#447a52"/>
                <path id="Trazado_100863" data-name="Trazado 100863" d="M202.265,71.947a9.472,9.472,0,0,0,4.953-12.438l-8.7,3.752Z" transform="translate(-195.574 -49.27)" fill="#447a52"/>
                <path id="Trazado_100864" data-name="Trazado 100864" d="M234.465,87.853a9.451,9.451,0,0,0-4.94,12.419l8.683-3.745Z" transform="translate(-187.175 -41.396)" fill="#447a52"/>
                <path id="Trazado_100865" data-name="Trazado 100865" d="M224.184,62.5a9.463,9.463,0,0,1-12.432-4.944l8.683-3.747Z" transform="translate(-191.897 -50.854)" fill="#447a52"/>
                <path id="Trazado_100866" data-name="Trazado 100866" d="M221.945,87.518a4.477,4.477,0,1,0,5.882,2.342A4.482,4.482,0,0,0,221.945,87.518Z" transform="translate(-189.818 -41.591)" fill="#447a52"/>
                <path id="Trazado_100867" data-name="Trazado 100867" d="M215.843,72.681a8.354,8.354,0,1,0,10.98,4.36A8.352,8.352,0,0,0,215.843,72.681Z" transform="translate(-192.163 -45.802)" fill="#447a52"/>
                <path id="Trazado_100868" data-name="Trazado 100868" d="M211.935,64.312a4.478,4.478,0,1,0,5.879,2.342A4.482,4.482,0,0,0,211.935,64.312Z" transform="translate(-192.597 -48.038)" fill="#447a52"/>
                <path id="Trazado_100869" data-name="Trazado 100869" d="M217.757,83.76c-1.875.808-2.986-.08-3.653-1.5l-1.123.484-.534-1.248L213.578,81a10.6,10.6,0,0,1-.592-2.447l1.687-.723c.261.825.809,2.262,1.081,2.9.326.763.547,1.11,1.28.791l.316-.13c.562-.249.7-.584.4-1.271l-.457-1.054c-.837-1.947.581-3.04,1.629-3.488l.547-.239c2.231-.957,3.306.152,3.862,1.453l1.086-.469.538,1.255-1.1.466a7.326,7.326,0,0,1,.6,2.475l-1.664.714c-.188-.539-.656-1.871-1.178-3.087-.236-.549-.561-.943-1.128-.7l-.386.165c-.471.2-.687.475-.414,1.119l.437,1.012a2.579,2.579,0,0,1-1.558,3.661Z" transform="translate(-191.704 -44.972)" fill="#75c78a"/>
              </g>
            </g>
            <g id="Grupo_87442" data-name="Grupo 87442" transform="translate(0 18.266)">
              <path id="Trazado_100870" data-name="Trazado 100870" d="M240.684,103.91l-1.285,1.61L191.306,67.493l1.28-1.583Z" transform="translate(-171.232 -65.91)" fill="#6cb880"/>
              <g id="Grupo_87441" data-name="Grupo 87441" transform="translate(0 1.582)">
                <rect id="Rectángulo_32823" data-name="Rectángulo 32823" width="32.362" height="61.313" transform="translate(0 25.386) rotate(-51.669)" fill="#82de9a"/>
                <path id="Trazado_100871" data-name="Trazado 100871" d="M184.412,90.728l11.677-14.764,37.491,29.644L221.9,120.374,184.412,90.728Zm-6.349.753,44.568,35.244,17.286-21.867-44.568-35.24L178.063,91.48Z" transform="translate(-174.911 -66.463)" fill="#447a52"/>
                <path id="Trazado_100872" data-name="Trazado 100872" d="M207.14,110.507a9.461,9.461,0,0,1,13.289-1.572l-5.875,7.432Z" transform="translate(-166.833 -56.105)" fill="#447a52"/>
                <path id="Trazado_100873" data-name="Trazado 100873" d="M185.482,94.214a9.469,9.469,0,0,0-1.546-13.3l-5.873,7.43Z" transform="translate(-174.911 -63.325)" fill="#447a52"/>
                <path id="Trazado_100874" data-name="Trazado 100874" d="M221.114,92.61a9.45,9.45,0,0,0,1.55,13.281l5.861-7.421Z" transform="translate(-163.519 -60.075)" fill="#447a52"/>
                <path id="Trazado_100875" data-name="Trazado 100875" d="M200.289,75.483A9.461,9.461,0,0,1,187,77.035l5.866-7.418Z" transform="translate(-172.428 -66.463)" fill="#447a52"/>
                <path id="Trazado_100876" data-name="Trazado 100876" d="M210.234,98.249a4.48,4.48,0,1,0,6.291-.723A4.487,4.487,0,0,0,210.234,98.249Z" transform="translate(-166.241 -58.979)" fill="#447a52"/>
                <path id="Trazado_100877" data-name="Trazado 100877" d="M197.53,88.591a8.353,8.353,0,1,0,11.729-1.372A8.347,8.347,0,0,0,197.53,88.591Z" transform="translate(-170.005 -62.074)" fill="#447a52"/>
                <path id="Trazado_100878" data-name="Trazado 100878" d="M190.414,82.577a4.478,4.478,0,1,0,6.287-.728A4.478,4.478,0,0,0,190.414,82.577Z" transform="translate(-171.748 -63.334)" fill="#447a52"/>
                <path id="Trazado_100879" data-name="Trazado 100879" d="M204.643,97.33c-1.268,1.606-2.668,1.354-3.929.41l-.759.956-1.067-.842.772-.967a10.354,10.354,0,0,1-1.685-1.871l1.14-1.445c.624.608,1.783,1.614,2.332,2.046.649.519,1.008.717,1.5.1l.215-.276c.383-.479.337-.841-.256-1.3l-.9-.716c-1.662-1.311-.929-2.936-.22-3.837l.36-.466c1.513-1.906,2.98-1.436,4.093-.553l.732-.93,1.066.843-.737.938a7.07,7.07,0,0,1,1.692,1.894l-1.126,1.418c-.414-.39-1.459-1.338-2.5-2.159-.471-.369-.94-.564-1.324-.077l-.261.323c-.316.4-.378.746.167,1.182l.864.684a2.587,2.587,0,0,1,.374,3.964Z" transform="translate(-169.38 -61.458)" fill="#75c78a"/>
              </g>
            </g>
          </g>
        </g>
        <g id="Grupo_87455" data-name="Grupo 87455" transform="translate(30.111 4.717)" opacity="0.4" style="mix-blend-mode: screen;isolation: isolate">
          <path id="Trazado_100902" data-name="Trazado 100902" d="M240.084,54.39,217.736,76.74V95.317L258.661,54.39Z" transform="translate(-217.736 -54.39)" fill="#fff"/>
          <path id="Trazado_100903" data-name="Trazado 100903" d="M283.061,54.39l-63.05,63.052c.088.005.175.027.264.027h33.358L316.711,54.39Z" transform="translate(-217.104 -54.39)" fill="#fff"/>
        </g>
      </g>
    </g>
  </g>
</svg>
